{"meta":{"title":"Prelude in C Major","bpm":60,"durationMs":140000},"notes":[{"time":0,"durationMs":2000,"midi":60,"velocity":0.7086614173228346,"hand":"L"},{"time":250,"durationMs":1750,"midi":64,"velocity":0.7086614173228346,"hand":"L"},{"time":500,"durationMs":250,"midi":67,"velocity":0.7086614173228346,"hand":"R"},{"time":750,"durationMs":250,"midi":72,"velocity":0.7086614173228346,"hand":"R"},{"time":1000,"durationMs":250,"midi":76,"velocity":0.7086614173228346,"hand":"R"},{"time":1250,"durationMs":250,"midi":67,"velocity":0.7086614173228346,"hand":"R"},{"time":1500,"durationMs":250,"midi":72,"velocity":0.7086614173228346,"hand":"R"},{"time":1750,"durationMs":250,"midi":76,"velocity":0.7086614173228346,"hand":"R"},{"time":2000,"durationMs":2000,"midi":60,"velocity":0.7086614173228346,"hand":"L"},{"time":2250,"durationMs":1750,"midi":64,"velocity":0.7086614173228346,"hand":"L"},{"time":2500,"durationMs":250,"midi":67,"velocity":0.7086614173228346,"hand":"R"},{"time":2750,"durationMs":250,"midi":72,"velocity":0.7086614173228346,"hand":"R"},{"time":3000,"durationMs":250,"midi":76,"velocity":0.7086614173228346,"hand":"R"},{"time":3250,"durationMs":250,"midi":67,"velocity":0.7086614173228346,"hand":"R"},{"time":3500,"durationMs":250,"midi":72,"velocity":0.7086614173228346,"hand":"R"},{"time":3750,"durationMs":250,"midi":76,"velocity":0.7086614173228346,"hand":"R"},{"time":4000,"durationMs":2000,"midi":60,"velocity":0.7086614173228346,"hand":"L"},{"time":4250,"durationMs":1750,"midi":62,"velocity":0.7086614173228346,"hand":"L"},{"time":4500,"durationMs":250,"midi":69,"velocity":0.7086614173228346,"hand":"R"},{"time":4750,"durationMs":250,"midi":74,"velocity":0.7086614173228346,"hand":"R"},{"time":5000,"durationMs":250,"midi":77,"velocity":0.7086614173228346,"hand":"R"},{"time":5250,"durationMs":250,"midi":69,"velocity":0.7086614173228346,"hand":"R"},{"time":5500,"durationMs":250,"midi":74,"velocity":0.7086614173228346,"hand":"R"},{"time":5750,"durationMs":250,"midi":77,"velocity":0.7086614173228346,"hand":"R"},{"time":6000,"durationMs":2000,"midi":60,"velocity":0.7086614173228346,"hand":"L"},{"time":6250,"durationMs":1750,"midi":62,"velocity":0.7086614173228346,"hand":"L"},{"time":6500,"durationMs":250,"midi":69,"velocity":0.7086614173228346,"hand":"R"},{"time":6750,"durationMs":250,"midi":74,"velocity":0.7086614173228346,"hand":"R"},{"time":7000,"durationMs":250,"midi":77,"velocity":0.7086614173228346,"hand":"R"},{"time":7250,"durationMs":250,"midi":69,"velocity":0.7086614173228346,"hand":"R"},{"time":7500,"durationMs":250,"midi":74,"velocity":0.7086614173228346,"hand":"R"},{"time":7750,"durationMs":250,"midi":77,"velocity":0.7086614173228346,"hand":"R"},{"time":8000,"durationMs":2000,"midi":59,"velocity":0.7086614173228346,"hand":"L"},{"time":8250,"durationMs":1750,"midi":62,"velocity":0.7086614173228346,"hand":"L"},{"time":8500,"durationMs":250,"midi":67,"velocity":0.7086614173228346,"hand":"R"},{"time":8750,"durationMs":250,"midi":74,"velocity":0.7086614173228346,"hand":"R"},{"time":9000,"durationMs":250,"midi":77,"velocity":0.7086614173228346,"hand":"R"},{"time":9250,"durationMs":250,"midi":67,"velocity":0.7086614173228346,"hand":"R"},{"time":9500,"durationMs":250,"midi":74,"velocity":0.7086614173228346,"hand":"R"},{"time":9750,"durationMs":250,"midi":77,"velocity":0.7086614173228346,"hand":"R"},{"time":10000,"durationMs":2000,"midi":59,"velocity":0.7086614173228346,"hand":"L"},{"time":10250,"durationMs":1750,"midi":62,"velocity":0.7086614173228346,"hand":"L"},{"time":10500,"durationMs":250,"midi":67,"velocity":0.7086614173228346,"hand":"R"},{"time":10750,"durationMs":250,"midi":74,"velocity":0.7086614173228346,"hand":"R"},{"time":11000,"durationMs":250,"midi":77,"velocity":0.7086614173228346,"hand":"R"},{"time":11250,"durationMs":250,"midi":67,"velocity":0.7086614173228346,"hand":"R"},{"time":11500,"durationMs":250,"midi":74,"velocity":0.7086614173228346,"hand":"R"},{"time":11750,"durationMs":250,"midi":77,"velocity":0.7086614173228346,"hand":"R"},{"time":12000,"durationMs":2000,"midi":60,"velocity":0.7086614173228346,"hand":"L"},{"time":12250,"durationMs":1750,"midi":64,"velocity":0.7086614173228346,"hand":"L"},{"time":12500,"durationMs":250,"midi":67,"velocity":0.7086614173228346,"hand":"R"},{"time":12750,"durationMs":250,"midi":72,"velocity":0.7086614173228346,"hand":"R"},{"time":13000,"durationMs":250,"midi":76,"velocity":0.7086614173228346,"hand":"R"},{"time":13250,"durationMs":250,"midi":67,"velocity":0.7086614173228346,"hand":"R"},{"time":13500,"durationMs":250,"midi":72,"velocity":0.7086614173228346,"hand":"R"},{"time":13750,"durationMs":250,"midi":76,"velocity":0.7086614173228346,"hand":"R"},{"time":14000,"durationMs":2000,"midi":60,"velocity":0.7086614173228346,"hand":"L"},{"time":14250,"durationMs":1750,"midi":64,"velocity":0.7086614173228346,"hand":"L"},{"time":14500,"durationMs":250,"midi":67,"velocity":0.7086614173228346,"hand":"R"},{"time":14750,"durationMs":250,"midi":72,"velocity":0.7086614173228346,"hand":"R"},{"time":15000,"durationMs":250,"midi":76,"velocity":0.7086614173228346,"hand":"R"},{"time":15250,"durationMs":250,"midi":67,"velocity":0.7086614173228346,"hand":"R"},{"time":15500,"durationMs":250,"midi":72,"velocity":0.7086614173228346,"hand":"R"},{"time":15750,"durationMs":250,"midi":76,"velocity":0.7086614173228346,"hand":"R"},{"time":16000,"durationMs":2000,"midi":60,"velocity":0.7086614173228346,"hand":"L"},{"time":16250,"durationMs":1750,"midi":64,"velocity":0.7086614173228346,"hand":"L"},{"time":16500,"durationMs":250,"midi":69,"velocity":0.7086614173228346,"hand":"R"},{"time":16750,"durationMs":250,"midi":76,"velocity":0.7086614173228346,"hand":"R"},{"time":17000,"durationMs":250,"midi":81,"velocity":0.7086614173228346,"hand":"R"},{"time":17250,"durationMs":250,"midi":69,"velocity":0.7086614173228346,"hand":"R"},{"time":17500,"durationMs":250,"midi":76,"velocity":0.7086614173228346,"hand":"R"},{"time":17750,"durationMs":250,"midi":81,"velocity":0.7086614173228346,"hand":"R"},{"time":18000,"durationMs":2000,"midi":60,"velocity":0.7086614173228346,"hand":"L"},{"time":18250,"durationMs":1750,"midi":64,"velocity":0.7086614173228346,"hand":"L"},{"time":18500,"durationMs":250,"midi":69,"velocity":0.7086614173228346,"hand":"R"},{"time":18750,"durationMs":250,"midi":76,"velocity":0.7086614173228346,"hand":"R"},{"time":19000,"durationMs":250,"midi":81,"velocity":0.7086614173228346,"hand":"R"},{"time":19250,"durationMs":250,"midi":69,"velocity":0.7086614173228346,"hand":"R"},{"time":19500,"durationMs":250,"midi":76,"velocity":0.7086614173228346,"hand":"R"},{"time":19750,"durationMs":250,"midi":81,"velocity":0.7086614173228346,"hand":"R"},{"time":20000,"durationMs":2000,"midi":60,"velocity":0.7086614173228346,"hand":"L"},{"time":20250,"durationMs":1750,"midi":62,"velocity":0.7086614173228346,"hand":"L"},{"time":20500,"durationMs":250,"midi":66,"velocity":0.7086614173228346,"hand":"R"},{"time":20750,"durationMs":250,"midi":69,"velocity":0.7086614173228346,"hand":"R"},{"time":21000,"durationMs":250,"midi":74,"velocity":0.7086614173228346,"hand":"R"},{"time":21250,"durationMs":250,"midi":66,"velocity":0.7086614173228346,"hand":"R"},{"time":21500,"durationMs":250,"midi":69,"velocity":0.7086614173228346,"hand":"R"},{"time":21750,"durationMs":250,"midi":74,"velocity":0.7086614173228346,"hand":"R"},{"time":22000,"durationMs":2000,"midi":60,"velocity":0.7086614173228346,"hand":"L"},{"time":22250,"durationMs":1750,"midi":62,"velocity":0.7086614173228346,"hand":"L"},{"time":22500,"durationMs":250,"midi":66,"velocity":0.7086614173228346,"hand":"R"},{"time":22750,"durationMs":250,"midi":69,"velocity":0.7086614173228346,"hand":"R"},{"time":23000,"durationMs":250,"midi":74,"velocity":0.7086614173228346,"hand":"R"},{"time":23250,"durationMs":250,"midi":66,"velocity":0.7086614173228346,"hand":"R"},{"time":23500,"durationMs":250,"midi":69,"velocity":0.7086614173228346,"hand":"R"},{"time":23750,"durationMs":250,"midi":74,"velocity":0.7086614173228346,"hand":"R"},{"time":24000,"durationMs":2000,"midi":59,"velocity":0.7086614173228346,"hand":"L"},{"time":24250,"durationMs":1750,"midi":62,"velocity":0.7086614173228346,"hand":"L"},{"time":24500,"durationMs":250,"midi":67,"velocity":0.7086614173228346,"hand":"R"},{"time":24750,"durationMs":250,"midi":74,"velocity":0.7086614173228346,"hand":"R"},{"time":25000,"durationMs":250,"midi":79,"velocity":0.7086614173228346,"hand":"R"},{"time":25250,"durationMs":250,"midi":67,"velocity":0.7086614173228346,"hand":"R"},{"time":25500,"durationMs":250,"midi":74,"velocity":0.7086614173228346,"hand":"R"},{"time":25750,"durationMs":250,"midi":79,"velocity":0.7086614173228346,"hand":"R"},{"time":26000,"durationMs":2000,"midi":59,"velocity":0.7086614173228346,"hand":"L"},{"time":26250,"durationMs":1750,"midi":62,"velocity":0.7086614173228346,"hand":"L"},{"time":26500,"durationMs":250,"midi":67,"velocity":0.7086614173228346,"hand":"R"},{"time":26750,"durationMs":250,"midi":74,"velocity":0.7086614173228346,"hand":"R"},{"time":27000,"durationMs":250,"midi":79,"velocity":0.7086614173228346,"hand":"R"},{"time":27250,"durationMs":250,"midi":67,"velocity":0.7086614173228346,"hand":"R"},{"time":27500,"durationMs":250,"midi":74,"velocity":0.7086614173228346,"hand":"R"},{"time":27750,"durationMs":250,"midi":79,"velocity":0.7086614173228346,"hand":"R"},{"time":28000,"durationMs":2000,"midi":59,"velocity":0.7086614173228346,"hand":"L"},{"time":28250,"durationMs":1750,"midi":60,"velocity":0.7086614173228346,"hand":"L"},{"time":28500,"durationMs":250,"midi":64,"velocity":0.7086614173228346,"hand":"R"},{"time":28750,"durationMs":250,"midi":67,"velocity":0.7086614173228346,"hand":"R"},{"time":29000,"durationMs":250,"midi":72,"velocity":0.7086614173228346,"hand":"R"},{"time":29250,"durationMs":250,"midi":64,"velocity":0.7086614173228346,"hand":"R"},{"time":29500,"durationMs":250,"midi":67,"velocity":0.7086614173228346,"hand":"R"},{"time":29750,"durationMs":250,"midi":72,"velocity":0.7086614173228346,"hand":"R"},{"time":30000,"durationMs":2000,"midi":59,"velocity":0.7086614173228346,"hand":"L"},{"time":30250,"durationMs":1750,"midi":60,"velocity":0.7086614173228346,"hand":"L"},{"time":30500,"durationMs":250,"midi":64,"velocity":0.7086614173228346,"hand":"R"},{"time":30750,"durationMs":250,"midi":67,"velocity":0.7086614173228346,"hand":"R"},{"time":31000,"durationMs":250,"midi":72,"velocity":0.7086614173228346,"hand":"R"},{"time":31250,"durationMs":250,"midi":64,"velocity":0.7086614173228346,"hand":"R"},{"time":31500,"durationMs":250,"midi":67,"velocity":0.7086614173228346,"hand":"R"},{"time":31750,"durationMs":250,"midi":72,"velocity":0.7086614173228346,"hand":"R"},{"time":32000,"durationMs":2000,"midi":57,"velocity":0.7086614173228346,"hand":"L"},{"time":32250,"durationMs":1750,"midi":60,"velocity":0.7086614173228346,"hand":"L"},{"time":32500,"durationMs":250,"midi":64,"velocity":0.7086614173228346,"hand":"R"},{"time":32750,"durationMs":250,"midi":67,"velocity":0.7086614173228346,"hand":"R"},{"time":33000,"durationMs":250,"midi":72,"velocity":0.7086614173228346,"hand":"R"},{"time":33250,"durationMs":250,"midi":64,"velocity":0.7086614173228346,"hand":"R"},{"time":33500,"durationMs":250,"midi":67,"velocity":0.7086614173228346,"hand":"R"},{"time":33750,"durationMs":250,"midi":72,"velocity":0.7086614173228346,"hand":"R"},{"time":34000,"durationMs":2000,"midi":57,"velocity":0.7086614173228346,"hand":"L"},{"time":34250,"durationMs":1750,"midi":60,"velocity":0.7086614173228346,"hand":"L"},{"time":34500,"durationMs":250,"midi":64,"velocity":0.7086614173228346,"hand":"R"},{"time":34750,"durationMs":250,"midi":67,"velocity":0.7086614173228346,"hand":"R"},{"time":35000,"durationMs":250,"midi":72,"velocity":0.7086614173228346,"hand":"R"},{"time":35250,"durationMs":250,"midi":64,"velocity":0.7086614173228346,"hand":"R"},{"time":35500,"durationMs":250,"midi":67,"velocity":0.7086614173228346,"hand":"R"},{"time":35750,"durationMs":250,"midi":72,"velocity":0.7086614173228346,"hand":"R"},{"time":36000,"durationMs":2000,"midi":50,"velocity":0.7086614173228346,"hand":"L"},{"time":36250,"durationMs":1750,"midi":57,"velocity":0.7086614173228346,"hand":"L"},{"time":36500,"durationMs":250,"midi":62,"velocity":0.7086614173228346,"hand":"R"},{"time":36750,"durationMs":250,"midi":66,"velocity":0.7086614173228346,"hand":"R"},{"time":37000,"durationMs":250,"midi":72,"velocity":0.7086614173228346,"hand":"R"},{"time":37250,"durationMs":250,"midi":62,"velocity":0.7086614173228346,"hand":"R"},{"time":37500,"durationMs":250,"midi":66,"velocity":0.7086614173228346,"hand":"R"},{"time":37750,"durationMs":250,"midi":72,"velocity":0.7086614173228346,"hand":"R"},{"time":38000,"durationMs":2000,"midi":50,"velocity":0.7086614173228346,"hand":"L"},{"time":38250,"durationMs":1750,"midi":57,"velocity":0.7086614173228346,"hand":"L"},{"time":38500,"durationMs":250,"midi":62,"velocity":0.7086614173228346,"hand":"R"},{"time":38750,"durationMs":250,"midi":66,"velocity":0.7086614173228346,"hand":"R"},{"time":39000,"durationMs":250,"midi":72,"velocity":0.7086614173228346,"hand":"R"},{"time":39250,"durationMs":250,"midi":62,"velocity":0.7086614173228346,"hand":"R"},{"time":39500,"durationMs":250,"midi":66,"velocity":0.7086614173228346,"hand":"R"},{"time":39750,"durationMs":250,"midi":72,"velocity":0.7086614173228346,"hand":"R"},{"time":40000,"durationMs":2000,"midi":55,"velocity":0.7086614173228346,"hand":"L"},{"time":40250,"durationMs":1750,"midi":59,"velocity":0.7086614173228346,"hand":"L"},{"time":40500,"durationMs":250,"midi":62,"velocity":0.7086614173228346,"hand":"R"},{"time":40750,"durationMs":250,"midi":67,"velocity":0.7086614173228346,"hand":"R"},{"time":41000,"durationMs":250,"midi":71,"velocity":0.7086614173228346,"hand":"R"},{"time":41250,"durationMs":250,"midi":62,"velocity":0.7086614173228346,"hand":"R"},{"time":41500,"durationMs":250,"midi":67,"velocity":0.7086614173228346,"hand":"R"},{"time":41750,"durationMs":250,"midi":71,"velocity":0.7086614173228346,"hand":"R"},{"time":42000,"durationMs":2000,"midi":55,"velocity":0.7086614173228346,"hand":"L"},{"time":42250,"durationMs":1750,"midi":59,"velocity":0.7086614173228346,"hand":"L"},{"time":42500,"durationMs":250,"midi":62,"velocity":0.7086614173228346,"hand":"R"},{"time":42750,"durationMs":250,"midi":67,"velocity":0.7086614173228346,"hand":"R"},{"time":43000,"durationMs":250,"midi":71,"velocity":0.7086614173228346,"hand":"R"},{"time":43250,"durationMs":250,"midi":62,"velocity":0.7086614173228346,"hand":"R"},{"time":43500,"durationMs":250,"midi":67,"velocity":0.7086614173228346,"hand":"R"},{"time":43750,"durationMs":250,"midi":71,"velocity":0.7086614173228346,"hand":"R"},{"time":44000,"durationMs":2000,"midi":55,"velocity":0.7086614173228346,"hand":"L"},{"time":44250,"durationMs":1750,"midi":58,"velocity":0.7086614173228346,"hand":"L"},{"time":44500,"durationMs":250,"midi":64,"velocity":0.7086614173228346,"hand":"R"},{"time":44750,"durationMs":250,"midi":67,"velocity":0.7086614173228346,"hand":"R"},{"time":45000,"durationMs":250,"midi":73,"velocity":0.7086614173228346,"hand":"R"},{"time":45250,"durationMs":250,"midi":64,"velocity":0.7086614173228346,"hand":"R"},{"time":45500,"durationMs":250,"midi":67,"velocity":0.7086614173228346,"hand":"R"},{"time":45750,"durationMs":250,"midi":73,"velocity":0.7086614173228346,"hand":"R"},{"time":46000,"durationMs":2000,"midi":55,"velocity":0.7086614173228346,"hand":"L"},{"time":46250,"durationMs":1750,"midi":58,"velocity":0.7086614173228346,"hand":"L"},{"time":46500,"durationMs":250,"midi":64,"velocity":0.7086614173228346,"hand":"R"},{"time":46750,"durationMs":250,"midi":67,"velocity":0.7086614173228346,"hand":"R"},{"time":47000,"durationMs":250,"midi":73,"velocity":0.7086614173228346,"hand":"R"},{"time":47250,"durationMs":250,"midi":64,"velocity":0.7086614173228346,"hand":"R"},{"time":47500,"durationMs":250,"midi":67,"velocity":0.7086614173228346,"hand":"R"},{"time":47750,"durationMs":250,"midi":73,"velocity":0.7086614173228346,"hand":"R"},{"time":48000,"durationMs":2000,"midi":53,"velocity":0.7086614173228346,"hand":"L"},{"time":48250,"durationMs":1750,"midi":57,"velocity":0.7086614173228346,"hand":"L"},{"time":48500,"durationMs":250,"midi":62,"velocity":0.7086614173228346,"hand":"R"},{"time":48750,"durationMs":250,"midi":69,"velocity":0.7086614173228346,"hand":"R"},{"time":49000,"durationMs":250,"midi":74,"velocity":0.7086614173228346,"hand":"R"},{"time":49250,"durationMs":250,"midi":62,"velocity":0.7086614173228346,"hand":"R"},{"time":49500,"durationMs":250,"midi":69,"velocity":0.7086614173228346,"hand":"R"},{"time":49750,"durationMs":250,"midi":74,"velocity":0.7086614173228346,"hand":"R"},{"time":50000,"durationMs":2000,"midi":53,"velocity":0.7086614173228346,"hand":"L"},{"time":50250,"durationMs":1750,"midi":57,"velocity":0.7086614173228346,"hand":"L"},{"time":50500,"durationMs":250,"midi":62,"velocity":0.7086614173228346,"hand":"R"},{"time":50750,"durationMs":250,"midi":69,"velocity":0.7086614173228346,"hand":"R"},{"time":51000,"durationMs":250,"midi":74,"velocity":0.7086614173228346,"hand":"R"},{"time":51250,"durationMs":250,"midi":62,"velocity":0.7086614173228346,"hand":"R"},{"time":51500,"durationMs":250,"midi":69,"velocity":0.7086614173228346,"hand":"R"},{"time":51750,"durationMs":250,"midi":74,"velocity":0.7086614173228346,"hand":"R"},{"time":52000,"durationMs":2000,"midi":53,"velocity":0.7086614173228346,"hand":"L"},{"time":52250,"durationMs":1750,"midi":56,"velocity":0.7086614173228346,"hand":"L"},{"time":52500,"durationMs":250,"midi":62,"velocity":0.7086614173228346,"hand":"R"},{"time":52750,"durationMs":250,"midi":65,"velocity":0.7086614173228346,"hand":"R"},{"time":53000,"durationMs":250,"midi":71,"velocity":0.7086614173228346,"hand":"R"},{"time":53250,"durationMs":250,"midi":62,"velocity":0.7086614173228346,"hand":"R"},{"time":53500,"durationMs":250,"midi":65,"velocity":0.7086614173228346,"hand":"R"},{"time":53750,"durationMs":250,"midi":71,"velocity":0.7086614173228346,"hand":"R"},{"time":54000,"durationMs":2000,"midi":53,"velocity":0.7086614173228346,"hand":"L"},{"time":54250,"durationMs":1750,"midi":56,"velocity":0.7086614173228346,"hand":"L"},{"time":54500,"durationMs":250,"midi":62,"velocity":0.7086614173228346,"hand":"R"},{"time":54750,"durationMs":250,"midi":65,"velocity":0.7086614173228346,"hand":"R"},{"time":55000,"durationMs":250,"midi":71,"velocity":0.7086614173228346,"hand":"R"},{"time":55250,"durationMs":250,"midi":62,"velocity":0.7086614173228346,"hand":"R"},{"time":55500,"durationMs":250,"midi":65,"velocity":0.7086614173228346,"hand":"R"},{"time":55750,"durationMs":250,"midi":71,"velocity":0.7086614173228346,"hand":"R"},{"time":56000,"durationMs":2000,"midi":52,"velocity":0.7086614173228346,"hand":"L"},{"time":56250,"durationMs":1750,"midi":55,"velocity":0.7086614173228346,"hand":"L"},{"time":56500,"durationMs":250,"midi":60,"velocity":0.7086614173228346,"hand":"R"},{"time":56750,"durationMs":250,"midi":67,"velocity":0.7086614173228346,"hand":"R"},{"time":57000,"durationMs":250,"midi":72,"velocity":0.7086614173228346,"hand":"R"},{"time":57250,"durationMs":250,"midi":60,"velocity":0.7086614173228346,"hand":"R"},{"time":57500,"durationMs":250,"midi":67,"velocity":0.7086614173228346,"hand":"R"},{"time":57750,"durationMs":250,"midi":72,"velocity":0.7086614173228346,"hand":"R"},{"time":58000,"durationMs":2000,"midi":52,"velocity":0.7086614173228346,"hand":"L"},{"time":58250,"durationMs":1750,"midi":55,"velocity":0.7086614173228346,"hand":"L"},{"time":58500,"durationMs":250,"midi":60,"velocity":0.7086614173228346,"hand":"R"},{"time":58750,"durationMs":250,"midi":67,"velocity":0.7086614173228346,"hand":"R"},{"time":59000,"durationMs":250,"midi":72,"velocity":0.7086614173228346,"hand":"R"},{"time":59250,"durationMs":250,"midi":60,"velocity":0.7086614173228346,"hand":"R"},{"time":59500,"durationMs":250,"midi":67,"velocity":0.7086614173228346,"hand":"R"},{"time":59750,"durationMs":250,"midi":72,"velocity":0.7086614173228346,"hand":"R"},{"time":60000,"durationMs":2000,"midi":52,"velocity":0.7086614173228346,"hand":"L"},{"time":60250,"durationMs":1750,"midi":53,"velocity":0.7086614173228346,"hand":"L"},{"time":60500,"durationMs":250,"midi":57,"velocity":0.7086614173228346,"hand":"R"},{"time":60750,"durationMs":250,"midi":60,"velocity":0.7086614173228346,"hand":"R"},{"time":61000,"durationMs":250,"midi":65,"velocity":0.7086614173228346,"hand":"R"},{"time":61250,"durationMs":250,"midi":57,"velocity":0.7086614173228346,"hand":"R"},{"time":61500,"durationMs":250,"midi":60,"velocity":0.7086614173228346,"hand":"R"},{"time":61750,"durationMs":250,"midi":65,"velocity":0.7086614173228346,"hand":"R"},{"time":62000,"durationMs":2000,"midi":52,"velocity":0.7086614173228346,"hand":"L"},{"time":62250,"durationMs":1750,"midi":53,"velocity":0.7086614173228346,"hand":"L"},{"time":62500,"durationMs":250,"midi":57,"velocity":0.7086614173228346,"hand":"R"},{"time":62750,"durationMs":250,"midi":60,"velocity":0.7086614173228346,"hand":"R"},{"time":63000,"durationMs":250,"midi":65,"velocity":0.7086614173228346,"hand":"R"},{"time":63250,"durationMs":250,"midi":57,"velocity":0.7086614173228346,"hand":"R"},{"time":63500,"durationMs":250,"midi":60,"velocity":0.7086614173228346,"hand":"R"},{"time":63750,"durationMs":250,"midi":65,"velocity":0.7086614173228346,"hand":"R"},{"time":64000,"durationMs":2000,"midi":50,"velocity":0.7086614173228346,"hand":"L"},{"time":64250,"durationMs":1750,"midi":53,"velocity":0.7086614173228346,"hand":"L"},{"time":64500,"durationMs":250,"midi":57,"velocity":0.7086614173228346,"hand":"R"},{"time":64750,"durationMs":250,"midi":60,"velocity":0.7086614173228346,"hand":"R"},{"time":65000,"durationMs":250,"midi":65,"velocity":0.7086614173228346,"hand":"R"},{"time":65250,"durationMs":250,"midi":57,"velocity":0.7086614173228346,"hand":"R"},{"time":65500,"durationMs":250,"midi":60,"velocity":0.7086614173228346,"hand":"R"},{"time":65750,"durationMs":250,"midi":65,"velocity":0.7086614173228346,"hand":"R"},{"time":66000,"durationMs":2000,"midi":50,"velocity":0.7086614173228346,"hand":"L"},{"time":66250,"durationMs":1750,"midi":53,"velocity":0.7086614173228346,"hand":"L"},{"time":66500,"durationMs":250,"midi":57,"velocity":0.7086614173228346,"hand":"R"},{"time":66750,"durationMs":250,"midi":60,"velocity":0.7086614173228346,"hand":"R"},{"time":67000,"durationMs":250,"midi":65,"velocity":0.7086614173228346,"hand":"R"},{"time":67250,"durationMs":250,"midi":57,"velocity":0.7086614173228346,"hand":"R"},{"time":67500,"durationMs":250,"midi":60,"velocity":0.7086614173228346,"hand":"R"},{"time":67750,"durationMs":250,"midi":65,"velocity":0.7086614173228346,"hand":"R"},{"time":68000,"durationMs":2000,"midi":43,"velocity":0.7086614173228346,"hand":"L"},{"time":68250,"durationMs":1750,"midi":50,"velocity":0.7086614173228346,"hand":"L"},{"time":68500,"durationMs":250,"midi":55,"velocity":0.7086614173228346,"hand":"R"},{"time":68750,"durationMs":250,"midi":59,"velocity":0.7086614173228346,"hand":"R"},{"time":69000,"durationMs":250,"midi":65,"velocity":0.7086614173228346,"hand":"R"},{"time":69250,"durationMs":250,"midi":55,"velocity":0.7086614173228346,"hand":"R"},{"time":69500,"durationMs":250,"midi":59,"velocity":0.7086614173228346,"hand":"R"},{"time":69750,"durationMs":250,"midi":65,"velocity":0.7086614173228346,"hand":"R"},{"time":70000,"durationMs":2000,"midi":43,"velocity":0.7086614173228346,"hand":"L"},{"time":70250,"durationMs":1750,"midi":50,"velocity":0.7086614173228346,"hand":"L"},{"time":70500,"durationMs":250,"midi":55,"velocity":0.7086614173228346,"hand":"R"},{"time":70750,"durationMs":250,"midi":59,"velocity":0.7086614173228346,"hand":"R"},{"time":71000,"durationMs":250,"midi":65,"velocity":0.7086614173228346,"hand":"R"},{"time":71250,"durationMs":250,"midi":55,"velocity":0.7086614173228346,"hand":"R"},{"time":71500,"durationMs":250,"midi":59,"velocity":0.7086614173228346,"hand":"R"},{"time":71750,"durationMs":250,"midi":65,"velocity":0.7086614173228346,"hand":"R"},{"time":72000,"durationMs":2000,"midi":48,"velocity":0.7086614173228346,"hand":"L"},{"time":72250,"durationMs":1750,"midi":52,"velocity":0.7086614173228346,"hand":"L"},{"time":72500,"durationMs":250,"midi":55,"velocity":0.7086614173228346,"hand":"R"},{"time":72750,"durationMs":250,"midi":60,"velocity":0.7086614173228346,"hand":"R"},{"time":73000,"durationMs":250,"midi":64,"velocity":0.7086614173228346,"hand":"R"},{"time":73250,"durationMs":250,"midi":55,"velocity":0.7086614173228346,"hand":"R"},{"time":73500,"durationMs":250,"midi":60,"velocity":0.7086614173228346,"hand":"R"},{"time":73750,"durationMs":250,"midi":64,"velocity":0.7086614173228346,"hand":"R"},{"time":74000,"durationMs":2000,"midi":48,"velocity":0.7086614173228346,"hand":"L"},{"time":74250,"durationMs":1750,"midi":52,"velocity":0.7086614173228346,"hand":"L"},{"time":74500,"durationMs":250,"midi":55,"velocity":0.7086614173228346,"hand":"R"},{"time":74750,"durationMs":250,"midi":60,"velocity":0.7086614173228346,"hand":"R"},{"time":75000,"durationMs":250,"midi":64,"velocity":0.7086614173228346,"hand":"R"},{"time":75250,"durationMs":250,"midi":55,"velocity":0.7086614173228346,"hand":"R"},{"time":75500,"durationMs":250,"midi":60,"velocity":0.7086614173228346,"hand":"R"},{"time":75750,"durationMs":250,"midi":64,"velocity":0.7086614173228346,"hand":"R"},{"time":76000,"durationMs":2000,"midi":48,"velocity":0.7086614173228346,"hand":"L"},{"time":76250,"durationMs":1750,"midi":55,"velocity":0.7086614173228346,"hand":"L"},{"time":76500,"durationMs":250,"midi":58,"velocity":0.7086614173228346,"hand":"R"},{"time":76750,"durationMs":250,"midi":60,"velocity":0.7086614173228346,"hand":"R"},{"time":77000,"durationMs":250,"midi":64,"velocity":0.7086614173228346,"hand":"R"},{"time":77250,"durationMs":250,"midi":58,"velocity":0.7086614173228346,"hand":"R"},{"time":77500,"durationMs":250,"midi":60,"velocity":0.7086614173228346,"hand":"R"},{"time":77750,"durationMs":250,"midi":64,"velocity":0.7086614173228346,"hand":"R"},{"time":78000,"durationMs":2000,"midi":48,"velocity":0.7086614173228346,"hand":"L"},{"time":78250,"durationMs":1750,"midi":55,"velocity":0.7086614173228346,"hand":"L"},{"time":78500,"durationMs":250,"midi":58,"velocity":0.7086614173228346,"hand":"R"},{"time":78750,"durationMs":250,"midi":60,"velocity":0.7086614173228346,"hand":"R"},{"time":79000,"durationMs":250,"midi":64,"velocity":0.7086614173228346,"hand":"R"},{"time":79250,"durationMs":250,"midi":58,"velocity":0.7086614173228346,"hand":"R"},{"time":79500,"durationMs":250,"midi":60,"velocity":0.7086614173228346,"hand":"R"},{"time":79750,"durationMs":250,"midi":64,"velocity":0.7086614173228346,"hand":"R"},{"time":80000,"durationMs":2000,"midi":41,"velocity":0.7086614173228346,"hand":"L"},{"time":80250,"durationMs":1750,"midi":53,"velocity":0.7086614173228346,"hand":"L"},{"time":80500,"durationMs":250,"midi":57,"velocity":0.7086614173228346,"hand":"R"},{"time":80750,"durationMs":250,"midi":60,"velocity":0.7086614173228346,"hand":"R"},{"time":81000,"durationMs":250,"midi":64,"velocity":0.7086614173228346,"hand":"R"},{"time":81250,"durationMs":250,"midi":57,"velocity":0.7086614173228346,"hand":"R"},{"time":81500,"durationMs":250,"midi":60,"velocity":0.7086614173228346,"hand":"R"},{"time":81750,"durationMs":250,"midi":64,"velocity":0.7086614173228346,"hand":"R"},{"time":82000,"durationMs":2000,"midi":41,"velocity":0.7086614173228346,"hand":"L"},{"time":82250,"durationMs":1750,"midi":53,"velocity":0.7086614173228346,"hand":"L"},{"time":82500,"durationMs":250,"midi":57,"velocity":0.7086614173228346,"hand":"R"},{"time":82750,"durationMs":250,"midi":60,"velocity":0.7086614173228346,"hand":"R"},{"time":83000,"durationMs":250,"midi":64,"velocity":0.7086614173228346,"hand":"R"},{"time":83250,"durationMs":250,"midi":57,"velocity":0.7086614173228346,"hand":"R"},{"time":83500,"durationMs":250,"midi":60,"velocity":0.7086614173228346,"hand":"R"},{"time":83750,"durationMs":250,"midi":64,"velocity":0.7086614173228346,"hand":"R"},{"time":84000,"durationMs":2000,"midi":42,"velocity":0.7086614173228346,"hand":"L"},{"time":84250,"durationMs":1750,"midi":48,"velocity":0.7086614173228346,"hand":"L"},{"time":84500,"durationMs":250,"midi":57,"velocity":0.7086614173228346,"hand":"R"},{"time":84750,"durationMs":250,"midi":60,"velocity":0.7086614173228346,"hand":"R"},{"time":85000,"durationMs":250,"midi":63,"velocity":0.7086614173228346,"hand":"R"},{"time":85250,"durationMs":250,"midi":57,"velocity":0.7086614173228346,"hand":"R"},{"time":85500,"durationMs":250,"midi":60,"velocity":0.7086614173228346,"hand":"R"},{"time":85750,"durationMs":250,"midi":63,"velocity":0.7086614173228346,"hand":"R"},{"time":86000,"durationMs":2000,"midi":42,"velocity":0.7086614173228346,"hand":"L"},{"time":86250,"durationMs":1750,"midi":48,"velocity":0.7086614173228346,"hand":"L"},{"time":86500,"durationMs":250,"midi":57,"velocity":0.7086614173228346,"hand":"R"},{"time":86750,"durationMs":250,"midi":60,"velocity":0.7086614173228346,"hand":"R"},{"time":87000,"durationMs":250,"midi":63,"velocity":0.7086614173228346,"hand":"R"},{"time":87250,"durationMs":250,"midi":57,"velocity":0.7086614173228346,"hand":"R"},{"time":87500,"durationMs":250,"midi":60,"velocity":0.7086614173228346,"hand":"R"},{"time":87750,"durationMs":250,"midi":63,"velocity":0.7086614173228346,"hand":"R"},{"time":88000,"durationMs":2000,"midi":44,"velocity":0.7086614173228346,"hand":"L"},{"time":88250,"durationMs":1750,"midi":53,"velocity":0.7086614173228346,"hand":"L"},{"time":88500,"durationMs":250,"midi":59,"velocity":0.7086614173228346,"hand":"R"},{"time":88750,"durationMs":250,"midi":60,"velocity":0.7086614173228346,"hand":"R"},{"time":89000,"durationMs":250,"midi":62,"velocity":0.7086614173228346,"hand":"R"},{"time":89250,"durationMs":250,"midi":59,"velocity":0.7086614173228346,"hand":"R"},{"time":89500,"durationMs":250,"midi":60,"velocity":0.7086614173228346,"hand":"R"},{"time":89750,"durationMs":250,"midi":62,"velocity":0.7086614173228346,"hand":"R"},{"time":90000,"durationMs":2000,"midi":44,"velocity":0.7086614173228346,"hand":"L"},{"time":90250,"durationMs":1750,"midi":53,"velocity":0.7086614173228346,"hand":"L"},{"time":90500,"durationMs":250,"midi":59,"velocity":0.7086614173228346,"hand":"R"},{"time":90750,"durationMs":250,"midi":60,"velocity":0.7086614173228346,"hand":"R"},{"time":91000,"durationMs":250,"midi":62,"velocity":0.7086614173228346,"hand":"R"},{"time":91250,"durationMs":250,"midi":59,"velocity":0.7086614173228346,"hand":"R"},{"time":91500,"durationMs":250,"midi":60,"velocity":0.7086614173228346,"hand":"R"},{"time":91750,"durationMs":250,"midi":62,"velocity":0.7086614173228346,"hand":"R"},{"time":92000,"durationMs":2000,"midi":43,"velocity":0.7086614173228346,"hand":"L"},{"time":92250,"durationMs":1750,"midi":53,"velocity":0.7086614173228346,"hand":"L"},{"time":92500,"durationMs":250,"midi":55,"velocity":0.7086614173228346,"hand":"R"},{"time":92750,"durationMs":250,"midi":59,"velocity":0.7086614173228346,"hand":"R"},{"time":93000,"durationMs":250,"midi":62,"velocity":0.7086614173228346,"hand":"R"},{"time":93250,"durationMs":250,"midi":55,"velocity":0.7086614173228346,"hand":"R"},{"time":93500,"durationMs":250,"midi":59,"velocity":0.7086614173228346,"hand":"R"},{"time":93750,"durationMs":250,"midi":62,"velocity":0.7086614173228346,"hand":"R"},{"time":94000,"durationMs":2000,"midi":43,"velocity":0.7086614173228346,"hand":"L"},{"time":94250,"durationMs":1750,"midi":53,"velocity":0.7086614173228346,"hand":"L"},{"time":94500,"durationMs":250,"midi":55,"velocity":0.7086614173228346,"hand":"R"},{"time":94750,"durationMs":250,"midi":59,"velocity":0.7086614173228346,"hand":"R"},{"time":95000,"durationMs":250,"midi":62,"velocity":0.7086614173228346,"hand":"R"},{"time":95250,"durationMs":250,"midi":55,"velocity":0.7086614173228346,"hand":"R"},{"time":95500,"durationMs":250,"midi":59,"velocity":0.7086614173228346,"hand":"R"},{"time":95750,"durationMs":250,"midi":62,"velocity":0.7086614173228346,"hand":"R"},{"time":96000,"durationMs":2000,"midi":43,"velocity":0.7086614173228346,"hand":"L"},{"time":96250,"durationMs":1750,"midi":52,"velocity":0.7086614173228346,"hand":"L"},{"time":96500,"durationMs":250,"midi":55,"velocity":0.7086614173228346,"hand":"R"},{"time":96750,"durationMs":250,"midi":60,"velocity":0.7086614173228346,"hand":"R"},{"time":97000,"durationMs":250,"midi":64,"velocity":0.7086614173228346,"hand":"R"},{"time":97250,"durationMs":250,"midi":55,"velocity":0.7086614173228346,"hand":"R"},{"time":97500,"durationMs":250,"midi":60,"velocity":0.7086614173228346,"hand":"R"},{"time":97750,"durationMs":250,"midi":64,"velocity":0.7086614173228346,"hand":"R"},{"time":98000,"durationMs":2000,"midi":43,"velocity":0.7086614173228346,"hand":"L"},{"time":98250,"durationMs":1750,"midi":52,"velocity":0.7086614173228346,"hand":"L"},{"time":98500,"durationMs":250,"midi":55,"velocity":0.7086614173228346,"hand":"R"},{"time":98750,"durationMs":250,"midi":60,"velocity":0.7086614173228346,"hand":"R"},{"time":99000,"durationMs":250,"midi":64,"velocity":0.7086614173228346,"hand":"R"},{"time":99250,"durationMs":250,"midi":55,"velocity":0.7086614173228346,"hand":"R"},{"time":99500,"durationMs":250,"midi":60,"velocity":0.7086614173228346,"hand":"R"},{"time":99750,"durationMs":250,"midi":64,"velocity":0.7086614173228346,"hand":"R"},{"time":100000,"durationMs":2000,"midi":43,"velocity":0.7086614173228346,"hand":"L"},{"time":100250,"durationMs":1750,"midi":50,"velocity":0.7086614173228346,"hand":"L"},{"time":100500,"durationMs":250,"midi":55,"velocity":0.7086614173228346,"hand":"R"},{"time":100750,"durationMs":250,"midi":60,"velocity":0.7086614173228346,"hand":"R"},{"time":101000,"durationMs":250,"midi":65,"velocity":0.7086614173228346,"hand":"R"},{"time":101250,"durationMs":250,"midi":55,"velocity":0.7086614173228346,"hand":"R"},{"time":101500,"durationMs":250,"midi":60,"velocity":0.7086614173228346,"hand":"R"},{"time":101750,"durationMs":250,"midi":65,"velocity":0.7086614173228346,"hand":"R"},{"time":102000,"durationMs":2000,"midi":43,"velocity":0.7086614173228346,"hand":"L"},{"time":102250,"durationMs":1750,"midi":50,"velocity":0.7086614173228346,"hand":"L"},{"time":102500,"durationMs":250,"midi":55,"velocity":0.7086614173228346,"hand":"R"},{"time":102750,"durationMs":250,"midi":60,"velocity":0.7086614173228346,"hand":"R"},{"time":103000,"durationMs":250,"midi":65,"velocity":0.7086614173228346,"hand":"R"},{"time":103250,"durationMs":250,"midi":55,"velocity":0.7086614173228346,"hand":"R"},{"time":103500,"durationMs":250,"midi":60,"velocity":0.7086614173228346,"hand":"R"},{"time":103750,"durationMs":250,"midi":65,"velocity":0.7086614173228346,"hand":"R"},{"time":104000,"durationMs":2000,"midi":43,"velocity":0.7086614173228346,"hand":"L"},{"time":104250,"durationMs":1750,"midi":50,"velocity":0.7086614173228346,"hand":"L"},{"time":104500,"durationMs":250,"midi":55,"velocity":0.7086614173228346,"hand":"R"},{"time":104750,"durationMs":250,"midi":59,"velocity":0.7086614173228346,"hand":"R"},{"time":105000,"durationMs":250,"midi":65,"velocity":0.7086614173228346,"hand":"R"},{"time":105250,"durationMs":250,"midi":55,"velocity":0.7086614173228346,"hand":"R"},{"time":105500,"durationMs":250,"midi":59,"velocity":0.7086614173228346,"hand":"R"},{"time":105750,"durationMs":250,"midi":65,"velocity":0.7086614173228346,"hand":"R"},{"time":106000,"durationMs":2000,"midi":43,"velocity":0.7086614173228346,"hand":"L"},{"time":106250,"durationMs":1750,"midi":50,"velocity":0.7086614173228346,"hand":"L"},{"time":106500,"durationMs":250,"midi":55,"velocity":0.7086614173228346,"hand":"R"},{"time":106750,"durationMs":250,"midi":59,"velocity":0.7086614173228346,"hand":"R"},{"time":107000,"durationMs":250,"midi":65,"velocity":0.7086614173228346,"hand":"R"},{"time":107250,"durationMs":250,"midi":55,"velocity":0.7086614173228346,"hand":"R"},{"time":107500,"durationMs":250,"midi":59,"velocity":0.7086614173228346,"hand":"R"},{"time":107750,"durationMs":250,"midi":65,"velocity":0.7086614173228346,"hand":"R"},{"time":108000,"durationMs":2000,"midi":43,"velocity":0.7086614173228346,"hand":"L"},{"time":108250,"durationMs":1750,"midi":51,"velocity":0.7086614173228346,"hand":"L"},{"time":108500,"durationMs":250,"midi":57,"velocity":0.7086614173228346,"hand":"R"},{"time":108750,"durationMs":250,"midi":60,"velocity":0.7086614173228346,"hand":"R"},{"time":109000,"durationMs":250,"midi":66,"velocity":0.7086614173228346,"hand":"R"},{"time":109250,"durationMs":250,"midi":57,"velocity":0.7086614173228346,"hand":"R"},{"time":109500,"durationMs":250,"midi":60,"velocity":0.7086614173228346,"hand":"R"},{"time":109750,"durationMs":250,"midi":66,"velocity":0.7086614173228346,"hand":"R"},{"time":110000,"durationMs":2000,"midi":43,"velocity":0.7086614173228346,"hand":"L"},{"time":110250,"durationMs":1750,"midi":51,"velocity":0.7086614173228346,"hand":"L"},{"time":110500,"durationMs":250,"midi":57,"velocity":0.7086614173228346,"hand":"R"},{"time":110750,"durationMs":250,"midi":60,"velocity":0.7086614173228346,"hand":"R"},{"time":111000,"durationMs":250,"midi":66,"velocity":0.7086614173228346,"hand":"R"},{"time":111250,"durationMs":250,"midi":57,"velocity":0.7086614173228346,"hand":"R"},{"time":111500,"durationMs":250,"midi":60,"velocity":0.7086614173228346,"hand":"R"},{"time":111750,"durationMs":250,"midi":66,"velocity":0.7086614173228346,"hand":"R"},{"time":112000,"durationMs":2000,"midi":43,"velocity":0.7086614173228346,"hand":"L"},{"time":112250,"durationMs":1750,"midi":52,"velocity":0.7086614173228346,"hand":"L"},{"time":112500,"durationMs":250,"midi":55,"velocity":0.7086614173228346,"hand":"R"},{"time":112750,"durationMs":250,"midi":60,"velocity":0.7086614173228346,"hand":"R"},{"time":113000,"durationMs":250,"midi":67,"velocity":0.7086614173228346,"hand":"R"},{"time":113250,"durationMs":250,"midi":55,"velocity":0.7086614173228346,"hand":"R"},{"time":113500,"durationMs":250,"midi":60,"velocity":0.7086614173228346,"hand":"R"},{"time":113750,"durationMs":250,"midi":67,"velocity":0.7086614173228346,"hand":"R"},{"time":114000,"durationMs":2000,"midi":43,"velocity":0.7086614173228346,"hand":"L"},{"time":114250,"durationMs":1750,"midi":52,"velocity":0.7086614173228346,"hand":"L"},{"time":114500,"durationMs":250,"midi":55,"velocity":0.7086614173228346,"hand":"R"},{"time":114750,"durationMs":250,"midi":60,"velocity":0.7086614173228346,"hand":"R"},{"time":115000,"durationMs":250,"midi":67,"velocity":0.7086614173228346,"hand":"R"},{"time":115250,"durationMs":250,"midi":55,"velocity":0.7086614173228346,"hand":"R"},{"time":115500,"durationMs":250,"midi":60,"velocity":0.7086614173228346,"hand":"R"},{"time":115750,"durationMs":250,"midi":67,"velocity":0.7086614173228346,"hand":"R"},{"time":116000,"durationMs":2000,"midi":43,"velocity":0.7086614173228346,"hand":"L"},{"time":116250,"durationMs":1750,"midi":50,"velocity":0.7086614173228346,"hand":"L"},{"time":116500,"durationMs":250,"midi":55,"velocity":0.7086614173228346,"hand":"R"},{"time":116750,"durationMs":250,"midi":60,"velocity":0.7086614173228346,"hand":"R"},{"time":117000,"durationMs":250,"midi":65,"velocity":0.7086614173228346,"hand":"R"},{"time":117250,"durationMs":250,"midi":55,"velocity":0.7086614173228346,"hand":"R"},{"time":117500,"durationMs":250,"midi":60,"velocity":0.7086614173228346,"hand":"R"},{"time":117750,"durationMs":250,"midi":65,"velocity":0.7086614173228346,"hand":"R"},{"time":118000,"durationMs":2000,"midi":43,"velocity":0.7086614173228346,"hand":"L"},{"time":118250,"durationMs":1750,"midi":50,"velocity":0.7086614173228346,"hand":"L"},{"time":118500,"durationMs":250,"midi":55,"velocity":0.7086614173228346,"hand":"R"},{"time":118750,"durationMs":250,"midi":60,"velocity":0.7086614173228346,"hand":"R"},{"time":119000,"durationMs":250,"midi":65,"velocity":0.7086614173228346,"hand":"R"},{"time":119250,"durationMs":250,"midi":55,"velocity":0.7086614173228346,"hand":"R"},{"time":119500,"durationMs":250,"midi":60,"velocity":0.7086614173228346,"hand":"R"},{"time":119750,"durationMs":250,"midi":65,"velocity":0.7086614173228346,"hand":"R"},{"time":120000,"durationMs":2000,"midi":43,"velocity":0.7086614173228346,"hand":"L"},{"time":120250,"durationMs":1750,"midi":50,"velocity":0.7086614173228346,"hand":"L"},{"time":120500,"durationMs":250,"midi":55,"velocity":0.7086614173228346,"hand":"R"},{"time":120750,"durationMs":250,"midi":59,"velocity":0.7086614173228346,"hand":"R"},{"time":121000,"durationMs":250,"midi":65,"velocity":0.7086614173228346,"hand":"R"},{"time":121250,"durationMs":250,"midi":55,"velocity":0.7086614173228346,"hand":"R"},{"time":121500,"durationMs":250,"midi":59,"velocity":0.7086614173228346,"hand":"R"},{"time":121750,"durationMs":250,"midi":65,"velocity":0.7086614173228346,"hand":"R"},{"time":122000,"durationMs":2000,"midi":43,"velocity":0.7086614173228346,"hand":"L"},{"time":122250,"durationMs":1750,"midi":50,"velocity":0.7086614173228346,"hand":"L"},{"time":122500,"durationMs":250,"midi":55,"velocity":0.7086614173228346,"hand":"R"},{"time":122750,"durationMs":250,"midi":59,"velocity":0.7086614173228346,"hand":"R"},{"time":123000,"durationMs":250,"midi":65,"velocity":0.7086614173228346,"hand":"R"},{"time":123250,"durationMs":250,"midi":55,"velocity":0.7086614173228346,"hand":"R"},{"time":123500,"durationMs":250,"midi":59,"velocity":0.7086614173228346,"hand":"R"},{"time":123750,"durationMs":250,"midi":65,"velocity":0.7086614173228346,"hand":"R"},{"time":124000,"durationMs":2000,"midi":36,"velocity":0.7086614173228346,"hand":"L"},{"time":124250,"durationMs":1750,"midi":48,"velocity":0.7086614173228346,"hand":"L"},{"time":124500,"durationMs":250,"midi":55,"velocity":0.7086614173228346,"hand":"R"},{"time":124750,"durationMs":250,"midi":58,"velocity":0.7086614173228346,"hand":"R"},{"time":125000,"durationMs":250,"midi":64,"velocity":0.7086614173228346,"hand":"R"},{"time":125250,"durationMs":250,"midi":55,"velocity":0.7086614173228346,"hand":"R"},{"time":125500,"durationMs":250,"midi":58,"velocity":0.7086614173228346,"hand":"R"},{"time":125750,"durationMs":250,"midi":64,"velocity":0.7086614173228346,"hand":"R"},{"time":126000,"durationMs":2000,"midi":36,"velocity":0.7086614173228346,"hand":"L"},{"time":126250,"durationMs":1750,"midi":48,"velocity":0.7086614173228346,"hand":"L"},{"time":126500,"durationMs":250,"midi":55,"velocity":0.7086614173228346,"hand":"R"},{"time":126750,"durationMs":250,"midi":58,"velocity":0.7086614173228346,"hand":"R"},{"time":127000,"durationMs":250,"midi":64,"velocity":0.7086614173228346,"hand":"R"},{"time":127250,"durationMs":250,"midi":55,"velocity":0.7086614173228346,"hand":"R"},{"time":127500,"durationMs":250,"midi":58,"velocity":0.7086614173228346,"hand":"R"},{"time":127750,"durationMs":250,"midi":64,"velocity":0.7086614173228346,"hand":"R"},{"time":128000,"durationMs":4000,"midi":36,"velocity":0.7086614173228346,"hand":"L"},{"time":128250,"durationMs":3750,"midi":48,"velocity":0.7086614173228346,"hand":"L"},{"time":128500,"durationMs":250,"midi":53,"velocity":0.7086614173228346,"hand":"R"},{"time":128750,"durationMs":250,"midi":57,"velocity":0.7086614173228346,"hand":"R"},{"time":129000,"durationMs":250,"midi":60,"velocity":0.7086614173228346,"hand":"R"},{"time":129250,"durationMs":250,"midi":65,"velocity":0.7086614173228346,"hand":"R"},{"time":129500,"durationMs":250,"midi":60,"velocity":0.7086614173228346,"hand":"R"},{"time":129750,"durationMs":250,"midi":57,"velocity":0.7086614173228346,"hand":"R"},{"time":130000,"durationMs":250,"midi":60,"velocity":0.7086614173228346,"hand":"R"},{"time":130250,"durationMs":250,"midi":57,"velocity":0.7086614173228346,"hand":"R"},{"time":130500,"durationMs":250,"midi":53,"velocity":0.7086614173228346,"hand":"R"},{"time":130750,"durationMs":250,"midi":57,"velocity":0.7086614173228346,"hand":"R"},{"time":131000,"durationMs":250,"midi":53,"velocity":0.7086614173228346,"hand":"R"},{"time":131250,"durationMs":250,"midi":50,"velocity":0.7086614173228346,"hand":"R"},{"time":131500,"durationMs":250,"midi":53,"velocity":0.7086614173228346,"hand":"R"},{"time":131750,"durationMs":250,"midi":50,"velocity":0.7086614173228346,"hand":"R"},{"time":132000,"durationMs":4000,"midi":36,"velocity":0.7086614173228346,"hand":"L"},{"time":132250,"durationMs":3750,"midi":47,"velocity":0.7086614173228346,"hand":"L"},{"time":132500,"durationMs":250,"midi":67,"velocity":0.7086614173228346,"hand":"R"},{"time":132750,"durationMs":250,"midi":71,"velocity":0.7086614173228346,"hand":"R"},{"time":133000,"durationMs":250,"midi":74,"velocity":0.7086614173228346,"hand":"R"},{"time":133250,"durationMs":250,"midi":77,"velocity":0.7086614173228346,"hand":"R"},{"time":133500,"durationMs":250,"midi":74,"velocity":0.7086614173228346,"hand":"R"},{"time":133750,"durationMs":250,"midi":71,"velocity":0.7086614173228346,"hand":"R"},{"time":134000,"durationMs":250,"midi":74,"velocity":0.7086614173228346,"hand":"R"},{"time":134250,"durationMs":250,"midi":71,"velocity":0.7086614173228346,"hand":"R"},{"time":134500,"durationMs":250,"midi":67,"velocity":0.7086614173228346,"hand":"R"},{"time":134750,"durationMs":250,"midi":71,"velocity":0.7086614173228346,"hand":"R"},{"time":135000,"durationMs":250,"midi":62,"velocity":0.7086614173228346,"hand":"R"},{"time":135250,"durationMs":250,"midi":65,"velocity":0.7086614173228346,"hand":"R"},{"time":135500,"durationMs":250,"midi":64,"velocity":0.7086614173228346,"hand":"R"},{"time":135750,"durationMs":250,"midi":62,"velocity":0.7086614173228346,"hand":"R"},{"time":136000,"durationMs":4000,"midi":36,"velocity":0.7086614173228346,"hand":"L"},{"time":136000,"durationMs":4000,"midi":48,"velocity":0.7086614173228346,"hand":"L"},{"time":136000,"durationMs":4000,"midi":64,"velocity":0.7086614173228346,"hand":"R"},{"time":136000,"durationMs":4000,"midi":67,"velocity":0.7086614173228346,"hand":"R"},{"time":136000,"durationMs":4000,"midi":72,"velocity":0.7086614173228346,"hand":"R"}]}
