{"meta":{"title":"Moonlight Sonata (1st Mvt)","bpm":60,"durationMs":276000},"notes":[{"time":0,"durationMs":4000,"midi":37,"velocity":1,"hand":"L"},{"time":0,"durationMs":4000,"midi":49,"velocity":1,"hand":"L"},{"time":0,"durationMs":331,"midi":56,"velocity":1,"hand":"R"},{"time":333,"durationMs":331,"midi":61,"velocity":1,"hand":"R"},{"time":667,"durationMs":331,"midi":64,"velocity":1,"hand":"R"},{"time":1000,"durationMs":331,"midi":56,"velocity":1,"hand":"R"},{"time":1333,"durationMs":331,"midi":61,"velocity":1,"hand":"R"},{"time":1667,"durationMs":331,"midi":64,"velocity":1,"hand":"R"},{"time":2000,"durationMs":331,"midi":56,"velocity":1,"hand":"R"},{"time":2333,"durationMs":331,"midi":61,"velocity":1,"hand":"R"},{"time":2667,"durationMs":331,"midi":64,"velocity":1,"hand":"R"},{"time":3000,"durationMs":331,"midi":56,"velocity":1,"hand":"R"},{"time":3333,"durationMs":331,"midi":61,"velocity":1,"hand":"R"},{"time":3667,"durationMs":331,"midi":64,"velocity":1,"hand":"R"},{"time":4000,"durationMs":4000,"midi":35,"velocity":1,"hand":"L"},{"time":4000,"durationMs":4000,"midi":47,"velocity":1,"hand":"L"},{"time":4000,"durationMs":331,"midi":56,"velocity":1,"hand":"R"},{"time":4333,"durationMs":331,"midi":61,"velocity":1,"hand":"R"},{"time":4667,"durationMs":331,"midi":64,"velocity":1,"hand":"R"},{"time":5000,"durationMs":331,"midi":56,"velocity":1,"hand":"R"},{"time":5333,"durationMs":331,"midi":61,"velocity":1,"hand":"R"},{"time":5667,"durationMs":331,"midi":64,"velocity":1,"hand":"R"},{"time":6000,"durationMs":331,"midi":56,"velocity":1,"hand":"R"},{"time":6333,"durationMs":331,"midi":61,"velocity":1,"hand":"R"},{"time":6667,"durationMs":331,"midi":64,"velocity":1,"hand":"R"},{"time":7000,"durationMs":331,"midi":56,"velocity":1,"hand":"R"},{"time":7333,"durationMs":331,"midi":61,"velocity":1,"hand":"R"},{"time":7667,"durationMs":331,"midi":64,"velocity":1,"hand":"R"},{"time":8000,"durationMs":2000,"midi":33,"velocity":1,"hand":"L"},{"time":8000,"durationMs":2000,"midi":45,"velocity":1,"hand":"L"},{"time":8000,"durationMs":331,"midi":57,"velocity":1,"hand":"R"},{"time":8333,"durationMs":331,"midi":61,"velocity":1,"hand":"R"},{"time":8667,"durationMs":331,"midi":64,"velocity":1,"hand":"R"},{"time":9000,"durationMs":331,"midi":57,"velocity":1,"hand":"R"},{"time":9333,"durationMs":331,"midi":61,"velocity":1,"hand":"R"},{"time":9667,"durationMs":331,"midi":64,"velocity":1,"hand":"R"},{"time":10000,"durationMs":2000,"midi":30,"velocity":1,"hand":"L"},{"time":10000,"durationMs":2000,"midi":42,"velocity":1,"hand":"L"},{"time":10000,"durationMs":331,"midi":57,"velocity":1,"hand":"R"},{"time":10333,"durationMs":331,"midi":62,"velocity":1,"hand":"R"},{"time":10667,"durationMs":331,"midi":66,"velocity":1,"hand":"R"},{"time":11000,"durationMs":331,"midi":57,"velocity":1,"hand":"R"},{"time":11333,"durationMs":331,"midi":62,"velocity":1,"hand":"R"},{"time":11667,"durationMs":331,"midi":66,"velocity":1,"hand":"R"},{"time":12000,"durationMs":2000,"midi":32,"velocity":1,"hand":"L"},{"time":12000,"durationMs":2000,"midi":44,"velocity":1,"hand":"L"},{"time":12000,"durationMs":331,"midi":56,"velocity":1,"hand":"R"},{"time":12333,"durationMs":331,"midi":60,"velocity":1,"hand":"R"},{"time":12667,"durationMs":331,"midi":66,"velocity":1,"hand":"R"},{"time":13000,"durationMs":331,"midi":56,"velocity":1,"hand":"R"},{"time":13333,"durationMs":331,"midi":61,"velocity":1,"hand":"R"},{"time":13667,"durationMs":331,"midi":64,"velocity":1,"hand":"R"},{"time":14000,"durationMs":2000,"midi":32,"velocity":1,"hand":"L"},{"time":14000,"durationMs":2000,"midi":44,"velocity":1,"hand":"L"},{"time":14000,"durationMs":331,"midi":56,"velocity":1,"hand":"R"},{"time":14333,"durationMs":331,"midi":61,"velocity":1,"hand":"R"},{"time":14667,"durationMs":331,"midi":63,"velocity":1,"hand":"R"},{"time":15000,"durationMs":331,"midi":54,"velocity":1,"hand":"R"},{"time":15333,"durationMs":331,"midi":60,"velocity":1,"hand":"R"},{"time":15667,"durationMs":331,"midi":63,"velocity":1,"hand":"R"},{"time":16000,"durationMs":4000,"midi":37,"velocity":1,"hand":"L"},{"time":16000,"durationMs":4000,"midi":44,"velocity":1,"hand":"L"},{"time":16000,"durationMs":4000,"midi":49,"velocity":1,"hand":"L"},{"time":16000,"durationMs":331,"midi":52,"velocity":1,"hand":"L"},{"time":16333,"durationMs":331,"midi":56,"velocity":1,"hand":"L"},{"time":16667,"durationMs":331,"midi":61,"velocity":1,"hand":"L"},{"time":17000,"durationMs":331,"midi":56,"velocity":1,"hand":"R"},{"time":17333,"durationMs":331,"midi":61,"velocity":1,"hand":"R"},{"time":17667,"durationMs":331,"midi":64,"velocity":1,"hand":"R"},{"time":18000,"durationMs":331,"midi":56,"velocity":1,"hand":"R"},{"time":18333,"durationMs":331,"midi":61,"velocity":1,"hand":"R"},{"time":18667,"durationMs":331,"midi":64,"velocity":1,"hand":"R"},{"time":19000,"durationMs":331,"midi":56,"velocity":1,"hand":"R"},{"time":19000,"durationMs":750,"midi":68,"velocity":1,"hand":"R"},{"time":19333,"durationMs":331,"midi":61,"velocity":1,"hand":"R"},{"time":19667,"durationMs":331,"midi":64,"velocity":1,"hand":"R"},{"time":19750,"durationMs":250,"midi":68,"velocity":1,"hand":"R"},{"time":20000,"durationMs":4000,"midi":36,"velocity":1,"hand":"L"},{"time":20000,"durationMs":4000,"midi":44,"velocity":1,"hand":"L"},{"time":20000,"durationMs":4000,"midi":48,"velocity":1,"hand":"L"},{"time":20000,"durationMs":331,"midi":56,"velocity":1,"hand":"R"},{"time":20000,"durationMs":3000,"midi":68,"velocity":1,"hand":"R"},{"time":20333,"durationMs":331,"midi":63,"velocity":1,"hand":"R"},{"time":20667,"durationMs":331,"midi":66,"velocity":1,"hand":"R"},{"time":21000,"durationMs":331,"midi":56,"velocity":1,"hand":"R"},{"time":21333,"durationMs":331,"midi":63,"velocity":1,"hand":"R"},{"time":21667,"durationMs":331,"midi":66,"velocity":1,"hand":"R"},{"time":22000,"durationMs":331,"midi":56,"velocity":1,"hand":"R"},{"time":22333,"durationMs":331,"midi":63,"velocity":1,"hand":"R"},{"time":22667,"durationMs":331,"midi":66,"velocity":1,"hand":"R"},{"time":23000,"durationMs":331,"midi":56,"velocity":1,"hand":"R"},{"time":23000,"durationMs":750,"midi":68,"velocity":1,"hand":"R"},{"time":23333,"durationMs":331,"midi":63,"velocity":1,"hand":"R"},{"time":23667,"durationMs":331,"midi":66,"velocity":1,"hand":"R"},{"time":23750,"durationMs":250,"midi":68,"velocity":1,"hand":"R"},{"time":24000,"durationMs":2000,"midi":37,"velocity":1,"hand":"L"},{"time":24000,"durationMs":2000,"midi":49,"velocity":1,"hand":"L"},{"time":24000,"durationMs":331,"midi":56,"velocity":1,"hand":"R"},{"time":24000,"durationMs":2000,"midi":68,"velocity":1,"hand":"R"},{"time":24333,"durationMs":331,"midi":61,"velocity":1,"hand":"R"},{"time":24667,"durationMs":331,"midi":64,"velocity":1,"hand":"R"},{"time":25000,"durationMs":331,"midi":56,"velocity":1,"hand":"R"},{"time":25333,"durationMs":331,"midi":61,"velocity":1,"hand":"R"},{"time":25667,"durationMs":331,"midi":64,"velocity":1,"hand":"R"},{"time":26000,"durationMs":2000,"midi":30,"velocity":1,"hand":"L"},{"time":26000,"durationMs":2000,"midi":42,"velocity":1,"hand":"L"},{"time":26000,"durationMs":331,"midi":57,"velocity":1,"hand":"R"},{"time":26000,"durationMs":2000,"midi":69,"velocity":1,"hand":"R"},{"time":26333,"durationMs":331,"midi":61,"velocity":1,"hand":"R"},{"time":26667,"durationMs":331,"midi":66,"velocity":1,"hand":"R"},{"time":27000,"durationMs":331,"midi":57,"velocity":1,"hand":"R"},{"time":27333,"durationMs":331,"midi":61,"velocity":1,"hand":"R"},{"time":27667,"durationMs":331,"midi":66,"velocity":1,"hand":"R"},{"time":28000,"durationMs":2000,"midi":35,"velocity":1,"hand":"L"},{"time":28000,"durationMs":2000,"midi":47,"velocity":1,"hand":"L"},{"time":28000,"durationMs":331,"midi":56,"velocity":1,"hand":"R"},{"time":28000,"durationMs":2000,"midi":68,"velocity":1,"hand":"R"},{"time":28333,"durationMs":331,"midi":59,"velocity":1,"hand":"R"},{"time":28667,"durationMs":331,"midi":64,"velocity":1,"hand":"R"},{"time":29000,"durationMs":331,"midi":56,"velocity":1,"hand":"R"},{"time":29333,"durationMs":331,"midi":59,"velocity":1,"hand":"R"},{"time":29667,"durationMs":331,"midi":64,"velocity":1,"hand":"R"},{"time":30000,"durationMs":2000,"midi":35,"velocity":1,"hand":"L"},{"time":30000,"durationMs":2000,"midi":47,"velocity":1,"hand":"L"},{"time":30000,"durationMs":331,"midi":57,"velocity":1,"hand":"R"},{"time":30000,"durationMs":1000,"midi":66,"velocity":1,"hand":"R"},{"time":30333,"durationMs":331,"midi":59,"velocity":1,"hand":"R"},{"time":30667,"durationMs":331,"midi":63,"velocity":1,"hand":"R"},{"time":31000,"durationMs":331,"midi":57,"velocity":1,"hand":"R"},{"time":31000,"durationMs":1000,"midi":71,"velocity":1,"hand":"R"},{"time":31333,"durationMs":331,"midi":59,"velocity":1,"hand":"R"},{"time":31667,"durationMs":331,"midi":63,"velocity":1,"hand":"R"},{"time":32000,"durationMs":4000,"midi":40,"velocity":1,"hand":"L"},{"time":32000,"durationMs":4000,"midi":52,"velocity":1,"hand":"L"},{"time":32000,"durationMs":331,"midi":56,"velocity":1,"hand":"R"},{"time":32000,"durationMs":1000,"midi":64,"velocity":1,"hand":"R"},{"time":32333,"durationMs":331,"midi":59,"velocity":1,"hand":"R"},{"time":33000,"durationMs":331,"midi":56,"velocity":1,"hand":"R"},{"time":33333,"durationMs":331,"midi":59,"velocity":1,"hand":"R"},{"time":33667,"durationMs":331,"midi":64,"velocity":1,"hand":"R"},{"time":34000,"durationMs":331,"midi":56,"velocity":1,"hand":"R"},{"time":34333,"durationMs":331,"midi":59,"velocity":1,"hand":"R"},{"time":34667,"durationMs":331,"midi":64,"velocity":1,"hand":"R"},{"time":35000,"durationMs":331,"midi":56,"velocity":1,"hand":"R"},{"time":35333,"durationMs":331,"midi":59,"velocity":1,"hand":"R"},{"time":35667,"durationMs":331,"midi":64,"velocity":1,"hand":"R"},{"time":36000,"durationMs":4000,"midi":40,"velocity":1,"hand":"L"},{"time":36000,"durationMs":4000,"midi":52,"velocity":1,"hand":"L"},{"time":36000,"durationMs":331,"midi":55,"velocity":1,"hand":"R"},{"time":36333,"durationMs":331,"midi":59,"velocity":1,"hand":"R"},{"time":36667,"durationMs":331,"midi":64,"velocity":1,"hand":"R"},{"time":37000,"durationMs":331,"midi":55,"velocity":1,"hand":"R"},{"time":37333,"durationMs":331,"midi":59,"velocity":1,"hand":"R"},{"time":37667,"durationMs":331,"midi":64,"velocity":1,"hand":"R"},{"time":38000,"durationMs":331,"midi":55,"velocity":1,"hand":"R"},{"time":38333,"durationMs":331,"midi":59,"velocity":1,"hand":"R"},{"time":38667,"durationMs":331,"midi":64,"velocity":1,"hand":"R"},{"time":39000,"durationMs":331,"midi":55,"velocity":1,"hand":"R"},{"time":39000,"durationMs":750,"midi":67,"velocity":1,"hand":"R"},{"time":39333,"durationMs":331,"midi":59,"velocity":1,"hand":"R"},{"time":39667,"durationMs":331,"midi":64,"velocity":1,"hand":"R"},{"time":39750,"durationMs":250,"midi":67,"velocity":1,"hand":"R"},{"time":40000,"durationMs":4000,"midi":38,"velocity":1,"hand":"L"},{"time":40000,"durationMs":4000,"midi":50,"velocity":1,"hand":"L"},{"time":40000,"durationMs":331,"midi":55,"velocity":1,"hand":"R"},{"time":40000,"durationMs":3000,"midi":67,"velocity":1,"hand":"R"},{"time":40333,"durationMs":331,"midi":59,"velocity":1,"hand":"R"},{"time":40667,"durationMs":331,"midi":65,"velocity":1,"hand":"R"},{"time":41000,"durationMs":331,"midi":55,"velocity":1,"hand":"R"},{"time":41333,"durationMs":331,"midi":59,"velocity":1,"hand":"R"},{"time":41667,"durationMs":331,"midi":65,"velocity":1,"hand":"R"},{"time":42000,"durationMs":331,"midi":55,"velocity":1,"hand":"R"},{"time":42333,"durationMs":331,"midi":59,"velocity":1,"hand":"R"},{"time":42667,"durationMs":331,"midi":65,"velocity":1,"hand":"R"},{"time":43000,"durationMs":331,"midi":55,"velocity":1,"hand":"R"},{"time":43000,"durationMs":750,"midi":67,"velocity":1,"hand":"R"},{"time":43333,"durationMs":331,"midi":59,"velocity":1,"hand":"R"},{"time":43667,"durationMs":331,"midi":65,"velocity":1,"hand":"R"},{"time":43750,"durationMs":250,"midi":67,"velocity":1,"hand":"R"},{"time":44000,"durationMs":1000,"midi":36,"velocity":1,"hand":"L"},{"time":44000,"durationMs":1000,"midi":48,"velocity":1,"hand":"L"},{"time":44000,"durationMs":331,"midi":55,"velocity":1,"hand":"R"},{"time":44000,"durationMs":3000,"midi":67,"velocity":1,"hand":"R"},{"time":44333,"durationMs":331,"midi":60,"velocity":1,"hand":"R"},{"time":44667,"durationMs":331,"midi":64,"velocity":1,"hand":"R"},{"time":45000,"durationMs":1000,"midi":35,"velocity":1,"hand":"L"},{"time":45000,"durationMs":1000,"midi":47,"velocity":1,"hand":"L"},{"time":45000,"durationMs":331,"midi":55,"velocity":1,"hand":"R"},{"time":45333,"durationMs":331,"midi":59,"velocity":1,"hand":"R"},{"time":45667,"durationMs":331,"midi":64,"velocity":1,"hand":"R"},{"time":46000,"durationMs":2000,"midi":34,"velocity":1,"hand":"L"},{"time":46000,"durationMs":2000,"midi":46,"velocity":1,"hand":"L"},{"time":46000,"durationMs":331,"midi":55,"velocity":1,"hand":"R"},{"time":46333,"durationMs":331,"midi":61,"velocity":1,"hand":"R"},{"time":46667,"durationMs":331,"midi":64,"velocity":1,"hand":"R"},{"time":47000,"durationMs":331,"midi":54,"velocity":1,"hand":"L"},{"time":47000,"durationMs":1000,"midi":66,"velocity":1,"hand":"R"},{"time":47333,"durationMs":331,"midi":61,"velocity":1,"hand":"L"},{"time":47667,"durationMs":331,"midi":64,"velocity":1,"hand":"L"},{"time":48000,"durationMs":2000,"midi":35,"velocity":1,"hand":"L"},{"time":48000,"durationMs":2000,"midi":47,"velocity":1,"hand":"L"},{"time":48000,"durationMs":331,"midi":54,"velocity":1,"hand":"L"},{"time":48000,"durationMs":2000,"midi":66,"velocity":1,"hand":"R"},{"time":48333,"durationMs":331,"midi":59,"velocity":1,"hand":"L"},{"time":48667,"durationMs":331,"midi":62,"velocity":1,"hand":"L"},{"time":49000,"durationMs":331,"midi":54,"velocity":1,"hand":"L"},{"time":49333,"durationMs":331,"midi":59,"velocity":1,"hand":"L"},{"time":49667,"durationMs":331,"midi":62,"velocity":1,"hand":"L"},{"time":50000,"durationMs":1000,"midi":40,"velocity":1,"hand":"L"},{"time":50000,"durationMs":331,"midi":55,"velocity":1,"hand":"L"},{"time":50000,"durationMs":1000,"midi":67,"velocity":1,"hand":"R"},{"time":50333,"durationMs":331,"midi":59,"velocity":1,"hand":"L"},{"time":50667,"durationMs":331,"midi":61,"velocity":1,"hand":"L"},{"time":51000,"durationMs":1000,"midi":43,"velocity":1,"hand":"L"},{"time":51000,"durationMs":331,"midi":52,"velocity":1,"hand":"L"},{"time":51000,"durationMs":1000,"midi":64,"velocity":1,"hand":"R"},{"time":51333,"durationMs":331,"midi":59,"velocity":1,"hand":"L"},{"time":51667,"durationMs":331,"midi":61,"velocity":1,"hand":"L"},{"time":52000,"durationMs":2000,"midi":42,"velocity":1,"hand":"L"},{"time":52000,"durationMs":331,"midi":54,"velocity":1,"hand":"L"},{"time":52000,"durationMs":2000,"midi":66,"velocity":1,"hand":"R"},{"time":52333,"durationMs":331,"midi":59,"velocity":1,"hand":"L"},{"time":52667,"durationMs":331,"midi":62,"velocity":1,"hand":"L"},{"time":53000,"durationMs":331,"midi":54,"velocity":1,"hand":"L"},{"time":53333,"durationMs":331,"midi":59,"velocity":1,"hand":"L"},{"time":53667,"durationMs":331,"midi":62,"velocity":1,"hand":"L"},{"time":54000,"durationMs":2000,"midi":30,"velocity":1,"hand":"L"},{"time":54000,"durationMs":2000,"midi":42,"velocity":1,"hand":"L"},{"time":54000,"durationMs":331,"midi":54,"velocity":1,"hand":"L"},{"time":54000,"durationMs":2000,"midi":66,"velocity":1,"hand":"R"},{"time":54333,"durationMs":331,"midi":58,"velocity":1,"hand":"L"},{"time":54667,"durationMs":331,"midi":61,"velocity":1,"hand":"L"},{"time":55000,"durationMs":331,"midi":54,"velocity":1,"hand":"L"},{"time":55333,"durationMs":331,"midi":58,"velocity":1,"hand":"L"},{"time":55667,"durationMs":331,"midi":61,"velocity":1,"hand":"L"},{"time":56000,"durationMs":5000,"midi":35,"velocity":1,"hand":"L"},{"time":56000,"durationMs":5000,"midi":47,"velocity":1,"hand":"L"},{"time":56000,"durationMs":1000,"midi":59,"velocity":1,"hand":"R"},{"time":56333,"durationMs":331,"midi":62,"velocity":1,"hand":"R"},{"time":56667,"durationMs":331,"midi":66,"velocity":1,"hand":"R"},{"time":57000,"durationMs":331,"midi":59,"velocity":1,"hand":"R"},{"time":57333,"durationMs":331,"midi":62,"velocity":1,"hand":"R"},{"time":57667,"durationMs":331,"midi":66,"velocity":1,"hand":"R"},{"time":58000,"durationMs":331,"midi":59,"velocity":1,"hand":"R"},{"time":58333,"durationMs":331,"midi":63,"velocity":1,"hand":"R"},{"time":58667,"durationMs":331,"midi":66,"velocity":1,"hand":"R"},{"time":59000,"durationMs":331,"midi":59,"velocity":1,"hand":"R"},{"time":59000,"durationMs":1000,"midi":71,"velocity":1,"hand":"R"},{"time":59333,"durationMs":331,"midi":63,"velocity":1,"hand":"R"},{"time":59667,"durationMs":331,"midi":66,"velocity":1,"hand":"R"},{"time":60000,"durationMs":331,"midi":59,"velocity":1,"hand":"R"},{"time":60000,"durationMs":3000,"midi":72,"velocity":1,"hand":"R"},{"time":60333,"durationMs":331,"midi":64,"velocity":1,"hand":"R"},{"time":60667,"durationMs":331,"midi":67,"velocity":1,"hand":"R"},{"time":61000,"durationMs":1000,"midi":40,"velocity":1,"hand":"L"},{"time":61000,"durationMs":1000,"midi":52,"velocity":1,"hand":"L"},{"time":61000,"durationMs":331,"midi":59,"velocity":1,"hand":"R"},{"time":61333,"durationMs":331,"midi":64,"velocity":1,"hand":"R"},{"time":61667,"durationMs":331,"midi":67,"velocity":1,"hand":"R"},{"time":62000,"durationMs":1000,"midi":43,"velocity":1,"hand":"L"},{"time":62000,"durationMs":1000,"midi":55,"velocity":1,"hand":"L"},{"time":62000,"durationMs":331,"midi":59,"velocity":1,"hand":"R"},{"time":62333,"durationMs":331,"midi":64,"velocity":1,"hand":"R"},{"time":62667,"durationMs":331,"midi":67,"velocity":1,"hand":"R"},{"time":63000,"durationMs":1000,"midi":40,"velocity":1,"hand":"L"},{"time":63000,"durationMs":1000,"midi":52,"velocity":1,"hand":"L"},{"time":63000,"durationMs":331,"midi":59,"velocity":1,"hand":"R"},{"time":63000,"durationMs":1000,"midi":70,"velocity":1,"hand":"R"},{"time":63333,"durationMs":331,"midi":64,"velocity":1,"hand":"R"},{"time":63667,"durationMs":331,"midi":67,"velocity":1,"hand":"R"},{"time":64000,"durationMs":5000,"midi":35,"velocity":1,"hand":"L"},{"time":64000,"durationMs":5000,"midi":47,"velocity":1,"hand":"L"},{"time":64000,"durationMs":331,"midi":59,"velocity":1,"hand":"R"},{"time":64000,"durationMs":3000,"midi":71,"velocity":1,"hand":"R"},{"time":64333,"durationMs":331,"midi":63,"velocity":1,"hand":"R"},{"time":64667,"durationMs":331,"midi":66,"velocity":1,"hand":"R"},{"time":65000,"durationMs":331,"midi":59,"velocity":1,"hand":"R"},{"time":65333,"durationMs":331,"midi":63,"velocity":1,"hand":"R"},{"time":65667,"durationMs":331,"midi":66,"velocity":1,"hand":"R"},{"time":66000,"durationMs":331,"midi":59,"velocity":1,"hand":"R"},{"time":66333,"durationMs":331,"midi":63,"velocity":1,"hand":"R"},{"time":66667,"durationMs":331,"midi":66,"velocity":1,"hand":"R"},{"time":67000,"durationMs":331,"midi":59,"velocity":1,"hand":"R"},{"time":67000,"durationMs":1000,"midi":71,"velocity":1,"hand":"R"},{"time":67333,"durationMs":331,"midi":63,"velocity":1,"hand":"R"},{"time":67667,"durationMs":331,"midi":66,"velocity":1,"hand":"R"},{"time":68000,"durationMs":331,"midi":59,"velocity":1,"hand":"R"},{"time":68000,"durationMs":3000,"midi":72,"velocity":1,"hand":"R"},{"time":68333,"durationMs":331,"midi":64,"velocity":1,"hand":"R"},{"time":68667,"durationMs":331,"midi":67,"velocity":1,"hand":"R"},{"time":69000,"durationMs":1000,"midi":40,"velocity":1,"hand":"L"},{"time":69000,"durationMs":1000,"midi":52,"velocity":1,"hand":"L"},{"time":69000,"durationMs":331,"midi":59,"velocity":1,"hand":"R"},{"time":69333,"durationMs":331,"midi":64,"velocity":1,"hand":"R"},{"time":69667,"durationMs":331,"midi":67,"velocity":1,"hand":"R"},{"time":70000,"durationMs":1000,"midi":43,"velocity":1,"hand":"L"},{"time":70000,"durationMs":1000,"midi":55,"velocity":1,"hand":"L"},{"time":70000,"durationMs":331,"midi":59,"velocity":1,"hand":"R"},{"time":70333,"durationMs":331,"midi":64,"velocity":1,"hand":"R"},{"time":70667,"durationMs":331,"midi":67,"velocity":1,"hand":"R"},{"time":71000,"durationMs":1000,"midi":40,"velocity":1,"hand":"L"},{"time":71000,"durationMs":1000,"midi":52,"velocity":1,"hand":"L"},{"time":71000,"durationMs":331,"midi":59,"velocity":1,"hand":"R"},{"time":71000,"durationMs":1000,"midi":70,"velocity":1,"hand":"R"},{"time":71333,"durationMs":331,"midi":64,"velocity":1,"hand":"R"},{"time":71667,"durationMs":331,"midi":67,"velocity":1,"hand":"R"},{"time":72000,"durationMs":2000,"midi":35,"velocity":1,"hand":"L"},{"time":72000,"durationMs":2000,"midi":47,"velocity":1,"hand":"L"},{"time":72000,"durationMs":331,"midi":59,"velocity":1,"hand":"R"},{"time":72000,"durationMs":2000,"midi":71,"velocity":1,"hand":"R"},{"time":72333,"durationMs":331,"midi":63,"velocity":1,"hand":"R"},{"time":72667,"durationMs":331,"midi":66,"velocity":1,"hand":"R"},{"time":73000,"durationMs":331,"midi":59,"velocity":1,"hand":"R"},{"time":73333,"durationMs":331,"midi":63,"velocity":1,"hand":"R"},{"time":73667,"durationMs":331,"midi":66,"velocity":1,"hand":"R"},{"time":74000,"durationMs":2000,"midi":32,"velocity":1,"hand":"L"},{"time":74000,"durationMs":2000,"midi":44,"velocity":1,"hand":"L"},{"time":74000,"durationMs":331,"midi":59,"velocity":1,"hand":"R"},{"time":74000,"durationMs":2000,"midi":71,"velocity":1,"hand":"R"},{"time":74333,"durationMs":331,"midi":62,"velocity":1,"hand":"R"},{"time":74667,"durationMs":331,"midi":65,"velocity":1,"hand":"R"},{"time":75000,"durationMs":331,"midi":59,"velocity":1,"hand":"R"},{"time":75333,"durationMs":331,"midi":62,"velocity":1,"hand":"R"},{"time":75667,"durationMs":331,"midi":65,"velocity":1,"hand":"R"},{"time":76000,"durationMs":2000,"midi":29,"velocity":1,"hand":"L"},{"time":76000,"durationMs":2000,"midi":41,"velocity":1,"hand":"L"},{"time":76000,"durationMs":331,"midi":59,"velocity":1,"hand":"R"},{"time":76000,"durationMs":2000,"midi":71,"velocity":1,"hand":"R"},{"time":76333,"durationMs":331,"midi":61,"velocity":1,"hand":"R"},{"time":76667,"durationMs":331,"midi":68,"velocity":1,"hand":"R"},{"time":77000,"durationMs":331,"midi":59,"velocity":1,"hand":"R"},{"time":77333,"durationMs":331,"midi":61,"velocity":1,"hand":"R"},{"time":77667,"durationMs":331,"midi":68,"velocity":1,"hand":"R"},{"time":78000,"durationMs":2000,"midi":30,"velocity":1,"hand":"L"},{"time":78000,"durationMs":2000,"midi":42,"velocity":1,"hand":"L"},{"time":78000,"durationMs":331,"midi":57,"velocity":1,"hand":"R"},{"time":78000,"durationMs":2000,"midi":69,"velocity":1,"hand":"R"},{"time":78333,"durationMs":331,"midi":61,"velocity":1,"hand":"R"},{"time":78667,"durationMs":331,"midi":66,"velocity":1,"hand":"R"},{"time":79000,"durationMs":331,"midi":57,"velocity":1,"hand":"R"},{"time":79333,"durationMs":331,"midi":61,"velocity":1,"hand":"R"},{"time":79667,"durationMs":331,"midi":66,"velocity":1,"hand":"R"},{"time":80000,"durationMs":2000,"midi":35,"velocity":1,"hand":"L"},{"time":80000,"durationMs":2000,"midi":47,"velocity":1,"hand":"L"},{"time":80000,"durationMs":331,"midi":55,"velocity":1,"hand":"L"},{"time":80000,"durationMs":2000,"midi":67,"velocity":1,"hand":"R"},{"time":80333,"durationMs":331,"midi":59,"velocity":1,"hand":"L"},{"time":80667,"durationMs":331,"midi":62,"velocity":1,"hand":"L"},{"time":81000,"durationMs":331,"midi":55,"velocity":1,"hand":"L"},{"time":81333,"durationMs":331,"midi":59,"velocity":1,"hand":"L"},{"time":81667,"durationMs":331,"midi":62,"velocity":1,"hand":"L"},{"time":82000,"durationMs":2000,"midi":36,"velocity":1,"hand":"L"},{"time":82000,"durationMs":2000,"midi":48,"velocity":1,"hand":"L"},{"time":82000,"durationMs":331,"midi":54,"velocity":1,"hand":"L"},{"time":82000,"durationMs":2000,"midi":66,"velocity":1,"hand":"R"},{"time":82333,"durationMs":331,"midi":57,"velocity":1,"hand":"L"},{"time":82667,"durationMs":331,"midi":63,"velocity":1,"hand":"L"},{"time":83000,"durationMs":331,"midi":54,"velocity":1,"hand":"L"},{"time":83333,"durationMs":331,"midi":57,"velocity":1,"hand":"L"},{"time":83667,"durationMs":331,"midi":63,"velocity":1,"hand":"L"},{"time":84000,"durationMs":2000,"midi":37,"velocity":1,"hand":"L"},{"time":84000,"durationMs":331,"midi":49,"velocity":1,"hand":"L"},{"time":84000,"durationMs":2000,"midi":61,"velocity":1,"hand":"R"},{"time":84333,"durationMs":331,"midi":54,"velocity":1,"hand":"L"},{"time":84667,"durationMs":331,"midi":57,"velocity":1,"hand":"L"},{"time":85000,"durationMs":331,"midi":49,"velocity":1,"hand":"L"},{"time":85333,"durationMs":331,"midi":54,"velocity":1,"hand":"L"},{"time":85667,"durationMs":331,"midi":57,"velocity":1,"hand":"L"},{"time":86000,"durationMs":2000,"midi":37,"velocity":1,"hand":"L"},{"time":86000,"durationMs":331,"midi":49,"velocity":1,"hand":"L"},{"time":86000,"durationMs":1000,"midi":61,"velocity":1,"hand":"R"},{"time":86333,"durationMs":331,"midi":54,"velocity":1,"hand":"L"},{"time":86667,"durationMs":331,"midi":56,"velocity":1,"hand":"L"},{"time":87000,"durationMs":331,"midi":49,"velocity":1,"hand":"L"},{"time":87000,"durationMs":1000,"midi":61,"velocity":1,"hand":"R"},{"time":87333,"durationMs":331,"midi":53,"velocity":1,"hand":"L"},{"time":87667,"durationMs":331,"midi":56,"velocity":1,"hand":"L"},{"time":88000,"durationMs":4000,"midi":30,"velocity":1,"hand":"L"},{"time":88000,"durationMs":4000,"midi":37,"velocity":1,"hand":"L"},{"time":88000,"durationMs":4000,"midi":42,"velocity":1,"hand":"L"},{"time":88000,"durationMs":1000,"midi":54,"velocity":1,"hand":"L"},{"time":88333,"durationMs":331,"midi":57,"velocity":1,"hand":"L"},{"time":88667,"durationMs":331,"midi":61,"velocity":1,"hand":"L"},{"time":89000,"durationMs":331,"midi":57,"velocity":1,"hand":"L"},{"time":89333,"durationMs":331,"midi":61,"velocity":1,"hand":"L"},{"time":89667,"durationMs":331,"midi":66,"velocity":1,"hand":"R"},{"time":90000,"durationMs":331,"midi":61,"velocity":1,"hand":"R"},{"time":90333,"durationMs":331,"midi":66,"velocity":1,"hand":"R"},{"time":90667,"durationMs":331,"midi":69,"velocity":1,"hand":"R"},{"time":91000,"durationMs":331,"midi":61,"velocity":1,"hand":"R"},{"time":91000,"durationMs":750,"midi":73,"velocity":1,"hand":"R"},{"time":91333,"durationMs":331,"midi":66,"velocity":1,"hand":"R"},{"time":91667,"durationMs":331,"midi":69,"velocity":1,"hand":"R"},{"time":91750,"durationMs":250,"midi":73,"velocity":1,"hand":"R"},{"time":92000,"durationMs":4000,"midi":41,"velocity":1,"hand":"L"},{"time":92000,"durationMs":4000,"midi":49,"velocity":1,"hand":"L"},{"time":92000,"durationMs":4000,"midi":53,"velocity":1,"hand":"L"},{"time":92000,"durationMs":331,"midi":61,"velocity":1,"hand":"R"},{"time":92000,"durationMs":3000,"midi":73,"velocity":1,"hand":"R"},{"time":92333,"durationMs":331,"midi":68,"velocity":1,"hand":"R"},{"time":92667,"durationMs":331,"midi":71,"velocity":1,"hand":"R"},{"time":93000,"durationMs":331,"midi":61,"velocity":1,"hand":"R"},{"time":93333,"durationMs":331,"midi":68,"velocity":1,"hand":"R"},{"time":93667,"durationMs":331,"midi":71,"velocity":1,"hand":"R"},{"time":94000,"durationMs":331,"midi":61,"velocity":1,"hand":"R"},{"time":94333,"durationMs":331,"midi":68,"velocity":1,"hand":"R"},{"time":94667,"durationMs":331,"midi":71,"velocity":1,"hand":"R"},{"time":95000,"durationMs":331,"midi":61,"velocity":1,"hand":"R"},{"time":95000,"durationMs":750,"midi":73,"velocity":1,"hand":"R"},{"time":95333,"durationMs":331,"midi":68,"velocity":1,"hand":"R"},{"time":95667,"durationMs":331,"midi":71,"velocity":1,"hand":"R"},{"time":95750,"durationMs":250,"midi":73,"velocity":1,"hand":"R"},{"time":96000,"durationMs":2000,"midi":42,"velocity":1,"hand":"L"},{"time":96000,"durationMs":2000,"midi":54,"velocity":1,"hand":"L"},{"time":96000,"durationMs":331,"midi":61,"velocity":1,"hand":"R"},{"time":96000,"durationMs":2000,"midi":73,"velocity":1,"hand":"R"},{"time":96333,"durationMs":331,"midi":66,"velocity":1,"hand":"R"},{"time":96667,"durationMs":331,"midi":69,"velocity":1,"hand":"R"},{"time":97000,"durationMs":331,"midi":61,"velocity":1,"hand":"R"},{"time":97333,"durationMs":331,"midi":66,"velocity":1,"hand":"R"},{"time":97667,"durationMs":331,"midi":69,"velocity":1,"hand":"R"},{"time":98000,"durationMs":1000,"midi":39,"velocity":1,"hand":"L"},{"time":98000,"durationMs":1000,"midi":51,"velocity":1,"hand":"L"},{"time":98000,"durationMs":331,"midi":60,"velocity":1,"hand":"R"},{"time":98000,"durationMs":1000,"midi":72,"velocity":1,"hand":"R"},{"time":98333,"durationMs":331,"midi":66,"velocity":1,"hand":"R"},{"time":98667,"durationMs":331,"midi":69,"velocity":1,"hand":"R"},{"time":99000,"durationMs":1000,"midi":37,"velocity":1,"hand":"L"},{"time":99000,"durationMs":1000,"midi":49,"velocity":1,"hand":"L"},{"time":99000,"durationMs":331,"midi":61,"velocity":1,"hand":"R"},{"time":99000,"durationMs":1000,"midi":73,"velocity":1,"hand":"R"},{"time":99333,"durationMs":331,"midi":66,"velocity":1,"hand":"R"},{"time":99667,"durationMs":331,"midi":69,"velocity":1,"hand":"R"},{"time":100000,"durationMs":3000,"midi":36,"velocity":1,"hand":"L"},{"time":100000,"durationMs":3000,"midi":44,"velocity":1,"hand":"L"},{"time":100000,"durationMs":3000,"midi":48,"velocity":1,"hand":"L"},{"time":100000,"durationMs":331,"midi":63,"velocity":1,"hand":"R"},{"time":100000,"durationMs":3000,"midi":75,"velocity":1,"hand":"R"},{"time":100333,"durationMs":331,"midi":66,"velocity":1,"hand":"R"},{"time":100667,"durationMs":331,"midi":68,"velocity":1,"hand":"R"},{"time":101000,"durationMs":331,"midi":63,"velocity":1,"hand":"R"},{"time":101333,"durationMs":331,"midi":66,"velocity":1,"hand":"R"},{"time":101667,"durationMs":331,"midi":68,"velocity":1,"hand":"R"},{"time":102000,"durationMs":331,"midi":63,"velocity":1,"hand":"R"},{"time":102333,"durationMs":331,"midi":66,"velocity":1,"hand":"R"},{"time":102667,"durationMs":331,"midi":68,"velocity":1,"hand":"R"},{"time":103000,"durationMs":1000,"midi":36,"velocity":1,"hand":"L"},{"time":103000,"durationMs":1000,"midi":44,"velocity":1,"hand":"L"},{"time":103000,"durationMs":1000,"midi":48,"velocity":1,"hand":"L"},{"time":103000,"durationMs":331,"midi":63,"velocity":1,"hand":"R"},{"time":103000,"durationMs":1000,"midi":75,"velocity":1,"hand":"R"},{"time":103333,"durationMs":331,"midi":66,"velocity":1,"hand":"R"},{"time":103667,"durationMs":331,"midi":68,"velocity":1,"hand":"R"},{"time":104000,"durationMs":2000,"midi":37,"velocity":1,"hand":"L"},{"time":104000,"durationMs":2000,"midi":44,"velocity":1,"hand":"L"},{"time":104000,"durationMs":2000,"midi":49,"velocity":1,"hand":"L"},{"time":104000,"durationMs":331,"midi":64,"velocity":1,"hand":"R"},{"time":104000,"durationMs":2000,"midi":76,"velocity":1,"hand":"R"},{"time":104333,"durationMs":331,"midi":68,"velocity":1,"hand":"R"},{"time":104667,"durationMs":331,"midi":73,"velocity":1,"hand":"R"},{"time":105000,"durationMs":331,"midi":64,"velocity":1,"hand":"R"},{"time":105333,"durationMs":331,"midi":68,"velocity":1,"hand":"R"},{"time":105667,"durationMs":331,"midi":73,"velocity":1,"hand":"R"},{"time":106000,"durationMs":1000,"midi":30,"velocity":1,"hand":"L"},{"time":106000,"durationMs":1000,"midi":42,"velocity":1,"hand":"L"},{"time":106000,"durationMs":331,"midi":63,"velocity":1,"hand":"R"},{"time":106000,"durationMs":1000,"midi":75,"velocity":1,"hand":"R"},{"time":106333,"durationMs":331,"midi":66,"velocity":1,"hand":"R"},{"time":106667,"durationMs":331,"midi":69,"velocity":1,"hand":"R"},{"time":107000,"durationMs":1000,"midi":31,"velocity":1,"hand":"L"},{"time":107000,"durationMs":1000,"midi":43,"velocity":1,"hand":"L"},{"time":107000,"durationMs":331,"midi":61,"velocity":1,"hand":"R"},{"time":107000,"durationMs":1000,"midi":73,"velocity":1,"hand":"R"},{"time":107333,"durationMs":331,"midi":64,"velocity":1,"hand":"R"},{"time":107667,"durationMs":331,"midi":70,"velocity":1,"hand":"R"},{"time":108000,"durationMs":4000,"midi":32,"velocity":1,"hand":"L"},{"time":108000,"durationMs":4000,"midi":44,"velocity":1,"hand":"L"},{"time":108000,"durationMs":331,"midi":72,"velocity":1,"hand":"R"},{"time":108333,"durationMs":331,"midi":60,"velocity":1,"hand":"R"},{"time":108667,"durationMs":331,"midi":63,"velocity":1,"hand":"R"},{"time":109000,"durationMs":1000,"midi":68,"velocity":1,"hand":"R"},{"time":109333,"durationMs":331,"midi":60,"velocity":1,"hand":"R"},{"time":109667,"durationMs":331,"midi":63,"velocity":1,"hand":"R"},{"time":110000,"durationMs":1000,"midi":69,"velocity":1,"hand":"R"},{"time":110333,"durationMs":331,"midi":60,"velocity":1,"hand":"R"},{"time":110667,"durationMs":331,"midi":63,"velocity":1,"hand":"R"},{"time":111000,"durationMs":1000,"midi":66,"velocity":1,"hand":"R"},{"time":111333,"durationMs":331,"midi":60,"velocity":1,"hand":"R"},{"time":111667,"durationMs":331,"midi":63,"velocity":1,"hand":"R"},{"time":112000,"durationMs":4000,"midi":32,"velocity":1,"hand":"L"},{"time":112000,"durationMs":4000,"midi":44,"velocity":1,"hand":"L"},{"time":112333,"durationMs":331,"midi":60,"velocity":1,"hand":"R"},{"time":112667,"durationMs":331,"midi":63,"velocity":1,"hand":"R"},{"time":113000,"durationMs":1000,"midi":56,"velocity":1,"hand":"R"},{"time":113333,"durationMs":331,"midi":60,"velocity":1,"hand":"R"},{"time":113667,"durationMs":331,"midi":63,"velocity":1,"hand":"R"},{"time":114000,"durationMs":1000,"midi":57,"velocity":1,"hand":"R"},{"time":114333,"durationMs":331,"midi":60,"velocity":1,"hand":"R"},{"time":114667,"durationMs":331,"midi":63,"velocity":1,"hand":"R"},{"time":115000,"durationMs":1000,"midi":54,"velocity":1,"hand":"R"},{"time":115333,"durationMs":331,"midi":60,"velocity":1,"hand":"R"},{"time":115667,"durationMs":331,"midi":63,"velocity":1,"hand":"R"},{"time":116000,"durationMs":4000,"midi":32,"velocity":1,"hand":"L"},{"time":116000,"durationMs":4000,"midi":44,"velocity":1,"hand":"L"},{"time":116000,"durationMs":331,"midi":52,"velocity":1,"hand":"L"},{"time":116333,"durationMs":331,"midi":64,"velocity":1,"hand":"R"},{"time":116667,"durationMs":331,"midi":68,"velocity":1,"hand":"R"},{"time":117000,"durationMs":1000,"midi":73,"velocity":1,"hand":"R"},{"time":117333,"durationMs":331,"midi":64,"velocity":1,"hand":"R"},{"time":117667,"durationMs":331,"midi":68,"velocity":1,"hand":"R"},{"time":118000,"durationMs":1000,"midi":76,"velocity":1,"hand":"R"},{"time":118333,"durationMs":331,"midi":64,"velocity":1,"hand":"R"},{"time":118667,"durationMs":331,"midi":68,"velocity":1,"hand":"R"},{"time":119000,"durationMs":1000,"midi":73,"velocity":1,"hand":"R"},{"time":119333,"durationMs":331,"midi":64,"velocity":1,"hand":"R"},{"time":119667,"durationMs":331,"midi":68,"velocity":1,"hand":"R"},{"time":120000,"durationMs":4000,"midi":32,"velocity":1,"hand":"L"},{"time":120000,"durationMs":4000,"midi":44,"velocity":1,"hand":"L"},{"time":120333,"durationMs":331,"midi":52,"velocity":1,"hand":"L"},{"time":120667,"durationMs":331,"midi":56,"velocity":1,"hand":"L"},{"time":121000,"durationMs":1000,"midi":61,"velocity":1,"hand":"L"},{"time":121333,"durationMs":331,"midi":52,"velocity":1,"hand":"L"},{"time":121667,"durationMs":331,"midi":56,"velocity":1,"hand":"L"},{"time":122000,"durationMs":1000,"midi":64,"velocity":1,"hand":"L"},{"time":122333,"durationMs":331,"midi":52,"velocity":1,"hand":"L"},{"time":122667,"durationMs":331,"midi":56,"velocity":1,"hand":"L"},{"time":123000,"durationMs":1000,"midi":61,"velocity":1,"hand":"L"},{"time":123333,"durationMs":331,"midi":52,"velocity":1,"hand":"L"},{"time":123667,"durationMs":331,"midi":56,"velocity":1,"hand":"L"},{"time":124000,"durationMs":4000,"midi":32,"velocity":1,"hand":"L"},{"time":124000,"durationMs":4000,"midi":44,"velocity":1,"hand":"L"},{"time":124000,"durationMs":331,"midi":51,"velocity":1,"hand":"L"},{"time":124333,"durationMs":331,"midi":57,"velocity":1,"hand":"L"},{"time":124667,"durationMs":331,"midi":54,"velocity":1,"hand":"L"},{"time":125000,"durationMs":331,"midi":60,"velocity":1,"hand":"R"},{"time":125333,"durationMs":331,"midi":57,"velocity":1,"hand":"R"},{"time":125667,"durationMs":331,"midi":63,"velocity":1,"hand":"R"},{"time":126000,"durationMs":331,"midi":60,"velocity":1,"hand":"R"},{"time":126333,"durationMs":331,"midi":66,"velocity":1,"hand":"R"},{"time":126667,"durationMs":331,"midi":63,"velocity":1,"hand":"R"},{"time":127000,"durationMs":331,"midi":69,"velocity":1,"hand":"R"},{"time":127333,"durationMs":331,"midi":66,"velocity":1,"hand":"R"},{"time":127667,"durationMs":331,"midi":72,"velocity":1,"hand":"R"},{"time":128000,"durationMs":4000,"midi":32,"velocity":1,"hand":"L"},{"time":128000,"durationMs":4000,"midi":44,"velocity":1,"hand":"L"},{"time":128000,"durationMs":331,"midi":52,"velocity":1,"hand":"L"},{"time":128333,"durationMs":331,"midi":61,"velocity":1,"hand":"L"},{"time":128667,"durationMs":331,"midi":56,"velocity":1,"hand":"L"},{"time":129000,"durationMs":331,"midi":64,"velocity":1,"hand":"R"},{"time":129333,"durationMs":331,"midi":61,"velocity":1,"hand":"R"},{"time":129667,"durationMs":331,"midi":68,"velocity":1,"hand":"R"},{"time":130000,"durationMs":331,"midi":64,"velocity":1,"hand":"R"},{"time":130333,"durationMs":331,"midi":73,"velocity":1,"hand":"R"},{"time":130667,"durationMs":331,"midi":68,"velocity":1,"hand":"R"},{"time":131000,"durationMs":331,"midi":76,"velocity":1,"hand":"R"},{"time":131333,"durationMs":331,"midi":73,"velocity":1,"hand":"R"},{"time":131667,"durationMs":331,"midi":68,"velocity":1,"hand":"R"},{"time":132000,"durationMs":4000,"midi":32,"velocity":1,"hand":"L"},{"time":132000,"durationMs":4000,"midi":44,"velocity":1,"hand":"L"},{"time":132000,"durationMs":331,"midi":61,"velocity":1,"hand":"R"},{"time":132333,"durationMs":331,"midi":67,"velocity":1,"hand":"R"},{"time":132667,"durationMs":331,"midi":64,"velocity":1,"hand":"R"},{"time":133000,"durationMs":331,"midi":70,"velocity":1,"hand":"R"},{"time":133333,"durationMs":331,"midi":67,"velocity":1,"hand":"R"},{"time":133667,"durationMs":331,"midi":73,"velocity":1,"hand":"R"},{"time":134000,"durationMs":331,"midi":70,"velocity":1,"hand":"R"},{"time":134333,"durationMs":331,"midi":76,"velocity":1,"hand":"R"},{"time":134667,"durationMs":331,"midi":73,"velocity":1,"hand":"R"},{"time":135000,"durationMs":331,"midi":79,"velocity":1,"hand":"R"},{"time":135333,"durationMs":331,"midi":76,"velocity":1,"hand":"R"},{"time":135667,"durationMs":331,"midi":82,"velocity":1,"hand":"R"},{"time":136000,"durationMs":12000,"midi":32,"velocity":1,"hand":"L"},{"time":136000,"durationMs":12000,"midi":44,"velocity":1,"hand":"L"},{"time":136000,"durationMs":331,"midi":66,"velocity":1,"hand":"R"},{"time":136333,"durationMs":331,"midi":72,"velocity":1,"hand":"R"},{"time":136667,"durationMs":331,"midi":69,"velocity":1,"hand":"R"},{"time":137000,"durationMs":331,"midi":75,"velocity":1,"hand":"R"},{"time":137333,"durationMs":331,"midi":72,"velocity":1,"hand":"R"},{"time":137667,"durationMs":331,"midi":78,"velocity":1,"hand":"R"},{"time":138000,"durationMs":331,"midi":75,"velocity":1,"hand":"R"},{"time":138333,"durationMs":331,"midi":81,"velocity":1,"hand":"R"},{"time":138667,"durationMs":331,"midi":78,"velocity":1,"hand":"R"},{"time":139000,"durationMs":331,"midi":84,"velocity":1,"hand":"R"},{"time":139333,"durationMs":331,"midi":81,"velocity":1,"hand":"R"},{"time":139667,"durationMs":331,"midi":87,"velocity":1,"hand":"R"},{"time":140000,"durationMs":331,"midi":84,"velocity":1,"hand":"R"},{"time":140333,"durationMs":331,"midi":78,"velocity":1,"hand":"R"},{"time":140667,"durationMs":331,"midi":81,"velocity":1,"hand":"R"},{"time":141000,"durationMs":331,"midi":75,"velocity":1,"hand":"R"},{"time":141333,"durationMs":331,"midi":78,"velocity":1,"hand":"R"},{"time":141667,"durationMs":331,"midi":72,"velocity":1,"hand":"R"},{"time":142000,"durationMs":331,"midi":75,"velocity":1,"hand":"R"},{"time":142333,"durationMs":331,"midi":69,"velocity":1,"hand":"R"},{"time":142667,"durationMs":331,"midi":72,"velocity":1,"hand":"R"},{"time":143000,"durationMs":331,"midi":66,"velocity":1,"hand":"R"},{"time":143333,"durationMs":331,"midi":69,"velocity":1,"hand":"R"},{"time":143667,"durationMs":331,"midi":63,"velocity":1,"hand":"R"},{"time":144000,"durationMs":331,"midi":66,"velocity":1,"hand":"R"},{"time":144333,"durationMs":331,"midi":60,"velocity":1,"hand":"R"},{"time":144667,"durationMs":331,"midi":63,"velocity":1,"hand":"R"},{"time":145000,"durationMs":331,"midi":57,"velocity":1,"hand":"R"},{"time":145333,"durationMs":331,"midi":60,"velocity":1,"hand":"R"},{"time":145667,"durationMs":331,"midi":54,"velocity":1,"hand":"R"},{"time":146000,"durationMs":331,"midi":57,"velocity":1,"hand":"R"},{"time":146333,"durationMs":664,"midi":51,"velocity":1,"hand":"R"},{"time":146667,"durationMs":331,"midi":54,"velocity":1,"hand":"R"},{"time":147000,"durationMs":1000,"midi":49,"velocity":1,"hand":"R"},{"time":147333,"durationMs":331,"midi":54,"velocity":1,"hand":"R"},{"time":147667,"durationMs":331,"midi":57,"velocity":1,"hand":"R"},{"time":148000,"durationMs":4000,"midi":32,"velocity":1,"hand":"L"},{"time":148000,"durationMs":4000,"midi":44,"velocity":1,"hand":"L"},{"time":148000,"durationMs":2000,"midi":48,"velocity":1,"hand":"R"},{"time":148333,"durationMs":331,"midi":54,"velocity":1,"hand":"R"},{"time":148667,"durationMs":331,"midi":56,"velocity":1,"hand":"R"},{"time":149000,"durationMs":331,"midi":57,"velocity":1,"hand":"R"},{"time":149333,"durationMs":331,"midi":56,"velocity":1,"hand":"R"},{"time":149667,"durationMs":331,"midi":54,"velocity":1,"hand":"R"},{"time":150000,"durationMs":1000,"midi":51,"velocity":1,"hand":"R"},{"time":150333,"durationMs":331,"midi":54,"velocity":1,"hand":"R"},{"time":150667,"durationMs":331,"midi":57,"velocity":1,"hand":"R"},{"time":151000,"durationMs":1000,"midi":49,"velocity":1,"hand":"R"},{"time":151333,"durationMs":331,"midi":54,"velocity":1,"hand":"R"},{"time":151667,"durationMs":331,"midi":57,"velocity":1,"hand":"R"},{"time":152000,"durationMs":4000,"midi":32,"velocity":1,"hand":"L"},{"time":152000,"durationMs":4000,"midi":44,"velocity":1,"hand":"L"},{"time":152000,"durationMs":2000,"midi":48,"velocity":1,"hand":"R"},{"time":152333,"durationMs":331,"midi":54,"velocity":1,"hand":"R"},{"time":152667,"durationMs":331,"midi":56,"velocity":1,"hand":"R"},{"time":153000,"durationMs":331,"midi":57,"velocity":1,"hand":"R"},{"time":153333,"durationMs":331,"midi":56,"velocity":1,"hand":"R"},{"time":153667,"durationMs":331,"midi":54,"velocity":1,"hand":"R"},{"time":154000,"durationMs":1000,"midi":50,"velocity":1,"hand":"R"},{"time":154333,"durationMs":331,"midi":54,"velocity":1,"hand":"R"},{"time":154667,"durationMs":331,"midi":57,"velocity":1,"hand":"R"},{"time":155000,"durationMs":1000,"midi":49,"velocity":1,"hand":"R"},{"time":155333,"durationMs":331,"midi":54,"velocity":1,"hand":"R"},{"time":155667,"durationMs":331,"midi":57,"velocity":1,"hand":"R"},{"time":156000,"durationMs":2000,"midi":32,"velocity":1,"hand":"L"},{"time":156000,"durationMs":2000,"midi":44,"velocity":1,"hand":"L"},{"time":156000,"durationMs":2000,"midi":48,"velocity":1,"hand":"R"},{"time":156333,"durationMs":331,"midi":54,"velocity":1,"hand":"R"},{"time":156667,"durationMs":331,"midi":56,"velocity":1,"hand":"R"},{"time":157000,"durationMs":331,"midi":57,"velocity":1,"hand":"R"},{"time":157333,"durationMs":331,"midi":56,"velocity":1,"hand":"R"},{"time":157667,"durationMs":331,"midi":54,"velocity":1,"hand":"R"},{"time":158000,"durationMs":2000,"midi":33,"velocity":1,"hand":"L"},{"time":158000,"durationMs":2000,"midi":45,"velocity":1,"hand":"L"},{"time":158000,"durationMs":331,"midi":49,"velocity":1,"hand":"R"},{"time":158333,"durationMs":331,"midi":52,"velocity":1,"hand":"R"},{"time":158667,"durationMs":331,"midi":61,"velocity":1,"hand":"R"},{"time":159000,"durationMs":331,"midi":49,"velocity":1,"hand":"R"},{"time":159333,"durationMs":331,"midi":52,"velocity":1,"hand":"R"},{"time":159667,"durationMs":331,"midi":61,"velocity":1,"hand":"R"},{"time":160000,"durationMs":2000,"midi":30,"velocity":1,"hand":"L"},{"time":160000,"durationMs":2000,"midi":42,"velocity":1,"hand":"L"},{"time":160000,"durationMs":331,"midi":51,"velocity":1,"hand":"R"},{"time":160333,"durationMs":331,"midi":57,"velocity":1,"hand":"R"},{"time":160667,"durationMs":331,"midi":61,"velocity":1,"hand":"R"},{"time":161000,"durationMs":331,"midi":51,"velocity":1,"hand":"R"},{"time":161333,"durationMs":331,"midi":57,"velocity":1,"hand":"R"},{"time":161667,"durationMs":331,"midi":61,"velocity":1,"hand":"R"},{"time":162000,"durationMs":2000,"midi":32,"velocity":1,"hand":"L"},{"time":162000,"durationMs":2000,"midi":44,"velocity":1,"hand":"L"},{"time":162000,"durationMs":331,"midi":51,"velocity":1,"hand":"R"},{"time":162333,"durationMs":331,"midi":56,"velocity":1,"hand":"R"},{"time":162667,"durationMs":331,"midi":60,"velocity":1,"hand":"R"},{"time":163000,"durationMs":331,"midi":51,"velocity":1,"hand":"R"},{"time":163333,"durationMs":331,"midi":54,"velocity":1,"hand":"R"},{"time":163667,"durationMs":331,"midi":60,"velocity":1,"hand":"R"},{"time":164000,"durationMs":4000,"midi":37,"velocity":1,"hand":"L"},{"time":164000,"durationMs":4000,"midi":44,"velocity":1,"hand":"L"},{"time":164000,"durationMs":4000,"midi":49,"velocity":1,"hand":"L"},{"time":164000,"durationMs":331,"midi":52,"velocity":1,"hand":"R"},{"time":164333,"durationMs":331,"midi":56,"velocity":1,"hand":"R"},{"time":164667,"durationMs":331,"midi":61,"velocity":1,"hand":"R"},{"time":165000,"durationMs":331,"midi":56,"velocity":1,"hand":"R"},{"time":165333,"durationMs":331,"midi":61,"velocity":1,"hand":"R"},{"time":165667,"durationMs":331,"midi":64,"velocity":1,"hand":"R"},{"time":166000,"durationMs":331,"midi":56,"velocity":1,"hand":"R"},{"time":166333,"durationMs":331,"midi":61,"velocity":1,"hand":"R"},{"time":166667,"durationMs":331,"midi":64,"velocity":1,"hand":"R"},{"time":167000,"durationMs":331,"midi":56,"velocity":1,"hand":"R"},{"time":167000,"durationMs":750,"midi":68,"velocity":1,"hand":"R"},{"time":167333,"durationMs":331,"midi":61,"velocity":1,"hand":"R"},{"time":167667,"durationMs":331,"midi":64,"velocity":1,"hand":"R"},{"time":167750,"durationMs":250,"midi":68,"velocity":1,"hand":"R"},{"time":168000,"durationMs":4000,"midi":36,"velocity":1,"hand":"L"},{"time":168000,"durationMs":4000,"midi":44,"velocity":1,"hand":"L"},{"time":168000,"durationMs":4000,"midi":48,"velocity":1,"hand":"L"},{"time":168000,"durationMs":331,"midi":56,"velocity":1,"hand":"R"},{"time":168000,"durationMs":3000,"midi":68,"velocity":1,"hand":"R"},{"time":168333,"durationMs":331,"midi":63,"velocity":1,"hand":"R"},{"time":168667,"durationMs":331,"midi":66,"velocity":1,"hand":"R"},{"time":169000,"durationMs":331,"midi":56,"velocity":1,"hand":"R"},{"time":169333,"durationMs":331,"midi":63,"velocity":1,"hand":"R"},{"time":169667,"durationMs":331,"midi":66,"velocity":1,"hand":"R"},{"time":170000,"durationMs":331,"midi":56,"velocity":1,"hand":"R"},{"time":170333,"durationMs":331,"midi":63,"velocity":1,"hand":"R"},{"time":170667,"durationMs":331,"midi":66,"velocity":1,"hand":"R"},{"time":171000,"durationMs":331,"midi":56,"velocity":1,"hand":"R"},{"time":171000,"durationMs":750,"midi":68,"velocity":1,"hand":"R"},{"time":171333,"durationMs":331,"midi":63,"velocity":1,"hand":"R"},{"time":171667,"durationMs":331,"midi":66,"velocity":1,"hand":"R"},{"time":171750,"durationMs":250,"midi":68,"velocity":1,"hand":"R"},{"time":172000,"durationMs":2000,"midi":37,"velocity":1,"hand":"L"},{"time":172000,"durationMs":2000,"midi":49,"velocity":1,"hand":"L"},{"time":172000,"durationMs":331,"midi":56,"velocity":1,"hand":"R"},{"time":172000,"durationMs":2000,"midi":68,"velocity":1,"hand":"R"},{"time":172333,"durationMs":331,"midi":61,"velocity":1,"hand":"R"},{"time":172667,"durationMs":331,"midi":64,"velocity":1,"hand":"R"},{"time":173000,"durationMs":331,"midi":56,"velocity":1,"hand":"R"},{"time":173333,"durationMs":331,"midi":61,"velocity":1,"hand":"R"},{"time":173667,"durationMs":331,"midi":64,"velocity":1,"hand":"R"},{"time":174000,"durationMs":2000,"midi":30,"velocity":1,"hand":"L"},{"time":174000,"durationMs":2000,"midi":42,"velocity":1,"hand":"L"},{"time":174000,"durationMs":331,"midi":57,"velocity":1,"hand":"R"},{"time":174000,"durationMs":2000,"midi":69,"velocity":1,"hand":"R"},{"time":174333,"durationMs":331,"midi":61,"velocity":1,"hand":"R"},{"time":174667,"durationMs":331,"midi":66,"velocity":1,"hand":"R"},{"time":175000,"durationMs":331,"midi":57,"velocity":1,"hand":"R"},{"time":175333,"durationMs":331,"midi":61,"velocity":1,"hand":"R"},{"time":175667,"durationMs":331,"midi":66,"velocity":1,"hand":"R"},{"time":176000,"durationMs":2000,"midi":35,"velocity":1,"hand":"L"},{"time":176000,"durationMs":2000,"midi":47,"velocity":1,"hand":"L"},{"time":176000,"durationMs":331,"midi":56,"velocity":1,"hand":"R"},{"time":176000,"durationMs":2000,"midi":68,"velocity":1,"hand":"R"},{"time":176333,"durationMs":331,"midi":59,"velocity":1,"hand":"R"},{"time":176667,"durationMs":331,"midi":64,"velocity":1,"hand":"R"},{"time":177000,"durationMs":331,"midi":56,"velocity":1,"hand":"R"},{"time":177333,"durationMs":331,"midi":59,"velocity":1,"hand":"R"},{"time":177667,"durationMs":331,"midi":64,"velocity":1,"hand":"R"},{"time":178000,"durationMs":2000,"midi":35,"velocity":1,"hand":"L"},{"time":178000,"durationMs":2000,"midi":47,"velocity":1,"hand":"L"},{"time":178000,"durationMs":331,"midi":57,"velocity":1,"hand":"R"},{"time":178000,"durationMs":1000,"midi":66,"velocity":1,"hand":"R"},{"time":178333,"durationMs":331,"midi":59,"velocity":1,"hand":"R"},{"time":178667,"durationMs":331,"midi":63,"velocity":1,"hand":"R"},{"time":179000,"durationMs":331,"midi":57,"velocity":1,"hand":"R"},{"time":179000,"durationMs":1000,"midi":71,"velocity":1,"hand":"R"},{"time":179333,"durationMs":331,"midi":59,"velocity":1,"hand":"R"},{"time":179667,"durationMs":331,"midi":63,"velocity":1,"hand":"R"},{"time":180000,"durationMs":4000,"midi":40,"velocity":1,"hand":"L"},{"time":180000,"durationMs":4000,"midi":52,"velocity":1,"hand":"L"},{"time":180000,"durationMs":331,"midi":56,"velocity":1,"hand":"R"},{"time":180000,"durationMs":1000,"midi":64,"velocity":1,"hand":"R"},{"time":180333,"durationMs":331,"midi":59,"velocity":1,"hand":"R"},{"time":181000,"durationMs":331,"midi":59,"velocity":1,"hand":"R"},{"time":181333,"durationMs":331,"midi":64,"velocity":1,"hand":"R"},{"time":181667,"durationMs":331,"midi":68,"velocity":1,"hand":"R"},{"time":182000,"durationMs":331,"midi":59,"velocity":1,"hand":"R"},{"time":182333,"durationMs":331,"midi":64,"velocity":1,"hand":"R"},{"time":182667,"durationMs":331,"midi":68,"velocity":1,"hand":"R"},{"time":183000,"durationMs":331,"midi":59,"velocity":1,"hand":"R"},{"time":183000,"durationMs":750,"midi":71,"velocity":1,"hand":"R"},{"time":183333,"durationMs":331,"midi":64,"velocity":1,"hand":"R"},{"time":183667,"durationMs":331,"midi":68,"velocity":1,"hand":"R"},{"time":183750,"durationMs":250,"midi":71,"velocity":1,"hand":"R"},{"time":184000,"durationMs":4000,"midi":39,"velocity":1,"hand":"L"},{"time":184000,"durationMs":4000,"midi":51,"velocity":1,"hand":"L"},{"time":184000,"durationMs":331,"midi":59,"velocity":1,"hand":"R"},{"time":184000,"durationMs":3000,"midi":71,"velocity":1,"hand":"R"},{"time":184333,"durationMs":331,"midi":66,"velocity":1,"hand":"R"},{"time":184667,"durationMs":331,"midi":69,"velocity":1,"hand":"R"},{"time":185000,"durationMs":331,"midi":59,"velocity":1,"hand":"R"},{"time":185333,"durationMs":331,"midi":66,"velocity":1,"hand":"R"},{"time":185667,"durationMs":331,"midi":69,"velocity":1,"hand":"R"},{"time":186000,"durationMs":331,"midi":59,"velocity":1,"hand":"R"},{"time":186333,"durationMs":331,"midi":66,"velocity":1,"hand":"R"},{"time":186667,"durationMs":331,"midi":69,"velocity":1,"hand":"R"},{"time":187000,"durationMs":331,"midi":59,"velocity":1,"hand":"R"},{"time":187000,"durationMs":750,"midi":71,"velocity":1,"hand":"R"},{"time":187333,"durationMs":331,"midi":66,"velocity":1,"hand":"R"},{"time":187667,"durationMs":331,"midi":69,"velocity":1,"hand":"R"},{"time":187750,"durationMs":250,"midi":71,"velocity":1,"hand":"R"},{"time":188000,"durationMs":2000,"midi":40,"velocity":1,"hand":"L"},{"time":188000,"durationMs":2000,"midi":52,"velocity":1,"hand":"L"},{"time":188000,"durationMs":331,"midi":59,"velocity":1,"hand":"R"},{"time":188000,"durationMs":2000,"midi":71,"velocity":1,"hand":"R"},{"time":188333,"durationMs":331,"midi":64,"velocity":1,"hand":"R"},{"time":188667,"durationMs":331,"midi":68,"velocity":1,"hand":"R"},{"time":189000,"durationMs":331,"midi":59,"velocity":1,"hand":"R"},{"time":189333,"durationMs":331,"midi":64,"velocity":1,"hand":"R"},{"time":189667,"durationMs":331,"midi":68,"velocity":1,"hand":"R"},{"time":190000,"durationMs":1000,"midi":39,"velocity":1,"hand":"L"},{"time":190000,"durationMs":1000,"midi":51,"velocity":1,"hand":"L"},{"time":190000,"durationMs":331,"midi":60,"velocity":1,"hand":"R"},{"time":190000,"durationMs":1000,"midi":72,"velocity":1,"hand":"R"},{"time":190333,"durationMs":331,"midi":66,"velocity":1,"hand":"R"},{"time":190667,"durationMs":331,"midi":68,"velocity":1,"hand":"R"},{"time":191000,"durationMs":1000,"midi":37,"velocity":1,"hand":"L"},{"time":191000,"durationMs":1000,"midi":49,"velocity":1,"hand":"L"},{"time":191000,"durationMs":331,"midi":61,"velocity":1,"hand":"R"},{"time":191000,"durationMs":1000,"midi":73,"velocity":1,"hand":"R"},{"time":191333,"durationMs":331,"midi":64,"velocity":1,"hand":"R"},{"time":191667,"durationMs":331,"midi":68,"velocity":1,"hand":"R"},{"time":192000,"durationMs":2000,"midi":36,"velocity":1,"hand":"L"},{"time":192000,"durationMs":2000,"midi":44,"velocity":1,"hand":"L"},{"time":192000,"durationMs":2000,"midi":48,"velocity":1,"hand":"L"},{"time":192000,"durationMs":331,"midi":63,"velocity":1,"hand":"R"},{"time":192000,"durationMs":2000,"midi":75,"velocity":1,"hand":"R"},{"time":192333,"durationMs":331,"midi":66,"velocity":1,"hand":"R"},{"time":192667,"durationMs":331,"midi":68,"velocity":1,"hand":"R"},{"time":193000,"durationMs":331,"midi":63,"velocity":1,"hand":"R"},{"time":193333,"durationMs":331,"midi":66,"velocity":1,"hand":"R"},{"time":193667,"durationMs":331,"midi":68,"velocity":1,"hand":"R"},{"time":194000,"durationMs":2000,"midi":37,"velocity":1,"hand":"L"},{"time":194000,"durationMs":2000,"midi":44,"velocity":1,"hand":"L"},{"time":194000,"durationMs":2000,"midi":49,"velocity":1,"hand":"L"},{"time":194000,"durationMs":331,"midi":64,"velocity":1,"hand":"R"},{"time":194000,"durationMs":2000,"midi":76,"velocity":1,"hand":"R"},{"time":194333,"durationMs":331,"midi":68,"velocity":1,"hand":"R"},{"time":194667,"durationMs":331,"midi":73,"velocity":1,"hand":"R"},{"time":195000,"durationMs":331,"midi":64,"velocity":1,"hand":"R"},{"time":195333,"durationMs":331,"midi":68,"velocity":1,"hand":"R"},{"time":195667,"durationMs":331,"midi":73,"velocity":1,"hand":"R"},{"time":196000,"durationMs":2000,"midi":30,"velocity":1,"hand":"L"},{"time":196000,"durationMs":2000,"midi":42,"velocity":1,"hand":"L"},{"time":196000,"durationMs":331,"midi":62,"velocity":1,"hand":"R"},{"time":196000,"durationMs":2000,"midi":74,"velocity":1,"hand":"R"},{"time":196333,"durationMs":331,"midi":66,"velocity":1,"hand":"R"},{"time":196667,"durationMs":331,"midi":69,"velocity":1,"hand":"R"},{"time":197000,"durationMs":331,"midi":62,"velocity":1,"hand":"R"},{"time":197333,"durationMs":331,"midi":66,"velocity":1,"hand":"R"},{"time":197667,"durationMs":331,"midi":69,"velocity":1,"hand":"R"},{"time":198000,"durationMs":2000,"midi":32,"velocity":1,"hand":"L"},{"time":198000,"durationMs":2000,"midi":44,"velocity":1,"hand":"L"},{"time":198000,"durationMs":331,"midi":60,"velocity":1,"hand":"R"},{"time":198000,"durationMs":2000,"midi":72,"velocity":1,"hand":"R"},{"time":198333,"durationMs":331,"midi":66,"velocity":1,"hand":"R"},{"time":198667,"durationMs":331,"midi":68,"velocity":1,"hand":"R"},{"time":199000,"durationMs":331,"midi":60,"velocity":1,"hand":"R"},{"time":199333,"durationMs":331,"midi":66,"velocity":1,"hand":"R"},{"time":199667,"durationMs":331,"midi":68,"velocity":1,"hand":"R"},{"time":200000,"durationMs":5000,"midi":37,"velocity":1,"hand":"L"},{"time":200000,"durationMs":5000,"midi":49,"velocity":1,"hand":"L"},{"time":200000,"durationMs":331,"midi":61,"velocity":1,"hand":"R"},{"time":200000,"durationMs":3000,"midi":73,"velocity":1,"hand":"R"},{"time":200333,"durationMs":331,"midi":64,"velocity":1,"hand":"R"},{"time":200667,"durationMs":331,"midi":68,"velocity":1,"hand":"R"},{"time":201000,"durationMs":331,"midi":61,"velocity":1,"hand":"R"},{"time":201333,"durationMs":331,"midi":64,"velocity":1,"hand":"R"},{"time":201667,"durationMs":331,"midi":68,"velocity":1,"hand":"R"},{"time":202000,"durationMs":331,"midi":61,"velocity":1,"hand":"R"},{"time":202333,"durationMs":331,"midi":65,"velocity":1,"hand":"R"},{"time":202667,"durationMs":331,"midi":68,"velocity":1,"hand":"R"},{"time":203000,"durationMs":331,"midi":61,"velocity":1,"hand":"R"},{"time":203000,"durationMs":1000,"midi":73,"velocity":1,"hand":"R"},{"time":203333,"durationMs":331,"midi":65,"velocity":1,"hand":"R"},{"time":203667,"durationMs":331,"midi":68,"velocity":1,"hand":"R"},{"time":204000,"durationMs":331,"midi":61,"velocity":1,"hand":"R"},{"time":204000,"durationMs":3000,"midi":74,"velocity":1,"hand":"R"},{"time":204333,"durationMs":331,"midi":66,"velocity":1,"hand":"R"},{"time":204667,"durationMs":331,"midi":69,"velocity":1,"hand":"R"},{"time":205000,"durationMs":1000,"midi":42,"velocity":1,"hand":"L"},{"time":205000,"durationMs":1000,"midi":54,"velocity":1,"hand":"L"},{"time":205000,"durationMs":331,"midi":61,"velocity":1,"hand":"R"},{"time":205333,"durationMs":331,"midi":66,"velocity":1,"hand":"R"},{"time":205667,"durationMs":331,"midi":69,"velocity":1,"hand":"R"},{"time":206000,"durationMs":1000,"midi":45,"velocity":1,"hand":"L"},{"time":206000,"durationMs":1000,"midi":57,"velocity":1,"hand":"L"},{"time":206000,"durationMs":331,"midi":61,"velocity":1,"hand":"R"},{"time":206333,"durationMs":331,"midi":66,"velocity":1,"hand":"R"},{"time":206667,"durationMs":331,"midi":69,"velocity":1,"hand":"R"},{"time":207000,"durationMs":1000,"midi":42,"velocity":1,"hand":"L"},{"time":207000,"durationMs":1000,"midi":54,"velocity":1,"hand":"L"},{"time":207000,"durationMs":331,"midi":61,"velocity":1,"hand":"R"},{"time":207000,"durationMs":1000,"midi":72,"velocity":1,"hand":"R"},{"time":207333,"durationMs":331,"midi":66,"velocity":1,"hand":"R"},{"time":207667,"durationMs":331,"midi":69,"velocity":1,"hand":"R"},{"time":208000,"durationMs":5000,"midi":37,"velocity":1,"hand":"L"},{"time":208000,"durationMs":5000,"midi":49,"velocity":1,"hand":"L"},{"time":208000,"durationMs":331,"midi":61,"velocity":1,"hand":"R"},{"time":208000,"durationMs":3000,"midi":73,"velocity":1,"hand":"R"},{"time":208333,"durationMs":331,"midi":65,"velocity":1,"hand":"R"},{"time":208667,"durationMs":331,"midi":68,"velocity":1,"hand":"R"},{"time":209000,"durationMs":331,"midi":61,"velocity":1,"hand":"R"},{"time":209333,"durationMs":331,"midi":65,"velocity":1,"hand":"R"},{"time":209667,"durationMs":331,"midi":68,"velocity":1,"hand":"R"},{"time":210000,"durationMs":331,"midi":61,"velocity":1,"hand":"R"},{"time":210333,"durationMs":331,"midi":65,"velocity":1,"hand":"R"},{"time":210667,"durationMs":331,"midi":68,"velocity":1,"hand":"R"},{"time":211000,"durationMs":331,"midi":61,"velocity":1,"hand":"R"},{"time":211000,"durationMs":1000,"midi":73,"velocity":1,"hand":"R"},{"time":211333,"durationMs":331,"midi":65,"velocity":1,"hand":"R"},{"time":211667,"durationMs":331,"midi":68,"velocity":1,"hand":"R"},{"time":212000,"durationMs":331,"midi":61,"velocity":1,"hand":"R"},{"time":212000,"durationMs":3000,"midi":74,"velocity":1,"hand":"R"},{"time":212333,"durationMs":331,"midi":66,"velocity":1,"hand":"R"},{"time":212667,"durationMs":331,"midi":69,"velocity":1,"hand":"R"},{"time":213000,"durationMs":1000,"midi":42,"velocity":1,"hand":"L"},{"time":213000,"durationMs":1000,"midi":54,"velocity":1,"hand":"L"},{"time":213000,"durationMs":331,"midi":61,"velocity":1,"hand":"R"},{"time":213333,"durationMs":331,"midi":66,"velocity":1,"hand":"R"},{"time":213667,"durationMs":331,"midi":69,"velocity":1,"hand":"R"},{"time":214000,"durationMs":1000,"midi":45,"velocity":1,"hand":"L"},{"time":214000,"durationMs":1000,"midi":57,"velocity":1,"hand":"L"},{"time":214000,"durationMs":331,"midi":61,"velocity":1,"hand":"R"},{"time":214333,"durationMs":331,"midi":66,"velocity":1,"hand":"R"},{"time":214667,"durationMs":331,"midi":69,"velocity":1,"hand":"R"},{"time":215000,"durationMs":1000,"midi":42,"velocity":1,"hand":"L"},{"time":215000,"durationMs":1000,"midi":54,"velocity":1,"hand":"L"},{"time":215000,"durationMs":331,"midi":61,"velocity":1,"hand":"R"},{"time":215000,"durationMs":1000,"midi":72,"velocity":1,"hand":"R"},{"time":215333,"durationMs":331,"midi":66,"velocity":1,"hand":"R"},{"time":215667,"durationMs":331,"midi":69,"velocity":1,"hand":"R"},{"time":216000,"durationMs":2000,"midi":37,"velocity":1,"hand":"L"},{"time":216000,"durationMs":2000,"midi":49,"velocity":1,"hand":"L"},{"time":216000,"durationMs":331,"midi":61,"velocity":1,"hand":"R"},{"time":216000,"durationMs":2000,"midi":73,"velocity":1,"hand":"R"},{"time":216333,"durationMs":331,"midi":65,"velocity":1,"hand":"R"},{"time":216667,"durationMs":331,"midi":68,"velocity":1,"hand":"R"},{"time":217000,"durationMs":331,"midi":61,"velocity":1,"hand":"R"},{"time":217333,"durationMs":331,"midi":65,"velocity":1,"hand":"R"},{"time":217667,"durationMs":331,"midi":68,"velocity":1,"hand":"R"},{"time":218000,"durationMs":2000,"midi":30,"velocity":1,"hand":"L"},{"time":218000,"durationMs":2000,"midi":42,"velocity":1,"hand":"L"},{"time":218000,"durationMs":331,"midi":61,"velocity":1,"hand":"R"},{"time":218000,"durationMs":2000,"midi":73,"velocity":1,"hand":"R"},{"time":218333,"durationMs":331,"midi":66,"velocity":1,"hand":"R"},{"time":218667,"durationMs":331,"midi":69,"velocity":1,"hand":"R"},{"time":219000,"durationMs":331,"midi":61,"velocity":1,"hand":"R"},{"time":219333,"durationMs":331,"midi":66,"velocity":1,"hand":"R"},{"time":219667,"durationMs":331,"midi":69,"velocity":1,"hand":"R"},{"time":220000,"durationMs":3000,"midi":39,"velocity":1,"hand":"L"},{"time":220000,"durationMs":3000,"midi":51,"velocity":1,"hand":"L"},{"time":220000,"durationMs":331,"midi":59,"velocity":1,"hand":"R"},{"time":220000,"durationMs":3000,"midi":71,"velocity":1,"hand":"R"},{"time":220333,"durationMs":331,"midi":66,"velocity":1,"hand":"R"},{"time":220667,"durationMs":331,"midi":69,"velocity":1,"hand":"R"},{"time":221000,"durationMs":331,"midi":59,"velocity":1,"hand":"R"},{"time":221333,"durationMs":331,"midi":66,"velocity":1,"hand":"R"},{"time":221667,"durationMs":331,"midi":69,"velocity":1,"hand":"R"},{"time":222000,"durationMs":331,"midi":59,"velocity":1,"hand":"R"},{"time":222333,"durationMs":331,"midi":66,"velocity":1,"hand":"R"},{"time":222667,"durationMs":331,"midi":69,"velocity":1,"hand":"R"},{"time":223000,"durationMs":1000,"midi":40,"velocity":1,"hand":"L"},{"time":223000,"durationMs":1000,"midi":52,"velocity":1,"hand":"L"},{"time":223000,"durationMs":331,"midi":59,"velocity":1,"hand":"R"},{"time":223000,"durationMs":1000,"midi":71,"velocity":1,"hand":"R"},{"time":223333,"durationMs":331,"midi":64,"velocity":1,"hand":"R"},{"time":223667,"durationMs":331,"midi":68,"velocity":1,"hand":"R"},{"time":224000,"durationMs":1000,"midi":37,"velocity":1,"hand":"L"},{"time":224000,"durationMs":1000,"midi":49,"velocity":1,"hand":"L"},{"time":224000,"durationMs":331,"midi":57,"velocity":1,"hand":"R"},{"time":224000,"durationMs":1000,"midi":69,"velocity":1,"hand":"R"},{"time":224333,"durationMs":331,"midi":64,"velocity":1,"hand":"R"},{"time":224667,"durationMs":331,"midi":68,"velocity":1,"hand":"R"},{"time":225000,"durationMs":1000,"midi":39,"velocity":1,"hand":"L"},{"time":225000,"durationMs":1000,"midi":51,"velocity":1,"hand":"L"},{"time":225000,"durationMs":331,"midi":57,"velocity":1,"hand":"R"},{"time":225000,"durationMs":1000,"midi":69,"velocity":1,"hand":"R"},{"time":225333,"durationMs":331,"midi":63,"velocity":1,"hand":"R"},{"time":225667,"durationMs":331,"midi":66,"velocity":1,"hand":"R"},{"time":226000,"durationMs":1000,"midi":36,"velocity":1,"hand":"L"},{"time":226000,"durationMs":1000,"midi":48,"velocity":1,"hand":"L"},{"time":226000,"durationMs":331,"midi":56,"velocity":1,"hand":"R"},{"time":226000,"durationMs":1000,"midi":68,"velocity":1,"hand":"R"},{"time":226333,"durationMs":331,"midi":63,"velocity":1,"hand":"R"},{"time":226667,"durationMs":331,"midi":66,"velocity":1,"hand":"R"},{"time":227000,"durationMs":1000,"midi":37,"velocity":1,"hand":"L"},{"time":227000,"durationMs":1000,"midi":49,"velocity":1,"hand":"L"},{"time":227000,"durationMs":331,"midi":56,"velocity":1,"hand":"R"},{"time":227000,"durationMs":1000,"midi":68,"velocity":1,"hand":"R"},{"time":227333,"durationMs":331,"midi":61,"velocity":1,"hand":"R"},{"time":227667,"durationMs":331,"midi":64,"velocity":1,"hand":"R"},{"time":228000,"durationMs":2000,"midi":33,"velocity":1,"hand":"L"},{"time":228000,"durationMs":2000,"midi":45,"velocity":1,"hand":"L"},{"time":228000,"durationMs":331,"midi":54,"velocity":1,"hand":"L"},{"time":228000,"durationMs":2000,"midi":66,"velocity":1,"hand":"R"},{"time":228333,"durationMs":331,"midi":61,"velocity":1,"hand":"L"},{"time":228667,"durationMs":331,"midi":63,"velocity":1,"hand":"L"},{"time":229000,"durationMs":331,"midi":54,"velocity":1,"hand":"L"},{"time":229333,"durationMs":331,"midi":61,"velocity":1,"hand":"L"},{"time":229667,"durationMs":331,"midi":63,"velocity":1,"hand":"L"},{"time":230000,"durationMs":1000,"midi":32,"velocity":1,"hand":"L"},{"time":230000,"durationMs":1000,"midi":44,"velocity":1,"hand":"L"},{"time":230000,"durationMs":331,"midi":56,"velocity":1,"hand":"L"},{"time":230000,"durationMs":1000,"midi":68,"velocity":1,"hand":"R"},{"time":230333,"durationMs":331,"midi":61,"velocity":1,"hand":"L"},{"time":230667,"durationMs":331,"midi":63,"velocity":1,"hand":"L"},{"time":231000,"durationMs":1000,"midi":30,"velocity":1,"hand":"L"},{"time":231000,"durationMs":1000,"midi":42,"velocity":1,"hand":"L"},{"time":231000,"durationMs":331,"midi":57,"velocity":1,"hand":"L"},{"time":231000,"durationMs":1000,"midi":69,"velocity":1,"hand":"R"},{"time":231333,"durationMs":331,"midi":61,"velocity":1,"hand":"L"},{"time":231667,"durationMs":331,"midi":63,"velocity":1,"hand":"L"},{"time":232000,"durationMs":2000,"midi":32,"velocity":1,"hand":"L"},{"time":232000,"durationMs":2000,"midi":44,"velocity":1,"hand":"L"},{"time":232000,"durationMs":331,"midi":56,"velocity":1,"hand":"L"},{"time":232000,"durationMs":2000,"midi":68,"velocity":1,"hand":"R"},{"time":232333,"durationMs":331,"midi":61,"velocity":1,"hand":"L"},{"time":232667,"durationMs":331,"midi":64,"velocity":1,"hand":"L"},{"time":233000,"durationMs":331,"midi":56,"velocity":1,"hand":"L"},{"time":233333,"durationMs":331,"midi":61,"velocity":1,"hand":"L"},{"time":233667,"durationMs":331,"midi":64,"velocity":1,"hand":"L"},{"time":234000,"durationMs":2000,"midi":32,"velocity":1,"hand":"L"},{"time":234000,"durationMs":2000,"midi":44,"velocity":1,"hand":"L"},{"time":234000,"durationMs":331,"midi":54,"velocity":1,"hand":"L"},{"time":234000,"durationMs":2000,"midi":68,"velocity":1,"hand":"R"},{"time":234333,"durationMs":331,"midi":60,"velocity":1,"hand":"L"},{"time":234667,"durationMs":331,"midi":63,"velocity":1,"hand":"L"},{"time":235000,"durationMs":331,"midi":54,"velocity":1,"hand":"L"},{"time":235333,"durationMs":331,"midi":60,"velocity":1,"hand":"L"},{"time":235667,"durationMs":331,"midi":63,"velocity":1,"hand":"L"},{"time":236000,"durationMs":4000,"midi":37,"velocity":1,"hand":"L"},{"time":236000,"durationMs":3000,"midi":44,"velocity":1,"hand":"L"},{"time":236000,"durationMs":331,"midi":52,"velocity":1,"hand":"L"},{"time":236000,"durationMs":1000,"midi":61,"velocity":1,"hand":"R"},{"time":236333,"durationMs":331,"midi":56,"velocity":1,"hand":"L"},{"time":236667,"durationMs":331,"midi":61,"velocity":1,"hand":"L"},{"time":237000,"durationMs":331,"midi":56,"velocity":1,"hand":"R"},{"time":237333,"durationMs":331,"midi":61,"velocity":1,"hand":"R"},{"time":237667,"durationMs":331,"midi":64,"velocity":1,"hand":"R"},{"time":238000,"durationMs":331,"midi":56,"velocity":1,"hand":"R"},{"time":238333,"durationMs":331,"midi":61,"velocity":1,"hand":"R"},{"time":238667,"durationMs":331,"midi":64,"velocity":1,"hand":"R"},{"time":239000,"durationMs":750,"midi":44,"velocity":1,"hand":"L"},{"time":239000,"durationMs":331,"midi":56,"velocity":1,"hand":"R"},{"time":239333,"durationMs":331,"midi":61,"velocity":1,"hand":"R"},{"time":239667,"durationMs":331,"midi":64,"velocity":1,"hand":"R"},{"time":239750,"durationMs":250,"midi":44,"velocity":1,"hand":"L"},{"time":240000,"durationMs":4000,"midi":36,"velocity":1,"hand":"L"},{"time":240000,"durationMs":3000,"midi":44,"velocity":1,"hand":"L"},{"time":240000,"durationMs":331,"midi":56,"velocity":1,"hand":"R"},{"time":240333,"durationMs":331,"midi":63,"velocity":1,"hand":"R"},{"time":240667,"durationMs":331,"midi":66,"velocity":1,"hand":"R"},{"time":241000,"durationMs":331,"midi":56,"velocity":1,"hand":"R"},{"time":241333,"durationMs":331,"midi":63,"velocity":1,"hand":"R"},{"time":241667,"durationMs":331,"midi":66,"velocity":1,"hand":"R"},{"time":242000,"durationMs":331,"midi":56,"velocity":1,"hand":"R"},{"time":242333,"durationMs":331,"midi":63,"velocity":1,"hand":"R"},{"time":242667,"durationMs":331,"midi":66,"velocity":1,"hand":"R"},{"time":243000,"durationMs":750,"midi":44,"velocity":1,"hand":"L"},{"time":243000,"durationMs":331,"midi":56,"velocity":1,"hand":"R"},{"time":243333,"durationMs":331,"midi":63,"velocity":1,"hand":"R"},{"time":243667,"durationMs":331,"midi":66,"velocity":1,"hand":"R"},{"time":243750,"durationMs":250,"midi":44,"velocity":1,"hand":"L"},{"time":244000,"durationMs":4000,"midi":37,"velocity":1,"hand":"L"},{"time":244000,"durationMs":3000,"midi":44,"velocity":1,"hand":"L"},{"time":244000,"durationMs":331,"midi":56,"velocity":1,"hand":"R"},{"time":244333,"durationMs":331,"midi":64,"velocity":1,"hand":"R"},{"time":244667,"durationMs":331,"midi":61,"velocity":1,"hand":"R"},{"time":245000,"durationMs":331,"midi":68,"velocity":1,"hand":"R"},{"time":245333,"durationMs":331,"midi":64,"velocity":1,"hand":"R"},{"time":245667,"durationMs":331,"midi":73,"velocity":1,"hand":"R"},{"time":246000,"durationMs":331,"midi":68,"velocity":1,"hand":"R"},{"time":246333,"durationMs":331,"midi":76,"velocity":1,"hand":"R"},{"time":246667,"durationMs":331,"midi":73,"velocity":1,"hand":"R"},{"time":247000,"durationMs":750,"midi":44,"velocity":1,"hand":"L"},{"time":247000,"durationMs":331,"midi":80,"velocity":1,"hand":"R"},{"time":247333,"durationMs":331,"midi":76,"velocity":1,"hand":"R"},{"time":247667,"durationMs":331,"midi":73,"velocity":1,"hand":"R"},{"time":247750,"durationMs":250,"midi":44,"velocity":1,"hand":"L"},{"time":248000,"durationMs":4000,"midi":32,"velocity":1,"hand":"L"},{"time":248000,"durationMs":3000,"midi":44,"velocity":1,"hand":"L"},{"time":248000,"durationMs":331,"midi":72,"velocity":1,"hand":"R"},{"time":248333,"durationMs":331,"midi":75,"velocity":1,"hand":"R"},{"time":248667,"durationMs":331,"midi":69,"velocity":1,"hand":"R"},{"time":249000,"durationMs":331,"midi":72,"velocity":1,"hand":"R"},{"time":249333,"durationMs":331,"midi":66,"velocity":1,"hand":"R"},{"time":249667,"durationMs":331,"midi":69,"velocity":1,"hand":"R"},{"time":250000,"durationMs":331,"midi":63,"velocity":1,"hand":"R"},{"time":250333,"durationMs":331,"midi":66,"velocity":1,"hand":"R"},{"time":250667,"durationMs":664,"midi":57,"velocity":1,"hand":"R"},{"time":251000,"durationMs":750,"midi":44,"velocity":1,"hand":"L"},{"time":251000,"durationMs":1000,"midi":60,"velocity":1,"hand":"R"},{"time":251333,"durationMs":331,"midi":56,"velocity":1,"hand":"R"},{"time":251667,"durationMs":331,"midi":54,"velocity":1,"hand":"R"},{"time":251750,"durationMs":250,"midi":44,"velocity":1,"hand":"L"},{"time":252000,"durationMs":4000,"midi":37,"velocity":1,"hand":"L"},{"time":252000,"durationMs":3000,"midi":44,"velocity":1,"hand":"L"},{"time":252000,"durationMs":331,"midi":52,"velocity":1,"hand":"R"},{"time":252000,"durationMs":331,"midi":61,"velocity":1,"hand":"R"},{"time":252333,"durationMs":331,"midi":64,"velocity":1,"hand":"R"},{"time":252667,"durationMs":331,"midi":61,"velocity":1,"hand":"R"},{"time":253000,"durationMs":331,"midi":68,"velocity":1,"hand":"R"},{"time":253333,"durationMs":331,"midi":64,"velocity":1,"hand":"R"},{"time":253667,"durationMs":331,"midi":73,"velocity":1,"hand":"R"},{"time":254000,"durationMs":331,"midi":68,"velocity":1,"hand":"R"},{"time":254333,"durationMs":331,"midi":76,"velocity":1,"hand":"R"},{"time":254667,"durationMs":331,"midi":73,"velocity":1,"hand":"R"},{"time":255000,"durationMs":750,"midi":44,"velocity":1,"hand":"L"},{"time":255000,"durationMs":331,"midi":80,"velocity":1,"hand":"R"},{"time":255333,"durationMs":331,"midi":76,"velocity":1,"hand":"R"},{"time":255667,"durationMs":331,"midi":73,"velocity":1,"hand":"R"},{"time":255750,"durationMs":250,"midi":44,"velocity":1,"hand":"L"},{"time":256000,"durationMs":4000,"midi":32,"velocity":1,"hand":"L"},{"time":256000,"durationMs":3000,"midi":44,"velocity":1,"hand":"L"},{"time":256000,"durationMs":331,"midi":72,"velocity":1,"hand":"R"},{"time":256333,"durationMs":331,"midi":75,"velocity":1,"hand":"R"},{"time":256667,"durationMs":331,"midi":69,"velocity":1,"hand":"R"},{"time":257000,"durationMs":331,"midi":72,"velocity":1,"hand":"R"},{"time":257333,"durationMs":331,"midi":66,"velocity":1,"hand":"R"},{"time":257667,"durationMs":331,"midi":69,"velocity":1,"hand":"R"},{"time":258000,"durationMs":331,"midi":63,"velocity":1,"hand":"R"},{"time":258333,"durationMs":331,"midi":66,"velocity":1,"hand":"R"},{"time":258667,"durationMs":664,"midi":57,"velocity":1,"hand":"R"},{"time":259000,"durationMs":750,"midi":44,"velocity":1,"hand":"L"},{"time":259000,"durationMs":1000,"midi":60,"velocity":1,"hand":"R"},{"time":259333,"durationMs":331,"midi":56,"velocity":1,"hand":"R"},{"time":259667,"durationMs":331,"midi":54,"velocity":1,"hand":"R"},{"time":259750,"durationMs":250,"midi":44,"velocity":1,"hand":"L"},{"time":260000,"durationMs":8000,"midi":37,"velocity":1,"hand":"L"},{"time":260000,"durationMs":2000,"midi":44,"velocity":1,"hand":"L"},{"time":260000,"durationMs":331,"midi":52,"velocity":1,"hand":"R"},{"time":260000,"durationMs":331,"midi":61,"velocity":1,"hand":"R"},{"time":260333,"durationMs":331,"midi":56,"velocity":1,"hand":"R"},{"time":260667,"durationMs":331,"midi":61,"velocity":1,"hand":"R"},{"time":261000,"durationMs":331,"midi":64,"velocity":1,"hand":"R"},{"time":261333,"durationMs":331,"midi":61,"velocity":1,"hand":"R"},{"time":261667,"durationMs":331,"midi":56,"velocity":1,"hand":"R"},{"time":262000,"durationMs":2000,"midi":49,"velocity":1,"hand":"L"},{"time":262333,"durationMs":331,"midi":52,"velocity":1,"hand":"R"},{"time":262667,"durationMs":331,"midi":56,"velocity":1,"hand":"R"},{"time":263000,"durationMs":331,"midi":61,"velocity":1,"hand":"R"},{"time":263333,"durationMs":331,"midi":56,"velocity":1,"hand":"R"},{"time":263667,"durationMs":331,"midi":52,"velocity":1,"hand":"R"},{"time":264000,"durationMs":2000,"midi":44,"velocity":1,"hand":"L"},{"time":264333,"durationMs":331,"midi":49,"velocity":1,"hand":"R"},{"time":264667,"durationMs":331,"midi":52,"velocity":1,"hand":"R"},{"time":265000,"durationMs":331,"midi":56,"velocity":1,"hand":"R"},{"time":265333,"durationMs":331,"midi":52,"velocity":1,"hand":"R"},{"time":265667,"durationMs":331,"midi":49,"velocity":1,"hand":"R"},{"time":266000,"durationMs":331,"midi":44,"velocity":1,"hand":"L"},{"time":266333,"durationMs":331,"midi":49,"velocity":1,"hand":"L"},{"time":266667,"durationMs":331,"midi":44,"velocity":1,"hand":"L"},{"time":267000,"durationMs":331,"midi":40,"velocity":1,"hand":"L"},{"time":267333,"durationMs":331,"midi":44,"velocity":1,"hand":"L"},{"time":267667,"durationMs":331,"midi":40,"velocity":1,"hand":"L"},{"time":268000,"durationMs":2000,"midi":37,"velocity":1,"hand":"L"},{"time":270000,"durationMs":2000,"midi":37,"velocity":1,"hand":"L"},{"time":270000,"durationMs":2000,"midi":44,"velocity":1,"hand":"L"},{"time":270000,"durationMs":2000,"midi":49,"velocity":1,"hand":"L"},{"time":270000,"durationMs":2000,"midi":52,"velocity":1,"hand":"R"},{"time":270000,"durationMs":2000,"midi":56,"velocity":1,"hand":"R"},{"time":270000,"durationMs":2000,"midi":61,"velocity":1,"hand":"R"},{"time":272000,"durationMs":4000,"midi":37,"velocity":1,"hand":"L"},{"time":272000,"durationMs":4000,"midi":44,"velocity":1,"hand":"L"},{"time":272000,"durationMs":4000,"midi":49,"velocity":1,"hand":"L"},{"time":272000,"durationMs":4000,"midi":52,"velocity":1,"hand":"R"},{"time":272000,"durationMs":4000,"midi":56,"velocity":1,"hand":"R"},{"time":272000,"durationMs":4000,"midi":61,"velocity":1,"hand":"R"}]}
