{"meta":{"title":"Nocturne Op. 9 No. 2","bpm":66,"durationMs":202273},"notes":[{"time":0,"durationMs":455,"midi":70,"velocity":0.7086614173228346,"hand":"R"},{"time":455,"durationMs":455,"midi":39,"velocity":0.7086614173228346,"hand":"L"},{"time":455,"durationMs":1818,"midi":79,"velocity":0.7086614173228346,"hand":"R"},{"time":909,"durationMs":455,"midi":55,"velocity":0.7086614173228346,"hand":"L"},{"time":909,"durationMs":455,"midi":63,"velocity":0.7086614173228346,"hand":"L"},{"time":1364,"durationMs":455,"midi":58,"velocity":0.7086614173228346,"hand":"L"},{"time":1364,"durationMs":455,"midi":63,"velocity":0.7086614173228346,"hand":"L"},{"time":1364,"durationMs":455,"midi":67,"velocity":0.7086614173228346,"hand":"L"},{"time":1818,"durationMs":455,"midi":51,"velocity":0.7086614173228346,"hand":"L"},{"time":2273,"durationMs":455,"midi":56,"velocity":0.7086614173228346,"hand":"L"},{"time":2273,"durationMs":455,"midi":62,"velocity":0.7086614173228346,"hand":"L"},{"time":2273,"durationMs":455,"midi":77,"velocity":0.7086614173228346,"hand":"R"},{"time":2727,"durationMs":455,"midi":59,"velocity":0.7086614173228346,"hand":"L"},{"time":2727,"durationMs":455,"midi":62,"velocity":0.7086614173228346,"hand":"L"},{"time":2727,"durationMs":455,"midi":68,"velocity":0.7086614173228346,"hand":"L"},{"time":2727,"durationMs":455,"midi":79,"velocity":0.7086614173228346,"hand":"R"},{"time":3182,"durationMs":455,"midi":39,"velocity":0.7086614173228346,"hand":"L"},{"time":3182,"durationMs":1364,"midi":77,"velocity":0.7086614173228346,"hand":"R"},{"time":3636,"durationMs":455,"midi":55,"velocity":0.7086614173228346,"hand":"L"},{"time":3636,"durationMs":455,"midi":63,"velocity":0.7086614173228346,"hand":"L"},{"time":4091,"durationMs":455,"midi":58,"velocity":0.7086614173228346,"hand":"L"},{"time":4091,"durationMs":455,"midi":63,"velocity":0.7086614173228346,"hand":"L"},{"time":4091,"durationMs":455,"midi":67,"velocity":0.7086614173228346,"hand":"L"},{"time":4545,"durationMs":455,"midi":38,"velocity":0.7086614173228346,"hand":"L"},{"time":4545,"durationMs":909,"midi":75,"velocity":0.7086614173228346,"hand":"R"},{"time":5000,"durationMs":455,"midi":55,"velocity":0.7086614173228346,"hand":"L"},{"time":5000,"durationMs":455,"midi":63,"velocity":0.7086614173228346,"hand":"L"},{"time":5455,"durationMs":455,"midi":58,"velocity":0.7086614173228346,"hand":"L"},{"time":5455,"durationMs":455,"midi":63,"velocity":0.7086614173228346,"hand":"L"},{"time":5455,"durationMs":455,"midi":67,"velocity":0.7086614173228346,"hand":"L"},{"time":5455,"durationMs":455,"midi":70,"velocity":0.7086614173228346,"hand":"R"},{"time":5909,"durationMs":455,"midi":36,"velocity":0.7086614173228346,"hand":"L"},{"time":5909,"durationMs":909,"midi":79,"velocity":0.7086614173228346,"hand":"R"},{"time":6364,"durationMs":455,"midi":55,"velocity":0.7086614173228346,"hand":"L"},{"time":6364,"durationMs":455,"midi":64,"velocity":0.7086614173228346,"hand":"L"},{"time":6818,"durationMs":455,"midi":58,"velocity":0.7086614173228346,"hand":"L"},{"time":6818,"durationMs":455,"midi":64,"velocity":0.7086614173228346,"hand":"L"},{"time":6818,"durationMs":455,"midi":67,"velocity":0.7086614173228346,"hand":"L"},{"time":6818,"durationMs":455,"midi":72,"velocity":0.7086614173228346,"hand":"R"},{"time":7273,"durationMs":455,"midi":48,"velocity":0.7086614173228346,"hand":"L"},{"time":7273,"durationMs":909,"midi":84,"velocity":0.7086614173228346,"hand":"R"},{"time":7727,"durationMs":455,"midi":55,"velocity":0.7086614173228346,"hand":"L"},{"time":7727,"durationMs":455,"midi":64,"velocity":0.7086614173228346,"hand":"L"},{"time":8182,"durationMs":455,"midi":60,"velocity":0.7086614173228346,"hand":"L"},{"time":8182,"durationMs":455,"midi":64,"velocity":0.7086614173228346,"hand":"L"},{"time":8182,"durationMs":455,"midi":70,"velocity":0.7086614173228346,"hand":"L"},{"time":8182,"durationMs":455,"midi":79,"velocity":0.7086614173228346,"hand":"R"},{"time":8636,"durationMs":455,"midi":41,"velocity":0.7086614173228346,"hand":"L"},{"time":8636,"durationMs":1364,"midi":82,"velocity":0.7086614173228346,"hand":"R"},{"time":9091,"durationMs":455,"midi":53,"velocity":0.7086614173228346,"hand":"L"},{"time":9091,"durationMs":455,"midi":61,"velocity":0.7086614173228346,"hand":"L"},{"time":9545,"durationMs":455,"midi":58,"velocity":0.7086614173228346,"hand":"L"},{"time":9545,"durationMs":455,"midi":61,"velocity":0.7086614173228346,"hand":"L"},{"time":9545,"durationMs":455,"midi":64,"velocity":0.7086614173228346,"hand":"L"},{"time":10000,"durationMs":455,"midi":41,"velocity":0.7086614173228346,"hand":"L"},{"time":10000,"durationMs":909,"midi":80,"velocity":0.7086614173228346,"hand":"R"},{"time":10455,"durationMs":455,"midi":53,"velocity":0.7086614173228346,"hand":"L"},{"time":10455,"durationMs":455,"midi":60,"velocity":0.7086614173228346,"hand":"L"},{"time":10909,"durationMs":455,"midi":56,"velocity":0.7086614173228346,"hand":"L"},{"time":10909,"durationMs":455,"midi":60,"velocity":0.7086614173228346,"hand":"L"},{"time":10909,"durationMs":455,"midi":65,"velocity":0.7086614173228346,"hand":"L"},{"time":10909,"durationMs":455,"midi":79,"velocity":0.7086614173228346,"hand":"R"},{"time":11364,"durationMs":455,"midi":46,"velocity":0.7086614173228346,"hand":"L"},{"time":11364,"durationMs":1364,"midi":77,"velocity":0.7086614173228346,"hand":"R"},{"time":11818,"durationMs":455,"midi":53,"velocity":0.7086614173228346,"hand":"L"},{"time":11818,"durationMs":455,"midi":62,"velocity":0.7086614173228346,"hand":"L"},{"time":12273,"durationMs":455,"midi":58,"velocity":0.7086614173228346,"hand":"L"},{"time":12273,"durationMs":455,"midi":62,"velocity":0.7086614173228346,"hand":"L"},{"time":12273,"durationMs":455,"midi":68,"velocity":0.7086614173228346,"hand":"L"},{"time":12727,"durationMs":455,"midi":47,"velocity":0.7086614173228346,"hand":"L"},{"time":12727,"durationMs":909,"midi":79,"velocity":0.7086614173228346,"hand":"R"},{"time":13182,"durationMs":455,"midi":55,"velocity":0.7086614173228346,"hand":"L"},{"time":13182,"durationMs":455,"midi":65,"velocity":0.7086614173228346,"hand":"L"},{"time":13636,"durationMs":455,"midi":62,"velocity":0.7086614173228346,"hand":"L"},{"time":13636,"durationMs":455,"midi":65,"velocity":0.7086614173228346,"hand":"L"},{"time":13636,"durationMs":455,"midi":67,"velocity":0.7086614173228346,"hand":"L"},{"time":13636,"durationMs":455,"midi":74,"velocity":0.7086614173228346,"hand":"R"},{"time":14091,"durationMs":455,"midi":48,"velocity":0.7086614173228346,"hand":"L"},{"time":14091,"durationMs":1364,"midi":75,"velocity":0.7086614173228346,"hand":"R"},{"time":14545,"durationMs":455,"midi":55,"velocity":0.7086614173228346,"hand":"L"},{"time":14545,"durationMs":455,"midi":63,"velocity":0.7086614173228346,"hand":"L"},{"time":15000,"durationMs":455,"midi":60,"velocity":0.7086614173228346,"hand":"L"},{"time":15000,"durationMs":455,"midi":63,"velocity":0.7086614173228346,"hand":"L"},{"time":15000,"durationMs":455,"midi":67,"velocity":0.7086614173228346,"hand":"L"},{"time":15455,"durationMs":455,"midi":45,"velocity":0.7086614173228346,"hand":"L"},{"time":15455,"durationMs":1364,"midi":72,"velocity":0.7086614173228346,"hand":"R"},{"time":15909,"durationMs":455,"midi":54,"velocity":0.7086614173228346,"hand":"L"},{"time":15909,"durationMs":455,"midi":63,"velocity":0.7086614173228346,"hand":"L"},{"time":16364,"durationMs":455,"midi":60,"velocity":0.7086614173228346,"hand":"L"},{"time":16364,"durationMs":455,"midi":63,"velocity":0.7086614173228346,"hand":"L"},{"time":16364,"durationMs":455,"midi":66,"velocity":0.7086614173228346,"hand":"L"},{"time":16818,"durationMs":455,"midi":46,"velocity":0.7086614173228346,"hand":"L"},{"time":16818,"durationMs":455,"midi":70,"velocity":0.7086614173228346,"hand":"R"},{"time":17273,"durationMs":455,"midi":53,"velocity":0.7086614173228346,"hand":"L"},{"time":17273,"durationMs":455,"midi":63,"velocity":0.7086614173228346,"hand":"L"},{"time":17273,"durationMs":455,"midi":86,"velocity":0.7086614173228346,"hand":"R"},{"time":17727,"durationMs":455,"midi":58,"velocity":0.7086614173228346,"hand":"L"},{"time":17727,"durationMs":455,"midi":63,"velocity":0.7086614173228346,"hand":"L"},{"time":17727,"durationMs":455,"midi":68,"velocity":0.7086614173228346,"hand":"L"},{"time":17727,"durationMs":455,"midi":84,"velocity":0.7086614173228346,"hand":"R"},{"time":18182,"durationMs":455,"midi":34,"velocity":0.7086614173228346,"hand":"L"},{"time":18182,"durationMs":227,"midi":82,"velocity":0.7086614173228346,"hand":"R"},{"time":18409,"durationMs":227,"midi":80,"velocity":0.7086614173228346,"hand":"R"},{"time":18636,"durationMs":455,"midi":53,"velocity":0.7086614173228346,"hand":"L"},{"time":18636,"durationMs":455,"midi":62,"velocity":0.7086614173228346,"hand":"L"},{"time":18636,"durationMs":227,"midi":79,"velocity":0.7086614173228346,"hand":"R"},{"time":18864,"durationMs":227,"midi":80,"velocity":0.7086614173228346,"hand":"R"},{"time":19091,"durationMs":455,"midi":58,"velocity":0.7086614173228346,"hand":"L"},{"time":19091,"durationMs":455,"midi":68,"velocity":0.7086614173228346,"hand":"L"},{"time":19091,"durationMs":227,"midi":72,"velocity":0.7086614173228346,"hand":"R"},{"time":19318,"durationMs":227,"midi":74,"velocity":0.7086614173228346,"hand":"R"},{"time":19545,"durationMs":455,"midi":39,"velocity":0.7086614173228346,"hand":"L"},{"time":19545,"durationMs":1364,"midi":75,"velocity":0.7086614173228346,"hand":"R"},{"time":20000,"durationMs":455,"midi":55,"velocity":0.7086614173228346,"hand":"L"},{"time":20000,"durationMs":455,"midi":63,"velocity":0.7086614173228346,"hand":"L"},{"time":20455,"durationMs":455,"midi":58,"velocity":0.7086614173228346,"hand":"L"},{"time":20455,"durationMs":455,"midi":63,"velocity":0.7086614173228346,"hand":"L"},{"time":20455,"durationMs":455,"midi":67,"velocity":0.7086614173228346,"hand":"L"},{"time":20909,"durationMs":455,"midi":51,"velocity":0.7086614173228346,"hand":"L"},{"time":21364,"durationMs":455,"midi":55,"velocity":0.7086614173228346,"hand":"L"},{"time":21364,"durationMs":455,"midi":63,"velocity":0.7086614173228346,"hand":"L"},{"time":21818,"durationMs":455,"midi":58,"velocity":0.7086614173228346,"hand":"L"},{"time":21818,"durationMs":455,"midi":63,"velocity":0.7086614173228346,"hand":"L"},{"time":21818,"durationMs":455,"midi":67,"velocity":0.7086614173228346,"hand":"L"},{"time":21818,"durationMs":455,"midi":70,"velocity":0.7086614173228346,"hand":"R"},{"time":22273,"durationMs":455,"midi":51,"velocity":0.7086614173228346,"hand":"L"},{"time":22273,"durationMs":1364,"midi":79,"velocity":0.7086614173228346,"hand":"R"},{"time":22727,"durationMs":455,"midi":55,"velocity":0.7086614173228346,"hand":"L"},{"time":22727,"durationMs":455,"midi":63,"velocity":0.7086614173228346,"hand":"L"},{"time":23182,"durationMs":455,"midi":58,"velocity":0.7086614173228346,"hand":"L"},{"time":23182,"durationMs":455,"midi":63,"velocity":0.7086614173228346,"hand":"L"},{"time":23182,"durationMs":455,"midi":67,"velocity":0.7086614173228346,"hand":"L"},{"time":23636,"durationMs":455,"midi":51,"velocity":0.7086614173228346,"hand":"L"},{"time":23636,"durationMs":227,"midi":77,"velocity":0.7086614173228346,"hand":"R"},{"time":23864,"durationMs":227,"midi":79,"velocity":0.7086614173228346,"hand":"R"},{"time":24091,"durationMs":455,"midi":56,"velocity":0.7086614173228346,"hand":"L"},{"time":24091,"durationMs":455,"midi":62,"velocity":0.7086614173228346,"hand":"L"},{"time":24091,"durationMs":227,"midi":77,"velocity":0.7086614173228346,"hand":"R"},{"time":24318,"durationMs":227,"midi":76,"velocity":0.7086614173228346,"hand":"R"},{"time":24545,"durationMs":455,"midi":59,"velocity":0.7086614173228346,"hand":"L"},{"time":24545,"durationMs":455,"midi":62,"velocity":0.7086614173228346,"hand":"L"},{"time":24545,"durationMs":455,"midi":68,"velocity":0.7086614173228346,"hand":"L"},{"time":24545,"durationMs":227,"midi":77,"velocity":0.7086614173228346,"hand":"R"},{"time":24773,"durationMs":227,"midi":79,"velocity":0.7086614173228346,"hand":"R"},{"time":25000,"durationMs":455,"midi":51,"velocity":0.7086614173228346,"hand":"L"},{"time":25000,"durationMs":455,"midi":77,"velocity":0.7086614173228346,"hand":"R"},{"time":25455,"durationMs":455,"midi":55,"velocity":0.7086614173228346,"hand":"L"},{"time":25455,"durationMs":455,"midi":63,"velocity":0.7086614173228346,"hand":"L"},{"time":25455,"durationMs":1136,"midi":75,"velocity":0.7086614173228346,"hand":"R"},{"time":25909,"durationMs":455,"midi":58,"velocity":0.7086614173228346,"hand":"L"},{"time":25909,"durationMs":455,"midi":63,"velocity":0.7086614173228346,"hand":"L"},{"time":25909,"durationMs":455,"midi":67,"velocity":0.7086614173228346,"hand":"L"},{"time":26364,"durationMs":455,"midi":50,"velocity":0.7086614173228346,"hand":"L"},{"time":26591,"durationMs":227,"midi":77,"velocity":0.7086614173228346,"hand":"R"},{"time":26818,"durationMs":455,"midi":55,"velocity":0.7086614173228346,"hand":"L"},{"time":26818,"durationMs":455,"midi":63,"velocity":0.7086614173228346,"hand":"L"},{"time":26818,"durationMs":227,"midi":75,"velocity":0.7086614173228346,"hand":"R"},{"time":27045,"durationMs":227,"midi":74,"velocity":0.7086614173228346,"hand":"R"},{"time":27273,"durationMs":455,"midi":58,"velocity":0.7086614173228346,"hand":"L"},{"time":27273,"durationMs":455,"midi":63,"velocity":0.7086614173228346,"hand":"L"},{"time":27273,"durationMs":455,"midi":67,"velocity":0.7086614173228346,"hand":"L"},{"time":27273,"durationMs":227,"midi":75,"velocity":0.7086614173228346,"hand":"R"},{"time":27500,"durationMs":227,"midi":77,"velocity":0.7086614173228346,"hand":"R"},{"time":27727,"durationMs":455,"midi":48,"velocity":0.7086614173228346,"hand":"L"},{"time":27727,"durationMs":227,"midi":79,"velocity":0.7086614173228346,"hand":"R"},{"time":27955,"durationMs":227,"midi":71,"velocity":0.7086614173228346,"hand":"R"},{"time":28182,"durationMs":455,"midi":55,"velocity":0.7086614173228346,"hand":"L"},{"time":28182,"durationMs":455,"midi":64,"velocity":0.7086614173228346,"hand":"L"},{"time":28182,"durationMs":227,"midi":72,"velocity":0.7086614173228346,"hand":"R"},{"time":28409,"durationMs":227,"midi":73,"velocity":0.7086614173228346,"hand":"R"},{"time":28636,"durationMs":455,"midi":58,"velocity":0.7086614173228346,"hand":"L"},{"time":28636,"durationMs":455,"midi":64,"velocity":0.7086614173228346,"hand":"L"},{"time":28636,"durationMs":455,"midi":67,"velocity":0.7086614173228346,"hand":"L"},{"time":28636,"durationMs":227,"midi":72,"velocity":0.7086614173228346,"hand":"R"},{"time":28864,"durationMs":227,"midi":77,"velocity":0.7086614173228346,"hand":"R"},{"time":29091,"durationMs":455,"midi":48,"velocity":0.7086614173228346,"hand":"L"},{"time":29091,"durationMs":227,"midi":76,"velocity":0.7086614173228346,"hand":"R"},{"time":29318,"durationMs":227,"midi":80,"velocity":0.7086614173228346,"hand":"R"},{"time":29545,"durationMs":455,"midi":55,"velocity":0.7086614173228346,"hand":"L"},{"time":29545,"durationMs":455,"midi":64,"velocity":0.7086614173228346,"hand":"L"},{"time":29545,"durationMs":227,"midi":79,"velocity":0.7086614173228346,"hand":"R"},{"time":29773,"durationMs":227,"midi":85,"velocity":0.7086614173228346,"hand":"R"},{"time":30000,"durationMs":455,"midi":60,"velocity":0.7086614173228346,"hand":"L"},{"time":30000,"durationMs":455,"midi":64,"velocity":0.7086614173228346,"hand":"L"},{"time":30000,"durationMs":455,"midi":70,"velocity":0.7086614173228346,"hand":"L"},{"time":30000,"durationMs":227,"midi":84,"velocity":0.7086614173228346,"hand":"R"},{"time":30227,"durationMs":227,"midi":79,"velocity":0.7086614173228346,"hand":"R"},{"time":30455,"durationMs":455,"midi":41,"velocity":0.7086614173228346,"hand":"L"},{"time":30455,"durationMs":1364,"midi":82,"velocity":0.7086614173228346,"hand":"R"},{"time":30909,"durationMs":455,"midi":53,"velocity":0.7086614173228346,"hand":"L"},{"time":30909,"durationMs":455,"midi":61,"velocity":0.7086614173228346,"hand":"L"},{"time":31364,"durationMs":455,"midi":58,"velocity":0.7086614173228346,"hand":"L"},{"time":31364,"durationMs":455,"midi":61,"velocity":0.7086614173228346,"hand":"L"},{"time":31364,"durationMs":455,"midi":64,"velocity":0.7086614173228346,"hand":"L"},{"time":31818,"durationMs":455,"midi":41,"velocity":0.7086614173228346,"hand":"L"},{"time":31818,"durationMs":909,"midi":80,"velocity":0.7086614173228346,"hand":"R"},{"time":32273,"durationMs":455,"midi":53,"velocity":0.7086614173228346,"hand":"L"},{"time":32273,"durationMs":455,"midi":60,"velocity":0.7086614173228346,"hand":"L"},{"time":32727,"durationMs":455,"midi":56,"velocity":0.7086614173228346,"hand":"L"},{"time":32727,"durationMs":455,"midi":60,"velocity":0.7086614173228346,"hand":"L"},{"time":32727,"durationMs":455,"midi":65,"velocity":0.7086614173228346,"hand":"L"},{"time":32727,"durationMs":455,"midi":79,"velocity":0.7086614173228346,"hand":"R"},{"time":33182,"durationMs":455,"midi":46,"velocity":0.7086614173228346,"hand":"L"},{"time":33182,"durationMs":1259,"midi":77,"velocity":0.7086614173228346,"hand":"R"},{"time":33636,"durationMs":455,"midi":53,"velocity":0.7086614173228346,"hand":"L"},{"time":33636,"durationMs":455,"midi":62,"velocity":0.7086614173228346,"hand":"L"},{"time":34091,"durationMs":455,"midi":58,"velocity":0.7086614173228346,"hand":"L"},{"time":34091,"durationMs":455,"midi":62,"velocity":0.7086614173228346,"hand":"L"},{"time":34091,"durationMs":455,"midi":68,"velocity":0.7086614173228346,"hand":"L"},{"time":34441,"durationMs":50,"midi":76,"velocity":0.7086614173228346,"hand":"R"},{"time":34493,"durationMs":50,"midi":77,"velocity":0.7086614173228346,"hand":"R"},{"time":34545,"durationMs":455,"midi":47,"velocity":0.7086614173228346,"hand":"L"},{"time":34545,"durationMs":455,"midi":79,"velocity":0.7086614173228346,"hand":"R"},{"time":35000,"durationMs":455,"midi":55,"velocity":0.7086614173228346,"hand":"L"},{"time":35000,"durationMs":455,"midi":65,"velocity":0.7086614173228346,"hand":"L"},{"time":35000,"durationMs":455,"midi":79,"velocity":0.7086614173228346,"hand":"R"},{"time":35455,"durationMs":455,"midi":62,"velocity":0.7086614173228346,"hand":"L"},{"time":35455,"durationMs":455,"midi":65,"velocity":0.7086614173228346,"hand":"L"},{"time":35455,"durationMs":455,"midi":67,"velocity":0.7086614173228346,"hand":"L"},{"time":35455,"durationMs":455,"midi":74,"velocity":0.7086614173228346,"hand":"R"},{"time":35909,"durationMs":455,"midi":48,"velocity":0.7086614173228346,"hand":"L"},{"time":35909,"durationMs":1364,"midi":75,"velocity":0.7086614173228346,"hand":"R"},{"time":36364,"durationMs":455,"midi":55,"velocity":0.7086614173228346,"hand":"L"},{"time":36364,"durationMs":455,"midi":63,"velocity":0.7086614173228346,"hand":"L"},{"time":36818,"durationMs":455,"midi":60,"velocity":0.7086614173228346,"hand":"L"},{"time":36818,"durationMs":455,"midi":63,"velocity":0.7086614173228346,"hand":"L"},{"time":36818,"durationMs":455,"midi":67,"velocity":0.7086614173228346,"hand":"L"},{"time":37273,"durationMs":455,"midi":45,"velocity":0.7086614173228346,"hand":"L"},{"time":37273,"durationMs":1364,"midi":72,"velocity":0.7086614173228346,"hand":"R"},{"time":37727,"durationMs":455,"midi":54,"velocity":0.7086614173228346,"hand":"L"},{"time":37727,"durationMs":455,"midi":63,"velocity":0.7086614173228346,"hand":"L"},{"time":38182,"durationMs":455,"midi":60,"velocity":0.7086614173228346,"hand":"L"},{"time":38182,"durationMs":455,"midi":63,"velocity":0.7086614173228346,"hand":"L"},{"time":38182,"durationMs":455,"midi":66,"velocity":0.7086614173228346,"hand":"L"},{"time":38636,"durationMs":455,"midi":46,"velocity":0.7086614173228346,"hand":"L"},{"time":38636,"durationMs":455,"midi":70,"velocity":0.7086614173228346,"hand":"R"},{"time":39091,"durationMs":455,"midi":53,"velocity":0.7086614173228346,"hand":"L"},{"time":39091,"durationMs":455,"midi":63,"velocity":0.7086614173228346,"hand":"L"},{"time":39091,"durationMs":455,"midi":86,"velocity":0.7086614173228346,"hand":"R"},{"time":39545,"durationMs":455,"midi":58,"velocity":0.7086614173228346,"hand":"L"},{"time":39545,"durationMs":455,"midi":63,"velocity":0.7086614173228346,"hand":"L"},{"time":39545,"durationMs":455,"midi":68,"velocity":0.7086614173228346,"hand":"L"},{"time":39545,"durationMs":455,"midi":84,"velocity":0.7086614173228346,"hand":"R"},{"time":40000,"durationMs":455,"midi":34,"velocity":0.7086614173228346,"hand":"L"},{"time":40000,"durationMs":227,"midi":82,"velocity":0.7086614173228346,"hand":"R"},{"time":40227,"durationMs":227,"midi":80,"velocity":0.7086614173228346,"hand":"R"},{"time":40455,"durationMs":455,"midi":53,"velocity":0.7086614173228346,"hand":"L"},{"time":40455,"durationMs":455,"midi":62,"velocity":0.7086614173228346,"hand":"L"},{"time":40455,"durationMs":227,"midi":79,"velocity":0.7086614173228346,"hand":"R"},{"time":40682,"durationMs":123,"midi":80,"velocity":0.7086614173228346,"hand":"R"},{"time":40805,"durationMs":102,"midi":80,"velocity":0.7086614173228346,"hand":"R"},{"time":40909,"durationMs":455,"midi":58,"velocity":0.7086614173228346,"hand":"L"},{"time":40909,"durationMs":455,"midi":68,"velocity":0.7086614173228346,"hand":"L"},{"time":40909,"durationMs":227,"midi":72,"velocity":0.7086614173228346,"hand":"R"},{"time":41136,"durationMs":227,"midi":74,"velocity":0.7086614173228346,"hand":"R"},{"time":41364,"durationMs":455,"midi":39,"velocity":0.7086614173228346,"hand":"L"},{"time":41364,"durationMs":1818,"midi":75,"velocity":0.7086614173228346,"hand":"R"},{"time":41818,"durationMs":455,"midi":55,"velocity":0.7086614173228346,"hand":"L"},{"time":41818,"durationMs":455,"midi":63,"velocity":0.7086614173228346,"hand":"L"},{"time":42273,"durationMs":455,"midi":58,"velocity":0.7086614173228346,"hand":"L"},{"time":42273,"durationMs":455,"midi":63,"velocity":0.7086614173228346,"hand":"L"},{"time":42273,"durationMs":455,"midi":67,"velocity":0.7086614173228346,"hand":"L"},{"time":42727,"durationMs":455,"midi":51,"velocity":0.7086614173228346,"hand":"L"},{"time":43182,"durationMs":455,"midi":55,"velocity":0.7086614173228346,"hand":"L"},{"time":43182,"durationMs":455,"midi":63,"velocity":0.7086614173228346,"hand":"L"},{"time":43182,"durationMs":455,"midi":74,"velocity":0.7086614173228346,"hand":"R"},{"time":43636,"durationMs":455,"midi":58,"velocity":0.7086614173228346,"hand":"L"},{"time":43636,"durationMs":455,"midi":63,"velocity":0.7086614173228346,"hand":"L"},{"time":43636,"durationMs":455,"midi":67,"velocity":0.7086614173228346,"hand":"L"},{"time":43636,"durationMs":455,"midi":75,"velocity":0.7086614173228346,"hand":"R"},{"time":44091,"durationMs":455,"midi":46,"velocity":0.7086614173228346,"hand":"L"},{"time":44091,"durationMs":1364,"midi":77,"velocity":0.7086614173228346,"hand":"R"},{"time":44545,"durationMs":455,"midi":53,"velocity":0.7086614173228346,"hand":"L"},{"time":44545,"durationMs":455,"midi":62,"velocity":0.7086614173228346,"hand":"L"},{"time":45000,"durationMs":455,"midi":58,"velocity":0.7086614173228346,"hand":"L"},{"time":45000,"durationMs":455,"midi":62,"velocity":0.7086614173228346,"hand":"L"},{"time":45000,"durationMs":455,"midi":65,"velocity":0.7086614173228346,"hand":"L"},{"time":45455,"durationMs":455,"midi":46,"velocity":0.7086614173228346,"hand":"L"},{"time":45455,"durationMs":909,"midi":79,"velocity":0.7086614173228346,"hand":"R"},{"time":45909,"durationMs":455,"midi":53,"velocity":0.7086614173228346,"hand":"L"},{"time":45909,"durationMs":455,"midi":62,"velocity":0.7086614173228346,"hand":"L"},{"time":46364,"durationMs":455,"midi":58,"velocity":0.7086614173228346,"hand":"L"},{"time":46364,"durationMs":455,"midi":62,"velocity":0.7086614173228346,"hand":"L"},{"time":46364,"durationMs":455,"midi":65,"velocity":0.7086614173228346,"hand":"L"},{"time":46364,"durationMs":455,"midi":77,"velocity":0.7086614173228346,"hand":"R"},{"time":46818,"durationMs":455,"midi":45,"velocity":0.7086614173228346,"hand":"L"},{"time":46818,"durationMs":1364,"midi":77,"velocity":0.7086614173228346,"hand":"R"},{"time":47273,"durationMs":455,"midi":53,"velocity":0.7086614173228346,"hand":"L"},{"time":47273,"durationMs":455,"midi":60,"velocity":0.7086614173228346,"hand":"L"},{"time":47727,"durationMs":455,"midi":60,"velocity":0.7086614173228346,"hand":"L"},{"time":47727,"durationMs":455,"midi":65,"velocity":0.7086614173228346,"hand":"L"},{"time":48182,"durationMs":455,"midi":45,"velocity":0.7086614173228346,"hand":"L"},{"time":48182,"durationMs":1364,"midi":72,"velocity":0.7086614173228346,"hand":"R"},{"time":48636,"durationMs":455,"midi":53,"velocity":0.7086614173228346,"hand":"L"},{"time":48636,"durationMs":455,"midi":60,"velocity":0.7086614173228346,"hand":"L"},{"time":49091,"durationMs":455,"midi":60,"velocity":0.7086614173228346,"hand":"L"},{"time":49091,"durationMs":455,"midi":65,"velocity":0.7086614173228346,"hand":"L"},{"time":49545,"durationMs":455,"midi":44,"velocity":0.7086614173228346,"hand":"L"},{"time":49545,"durationMs":455,"midi":75,"velocity":0.7086614173228346,"hand":"R"},{"time":50000,"durationMs":455,"midi":51,"velocity":0.7086614173228346,"hand":"L"},{"time":50000,"durationMs":455,"midi":60,"velocity":0.7086614173228346,"hand":"L"},{"time":50000,"durationMs":455,"midi":75,"velocity":0.7086614173228346,"hand":"R"},{"time":50454,"durationMs":455,"midi":56,"velocity":0.7086614173228346,"hand":"L"},{"time":50454,"durationMs":455,"midi":60,"velocity":0.7086614173228346,"hand":"L"},{"time":50454,"durationMs":455,"midi":63,"velocity":0.7086614173228346,"hand":"L"},{"time":50454,"durationMs":455,"midi":75,"velocity":0.7086614173228346,"hand":"R"},{"time":50909,"durationMs":455,"midi":32,"velocity":0.7086614173228346,"hand":"L"},{"time":50909,"durationMs":455,"midi":75,"velocity":0.7086614173228346,"hand":"R"},{"time":51364,"durationMs":455,"midi":51,"velocity":0.7086614173228346,"hand":"L"},{"time":51364,"durationMs":455,"midi":59,"velocity":0.7086614173228346,"hand":"L"},{"time":51364,"durationMs":227,"midi":74,"velocity":0.7086614173228346,"hand":"R"},{"time":51591,"durationMs":227,"midi":75,"velocity":0.7086614173228346,"hand":"R"},{"time":51818,"durationMs":455,"midi":56,"velocity":0.7086614173228346,"hand":"L"},{"time":51818,"durationMs":455,"midi":59,"velocity":0.7086614173228346,"hand":"L"},{"time":51818,"durationMs":455,"midi":63,"velocity":0.7086614173228346,"hand":"L"},{"time":51818,"durationMs":341,"midi":77,"velocity":0.7086614173228346,"hand":"R"},{"time":52159,"durationMs":114,"midi":75,"velocity":0.7086614173228346,"hand":"R"},{"time":52273,"durationMs":455,"midi":39,"velocity":0.7086614173228346,"hand":"L"},{"time":52273,"durationMs":1364,"midi":75,"velocity":0.7086614173228346,"hand":"R"},{"time":52727,"durationMs":455,"midi":55,"velocity":0.7086614173228346,"hand":"L"},{"time":52727,"durationMs":455,"midi":63,"velocity":0.7086614173228346,"hand":"L"},{"time":53182,"durationMs":455,"midi":58,"velocity":0.7086614173228346,"hand":"L"},{"time":53182,"durationMs":455,"midi":63,"velocity":0.7086614173228346,"hand":"L"},{"time":53182,"durationMs":455,"midi":67,"velocity":0.7086614173228346,"hand":"L"},{"time":53636,"durationMs":455,"midi":51,"velocity":0.7086614173228346,"hand":"L"},{"time":53636,"durationMs":1364,"midi":70,"velocity":0.7086614173228346,"hand":"R"},{"time":54091,"durationMs":455,"midi":55,"velocity":0.7086614173228346,"hand":"L"},{"time":54091,"durationMs":455,"midi":63,"velocity":0.7086614173228346,"hand":"L"},{"time":54545,"durationMs":455,"midi":58,"velocity":0.7086614173228346,"hand":"L"},{"time":54545,"durationMs":455,"midi":63,"velocity":0.7086614173228346,"hand":"L"},{"time":54545,"durationMs":455,"midi":67,"velocity":0.7086614173228346,"hand":"L"},{"time":55000,"durationMs":455,"midi":40,"velocity":0.7086614173228346,"hand":"L"},{"time":55000,"durationMs":1364,"midi":82,"velocity":0.7086614173228346,"hand":"R"},{"time":55454,"durationMs":455,"midi":52,"velocity":0.7086614173228346,"hand":"L"},{"time":55454,"durationMs":455,"midi":61,"velocity":0.7086614173228346,"hand":"L"},{"time":55909,"durationMs":455,"midi":58,"velocity":0.7086614173228346,"hand":"L"},{"time":55909,"durationMs":455,"midi":61,"velocity":0.7086614173228346,"hand":"L"},{"time":55909,"durationMs":455,"midi":67,"velocity":0.7086614173228346,"hand":"L"},{"time":56364,"durationMs":455,"midi":40,"velocity":0.7086614173228346,"hand":"L"},{"time":56364,"durationMs":909,"midi":81,"velocity":0.7086614173228346,"hand":"R"},{"time":56818,"durationMs":455,"midi":52,"velocity":0.7086614173228346,"hand":"L"},{"time":56818,"durationMs":455,"midi":60,"velocity":0.7086614173228346,"hand":"L"},{"time":57273,"durationMs":455,"midi":58,"velocity":0.7086614173228346,"hand":"L"},{"time":57273,"durationMs":455,"midi":60,"velocity":0.7086614173228346,"hand":"L"},{"time":57273,"durationMs":455,"midi":67,"velocity":0.7086614173228346,"hand":"L"},{"time":57273,"durationMs":455,"midi":79,"velocity":0.7086614173228346,"hand":"R"},{"time":57727,"durationMs":455,"midi":41,"velocity":0.7086614173228346,"hand":"L"},{"time":57727,"durationMs":1364,"midi":69,"velocity":0.7086614173228346,"hand":"R"},{"time":57727,"durationMs":1364,"midi":77,"velocity":0.7086614173228346,"hand":"R"},{"time":58182,"durationMs":455,"midi":53,"velocity":0.7086614173228346,"hand":"L"},{"time":58182,"durationMs":455,"midi":63,"velocity":0.7086614173228346,"hand":"L"},{"time":58636,"durationMs":455,"midi":60,"velocity":0.7086614173228346,"hand":"L"},{"time":58636,"durationMs":455,"midi":63,"velocity":0.7086614173228346,"hand":"L"},{"time":58636,"durationMs":455,"midi":65,"velocity":0.7086614173228346,"hand":"L"},{"time":59091,"durationMs":455,"midi":43,"velocity":0.7086614173228346,"hand":"L"},{"time":59091,"durationMs":1364,"midi":70,"velocity":0.7086614173228346,"hand":"R"},{"time":59091,"durationMs":1364,"midi":74,"velocity":0.7086614173228346,"hand":"R"},{"time":59545,"durationMs":455,"midi":55,"velocity":0.7086614173228346,"hand":"L"},{"time":59545,"durationMs":455,"midi":62,"velocity":0.7086614173228346,"hand":"L"},{"time":60000,"durationMs":455,"midi":58,"velocity":0.7086614173228346,"hand":"L"},{"time":60000,"durationMs":455,"midi":62,"velocity":0.7086614173228346,"hand":"L"},{"time":60000,"durationMs":455,"midi":67,"velocity":0.7086614173228346,"hand":"L"},{"time":60454,"durationMs":455,"midi":36,"velocity":0.7086614173228346,"hand":"L"},{"time":60454,"durationMs":1364,"midi":67,"velocity":0.7086614173228346,"hand":"R"},{"time":60454,"durationMs":1364,"midi":75,"velocity":0.7086614173228346,"hand":"R"},{"time":60909,"durationMs":455,"midi":55,"velocity":0.7086614173228346,"hand":"L"},{"time":60909,"durationMs":455,"midi":63,"velocity":0.7086614173228346,"hand":"L"},{"time":61364,"durationMs":455,"midi":60,"velocity":0.7086614173228346,"hand":"L"},{"time":61364,"durationMs":455,"midi":63,"velocity":0.7086614173228346,"hand":"L"},{"time":61364,"durationMs":455,"midi":67,"velocity":0.7086614173228346,"hand":"L"},{"time":61818,"durationMs":455,"midi":41,"velocity":0.7086614173228346,"hand":"L"},{"time":61818,"durationMs":455,"midi":69,"velocity":0.7086614173228346,"hand":"R"},{"time":61818,"durationMs":455,"midi":74,"velocity":0.7086614173228346,"hand":"R"},{"time":62273,"durationMs":455,"midi":53,"velocity":0.7086614173228346,"hand":"L"},{"time":62273,"durationMs":455,"midi":63,"velocity":0.7086614173228346,"hand":"L"},{"time":62273,"durationMs":455,"midi":69,"velocity":0.7086614173228346,"hand":"R"},{"time":62273,"durationMs":455,"midi":72,"velocity":0.7086614173228346,"hand":"R"},{"time":62727,"durationMs":455,"midi":60,"velocity":0.7086614173228346,"hand":"L"},{"time":62727,"durationMs":455,"midi":63,"velocity":0.7086614173228346,"hand":"L"},{"time":62727,"durationMs":455,"midi":65,"velocity":0.7086614173228346,"hand":"L"},{"time":62727,"durationMs":455,"midi":69,"velocity":0.7086614173228346,"hand":"R"},{"time":62727,"durationMs":455,"midi":74,"velocity":0.7086614173228346,"hand":"R"},{"time":63182,"durationMs":455,"midi":58,"velocity":0.7086614173228346,"hand":"L"},{"time":63182,"durationMs":455,"midi":62,"velocity":0.7086614173228346,"hand":"L"},{"time":63182,"durationMs":455,"midi":65,"velocity":0.7086614173228346,"hand":"R"},{"time":63182,"durationMs":455,"midi":70,"velocity":0.7086614173228346,"hand":"R"},{"time":63636,"durationMs":455,"midi":57,"velocity":0.7086614173228346,"hand":"L"},{"time":63636,"durationMs":455,"midi":63,"velocity":0.7086614173228346,"hand":"L"},{"time":63636,"durationMs":455,"midi":66,"velocity":0.7086614173228346,"hand":"R"},{"time":63636,"durationMs":455,"midi":71,"velocity":0.7086614173228346,"hand":"R"},{"time":64091,"durationMs":455,"midi":56,"velocity":0.7086614173228346,"hand":"L"},{"time":64091,"durationMs":455,"midi":64,"velocity":0.7086614173228346,"hand":"R"},{"time":64091,"durationMs":455,"midi":71,"velocity":0.7086614173228346,"hand":"R"},{"time":64545,"durationMs":455,"midi":55,"velocity":0.7086614173228346,"hand":"L"},{"time":64545,"durationMs":455,"midi":64,"velocity":0.7086614173228346,"hand":"R"},{"time":64545,"durationMs":455,"midi":70,"velocity":0.7086614173228346,"hand":"R"},{"time":64545,"durationMs":455,"midi":72,"velocity":0.7086614173228346,"hand":"R"},{"time":65000,"durationMs":455,"midi":53,"velocity":0.7086614173228346,"hand":"L"},{"time":65000,"durationMs":455,"midi":60,"velocity":0.7086614173228346,"hand":"L"},{"time":65000,"durationMs":455,"midi":63,"velocity":0.7086614173228346,"hand":"L"},{"time":65000,"durationMs":455,"midi":65,"velocity":0.7086614173228346,"hand":"R"},{"time":65000,"durationMs":455,"midi":69,"velocity":0.7086614173228346,"hand":"R"},{"time":65000,"durationMs":455,"midi":72,"velocity":0.7086614173228346,"hand":"R"},{"time":65454,"durationMs":455,"midi":58,"velocity":0.7086614173228346,"hand":"L"},{"time":65454,"durationMs":455,"midi":65,"velocity":0.7086614173228346,"hand":"L"},{"time":65454,"durationMs":301,"midi":68,"velocity":0.7086614173228346,"hand":"R"},{"time":65454,"durationMs":301,"midi":74,"velocity":0.7086614173228346,"hand":"R"},{"time":65755,"durationMs":50,"midi":67,"velocity":0.7086614173228346,"hand":"R"},{"time":65805,"durationMs":50,"midi":70,"velocity":0.7086614173228346,"hand":"R"},{"time":65857,"durationMs":50,"midi":75,"velocity":0.7086614173228346,"hand":"R"},{"time":65909,"durationMs":455,"midi":39,"velocity":0.7086614173228346,"hand":"L"},{"time":65909,"durationMs":909,"midi":79,"velocity":0.7086614173228346,"hand":"R"},{"time":66364,"durationMs":455,"midi":55,"velocity":0.7086614173228346,"hand":"L"},{"time":66364,"durationMs":455,"midi":63,"velocity":0.7086614173228346,"hand":"L"},{"time":66818,"durationMs":455,"midi":58,"velocity":0.7086614173228346,"hand":"L"},{"time":66818,"durationMs":455,"midi":63,"velocity":0.7086614173228346,"hand":"L"},{"time":66818,"durationMs":455,"midi":67,"velocity":0.7086614173228346,"hand":"L"},{"time":66818,"durationMs":227,"midi":69,"velocity":0.7086614173228346,"hand":"R"},{"time":67045,"durationMs":227,"midi":70,"velocity":0.7086614173228346,"hand":"R"},{"time":67273,"durationMs":455,"midi":51,"velocity":0.7086614173228346,"hand":"L"},{"time":67273,"durationMs":227,"midi":71,"velocity":0.7086614173228346,"hand":"R"},{"time":67500,"durationMs":227,"midi":70,"velocity":0.7086614173228346,"hand":"R"},{"time":67727,"durationMs":455,"midi":56,"velocity":0.7086614173228346,"hand":"L"},{"time":67727,"durationMs":455,"midi":62,"velocity":0.7086614173228346,"hand":"L"},{"time":67727,"durationMs":227,"midi":73,"velocity":0.7086614173228346,"hand":"R"},{"time":67954,"durationMs":227,"midi":74,"velocity":0.7086614173228346,"hand":"R"},{"time":68182,"durationMs":455,"midi":58,"velocity":0.7086614173228346,"hand":"L"},{"time":68182,"durationMs":455,"midi":62,"velocity":0.7086614173228346,"hand":"L"},{"time":68182,"durationMs":455,"midi":68,"velocity":0.7086614173228346,"hand":"L"},{"time":68182,"durationMs":341,"midi":79,"velocity":0.7086614173228346,"hand":"R"},{"time":68523,"durationMs":114,"midi":77,"velocity":0.7086614173228346,"hand":"R"},{"time":68636,"durationMs":455,"midi":51,"velocity":0.7086614173228346,"hand":"L"},{"time":68636,"durationMs":909,"midi":77,"velocity":0.7086614173228346,"hand":"R"},{"time":69091,"durationMs":455,"midi":55,"velocity":0.7086614173228346,"hand":"L"},{"time":69091,"durationMs":455,"midi":63,"velocity":0.7086614173228346,"hand":"L"},{"time":69545,"durationMs":455,"midi":58,"velocity":0.7086614173228346,"hand":"L"},{"time":69545,"durationMs":455,"midi":67,"velocity":0.7086614173228346,"hand":"L"},{"time":69545,"durationMs":682,"midi":75,"velocity":0.7086614173228346,"hand":"R"},{"time":70000,"durationMs":455,"midi":50,"velocity":0.7086614173228346,"hand":"L"},{"time":70227,"durationMs":227,"midi":77,"velocity":0.7086614173228346,"hand":"R"},{"time":70454,"durationMs":455,"midi":55,"velocity":0.7086614173228346,"hand":"L"},{"time":70454,"durationMs":455,"midi":63,"velocity":0.7086614173228346,"hand":"L"},{"time":70454,"durationMs":227,"midi":75,"velocity":0.7086614173228346,"hand":"R"},{"time":70682,"durationMs":227,"midi":74,"velocity":0.7086614173228346,"hand":"R"},{"time":70909,"durationMs":455,"midi":58,"velocity":0.7086614173228346,"hand":"L"},{"time":70909,"durationMs":455,"midi":63,"velocity":0.7086614173228346,"hand":"L"},{"time":70909,"durationMs":455,"midi":67,"velocity":0.7086614173228346,"hand":"L"},{"time":70909,"durationMs":227,"midi":75,"velocity":0.7086614173228346,"hand":"R"},{"time":71136,"durationMs":227,"midi":77,"velocity":0.7086614173228346,"hand":"R"},{"time":71364,"durationMs":455,"midi":48,"velocity":0.7086614173228346,"hand":"L"},{"time":71364,"durationMs":227,"midi":79,"velocity":0.7086614173228346,"hand":"R"},{"time":71591,"durationMs":227,"midi":71,"velocity":0.7086614173228346,"hand":"R"},{"time":71818,"durationMs":455,"midi":55,"velocity":0.7086614173228346,"hand":"L"},{"time":71818,"durationMs":455,"midi":64,"velocity":0.7086614173228346,"hand":"L"},{"time":71818,"durationMs":227,"midi":72,"velocity":0.7086614173228346,"hand":"R"},{"time":72045,"durationMs":227,"midi":73,"velocity":0.7086614173228346,"hand":"R"},{"time":72273,"durationMs":455,"midi":58,"velocity":0.7086614173228346,"hand":"L"},{"time":72273,"durationMs":455,"midi":64,"velocity":0.7086614173228346,"hand":"L"},{"time":72273,"durationMs":455,"midi":67,"velocity":0.7086614173228346,"hand":"L"},{"time":72273,"durationMs":227,"midi":72,"velocity":0.7086614173228346,"hand":"R"},{"time":72500,"durationMs":227,"midi":77,"velocity":0.7086614173228346,"hand":"R"},{"time":72727,"durationMs":455,"midi":48,"velocity":0.7086614173228346,"hand":"L"},{"time":72727,"durationMs":227,"midi":76,"velocity":0.7086614173228346,"hand":"R"},{"time":72954,"durationMs":227,"midi":80,"velocity":0.7086614173228346,"hand":"R"},{"time":73182,"durationMs":455,"midi":55,"velocity":0.7086614173228346,"hand":"L"},{"time":73182,"durationMs":455,"midi":64,"velocity":0.7086614173228346,"hand":"L"},{"time":73182,"durationMs":227,"midi":79,"velocity":0.7086614173228346,"hand":"R"},{"time":73409,"durationMs":227,"midi":85,"velocity":0.7086614173228346,"hand":"R"},{"time":73636,"durationMs":455,"midi":60,"velocity":0.7086614173228346,"hand":"L"},{"time":73636,"durationMs":455,"midi":64,"velocity":0.7086614173228346,"hand":"L"},{"time":73636,"durationMs":455,"midi":70,"velocity":0.7086614173228346,"hand":"L"},{"time":73636,"durationMs":227,"midi":84,"velocity":0.7086614173228346,"hand":"R"},{"time":73864,"durationMs":227,"midi":79,"velocity":0.7086614173228346,"hand":"R"},{"time":74091,"durationMs":455,"midi":41,"velocity":0.7086614173228346,"hand":"L"},{"time":74091,"durationMs":1364,"midi":82,"velocity":0.7086614173228346,"hand":"R"},{"time":74545,"durationMs":455,"midi":53,"velocity":0.7086614173228346,"hand":"L"},{"time":74545,"durationMs":455,"midi":61,"velocity":0.7086614173228346,"hand":"L"},{"time":75000,"durationMs":455,"midi":58,"velocity":0.7086614173228346,"hand":"L"},{"time":75000,"durationMs":455,"midi":61,"velocity":0.7086614173228346,"hand":"L"},{"time":75000,"durationMs":455,"midi":64,"velocity":0.7086614173228346,"hand":"L"},{"time":75454,"durationMs":455,"midi":41,"velocity":0.7086614173228346,"hand":"L"},{"time":75454,"durationMs":909,"midi":80,"velocity":0.7086614173228346,"hand":"R"},{"time":75909,"durationMs":455,"midi":53,"velocity":0.7086614173228346,"hand":"L"},{"time":75909,"durationMs":455,"midi":60,"velocity":0.7086614173228346,"hand":"L"},{"time":76364,"durationMs":455,"midi":56,"velocity":0.7086614173228346,"hand":"L"},{"time":76364,"durationMs":455,"midi":60,"velocity":0.7086614173228346,"hand":"L"},{"time":76364,"durationMs":455,"midi":65,"velocity":0.7086614173228346,"hand":"L"},{"time":76364,"durationMs":455,"midi":79,"velocity":0.7086614173228346,"hand":"R"},{"time":76818,"durationMs":455,"midi":46,"velocity":0.7086614173228346,"hand":"L"},{"time":76818,"durationMs":1259,"midi":77,"velocity":0.7086614173228346,"hand":"R"},{"time":77273,"durationMs":455,"midi":53,"velocity":0.7086614173228346,"hand":"L"},{"time":77273,"durationMs":455,"midi":62,"velocity":0.7086614173228346,"hand":"L"},{"time":77727,"durationMs":455,"midi":58,"velocity":0.7086614173228346,"hand":"L"},{"time":77727,"durationMs":455,"midi":62,"velocity":0.7086614173228346,"hand":"L"},{"time":77727,"durationMs":455,"midi":68,"velocity":0.7086614173228346,"hand":"L"},{"time":78078,"durationMs":50,"midi":76,"velocity":0.7086614173228346,"hand":"R"},{"time":78130,"durationMs":50,"midi":77,"velocity":0.7086614173228346,"hand":"R"},{"time":78182,"durationMs":455,"midi":47,"velocity":0.7086614173228346,"hand":"L"},{"time":78182,"durationMs":455,"midi":79,"velocity":0.7086614173228346,"hand":"R"},{"time":78636,"durationMs":455,"midi":55,"velocity":0.7086614173228346,"hand":"L"},{"time":78636,"durationMs":455,"midi":65,"velocity":0.7086614173228346,"hand":"L"},{"time":78636,"durationMs":455,"midi":79,"velocity":0.7086614173228346,"hand":"R"},{"time":79091,"durationMs":455,"midi":62,"velocity":0.7086614173228346,"hand":"L"},{"time":79091,"durationMs":455,"midi":65,"velocity":0.7086614173228346,"hand":"L"},{"time":79091,"durationMs":455,"midi":67,"velocity":0.7086614173228346,"hand":"L"},{"time":79091,"durationMs":455,"midi":74,"velocity":0.7086614173228346,"hand":"R"},{"time":79545,"durationMs":455,"midi":48,"velocity":0.7086614173228346,"hand":"L"},{"time":79545,"durationMs":1364,"midi":75,"velocity":0.7086614173228346,"hand":"R"},{"time":80000,"durationMs":455,"midi":55,"velocity":0.7086614173228346,"hand":"L"},{"time":80000,"durationMs":455,"midi":63,"velocity":0.7086614173228346,"hand":"L"},{"time":80454,"durationMs":455,"midi":60,"velocity":0.7086614173228346,"hand":"L"},{"time":80454,"durationMs":455,"midi":63,"velocity":0.7086614173228346,"hand":"L"},{"time":80454,"durationMs":455,"midi":67,"velocity":0.7086614173228346,"hand":"L"},{"time":80909,"durationMs":455,"midi":45,"velocity":0.7086614173228346,"hand":"L"},{"time":80909,"durationMs":1364,"midi":72,"velocity":0.7086614173228346,"hand":"R"},{"time":81364,"durationMs":455,"midi":54,"velocity":0.7086614173228346,"hand":"L"},{"time":81364,"durationMs":455,"midi":63,"velocity":0.7086614173228346,"hand":"L"},{"time":81818,"durationMs":455,"midi":60,"velocity":0.7086614173228346,"hand":"L"},{"time":81818,"durationMs":455,"midi":63,"velocity":0.7086614173228346,"hand":"L"},{"time":81818,"durationMs":455,"midi":66,"velocity":0.7086614173228346,"hand":"L"},{"time":82273,"durationMs":455,"midi":46,"velocity":0.7086614173228346,"hand":"L"},{"time":82273,"durationMs":455,"midi":70,"velocity":0.7086614173228346,"hand":"R"},{"time":82727,"durationMs":455,"midi":53,"velocity":0.7086614173228346,"hand":"L"},{"time":82727,"durationMs":455,"midi":63,"velocity":0.7086614173228346,"hand":"L"},{"time":82727,"durationMs":455,"midi":86,"velocity":0.7086614173228346,"hand":"R"},{"time":83182,"durationMs":455,"midi":58,"velocity":0.7086614173228346,"hand":"L"},{"time":83182,"durationMs":455,"midi":63,"velocity":0.7086614173228346,"hand":"L"},{"time":83182,"durationMs":455,"midi":68,"velocity":0.7086614173228346,"hand":"L"},{"time":83182,"durationMs":455,"midi":85,"velocity":0.7086614173228346,"hand":"R"},{"time":83636,"durationMs":455,"midi":34,"velocity":0.7086614173228346,"hand":"L"},{"time":83636,"durationMs":114,"midi":84,"velocity":0.7086614173228346,"hand":"R"},{"time":83750,"durationMs":114,"midi":83,"velocity":0.7086614173228346,"hand":"R"},{"time":83864,"durationMs":114,"midi":82,"velocity":0.7086614173228346,"hand":"R"},{"time":83977,"durationMs":114,"midi":81,"velocity":0.7086614173228346,"hand":"R"},{"time":84091,"durationMs":455,"midi":53,"velocity":0.7086614173228346,"hand":"L"},{"time":84091,"durationMs":455,"midi":62,"velocity":0.7086614173228346,"hand":"L"},{"time":84091,"durationMs":114,"midi":80,"velocity":0.7086614173228346,"hand":"R"},{"time":84204,"durationMs":114,"midi":77,"velocity":0.7086614173228346,"hand":"R"},{"time":84318,"durationMs":114,"midi":74,"velocity":0.7086614173228346,"hand":"R"},{"time":84432,"durationMs":114,"midi":71,"velocity":0.7086614173228346,"hand":"R"},{"time":84545,"durationMs":455,"midi":58,"velocity":0.7086614173228346,"hand":"L"},{"time":84545,"durationMs":455,"midi":62,"velocity":0.7086614173228346,"hand":"L"},{"time":84545,"durationMs":455,"midi":68,"velocity":0.7086614173228346,"hand":"L"},{"time":84545,"durationMs":114,"midi":70,"velocity":0.7086614173228346,"hand":"R"},{"time":84659,"durationMs":114,"midi":74,"velocity":0.7086614173228346,"hand":"R"},{"time":84773,"durationMs":76,"midi":79,"velocity":0.7086614173228346,"hand":"R"},{"time":84848,"durationMs":76,"midi":77,"velocity":0.7086614173228346,"hand":"R"},{"time":84924,"durationMs":76,"midi":75,"velocity":0.7086614173228346,"hand":"R"},{"time":85000,"durationMs":455,"midi":39,"velocity":0.7086614173228346,"hand":"L"},{"time":85000,"durationMs":1818,"midi":75,"velocity":0.7086614173228346,"hand":"R"},{"time":85454,"durationMs":455,"midi":55,"velocity":0.7086614173228346,"hand":"L"},{"time":85454,"durationMs":455,"midi":63,"velocity":0.7086614173228346,"hand":"L"},{"time":85909,"durationMs":455,"midi":58,"velocity":0.7086614173228346,"hand":"L"},{"time":85909,"durationMs":455,"midi":67,"velocity":0.7086614173228346,"hand":"L"},{"time":86364,"durationMs":455,"midi":51,"velocity":0.7086614173228346,"hand":"L"},{"time":86818,"durationMs":455,"midi":55,"velocity":0.7086614173228346,"hand":"L"},{"time":86818,"durationMs":455,"midi":63,"velocity":0.7086614173228346,"hand":"L"},{"time":86818,"durationMs":455,"midi":74,"velocity":0.7086614173228346,"hand":"R"},{"time":87273,"durationMs":455,"midi":58,"velocity":0.7086614173228346,"hand":"L"},{"time":87273,"durationMs":455,"midi":67,"velocity":0.7086614173228346,"hand":"L"},{"time":87273,"durationMs":455,"midi":75,"velocity":0.7086614173228346,"hand":"R"},{"time":87727,"durationMs":455,"midi":46,"velocity":0.7086614173228346,"hand":"L"},{"time":87727,"durationMs":1364,"midi":77,"velocity":0.7086614173228346,"hand":"R"},{"time":88182,"durationMs":455,"midi":53,"velocity":0.7086614173228346,"hand":"L"},{"time":88182,"durationMs":455,"midi":62,"velocity":0.7086614173228346,"hand":"L"},{"time":88636,"durationMs":455,"midi":58,"velocity":0.7086614173228346,"hand":"L"},{"time":88636,"durationMs":455,"midi":62,"velocity":0.7086614173228346,"hand":"L"},{"time":88636,"durationMs":455,"midi":65,"velocity":0.7086614173228346,"hand":"L"},{"time":89091,"durationMs":455,"midi":46,"velocity":0.7086614173228346,"hand":"L"},{"time":89091,"durationMs":909,"midi":79,"velocity":0.7086614173228346,"hand":"R"},{"time":89545,"durationMs":455,"midi":53,"velocity":0.7086614173228346,"hand":"L"},{"time":89545,"durationMs":455,"midi":62,"velocity":0.7086614173228346,"hand":"L"},{"time":90000,"durationMs":455,"midi":58,"velocity":0.7086614173228346,"hand":"L"},{"time":90000,"durationMs":455,"midi":62,"velocity":0.7086614173228346,"hand":"L"},{"time":90000,"durationMs":455,"midi":65,"velocity":0.7086614173228346,"hand":"L"},{"time":90000,"durationMs":455,"midi":77,"velocity":0.7086614173228346,"hand":"R"},{"time":90454,"durationMs":455,"midi":45,"velocity":0.7086614173228346,"hand":"L"},{"time":90454,"durationMs":1364,"midi":77,"velocity":0.7086614173228346,"hand":"R"},{"time":90909,"durationMs":455,"midi":53,"velocity":0.7086614173228346,"hand":"L"},{"time":90909,"durationMs":455,"midi":60,"velocity":0.7086614173228346,"hand":"L"},{"time":91364,"durationMs":455,"midi":60,"velocity":0.7086614173228346,"hand":"L"},{"time":91364,"durationMs":455,"midi":65,"velocity":0.7086614173228346,"hand":"L"},{"time":91818,"durationMs":455,"midi":45,"velocity":0.7086614173228346,"hand":"L"},{"time":91818,"durationMs":1364,"midi":72,"velocity":0.7086614173228346,"hand":"R"},{"time":92273,"durationMs":455,"midi":53,"velocity":0.7086614173228346,"hand":"L"},{"time":92273,"durationMs":455,"midi":60,"velocity":0.7086614173228346,"hand":"L"},{"time":92727,"durationMs":455,"midi":60,"velocity":0.7086614173228346,"hand":"L"},{"time":92727,"durationMs":455,"midi":65,"velocity":0.7086614173228346,"hand":"L"},{"time":93182,"durationMs":455,"midi":44,"velocity":0.7086614173228346,"hand":"L"},{"time":93182,"durationMs":341,"midi":75,"velocity":0.7086614173228346,"hand":"R"},{"time":93523,"durationMs":341,"midi":75,"velocity":0.7086614173228346,"hand":"R"},{"time":93636,"durationMs":455,"midi":51,"velocity":0.7086614173228346,"hand":"L"},{"time":93636,"durationMs":455,"midi":60,"velocity":0.7086614173228346,"hand":"L"},{"time":93864,"durationMs":341,"midi":75,"velocity":0.7086614173228346,"hand":"R"},{"time":94091,"durationMs":455,"midi":56,"velocity":0.7086614173228346,"hand":"L"},{"time":94091,"durationMs":455,"midi":60,"velocity":0.7086614173228346,"hand":"L"},{"time":94091,"durationMs":455,"midi":63,"velocity":0.7086614173228346,"hand":"L"},{"time":94204,"durationMs":341,"midi":75,"velocity":0.7086614173228346,"hand":"R"},{"time":94545,"durationMs":455,"midi":32,"velocity":0.7086614173228346,"hand":"L"},{"time":94545,"durationMs":455,"midi":75,"velocity":0.7086614173228346,"hand":"R"},{"time":95000,"durationMs":455,"midi":51,"velocity":0.7086614173228346,"hand":"L"},{"time":95000,"durationMs":455,"midi":59,"velocity":0.7086614173228346,"hand":"L"},{"time":95000,"durationMs":227,"midi":74,"velocity":0.7086614173228346,"hand":"R"},{"time":95227,"durationMs":227,"midi":75,"velocity":0.7086614173228346,"hand":"R"},{"time":95454,"durationMs":455,"midi":56,"velocity":0.7086614173228346,"hand":"L"},{"time":95454,"durationMs":455,"midi":59,"velocity":0.7086614173228346,"hand":"L"},{"time":95454,"durationMs":455,"midi":63,"velocity":0.7086614173228346,"hand":"L"},{"time":95454,"durationMs":341,"midi":77,"velocity":0.7086614173228346,"hand":"R"},{"time":95795,"durationMs":114,"midi":75,"velocity":0.7086614173228346,"hand":"R"},{"time":95909,"durationMs":455,"midi":39,"velocity":0.7086614173228346,"hand":"L"},{"time":95909,"durationMs":1364,"midi":75,"velocity":0.7086614173228346,"hand":"R"},{"time":96364,"durationMs":455,"midi":55,"velocity":0.7086614173228346,"hand":"L"},{"time":96364,"durationMs":455,"midi":63,"velocity":0.7086614173228346,"hand":"L"},{"time":96818,"durationMs":455,"midi":58,"velocity":0.7086614173228346,"hand":"L"},{"time":96818,"durationMs":455,"midi":63,"velocity":0.7086614173228346,"hand":"L"},{"time":96818,"durationMs":455,"midi":67,"velocity":0.7086614173228346,"hand":"L"},{"time":97273,"durationMs":455,"midi":51,"velocity":0.7086614173228346,"hand":"L"},{"time":97273,"durationMs":1364,"midi":70,"velocity":0.7086614173228346,"hand":"R"},{"time":97727,"durationMs":455,"midi":55,"velocity":0.7086614173228346,"hand":"L"},{"time":97727,"durationMs":455,"midi":63,"velocity":0.7086614173228346,"hand":"L"},{"time":98182,"durationMs":455,"midi":58,"velocity":0.7086614173228346,"hand":"L"},{"time":98182,"durationMs":455,"midi":63,"velocity":0.7086614173228346,"hand":"L"},{"time":98182,"durationMs":455,"midi":67,"velocity":0.7086614173228346,"hand":"L"},{"time":98636,"durationMs":455,"midi":40,"velocity":0.7086614173228346,"hand":"L"},{"time":98636,"durationMs":1364,"midi":82,"velocity":0.7086614173228346,"hand":"R"},{"time":99091,"durationMs":455,"midi":52,"velocity":0.7086614173228346,"hand":"L"},{"time":99091,"durationMs":455,"midi":61,"velocity":0.7086614173228346,"hand":"L"},{"time":99545,"durationMs":455,"midi":58,"velocity":0.7086614173228346,"hand":"L"},{"time":99545,"durationMs":455,"midi":61,"velocity":0.7086614173228346,"hand":"L"},{"time":99545,"durationMs":455,"midi":67,"velocity":0.7086614173228346,"hand":"L"},{"time":100000,"durationMs":455,"midi":40,"velocity":0.7086614173228346,"hand":"L"},{"time":100000,"durationMs":909,"midi":81,"velocity":0.7086614173228346,"hand":"R"},{"time":100454,"durationMs":455,"midi":52,"velocity":0.7086614173228346,"hand":"L"},{"time":100454,"durationMs":455,"midi":60,"velocity":0.7086614173228346,"hand":"L"},{"time":100909,"durationMs":455,"midi":58,"velocity":0.7086614173228346,"hand":"L"},{"time":100909,"durationMs":455,"midi":60,"velocity":0.7086614173228346,"hand":"L"},{"time":100909,"durationMs":455,"midi":67,"velocity":0.7086614173228346,"hand":"L"},{"time":100909,"durationMs":455,"midi":79,"velocity":0.7086614173228346,"hand":"R"},{"time":101364,"durationMs":455,"midi":41,"velocity":0.7086614173228346,"hand":"L"},{"time":101364,"durationMs":1364,"midi":69,"velocity":0.7086614173228346,"hand":"R"},{"time":101364,"durationMs":1364,"midi":77,"velocity":0.7086614173228346,"hand":"R"},{"time":101818,"durationMs":455,"midi":53,"velocity":0.7086614173228346,"hand":"L"},{"time":101818,"durationMs":455,"midi":63,"velocity":0.7086614173228346,"hand":"L"},{"time":102273,"durationMs":455,"midi":60,"velocity":0.7086614173228346,"hand":"L"},{"time":102273,"durationMs":455,"midi":63,"velocity":0.7086614173228346,"hand":"L"},{"time":102273,"durationMs":455,"midi":69,"velocity":0.7086614173228346,"hand":"L"},{"time":102727,"durationMs":455,"midi":43,"velocity":0.7086614173228346,"hand":"L"},{"time":102727,"durationMs":1364,"midi":70,"velocity":0.7086614173228346,"hand":"R"},{"time":102727,"durationMs":1364,"midi":74,"velocity":0.7086614173228346,"hand":"R"},{"time":103182,"durationMs":455,"midi":55,"velocity":0.7086614173228346,"hand":"L"},{"time":103182,"durationMs":455,"midi":62,"velocity":0.7086614173228346,"hand":"L"},{"time":103636,"durationMs":455,"midi":58,"velocity":0.7086614173228346,"hand":"L"},{"time":103636,"durationMs":455,"midi":62,"velocity":0.7086614173228346,"hand":"L"},{"time":103636,"durationMs":455,"midi":70,"velocity":0.7086614173228346,"hand":"L"},{"time":104091,"durationMs":455,"midi":36,"velocity":0.7086614173228346,"hand":"L"},{"time":104091,"durationMs":1364,"midi":67,"velocity":0.7086614173228346,"hand":"R"},{"time":104091,"durationMs":1364,"midi":75,"velocity":0.7086614173228346,"hand":"R"},{"time":104545,"durationMs":455,"midi":55,"velocity":0.7086614173228346,"hand":"L"},{"time":104545,"durationMs":455,"midi":63,"velocity":0.7086614173228346,"hand":"L"},{"time":105000,"durationMs":455,"midi":60,"velocity":0.7086614173228346,"hand":"L"},{"time":105000,"durationMs":455,"midi":63,"velocity":0.7086614173228346,"hand":"L"},{"time":105000,"durationMs":455,"midi":67,"velocity":0.7086614173228346,"hand":"L"},{"time":105454,"durationMs":455,"midi":41,"velocity":0.7086614173228346,"hand":"L"},{"time":105454,"durationMs":455,"midi":69,"velocity":0.7086614173228346,"hand":"R"},{"time":105454,"durationMs":455,"midi":74,"velocity":0.7086614173228346,"hand":"R"},{"time":105909,"durationMs":455,"midi":53,"velocity":0.7086614173228346,"hand":"L"},{"time":105909,"durationMs":455,"midi":63,"velocity":0.7086614173228346,"hand":"L"},{"time":105909,"durationMs":455,"midi":69,"velocity":0.7086614173228346,"hand":"R"},{"time":105909,"durationMs":455,"midi":72,"velocity":0.7086614173228346,"hand":"R"},{"time":106364,"durationMs":455,"midi":60,"velocity":0.7086614173228346,"hand":"L"},{"time":106364,"durationMs":455,"midi":63,"velocity":0.7086614173228346,"hand":"L"},{"time":106364,"durationMs":455,"midi":65,"velocity":0.7086614173228346,"hand":"L"},{"time":106364,"durationMs":455,"midi":69,"velocity":0.7086614173228346,"hand":"R"},{"time":106364,"durationMs":455,"midi":74,"velocity":0.7086614173228346,"hand":"R"},{"time":106818,"durationMs":455,"midi":58,"velocity":0.7086614173228346,"hand":"L"},{"time":106818,"durationMs":455,"midi":62,"velocity":0.7086614173228346,"hand":"L"},{"time":106818,"durationMs":455,"midi":65,"velocity":0.7086614173228346,"hand":"R"},{"time":106818,"durationMs":455,"midi":70,"velocity":0.7086614173228346,"hand":"R"},{"time":107273,"durationMs":455,"midi":57,"velocity":0.7086614173228346,"hand":"L"},{"time":107273,"durationMs":455,"midi":63,"velocity":0.7086614173228346,"hand":"L"},{"time":107273,"durationMs":455,"midi":66,"velocity":0.7086614173228346,"hand":"R"},{"time":107273,"durationMs":455,"midi":71,"velocity":0.7086614173228346,"hand":"R"},{"time":107727,"durationMs":455,"midi":56,"velocity":0.7086614173228346,"hand":"L"},{"time":107727,"durationMs":455,"midi":64,"velocity":0.7086614173228346,"hand":"R"},{"time":107727,"durationMs":455,"midi":71,"velocity":0.7086614173228346,"hand":"R"},{"time":108182,"durationMs":455,"midi":55,"velocity":0.7086614173228346,"hand":"L"},{"time":108182,"durationMs":455,"midi":64,"velocity":0.7086614173228346,"hand":"R"},{"time":108182,"durationMs":455,"midi":70,"velocity":0.7086614173228346,"hand":"R"},{"time":108182,"durationMs":455,"midi":72,"velocity":0.7086614173228346,"hand":"R"},{"time":108636,"durationMs":455,"midi":53,"velocity":0.7086614173228346,"hand":"L"},{"time":108636,"durationMs":455,"midi":60,"velocity":0.7086614173228346,"hand":"L"},{"time":108636,"durationMs":455,"midi":63,"velocity":0.7086614173228346,"hand":"L"},{"time":108636,"durationMs":455,"midi":65,"velocity":0.7086614173228346,"hand":"R"},{"time":108636,"durationMs":455,"midi":69,"velocity":0.7086614173228346,"hand":"R"},{"time":108636,"durationMs":455,"midi":72,"velocity":0.7086614173228346,"hand":"R"},{"time":109091,"durationMs":455,"midi":58,"velocity":0.7086614173228346,"hand":"L"},{"time":109091,"durationMs":455,"midi":65,"velocity":0.7086614173228346,"hand":"L"},{"time":109091,"durationMs":301,"midi":68,"velocity":0.7086614173228346,"hand":"R"},{"time":109091,"durationMs":301,"midi":74,"velocity":0.7086614173228346,"hand":"R"},{"time":109391,"durationMs":50,"midi":67,"velocity":0.7086614173228346,"hand":"R"},{"time":109441,"durationMs":50,"midi":70,"velocity":0.7086614173228346,"hand":"R"},{"time":109493,"durationMs":50,"midi":75,"velocity":0.7086614173228346,"hand":"R"},{"time":109545,"durationMs":455,"midi":39,"velocity":0.7086614173228346,"hand":"L"},{"time":109545,"durationMs":909,"midi":79,"velocity":0.7086614173228346,"hand":"R"},{"time":110000,"durationMs":455,"midi":55,"velocity":0.7086614173228346,"hand":"L"},{"time":110000,"durationMs":455,"midi":63,"velocity":0.7086614173228346,"hand":"L"},{"time":110454,"durationMs":455,"midi":58,"velocity":0.7086614173228346,"hand":"L"},{"time":110454,"durationMs":455,"midi":63,"velocity":0.7086614173228346,"hand":"L"},{"time":110454,"durationMs":455,"midi":67,"velocity":0.7086614173228346,"hand":"L"},{"time":110454,"durationMs":227,"midi":69,"velocity":0.7086614173228346,"hand":"R"},{"time":110682,"durationMs":227,"midi":70,"velocity":0.7086614173228346,"hand":"R"},{"time":110909,"durationMs":455,"midi":51,"velocity":0.7086614173228346,"hand":"L"},{"time":110909,"durationMs":227,"midi":71,"velocity":0.7086614173228346,"hand":"R"},{"time":111136,"durationMs":227,"midi":70,"velocity":0.7086614173228346,"hand":"R"},{"time":111364,"durationMs":455,"midi":56,"velocity":0.7086614173228346,"hand":"L"},{"time":111364,"durationMs":455,"midi":62,"velocity":0.7086614173228346,"hand":"L"},{"time":111364,"durationMs":227,"midi":73,"velocity":0.7086614173228346,"hand":"R"},{"time":111591,"durationMs":227,"midi":74,"velocity":0.7086614173228346,"hand":"R"},{"time":111818,"durationMs":455,"midi":58,"velocity":0.7086614173228346,"hand":"L"},{"time":111818,"durationMs":455,"midi":62,"velocity":0.7086614173228346,"hand":"L"},{"time":111818,"durationMs":455,"midi":68,"velocity":0.7086614173228346,"hand":"L"},{"time":111818,"durationMs":341,"midi":79,"velocity":0.7086614173228346,"hand":"R"},{"time":112159,"durationMs":114,"midi":77,"velocity":0.7086614173228346,"hand":"R"},{"time":112273,"durationMs":455,"midi":51,"velocity":0.7086614173228346,"hand":"L"},{"time":112273,"durationMs":909,"midi":77,"velocity":0.7086614173228346,"hand":"R"},{"time":112727,"durationMs":455,"midi":55,"velocity":0.7086614173228346,"hand":"L"},{"time":112727,"durationMs":455,"midi":63,"velocity":0.7086614173228346,"hand":"L"},{"time":113182,"durationMs":455,"midi":58,"velocity":0.7086614173228346,"hand":"L"},{"time":113182,"durationMs":455,"midi":63,"velocity":0.7086614173228346,"hand":"L"},{"time":113182,"durationMs":455,"midi":67,"velocity":0.7086614173228346,"hand":"L"},{"time":113182,"durationMs":682,"midi":75,"velocity":0.7086614173228346,"hand":"R"},{"time":113636,"durationMs":455,"midi":50,"velocity":0.7086614173228346,"hand":"L"},{"time":113864,"durationMs":227,"midi":77,"velocity":0.7086614173228346,"hand":"R"},{"time":114091,"durationMs":455,"midi":55,"velocity":0.7086614173228346,"hand":"L"},{"time":114091,"durationMs":455,"midi":63,"velocity":0.7086614173228346,"hand":"L"},{"time":114091,"durationMs":227,"midi":75,"velocity":0.7086614173228346,"hand":"R"},{"time":114318,"durationMs":227,"midi":74,"velocity":0.7086614173228346,"hand":"R"},{"time":114545,"durationMs":455,"midi":58,"velocity":0.7086614173228346,"hand":"L"},{"time":114545,"durationMs":455,"midi":63,"velocity":0.7086614173228346,"hand":"L"},{"time":114545,"durationMs":455,"midi":67,"velocity":0.7086614173228346,"hand":"L"},{"time":114545,"durationMs":227,"midi":75,"velocity":0.7086614173228346,"hand":"R"},{"time":114773,"durationMs":227,"midi":77,"velocity":0.7086614173228346,"hand":"R"},{"time":115000,"durationMs":455,"midi":48,"velocity":0.7086614173228346,"hand":"L"},{"time":115000,"durationMs":227,"midi":79,"velocity":0.7086614173228346,"hand":"R"},{"time":115227,"durationMs":227,"midi":71,"velocity":0.7086614173228346,"hand":"R"},{"time":115454,"durationMs":455,"midi":55,"velocity":0.7086614173228346,"hand":"L"},{"time":115454,"durationMs":455,"midi":64,"velocity":0.7086614173228346,"hand":"L"},{"time":115454,"durationMs":227,"midi":72,"velocity":0.7086614173228346,"hand":"R"},{"time":115682,"durationMs":227,"midi":73,"velocity":0.7086614173228346,"hand":"R"},{"time":115909,"durationMs":455,"midi":58,"velocity":0.7086614173228346,"hand":"L"},{"time":115909,"durationMs":455,"midi":64,"velocity":0.7086614173228346,"hand":"L"},{"time":115909,"durationMs":455,"midi":67,"velocity":0.7086614173228346,"hand":"L"},{"time":115909,"durationMs":227,"midi":72,"velocity":0.7086614173228346,"hand":"R"},{"time":116136,"durationMs":227,"midi":77,"velocity":0.7086614173228346,"hand":"R"},{"time":116364,"durationMs":455,"midi":48,"velocity":0.7086614173228346,"hand":"L"},{"time":116364,"durationMs":227,"midi":76,"velocity":0.7086614173228346,"hand":"R"},{"time":116591,"durationMs":227,"midi":80,"velocity":0.7086614173228346,"hand":"R"},{"time":116818,"durationMs":455,"midi":55,"velocity":0.7086614173228346,"hand":"L"},{"time":116818,"durationMs":455,"midi":64,"velocity":0.7086614173228346,"hand":"L"},{"time":116818,"durationMs":227,"midi":79,"velocity":0.7086614173228346,"hand":"R"},{"time":117045,"durationMs":227,"midi":85,"velocity":0.7086614173228346,"hand":"R"},{"time":117273,"durationMs":455,"midi":60,"velocity":0.7086614173228346,"hand":"L"},{"time":117273,"durationMs":455,"midi":64,"velocity":0.7086614173228346,"hand":"L"},{"time":117273,"durationMs":455,"midi":70,"velocity":0.7086614173228346,"hand":"L"},{"time":117273,"durationMs":227,"midi":84,"velocity":0.7086614173228346,"hand":"R"},{"time":117500,"durationMs":123,"midi":79,"velocity":0.7086614173228346,"hand":"R"},{"time":117623,"durationMs":102,"midi":79,"velocity":0.7086614173228346,"hand":"R"},{"time":117727,"durationMs":455,"midi":41,"velocity":0.7086614173228346,"hand":"L"},{"time":117727,"durationMs":1364,"midi":82,"velocity":0.7086614173228346,"hand":"R"},{"time":118182,"durationMs":455,"midi":53,"velocity":0.7086614173228346,"hand":"L"},{"time":118182,"durationMs":455,"midi":58,"velocity":0.7086614173228346,"hand":"L"},{"time":118182,"durationMs":455,"midi":61,"velocity":0.7086614173228346,"hand":"L"},{"time":118636,"durationMs":455,"midi":58,"velocity":0.7086614173228346,"hand":"L"},{"time":118636,"durationMs":455,"midi":61,"velocity":0.7086614173228346,"hand":"L"},{"time":118636,"durationMs":455,"midi":64,"velocity":0.7086614173228346,"hand":"L"},{"time":119091,"durationMs":455,"midi":41,"velocity":0.7086614173228346,"hand":"L"},{"time":119091,"durationMs":909,"midi":80,"velocity":0.7086614173228346,"hand":"R"},{"time":119545,"durationMs":455,"midi":53,"velocity":0.7086614173228346,"hand":"L"},{"time":119545,"durationMs":455,"midi":60,"velocity":0.7086614173228346,"hand":"L"},{"time":120000,"durationMs":455,"midi":56,"velocity":0.7086614173228346,"hand":"L"},{"time":120000,"durationMs":455,"midi":60,"velocity":0.7086614173228346,"hand":"L"},{"time":120000,"durationMs":455,"midi":65,"velocity":0.7086614173228346,"hand":"L"},{"time":120000,"durationMs":455,"midi":79,"velocity":0.7086614173228346,"hand":"R"},{"time":120454,"durationMs":455,"midi":46,"velocity":0.7086614173228346,"hand":"L"},{"time":120454,"durationMs":1259,"midi":77,"velocity":0.7086614173228346,"hand":"R"},{"time":120909,"durationMs":455,"midi":53,"velocity":0.7086614173228346,"hand":"L"},{"time":120909,"durationMs":455,"midi":62,"velocity":0.7086614173228346,"hand":"L"},{"time":121364,"durationMs":455,"midi":58,"velocity":0.7086614173228346,"hand":"L"},{"time":121364,"durationMs":455,"midi":62,"velocity":0.7086614173228346,"hand":"L"},{"time":121364,"durationMs":455,"midi":68,"velocity":0.7086614173228346,"hand":"L"},{"time":121714,"durationMs":50,"midi":76,"velocity":0.7086614173228346,"hand":"R"},{"time":121766,"durationMs":50,"midi":77,"velocity":0.7086614173228346,"hand":"R"},{"time":121818,"durationMs":455,"midi":47,"velocity":0.7086614173228346,"hand":"L"},{"time":121818,"durationMs":455,"midi":79,"velocity":0.7086614173228346,"hand":"R"},{"time":122273,"durationMs":455,"midi":55,"velocity":0.7086614173228346,"hand":"L"},{"time":122273,"durationMs":455,"midi":65,"velocity":0.7086614173228346,"hand":"L"},{"time":122273,"durationMs":455,"midi":79,"velocity":0.7086614173228346,"hand":"R"},{"time":122727,"durationMs":455,"midi":62,"velocity":0.7086614173228346,"hand":"L"},{"time":122727,"durationMs":455,"midi":65,"velocity":0.7086614173228346,"hand":"L"},{"time":122727,"durationMs":455,"midi":67,"velocity":0.7086614173228346,"hand":"L"},{"time":122727,"durationMs":455,"midi":74,"velocity":0.7086614173228346,"hand":"R"},{"time":123182,"durationMs":455,"midi":48,"velocity":0.7086614173228346,"hand":"L"},{"time":123182,"durationMs":1364,"midi":75,"velocity":0.7086614173228346,"hand":"R"},{"time":123636,"durationMs":455,"midi":55,"velocity":0.7086614173228346,"hand":"L"},{"time":123636,"durationMs":455,"midi":63,"velocity":0.7086614173228346,"hand":"L"},{"time":124091,"durationMs":455,"midi":60,"velocity":0.7086614173228346,"hand":"L"},{"time":124091,"durationMs":455,"midi":63,"velocity":0.7086614173228346,"hand":"L"},{"time":124091,"durationMs":455,"midi":67,"velocity":0.7086614173228346,"hand":"L"},{"time":124545,"durationMs":455,"midi":45,"velocity":0.7086614173228346,"hand":"L"},{"time":124545,"durationMs":1364,"midi":72,"velocity":0.7086614173228346,"hand":"R"},{"time":125000,"durationMs":455,"midi":54,"velocity":0.7086614173228346,"hand":"L"},{"time":125000,"durationMs":455,"midi":63,"velocity":0.7086614173228346,"hand":"L"},{"time":125454,"durationMs":455,"midi":60,"velocity":0.7086614173228346,"hand":"L"},{"time":125454,"durationMs":455,"midi":63,"velocity":0.7086614173228346,"hand":"L"},{"time":125454,"durationMs":455,"midi":66,"velocity":0.7086614173228346,"hand":"L"},{"time":125909,"durationMs":455,"midi":46,"velocity":0.7086614173228346,"hand":"L"},{"time":125909,"durationMs":227,"midi":70,"velocity":0.7086614173228346,"hand":"R"},{"time":126136,"durationMs":455,"midi":86,"velocity":0.7086614173228346,"hand":"R"},{"time":126364,"durationMs":455,"midi":53,"velocity":0.7086614173228346,"hand":"L"},{"time":126364,"durationMs":455,"midi":63,"velocity":0.7086614173228346,"hand":"L"},{"time":126591,"durationMs":227,"midi":85,"velocity":0.7086614173228346,"hand":"R"},{"time":126818,"durationMs":455,"midi":58,"velocity":0.7086614173228346,"hand":"L"},{"time":126818,"durationMs":455,"midi":63,"velocity":0.7086614173228346,"hand":"L"},{"time":126818,"durationMs":455,"midi":68,"velocity":0.7086614173228346,"hand":"L"},{"time":126818,"durationMs":227,"midi":84,"velocity":0.7086614173228346,"hand":"R"},{"time":127045,"durationMs":114,"midi":83,"velocity":0.7086614173228346,"hand":"R"},{"time":127159,"durationMs":227,"midi":82,"velocity":0.7086614173228346,"hand":"R"},{"time":127273,"durationMs":455,"midi":34,"velocity":0.7086614173228346,"hand":"L"},{"time":127386,"durationMs":227,"midi":81,"velocity":0.7086614173228346,"hand":"R"},{"time":127614,"durationMs":114,"midi":80,"velocity":0.7086614173228346,"hand":"R"},{"time":127727,"durationMs":455,"midi":53,"velocity":0.7086614173228346,"hand":"L"},{"time":127727,"durationMs":455,"midi":62,"velocity":0.7086614173228346,"hand":"L"},{"time":127727,"durationMs":114,"midi":69,"velocity":0.7086614173228346,"hand":"R"},{"time":127841,"durationMs":114,"midi":70,"velocity":0.7086614173228346,"hand":"R"},{"time":127954,"durationMs":114,"midi":71,"velocity":0.7086614173228346,"hand":"R"},{"time":128068,"durationMs":114,"midi":72,"velocity":0.7086614173228346,"hand":"R"},{"time":128182,"durationMs":455,"midi":58,"velocity":0.7086614173228346,"hand":"L"},{"time":128182,"durationMs":455,"midi":62,"velocity":0.7086614173228346,"hand":"L"},{"time":128182,"durationMs":455,"midi":68,"velocity":0.7086614173228346,"hand":"L"},{"time":128182,"durationMs":114,"midi":73,"velocity":0.7086614173228346,"hand":"R"},{"time":128295,"durationMs":114,"midi":74,"velocity":0.7086614173228346,"hand":"R"},{"time":128409,"durationMs":76,"midi":79,"velocity":0.7086614173228346,"hand":"R"},{"time":128485,"durationMs":76,"midi":77,"velocity":0.7086614173228346,"hand":"R"},{"time":128560,"durationMs":76,"midi":75,"velocity":0.7086614173228346,"hand":"R"},{"time":128636,"durationMs":455,"midi":39,"velocity":0.7086614173228346,"hand":"L"},{"time":128636,"durationMs":2727,"midi":75,"velocity":0.7086614173228346,"hand":"R"},{"time":129091,"durationMs":455,"midi":55,"velocity":0.7086614173228346,"hand":"L"},{"time":129091,"durationMs":455,"midi":63,"velocity":0.7086614173228346,"hand":"L"},{"time":129545,"durationMs":455,"midi":58,"velocity":0.7086614173228346,"hand":"L"},{"time":129545,"durationMs":455,"midi":63,"velocity":0.7086614173228346,"hand":"L"},{"time":129545,"durationMs":455,"midi":67,"velocity":0.7086614173228346,"hand":"L"},{"time":130000,"durationMs":455,"midi":51,"velocity":0.7086614173228346,"hand":"L"},{"time":130454,"durationMs":455,"midi":55,"velocity":0.7086614173228346,"hand":"L"},{"time":130454,"durationMs":455,"midi":63,"velocity":0.7086614173228346,"hand":"L"},{"time":130909,"durationMs":455,"midi":58,"velocity":0.7086614173228346,"hand":"L"},{"time":130909,"durationMs":455,"midi":63,"velocity":0.7086614173228346,"hand":"L"},{"time":130909,"durationMs":455,"midi":67,"velocity":0.7086614173228346,"hand":"L"},{"time":131364,"durationMs":455,"midi":39,"velocity":0.7086614173228346,"hand":"L"},{"time":131364,"durationMs":1364,"midi":75,"velocity":0.7086614173228346,"hand":"R"},{"time":131818,"durationMs":455,"midi":56,"velocity":0.7086614173228346,"hand":"L"},{"time":131818,"durationMs":455,"midi":59,"velocity":0.7086614173228346,"hand":"L"},{"time":131818,"durationMs":455,"midi":63,"velocity":0.7086614173228346,"hand":"L"},{"time":132273,"durationMs":455,"midi":59,"velocity":0.7086614173228346,"hand":"L"},{"time":132273,"durationMs":455,"midi":63,"velocity":0.7086614173228346,"hand":"L"},{"time":132273,"durationMs":455,"midi":68,"velocity":0.7086614173228346,"hand":"L"},{"time":132727,"durationMs":455,"midi":51,"velocity":0.7086614173228346,"hand":"L"},{"time":132727,"durationMs":455,"midi":77,"velocity":0.7086614173228346,"hand":"R"},{"time":133182,"durationMs":455,"midi":56,"velocity":0.7086614173228346,"hand":"L"},{"time":133182,"durationMs":455,"midi":59,"velocity":0.7086614173228346,"hand":"L"},{"time":133182,"durationMs":455,"midi":63,"velocity":0.7086614173228346,"hand":"L"},{"time":133182,"durationMs":455,"midi":75,"velocity":0.7086614173228346,"hand":"R"},{"time":133636,"durationMs":455,"midi":59,"velocity":0.7086614173228346,"hand":"L"},{"time":133636,"durationMs":455,"midi":63,"velocity":0.7086614173228346,"hand":"L"},{"time":133636,"durationMs":455,"midi":68,"velocity":0.7086614173228346,"hand":"L"},{"time":133636,"durationMs":455,"midi":77,"velocity":0.7086614173228346,"hand":"R"},{"time":134091,"durationMs":455,"midi":39,"velocity":0.7086614173228346,"hand":"L"},{"time":134091,"durationMs":2727,"midi":79,"velocity":0.7086614173228346,"hand":"R"},{"time":134545,"durationMs":455,"midi":55,"velocity":0.7086614173228346,"hand":"L"},{"time":134545,"durationMs":455,"midi":63,"velocity":0.7086614173228346,"hand":"L"},{"time":135000,"durationMs":455,"midi":58,"velocity":0.7086614173228346,"hand":"L"},{"time":135000,"durationMs":455,"midi":63,"velocity":0.7086614173228346,"hand":"L"},{"time":135000,"durationMs":455,"midi":67,"velocity":0.7086614173228346,"hand":"L"},{"time":135454,"durationMs":455,"midi":51,"velocity":0.7086614173228346,"hand":"L"},{"time":135909,"durationMs":455,"midi":55,"velocity":0.7086614173228346,"hand":"L"},{"time":135909,"durationMs":455,"midi":63,"velocity":0.7086614173228346,"hand":"L"},{"time":136364,"durationMs":455,"midi":58,"velocity":0.7086614173228346,"hand":"L"},{"time":136364,"durationMs":455,"midi":63,"velocity":0.7086614173228346,"hand":"L"},{"time":136364,"durationMs":455,"midi":67,"velocity":0.7086614173228346,"hand":"L"},{"time":136818,"durationMs":455,"midi":39,"velocity":0.7086614173228346,"hand":"L"},{"time":136818,"durationMs":1591,"midi":75,"velocity":0.7086614173228346,"hand":"R"},{"time":137273,"durationMs":455,"midi":56,"velocity":0.7086614173228346,"hand":"L"},{"time":137273,"durationMs":455,"midi":59,"velocity":0.7086614173228346,"hand":"L"},{"time":137273,"durationMs":455,"midi":63,"velocity":0.7086614173228346,"hand":"L"},{"time":137727,"durationMs":455,"midi":59,"velocity":0.7086614173228346,"hand":"L"},{"time":137727,"durationMs":455,"midi":63,"velocity":0.7086614173228346,"hand":"L"},{"time":137727,"durationMs":455,"midi":68,"velocity":0.7086614173228346,"hand":"L"},{"time":138182,"durationMs":455,"midi":51,"velocity":0.7086614173228346,"hand":"L"},{"time":138409,"durationMs":227,"midi":77,"velocity":0.7086614173228346,"hand":"R"},{"time":138636,"durationMs":455,"midi":56,"velocity":0.7086614173228346,"hand":"L"},{"time":138636,"durationMs":455,"midi":59,"velocity":0.7086614173228346,"hand":"L"},{"time":138636,"durationMs":455,"midi":63,"velocity":0.7086614173228346,"hand":"L"},{"time":138636,"durationMs":227,"midi":75,"velocity":0.7086614173228346,"hand":"R"},{"time":138863,"durationMs":227,"midi":77,"velocity":0.7086614173228346,"hand":"R"},{"time":139091,"durationMs":455,"midi":59,"velocity":0.7086614173228346,"hand":"L"},{"time":139091,"durationMs":455,"midi":63,"velocity":0.7086614173228346,"hand":"L"},{"time":139091,"durationMs":455,"midi":68,"velocity":0.7086614173228346,"hand":"L"},{"time":139091,"durationMs":227,"midi":75,"velocity":0.7086614173228346,"hand":"R"},{"time":139318,"durationMs":227,"midi":77,"velocity":0.7086614173228346,"hand":"R"},{"time":139545,"durationMs":455,"midi":39,"velocity":0.7086614173228346,"hand":"L"},{"time":139545,"durationMs":909,"midi":79,"velocity":0.7086614173228346,"hand":"R"},{"time":140000,"durationMs":455,"midi":55,"velocity":0.7086614173228346,"hand":"L"},{"time":140000,"durationMs":455,"midi":58,"velocity":0.7086614173228346,"hand":"L"},{"time":140000,"durationMs":455,"midi":63,"velocity":0.7086614173228346,"hand":"L"},{"time":140454,"durationMs":455,"midi":58,"velocity":0.7086614173228346,"hand":"L"},{"time":140454,"durationMs":455,"midi":63,"velocity":0.7086614173228346,"hand":"L"},{"time":140454,"durationMs":455,"midi":67,"velocity":0.7086614173228346,"hand":"L"},{"time":140454,"durationMs":455,"midi":75,"velocity":0.7086614173228346,"hand":"R"},{"time":140909,"durationMs":455,"midi":51,"velocity":0.7086614173228346,"hand":"L"},{"time":140909,"durationMs":455,"midi":87,"velocity":0.7086614173228346,"hand":"R"},{"time":141363,"durationMs":455,"midi":55,"velocity":0.7086614173228346,"hand":"L"},{"time":141363,"durationMs":455,"midi":63,"velocity":0.7086614173228346,"hand":"L"},{"time":141363,"durationMs":455,"midi":86,"velocity":0.7086614173228346,"hand":"R"},{"time":141818,"durationMs":455,"midi":58,"velocity":0.7086614173228346,"hand":"L"},{"time":141818,"durationMs":455,"midi":63,"velocity":0.7086614173228346,"hand":"L"},{"time":141818,"durationMs":455,"midi":67,"velocity":0.7086614173228346,"hand":"L"},{"time":141818,"durationMs":455,"midi":84,"velocity":0.7086614173228346,"hand":"R"},{"time":142273,"durationMs":455,"midi":51,"velocity":0.7086614173228346,"hand":"L"},{"time":142273,"durationMs":909,"midi":82,"velocity":0.7086614173228346,"hand":"R"},{"time":142727,"durationMs":455,"midi":53,"velocity":0.7086614173228346,"hand":"L"},{"time":142727,"durationMs":455,"midi":62,"velocity":0.7086614173228346,"hand":"L"},{"time":143182,"durationMs":455,"midi":58,"velocity":0.7086614173228346,"hand":"L"},{"time":143182,"durationMs":455,"midi":68,"velocity":0.7086614173228346,"hand":"L"},{"time":143182,"durationMs":455,"midi":81,"velocity":0.7086614173228346,"hand":"R"},{"time":143636,"durationMs":455,"midi":51,"velocity":0.7086614173228346,"hand":"L"},{"time":143636,"durationMs":455,"midi":80,"velocity":0.7086614173228346,"hand":"R"},{"time":144091,"durationMs":455,"midi":53,"velocity":0.7086614173228346,"hand":"L"},{"time":144091,"durationMs":455,"midi":62,"velocity":0.7086614173228346,"hand":"L"},{"time":144091,"durationMs":455,"midi":72,"velocity":0.7086614173228346,"hand":"R"},{"time":144545,"durationMs":455,"midi":58,"velocity":0.7086614173228346,"hand":"L"},{"time":144545,"durationMs":455,"midi":68,"velocity":0.7086614173228346,"hand":"L"},{"time":144545,"durationMs":455,"midi":74,"velocity":0.7086614173228346,"hand":"R"},{"time":145000,"durationMs":455,"midi":51,"velocity":0.7086614173228346,"hand":"L"},{"time":145000,"durationMs":455,"midi":75,"velocity":0.7086614173228346,"hand":"R"},{"time":145454,"durationMs":455,"midi":55,"velocity":0.7086614173228346,"hand":"L"},{"time":145454,"durationMs":455,"midi":63,"velocity":0.7086614173228346,"hand":"L"},{"time":145454,"durationMs":227,"midi":77,"velocity":0.7086614173228346,"hand":"R"},{"time":145682,"durationMs":227,"midi":75,"velocity":0.7086614173228346,"hand":"R"},{"time":145909,"durationMs":455,"midi":58,"velocity":0.7086614173228346,"hand":"L"},{"time":145909,"durationMs":455,"midi":67,"velocity":0.7086614173228346,"hand":"L"},{"time":145909,"durationMs":227,"midi":74,"velocity":0.7086614173228346,"hand":"R"},{"time":146136,"durationMs":123,"midi":75,"velocity":0.7086614173228346,"hand":"R"},{"time":146259,"durationMs":102,"midi":75,"velocity":0.7086614173228346,"hand":"R"},{"time":146363,"durationMs":455,"midi":45,"velocity":0.7086614173228346,"hand":"L"},{"time":146363,"durationMs":455,"midi":91,"velocity":0.7086614173228346,"hand":"R"},{"time":146818,"durationMs":455,"midi":53,"velocity":0.7086614173228346,"hand":"L"},{"time":146818,"durationMs":455,"midi":63,"velocity":0.7086614173228346,"hand":"L"},{"time":146818,"durationMs":227,"midi":89,"velocity":0.7086614173228346,"hand":"R"},{"time":147045,"durationMs":227,"midi":87,"velocity":0.7086614173228346,"hand":"R"},{"time":147273,"durationMs":455,"midi":60,"velocity":0.7086614173228346,"hand":"L"},{"time":147273,"durationMs":455,"midi":63,"velocity":0.7086614173228346,"hand":"L"},{"time":147273,"durationMs":455,"midi":65,"velocity":0.7086614173228346,"hand":"L"},{"time":147273,"durationMs":227,"midi":86,"velocity":0.7086614173228346,"hand":"R"},{"time":147500,"durationMs":227,"midi":84,"velocity":0.7086614173228346,"hand":"R"},{"time":147727,"durationMs":455,"midi":46,"velocity":0.7086614173228346,"hand":"L"},{"time":147727,"durationMs":455,"midi":83,"velocity":0.7086614173228346,"hand":"R"},{"time":148182,"durationMs":455,"midi":53,"velocity":0.7086614173228346,"hand":"L"},{"time":148182,"durationMs":455,"midi":63,"velocity":0.7086614173228346,"hand":"L"},{"time":148182,"durationMs":455,"midi":82,"velocity":0.7086614173228346,"hand":"R"},{"time":148636,"durationMs":455,"midi":58,"velocity":0.7086614173228346,"hand":"L"},{"time":148636,"durationMs":455,"midi":63,"velocity":0.7086614173228346,"hand":"L"},{"time":148636,"durationMs":455,"midi":68,"velocity":0.7086614173228346,"hand":"L"},{"time":148636,"durationMs":455,"midi":81,"velocity":0.7086614173228346,"hand":"R"},{"time":149091,"durationMs":455,"midi":34,"velocity":0.7086614173228346,"hand":"L"},{"time":149091,"durationMs":227,"midi":81,"velocity":0.7086614173228346,"hand":"R"},{"time":149318,"durationMs":227,"midi":80,"velocity":0.7086614173228346,"hand":"R"},{"time":149545,"durationMs":455,"midi":53,"velocity":0.7086614173228346,"hand":"L"},{"time":149545,"durationMs":455,"midi":62,"velocity":0.7086614173228346,"hand":"L"},{"time":149545,"durationMs":227,"midi":80,"velocity":0.7086614173228346,"hand":"R"},{"time":149773,"durationMs":227,"midi":79,"velocity":0.7086614173228346,"hand":"R"},{"time":150000,"durationMs":455,"midi":58,"velocity":0.7086614173228346,"hand":"L"},{"time":150000,"durationMs":455,"midi":62,"velocity":0.7086614173228346,"hand":"L"},{"time":150000,"durationMs":455,"midi":68,"velocity":0.7086614173228346,"hand":"L"},{"time":150000,"durationMs":341,"midi":79,"velocity":0.7086614173228346,"hand":"R"},{"time":150341,"durationMs":114,"midi":77,"velocity":0.7086614173228346,"hand":"R"},{"time":150454,"durationMs":455,"midi":39,"velocity":0.7086614173228346,"hand":"L"},{"time":150454,"durationMs":2727,"midi":75,"velocity":0.7086614173228346,"hand":"R"},{"time":150909,"durationMs":455,"midi":55,"velocity":0.7086614173228346,"hand":"L"},{"time":150909,"durationMs":455,"midi":63,"velocity":0.7086614173228346,"hand":"L"},{"time":151363,"durationMs":455,"midi":58,"velocity":0.7086614173228346,"hand":"L"},{"time":151363,"durationMs":455,"midi":63,"velocity":0.7086614173228346,"hand":"L"},{"time":151363,"durationMs":455,"midi":67,"velocity":0.7086614173228346,"hand":"L"},{"time":151818,"durationMs":455,"midi":51,"velocity":0.7086614173228346,"hand":"L"},{"time":152273,"durationMs":455,"midi":55,"velocity":0.7086614173228346,"hand":"L"},{"time":152273,"durationMs":455,"midi":63,"velocity":0.7086614173228346,"hand":"L"},{"time":152727,"durationMs":455,"midi":58,"velocity":0.7086614173228346,"hand":"L"},{"time":152727,"durationMs":455,"midi":63,"velocity":0.7086614173228346,"hand":"L"},{"time":152727,"durationMs":455,"midi":67,"velocity":0.7086614173228346,"hand":"L"},{"time":153182,"durationMs":455,"midi":32,"velocity":0.7086614173228346,"hand":"L"},{"time":153182,"durationMs":1534,"midi":75,"velocity":0.7086614173228346,"hand":"R"},{"time":153636,"durationMs":455,"midi":51,"velocity":0.7086614173228346,"hand":"L"},{"time":153636,"durationMs":455,"midi":56,"velocity":0.7086614173228346,"hand":"L"},{"time":153636,"durationMs":455,"midi":59,"velocity":0.7086614173228346,"hand":"L"},{"time":154091,"durationMs":455,"midi":56,"velocity":0.7086614173228346,"hand":"L"},{"time":154091,"durationMs":455,"midi":59,"velocity":0.7086614173228346,"hand":"L"},{"time":154091,"durationMs":455,"midi":63,"velocity":0.7086614173228346,"hand":"L"},{"time":154545,"durationMs":455,"midi":59,"velocity":0.7086614173228346,"hand":"L"},{"time":154545,"durationMs":455,"midi":63,"velocity":0.7086614173228346,"hand":"L"},{"time":154545,"durationMs":455,"midi":68,"velocity":0.7086614173228346,"hand":"L"},{"time":154716,"durationMs":170,"midi":77,"velocity":0.7086614173228346,"hand":"R"},{"time":154886,"durationMs":170,"midi":75,"velocity":0.7086614173228346,"hand":"R"},{"time":155000,"durationMs":455,"midi":56,"velocity":0.7086614173228346,"hand":"L"},{"time":155000,"durationMs":455,"midi":59,"velocity":0.7086614173228346,"hand":"L"},{"time":155000,"durationMs":455,"midi":63,"velocity":0.7086614173228346,"hand":"L"},{"time":155057,"durationMs":170,"midi":77,"velocity":0.7086614173228346,"hand":"R"},{"time":155227,"durationMs":170,"midi":75,"velocity":0.7086614173228346,"hand":"R"},{"time":155398,"durationMs":170,"midi":77,"velocity":0.7086614173228346,"hand":"R"},{"time":155454,"durationMs":455,"midi":51,"velocity":0.7086614173228346,"hand":"L"},{"time":155454,"durationMs":455,"midi":56,"velocity":0.7086614173228346,"hand":"L"},{"time":155454,"durationMs":455,"midi":59,"velocity":0.7086614173228346,"hand":"L"},{"time":155568,"durationMs":170,"midi":75,"velocity":0.7086614173228346,"hand":"R"},{"time":155738,"durationMs":170,"midi":77,"velocity":0.7086614173228346,"hand":"R"},{"time":155909,"durationMs":455,"midi":39,"velocity":0.7086614173228346,"hand":"L"},{"time":155909,"durationMs":1364,"midi":79,"velocity":0.7086614173228346,"hand":"R"},{"time":156363,"durationMs":455,"midi":55,"velocity":0.7086614173228346,"hand":"L"},{"time":156363,"durationMs":455,"midi":63,"velocity":0.7086614173228346,"hand":"L"},{"time":156818,"durationMs":455,"midi":58,"velocity":0.7086614173228346,"hand":"L"},{"time":156818,"durationMs":455,"midi":63,"velocity":0.7086614173228346,"hand":"L"},{"time":156818,"durationMs":455,"midi":67,"velocity":0.7086614173228346,"hand":"L"},{"time":157273,"durationMs":455,"midi":51,"velocity":0.7086614173228346,"hand":"L"},{"time":157727,"durationMs":455,"midi":55,"velocity":0.7086614173228346,"hand":"L"},{"time":157727,"durationMs":455,"midi":63,"velocity":0.7086614173228346,"hand":"L"},{"time":158182,"durationMs":455,"midi":58,"velocity":0.7086614173228346,"hand":"L"},{"time":158182,"durationMs":455,"midi":63,"velocity":0.7086614173228346,"hand":"L"},{"time":158182,"durationMs":455,"midi":67,"velocity":0.7086614173228346,"hand":"L"},{"time":158636,"durationMs":455,"midi":32,"velocity":0.7086614173228346,"hand":"L"},{"time":158636,"durationMs":455,"midi":75,"velocity":0.7086614173228346,"hand":"R"},{"time":159091,"durationMs":455,"midi":51,"velocity":0.7086614173228346,"hand":"L"},{"time":159091,"durationMs":455,"midi":56,"velocity":0.7086614173228346,"hand":"L"},{"time":159091,"durationMs":455,"midi":59,"velocity":0.7086614173228346,"hand":"L"},{"time":159091,"durationMs":227,"midi":68,"velocity":0.7086614173228346,"hand":"R"},{"time":159318,"durationMs":227,"midi":70,"velocity":0.7086614173228346,"hand":"R"},{"time":159545,"durationMs":455,"midi":56,"velocity":0.7086614173228346,"hand":"L"},{"time":159545,"durationMs":455,"midi":59,"velocity":0.7086614173228346,"hand":"L"},{"time":159545,"durationMs":455,"midi":63,"velocity":0.7086614173228346,"hand":"L"},{"time":159545,"durationMs":227,"midi":68,"velocity":0.7086614173228346,"hand":"R"},{"time":159773,"durationMs":227,"midi":67,"velocity":0.7086614173228346,"hand":"R"},{"time":160000,"durationMs":455,"midi":51,"velocity":0.7086614173228346,"hand":"L"},{"time":160000,"durationMs":455,"midi":56,"velocity":0.7086614173228346,"hand":"L"},{"time":160000,"durationMs":455,"midi":59,"velocity":0.7086614173228346,"hand":"L"},{"time":160000,"durationMs":227,"midi":68,"velocity":0.7086614173228346,"hand":"R"},{"time":160227,"durationMs":227,"midi":71,"velocity":0.7086614173228346,"hand":"R"},{"time":160454,"durationMs":455,"midi":56,"velocity":0.7086614173228346,"hand":"L"},{"time":160454,"durationMs":455,"midi":59,"velocity":0.7086614173228346,"hand":"L"},{"time":160454,"durationMs":455,"midi":63,"velocity":0.7086614173228346,"hand":"L"},{"time":160454,"durationMs":227,"midi":75,"velocity":0.7086614173228346,"hand":"R"},{"time":160682,"durationMs":227,"midi":80,"velocity":0.7086614173228346,"hand":"R"},{"time":160909,"durationMs":455,"midi":51,"velocity":0.7086614173228346,"hand":"L"},{"time":160909,"durationMs":455,"midi":56,"velocity":0.7086614173228346,"hand":"L"},{"time":160909,"durationMs":455,"midi":59,"velocity":0.7086614173228346,"hand":"L"},{"time":160909,"durationMs":227,"midi":87,"velocity":0.7086614173228346,"hand":"R"},{"time":161250,"durationMs":114,"midi":89,"velocity":0.7086614173228346,"hand":"R"},{"time":161363,"durationMs":455,"midi":39,"velocity":0.7086614173228346,"hand":"L"},{"time":161363,"durationMs":455,"midi":91,"velocity":0.7086614173228346,"hand":"R"},{"time":161818,"durationMs":455,"midi":55,"velocity":0.7086614173228346,"hand":"L"},{"time":161818,"durationMs":455,"midi":63,"velocity":0.7086614173228346,"hand":"L"},{"time":161818,"durationMs":455,"midi":87,"velocity":0.7086614173228346,"hand":"R"},{"time":162273,"durationMs":455,"midi":58,"velocity":0.7086614173228346,"hand":"L"},{"time":162273,"durationMs":455,"midi":63,"velocity":0.7086614173228346,"hand":"L"},{"time":162273,"durationMs":455,"midi":67,"velocity":0.7086614173228346,"hand":"L"},{"time":162273,"durationMs":909,"midi":87,"velocity":0.7086614173228346,"hand":"R"},{"time":162273,"durationMs":909,"midi":99,"velocity":0.7086614173228346,"hand":"R"},{"time":162727,"durationMs":455,"midi":45,"velocity":0.7086614173228346,"hand":"L"},{"time":163182,"durationMs":455,"midi":53,"velocity":0.7086614173228346,"hand":"L"},{"time":163182,"durationMs":455,"midi":63,"velocity":0.7086614173228346,"hand":"L"},{"time":163182,"durationMs":455,"midi":86,"velocity":0.7086614173228346,"hand":"R"},{"time":163182,"durationMs":455,"midi":98,"velocity":0.7086614173228346,"hand":"R"},{"time":163636,"durationMs":455,"midi":59,"velocity":0.7086614173228346,"hand":"L"},{"time":163636,"durationMs":455,"midi":63,"velocity":0.7086614173228346,"hand":"L"},{"time":163636,"durationMs":455,"midi":65,"velocity":0.7086614173228346,"hand":"L"},{"time":163636,"durationMs":455,"midi":84,"velocity":0.7086614173228346,"hand":"R"},{"time":163636,"durationMs":455,"midi":96,"velocity":0.7086614173228346,"hand":"R"},{"time":164091,"durationMs":455,"midi":46,"velocity":0.7086614173228346,"hand":"L"},{"time":164091,"durationMs":455,"midi":83,"velocity":0.7086614173228346,"hand":"R"},{"time":164091,"durationMs":455,"midi":95,"velocity":0.7086614173228346,"hand":"R"},{"time":164545,"durationMs":455,"midi":53,"velocity":0.7086614173228346,"hand":"L"},{"time":164545,"durationMs":455,"midi":58,"velocity":0.7086614173228346,"hand":"L"},{"time":164545,"durationMs":455,"midi":63,"velocity":0.7086614173228346,"hand":"L"},{"time":164545,"durationMs":455,"midi":82,"velocity":0.7086614173228346,"hand":"R"},{"time":164545,"durationMs":455,"midi":94,"velocity":0.7086614173228346,"hand":"R"},{"time":165000,"durationMs":455,"midi":58,"velocity":0.7086614173228346,"hand":"L"},{"time":165000,"durationMs":455,"midi":63,"velocity":0.7086614173228346,"hand":"L"},{"time":165000,"durationMs":455,"midi":68,"velocity":0.7086614173228346,"hand":"L"},{"time":165000,"durationMs":455,"midi":81,"velocity":0.7086614173228346,"hand":"R"},{"time":165000,"durationMs":455,"midi":93,"velocity":0.7086614173228346,"hand":"R"},{"time":165454,"durationMs":455,"midi":47,"velocity":0.7086614173228346,"hand":"L"},{"time":165454,"durationMs":455,"midi":80,"velocity":0.7086614173228346,"hand":"R"},{"time":165454,"durationMs":455,"midi":92,"velocity":0.7086614173228346,"hand":"R"},{"time":165909,"durationMs":455,"midi":55,"velocity":0.7086614173228346,"hand":"L"},{"time":165909,"durationMs":455,"midi":65,"velocity":0.7086614173228346,"hand":"L"},{"time":165909,"durationMs":455,"midi":79,"velocity":0.7086614173228346,"hand":"R"},{"time":165909,"durationMs":455,"midi":91,"velocity":0.7086614173228346,"hand":"R"},{"time":166363,"durationMs":455,"midi":62,"velocity":0.7086614173228346,"hand":"L"},{"time":166363,"durationMs":455,"midi":65,"velocity":0.7086614173228346,"hand":"L"},{"time":166363,"durationMs":455,"midi":67,"velocity":0.7086614173228346,"hand":"L"},{"time":166363,"durationMs":455,"midi":74,"velocity":0.7086614173228346,"hand":"R"},{"time":166363,"durationMs":455,"midi":86,"velocity":0.7086614173228346,"hand":"R"},{"time":166818,"durationMs":455,"midi":48,"velocity":0.7086614173228346,"hand":"L"},{"time":166818,"durationMs":455,"midi":75,"velocity":0.7086614173228346,"hand":"R"},{"time":166818,"durationMs":455,"midi":87,"velocity":0.7086614173228346,"hand":"R"},{"time":167273,"durationMs":455,"midi":55,"velocity":0.7086614173228346,"hand":"L"},{"time":167273,"durationMs":455,"midi":63,"velocity":0.7086614173228346,"hand":"L"},{"time":167273,"durationMs":1364,"midi":87,"velocity":0.7086614173228346,"hand":"R"},{"time":167273,"durationMs":1364,"midi":99,"velocity":0.7086614173228346,"hand":"R"},{"time":167727,"durationMs":455,"midi":60,"velocity":0.7086614173228346,"hand":"L"},{"time":167727,"durationMs":455,"midi":67,"velocity":0.7086614173228346,"hand":"L"},{"time":168182,"durationMs":455,"midi":45,"velocity":0.7086614173228346,"hand":"L"},{"time":168636,"durationMs":909,"midi":53,"velocity":0.7086614173228346,"hand":"L"},{"time":168636,"durationMs":455,"midi":60,"velocity":0.7086614173228346,"hand":"L"},{"time":168636,"durationMs":455,"midi":63,"velocity":0.7086614173228346,"hand":"L"},{"time":168636,"durationMs":455,"midi":77,"velocity":0.7086614173228346,"hand":"R"},{"time":168636,"durationMs":455,"midi":89,"velocity":0.7086614173228346,"hand":"R"},{"time":169091,"durationMs":455,"midi":60,"velocity":0.7086614173228346,"hand":"L"},{"time":169091,"durationMs":455,"midi":63,"velocity":0.7086614173228346,"hand":"L"},{"time":169091,"durationMs":455,"midi":65,"velocity":0.7086614173228346,"hand":"L"},{"time":169091,"durationMs":455,"midi":84,"velocity":0.7086614173228346,"hand":"R"},{"time":169091,"durationMs":455,"midi":96,"velocity":0.7086614173228346,"hand":"R"},{"time":169545,"durationMs":455,"midi":34,"velocity":0.7086614173228346,"hand":"L"},{"time":169545,"durationMs":2727,"midi":83,"velocity":0.7086614173228346,"hand":"R"},{"time":169545,"durationMs":2727,"midi":95,"velocity":0.7086614173228346,"hand":"R"},{"time":170000,"durationMs":455,"midi":46,"velocity":0.7086614173228346,"hand":"L"},{"time":170454,"durationMs":455,"midi":53,"velocity":0.7086614173228346,"hand":"L"},{"time":170909,"durationMs":455,"midi":56,"velocity":0.7086614173228346,"hand":"L"},{"time":171363,"durationMs":455,"midi":62,"velocity":0.7086614173228346,"hand":"L"},{"time":171818,"durationMs":455,"midi":58,"velocity":0.7086614173228346,"hand":"L"},{"time":172273,"durationMs":455,"midi":65,"velocity":0.7086614173228346,"hand":"L"},{"time":172727,"durationMs":455,"midi":68,"velocity":0.7086614173228346,"hand":"L"},{"time":173182,"durationMs":2727,"midi":74,"velocity":0.7086614173228346,"hand":"L"},{"time":173182,"durationMs":2727,"midi":82,"velocity":0.7086614173228346,"hand":"R"},{"time":173182,"durationMs":2727,"midi":94,"velocity":0.7086614173228346,"hand":"R"},{"time":175909,"durationMs":227,"midi":95,"velocity":0.7086614173228346,"hand":"R"},{"time":176136,"durationMs":227,"midi":94,"velocity":0.7086614173228346,"hand":"R"},{"time":176363,"durationMs":227,"midi":96,"velocity":0.7086614173228346,"hand":"R"},{"time":176591,"durationMs":227,"midi":93,"velocity":0.7086614173228346,"hand":"R"},{"time":176818,"durationMs":227,"midi":95,"velocity":0.7086614173228346,"hand":"R"},{"time":177045,"durationMs":227,"midi":94,"velocity":0.7086614173228346,"hand":"R"},{"time":177273,"durationMs":227,"midi":96,"velocity":0.7086614173228346,"hand":"R"},{"time":177500,"durationMs":227,"midi":93,"velocity":0.7086614173228346,"hand":"R"},{"time":177727,"durationMs":227,"midi":95,"velocity":0.7086614173228346,"hand":"R"},{"time":177954,"durationMs":227,"midi":94,"velocity":0.7086614173228346,"hand":"R"},{"time":178182,"durationMs":227,"midi":96,"velocity":0.7086614173228346,"hand":"R"},{"time":178409,"durationMs":227,"midi":93,"velocity":0.7086614173228346,"hand":"R"},{"time":178636,"durationMs":227,"midi":95,"velocity":0.7086614173228346,"hand":"R"},{"time":178863,"durationMs":227,"midi":94,"velocity":0.7086614173228346,"hand":"R"},{"time":179091,"durationMs":227,"midi":96,"velocity":0.7086614173228346,"hand":"R"},{"time":179318,"durationMs":227,"midi":93,"velocity":0.7086614173228346,"hand":"R"},{"time":179545,"durationMs":227,"midi":95,"velocity":0.7086614173228346,"hand":"R"},{"time":179773,"durationMs":227,"midi":94,"velocity":0.7086614173228346,"hand":"R"},{"time":180000,"durationMs":227,"midi":96,"velocity":0.7086614173228346,"hand":"R"},{"time":180227,"durationMs":227,"midi":93,"velocity":0.7086614173228346,"hand":"R"},{"time":180454,"durationMs":227,"midi":95,"velocity":0.7086614173228346,"hand":"R"},{"time":180682,"durationMs":227,"midi":94,"velocity":0.7086614173228346,"hand":"R"},{"time":180909,"durationMs":227,"midi":96,"velocity":0.7086614173228346,"hand":"R"},{"time":181136,"durationMs":227,"midi":93,"velocity":0.7086614173228346,"hand":"R"},{"time":181363,"durationMs":227,"midi":95,"velocity":0.7086614173228346,"hand":"R"},{"time":181591,"durationMs":227,"midi":94,"velocity":0.7086614173228346,"hand":"R"},{"time":181818,"durationMs":227,"midi":96,"velocity":0.7086614173228346,"hand":"R"},{"time":182045,"durationMs":227,"midi":93,"velocity":0.7086614173228346,"hand":"R"},{"time":182273,"durationMs":227,"midi":95,"velocity":0.7086614173228346,"hand":"R"},{"time":182500,"durationMs":227,"midi":94,"velocity":0.7086614173228346,"hand":"R"},{"time":182727,"durationMs":227,"midi":96,"velocity":0.7086614173228346,"hand":"R"},{"time":182954,"durationMs":227,"midi":93,"velocity":0.7086614173228346,"hand":"R"},{"time":183182,"durationMs":227,"midi":95,"velocity":0.7086614173228346,"hand":"R"},{"time":183409,"durationMs":227,"midi":94,"velocity":0.7086614173228346,"hand":"R"},{"time":183636,"durationMs":227,"midi":96,"velocity":0.7086614173228346,"hand":"R"},{"time":183863,"durationMs":227,"midi":93,"velocity":0.7086614173228346,"hand":"R"},{"time":184091,"durationMs":227,"midi":95,"velocity":0.7086614173228346,"hand":"R"},{"time":184318,"durationMs":227,"midi":94,"velocity":0.7086614173228346,"hand":"R"},{"time":184545,"durationMs":227,"midi":96,"velocity":0.7086614173228346,"hand":"R"},{"time":184773,"durationMs":227,"midi":93,"velocity":0.7086614173228346,"hand":"R"},{"time":185000,"durationMs":227,"midi":95,"velocity":0.7086614173228346,"hand":"R"},{"time":185227,"durationMs":227,"midi":94,"velocity":0.7086614173228346,"hand":"R"},{"time":185454,"durationMs":227,"midi":96,"velocity":0.7086614173228346,"hand":"R"},{"time":185682,"durationMs":227,"midi":93,"velocity":0.7086614173228346,"hand":"R"},{"time":185909,"durationMs":227,"midi":95,"velocity":0.7086614173228346,"hand":"R"},{"time":186136,"durationMs":227,"midi":94,"velocity":0.7086614173228346,"hand":"R"},{"time":186363,"durationMs":227,"midi":96,"velocity":0.7086614173228346,"hand":"R"},{"time":186591,"durationMs":227,"midi":93,"velocity":0.7086614173228346,"hand":"R"},{"time":186818,"durationMs":227,"midi":95,"velocity":0.7086614173228346,"hand":"R"},{"time":187045,"durationMs":227,"midi":94,"velocity":0.7086614173228346,"hand":"R"},{"time":187273,"durationMs":227,"midi":98,"velocity":0.7086614173228346,"hand":"R"},{"time":187500,"durationMs":227,"midi":96,"velocity":0.7086614173228346,"hand":"R"},{"time":187727,"durationMs":227,"midi":94,"velocity":0.7086614173228346,"hand":"R"},{"time":187954,"durationMs":227,"midi":93,"velocity":0.7086614173228346,"hand":"R"},{"time":188182,"durationMs":227,"midi":92,"velocity":0.7086614173228346,"hand":"R"},{"time":188409,"durationMs":227,"midi":91,"velocity":0.7086614173228346,"hand":"R"},{"time":188636,"durationMs":227,"midi":89,"velocity":0.7086614173228346,"hand":"R"},{"time":188863,"durationMs":227,"midi":86,"velocity":0.7086614173228346,"hand":"R"},{"time":189091,"durationMs":227,"midi":87,"velocity":0.7086614173228346,"hand":"R"},{"time":189318,"durationMs":227,"midi":83,"velocity":0.7086614173228346,"hand":"R"},{"time":189545,"durationMs":455,"midi":82,"velocity":0.7086614173228346,"hand":"R"},{"time":190000,"durationMs":455,"midi":80,"velocity":0.7086614173228346,"hand":"R"},{"time":190454,"durationMs":455,"midi":72,"velocity":0.7086614173228346,"hand":"R"},{"time":190909,"durationMs":455,"midi":74,"velocity":0.7086614173228346,"hand":"R"},{"time":191363,"durationMs":455,"midi":39,"velocity":0.7086614173228346,"hand":"L"},{"time":191363,"durationMs":455,"midi":67,"velocity":0.7086614173228346,"hand":"R"},{"time":191363,"durationMs":455,"midi":75,"velocity":0.7086614173228346,"hand":"R"},{"time":191818,"durationMs":909,"midi":58,"velocity":0.7086614173228346,"hand":"L"},{"time":191818,"durationMs":455,"midi":70,"velocity":0.7086614173228346,"hand":"R"},{"time":192273,"durationMs":455,"midi":46,"velocity":0.7086614173228346,"hand":"L"},{"time":192273,"durationMs":455,"midi":79,"velocity":0.7086614173228346,"hand":"R"},{"time":192727,"durationMs":455,"midi":51,"velocity":0.7086614173228346,"hand":"L"},{"time":192727,"durationMs":455,"midi":67,"velocity":0.7086614173228346,"hand":"R"},{"time":192727,"durationMs":455,"midi":75,"velocity":0.7086614173228346,"hand":"R"},{"time":193182,"durationMs":909,"midi":58,"velocity":0.7086614173228346,"hand":"L"},{"time":193182,"durationMs":455,"midi":70,"velocity":0.7086614173228346,"hand":"R"},{"time":193636,"durationMs":455,"midi":46,"velocity":0.7086614173228346,"hand":"L"},{"time":193636,"durationMs":455,"midi":79,"velocity":0.7086614173228346,"hand":"R"},{"time":194091,"durationMs":455,"midi":39,"velocity":0.7086614173228346,"hand":"L"},{"time":194091,"durationMs":455,"midi":67,"velocity":0.7086614173228346,"hand":"R"},{"time":194091,"durationMs":455,"midi":75,"velocity":0.7086614173228346,"hand":"R"},{"time":194545,"durationMs":909,"midi":58,"velocity":0.7086614173228346,"hand":"L"},{"time":194545,"durationMs":455,"midi":70,"velocity":0.7086614173228346,"hand":"R"},{"time":195000,"durationMs":455,"midi":46,"velocity":0.7086614173228346,"hand":"L"},{"time":195000,"durationMs":455,"midi":79,"velocity":0.7086614173228346,"hand":"R"},{"time":195454,"durationMs":455,"midi":51,"velocity":0.7086614173228346,"hand":"L"},{"time":195454,"durationMs":455,"midi":67,"velocity":0.7086614173228346,"hand":"R"},{"time":195454,"durationMs":455,"midi":75,"velocity":0.7086614173228346,"hand":"R"},{"time":195909,"durationMs":2273,"midi":58,"velocity":0.7086614173228346,"hand":"L"},{"time":195909,"durationMs":455,"midi":70,"velocity":0.7086614173228346,"hand":"R"},{"time":196363,"durationMs":455,"midi":46,"velocity":0.7086614173228346,"hand":"L"},{"time":196363,"durationMs":455,"midi":79,"velocity":0.7086614173228346,"hand":"R"},{"time":196818,"durationMs":1364,"midi":51,"velocity":0.7086614173228346,"hand":"L"},{"time":196818,"durationMs":1364,"midi":67,"velocity":0.7086614173228346,"hand":"R"},{"time":196818,"durationMs":1364,"midi":75,"velocity":0.7086614173228346,"hand":"R"},{"time":198182,"durationMs":1364,"midi":63,"velocity":0.7086614173228346,"hand":"L"},{"time":198182,"durationMs":1364,"midi":70,"velocity":0.7086614173228346,"hand":"L"},{"time":198182,"durationMs":1364,"midi":79,"velocity":0.7086614173228346,"hand":"R"},{"time":198182,"durationMs":1364,"midi":87,"velocity":0.7086614173228346,"hand":"R"},{"time":199545,"durationMs":2727,"midi":39,"velocity":0.7086614173228346,"hand":"L"},{"time":199545,"durationMs":2727,"midi":46,"velocity":0.7086614173228346,"hand":"L"},{"time":199545,"durationMs":2727,"midi":55,"velocity":0.7086614173228346,"hand":"R"},{"time":199545,"durationMs":2727,"midi":63,"velocity":0.7086614173228346,"hand":"R"}]}
