{"meta":{"title":"Clair de Lune","bpm":60,"durationMs":322500},"notes":[{"time":500,"durationMs":4000,"midi":65,"velocity":0.7086614173228346,"hand":"L"},{"time":500,"durationMs":4000,"midi":68,"velocity":0.7086614173228346,"hand":"L"},{"time":1000,"durationMs":2000,"midi":77,"velocity":0.7086614173228346,"hand":"R"},{"time":1000,"durationMs":2000,"midi":80,"velocity":0.7086614173228346,"hand":"R"},{"time":3000,"durationMs":2000,"midi":73,"velocity":0.7086614173228346,"hand":"R"},{"time":3000,"durationMs":2000,"midi":77,"velocity":0.7086614173228346,"hand":"R"},{"time":4500,"durationMs":4500,"midi":66,"velocity":0.7086614173228346,"hand":"L"},{"time":4500,"durationMs":4500,"midi":69,"velocity":0.7086614173228346,"hand":"L"},{"time":5000,"durationMs":500,"midi":72,"velocity":0.7086614173228346,"hand":"R"},{"time":5000,"durationMs":500,"midi":75,"velocity":0.7086614173228346,"hand":"R"},{"time":5500,"durationMs":500,"midi":73,"velocity":0.7086614173228346,"hand":"R"},{"time":5500,"durationMs":500,"midi":77,"velocity":0.7086614173228346,"hand":"R"},{"time":6000,"durationMs":3500,"midi":72,"velocity":0.7086614173228346,"hand":"R"},{"time":6000,"durationMs":3500,"midi":75,"velocity":0.7086614173228346,"hand":"R"},{"time":9000,"durationMs":4500,"midi":65,"velocity":0.7086614173228346,"hand":"L"},{"time":9000,"durationMs":4500,"midi":68,"velocity":0.7086614173228346,"hand":"L"},{"time":9500,"durationMs":500,"midi":70,"velocity":0.7086614173228346,"hand":"R"},{"time":9500,"durationMs":500,"midi":73,"velocity":0.7086614173228346,"hand":"R"},{"time":10000,"durationMs":500,"midi":72,"velocity":0.7086614173228346,"hand":"R"},{"time":10000,"durationMs":500,"midi":75,"velocity":0.7086614173228346,"hand":"R"},{"time":10500,"durationMs":3500,"midi":70,"velocity":0.7086614173228346,"hand":"R"},{"time":10500,"durationMs":750,"midi":73,"velocity":0.7086614173228346,"hand":"R"},{"time":11250,"durationMs":1500,"midi":77,"velocity":0.7086614173228346,"hand":"R"},{"time":12750,"durationMs":1250,"midi":73,"velocity":0.7086614173228346,"hand":"R"},{"time":13500,"durationMs":4500,"midi":63,"velocity":0.7086614173228346,"hand":"L"},{"time":13500,"durationMs":4500,"midi":66,"velocity":0.7086614173228346,"hand":"L"},{"time":14000,"durationMs":500,"midi":68,"velocity":0.7086614173228346,"hand":"R"},{"time":14000,"durationMs":500,"midi":72,"velocity":0.7086614173228346,"hand":"R"},{"time":14500,"durationMs":500,"midi":70,"velocity":0.7086614173228346,"hand":"R"},{"time":14500,"durationMs":500,"midi":73,"velocity":0.7086614173228346,"hand":"R"},{"time":15000,"durationMs":3000,"midi":68,"velocity":0.7086614173228346,"hand":"R"},{"time":15000,"durationMs":3500,"midi":72,"velocity":0.7086614173228346,"hand":"R"},{"time":18000,"durationMs":3000,"midi":61,"velocity":0.7086614173228346,"hand":"L"},{"time":18000,"durationMs":3000,"midi":63,"velocity":0.7086614173228346,"hand":"L"},{"time":18000,"durationMs":3000,"midi":66,"velocity":0.7086614173228346,"hand":"R"},{"time":18500,"durationMs":500,"midi":70,"velocity":0.7086614173228346,"hand":"R"},{"time":19000,"durationMs":500,"midi":72,"velocity":0.7086614173228346,"hand":"R"},{"time":19500,"durationMs":500,"midi":70,"velocity":0.7086614173228346,"hand":"R"},{"time":20000,"durationMs":500,"midi":75,"velocity":0.7086614173228346,"hand":"R"},{"time":20500,"durationMs":500,"midi":70,"velocity":0.7086614173228346,"hand":"R"},{"time":21000,"durationMs":1500,"midi":60,"velocity":0.7086614173228346,"hand":"L"},{"time":21000,"durationMs":1500,"midi":63,"velocity":0.7086614173228346,"hand":"L"},{"time":21000,"durationMs":1500,"midi":66,"velocity":0.7086614173228346,"hand":"R"},{"time":21000,"durationMs":500,"midi":68,"velocity":0.7086614173228346,"hand":"R"},{"time":21500,"durationMs":500,"midi":70,"velocity":0.7086614173228346,"hand":"R"},{"time":22000,"durationMs":1000,"midi":68,"velocity":0.7086614173228346,"hand":"R"},{"time":22500,"durationMs":3000,"midi":58,"velocity":0.7086614173228346,"hand":"L"},{"time":22500,"durationMs":3000,"midi":61,"velocity":0.7086614173228346,"hand":"L"},{"time":22500,"durationMs":3000,"midi":63,"velocity":0.7086614173228346,"hand":"R"},{"time":23000,"durationMs":500,"midi":66,"velocity":0.7086614173228346,"hand":"R"},{"time":23500,"durationMs":500,"midi":68,"velocity":0.7086614173228346,"hand":"R"},{"time":24000,"durationMs":1500,"midi":66,"velocity":0.7086614173228346,"hand":"R"},{"time":25500,"durationMs":1500,"midi":57,"velocity":0.7086614173228346,"hand":"L"},{"time":25500,"durationMs":1500,"midi":60,"velocity":0.7086614173228346,"hand":"L"},{"time":25500,"durationMs":1500,"midi":63,"velocity":0.7086614173228346,"hand":"R"},{"time":25500,"durationMs":2000,"midi":65,"velocity":0.7086614173228346,"hand":"R"},{"time":27000,"durationMs":3000,"midi":56,"velocity":0.7086614173228346,"hand":"L"},{"time":27000,"durationMs":4500,"midi":58,"velocity":0.7086614173228346,"hand":"L"},{"time":27000,"durationMs":4500,"midi":61,"velocity":0.7086614173228346,"hand":"R"},{"time":27500,"durationMs":500,"midi":65,"velocity":0.7086614173228346,"hand":"R"},{"time":28000,"durationMs":500,"midi":66,"velocity":0.7086614173228346,"hand":"R"},{"time":28500,"durationMs":500,"midi":65,"velocity":0.7086614173228346,"hand":"R"},{"time":29000,"durationMs":500,"midi":70,"velocity":0.7086614173228346,"hand":"R"},{"time":29500,"durationMs":500,"midi":65,"velocity":0.7086614173228346,"hand":"R"},{"time":30000,"durationMs":1500,"midi":54,"velocity":0.7086614173228346,"hand":"L"},{"time":30000,"durationMs":500,"midi":63,"velocity":0.7086614173228346,"hand":"R"},{"time":30500,"durationMs":500,"midi":65,"velocity":0.7086614173228346,"hand":"R"},{"time":31000,"durationMs":1000,"midi":63,"velocity":0.7086614173228346,"hand":"R"},{"time":31500,"durationMs":3000,"midi":53,"velocity":0.7086614173228346,"hand":"L"},{"time":31500,"durationMs":3000,"midi":56,"velocity":0.7086614173228346,"hand":"L"},{"time":31500,"durationMs":3000,"midi":58,"velocity":0.7086614173228346,"hand":"R"},{"time":32000,"durationMs":500,"midi":61,"velocity":0.7086614173228346,"hand":"R"},{"time":32500,"durationMs":500,"midi":63,"velocity":0.7086614173228346,"hand":"R"},{"time":33000,"durationMs":1500,"midi":61,"velocity":0.7086614173228346,"hand":"R"},{"time":34500,"durationMs":750,"midi":51,"velocity":0.7086614173228346,"hand":"L"},{"time":34500,"durationMs":1500,"midi":54,"velocity":0.7086614173228346,"hand":"L"},{"time":34500,"durationMs":1500,"midi":56,"velocity":0.7086614173228346,"hand":"R"},{"time":34500,"durationMs":1500,"midi":60,"velocity":0.7086614173228346,"hand":"R"},{"time":35250,"durationMs":1250,"midi":44,"velocity":0.7086614173228346,"hand":"L"},{"time":36000,"durationMs":500,"midi":37,"velocity":0.7086614173228346,"hand":"L"},{"time":36500,"durationMs":1000,"midi":53,"velocity":0.7086614173228346,"hand":"R"},{"time":36500,"durationMs":1000,"midi":56,"velocity":0.7086614173228346,"hand":"R"},{"time":37000,"durationMs":3500,"midi":65,"velocity":0.7086614173228346,"hand":"L"},{"time":37000,"durationMs":3500,"midi":68,"velocity":0.7086614173228346,"hand":"L"},{"time":37500,"durationMs":1500,"midi":77,"velocity":0.7086614173228346,"hand":"R"},{"time":37500,"durationMs":1500,"midi":80,"velocity":0.7086614173228346,"hand":"R"},{"time":39000,"durationMs":2000,"midi":73,"velocity":0.7086614173228346,"hand":"R"},{"time":39000,"durationMs":2000,"midi":77,"velocity":0.7086614173228346,"hand":"R"},{"time":40500,"durationMs":3000,"midi":42,"velocity":0.7086614173228346,"hand":"L"},{"time":40500,"durationMs":4500,"midi":49,"velocity":0.7086614173228346,"hand":"L"},{"time":41000,"durationMs":4000,"midi":54,"velocity":0.7086614173228346,"hand":"L"},{"time":41000,"durationMs":4000,"midi":58,"velocity":0.7086614173228346,"hand":"L"},{"time":41000,"durationMs":4000,"midi":61,"velocity":0.7086614173228346,"hand":"L"},{"time":41000,"durationMs":4000,"midi":66,"velocity":0.7086614173228346,"hand":"R"},{"time":41000,"durationMs":4000,"midi":70,"velocity":0.7086614173228346,"hand":"R"},{"time":41000,"durationMs":500,"midi":75,"velocity":0.7086614173228346,"hand":"R"},{"time":41500,"durationMs":500,"midi":77,"velocity":0.7086614173228346,"hand":"R"},{"time":42000,"durationMs":3500,"midi":75,"velocity":0.7086614173228346,"hand":"R"},{"time":45000,"durationMs":3000,"midi":41,"velocity":0.7086614173228346,"hand":"L"},{"time":45000,"durationMs":3000,"midi":49,"velocity":0.7086614173228346,"hand":"L"},{"time":45500,"durationMs":1000,"midi":53,"velocity":0.7086614173228346,"hand":"L"},{"time":45500,"durationMs":1000,"midi":56,"velocity":0.7086614173228346,"hand":"L"},{"time":45500,"durationMs":500,"midi":61,"velocity":0.7086614173228346,"hand":"R"},{"time":45500,"durationMs":1000,"midi":68,"velocity":0.7086614173228346,"hand":"R"},{"time":45500,"durationMs":500,"midi":73,"velocity":0.7086614173228346,"hand":"R"},{"time":46000,"durationMs":500,"midi":63,"velocity":0.7086614173228346,"hand":"R"},{"time":46000,"durationMs":500,"midi":75,"velocity":0.7086614173228346,"hand":"R"},{"time":46500,"durationMs":1500,"midi":61,"velocity":0.7086614173228346,"hand":"L"},{"time":46500,"durationMs":1500,"midi":65,"velocity":0.7086614173228346,"hand":"L"},{"time":46500,"durationMs":1500,"midi":68,"velocity":0.7086614173228346,"hand":"R"},{"time":46500,"durationMs":1500,"midi":73,"velocity":0.7086614173228346,"hand":"R"},{"time":46500,"durationMs":1500,"midi":80,"velocity":0.7086614173228346,"hand":"R"},{"time":48000,"durationMs":1500,"midi":56,"velocity":0.7086614173228346,"hand":"L"},{"time":48000,"durationMs":1500,"midi":61,"velocity":0.7086614173228346,"hand":"L"},{"time":48000,"durationMs":1500,"midi":65,"velocity":0.7086614173228346,"hand":"R"},{"time":48000,"durationMs":1500,"midi":73,"velocity":0.7086614173228346,"hand":"R"},{"time":48000,"durationMs":2000,"midi":77,"velocity":0.7086614173228346,"hand":"R"},{"time":49500,"durationMs":3000,"midi":42,"velocity":0.7086614173228346,"hand":"L"},{"time":49500,"durationMs":4500,"midi":49,"velocity":0.7086614173228346,"hand":"L"},{"time":50000,"durationMs":4000,"midi":54,"velocity":0.7086614173228346,"hand":"L"},{"time":50000,"durationMs":4000,"midi":58,"velocity":0.7086614173228346,"hand":"L"},{"time":50000,"durationMs":4000,"midi":61,"velocity":0.7086614173228346,"hand":"L"},{"time":50000,"durationMs":4000,"midi":66,"velocity":0.7086614173228346,"hand":"R"},{"time":50000,"durationMs":4000,"midi":70,"velocity":0.7086614173228346,"hand":"R"},{"time":50000,"durationMs":500,"midi":75,"velocity":0.7086614173228346,"hand":"R"},{"time":50500,"durationMs":500,"midi":77,"velocity":0.7086614173228346,"hand":"R"},{"time":51000,"durationMs":1500,"midi":75,"velocity":0.7086614173228346,"hand":"R"},{"time":52500,"durationMs":2000,"midi":73,"velocity":0.7086614173228346,"hand":"R"},{"time":54000,"durationMs":4500,"midi":44,"velocity":0.7086614173228346,"hand":"L"},{"time":54500,"durationMs":1000,"midi":53,"velocity":0.7086614173228346,"hand":"L"},{"time":54500,"durationMs":1000,"midi":59,"velocity":0.7086614173228346,"hand":"L"},{"time":54500,"durationMs":500,"midi":61,"velocity":0.7086614173228346,"hand":"R"},{"time":54500,"durationMs":1000,"midi":68,"velocity":0.7086614173228346,"hand":"R"},{"time":54500,"durationMs":500,"midi":73,"velocity":0.7086614173228346,"hand":"R"},{"time":55000,"durationMs":500,"midi":63,"velocity":0.7086614173228346,"hand":"R"},{"time":55000,"durationMs":500,"midi":75,"velocity":0.7086614173228346,"hand":"R"},{"time":55500,"durationMs":2000,"midi":59,"velocity":0.7086614173228346,"hand":"L"},{"time":55500,"durationMs":2000,"midi":61,"velocity":0.7086614173228346,"hand":"L"},{"time":55500,"durationMs":2000,"midi":65,"velocity":0.7086614173228346,"hand":"L"},{"time":55500,"durationMs":750,"midi":70,"velocity":0.7086614173228346,"hand":"R"},{"time":55500,"durationMs":3000,"midi":77,"velocity":0.7086614173228346,"hand":"R"},{"time":55500,"durationMs":750,"midi":82,"velocity":0.7086614173228346,"hand":"R"},{"time":56250,"durationMs":1500,"midi":68,"velocity":0.7086614173228346,"hand":"R"},{"time":56250,"durationMs":1500,"midi":80,"velocity":0.7086614173228346,"hand":"R"},{"time":57750,"durationMs":750,"midi":65,"velocity":0.7086614173228346,"hand":"R"},{"time":58500,"durationMs":3000,"midi":46,"velocity":0.7086614173228346,"hand":"L"},{"time":58500,"durationMs":500,"midi":77,"velocity":0.7086614173228346,"hand":"R"},{"time":59000,"durationMs":4000,"midi":53,"velocity":0.7086614173228346,"hand":"L"},{"time":59000,"durationMs":4000,"midi":58,"velocity":0.7086614173228346,"hand":"L"},{"time":59000,"durationMs":1750,"midi":63,"velocity":0.7086614173228346,"hand":"L"},{"time":59000,"durationMs":4000,"midi":65,"velocity":0.7086614173228346,"hand":"R"},{"time":59000,"durationMs":4000,"midi":70,"velocity":0.7086614173228346,"hand":"R"},{"time":59000,"durationMs":500,"midi":75,"velocity":0.7086614173228346,"hand":"R"},{"time":59500,"durationMs":500,"midi":77,"velocity":0.7086614173228346,"hand":"R"},{"time":60000,"durationMs":750,"midi":75,"velocity":0.7086614173228346,"hand":"R"},{"time":60750,"durationMs":2250,"midi":61,"velocity":0.7086614173228346,"hand":"L"},{"time":60750,"durationMs":1500,"midi":73,"velocity":0.7086614173228346,"hand":"R"},{"time":63000,"durationMs":3000,"midi":27,"velocity":0.7086614173228346,"hand":"L"},{"time":63000,"durationMs":3000,"midi":39,"velocity":0.7086614173228346,"hand":"L"},{"time":63750,"durationMs":1250,"midi":65,"velocity":0.7086614173228346,"hand":"L"},{"time":63750,"durationMs":1250,"midi":66,"velocity":0.7086614173228346,"hand":"L"},{"time":63750,"durationMs":1250,"midi":70,"velocity":0.7086614173228346,"hand":"L"},{"time":63750,"durationMs":1250,"midi":77,"velocity":0.7086614173228346,"hand":"R"},{"time":63750,"durationMs":1250,"midi":82,"velocity":0.7086614173228346,"hand":"R"},{"time":63750,"durationMs":1250,"midi":89,"velocity":0.7086614173228346,"hand":"R"},{"time":65000,"durationMs":500,"midi":63,"velocity":0.7086614173228346,"hand":"L"},{"time":65000,"durationMs":500,"midi":66,"velocity":0.7086614173228346,"hand":"L"},{"time":65000,"durationMs":500,"midi":70,"velocity":0.7086614173228346,"hand":"L"},{"time":65000,"durationMs":500,"midi":75,"velocity":0.7086614173228346,"hand":"R"},{"time":65000,"durationMs":500,"midi":82,"velocity":0.7086614173228346,"hand":"R"},{"time":65000,"durationMs":500,"midi":87,"velocity":0.7086614173228346,"hand":"R"},{"time":65500,"durationMs":500,"midi":63,"velocity":0.7086614173228346,"hand":"L"},{"time":65500,"durationMs":500,"midi":66,"velocity":0.7086614173228346,"hand":"L"},{"time":65500,"durationMs":500,"midi":70,"velocity":0.7086614173228346,"hand":"L"},{"time":65500,"durationMs":500,"midi":75,"velocity":0.7086614173228346,"hand":"R"},{"time":65500,"durationMs":500,"midi":82,"velocity":0.7086614173228346,"hand":"R"},{"time":65500,"durationMs":500,"midi":87,"velocity":0.7086614173228346,"hand":"R"},{"time":66000,"durationMs":500,"midi":63,"velocity":0.7086614173228346,"hand":"L"},{"time":66000,"durationMs":500,"midi":66,"velocity":0.7086614173228346,"hand":"L"},{"time":66000,"durationMs":500,"midi":70,"velocity":0.7086614173228346,"hand":"L"},{"time":66000,"durationMs":500,"midi":75,"velocity":0.7086614173228346,"hand":"R"},{"time":66000,"durationMs":500,"midi":82,"velocity":0.7086614173228346,"hand":"R"},{"time":66000,"durationMs":500,"midi":87,"velocity":0.7086614173228346,"hand":"R"},{"time":66500,"durationMs":500,"midi":61,"velocity":0.7086614173228346,"hand":"L"},{"time":66500,"durationMs":500,"midi":66,"velocity":0.7086614173228346,"hand":"L"},{"time":66500,"durationMs":500,"midi":70,"velocity":0.7086614173228346,"hand":"L"},{"time":66500,"durationMs":500,"midi":73,"velocity":0.7086614173228346,"hand":"R"},{"time":66500,"durationMs":500,"midi":82,"velocity":0.7086614173228346,"hand":"R"},{"time":66500,"durationMs":500,"midi":85,"velocity":0.7086614173228346,"hand":"R"},{"time":67000,"durationMs":500,"midi":61,"velocity":0.7086614173228346,"hand":"L"},{"time":67000,"durationMs":500,"midi":66,"velocity":0.7086614173228346,"hand":"L"},{"time":67000,"durationMs":500,"midi":70,"velocity":0.7086614173228346,"hand":"L"},{"time":67000,"durationMs":500,"midi":73,"velocity":0.7086614173228346,"hand":"R"},{"time":67000,"durationMs":500,"midi":82,"velocity":0.7086614173228346,"hand":"R"},{"time":67000,"durationMs":500,"midi":85,"velocity":0.7086614173228346,"hand":"R"},{"time":67500,"durationMs":500,"midi":61,"velocity":0.7086614173228346,"hand":"L"},{"time":67500,"durationMs":500,"midi":66,"velocity":0.7086614173228346,"hand":"L"},{"time":67500,"durationMs":500,"midi":70,"velocity":0.7086614173228346,"hand":"L"},{"time":67500,"durationMs":500,"midi":73,"velocity":0.7086614173228346,"hand":"R"},{"time":67500,"durationMs":500,"midi":82,"velocity":0.7086614173228346,"hand":"R"},{"time":67500,"durationMs":500,"midi":85,"velocity":0.7086614173228346,"hand":"R"},{"time":68000,"durationMs":500,"midi":60,"velocity":0.7086614173228346,"hand":"L"},{"time":68000,"durationMs":500,"midi":66,"velocity":0.7086614173228346,"hand":"L"},{"time":68000,"durationMs":500,"midi":70,"velocity":0.7086614173228346,"hand":"L"},{"time":68000,"durationMs":500,"midi":72,"velocity":0.7086614173228346,"hand":"R"},{"time":68000,"durationMs":500,"midi":78,"velocity":0.7086614173228346,"hand":"R"},{"time":68000,"durationMs":500,"midi":82,"velocity":0.7086614173228346,"hand":"R"},{"time":68000,"durationMs":500,"midi":84,"velocity":0.7086614173228346,"hand":"R"},{"time":68500,"durationMs":500,"midi":60,"velocity":0.7086614173228346,"hand":"L"},{"time":68500,"durationMs":500,"midi":66,"velocity":0.7086614173228346,"hand":"L"},{"time":68500,"durationMs":500,"midi":70,"velocity":0.7086614173228346,"hand":"L"},{"time":68500,"durationMs":500,"midi":72,"velocity":0.7086614173228346,"hand":"R"},{"time":68500,"durationMs":500,"midi":78,"velocity":0.7086614173228346,"hand":"R"},{"time":68500,"durationMs":500,"midi":82,"velocity":0.7086614173228346,"hand":"R"},{"time":68500,"durationMs":500,"midi":84,"velocity":0.7086614173228346,"hand":"R"},{"time":69000,"durationMs":750,"midi":60,"velocity":0.7086614173228346,"hand":"L"},{"time":69000,"durationMs":750,"midi":66,"velocity":0.7086614173228346,"hand":"L"},{"time":69000,"durationMs":750,"midi":70,"velocity":0.7086614173228346,"hand":"L"},{"time":69000,"durationMs":750,"midi":72,"velocity":0.7086614173228346,"hand":"R"},{"time":69000,"durationMs":750,"midi":78,"velocity":0.7086614173228346,"hand":"R"},{"time":69000,"durationMs":750,"midi":82,"velocity":0.7086614173228346,"hand":"R"},{"time":69000,"durationMs":750,"midi":84,"velocity":0.7086614173228346,"hand":"R"},{"time":69750,"durationMs":750,"midi":61,"velocity":0.7086614173228346,"hand":"L"},{"time":69750,"durationMs":750,"midi":66,"velocity":0.7086614173228346,"hand":"L"},{"time":69750,"durationMs":750,"midi":70,"velocity":0.7086614173228346,"hand":"L"},{"time":69750,"durationMs":750,"midi":73,"velocity":0.7086614173228346,"hand":"R"},{"time":69750,"durationMs":750,"midi":82,"velocity":0.7086614173228346,"hand":"R"},{"time":69750,"durationMs":750,"midi":85,"velocity":0.7086614173228346,"hand":"R"},{"time":70500,"durationMs":1500,"midi":58,"velocity":0.7086614173228346,"hand":"L"},{"time":70500,"durationMs":1500,"midi":61,"velocity":0.7086614173228346,"hand":"L"},{"time":70500,"durationMs":1500,"midi":66,"velocity":0.7086614173228346,"hand":"L"},{"time":70500,"durationMs":1500,"midi":70,"velocity":0.7086614173228346,"hand":"R"},{"time":70500,"durationMs":1500,"midi":78,"velocity":0.7086614173228346,"hand":"R"},{"time":70500,"durationMs":1500,"midi":82,"velocity":0.7086614173228346,"hand":"R"},{"time":72000,"durationMs":3000,"midi":27,"velocity":0.7086614173228346,"hand":"L"},{"time":72000,"durationMs":3000,"midi":39,"velocity":0.7086614173228346,"hand":"L"},{"time":72000,"durationMs":3000,"midi":46,"velocity":0.7086614173228346,"hand":"L"},{"time":72750,"durationMs":1250,"midi":65,"velocity":0.7086614173228346,"hand":"L"},{"time":72750,"durationMs":1250,"midi":66,"velocity":0.7086614173228346,"hand":"L"},{"time":72750,"durationMs":1250,"midi":70,"velocity":0.7086614173228346,"hand":"L"},{"time":72750,"durationMs":1250,"midi":77,"velocity":0.7086614173228346,"hand":"R"},{"time":72750,"durationMs":1250,"midi":82,"velocity":0.7086614173228346,"hand":"R"},{"time":72750,"durationMs":1250,"midi":89,"velocity":0.7086614173228346,"hand":"R"},{"time":74000,"durationMs":500,"midi":66,"velocity":0.7086614173228346,"hand":"L"},{"time":74000,"durationMs":500,"midi":70,"velocity":0.7086614173228346,"hand":"L"},{"time":74000,"durationMs":500,"midi":75,"velocity":0.7086614173228346,"hand":"L"},{"time":74000,"durationMs":500,"midi":78,"velocity":0.7086614173228346,"hand":"R"},{"time":74000,"durationMs":500,"midi":82,"velocity":0.7086614173228346,"hand":"R"},{"time":74000,"durationMs":500,"midi":90,"velocity":0.7086614173228346,"hand":"R"},{"time":74500,"durationMs":500,"midi":65,"velocity":0.7086614173228346,"hand":"L"},{"time":74500,"durationMs":500,"midi":66,"velocity":0.7086614173228346,"hand":"L"},{"time":74500,"durationMs":500,"midi":70,"velocity":0.7086614173228346,"hand":"L"},{"time":74500,"durationMs":500,"midi":77,"velocity":0.7086614173228346,"hand":"R"},{"time":74500,"durationMs":500,"midi":82,"velocity":0.7086614173228346,"hand":"R"},{"time":74500,"durationMs":500,"midi":89,"velocity":0.7086614173228346,"hand":"R"},{"time":75000,"durationMs":500,"midi":63,"velocity":0.7086614173228346,"hand":"L"},{"time":75000,"durationMs":500,"midi":66,"velocity":0.7086614173228346,"hand":"L"},{"time":75000,"durationMs":500,"midi":70,"velocity":0.7086614173228346,"hand":"L"},{"time":75000,"durationMs":500,"midi":75,"velocity":0.7086614173228346,"hand":"R"},{"time":75000,"durationMs":500,"midi":82,"velocity":0.7086614173228346,"hand":"R"},{"time":75000,"durationMs":500,"midi":87,"velocity":0.7086614173228346,"hand":"R"},{"time":75500,"durationMs":500,"midi":65,"velocity":0.7086614173228346,"hand":"L"},{"time":75500,"durationMs":500,"midi":66,"velocity":0.7086614173228346,"hand":"L"},{"time":75500,"durationMs":500,"midi":70,"velocity":0.7086614173228346,"hand":"L"},{"time":75500,"durationMs":500,"midi":77,"velocity":0.7086614173228346,"hand":"R"},{"time":75500,"durationMs":500,"midi":82,"velocity":0.7086614173228346,"hand":"R"},{"time":75500,"durationMs":500,"midi":89,"velocity":0.7086614173228346,"hand":"R"},{"time":76000,"durationMs":500,"midi":63,"velocity":0.7086614173228346,"hand":"L"},{"time":76000,"durationMs":500,"midi":66,"velocity":0.7086614173228346,"hand":"L"},{"time":76000,"durationMs":500,"midi":70,"velocity":0.7086614173228346,"hand":"L"},{"time":76000,"durationMs":500,"midi":75,"velocity":0.7086614173228346,"hand":"R"},{"time":76000,"durationMs":500,"midi":82,"velocity":0.7086614173228346,"hand":"R"},{"time":76000,"durationMs":500,"midi":87,"velocity":0.7086614173228346,"hand":"R"},{"time":76500,"durationMs":500,"midi":61,"velocity":0.7086614173228346,"hand":"L"},{"time":76500,"durationMs":500,"midi":66,"velocity":0.7086614173228346,"hand":"L"},{"time":76500,"durationMs":500,"midi":70,"velocity":0.7086614173228346,"hand":"L"},{"time":76500,"durationMs":500,"midi":73,"velocity":0.7086614173228346,"hand":"R"},{"time":76500,"durationMs":500,"midi":82,"velocity":0.7086614173228346,"hand":"R"},{"time":76500,"durationMs":500,"midi":85,"velocity":0.7086614173228346,"hand":"R"},{"time":77000,"durationMs":500,"midi":63,"velocity":0.7086614173228346,"hand":"L"},{"time":77000,"durationMs":500,"midi":66,"velocity":0.7086614173228346,"hand":"L"},{"time":77000,"durationMs":500,"midi":70,"velocity":0.7086614173228346,"hand":"L"},{"time":77000,"durationMs":500,"midi":75,"velocity":0.7086614173228346,"hand":"R"},{"time":77000,"durationMs":500,"midi":82,"velocity":0.7086614173228346,"hand":"R"},{"time":77000,"durationMs":500,"midi":87,"velocity":0.7086614173228346,"hand":"R"},{"time":77500,"durationMs":500,"midi":61,"velocity":0.7086614173228346,"hand":"L"},{"time":77500,"durationMs":500,"midi":66,"velocity":0.7086614173228346,"hand":"L"},{"time":77500,"durationMs":500,"midi":70,"velocity":0.7086614173228346,"hand":"L"},{"time":77500,"durationMs":500,"midi":73,"velocity":0.7086614173228346,"hand":"R"},{"time":77500,"durationMs":500,"midi":82,"velocity":0.7086614173228346,"hand":"R"},{"time":77500,"durationMs":500,"midi":85,"velocity":0.7086614173228346,"hand":"R"},{"time":78000,"durationMs":750,"midi":60,"velocity":0.7086614173228346,"hand":"L"},{"time":78000,"durationMs":750,"midi":66,"velocity":0.7086614173228346,"hand":"L"},{"time":78000,"durationMs":750,"midi":70,"velocity":0.7086614173228346,"hand":"L"},{"time":78000,"durationMs":581,"midi":82,"velocity":0.7086614173228346,"hand":"R"},{"time":78000,"durationMs":581,"midi":84,"velocity":0.7086614173228346,"hand":"R"},{"time":78581,"durationMs":167,"midi":87,"velocity":0.7086614173228346,"hand":"R"},{"time":78750,"durationMs":750,"midi":61,"velocity":0.7086614173228346,"hand":"L"},{"time":78750,"durationMs":750,"midi":66,"velocity":0.7086614173228346,"hand":"L"},{"time":78750,"durationMs":750,"midi":70,"velocity":0.7086614173228346,"hand":"L"},{"time":78750,"durationMs":750,"midi":73,"velocity":0.7086614173228346,"hand":"R"},{"time":78750,"durationMs":750,"midi":82,"velocity":0.7086614173228346,"hand":"R"},{"time":78750,"durationMs":750,"midi":85,"velocity":0.7086614173228346,"hand":"R"},{"time":79500,"durationMs":1500,"midi":58,"velocity":0.7086614173228346,"hand":"L"},{"time":79500,"durationMs":1500,"midi":63,"velocity":0.7086614173228346,"hand":"L"},{"time":79500,"durationMs":1500,"midi":66,"velocity":0.7086614173228346,"hand":"L"},{"time":79500,"durationMs":2250,"midi":70,"velocity":0.7086614173228346,"hand":"R"},{"time":79500,"durationMs":2250,"midi":78,"velocity":0.7086614173228346,"hand":"R"},{"time":79500,"durationMs":2250,"midi":82,"velocity":0.7086614173228346,"hand":"R"},{"time":81000,"durationMs":3000,"midi":32,"velocity":0.7086614173228346,"hand":"L"},{"time":81000,"durationMs":3000,"midi":44,"velocity":0.7086614173228346,"hand":"L"},{"time":81750,"durationMs":750,"midi":54,"velocity":0.7086614173228346,"hand":"L"},{"time":81750,"durationMs":750,"midi":66,"velocity":0.7086614173228346,"hand":"R"},{"time":81750,"durationMs":750,"midi":78,"velocity":0.7086614173228346,"hand":"R"},{"time":82500,"durationMs":750,"midi":56,"velocity":0.7086614173228346,"hand":"L"},{"time":82500,"durationMs":1500,"midi":60,"velocity":0.7086614173228346,"hand":"L"},{"time":82500,"durationMs":1500,"midi":63,"velocity":0.7086614173228346,"hand":"L"},{"time":82500,"durationMs":750,"midi":68,"velocity":0.7086614173228346,"hand":"R"},{"time":82500,"durationMs":750,"midi":75,"velocity":0.7086614173228346,"hand":"R"},{"time":82500,"durationMs":750,"midi":80,"velocity":0.7086614173228346,"hand":"R"},{"time":83250,"durationMs":750,"midi":72,"velocity":0.7086614173228346,"hand":"R"},{"time":83250,"durationMs":750,"midi":84,"velocity":0.7086614173228346,"hand":"R"},{"time":84000,"durationMs":750,"midi":58,"velocity":0.7086614173228346,"hand":"L"},{"time":84000,"durationMs":1500,"midi":63,"velocity":0.7086614173228346,"hand":"L"},{"time":84000,"durationMs":1500,"midi":66,"velocity":0.7086614173228346,"hand":"L"},{"time":84000,"durationMs":750,"midi":70,"velocity":0.7086614173228346,"hand":"R"},{"time":84000,"durationMs":750,"midi":78,"velocity":0.7086614173228346,"hand":"R"},{"time":84000,"durationMs":750,"midi":82,"velocity":0.7086614173228346,"hand":"R"},{"time":84750,"durationMs":750,"midi":54,"velocity":0.7086614173228346,"hand":"L"},{"time":84750,"durationMs":750,"midi":66,"velocity":0.7086614173228346,"hand":"R"},{"time":84750,"durationMs":750,"midi":78,"velocity":0.7086614173228346,"hand":"R"},{"time":85500,"durationMs":3000,"midi":33,"velocity":0.7086614173228346,"hand":"L"},{"time":85500,"durationMs":3000,"midi":45,"velocity":0.7086614173228346,"hand":"L"},{"time":86000,"durationMs":500,"midi":54,"velocity":0.7086614173228346,"hand":"L"},{"time":86000,"durationMs":500,"midi":60,"velocity":0.7086614173228346,"hand":"L"},{"time":86000,"durationMs":500,"midi":63,"velocity":0.7086614173228346,"hand":"L"},{"time":86000,"durationMs":500,"midi":66,"velocity":0.7086614173228346,"hand":"R"},{"time":86000,"durationMs":500,"midi":72,"velocity":0.7086614173228346,"hand":"R"},{"time":86000,"durationMs":500,"midi":75,"velocity":0.7086614173228346,"hand":"R"},{"time":86000,"durationMs":500,"midi":78,"velocity":0.7086614173228346,"hand":"R"},{"time":86500,"durationMs":500,"midi":54,"velocity":0.7086614173228346,"hand":"L"},{"time":86500,"durationMs":500,"midi":60,"velocity":0.7086614173228346,"hand":"L"},{"time":86500,"durationMs":500,"midi":63,"velocity":0.7086614173228346,"hand":"L"},{"time":86500,"durationMs":500,"midi":66,"velocity":0.7086614173228346,"hand":"R"},{"time":86500,"durationMs":500,"midi":72,"velocity":0.7086614173228346,"hand":"R"},{"time":86500,"durationMs":500,"midi":75,"velocity":0.7086614173228346,"hand":"R"},{"time":86500,"durationMs":500,"midi":78,"velocity":0.7086614173228346,"hand":"R"},{"time":87000,"durationMs":500,"midi":54,"velocity":0.7086614173228346,"hand":"L"},{"time":87000,"durationMs":500,"midi":60,"velocity":0.7086614173228346,"hand":"L"},{"time":87000,"durationMs":500,"midi":63,"velocity":0.7086614173228346,"hand":"L"},{"time":87000,"durationMs":500,"midi":66,"velocity":0.7086614173228346,"hand":"R"},{"time":87000,"durationMs":500,"midi":72,"velocity":0.7086614173228346,"hand":"R"},{"time":87000,"durationMs":500,"midi":75,"velocity":0.7086614173228346,"hand":"R"},{"time":87000,"durationMs":500,"midi":78,"velocity":0.7086614173228346,"hand":"R"},{"time":87500,"durationMs":500,"midi":54,"velocity":0.7086614173228346,"hand":"L"},{"time":87500,"durationMs":500,"midi":60,"velocity":0.7086614173228346,"hand":"L"},{"time":87500,"durationMs":500,"midi":63,"velocity":0.7086614173228346,"hand":"L"},{"time":87500,"durationMs":500,"midi":66,"velocity":0.7086614173228346,"hand":"R"},{"time":87500,"durationMs":500,"midi":72,"velocity":0.7086614173228346,"hand":"R"},{"time":87500,"durationMs":500,"midi":75,"velocity":0.7086614173228346,"hand":"R"},{"time":87500,"durationMs":500,"midi":78,"velocity":0.7086614173228346,"hand":"R"},{"time":88000,"durationMs":500,"midi":56,"velocity":0.7086614173228346,"hand":"L"},{"time":88000,"durationMs":500,"midi":60,"velocity":0.7086614173228346,"hand":"L"},{"time":88000,"durationMs":500,"midi":63,"velocity":0.7086614173228346,"hand":"L"},{"time":88000,"durationMs":500,"midi":68,"velocity":0.7086614173228346,"hand":"R"},{"time":88000,"durationMs":500,"midi":72,"velocity":0.7086614173228346,"hand":"R"},{"time":88000,"durationMs":500,"midi":75,"velocity":0.7086614173228346,"hand":"R"},{"time":88000,"durationMs":500,"midi":80,"velocity":0.7086614173228346,"hand":"R"},{"time":88500,"durationMs":1500,"midi":54,"velocity":0.7086614173228346,"hand":"L"},{"time":88500,"durationMs":1500,"midi":60,"velocity":0.7086614173228346,"hand":"L"},{"time":88500,"durationMs":1500,"midi":63,"velocity":0.7086614173228346,"hand":"L"},{"time":88500,"durationMs":1500,"midi":66,"velocity":0.7086614173228346,"hand":"R"},{"time":88500,"durationMs":1500,"midi":72,"velocity":0.7086614173228346,"hand":"R"},{"time":88500,"durationMs":1500,"midi":75,"velocity":0.7086614173228346,"hand":"R"},{"time":88500,"durationMs":1500,"midi":78,"velocity":0.7086614173228346,"hand":"R"},{"time":90000,"durationMs":3000,"midi":34,"velocity":0.7086614173228346,"hand":"L"},{"time":90000,"durationMs":3000,"midi":46,"velocity":0.7086614173228346,"hand":"L"},{"time":90750,"durationMs":750,"midi":54,"velocity":0.7086614173228346,"hand":"L"},{"time":90750,"durationMs":1500,"midi":58,"velocity":0.7086614173228346,"hand":"L"},{"time":90750,"durationMs":1500,"midi":61,"velocity":0.7086614173228346,"hand":"L"},{"time":90750,"durationMs":750,"midi":66,"velocity":0.7086614173228346,"hand":"R"},{"time":90750,"durationMs":1500,"midi":73,"velocity":0.7086614173228346,"hand":"R"},{"time":90750,"durationMs":750,"midi":78,"velocity":0.7086614173228346,"hand":"R"},{"time":91500,"durationMs":750,"midi":56,"velocity":0.7086614173228346,"hand":"L"},{"time":91500,"durationMs":750,"midi":68,"velocity":0.7086614173228346,"hand":"R"},{"time":91500,"durationMs":750,"midi":80,"velocity":0.7086614173228346,"hand":"R"},{"time":92250,"durationMs":750,"midi":61,"velocity":0.7086614173228346,"hand":"L"},{"time":92250,"durationMs":750,"midi":73,"velocity":0.7086614173228346,"hand":"R"},{"time":92250,"durationMs":750,"midi":85,"velocity":0.7086614173228346,"hand":"R"},{"time":93000,"durationMs":750,"midi":58,"velocity":0.7086614173228346,"hand":"L"},{"time":93000,"durationMs":1500,"midi":61,"velocity":0.7086614173228346,"hand":"L"},{"time":93000,"durationMs":1500,"midi":66,"velocity":0.7086614173228346,"hand":"L"},{"time":93000,"durationMs":750,"midi":70,"velocity":0.7086614173228346,"hand":"R"},{"time":93000,"durationMs":1500,"midi":78,"velocity":0.7086614173228346,"hand":"R"},{"time":93000,"durationMs":750,"midi":82,"velocity":0.7086614173228346,"hand":"R"},{"time":93750,"durationMs":750,"midi":54,"velocity":0.7086614173228346,"hand":"L"},{"time":93750,"durationMs":750,"midi":66,"velocity":0.7086614173228346,"hand":"R"},{"time":94500,"durationMs":3000,"midi":32,"velocity":0.7086614173228346,"hand":"L"},{"time":94500,"durationMs":3000,"midi":44,"velocity":0.7086614173228346,"hand":"L"},{"time":95000,"durationMs":500,"midi":54,"velocity":0.7086614173228346,"hand":"L"},{"time":95000,"durationMs":500,"midi":58,"velocity":0.7086614173228346,"hand":"L"},{"time":95000,"durationMs":500,"midi":63,"velocity":0.7086614173228346,"hand":"L"},{"time":95000,"durationMs":500,"midi":66,"velocity":0.7086614173228346,"hand":"R"},{"time":95000,"durationMs":500,"midi":70,"velocity":0.7086614173228346,"hand":"R"},{"time":95000,"durationMs":500,"midi":75,"velocity":0.7086614173228346,"hand":"R"},{"time":95000,"durationMs":500,"midi":78,"velocity":0.7086614173228346,"hand":"R"},{"time":95500,"durationMs":500,"midi":54,"velocity":0.7086614173228346,"hand":"L"},{"time":95500,"durationMs":500,"midi":58,"velocity":0.7086614173228346,"hand":"L"},{"time":95500,"durationMs":500,"midi":63,"velocity":0.7086614173228346,"hand":"L"},{"time":95500,"durationMs":500,"midi":66,"velocity":0.7086614173228346,"hand":"R"},{"time":95500,"durationMs":500,"midi":70,"velocity":0.7086614173228346,"hand":"R"},{"time":95500,"durationMs":500,"midi":75,"velocity":0.7086614173228346,"hand":"R"},{"time":95500,"durationMs":500,"midi":78,"velocity":0.7086614173228346,"hand":"R"},{"time":96000,"durationMs":500,"midi":54,"velocity":0.7086614173228346,"hand":"L"},{"time":96000,"durationMs":500,"midi":58,"velocity":0.7086614173228346,"hand":"L"},{"time":96000,"durationMs":500,"midi":63,"velocity":0.7086614173228346,"hand":"L"},{"time":96000,"durationMs":500,"midi":66,"velocity":0.7086614173228346,"hand":"R"},{"time":96000,"durationMs":500,"midi":70,"velocity":0.7086614173228346,"hand":"R"},{"time":96000,"durationMs":500,"midi":75,"velocity":0.7086614173228346,"hand":"R"},{"time":96000,"durationMs":500,"midi":78,"velocity":0.7086614173228346,"hand":"R"},{"time":96500,"durationMs":500,"midi":54,"velocity":0.7086614173228346,"hand":"L"},{"time":96500,"durationMs":500,"midi":58,"velocity":0.7086614173228346,"hand":"L"},{"time":96500,"durationMs":500,"midi":63,"velocity":0.7086614173228346,"hand":"L"},{"time":96500,"durationMs":500,"midi":66,"velocity":0.7086614173228346,"hand":"R"},{"time":96500,"durationMs":500,"midi":70,"velocity":0.7086614173228346,"hand":"R"},{"time":96500,"durationMs":500,"midi":75,"velocity":0.7086614173228346,"hand":"R"},{"time":96500,"durationMs":500,"midi":78,"velocity":0.7086614173228346,"hand":"R"},{"time":97000,"durationMs":500,"midi":56,"velocity":0.7086614173228346,"hand":"L"},{"time":97000,"durationMs":500,"midi":60,"velocity":0.7086614173228346,"hand":"L"},{"time":97000,"durationMs":500,"midi":65,"velocity":0.7086614173228346,"hand":"L"},{"time":97000,"durationMs":500,"midi":68,"velocity":0.7086614173228346,"hand":"R"},{"time":97000,"durationMs":500,"midi":72,"velocity":0.7086614173228346,"hand":"R"},{"time":97000,"durationMs":500,"midi":77,"velocity":0.7086614173228346,"hand":"R"},{"time":97000,"durationMs":500,"midi":80,"velocity":0.7086614173228346,"hand":"R"},{"time":97500,"durationMs":1500,"midi":54,"velocity":0.7086614173228346,"hand":"L"},{"time":97500,"durationMs":1500,"midi":58,"velocity":0.7086614173228346,"hand":"L"},{"time":97500,"durationMs":1500,"midi":63,"velocity":0.7086614173228346,"hand":"L"},{"time":97500,"durationMs":1500,"midi":66,"velocity":0.7086614173228346,"hand":"R"},{"time":97500,"durationMs":1500,"midi":70,"velocity":0.7086614173228346,"hand":"R"},{"time":97500,"durationMs":1500,"midi":75,"velocity":0.7086614173228346,"hand":"R"},{"time":97500,"durationMs":1500,"midi":78,"velocity":0.7086614173228346,"hand":"R"},{"time":99000,"durationMs":3000,"midi":37,"velocity":0.7086614173228346,"hand":"L"},{"time":99000,"durationMs":3000,"midi":49,"velocity":0.7086614173228346,"hand":"L"},{"time":99750,"durationMs":750,"midi":54,"velocity":0.7086614173228346,"hand":"L"},{"time":99750,"durationMs":2250,"midi":58,"velocity":0.7086614173228346,"hand":"L"},{"time":99750,"durationMs":2250,"midi":61,"velocity":0.7086614173228346,"hand":"L"},{"time":99750,"durationMs":750,"midi":66,"velocity":0.7086614173228346,"hand":"R"},{"time":99750,"durationMs":2250,"midi":70,"velocity":0.7086614173228346,"hand":"R"},{"time":99750,"durationMs":2250,"midi":73,"velocity":0.7086614173228346,"hand":"R"},{"time":99750,"durationMs":750,"midi":78,"velocity":0.7086614173228346,"hand":"R"},{"time":100500,"durationMs":750,"midi":56,"velocity":0.7086614173228346,"hand":"L"},{"time":100500,"durationMs":750,"midi":68,"velocity":0.7086614173228346,"hand":"R"},{"time":100500,"durationMs":750,"midi":80,"velocity":0.7086614173228346,"hand":"R"},{"time":101250,"durationMs":750,"midi":63,"velocity":0.7086614173228346,"hand":"L"},{"time":101250,"durationMs":750,"midi":75,"velocity":0.7086614173228346,"hand":"R"},{"time":101250,"durationMs":750,"midi":87,"velocity":0.7086614173228346,"hand":"R"},{"time":102000,"durationMs":750,"midi":61,"velocity":0.7086614173228346,"hand":"L"},{"time":102000,"durationMs":1500,"midi":66,"velocity":0.7086614173228346,"hand":"L"},{"time":102000,"durationMs":1500,"midi":70,"velocity":0.7086614173228346,"hand":"L"},{"time":102000,"durationMs":750,"midi":73,"velocity":0.7086614173228346,"hand":"R"},{"time":102000,"durationMs":1500,"midi":78,"velocity":0.7086614173228346,"hand":"R"},{"time":102000,"durationMs":1500,"midi":82,"velocity":0.7086614173228346,"hand":"R"},{"time":102000,"durationMs":750,"midi":85,"velocity":0.7086614173228346,"hand":"R"},{"time":102750,"durationMs":750,"midi":58,"velocity":0.7086614173228346,"hand":"L"},{"time":102750,"durationMs":750,"midi":70,"velocity":0.7086614173228346,"hand":"R"},{"time":103500,"durationMs":3000,"midi":39,"velocity":0.7086614173228346,"hand":"L"},{"time":103500,"durationMs":3000,"midi":51,"velocity":0.7086614173228346,"hand":"L"},{"time":104000,"durationMs":500,"midi":58,"velocity":0.7086614173228346,"hand":"L"},{"time":104000,"durationMs":500,"midi":61,"velocity":0.7086614173228346,"hand":"L"},{"time":104000,"durationMs":500,"midi":66,"velocity":0.7086614173228346,"hand":"L"},{"time":104000,"durationMs":500,"midi":70,"velocity":0.7086614173228346,"hand":"R"},{"time":104000,"durationMs":500,"midi":78,"velocity":0.7086614173228346,"hand":"R"},{"time":104000,"durationMs":500,"midi":82,"velocity":0.7086614173228346,"hand":"R"},{"time":104500,"durationMs":500,"midi":58,"velocity":0.7086614173228346,"hand":"L"},{"time":104500,"durationMs":500,"midi":61,"velocity":0.7086614173228346,"hand":"L"},{"time":104500,"durationMs":500,"midi":66,"velocity":0.7086614173228346,"hand":"L"},{"time":104500,"durationMs":500,"midi":70,"velocity":0.7086614173228346,"hand":"R"},{"time":104500,"durationMs":500,"midi":78,"velocity":0.7086614173228346,"hand":"R"},{"time":104500,"durationMs":500,"midi":82,"velocity":0.7086614173228346,"hand":"R"},{"time":105000,"durationMs":500,"midi":58,"velocity":0.7086614173228346,"hand":"L"},{"time":105000,"durationMs":500,"midi":61,"velocity":0.7086614173228346,"hand":"L"},{"time":105000,"durationMs":500,"midi":66,"velocity":0.7086614173228346,"hand":"L"},{"time":105000,"durationMs":500,"midi":70,"velocity":0.7086614173228346,"hand":"R"},{"time":105000,"durationMs":500,"midi":78,"velocity":0.7086614173228346,"hand":"R"},{"time":105000,"durationMs":500,"midi":82,"velocity":0.7086614173228346,"hand":"R"},{"time":105500,"durationMs":500,"midi":58,"velocity":0.7086614173228346,"hand":"L"},{"time":105500,"durationMs":500,"midi":61,"velocity":0.7086614173228346,"hand":"L"},{"time":105500,"durationMs":500,"midi":66,"velocity":0.7086614173228346,"hand":"L"},{"time":105500,"durationMs":500,"midi":70,"velocity":0.7086614173228346,"hand":"R"},{"time":105500,"durationMs":500,"midi":78,"velocity":0.7086614173228346,"hand":"R"},{"time":105500,"durationMs":500,"midi":82,"velocity":0.7086614173228346,"hand":"R"},{"time":106000,"durationMs":500,"midi":60,"velocity":0.7086614173228346,"hand":"L"},{"time":106000,"durationMs":500,"midi":63,"velocity":0.7086614173228346,"hand":"L"},{"time":106000,"durationMs":500,"midi":68,"velocity":0.7086614173228346,"hand":"L"},{"time":106000,"durationMs":500,"midi":72,"velocity":0.7086614173228346,"hand":"R"},{"time":106000,"durationMs":500,"midi":80,"velocity":0.7086614173228346,"hand":"R"},{"time":106000,"durationMs":500,"midi":84,"velocity":0.7086614173228346,"hand":"R"},{"time":106500,"durationMs":500,"midi":58,"velocity":0.7086614173228346,"hand":"L"},{"time":106500,"durationMs":500,"midi":61,"velocity":0.7086614173228346,"hand":"L"},{"time":106500,"durationMs":500,"midi":66,"velocity":0.7086614173228346,"hand":"L"},{"time":106500,"durationMs":500,"midi":70,"velocity":0.7086614173228346,"hand":"R"},{"time":106500,"durationMs":500,"midi":78,"velocity":0.7086614173228346,"hand":"R"},{"time":106500,"durationMs":500,"midi":82,"velocity":0.7086614173228346,"hand":"R"},{"time":107000,"durationMs":500,"midi":61,"velocity":0.7086614173228346,"hand":"L"},{"time":107000,"durationMs":500,"midi":66,"velocity":0.7086614173228346,"hand":"L"},{"time":107000,"durationMs":500,"midi":70,"velocity":0.7086614173228346,"hand":"L"},{"time":107000,"durationMs":500,"midi":73,"velocity":0.7086614173228346,"hand":"R"},{"time":107000,"durationMs":500,"midi":82,"velocity":0.7086614173228346,"hand":"R"},{"time":107000,"durationMs":500,"midi":85,"velocity":0.7086614173228346,"hand":"R"},{"time":107500,"durationMs":500,"midi":63,"velocity":0.7086614173228346,"hand":"L"},{"time":107500,"durationMs":500,"midi":66,"velocity":0.7086614173228346,"hand":"L"},{"time":107500,"durationMs":500,"midi":70,"velocity":0.7086614173228346,"hand":"L"},{"time":107500,"durationMs":500,"midi":75,"velocity":0.7086614173228346,"hand":"R"},{"time":107500,"durationMs":500,"midi":82,"velocity":0.7086614173228346,"hand":"R"},{"time":107500,"durationMs":500,"midi":87,"velocity":0.7086614173228346,"hand":"R"},{"time":108000,"durationMs":3000,"midi":65,"velocity":0.7086614173228346,"hand":"L"},{"time":108000,"durationMs":3000,"midi":68,"velocity":0.7086614173228346,"hand":"L"},{"time":108000,"durationMs":3000,"midi":73,"velocity":0.7086614173228346,"hand":"L"},{"time":108000,"durationMs":3000,"midi":77,"velocity":0.7086614173228346,"hand":"L"},{"time":108000,"durationMs":3000,"midi":80,"velocity":0.7086614173228346,"hand":"R"},{"time":108000,"durationMs":3000,"midi":85,"velocity":0.7086614173228346,"hand":"R"},{"time":108000,"durationMs":3000,"midi":92,"velocity":0.7086614173228346,"hand":"R"},{"time":111000,"durationMs":1500,"midi":64,"velocity":0.7086614173228346,"hand":"L"},{"time":111000,"durationMs":1500,"midi":68,"velocity":0.7086614173228346,"hand":"L"},{"time":111000,"durationMs":1500,"midi":70,"velocity":0.7086614173228346,"hand":"L"},{"time":111000,"durationMs":1500,"midi":73,"velocity":0.7086614173228346,"hand":"L"},{"time":111000,"durationMs":1500,"midi":76,"velocity":0.7086614173228346,"hand":"L"},{"time":111000,"durationMs":1500,"midi":80,"velocity":0.7086614173228346,"hand":"R"},{"time":111000,"durationMs":1500,"midi":85,"velocity":0.7086614173228346,"hand":"R"},{"time":111000,"durationMs":1500,"midi":92,"velocity":0.7086614173228346,"hand":"R"},{"time":112500,"durationMs":3000,"midi":63,"velocity":0.7086614173228346,"hand":"L"},{"time":112500,"durationMs":3000,"midi":66,"velocity":0.7086614173228346,"hand":"L"},{"time":112500,"durationMs":3000,"midi":68,"velocity":0.7086614173228346,"hand":"L"},{"time":112500,"durationMs":3000,"midi":73,"velocity":0.7086614173228346,"hand":"L"},{"time":112500,"durationMs":3000,"midi":75,"velocity":0.7086614173228346,"hand":"L"},{"time":112500,"durationMs":3000,"midi":80,"velocity":0.7086614173228346,"hand":"R"},{"time":112500,"durationMs":3000,"midi":85,"velocity":0.7086614173228346,"hand":"R"},{"time":112500,"durationMs":3000,"midi":92,"velocity":0.7086614173228346,"hand":"R"},{"time":115500,"durationMs":1500,"midi":56,"velocity":0.7086614173228346,"hand":"L"},{"time":115500,"durationMs":1500,"midi":63,"velocity":0.7086614173228346,"hand":"L"},{"time":115500,"durationMs":1500,"midi":66,"velocity":0.7086614173228346,"hand":"L"},{"time":115500,"durationMs":1500,"midi":68,"velocity":0.7086614173228346,"hand":"R"},{"time":115500,"durationMs":1500,"midi":72,"velocity":0.7086614173228346,"hand":"L"},{"time":115500,"durationMs":1500,"midi":75,"velocity":0.7086614173228346,"hand":"R"},{"time":115500,"durationMs":1500,"midi":80,"velocity":0.7086614173228346,"hand":"R"},{"time":117000,"durationMs":1500,"midi":37,"velocity":0.7086614173228346,"hand":"L"},{"time":117000,"durationMs":3000,"midi":65,"velocity":0.7086614173228346,"hand":"R"},{"time":117000,"durationMs":3000,"midi":68,"velocity":0.7086614173228346,"hand":"R"},{"time":117250,"durationMs":250,"midi":44,"velocity":0.7086614173228346,"hand":"L"},{"time":117500,"durationMs":250,"midi":49,"velocity":0.7086614173228346,"hand":"L"},{"time":117750,"durationMs":250,"midi":53,"velocity":0.7086614173228346,"hand":"L"},{"time":118000,"durationMs":250,"midi":56,"velocity":0.7086614173228346,"hand":"R"},{"time":118250,"durationMs":250,"midi":61,"velocity":0.7086614173228346,"hand":"R"},{"time":118500,"durationMs":1500,"midi":41,"velocity":0.7086614173228346,"hand":"L"},{"time":118750,"durationMs":250,"midi":48,"velocity":0.7086614173228346,"hand":"L"},{"time":119000,"durationMs":250,"midi":53,"velocity":0.7086614173228346,"hand":"L"},{"time":119250,"durationMs":250,"midi":56,"velocity":0.7086614173228346,"hand":"R"},{"time":119500,"durationMs":250,"midi":60,"velocity":0.7086614173228346,"hand":"R"},{"time":120000,"durationMs":1500,"midi":44,"velocity":0.7086614173228346,"hand":"L"},{"time":120000,"durationMs":1000,"midi":68,"velocity":0.7086614173228346,"hand":"R"},{"time":120000,"durationMs":1000,"midi":71,"velocity":0.7086614173228346,"hand":"R"},{"time":120250,"durationMs":250,"midi":52,"velocity":0.7086614173228346,"hand":"L"},{"time":120500,"durationMs":250,"midi":56,"velocity":0.7086614173228346,"hand":"L"},{"time":120750,"durationMs":250,"midi":59,"velocity":0.7086614173228346,"hand":"R"},{"time":121000,"durationMs":250,"midi":64,"velocity":0.7086614173228346,"hand":"R"},{"time":121000,"durationMs":500,"midi":73,"velocity":0.7086614173228346,"hand":"R"},{"time":121250,"durationMs":250,"midi":68,"velocity":0.7086614173228346,"hand":"R"},{"time":121500,"durationMs":1500,"midi":37,"velocity":0.7086614173228346,"hand":"L"},{"time":121500,"durationMs":3000,"midi":65,"velocity":0.7086614173228346,"hand":"R"},{"time":121500,"durationMs":3000,"midi":68,"velocity":0.7086614173228346,"hand":"R"},{"time":121750,"durationMs":250,"midi":44,"velocity":0.7086614173228346,"hand":"L"},{"time":122000,"durationMs":250,"midi":49,"velocity":0.7086614173228346,"hand":"L"},{"time":122250,"durationMs":250,"midi":53,"velocity":0.7086614173228346,"hand":"L"},{"time":122500,"durationMs":250,"midi":56,"velocity":0.7086614173228346,"hand":"R"},{"time":122750,"durationMs":250,"midi":61,"velocity":0.7086614173228346,"hand":"R"},{"time":123000,"durationMs":1500,"midi":41,"velocity":0.7086614173228346,"hand":"L"},{"time":123250,"durationMs":250,"midi":48,"velocity":0.7086614173228346,"hand":"L"},{"time":123500,"durationMs":250,"midi":53,"velocity":0.7086614173228346,"hand":"L"},{"time":123750,"durationMs":250,"midi":56,"velocity":0.7086614173228346,"hand":"R"},{"time":124000,"durationMs":250,"midi":60,"velocity":0.7086614173228346,"hand":"R"},{"time":124500,"durationMs":1500,"midi":44,"velocity":0.7086614173228346,"hand":"L"},{"time":124500,"durationMs":1000,"midi":68,"velocity":0.7086614173228346,"hand":"R"},{"time":124500,"durationMs":1000,"midi":71,"velocity":0.7086614173228346,"hand":"R"},{"time":124750,"durationMs":250,"midi":52,"velocity":0.7086614173228346,"hand":"L"},{"time":125000,"durationMs":250,"midi":56,"velocity":0.7086614173228346,"hand":"L"},{"time":125250,"durationMs":250,"midi":59,"velocity":0.7086614173228346,"hand":"R"},{"time":125500,"durationMs":500,"midi":68,"velocity":0.7086614173228346,"hand":"R"},{"time":125750,"durationMs":250,"midi":64,"velocity":0.7086614173228346,"hand":"R"},{"time":126000,"durationMs":250,"midi":37,"velocity":0.7086614173228346,"hand":"L"},{"time":126000,"durationMs":1000,"midi":65,"velocity":0.7086614173228346,"hand":"R"},{"time":126000,"durationMs":1000,"midi":73,"velocity":0.7086614173228346,"hand":"R"},{"time":126250,"durationMs":250,"midi":44,"velocity":0.7086614173228346,"hand":"L"},{"time":126500,"durationMs":250,"midi":49,"velocity":0.7086614173228346,"hand":"L"},{"time":126750,"durationMs":250,"midi":53,"velocity":0.7086614173228346,"hand":"L"},{"time":127000,"durationMs":250,"midi":56,"velocity":0.7086614173228346,"hand":"L"},{"time":127000,"durationMs":500,"midi":68,"velocity":0.7086614173228346,"hand":"R"},{"time":127000,"durationMs":500,"midi":75,"velocity":0.7086614173228346,"hand":"R"},{"time":127250,"durationMs":250,"midi":61,"velocity":0.7086614173228346,"hand":"L"},{"time":127500,"durationMs":250,"midi":65,"velocity":0.7086614173228346,"hand":"L"},{"time":127500,"durationMs":1500,"midi":73,"velocity":0.7086614173228346,"hand":"R"},{"time":127500,"durationMs":1500,"midi":77,"velocity":0.7086614173228346,"hand":"R"},{"time":127750,"durationMs":250,"midi":68,"velocity":0.7086614173228346,"hand":"L"},{"time":128000,"durationMs":250,"midi":65,"velocity":0.7086614173228346,"hand":"L"},{"time":128250,"durationMs":250,"midi":61,"velocity":0.7086614173228346,"hand":"L"},{"time":128500,"durationMs":250,"midi":56,"velocity":0.7086614173228346,"hand":"L"},{"time":128750,"durationMs":250,"midi":53,"velocity":0.7086614173228346,"hand":"L"},{"time":129000,"durationMs":250,"midi":56,"velocity":0.7086614173228346,"hand":"L"},{"time":129000,"durationMs":1000,"midi":65,"velocity":0.7086614173228346,"hand":"R"},{"time":129000,"durationMs":1000,"midi":73,"velocity":0.7086614173228346,"hand":"R"},{"time":129250,"durationMs":250,"midi":53,"velocity":0.7086614173228346,"hand":"L"},{"time":129500,"durationMs":250,"midi":49,"velocity":0.7086614173228346,"hand":"L"},{"time":129750,"durationMs":250,"midi":44,"velocity":0.7086614173228346,"hand":"L"},{"time":130000,"durationMs":250,"midi":49,"velocity":0.7086614173228346,"hand":"L"},{"time":130000,"durationMs":500,"midi":73,"velocity":0.7086614173228346,"hand":"R"},{"time":130000,"durationMs":500,"midi":77,"velocity":0.7086614173228346,"hand":"R"},{"time":130250,"durationMs":250,"midi":44,"velocity":0.7086614173228346,"hand":"L"},{"time":130500,"durationMs":250,"midi":39,"velocity":0.7086614173228346,"hand":"L"},{"time":130500,"durationMs":500,"midi":75,"velocity":0.7086614173228346,"hand":"R"},{"time":130500,"durationMs":500,"midi":79,"velocity":0.7086614173228346,"hand":"R"},{"time":130750,"durationMs":250,"midi":46,"velocity":0.7086614173228346,"hand":"L"},{"time":131000,"durationMs":250,"midi":51,"velocity":0.7086614173228346,"hand":"L"},{"time":131000,"durationMs":500,"midi":73,"velocity":0.7086614173228346,"hand":"R"},{"time":131000,"durationMs":500,"midi":77,"velocity":0.7086614173228346,"hand":"R"},{"time":131250,"durationMs":250,"midi":55,"velocity":0.7086614173228346,"hand":"L"},{"time":131500,"durationMs":250,"midi":58,"velocity":0.7086614173228346,"hand":"L"},{"time":131500,"durationMs":500,"midi":70,"velocity":0.7086614173228346,"hand":"R"},{"time":131500,"durationMs":500,"midi":73,"velocity":0.7086614173228346,"hand":"R"},{"time":131750,"durationMs":250,"midi":63,"velocity":0.7086614173228346,"hand":"L"},{"time":132000,"durationMs":500,"midi":67,"velocity":0.7086614173228346,"hand":"L"},{"time":132000,"durationMs":1500,"midi":70,"velocity":0.7086614173228346,"hand":"R"},{"time":132000,"durationMs":1500,"midi":73,"velocity":0.7086614173228346,"hand":"R"},{"time":132250,"durationMs":250,"midi":63,"velocity":0.7086614173228346,"hand":"L"},{"time":132500,"durationMs":250,"midi":58,"velocity":0.7086614173228346,"hand":"L"},{"time":132500,"durationMs":500,"midi":65,"velocity":0.7086614173228346,"hand":"R"},{"time":132750,"durationMs":250,"midi":55,"velocity":0.7086614173228346,"hand":"L"},{"time":133000,"durationMs":250,"midi":51,"velocity":0.7086614173228346,"hand":"L"},{"time":133000,"durationMs":500,"midi":61,"velocity":0.7086614173228346,"hand":"R"},{"time":133250,"durationMs":250,"midi":46,"velocity":0.7086614173228346,"hand":"L"},{"time":133500,"durationMs":250,"midi":39,"velocity":0.7086614173228346,"hand":"L"},{"time":133500,"durationMs":750,"midi":61,"velocity":0.7086614173228346,"hand":"R"},{"time":133750,"durationMs":250,"midi":46,"velocity":0.7086614173228346,"hand":"L"},{"time":134000,"durationMs":250,"midi":51,"velocity":0.7086614173228346,"hand":"L"},{"time":134250,"durationMs":250,"midi":55,"velocity":0.7086614173228346,"hand":"L"},{"time":134250,"durationMs":750,"midi":58,"velocity":0.7086614173228346,"hand":"R"},{"time":134500,"durationMs":250,"midi":51,"velocity":0.7086614173228346,"hand":"L"},{"time":134750,"durationMs":250,"midi":46,"velocity":0.7086614173228346,"hand":"L"},{"time":135000,"durationMs":1500,"midi":44,"velocity":0.7086614173228346,"hand":"L"},{"time":135000,"durationMs":3000,"midi":70,"velocity":0.7086614173228346,"hand":"R"},{"time":135250,"durationMs":250,"midi":51,"velocity":0.7086614173228346,"hand":"L"},{"time":135500,"durationMs":250,"midi":54,"velocity":0.7086614173228346,"hand":"L"},{"time":135750,"durationMs":250,"midi":58,"velocity":0.7086614173228346,"hand":"L"},{"time":136000,"durationMs":250,"midi":60,"velocity":0.7086614173228346,"hand":"R"},{"time":136250,"durationMs":250,"midi":66,"velocity":0.7086614173228346,"hand":"R"},{"time":136500,"durationMs":1500,"midi":42,"velocity":0.7086614173228346,"hand":"L"},{"time":136750,"durationMs":250,"midi":49,"velocity":0.7086614173228346,"hand":"L"},{"time":137000,"durationMs":250,"midi":54,"velocity":0.7086614173228346,"hand":"L"},{"time":137250,"durationMs":250,"midi":58,"velocity":0.7086614173228346,"hand":"L"},{"time":137500,"durationMs":250,"midi":61,"velocity":0.7086614173228346,"hand":"R"},{"time":137750,"durationMs":250,"midi":66,"velocity":0.7086614173228346,"hand":"R"},{"time":138000,"durationMs":1500,"midi":41,"velocity":0.7086614173228346,"hand":"L"},{"time":138000,"durationMs":1000,"midi":72,"velocity":0.7086614173228346,"hand":"R"},{"time":138250,"durationMs":250,"midi":48,"velocity":0.7086614173228346,"hand":"L"},{"time":138500,"durationMs":250,"midi":53,"velocity":0.7086614173228346,"hand":"L"},{"time":138750,"durationMs":250,"midi":56,"velocity":0.7086614173228346,"hand":"L"},{"time":139000,"durationMs":500,"midi":60,"velocity":0.7086614173228346,"hand":"L"},{"time":139000,"durationMs":250,"midi":68,"velocity":0.7086614173228346,"hand":"R"},{"time":139000,"durationMs":500,"midi":77,"velocity":0.7086614173228346,"hand":"R"},{"time":139250,"durationMs":250,"midi":65,"velocity":0.7086614173228346,"hand":"R"},{"time":139500,"durationMs":1500,"midi":44,"velocity":0.7086614173228346,"hand":"L"},{"time":139500,"durationMs":3000,"midi":70,"velocity":0.7086614173228346,"hand":"R"},{"time":139750,"durationMs":250,"midi":51,"velocity":0.7086614173228346,"hand":"L"},{"time":140000,"durationMs":250,"midi":54,"velocity":0.7086614173228346,"hand":"L"},{"time":140250,"durationMs":250,"midi":58,"velocity":0.7086614173228346,"hand":"L"},{"time":140500,"durationMs":250,"midi":60,"velocity":0.7086614173228346,"hand":"R"},{"time":140750,"durationMs":250,"midi":66,"velocity":0.7086614173228346,"hand":"R"},{"time":141000,"durationMs":1500,"midi":42,"velocity":0.7086614173228346,"hand":"L"},{"time":141250,"durationMs":250,"midi":49,"velocity":0.7086614173228346,"hand":"L"},{"time":141500,"durationMs":250,"midi":54,"velocity":0.7086614173228346,"hand":"L"},{"time":141750,"durationMs":250,"midi":58,"velocity":0.7086614173228346,"hand":"L"},{"time":142000,"durationMs":250,"midi":61,"velocity":0.7086614173228346,"hand":"R"},{"time":142250,"durationMs":250,"midi":66,"velocity":0.7086614173228346,"hand":"R"},{"time":142500,"durationMs":1500,"midi":41,"velocity":0.7086614173228346,"hand":"L"},{"time":142500,"durationMs":1000,"midi":72,"velocity":0.7086614173228346,"hand":"R"},{"time":142750,"durationMs":250,"midi":48,"velocity":0.7086614173228346,"hand":"L"},{"time":143000,"durationMs":250,"midi":53,"velocity":0.7086614173228346,"hand":"L"},{"time":143250,"durationMs":250,"midi":56,"velocity":0.7086614173228346,"hand":"L"},{"time":143500,"durationMs":500,"midi":60,"velocity":0.7086614173228346,"hand":"L"},{"time":143500,"durationMs":250,"midi":68,"velocity":0.7086614173228346,"hand":"R"},{"time":143500,"durationMs":500,"midi":77,"velocity":0.7086614173228346,"hand":"R"},{"time":143750,"durationMs":250,"midi":65,"velocity":0.7086614173228346,"hand":"R"},{"time":144000,"durationMs":1500,"midi":39,"velocity":0.7086614173228346,"hand":"L"},{"time":144000,"durationMs":2250,"midi":78,"velocity":0.7086614173228346,"hand":"R"},{"time":144250,"durationMs":250,"midi":46,"velocity":0.7086614173228346,"hand":"L"},{"time":144500,"durationMs":250,"midi":51,"velocity":0.7086614173228346,"hand":"L"},{"time":144750,"durationMs":250,"midi":54,"velocity":0.7086614173228346,"hand":"L"},{"time":145000,"durationMs":250,"midi":58,"velocity":0.7086614173228346,"hand":"L"},{"time":145250,"durationMs":250,"midi":63,"velocity":0.7086614173228346,"hand":"L"},{"time":145500,"durationMs":750,"midi":66,"velocity":0.7086614173228346,"hand":"L"},{"time":145750,"durationMs":250,"midi":66,"velocity":0.7086614173228346,"hand":"R"},{"time":146000,"durationMs":250,"midi":70,"velocity":0.7086614173228346,"hand":"R"},{"time":146250,"durationMs":750,"midi":65,"velocity":0.7086614173228346,"hand":"L"},{"time":146250,"durationMs":750,"midi":77,"velocity":0.7086614173228346,"hand":"R"},{"time":146500,"durationMs":250,"midi":66,"velocity":0.7086614173228346,"hand":"R"},{"time":146750,"durationMs":250,"midi":70,"velocity":0.7086614173228346,"hand":"R"},{"time":147000,"durationMs":750,"midi":62,"velocity":0.7086614173228346,"hand":"L"},{"time":147000,"durationMs":750,"midi":74,"velocity":0.7086614173228346,"hand":"R"},{"time":147250,"durationMs":250,"midi":66,"velocity":0.7086614173228346,"hand":"R"},{"time":147500,"durationMs":250,"midi":70,"velocity":0.7086614173228346,"hand":"R"},{"time":147750,"durationMs":750,"midi":63,"velocity":0.7086614173228346,"hand":"L"},{"time":147750,"durationMs":750,"midi":75,"velocity":0.7086614173228346,"hand":"R"},{"time":148000,"durationMs":250,"midi":66,"velocity":0.7086614173228346,"hand":"R"},{"time":148250,"durationMs":250,"midi":70,"velocity":0.7086614173228346,"hand":"R"},{"time":148500,"durationMs":1500,"midi":62,"velocity":0.7086614173228346,"hand":"L"},{"time":148500,"durationMs":3000,"midi":82,"velocity":0.7086614173228346,"hand":"R"},{"time":148750,"durationMs":250,"midi":66,"velocity":0.7086614173228346,"hand":"L"},{"time":149000,"durationMs":250,"midi":70,"velocity":0.7086614173228346,"hand":"L"},{"time":149250,"durationMs":250,"midi":70,"velocity":0.7086614173228346,"hand":"R"},{"time":149500,"durationMs":250,"midi":78,"velocity":0.7086614173228346,"hand":"R"},{"time":150000,"durationMs":1500,"midi":63,"velocity":0.7086614173228346,"hand":"L"},{"time":150250,"durationMs":250,"midi":66,"velocity":0.7086614173228346,"hand":"L"},{"time":150500,"durationMs":250,"midi":70,"velocity":0.7086614173228346,"hand":"L"},{"time":150750,"durationMs":250,"midi":70,"velocity":0.7086614173228346,"hand":"R"},{"time":151000,"durationMs":250,"midi":78,"velocity":0.7086614173228346,"hand":"R"},{"time":151500,"durationMs":1500,"midi":56,"velocity":0.7086614173228346,"hand":"L"},{"time":151500,"durationMs":250,"midi":60,"velocity":0.7086614173228346,"hand":"L"},{"time":151500,"durationMs":1500,"midi":80,"velocity":0.7086614173228346,"hand":"R"},{"time":151750,"durationMs":250,"midi":64,"velocity":0.7086614173228346,"hand":"L"},{"time":152000,"durationMs":250,"midi":68,"velocity":0.7086614173228346,"hand":"L"},{"time":152250,"durationMs":250,"midi":72,"velocity":0.7086614173228346,"hand":"R"},{"time":152500,"durationMs":250,"midi":76,"velocity":0.7086614173228346,"hand":"R"},{"time":153000,"durationMs":1500,"midi":49,"velocity":0.7086614173228346,"hand":"L"},{"time":153000,"durationMs":3000,"midi":77,"velocity":0.7086614173228346,"hand":"R"},{"time":153000,"durationMs":3000,"midi":80,"velocity":0.7086614173228346,"hand":"R"},{"time":153250,"durationMs":250,"midi":56,"velocity":0.7086614173228346,"hand":"L"},{"time":153500,"durationMs":250,"midi":61,"velocity":0.7086614173228346,"hand":"L"},{"time":153750,"durationMs":250,"midi":65,"velocity":0.7086614173228346,"hand":"L"},{"time":154000,"durationMs":250,"midi":68,"velocity":0.7086614173228346,"hand":"R"},{"time":154250,"durationMs":250,"midi":73,"velocity":0.7086614173228346,"hand":"R"},{"time":154500,"durationMs":1500,"midi":53,"velocity":0.7086614173228346,"hand":"L"},{"time":154500,"durationMs":250,"midi":56,"velocity":0.7086614173228346,"hand":"L"},{"time":154750,"durationMs":250,"midi":60,"velocity":0.7086614173228346,"hand":"L"},{"time":155000,"durationMs":250,"midi":65,"velocity":0.7086614173228346,"hand":"L"},{"time":155250,"durationMs":250,"midi":68,"velocity":0.7086614173228346,"hand":"L"},{"time":155500,"durationMs":250,"midi":72,"velocity":0.7086614173228346,"hand":"R"},{"time":156000,"durationMs":1500,"midi":56,"velocity":0.7086614173228346,"hand":"L"},{"time":156000,"durationMs":250,"midi":59,"velocity":0.7086614173228346,"hand":"L"},{"time":156000,"durationMs":1000,"midi":80,"velocity":0.7086614173228346,"hand":"R"},{"time":156000,"durationMs":1000,"midi":83,"velocity":0.7086614173228346,"hand":"R"},{"time":156250,"durationMs":250,"midi":64,"velocity":0.7086614173228346,"hand":"L"},{"time":156500,"durationMs":250,"midi":68,"velocity":0.7086614173228346,"hand":"L"},{"time":156750,"durationMs":250,"midi":71,"velocity":0.7086614173228346,"hand":"R"},{"time":157000,"durationMs":250,"midi":76,"velocity":0.7086614173228346,"hand":"R"},{"time":157000,"durationMs":500,"midi":85,"velocity":0.7086614173228346,"hand":"R"},{"time":157250,"durationMs":250,"midi":80,"velocity":0.7086614173228346,"hand":"R"},{"time":157500,"durationMs":1500,"midi":49,"velocity":0.7086614173228346,"hand":"L"},{"time":157500,"durationMs":3000,"midi":77,"velocity":0.7086614173228346,"hand":"R"},{"time":157500,"durationMs":3000,"midi":80,"velocity":0.7086614173228346,"hand":"R"},{"time":157750,"durationMs":250,"midi":56,"velocity":0.7086614173228346,"hand":"L"},{"time":158000,"durationMs":250,"midi":61,"velocity":0.7086614173228346,"hand":"L"},{"time":158250,"durationMs":250,"midi":65,"velocity":0.7086614173228346,"hand":"L"},{"time":158500,"durationMs":250,"midi":68,"velocity":0.7086614173228346,"hand":"R"},{"time":158750,"durationMs":250,"midi":73,"velocity":0.7086614173228346,"hand":"R"},{"time":159000,"durationMs":1500,"midi":53,"velocity":0.7086614173228346,"hand":"L"},{"time":159000,"durationMs":250,"midi":56,"velocity":0.7086614173228346,"hand":"L"},{"time":159250,"durationMs":250,"midi":60,"velocity":0.7086614173228346,"hand":"L"},{"time":159500,"durationMs":250,"midi":65,"velocity":0.7086614173228346,"hand":"L"},{"time":159750,"durationMs":250,"midi":68,"velocity":0.7086614173228346,"hand":"L"},{"time":160000,"durationMs":250,"midi":72,"velocity":0.7086614173228346,"hand":"R"},{"time":160500,"durationMs":1500,"midi":56,"velocity":0.7086614173228346,"hand":"L"},{"time":160500,"durationMs":250,"midi":59,"velocity":0.7086614173228346,"hand":"L"},{"time":160500,"durationMs":1000,"midi":80,"velocity":0.7086614173228346,"hand":"R"},{"time":160500,"durationMs":1000,"midi":83,"velocity":0.7086614173228346,"hand":"R"},{"time":160750,"durationMs":250,"midi":64,"velocity":0.7086614173228346,"hand":"L"},{"time":161000,"durationMs":250,"midi":68,"velocity":0.7086614173228346,"hand":"L"},{"time":161250,"durationMs":250,"midi":71,"velocity":0.7086614173228346,"hand":"R"},{"time":161500,"durationMs":500,"midi":80,"velocity":0.7086614173228346,"hand":"R"},{"time":161750,"durationMs":250,"midi":76,"velocity":0.7086614173228346,"hand":"R"},{"time":162000,"durationMs":1500,"midi":59,"velocity":0.7086614173228346,"hand":"L"},{"time":162000,"durationMs":250,"midi":61,"velocity":0.7086614173228346,"hand":"L"},{"time":162000,"durationMs":1000,"midi":85,"velocity":0.7086614173228346,"hand":"R"},{"time":162250,"durationMs":250,"midi":64,"velocity":0.7086614173228346,"hand":"L"},{"time":162500,"durationMs":250,"midi":68,"velocity":0.7086614173228346,"hand":"L"},{"time":162750,"durationMs":750,"midi":71,"velocity":0.7086614173228346,"hand":"L"},{"time":162750,"durationMs":250,"midi":73,"velocity":0.7086614173228346,"hand":"R"},{"time":163000,"durationMs":500,"midi":80,"velocity":0.7086614173228346,"hand":"R"},{"time":163250,"durationMs":250,"midi":76,"velocity":0.7086614173228346,"hand":"R"},{"time":163500,"durationMs":1500,"midi":61,"velocity":0.7086614173228346,"hand":"L"},{"time":163500,"durationMs":250,"midi":64,"velocity":0.7086614173228346,"hand":"L"},{"time":163500,"durationMs":1000,"midi":88,"velocity":0.7086614173228346,"hand":"R"},{"time":163750,"durationMs":250,"midi":68,"velocity":0.7086614173228346,"hand":"L"},{"time":164000,"durationMs":250,"midi":71,"velocity":0.7086614173228346,"hand":"L"},{"time":164250,"durationMs":750,"midi":73,"velocity":0.7086614173228346,"hand":"L"},{"time":164250,"durationMs":250,"midi":76,"velocity":0.7086614173228346,"hand":"R"},{"time":164500,"durationMs":500,"midi":85,"velocity":0.7086614173228346,"hand":"R"},{"time":164750,"durationMs":250,"midi":80,"velocity":0.7086614173228346,"hand":"R"},{"time":165000,"durationMs":1500,"midi":64,"velocity":0.7086614173228346,"hand":"L"},{"time":165000,"durationMs":250,"midi":68,"velocity":0.7086614173228346,"hand":"L"},{"time":165000,"durationMs":1000,"midi":92,"velocity":0.7086614173228346,"hand":"R"},{"time":165250,"durationMs":250,"midi":71,"velocity":0.7086614173228346,"hand":"L"},{"time":165500,"durationMs":250,"midi":73,"velocity":0.7086614173228346,"hand":"L"},{"time":165750,"durationMs":750,"midi":76,"velocity":0.7086614173228346,"hand":"L"},{"time":165750,"durationMs":250,"midi":80,"velocity":0.7086614173228346,"hand":"R"},{"time":166000,"durationMs":500,"midi":88,"velocity":0.7086614173228346,"hand":"R"},{"time":166250,"durationMs":250,"midi":83,"velocity":0.7086614173228346,"hand":"R"},{"time":166500,"durationMs":1500,"midi":68,"velocity":0.7086614173228346,"hand":"L"},{"time":166500,"durationMs":1500,"midi":92,"velocity":0.7086614173228346,"hand":"R"},{"time":166750,"durationMs":250,"midi":69,"velocity":0.7086614173228346,"hand":"L"},{"time":167000,"durationMs":250,"midi":73,"velocity":0.7086614173228346,"hand":"L"},{"time":167250,"durationMs":250,"midi":80,"velocity":0.7086614173228346,"hand":"R"},{"time":167500,"durationMs":250,"midi":85,"velocity":0.7086614173228346,"hand":"R"},{"time":167750,"durationMs":250,"midi":81,"velocity":0.7086614173228346,"hand":"R"},{"time":168000,"durationMs":1500,"midi":66,"velocity":0.7086614173228346,"hand":"L"},{"time":168000,"durationMs":3000,"midi":90,"velocity":0.7086614173228346,"hand":"R"},{"time":168250,"durationMs":250,"midi":69,"velocity":0.7086614173228346,"hand":"L"},{"time":168500,"durationMs":250,"midi":73,"velocity":0.7086614173228346,"hand":"L"},{"time":168750,"durationMs":250,"midi":78,"velocity":0.7086614173228346,"hand":"R"},{"time":169000,"durationMs":250,"midi":85,"velocity":0.7086614173228346,"hand":"R"},{"time":169250,"durationMs":250,"midi":81,"velocity":0.7086614173228346,"hand":"R"},{"time":169500,"durationMs":1500,"midi":65,"velocity":0.7086614173228346,"hand":"L"},{"time":169500,"durationMs":250,"midi":66,"velocity":0.7086614173228346,"hand":"L"},{"time":169750,"durationMs":250,"midi":69,"velocity":0.7086614173228346,"hand":"L"},{"time":170000,"durationMs":250,"midi":73,"velocity":0.7086614173228346,"hand":"L"},{"time":170250,"durationMs":250,"midi":78,"velocity":0.7086614173228346,"hand":"R"},{"time":170500,"durationMs":250,"midi":85,"velocity":0.7086614173228346,"hand":"R"},{"time":170750,"durationMs":250,"midi":81,"velocity":0.7086614173228346,"hand":"R"},{"time":171000,"durationMs":1500,"midi":64,"velocity":0.7086614173228346,"hand":"L"},{"time":171000,"durationMs":250,"midi":66,"velocity":0.7086614173228346,"hand":"L"},{"time":171000,"durationMs":3000,"midi":90,"velocity":0.7086614173228346,"hand":"R"},{"time":171250,"durationMs":250,"midi":69,"velocity":0.7086614173228346,"hand":"L"},{"time":171500,"durationMs":250,"midi":73,"velocity":0.7086614173228346,"hand":"L"},{"time":171750,"durationMs":250,"midi":78,"velocity":0.7086614173228346,"hand":"R"},{"time":172000,"durationMs":250,"midi":85,"velocity":0.7086614173228346,"hand":"R"},{"time":172250,"durationMs":250,"midi":81,"velocity":0.7086614173228346,"hand":"R"},{"time":172500,"durationMs":1500,"midi":63,"velocity":0.7086614173228346,"hand":"L"},{"time":172500,"durationMs":250,"midi":66,"velocity":0.7086614173228346,"hand":"L"},{"time":172750,"durationMs":250,"midi":69,"velocity":0.7086614173228346,"hand":"L"},{"time":173000,"durationMs":250,"midi":73,"velocity":0.7086614173228346,"hand":"L"},{"time":173250,"durationMs":250,"midi":78,"velocity":0.7086614173228346,"hand":"R"},{"time":173500,"durationMs":250,"midi":85,"velocity":0.7086614173228346,"hand":"R"},{"time":173750,"durationMs":250,"midi":81,"velocity":0.7086614173228346,"hand":"R"},{"time":174000,"durationMs":1500,"midi":61,"velocity":0.7086614173228346,"hand":"L"},{"time":174000,"durationMs":250,"midi":64,"velocity":0.7086614173228346,"hand":"L"},{"time":174000,"durationMs":1000,"midi":93,"velocity":0.7086614173228346,"hand":"R"},{"time":174250,"durationMs":250,"midi":69,"velocity":0.7086614173228346,"hand":"L"},{"time":174500,"durationMs":250,"midi":73,"velocity":0.7086614173228346,"hand":"L"},{"time":174750,"durationMs":250,"midi":76,"velocity":0.7086614173228346,"hand":"L"},{"time":175000,"durationMs":250,"midi":85,"velocity":0.7086614173228346,"hand":"R"},{"time":175000,"durationMs":500,"midi":97,"velocity":0.7086614173228346,"hand":"R"},{"time":175250,"durationMs":250,"midi":73,"velocity":0.7086614173228346,"hand":"R"},{"time":175500,"durationMs":1500,"midi":59,"velocity":0.7086614173228346,"hand":"L"},{"time":175500,"durationMs":3000,"midi":78,"velocity":0.7086614173228346,"hand":"R"},{"time":175750,"durationMs":250,"midi":63,"velocity":0.7086614173228346,"hand":"L"},{"time":176000,"durationMs":250,"midi":66,"velocity":0.7086614173228346,"hand":"L"},{"time":176250,"durationMs":250,"midi":66,"velocity":0.7086614173228346,"hand":"R"},{"time":176500,"durationMs":250,"midi":73,"velocity":0.7086614173228346,"hand":"R"},{"time":176750,"durationMs":250,"midi":69,"velocity":0.7086614173228346,"hand":"R"},{"time":177000,"durationMs":1500,"midi":57,"velocity":0.7086614173228346,"hand":"L"},{"time":177250,"durationMs":250,"midi":61,"velocity":0.7086614173228346,"hand":"L"},{"time":177500,"durationMs":250,"midi":64,"velocity":0.7086614173228346,"hand":"L"},{"time":177750,"durationMs":250,"midi":66,"velocity":0.7086614173228346,"hand":"R"},{"time":178000,"durationMs":250,"midi":73,"velocity":0.7086614173228346,"hand":"R"},{"time":178250,"durationMs":250,"midi":69,"velocity":0.7086614173228346,"hand":"R"},{"time":178500,"durationMs":1500,"midi":56,"velocity":0.7086614173228346,"hand":"L"},{"time":178500,"durationMs":1000,"midi":81,"velocity":0.7086614173228346,"hand":"R"},{"time":178750,"durationMs":250,"midi":61,"velocity":0.7086614173228346,"hand":"L"},{"time":179000,"durationMs":250,"midi":64,"velocity":0.7086614173228346,"hand":"L"},{"time":179250,"durationMs":250,"midi":69,"velocity":0.7086614173228346,"hand":"L"},{"time":179500,"durationMs":250,"midi":76,"velocity":0.7086614173228346,"hand":"R"},{"time":179500,"durationMs":500,"midi":85,"velocity":0.7086614173228346,"hand":"R"},{"time":179750,"durationMs":250,"midi":81,"velocity":0.7086614173228346,"hand":"R"},{"time":180000,"durationMs":4500,"midi":54,"velocity":0.7086614173228346,"hand":"L"},{"time":180000,"durationMs":500,"midi":85,"velocity":0.7086614173228346,"hand":"R"},{"time":180000,"durationMs":500,"midi":88,"velocity":0.7086614173228346,"hand":"R"},{"time":180250,"durationMs":250,"midi":61,"velocity":0.7086614173228346,"hand":"L"},{"time":180500,"durationMs":250,"midi":64,"velocity":0.7086614173228346,"hand":"L"},{"time":180500,"durationMs":500,"midi":83,"velocity":0.7086614173228346,"hand":"R"},{"time":180500,"durationMs":500,"midi":87,"velocity":0.7086614173228346,"hand":"R"},{"time":180750,"durationMs":250,"midi":66,"velocity":0.7086614173228346,"hand":"L"},{"time":181000,"durationMs":250,"midi":69,"velocity":0.7086614173228346,"hand":"L"},{"time":181000,"durationMs":500,"midi":81,"velocity":0.7086614173228346,"hand":"R"},{"time":181000,"durationMs":500,"midi":85,"velocity":0.7086614173228346,"hand":"R"},{"time":181250,"durationMs":250,"midi":73,"velocity":0.7086614173228346,"hand":"L"},{"time":181500,"durationMs":250,"midi":76,"velocity":0.7086614173228346,"hand":"L"},{"time":181500,"durationMs":750,"midi":80,"velocity":0.7086614173228346,"hand":"R"},{"time":181500,"durationMs":750,"midi":83,"velocity":0.7086614173228346,"hand":"R"},{"time":181750,"durationMs":250,"midi":78,"velocity":0.7086614173228346,"hand":"L"},{"time":182000,"durationMs":250,"midi":76,"velocity":0.7086614173228346,"hand":"L"},{"time":182250,"durationMs":250,"midi":73,"velocity":0.7086614173228346,"hand":"L"},{"time":182250,"durationMs":1250,"midi":78,"velocity":0.7086614173228346,"hand":"R"},{"time":182250,"durationMs":1250,"midi":81,"velocity":0.7086614173228346,"hand":"R"},{"time":182500,"durationMs":250,"midi":69,"velocity":0.7086614173228346,"hand":"L"},{"time":182750,"durationMs":250,"midi":66,"velocity":0.7086614173228346,"hand":"L"},{"time":183000,"durationMs":250,"midi":64,"velocity":0.7086614173228346,"hand":"L"},{"time":183250,"durationMs":250,"midi":66,"velocity":0.7086614173228346,"hand":"L"},{"time":183500,"durationMs":250,"midi":64,"velocity":0.7086614173228346,"hand":"L"},{"time":183500,"durationMs":500,"midi":76,"velocity":0.7086614173228346,"hand":"R"},{"time":183500,"durationMs":500,"midi":80,"velocity":0.7086614173228346,"hand":"R"},{"time":183750,"durationMs":250,"midi":61,"velocity":0.7086614173228346,"hand":"L"},{"time":184000,"durationMs":250,"midi":57,"velocity":0.7086614173228346,"hand":"L"},{"time":184000,"durationMs":500,"midi":75,"velocity":0.7086614173228346,"hand":"R"},{"time":184000,"durationMs":500,"midi":78,"velocity":0.7086614173228346,"hand":"R"},{"time":184500,"durationMs":250,"midi":42,"velocity":0.7086614173228346,"hand":"L"},{"time":184500,"durationMs":500,"midi":73,"velocity":0.7086614173228346,"hand":"R"},{"time":184500,"durationMs":500,"midi":76,"velocity":0.7086614173228346,"hand":"R"},{"time":184750,"durationMs":250,"midi":49,"velocity":0.7086614173228346,"hand":"L"},{"time":185000,"durationMs":250,"midi":52,"velocity":0.7086614173228346,"hand":"L"},{"time":185000,"durationMs":500,"midi":71,"velocity":0.7086614173228346,"hand":"R"},{"time":185000,"durationMs":500,"midi":75,"velocity":0.7086614173228346,"hand":"R"},{"time":185250,"durationMs":250,"midi":54,"velocity":0.7086614173228346,"hand":"L"},{"time":185500,"durationMs":250,"midi":57,"velocity":0.7086614173228346,"hand":"L"},{"time":185500,"durationMs":500,"midi":69,"velocity":0.7086614173228346,"hand":"R"},{"time":185500,"durationMs":500,"midi":73,"velocity":0.7086614173228346,"hand":"R"},{"time":185750,"durationMs":250,"midi":61,"velocity":0.7086614173228346,"hand":"L"},{"time":186000,"durationMs":250,"midi":64,"velocity":0.7086614173228346,"hand":"L"},{"time":186000,"durationMs":500,"midi":68,"velocity":0.7086614173228346,"hand":"R"},{"time":186000,"durationMs":500,"midi":71,"velocity":0.7086614173228346,"hand":"R"},{"time":186250,"durationMs":250,"midi":61,"velocity":0.7086614173228346,"hand":"L"},{"time":186500,"durationMs":250,"midi":57,"velocity":0.7086614173228346,"hand":"L"},{"time":186500,"durationMs":500,"midi":66,"velocity":0.7086614173228346,"hand":"R"},{"time":186500,"durationMs":500,"midi":69,"velocity":0.7086614173228346,"hand":"R"},{"time":186750,"durationMs":250,"midi":54,"velocity":0.7086614173228346,"hand":"L"},{"time":187000,"durationMs":250,"midi":52,"velocity":0.7086614173228346,"hand":"L"},{"time":187000,"durationMs":1000,"midi":64,"velocity":0.7086614173228346,"hand":"R"},{"time":187000,"durationMs":1000,"midi":68,"velocity":0.7086614173228346,"hand":"R"},{"time":187250,"durationMs":250,"midi":49,"velocity":0.7086614173228346,"hand":"L"},{"time":187500,"durationMs":250,"midi":42,"velocity":0.7086614173228346,"hand":"L"},{"time":187500,"durationMs":1500,"midi":57,"velocity":0.7086614173228346,"hand":"R"},{"time":187750,"durationMs":250,"midi":49,"velocity":0.7086614173228346,"hand":"L"},{"time":188000,"durationMs":250,"midi":42,"velocity":0.7086614173228346,"hand":"L"},{"time":188000,"durationMs":500,"midi":63,"velocity":0.7086614173228346,"hand":"R"},{"time":188000,"durationMs":500,"midi":66,"velocity":0.7086614173228346,"hand":"R"},{"time":188250,"durationMs":250,"midi":49,"velocity":0.7086614173228346,"hand":"L"},{"time":188500,"durationMs":250,"midi":42,"velocity":0.7086614173228346,"hand":"L"},{"time":188500,"durationMs":500,"midi":61,"velocity":0.7086614173228346,"hand":"R"},{"time":188500,"durationMs":500,"midi":64,"velocity":0.7086614173228346,"hand":"R"},{"time":188750,"durationMs":250,"midi":49,"velocity":0.7086614173228346,"hand":"L"},{"time":189000,"durationMs":250,"midi":44,"velocity":0.7086614173228346,"hand":"L"},{"time":189000,"durationMs":1000,"midi":54,"velocity":0.7086614173228346,"hand":"R"},{"time":189000,"durationMs":3000,"midi":61,"velocity":0.7086614173228346,"hand":"R"},{"time":189000,"durationMs":3000,"midi":63,"velocity":0.7086614173228346,"hand":"R"},{"time":189250,"durationMs":250,"midi":51,"velocity":0.7086614173228346,"hand":"L"},{"time":189500,"durationMs":250,"midi":44,"velocity":0.7086614173228346,"hand":"L"},{"time":189750,"durationMs":250,"midi":51,"velocity":0.7086614173228346,"hand":"L"},{"time":190000,"durationMs":250,"midi":44,"velocity":0.7086614173228346,"hand":"L"},{"time":190000,"durationMs":500,"midi":56,"velocity":0.7086614173228346,"hand":"R"},{"time":190250,"durationMs":250,"midi":51,"velocity":0.7086614173228346,"hand":"L"},{"time":190500,"durationMs":250,"midi":44,"velocity":0.7086614173228346,"hand":"L"},{"time":190500,"durationMs":1000,"midi":58,"velocity":0.7086614173228346,"hand":"R"},{"time":190750,"durationMs":250,"midi":51,"velocity":0.7086614173228346,"hand":"L"},{"time":191000,"durationMs":250,"midi":44,"velocity":0.7086614173228346,"hand":"L"},{"time":191250,"durationMs":250,"midi":51,"velocity":0.7086614173228346,"hand":"L"},{"time":191500,"durationMs":250,"midi":44,"velocity":0.7086614173228346,"hand":"L"},{"time":191750,"durationMs":250,"midi":51,"velocity":0.7086614173228346,"hand":"L"},{"time":192000,"durationMs":250,"midi":44,"velocity":0.7086614173228346,"hand":"L"},{"time":192000,"durationMs":1500,"midi":60,"velocity":0.7086614173228346,"hand":"R"},{"time":192000,"durationMs":1000,"midi":63,"velocity":0.7086614173228346,"hand":"R"},{"time":192000,"durationMs":1000,"midi":66,"velocity":0.7086614173228346,"hand":"R"},{"time":192250,"durationMs":250,"midi":51,"velocity":0.7086614173228346,"hand":"L"},{"time":192500,"durationMs":250,"midi":44,"velocity":0.7086614173228346,"hand":"L"},{"time":192750,"durationMs":250,"midi":51,"velocity":0.7086614173228346,"hand":"L"},{"time":193000,"durationMs":250,"midi":44,"velocity":0.7086614173228346,"hand":"L"},{"time":193000,"durationMs":500,"midi":63,"velocity":0.7086614173228346,"hand":"R"},{"time":193000,"durationMs":500,"midi":66,"velocity":0.7086614173228346,"hand":"R"},{"time":193000,"durationMs":500,"midi":70,"velocity":0.7086614173228346,"hand":"R"},{"time":193250,"durationMs":250,"midi":51,"velocity":0.7086614173228346,"hand":"L"},{"time":193500,"durationMs":250,"midi":44,"velocity":0.7086614173228346,"hand":"L"},{"time":193500,"durationMs":1000,"midi":54,"velocity":0.7086614173228346,"hand":"R"},{"time":193500,"durationMs":3000,"midi":61,"velocity":0.7086614173228346,"hand":"R"},{"time":193500,"durationMs":3000,"midi":63,"velocity":0.7086614173228346,"hand":"R"},{"time":193750,"durationMs":250,"midi":51,"velocity":0.7086614173228346,"hand":"L"},{"time":194000,"durationMs":250,"midi":44,"velocity":0.7086614173228346,"hand":"L"},{"time":194250,"durationMs":250,"midi":51,"velocity":0.7086614173228346,"hand":"L"},{"time":194500,"durationMs":250,"midi":44,"velocity":0.7086614173228346,"hand":"L"},{"time":194500,"durationMs":500,"midi":56,"velocity":0.7086614173228346,"hand":"R"},{"time":194750,"durationMs":250,"midi":51,"velocity":0.7086614173228346,"hand":"L"},{"time":195000,"durationMs":250,"midi":44,"velocity":0.7086614173228346,"hand":"L"},{"time":195000,"durationMs":1000,"midi":58,"velocity":0.7086614173228346,"hand":"R"},{"time":195250,"durationMs":250,"midi":51,"velocity":0.7086614173228346,"hand":"L"},{"time":195500,"durationMs":250,"midi":44,"velocity":0.7086614173228346,"hand":"L"},{"time":195750,"durationMs":250,"midi":51,"velocity":0.7086614173228346,"hand":"L"},{"time":196000,"durationMs":250,"midi":44,"velocity":0.7086614173228346,"hand":"L"},{"time":196250,"durationMs":250,"midi":51,"velocity":0.7086614173228346,"hand":"L"},{"time":196500,"durationMs":250,"midi":44,"velocity":0.7086614173228346,"hand":"L"},{"time":196500,"durationMs":1500,"midi":60,"velocity":0.7086614173228346,"hand":"R"},{"time":196500,"durationMs":1000,"midi":63,"velocity":0.7086614173228346,"hand":"R"},{"time":196500,"durationMs":1000,"midi":66,"velocity":0.7086614173228346,"hand":"R"},{"time":196750,"durationMs":250,"midi":51,"velocity":0.7086614173228346,"hand":"L"},{"time":197000,"durationMs":250,"midi":44,"velocity":0.7086614173228346,"hand":"L"},{"time":197250,"durationMs":250,"midi":51,"velocity":0.7086614173228346,"hand":"L"},{"time":197500,"durationMs":250,"midi":44,"velocity":0.7086614173228346,"hand":"L"},{"time":197500,"durationMs":500,"midi":63,"velocity":0.7086614173228346,"hand":"R"},{"time":197500,"durationMs":1000,"midi":66,"velocity":0.7086614173228346,"hand":"R"},{"time":197500,"durationMs":1000,"midi":70,"velocity":0.7086614173228346,"hand":"R"},{"time":197750,"durationMs":250,"midi":51,"velocity":0.7086614173228346,"hand":"L"},{"time":198000,"durationMs":250,"midi":44,"velocity":0.7086614173228346,"hand":"L"},{"time":198000,"durationMs":500,"midi":61,"velocity":0.7086614173228346,"hand":"R"},{"time":198250,"durationMs":250,"midi":39,"velocity":0.7086614173228346,"hand":"L"},{"time":198500,"durationMs":250,"midi":44,"velocity":0.7086614173228346,"hand":"L"},{"time":198500,"durationMs":500,"midi":68,"velocity":0.7086614173228346,"hand":"R"},{"time":198500,"durationMs":500,"midi":72,"velocity":0.7086614173228346,"hand":"R"},{"time":198500,"durationMs":500,"midi":77,"velocity":0.7086614173228346,"hand":"R"},{"time":198750,"durationMs":250,"midi":51,"velocity":0.7086614173228346,"hand":"L"},{"time":199000,"durationMs":250,"midi":44,"velocity":0.7086614173228346,"hand":"L"},{"time":199000,"durationMs":500,"midi":66,"velocity":0.7086614173228346,"hand":"R"},{"time":199000,"durationMs":500,"midi":70,"velocity":0.7086614173228346,"hand":"R"},{"time":199000,"durationMs":500,"midi":75,"velocity":0.7086614173228346,"hand":"R"},{"time":199250,"durationMs":250,"midi":51,"velocity":0.7086614173228346,"hand":"L"},{"time":199500,"durationMs":250,"midi":56,"velocity":0.7086614173228346,"hand":"L"},{"time":199500,"durationMs":500,"midi":61,"velocity":0.7086614173228346,"hand":"R"},{"time":199500,"durationMs":1500,"midi":66,"velocity":0.7086614173228346,"hand":"R"},{"time":199500,"durationMs":1500,"midi":70,"velocity":0.7086614173228346,"hand":"R"},{"time":199750,"durationMs":250,"midi":51,"velocity":0.7086614173228346,"hand":"L"},{"time":200000,"durationMs":250,"midi":56,"velocity":0.7086614173228346,"hand":"L"},{"time":200000,"durationMs":500,"midi":58,"velocity":0.7086614173228346,"hand":"R"},{"time":200250,"durationMs":250,"midi":63,"velocity":0.7086614173228346,"hand":"L"},{"time":200500,"durationMs":250,"midi":56,"velocity":0.7086614173228346,"hand":"L"},{"time":200500,"durationMs":500,"midi":61,"velocity":0.7086614173228346,"hand":"R"},{"time":200750,"durationMs":250,"midi":51,"velocity":0.7086614173228346,"hand":"L"},{"time":201000,"durationMs":250,"midi":56,"velocity":0.7086614173228346,"hand":"L"},{"time":201000,"durationMs":500,"midi":58,"velocity":0.7086614173228346,"hand":"R"},{"time":201000,"durationMs":1500,"midi":66,"velocity":0.7086614173228346,"hand":"R"},{"time":201000,"durationMs":1500,"midi":68,"velocity":0.7086614173228346,"hand":"R"},{"time":201250,"durationMs":250,"midi":51,"velocity":0.7086614173228346,"hand":"L"},{"time":201500,"durationMs":250,"midi":44,"velocity":0.7086614173228346,"hand":"L"},{"time":201500,"durationMs":500,"midi":60,"velocity":0.7086614173228346,"hand":"R"},{"time":201750,"durationMs":250,"midi":51,"velocity":0.7086614173228346,"hand":"L"},{"time":202000,"durationMs":250,"midi":44,"velocity":0.7086614173228346,"hand":"L"},{"time":202000,"durationMs":500,"midi":63,"velocity":0.7086614173228346,"hand":"R"},{"time":202250,"durationMs":250,"midi":39,"velocity":0.7086614173228346,"hand":"L"},{"time":202500,"durationMs":250,"midi":44,"velocity":0.7086614173228346,"hand":"L"},{"time":202500,"durationMs":500,"midi":61,"velocity":0.7086614173228346,"hand":"R"},{"time":202500,"durationMs":500,"midi":66,"velocity":0.7086614173228346,"hand":"R"},{"time":202500,"durationMs":500,"midi":70,"velocity":0.7086614173228346,"hand":"R"},{"time":202750,"durationMs":250,"midi":39,"velocity":0.7086614173228346,"hand":"L"},{"time":203000,"durationMs":250,"midi":44,"velocity":0.7086614173228346,"hand":"L"},{"time":203000,"durationMs":500,"midi":68,"velocity":0.7086614173228346,"hand":"R"},{"time":203000,"durationMs":500,"midi":72,"velocity":0.7086614173228346,"hand":"R"},{"time":203000,"durationMs":500,"midi":77,"velocity":0.7086614173228346,"hand":"R"},{"time":203250,"durationMs":250,"midi":51,"velocity":0.7086614173228346,"hand":"L"},{"time":203500,"durationMs":250,"midi":44,"velocity":0.7086614173228346,"hand":"L"},{"time":203500,"durationMs":500,"midi":66,"velocity":0.7086614173228346,"hand":"R"},{"time":203500,"durationMs":500,"midi":70,"velocity":0.7086614173228346,"hand":"R"},{"time":203500,"durationMs":500,"midi":75,"velocity":0.7086614173228346,"hand":"R"},{"time":203750,"durationMs":250,"midi":51,"velocity":0.7086614173228346,"hand":"L"},{"time":204000,"durationMs":250,"midi":56,"velocity":0.7086614173228346,"hand":"L"},{"time":204000,"durationMs":500,"midi":61,"velocity":0.7086614173228346,"hand":"R"},{"time":204000,"durationMs":1500,"midi":66,"velocity":0.7086614173228346,"hand":"R"},{"time":204000,"durationMs":1500,"midi":70,"velocity":0.7086614173228346,"hand":"R"},{"time":204250,"durationMs":250,"midi":51,"velocity":0.7086614173228346,"hand":"L"},{"time":204500,"durationMs":250,"midi":56,"velocity":0.7086614173228346,"hand":"L"},{"time":204500,"durationMs":500,"midi":58,"velocity":0.7086614173228346,"hand":"R"},{"time":204750,"durationMs":250,"midi":63,"velocity":0.7086614173228346,"hand":"L"},{"time":205000,"durationMs":250,"midi":56,"velocity":0.7086614173228346,"hand":"L"},{"time":205000,"durationMs":500,"midi":61,"velocity":0.7086614173228346,"hand":"R"},{"time":205250,"durationMs":250,"midi":51,"velocity":0.7086614173228346,"hand":"L"},{"time":205500,"durationMs":250,"midi":56,"velocity":0.7086614173228346,"hand":"L"},{"time":205500,"durationMs":500,"midi":58,"velocity":0.7086614173228346,"hand":"R"},{"time":205500,"durationMs":1500,"midi":66,"velocity":0.7086614173228346,"hand":"R"},{"time":205500,"durationMs":1500,"midi":68,"velocity":0.7086614173228346,"hand":"R"},{"time":205750,"durationMs":250,"midi":51,"velocity":0.7086614173228346,"hand":"L"},{"time":206000,"durationMs":250,"midi":56,"velocity":0.7086614173228346,"hand":"L"},{"time":206000,"durationMs":500,"midi":60,"velocity":0.7086614173228346,"hand":"R"},{"time":206250,"durationMs":250,"midi":51,"velocity":0.7086614173228346,"hand":"L"},{"time":206500,"durationMs":250,"midi":56,"velocity":0.7086614173228346,"hand":"L"},{"time":206500,"durationMs":500,"midi":63,"velocity":0.7086614173228346,"hand":"R"},{"time":206750,"durationMs":250,"midi":51,"velocity":0.7086614173228346,"hand":"L"},{"time":207000,"durationMs":1000,"midi":54,"velocity":0.7086614173228346,"hand":"L"},{"time":207000,"durationMs":3000,"midi":61,"velocity":0.7086614173228346,"hand":"L"},{"time":207000,"durationMs":3000,"midi":75,"velocity":0.7086614173228346,"hand":"R"},{"time":207250,"durationMs":250,"midi":63,"velocity":0.7086614173228346,"hand":"R"},{"time":207500,"durationMs":250,"midi":66,"velocity":0.7086614173228346,"hand":"R"},{"time":207750,"durationMs":250,"midi":70,"velocity":0.7086614173228346,"hand":"R"},{"time":208000,"durationMs":500,"midi":56,"velocity":0.7086614173228346,"hand":"L"},{"time":208000,"durationMs":250,"midi":66,"velocity":0.7086614173228346,"hand":"R"},{"time":208250,"durationMs":250,"midi":63,"velocity":0.7086614173228346,"hand":"R"},{"time":208500,"durationMs":1000,"midi":58,"velocity":0.7086614173228346,"hand":"L"},{"time":208750,"durationMs":250,"midi":63,"velocity":0.7086614173228346,"hand":"R"},{"time":209000,"durationMs":250,"midi":66,"velocity":0.7086614173228346,"hand":"R"},{"time":209250,"durationMs":250,"midi":70,"velocity":0.7086614173228346,"hand":"R"},{"time":209500,"durationMs":250,"midi":66,"velocity":0.7086614173228346,"hand":"R"},{"time":209750,"durationMs":250,"midi":63,"velocity":0.7086614173228346,"hand":"R"},{"time":210000,"durationMs":1500,"midi":60,"velocity":0.7086614173228346,"hand":"L"},{"time":210000,"durationMs":1000,"midi":78,"velocity":0.7086614173228346,"hand":"R"},{"time":210250,"durationMs":250,"midi":63,"velocity":0.7086614173228346,"hand":"L"},{"time":210500,"durationMs":250,"midi":66,"velocity":0.7086614173228346,"hand":"L"},{"time":210750,"durationMs":250,"midi":70,"velocity":0.7086614173228346,"hand":"L"},{"time":211000,"durationMs":250,"midi":72,"velocity":0.7086614173228346,"hand":"R"},{"time":211000,"durationMs":500,"midi":82,"velocity":0.7086614173228346,"hand":"R"},{"time":211250,"durationMs":250,"midi":75,"velocity":0.7086614173228346,"hand":"R"},{"time":211500,"durationMs":1000,"midi":54,"velocity":0.7086614173228346,"hand":"L"},{"time":211500,"durationMs":3000,"midi":61,"velocity":0.7086614173228346,"hand":"L"},{"time":211500,"durationMs":3000,"midi":75,"velocity":0.7086614173228346,"hand":"R"},{"time":211750,"durationMs":250,"midi":63,"velocity":0.7086614173228346,"hand":"R"},{"time":212000,"durationMs":250,"midi":66,"velocity":0.7086614173228346,"hand":"R"},{"time":212250,"durationMs":250,"midi":70,"velocity":0.7086614173228346,"hand":"R"},{"time":212500,"durationMs":500,"midi":56,"velocity":0.7086614173228346,"hand":"L"},{"time":212500,"durationMs":250,"midi":66,"velocity":0.7086614173228346,"hand":"R"},{"time":212750,"durationMs":250,"midi":63,"velocity":0.7086614173228346,"hand":"R"},{"time":213000,"durationMs":1000,"midi":58,"velocity":0.7086614173228346,"hand":"L"},{"time":213250,"durationMs":250,"midi":63,"velocity":0.7086614173228346,"hand":"R"},{"time":213500,"durationMs":250,"midi":66,"velocity":0.7086614173228346,"hand":"R"},{"time":213750,"durationMs":250,"midi":70,"velocity":0.7086614173228346,"hand":"R"},{"time":214000,"durationMs":250,"midi":66,"velocity":0.7086614173228346,"hand":"R"},{"time":214250,"durationMs":250,"midi":63,"velocity":0.7086614173228346,"hand":"R"},{"time":214500,"durationMs":1500,"midi":60,"velocity":0.7086614173228346,"hand":"L"},{"time":214500,"durationMs":1000,"midi":78,"velocity":0.7086614173228346,"hand":"R"},{"time":214750,"durationMs":250,"midi":63,"velocity":0.7086614173228346,"hand":"L"},{"time":215000,"durationMs":250,"midi":66,"velocity":0.7086614173228346,"hand":"L"},{"time":215250,"durationMs":250,"midi":70,"velocity":0.7086614173228346,"hand":"L"},{"time":215500,"durationMs":250,"midi":72,"velocity":0.7086614173228346,"hand":"R"},{"time":215500,"durationMs":500,"midi":82,"velocity":0.7086614173228346,"hand":"R"},{"time":215750,"durationMs":250,"midi":75,"velocity":0.7086614173228346,"hand":"R"},{"time":216000,"durationMs":4500,"midi":66,"velocity":0.7086614173228346,"hand":"L"},{"time":216000,"durationMs":6000,"midi":87,"velocity":0.7086614173228346,"hand":"R"},{"time":216250,"durationMs":250,"midi":70,"velocity":0.7086614173228346,"hand":"L"},{"time":216500,"durationMs":250,"midi":73,"velocity":0.7086614173228346,"hand":"L"},{"time":216750,"durationMs":250,"midi":75,"velocity":0.7086614173228346,"hand":"R"},{"time":217000,"durationMs":250,"midi":78,"velocity":0.7086614173228346,"hand":"R"},{"time":217250,"durationMs":250,"midi":82,"velocity":0.7086614173228346,"hand":"R"},{"time":217750,"durationMs":250,"midi":70,"velocity":0.7086614173228346,"hand":"L"},{"time":218000,"durationMs":250,"midi":73,"velocity":0.7086614173228346,"hand":"L"},{"time":218250,"durationMs":250,"midi":75,"velocity":0.7086614173228346,"hand":"R"},{"time":218500,"durationMs":250,"midi":78,"velocity":0.7086614173228346,"hand":"R"},{"time":218750,"durationMs":250,"midi":84,"velocity":0.7086614173228346,"hand":"R"},{"time":219250,"durationMs":250,"midi":70,"velocity":0.7086614173228346,"hand":"L"},{"time":219500,"durationMs":250,"midi":73,"velocity":0.7086614173228346,"hand":"L"},{"time":219750,"durationMs":250,"midi":75,"velocity":0.7086614173228346,"hand":"R"},{"time":220000,"durationMs":250,"midi":78,"velocity":0.7086614173228346,"hand":"R"},{"time":220250,"durationMs":250,"midi":82,"velocity":0.7086614173228346,"hand":"R"},{"time":220500,"durationMs":4500,"midi":66,"velocity":0.7086614173228346,"hand":"L"},{"time":220750,"durationMs":250,"midi":69,"velocity":0.7086614173228346,"hand":"L"},{"time":221000,"durationMs":250,"midi":73,"velocity":0.7086614173228346,"hand":"L"},{"time":221250,"durationMs":250,"midi":75,"velocity":0.7086614173228346,"hand":"R"},{"time":221500,"durationMs":250,"midi":78,"velocity":0.7086614173228346,"hand":"R"},{"time":221750,"durationMs":250,"midi":81,"velocity":0.7086614173228346,"hand":"R"},{"time":222000,"durationMs":1500,"midi":85,"velocity":0.7086614173228346,"hand":"R"},{"time":222250,"durationMs":250,"midi":69,"velocity":0.7086614173228346,"hand":"L"},{"time":222500,"durationMs":250,"midi":73,"velocity":0.7086614173228346,"hand":"L"},{"time":222750,"durationMs":250,"midi":75,"velocity":0.7086614173228346,"hand":"R"},{"time":223000,"durationMs":250,"midi":78,"velocity":0.7086614173228346,"hand":"R"},{"time":223250,"durationMs":250,"midi":83,"velocity":0.7086614173228346,"hand":"R"},{"time":223500,"durationMs":1500,"midi":87,"velocity":0.7086614173228346,"hand":"R"},{"time":223750,"durationMs":250,"midi":69,"velocity":0.7086614173228346,"hand":"L"},{"time":224000,"durationMs":250,"midi":73,"velocity":0.7086614173228346,"hand":"L"},{"time":224250,"durationMs":250,"midi":75,"velocity":0.7086614173228346,"hand":"R"},{"time":224500,"durationMs":250,"midi":78,"velocity":0.7086614173228346,"hand":"R"},{"time":224750,"durationMs":250,"midi":81,"velocity":0.7086614173228346,"hand":"R"},{"time":225000,"durationMs":3000,"midi":65,"velocity":0.7086614173228346,"hand":"L"},{"time":225250,"durationMs":250,"midi":68,"velocity":0.7086614173228346,"hand":"L"},{"time":225500,"durationMs":250,"midi":72,"velocity":0.7086614173228346,"hand":"L"},{"time":225750,"durationMs":250,"midi":77,"velocity":0.7086614173228346,"hand":"L"},{"time":226000,"durationMs":250,"midi":80,"velocity":0.7086614173228346,"hand":"L"},{"time":226250,"durationMs":250,"midi":84,"velocity":0.7086614173228346,"hand":"L"},{"time":226500,"durationMs":1500,"midi":89,"velocity":0.7086614173228346,"hand":"R"},{"time":226500,"durationMs":1500,"midi":92,"velocity":0.7086614173228346,"hand":"R"},{"time":228000,"durationMs":1500,"midi":65,"velocity":0.7086614173228346,"hand":"L"},{"time":228000,"durationMs":2000,"midi":89,"velocity":0.7086614173228346,"hand":"R"},{"time":229500,"durationMs":3000,"midi":65,"velocity":0.7086614173228346,"hand":"L"},{"time":229750,"durationMs":250,"midi":69,"velocity":0.7086614173228346,"hand":"L"},{"time":230000,"durationMs":250,"midi":72,"velocity":0.7086614173228346,"hand":"L"},{"time":230000,"durationMs":500,"midi":84,"velocity":0.7086614173228346,"hand":"R"},{"time":230000,"durationMs":500,"midi":87,"velocity":0.7086614173228346,"hand":"R"},{"time":230250,"durationMs":250,"midi":75,"velocity":0.7086614173228346,"hand":"L"},{"time":230500,"durationMs":250,"midi":77,"velocity":0.7086614173228346,"hand":"L"},{"time":230500,"durationMs":500,"midi":85,"velocity":0.7086614173228346,"hand":"R"},{"time":230500,"durationMs":500,"midi":89,"velocity":0.7086614173228346,"hand":"R"},{"time":230750,"durationMs":250,"midi":81,"velocity":0.7086614173228346,"hand":"L"},{"time":231000,"durationMs":3500,"midi":84,"velocity":0.7086614173228346,"hand":"R"},{"time":231000,"durationMs":3500,"midi":87,"velocity":0.7086614173228346,"hand":"R"},{"time":232500,"durationMs":1500,"midi":65,"velocity":0.7086614173228346,"hand":"L"},{"time":234000,"durationMs":3000,"midi":65,"velocity":0.7086614173228346,"hand":"L"},{"time":234250,"durationMs":250,"midi":68,"velocity":0.7086614173228346,"hand":"L"},{"time":234500,"durationMs":250,"midi":70,"velocity":0.7086614173228346,"hand":"L"},{"time":234500,"durationMs":500,"midi":82,"velocity":0.7086614173228346,"hand":"R"},{"time":234500,"durationMs":500,"midi":85,"velocity":0.7086614173228346,"hand":"R"},{"time":234750,"durationMs":250,"midi":73,"velocity":0.7086614173228346,"hand":"L"},{"time":235000,"durationMs":250,"midi":77,"velocity":0.7086614173228346,"hand":"L"},{"time":235000,"durationMs":500,"midi":84,"velocity":0.7086614173228346,"hand":"R"},{"time":235000,"durationMs":500,"midi":87,"velocity":0.7086614173228346,"hand":"R"},{"time":235250,"durationMs":250,"midi":80,"velocity":0.7086614173228346,"hand":"L"},{"time":235500,"durationMs":3500,"midi":82,"velocity":0.7086614173228346,"hand":"R"},{"time":235500,"durationMs":750,"midi":85,"velocity":0.7086614173228346,"hand":"R"},{"time":236250,"durationMs":1500,"midi":85,"velocity":0.7086614173228346,"hand":"R"},{"time":236250,"durationMs":1500,"midi":89,"velocity":0.7086614173228346,"hand":"R"},{"time":237000,"durationMs":1500,"midi":65,"velocity":0.7086614173228346,"hand":"L"},{"time":237750,"durationMs":1250,"midi":85,"velocity":0.7086614173228346,"hand":"R"},{"time":238500,"durationMs":3000,"midi":63,"velocity":0.7086614173228346,"hand":"L"},{"time":238750,"durationMs":250,"midi":66,"velocity":0.7086614173228346,"hand":"L"},{"time":239000,"durationMs":250,"midi":68,"velocity":0.7086614173228346,"hand":"L"},{"time":239000,"durationMs":500,"midi":80,"velocity":0.7086614173228346,"hand":"R"},{"time":239000,"durationMs":500,"midi":84,"velocity":0.7086614173228346,"hand":"R"},{"time":239250,"durationMs":250,"midi":72,"velocity":0.7086614173228346,"hand":"L"},{"time":239500,"durationMs":250,"midi":75,"velocity":0.7086614173228346,"hand":"L"},{"time":239500,"durationMs":500,"midi":82,"velocity":0.7086614173228346,"hand":"R"},{"time":239500,"durationMs":500,"midi":85,"velocity":0.7086614173228346,"hand":"R"},{"time":239750,"durationMs":250,"midi":78,"velocity":0.7086614173228346,"hand":"L"},{"time":240000,"durationMs":3000,"midi":80,"velocity":0.7086614173228346,"hand":"R"},{"time":240000,"durationMs":3000,"midi":84,"velocity":0.7086614173228346,"hand":"R"},{"time":241500,"durationMs":1500,"midi":63,"velocity":0.7086614173228346,"hand":"L"},{"time":243000,"durationMs":3000,"midi":61,"velocity":0.7086614173228346,"hand":"L"},{"time":243250,"durationMs":250,"midi":63,"velocity":0.7086614173228346,"hand":"L"},{"time":243500,"durationMs":250,"midi":66,"velocity":0.7086614173228346,"hand":"L"},{"time":243500,"durationMs":500,"midi":78,"velocity":0.7086614173228346,"hand":"R"},{"time":243500,"durationMs":500,"midi":82,"velocity":0.7086614173228346,"hand":"R"},{"time":243750,"durationMs":250,"midi":70,"velocity":0.7086614173228346,"hand":"L"},{"time":244000,"durationMs":250,"midi":73,"velocity":0.7086614173228346,"hand":"L"},{"time":244000,"durationMs":500,"midi":80,"velocity":0.7086614173228346,"hand":"R"},{"time":244000,"durationMs":500,"midi":84,"velocity":0.7086614173228346,"hand":"R"},{"time":244250,"durationMs":250,"midi":75,"velocity":0.7086614173228346,"hand":"L"},{"time":244500,"durationMs":1500,"midi":78,"velocity":0.7086614173228346,"hand":"R"},{"time":244500,"durationMs":500,"midi":82,"velocity":0.7086614173228346,"hand":"R"},{"time":245000,"durationMs":500,"midi":87,"velocity":0.7086614173228346,"hand":"R"},{"time":245500,"durationMs":500,"midi":82,"velocity":0.7086614173228346,"hand":"R"},{"time":246000,"durationMs":1500,"midi":60,"velocity":0.7086614173228346,"hand":"L"},{"time":246000,"durationMs":1500,"midi":63,"velocity":0.7086614173228346,"hand":"L"},{"time":246000,"durationMs":1500,"midi":65,"velocity":0.7086614173228346,"hand":"L"},{"time":246000,"durationMs":1500,"midi":68,"velocity":0.7086614173228346,"hand":"L"},{"time":246000,"durationMs":1500,"midi":72,"velocity":0.7086614173228346,"hand":"L"},{"time":246000,"durationMs":2000,"midi":77,"velocity":0.7086614173228346,"hand":"R"},{"time":246000,"durationMs":500,"midi":80,"velocity":0.7086614173228346,"hand":"R"},{"time":246500,"durationMs":500,"midi":82,"velocity":0.7086614173228346,"hand":"R"},{"time":247000,"durationMs":1000,"midi":80,"velocity":0.7086614173228346,"hand":"R"},{"time":247500,"durationMs":3000,"midi":48,"velocity":0.7086614173228346,"hand":"L"},{"time":247750,"durationMs":250,"midi":54,"velocity":0.7086614173228346,"hand":"L"},{"time":248000,"durationMs":250,"midi":58,"velocity":0.7086614173228346,"hand":"L"},{"time":248000,"durationMs":500,"midi":75,"velocity":0.7086614173228346,"hand":"R"},{"time":248000,"durationMs":500,"midi":78,"velocity":0.7086614173228346,"hand":"R"},{"time":248250,"durationMs":250,"midi":60,"velocity":0.7086614173228346,"hand":"L"},{"time":248500,"durationMs":250,"midi":63,"velocity":0.7086614173228346,"hand":"L"},{"time":248500,"durationMs":500,"midi":77,"velocity":0.7086614173228346,"hand":"R"},{"time":248500,"durationMs":500,"midi":80,"velocity":0.7086614173228346,"hand":"R"},{"time":248750,"durationMs":250,"midi":66,"velocity":0.7086614173228346,"hand":"L"},{"time":249000,"durationMs":1500,"midi":70,"velocity":0.7086614173228346,"hand":"L"},{"time":249000,"durationMs":1500,"midi":75,"velocity":0.7086614173228346,"hand":"R"},{"time":249000,"durationMs":1500,"midi":78,"velocity":0.7086614173228346,"hand":"R"},{"time":250500,"durationMs":1500,"midi":53,"velocity":0.7086614173228346,"hand":"L"},{"time":250500,"durationMs":1500,"midi":60,"velocity":0.7086614173228346,"hand":"L"},{"time":250500,"durationMs":1500,"midi":63,"velocity":0.7086614173228346,"hand":"L"},{"time":250500,"durationMs":1500,"midi":69,"velocity":0.7086614173228346,"hand":"R"},{"time":250500,"durationMs":2000,"midi":77,"velocity":0.7086614173228346,"hand":"R"},{"time":252000,"durationMs":3000,"midi":56,"velocity":0.7086614173228346,"hand":"L"},{"time":252250,"durationMs":250,"midi":58,"velocity":0.7086614173228346,"hand":"L"},{"time":252500,"durationMs":250,"midi":61,"velocity":0.7086614173228346,"hand":"L"},{"time":252500,"durationMs":500,"midi":73,"velocity":0.7086614173228346,"hand":"R"},{"time":252500,"durationMs":500,"midi":77,"velocity":0.7086614173228346,"hand":"R"},{"time":252750,"durationMs":250,"midi":65,"velocity":0.7086614173228346,"hand":"L"},{"time":253000,"durationMs":250,"midi":68,"velocity":0.7086614173228346,"hand":"L"},{"time":253000,"durationMs":500,"midi":75,"velocity":0.7086614173228346,"hand":"R"},{"time":253000,"durationMs":500,"midi":78,"velocity":0.7086614173228346,"hand":"R"},{"time":253250,"durationMs":250,"midi":70,"velocity":0.7086614173228346,"hand":"L"},{"time":253500,"durationMs":1500,"midi":73,"velocity":0.7086614173228346,"hand":"R"},{"time":253500,"durationMs":500,"midi":77,"velocity":0.7086614173228346,"hand":"R"},{"time":254000,"durationMs":500,"midi":82,"velocity":0.7086614173228346,"hand":"R"},{"time":254500,"durationMs":500,"midi":77,"velocity":0.7086614173228346,"hand":"R"},{"time":255000,"durationMs":1500,"midi":54,"velocity":0.7086614173228346,"hand":"L"},{"time":255000,"durationMs":1500,"midi":58,"velocity":0.7086614173228346,"hand":"L"},{"time":255000,"durationMs":1500,"midi":61,"velocity":0.7086614173228346,"hand":"L"},{"time":255000,"durationMs":1500,"midi":63,"velocity":0.7086614173228346,"hand":"L"},{"time":255000,"durationMs":1500,"midi":73,"velocity":0.7086614173228346,"hand":"R"},{"time":255000,"durationMs":500,"midi":75,"velocity":0.7086614173228346,"hand":"R"},{"time":255500,"durationMs":500,"midi":77,"velocity":0.7086614173228346,"hand":"R"},{"time":256000,"durationMs":1000,"midi":75,"velocity":0.7086614173228346,"hand":"R"},{"time":256500,"durationMs":3000,"midi":53,"velocity":0.7086614173228346,"hand":"L"},{"time":256750,"durationMs":250,"midi":56,"velocity":0.7086614173228346,"hand":"L"},{"time":257000,"durationMs":250,"midi":58,"velocity":0.7086614173228346,"hand":"L"},{"time":257000,"durationMs":500,"midi":70,"velocity":0.7086614173228346,"hand":"R"},{"time":257000,"durationMs":500,"midi":73,"velocity":0.7086614173228346,"hand":"R"},{"time":257250,"durationMs":250,"midi":61,"velocity":0.7086614173228346,"hand":"L"},{"time":257500,"durationMs":250,"midi":65,"velocity":0.7086614173228346,"hand":"L"},{"time":257500,"durationMs":500,"midi":72,"velocity":0.7086614173228346,"hand":"R"},{"time":257500,"durationMs":500,"midi":75,"velocity":0.7086614173228346,"hand":"R"},{"time":257750,"durationMs":250,"midi":68,"velocity":0.7086614173228346,"hand":"L"},{"time":258000,"durationMs":1500,"midi":70,"velocity":0.7086614173228346,"hand":"R"},{"time":258000,"durationMs":1500,"midi":73,"velocity":0.7086614173228346,"hand":"R"},{"time":259500,"durationMs":750,"midi":51,"velocity":0.7086614173228346,"hand":"L"},{"time":259500,"durationMs":1500,"midi":54,"velocity":0.7086614173228346,"hand":"L"},{"time":259500,"durationMs":1500,"midi":60,"velocity":0.7086614173228346,"hand":"L"},{"time":259500,"durationMs":1500,"midi":68,"velocity":0.7086614173228346,"hand":"R"},{"time":259500,"durationMs":1500,"midi":72,"velocity":0.7086614173228346,"hand":"R"},{"time":260250,"durationMs":750,"midi":44,"velocity":0.7086614173228346,"hand":"L"},{"time":261000,"durationMs":500,"midi":37,"velocity":0.7086614173228346,"hand":"L"},{"time":261000,"durationMs":500,"midi":44,"velocity":0.7086614173228346,"hand":"L"},{"time":261500,"durationMs":1000,"midi":53,"velocity":0.7086614173228346,"hand":"R"},{"time":261500,"durationMs":1000,"midi":56,"velocity":0.7086614173228346,"hand":"R"},{"time":262000,"durationMs":3500,"midi":65,"velocity":0.7086614173228346,"hand":"L"},{"time":262000,"durationMs":3500,"midi":68,"velocity":0.7086614173228346,"hand":"L"},{"time":262500,"durationMs":3000,"midi":59,"velocity":0.7086614173228346,"hand":"L"},{"time":262500,"durationMs":1500,"midi":77,"velocity":0.7086614173228346,"hand":"R"},{"time":262500,"durationMs":1500,"midi":80,"velocity":0.7086614173228346,"hand":"R"},{"time":264000,"durationMs":2000,"midi":73,"velocity":0.7086614173228346,"hand":"R"},{"time":264000,"durationMs":2000,"midi":77,"velocity":0.7086614173228346,"hand":"R"},{"time":265500,"durationMs":3000,"midi":42,"velocity":0.7086614173228346,"hand":"L"},{"time":265500,"durationMs":4500,"midi":49,"velocity":0.7086614173228346,"hand":"L"},{"time":266000,"durationMs":4000,"midi":54,"velocity":0.7086614173228346,"hand":"L"},{"time":266000,"durationMs":4000,"midi":58,"velocity":0.7086614173228346,"hand":"L"},{"time":266000,"durationMs":4000,"midi":61,"velocity":0.7086614173228346,"hand":"L"},{"time":266000,"durationMs":4000,"midi":66,"velocity":0.7086614173228346,"hand":"R"},{"time":266000,"durationMs":4000,"midi":70,"velocity":0.7086614173228346,"hand":"R"},{"time":266000,"durationMs":500,"midi":75,"velocity":0.7086614173228346,"hand":"R"},{"time":266500,"durationMs":500,"midi":77,"velocity":0.7086614173228346,"hand":"R"},{"time":267000,"durationMs":3500,"midi":75,"velocity":0.7086614173228346,"hand":"R"},{"time":270000,"durationMs":3000,"midi":44,"velocity":0.7086614173228346,"hand":"L"},{"time":270500,"durationMs":1000,"midi":53,"velocity":0.7086614173228346,"hand":"L"},{"time":270500,"durationMs":1000,"midi":56,"velocity":0.7086614173228346,"hand":"L"},{"time":270500,"durationMs":500,"midi":61,"velocity":0.7086614173228346,"hand":"R"},{"time":270500,"durationMs":1000,"midi":68,"velocity":0.7086614173228346,"hand":"R"},{"time":270500,"durationMs":500,"midi":73,"velocity":0.7086614173228346,"hand":"R"},{"time":271000,"durationMs":500,"midi":63,"velocity":0.7086614173228346,"hand":"R"},{"time":271000,"durationMs":500,"midi":75,"velocity":0.7086614173228346,"hand":"R"},{"time":271500,"durationMs":3000,"midi":59,"velocity":0.7086614173228346,"hand":"L"},{"time":271500,"durationMs":1500,"midi":61,"velocity":0.7086614173228346,"hand":"L"},{"time":271500,"durationMs":1500,"midi":65,"velocity":0.7086614173228346,"hand":"L"},{"time":271500,"durationMs":1500,"midi":68,"velocity":0.7086614173228346,"hand":"R"},{"time":271500,"durationMs":1500,"midi":77,"velocity":0.7086614173228346,"hand":"R"},{"time":271500,"durationMs":1500,"midi":80,"velocity":0.7086614173228346,"hand":"R"},{"time":273000,"durationMs":1500,"midi":61,"velocity":0.7086614173228346,"hand":"L"},{"time":273000,"durationMs":1500,"midi":65,"velocity":0.7086614173228346,"hand":"R"},{"time":273000,"durationMs":1500,"midi":73,"velocity":0.7086614173228346,"hand":"R"},{"time":273000,"durationMs":2000,"midi":77,"velocity":0.7086614173228346,"hand":"R"},{"time":274500,"durationMs":3000,"midi":46,"velocity":0.7086614173228346,"hand":"L"},{"time":275000,"durationMs":4000,"midi":53,"velocity":0.7086614173228346,"hand":"L"},{"time":275000,"durationMs":4000,"midi":58,"velocity":0.7086614173228346,"hand":"L"},{"time":275000,"durationMs":2500,"midi":63,"velocity":0.7086614173228346,"hand":"L"},{"time":275000,"durationMs":4000,"midi":65,"velocity":0.7086614173228346,"hand":"R"},{"time":275000,"durationMs":4000,"midi":70,"velocity":0.7086614173228346,"hand":"R"},{"time":275000,"durationMs":500,"midi":75,"velocity":0.7086614173228346,"hand":"R"},{"time":275500,"durationMs":500,"midi":77,"velocity":0.7086614173228346,"hand":"R"},{"time":276000,"durationMs":1500,"midi":75,"velocity":0.7086614173228346,"hand":"R"},{"time":277500,"durationMs":1500,"midi":61,"velocity":0.7086614173228346,"hand":"L"},{"time":277500,"durationMs":1500,"midi":73,"velocity":0.7086614173228346,"hand":"R"},{"time":279000,"durationMs":4500,"midi":41,"velocity":0.7086614173228346,"hand":"L"},{"time":279500,"durationMs":1000,"midi":56,"velocity":0.7086614173228346,"hand":"R"},{"time":279500,"durationMs":500,"midi":61,"velocity":0.7086614173228346,"hand":"R"},{"time":280000,"durationMs":500,"midi":63,"velocity":0.7086614173228346,"hand":"R"},{"time":280500,"durationMs":1500,"midi":61,"velocity":0.7086614173228346,"hand":"R"},{"time":280500,"durationMs":1500,"midi":65,"velocity":0.7086614173228346,"hand":"R"},{"time":280500,"durationMs":1500,"midi":70,"velocity":0.7086614173228346,"hand":"R"},{"time":282000,"durationMs":1500,"midi":56,"velocity":0.7086614173228346,"hand":"R"},{"time":282000,"durationMs":1500,"midi":61,"velocity":0.7086614173228346,"hand":"R"},{"time":282000,"durationMs":1500,"midi":65,"velocity":0.7086614173228346,"hand":"R"},{"time":283500,"durationMs":1500,"midi":39,"velocity":0.7086614173228346,"hand":"L"},{"time":284000,"durationMs":1000,"midi":58,"velocity":0.7086614173228346,"hand":"R"},{"time":284000,"durationMs":1000,"midi":61,"velocity":0.7086614173228346,"hand":"R"},{"time":284000,"durationMs":500,"midi":66,"velocity":0.7086614173228346,"hand":"R"},{"time":284500,"durationMs":500,"midi":68,"velocity":0.7086614173228346,"hand":"R"},{"time":285000,"durationMs":1500,"midi":51,"velocity":0.7086614173228346,"hand":"L"},{"time":285000,"durationMs":1500,"midi":66,"velocity":0.7086614173228346,"hand":"R"},{"time":285000,"durationMs":1500,"midi":70,"velocity":0.7086614173228346,"hand":"R"},{"time":285000,"durationMs":1500,"midi":73,"velocity":0.7086614173228346,"hand":"R"},{"time":286500,"durationMs":1500,"midi":61,"velocity":0.7086614173228346,"hand":"R"},{"time":286500,"durationMs":1500,"midi":63,"velocity":0.7086614173228346,"hand":"L"},{"time":286500,"durationMs":1500,"midi":66,"velocity":0.7086614173228346,"hand":"R"},{"time":286500,"durationMs":1500,"midi":70,"velocity":0.7086614173228346,"hand":"R"},{"time":288000,"durationMs":3000,"midi":44,"velocity":0.7086614173228346,"hand":"L"},{"time":288500,"durationMs":1000,"midi":60,"velocity":0.7086614173228346,"hand":"R"},{"time":288500,"durationMs":1000,"midi":66,"velocity":0.7086614173228346,"hand":"R"},{"time":288500,"durationMs":500,"midi":70,"velocity":0.7086614173228346,"hand":"R"},{"time":288750,"durationMs":750,"midi":51,"velocity":0.7086614173228346,"hand":"L"},{"time":289000,"durationMs":500,"midi":72,"velocity":0.7086614173228346,"hand":"R"},{"time":289500,"durationMs":1500,"midi":68,"velocity":0.7086614173228346,"hand":"R"},{"time":289500,"durationMs":1500,"midi":72,"velocity":0.7086614173228346,"hand":"R"},{"time":289500,"durationMs":1500,"midi":77,"velocity":0.7086614173228346,"hand":"R"},{"time":289500,"durationMs":1500,"midi":80,"velocity":0.7086614173228346,"hand":"L"},{"time":291000,"durationMs":1500,"midi":56,"velocity":0.7086614173228346,"hand":"L"},{"time":291000,"durationMs":1500,"midi":60,"velocity":0.7086614173228346,"hand":"R"},{"time":291000,"durationMs":1500,"midi":66,"velocity":0.7086614173228346,"hand":"R"},{"time":291000,"durationMs":1500,"midi":68,"velocity":0.7086614173228346,"hand":"R"},{"time":292500,"durationMs":1500,"midi":37,"velocity":0.7086614173228346,"hand":"L"},{"time":292750,"durationMs":250,"midi":44,"velocity":0.7086614173228346,"hand":"L"},{"time":293000,"durationMs":250,"midi":49,"velocity":0.7086614173228346,"hand":"L"},{"time":293250,"durationMs":250,"midi":53,"velocity":0.7086614173228346,"hand":"L"},{"time":293500,"durationMs":250,"midi":56,"velocity":0.7086614173228346,"hand":"R"},{"time":293750,"durationMs":250,"midi":61,"velocity":0.7086614173228346,"hand":"R"},{"time":294000,"durationMs":1500,"midi":41,"velocity":0.7086614173228346,"hand":"L"},{"time":294250,"durationMs":250,"midi":48,"velocity":0.7086614173228346,"hand":"L"},{"time":294500,"durationMs":250,"midi":53,"velocity":0.7086614173228346,"hand":"L"},{"time":294750,"durationMs":250,"midi":56,"velocity":0.7086614173228346,"hand":"R"},{"time":295000,"durationMs":250,"midi":60,"velocity":0.7086614173228346,"hand":"R"},{"time":295250,"durationMs":250,"midi":65,"velocity":0.7086614173228346,"hand":"R"},{"time":295500,"durationMs":1500,"midi":37,"velocity":0.7086614173228346,"hand":"L"},{"time":295750,"durationMs":250,"midi":44,"velocity":0.7086614173228346,"hand":"L"},{"time":296000,"durationMs":250,"midi":49,"velocity":0.7086614173228346,"hand":"L"},{"time":296250,"durationMs":250,"midi":53,"velocity":0.7086614173228346,"hand":"L"},{"time":296500,"durationMs":250,"midi":56,"velocity":0.7086614173228346,"hand":"R"},{"time":296750,"durationMs":250,"midi":61,"velocity":0.7086614173228346,"hand":"R"},{"time":297000,"durationMs":1500,"midi":41,"velocity":0.7086614173228346,"hand":"L"},{"time":297250,"durationMs":250,"midi":48,"velocity":0.7086614173228346,"hand":"L"},{"time":297500,"durationMs":250,"midi":53,"velocity":0.7086614173228346,"hand":"L"},{"time":297750,"durationMs":250,"midi":56,"velocity":0.7086614173228346,"hand":"R"},{"time":298000,"durationMs":250,"midi":60,"velocity":0.7086614173228346,"hand":"R"},{"time":298250,"durationMs":250,"midi":65,"velocity":0.7086614173228346,"hand":"R"},{"time":298500,"durationMs":3000,"midi":44,"velocity":0.7086614173228346,"hand":"L"},{"time":298500,"durationMs":1500,"midi":68,"velocity":0.7086614173228346,"hand":"R"},{"time":298500,"durationMs":1500,"midi":71,"velocity":0.7086614173228346,"hand":"R"},{"time":298750,"durationMs":250,"midi":52,"velocity":0.7086614173228346,"hand":"L"},{"time":299000,"durationMs":250,"midi":56,"velocity":0.7086614173228346,"hand":"L"},{"time":299250,"durationMs":250,"midi":59,"velocity":0.7086614173228346,"hand":"L"},{"time":299500,"durationMs":250,"midi":64,"velocity":0.7086614173228346,"hand":"L"},{"time":299750,"durationMs":250,"midi":66,"velocity":0.7086614173228346,"hand":"L"},{"time":300000,"durationMs":1500,"midi":64,"velocity":0.7086614173228346,"hand":"R"},{"time":300000,"durationMs":1500,"midi":68,"velocity":0.7086614173228346,"hand":"L"},{"time":300000,"durationMs":1500,"midi":73,"velocity":0.7086614173228346,"hand":"R"},{"time":301500,"durationMs":1500,"midi":49,"velocity":0.7086614173228346,"hand":"L"},{"time":301750,"durationMs":250,"midi":56,"velocity":0.7086614173228346,"hand":"L"},{"time":302000,"durationMs":250,"midi":61,"velocity":0.7086614173228346,"hand":"L"},{"time":302250,"durationMs":250,"midi":65,"velocity":0.7086614173228346,"hand":"L"},{"time":302500,"durationMs":250,"midi":68,"velocity":0.7086614173228346,"hand":"R"},{"time":302750,"durationMs":250,"midi":73,"velocity":0.7086614173228346,"hand":"R"},{"time":303000,"durationMs":1500,"midi":53,"velocity":0.7086614173228346,"hand":"L"},{"time":303250,"durationMs":250,"midi":60,"velocity":0.7086614173228346,"hand":"L"},{"time":303500,"durationMs":250,"midi":65,"velocity":0.7086614173228346,"hand":"L"},{"time":303750,"durationMs":250,"midi":68,"velocity":0.7086614173228346,"hand":"R"},{"time":304000,"durationMs":250,"midi":72,"velocity":0.7086614173228346,"hand":"R"},{"time":304250,"durationMs":250,"midi":77,"velocity":0.7086614173228346,"hand":"R"},{"time":304500,"durationMs":1500,"midi":49,"velocity":0.7086614173228346,"hand":"L"},{"time":304750,"durationMs":250,"midi":56,"velocity":0.7086614173228346,"hand":"L"},{"time":305000,"durationMs":250,"midi":61,"velocity":0.7086614173228346,"hand":"L"},{"time":305250,"durationMs":250,"midi":65,"velocity":0.7086614173228346,"hand":"L"},{"time":305500,"durationMs":250,"midi":68,"velocity":0.7086614173228346,"hand":"R"},{"time":305750,"durationMs":250,"midi":73,"velocity":0.7086614173228346,"hand":"R"},{"time":306000,"durationMs":1500,"midi":53,"velocity":0.7086614173228346,"hand":"L"},{"time":306250,"durationMs":250,"midi":60,"velocity":0.7086614173228346,"hand":"L"},{"time":306500,"durationMs":250,"midi":65,"velocity":0.7086614173228346,"hand":"L"},{"time":306750,"durationMs":250,"midi":68,"velocity":0.7086614173228346,"hand":"R"},{"time":307000,"durationMs":250,"midi":72,"velocity":0.7086614173228346,"hand":"R"},{"time":307250,"durationMs":250,"midi":77,"velocity":0.7086614173228346,"hand":"R"},{"time":307500,"durationMs":3000,"midi":56,"velocity":0.7086614173228346,"hand":"L"},{"time":307500,"durationMs":3000,"midi":80,"velocity":0.7086614173228346,"hand":"R"},{"time":307500,"durationMs":1500,"midi":83,"velocity":0.7086614173228346,"hand":"R"},{"time":307750,"durationMs":250,"midi":59,"velocity":0.7086614173228346,"hand":"L"},{"time":308000,"durationMs":250,"midi":64,"velocity":0.7086614173228346,"hand":"L"},{"time":308250,"durationMs":250,"midi":68,"velocity":0.7086614173228346,"hand":"L"},{"time":308500,"durationMs":250,"midi":71,"velocity":0.7086614173228346,"hand":"L"},{"time":308750,"durationMs":1750,"midi":76,"velocity":0.7086614173228346,"hand":"L"},{"time":309000,"durationMs":1500,"midi":85,"velocity":0.7086614173228346,"hand":"R"},{"time":310500,"durationMs":3000,"midi":56,"velocity":0.7086614173228346,"hand":"L"},{"time":310500,"durationMs":3000,"midi":80,"velocity":0.7086614173228346,"hand":"R"},{"time":310500,"durationMs":1500,"midi":83,"velocity":0.7086614173228346,"hand":"R"},{"time":310750,"durationMs":250,"midi":59,"velocity":0.7086614173228346,"hand":"L"},{"time":311000,"durationMs":250,"midi":64,"velocity":0.7086614173228346,"hand":"L"},{"time":311250,"durationMs":250,"midi":68,"velocity":0.7086614173228346,"hand":"L"},{"time":311500,"durationMs":250,"midi":71,"velocity":0.7086614173228346,"hand":"L"},{"time":311750,"durationMs":1750,"midi":76,"velocity":0.7086614173228346,"hand":"L"},{"time":312000,"durationMs":1500,"midi":85,"velocity":0.7086614173228346,"hand":"R"},{"time":313500,"durationMs":1500,"midi":44,"velocity":0.7086614173228346,"hand":"L"},{"time":313500,"durationMs":1500,"midi":88,"velocity":0.7086614173228346,"hand":"R"},{"time":315000,"durationMs":3000,"midi":37,"velocity":0.7086614173228346,"hand":"L"},{"time":315000,"durationMs":4500,"midi":89,"velocity":0.7086614173228346,"hand":"R"},{"time":315000,"durationMs":4500,"midi":92,"velocity":0.7086614173228346,"hand":"R"},{"time":315250,"durationMs":250,"midi":44,"velocity":0.7086614173228346,"hand":"L"},{"time":315500,"durationMs":250,"midi":49,"velocity":0.7086614173228346,"hand":"L"},{"time":315750,"durationMs":250,"midi":53,"velocity":0.7086614173228346,"hand":"L"},{"time":316000,"durationMs":250,"midi":56,"velocity":0.7086614173228346,"hand":"L"},{"time":316250,"durationMs":250,"midi":61,"velocity":0.7086614173228346,"hand":"L"},{"time":316500,"durationMs":500,"midi":65,"velocity":0.7086614173228346,"hand":"L"},{"time":317000,"durationMs":500,"midi":68,"velocity":0.7086614173228346,"hand":"L"},{"time":317500,"durationMs":500,"midi":73,"velocity":0.7086614173228346,"hand":"L"},{"time":318000,"durationMs":500,"midi":77,"velocity":0.7086614173228346,"hand":"L"},{"time":318500,"durationMs":500,"midi":80,"velocity":0.7086614173228346,"hand":"L"},{"time":319000,"durationMs":500,"midi":85,"velocity":0.7086614173228346,"hand":"L"},{"time":319500,"durationMs":3000,"midi":61,"velocity":0.7086614173228346,"hand":"L"},{"time":319500,"durationMs":3000,"midi":68,"velocity":0.7086614173228346,"hand":"L"},{"time":319500,"durationMs":3000,"midi":73,"velocity":0.7086614173228346,"hand":"L"},{"time":319500,"durationMs":3000,"midi":77,"velocity":0.7086614173228346,"hand":"L"},{"time":319500,"durationMs":3000,"midi":80,"velocity":0.7086614173228346,"hand":"R"},{"time":319500,"durationMs":3000,"midi":85,"velocity":0.7086614173228346,"hand":"R"},{"time":319500,"durationMs":3000,"midi":89,"velocity":0.7086614173228346,"hand":"R"},{"time":319500,"durationMs":3000,"midi":92,"velocity":0.7086614173228346,"hand":"R"}]}
