{"meta":{"title":"Für Elise","bpm":72,"durationMs":129792},"notes":[{"time":0,"durationMs":208,"midi":76,"velocity":0.4881889763779528,"hand":"R"},{"time":208,"durationMs":208,"midi":75,"velocity":0.4881889763779528,"hand":"R"},{"time":417,"durationMs":208,"midi":76,"velocity":0.4881889763779528,"hand":"R"},{"time":625,"durationMs":208,"midi":75,"velocity":0.4881889763779528,"hand":"R"},{"time":833,"durationMs":208,"midi":76,"velocity":0.4881889763779528,"hand":"R"},{"time":1042,"durationMs":208,"midi":71,"velocity":0.4881889763779528,"hand":"R"},{"time":1250,"durationMs":208,"midi":74,"velocity":0.4881889763779528,"hand":"R"},{"time":1458,"durationMs":208,"midi":72,"velocity":0.4881889763779528,"hand":"R"},{"time":1667,"durationMs":208,"midi":45,"velocity":0.4881889763779528,"hand":"L"},{"time":1667,"durationMs":417,"midi":69,"velocity":0.4881889763779528,"hand":"R"},{"time":1875,"durationMs":208,"midi":52,"velocity":0.4881889763779528,"hand":"L"},{"time":2083,"durationMs":208,"midi":57,"velocity":0.4881889763779528,"hand":"L"},{"time":2292,"durationMs":208,"midi":60,"velocity":0.4881889763779528,"hand":"R"},{"time":2500,"durationMs":208,"midi":64,"velocity":0.4881889763779528,"hand":"R"},{"time":2708,"durationMs":208,"midi":69,"velocity":0.4881889763779528,"hand":"R"},{"time":2917,"durationMs":208,"midi":40,"velocity":0.4881889763779528,"hand":"L"},{"time":2917,"durationMs":417,"midi":71,"velocity":0.4881889763779528,"hand":"R"},{"time":3125,"durationMs":208,"midi":52,"velocity":0.4881889763779528,"hand":"L"},{"time":3333,"durationMs":208,"midi":56,"velocity":0.4881889763779528,"hand":"L"},{"time":3542,"durationMs":208,"midi":64,"velocity":0.4881889763779528,"hand":"R"},{"time":3750,"durationMs":208,"midi":68,"velocity":0.4881889763779528,"hand":"R"},{"time":3958,"durationMs":208,"midi":71,"velocity":0.4881889763779528,"hand":"R"},{"time":4167,"durationMs":208,"midi":45,"velocity":0.4881889763779528,"hand":"L"},{"time":4167,"durationMs":417,"midi":72,"velocity":0.4881889763779528,"hand":"R"},{"time":4375,"durationMs":208,"midi":52,"velocity":0.4881889763779528,"hand":"L"},{"time":4583,"durationMs":208,"midi":57,"velocity":0.4881889763779528,"hand":"L"},{"time":4792,"durationMs":208,"midi":64,"velocity":0.4881889763779528,"hand":"R"},{"time":5000,"durationMs":208,"midi":76,"velocity":0.4881889763779528,"hand":"R"},{"time":5208,"durationMs":208,"midi":75,"velocity":0.4881889763779528,"hand":"R"},{"time":5417,"durationMs":208,"midi":76,"velocity":0.4881889763779528,"hand":"R"},{"time":5625,"durationMs":208,"midi":75,"velocity":0.4881889763779528,"hand":"R"},{"time":5833,"durationMs":208,"midi":76,"velocity":0.4881889763779528,"hand":"R"},{"time":6042,"durationMs":208,"midi":71,"velocity":0.4881889763779528,"hand":"R"},{"time":6250,"durationMs":208,"midi":74,"velocity":0.4881889763779528,"hand":"R"},{"time":6458,"durationMs":208,"midi":72,"velocity":0.4881889763779528,"hand":"R"},{"time":6667,"durationMs":208,"midi":45,"velocity":0.4881889763779528,"hand":"L"},{"time":6667,"durationMs":417,"midi":69,"velocity":0.4881889763779528,"hand":"R"},{"time":6875,"durationMs":208,"midi":52,"velocity":0.4881889763779528,"hand":"L"},{"time":7083,"durationMs":208,"midi":57,"velocity":0.4881889763779528,"hand":"L"},{"time":7292,"durationMs":208,"midi":60,"velocity":0.4881889763779528,"hand":"R"},{"time":7500,"durationMs":208,"midi":64,"velocity":0.4881889763779528,"hand":"R"},{"time":7708,"durationMs":208,"midi":69,"velocity":0.4881889763779528,"hand":"R"},{"time":7917,"durationMs":208,"midi":40,"velocity":0.4881889763779528,"hand":"L"},{"time":7917,"durationMs":417,"midi":71,"velocity":0.4881889763779528,"hand":"R"},{"time":8125,"durationMs":208,"midi":52,"velocity":0.4881889763779528,"hand":"L"},{"time":8333,"durationMs":208,"midi":56,"velocity":0.4881889763779528,"hand":"L"},{"time":8542,"durationMs":208,"midi":64,"velocity":0.4881889763779528,"hand":"R"},{"time":8750,"durationMs":208,"midi":72,"velocity":0.4881889763779528,"hand":"R"},{"time":8958,"durationMs":208,"midi":71,"velocity":0.4881889763779528,"hand":"R"},{"time":9167,"durationMs":208,"midi":45,"velocity":0.4881889763779528,"hand":"L"},{"time":9167,"durationMs":833,"midi":69,"velocity":0.4881889763779528,"hand":"R"},{"time":9375,"durationMs":208,"midi":52,"velocity":0.4881889763779528,"hand":"L"},{"time":9583,"durationMs":208,"midi":57,"velocity":0.4881889763779528,"hand":"L"},{"time":10000,"durationMs":208,"midi":71,"velocity":0.4881889763779528,"hand":"R"},{"time":10208,"durationMs":208,"midi":72,"velocity":0.4881889763779528,"hand":"R"},{"time":10417,"durationMs":208,"midi":74,"velocity":0.4881889763779528,"hand":"R"},{"time":10625,"durationMs":208,"midi":48,"velocity":0.4881889763779528,"hand":"L"},{"time":10625,"durationMs":625,"midi":76,"velocity":0.4881889763779528,"hand":"R"},{"time":10833,"durationMs":208,"midi":55,"velocity":0.4881889763779528,"hand":"L"},{"time":11042,"durationMs":208,"midi":60,"velocity":0.4881889763779528,"hand":"L"},{"time":11250,"durationMs":208,"midi":67,"velocity":0.4881889763779528,"hand":"R"},{"time":11458,"durationMs":208,"midi":77,"velocity":0.4881889763779528,"hand":"R"},{"time":11667,"durationMs":208,"midi":76,"velocity":0.4881889763779528,"hand":"R"},{"time":11875,"durationMs":208,"midi":43,"velocity":0.4881889763779528,"hand":"L"},{"time":11875,"durationMs":625,"midi":74,"velocity":0.4881889763779528,"hand":"R"},{"time":12083,"durationMs":208,"midi":55,"velocity":0.4881889763779528,"hand":"L"},{"time":12292,"durationMs":208,"midi":59,"velocity":0.4881889763779528,"hand":"L"},{"time":12500,"durationMs":208,"midi":65,"velocity":0.4881889763779528,"hand":"R"},{"time":12708,"durationMs":208,"midi":76,"velocity":0.4881889763779528,"hand":"R"},{"time":12917,"durationMs":208,"midi":74,"velocity":0.4881889763779528,"hand":"R"},{"time":13125,"durationMs":208,"midi":45,"velocity":0.4881889763779528,"hand":"L"},{"time":13125,"durationMs":625,"midi":72,"velocity":0.4881889763779528,"hand":"R"},{"time":13333,"durationMs":208,"midi":52,"velocity":0.4881889763779528,"hand":"L"},{"time":13542,"durationMs":208,"midi":57,"velocity":0.4881889763779528,"hand":"L"},{"time":13750,"durationMs":208,"midi":64,"velocity":0.4881889763779528,"hand":"R"},{"time":13958,"durationMs":208,"midi":74,"velocity":0.4881889763779528,"hand":"R"},{"time":14167,"durationMs":208,"midi":72,"velocity":0.4881889763779528,"hand":"R"},{"time":14375,"durationMs":208,"midi":40,"velocity":0.4881889763779528,"hand":"L"},{"time":14375,"durationMs":417,"midi":71,"velocity":0.4881889763779528,"hand":"R"},{"time":14583,"durationMs":208,"midi":52,"velocity":0.4881889763779528,"hand":"L"},{"time":14792,"durationMs":208,"midi":64,"velocity":0.4881889763779528,"hand":"L"},{"time":15000,"durationMs":208,"midi":64,"velocity":0.4881889763779528,"hand":"R"},{"time":15208,"durationMs":208,"midi":76,"velocity":0.4881889763779528,"hand":"R"},{"time":15417,"durationMs":208,"midi":64,"velocity":0.4881889763779528,"hand":"L"},{"time":15625,"durationMs":208,"midi":76,"velocity":0.4881889763779528,"hand":"L"},{"time":15833,"durationMs":208,"midi":76,"velocity":0.4881889763779528,"hand":"R"},{"time":16042,"durationMs":208,"midi":88,"velocity":0.4881889763779528,"hand":"R"},{"time":16250,"durationMs":208,"midi":75,"velocity":0.4881889763779528,"hand":"L"},{"time":16458,"durationMs":208,"midi":76,"velocity":0.4881889763779528,"hand":"L"},{"time":16667,"durationMs":208,"midi":75,"velocity":0.4881889763779528,"hand":"R"},{"time":16875,"durationMs":417,"midi":76,"velocity":0.4881889763779528,"hand":"R"},{"time":17083,"durationMs":208,"midi":75,"velocity":0.4881889763779528,"hand":"L"},{"time":17292,"durationMs":208,"midi":76,"velocity":0.4881889763779528,"hand":"L"},{"time":17500,"durationMs":208,"midi":75,"velocity":0.4881889763779528,"hand":"R"},{"time":17708,"durationMs":208,"midi":76,"velocity":0.4881889763779528,"hand":"R"},{"time":17917,"durationMs":208,"midi":75,"velocity":0.4881889763779528,"hand":"R"},{"time":18125,"durationMs":208,"midi":76,"velocity":0.4881889763779528,"hand":"R"},{"time":18333,"durationMs":208,"midi":75,"velocity":0.4881889763779528,"hand":"R"},{"time":18542,"durationMs":208,"midi":76,"velocity":0.4881889763779528,"hand":"R"},{"time":18750,"durationMs":208,"midi":71,"velocity":0.4881889763779528,"hand":"R"},{"time":18958,"durationMs":208,"midi":74,"velocity":0.4881889763779528,"hand":"R"},{"time":19167,"durationMs":208,"midi":72,"velocity":0.4881889763779528,"hand":"R"},{"time":19375,"durationMs":208,"midi":45,"velocity":0.4881889763779528,"hand":"L"},{"time":19375,"durationMs":417,"midi":69,"velocity":0.4881889763779528,"hand":"R"},{"time":19583,"durationMs":208,"midi":52,"velocity":0.4881889763779528,"hand":"L"},{"time":19792,"durationMs":208,"midi":57,"velocity":0.4881889763779528,"hand":"L"},{"time":20000,"durationMs":208,"midi":60,"velocity":0.4881889763779528,"hand":"R"},{"time":20208,"durationMs":208,"midi":64,"velocity":0.4881889763779528,"hand":"R"},{"time":20417,"durationMs":208,"midi":69,"velocity":0.4881889763779528,"hand":"R"},{"time":20625,"durationMs":208,"midi":40,"velocity":0.4881889763779528,"hand":"L"},{"time":20625,"durationMs":417,"midi":71,"velocity":0.4881889763779528,"hand":"R"},{"time":20833,"durationMs":208,"midi":52,"velocity":0.4881889763779528,"hand":"L"},{"time":21042,"durationMs":208,"midi":56,"velocity":0.4881889763779528,"hand":"L"},{"time":21250,"durationMs":208,"midi":64,"velocity":0.4881889763779528,"hand":"R"},{"time":21458,"durationMs":208,"midi":68,"velocity":0.4881889763779528,"hand":"R"},{"time":21667,"durationMs":208,"midi":71,"velocity":0.4881889763779528,"hand":"R"},{"time":21875,"durationMs":208,"midi":45,"velocity":0.4881889763779528,"hand":"L"},{"time":21875,"durationMs":417,"midi":72,"velocity":0.4881889763779528,"hand":"R"},{"time":22083,"durationMs":208,"midi":52,"velocity":0.4881889763779528,"hand":"L"},{"time":22292,"durationMs":208,"midi":57,"velocity":0.4881889763779528,"hand":"L"},{"time":22500,"durationMs":208,"midi":64,"velocity":0.4881889763779528,"hand":"R"},{"time":22708,"durationMs":208,"midi":76,"velocity":0.4881889763779528,"hand":"R"},{"time":22917,"durationMs":208,"midi":75,"velocity":0.4881889763779528,"hand":"R"},{"time":23125,"durationMs":208,"midi":76,"velocity":0.4881889763779528,"hand":"R"},{"time":23333,"durationMs":208,"midi":75,"velocity":0.4881889763779528,"hand":"R"},{"time":23542,"durationMs":208,"midi":76,"velocity":0.4881889763779528,"hand":"R"},{"time":23750,"durationMs":208,"midi":71,"velocity":0.4881889763779528,"hand":"R"},{"time":23958,"durationMs":208,"midi":74,"velocity":0.4881889763779528,"hand":"R"},{"time":24167,"durationMs":208,"midi":72,"velocity":0.4881889763779528,"hand":"R"},{"time":24375,"durationMs":208,"midi":45,"velocity":0.4881889763779528,"hand":"L"},{"time":24375,"durationMs":417,"midi":69,"velocity":0.4881889763779528,"hand":"R"},{"time":24583,"durationMs":208,"midi":52,"velocity":0.4881889763779528,"hand":"L"},{"time":24792,"durationMs":208,"midi":57,"velocity":0.4881889763779528,"hand":"L"},{"time":25000,"durationMs":208,"midi":60,"velocity":0.4881889763779528,"hand":"R"},{"time":25208,"durationMs":208,"midi":64,"velocity":0.4881889763779528,"hand":"R"},{"time":25417,"durationMs":208,"midi":69,"velocity":0.4881889763779528,"hand":"R"},{"time":25625,"durationMs":208,"midi":40,"velocity":0.4881889763779528,"hand":"L"},{"time":25625,"durationMs":417,"midi":71,"velocity":0.4881889763779528,"hand":"R"},{"time":25833,"durationMs":208,"midi":52,"velocity":0.4881889763779528,"hand":"L"},{"time":26042,"durationMs":208,"midi":56,"velocity":0.4881889763779528,"hand":"L"},{"time":26250,"durationMs":208,"midi":64,"velocity":0.4881889763779528,"hand":"R"},{"time":26458,"durationMs":208,"midi":72,"velocity":0.4881889763779528,"hand":"R"},{"time":26667,"durationMs":208,"midi":71,"velocity":0.4881889763779528,"hand":"R"},{"time":26875,"durationMs":208,"midi":45,"velocity":0.4881889763779528,"hand":"L"},{"time":26875,"durationMs":417,"midi":69,"velocity":0.4881889763779528,"hand":"R"},{"time":27083,"durationMs":208,"midi":52,"velocity":0.4881889763779528,"hand":"L"},{"time":27292,"durationMs":208,"midi":57,"velocity":0.4881889763779528,"hand":"L"},{"time":27500,"durationMs":208,"midi":71,"velocity":0.4881889763779528,"hand":"R"},{"time":27708,"durationMs":208,"midi":72,"velocity":0.4881889763779528,"hand":"R"},{"time":27917,"durationMs":208,"midi":74,"velocity":0.4881889763779528,"hand":"R"},{"time":28125,"durationMs":208,"midi":45,"velocity":0.4881889763779528,"hand":"L"},{"time":28125,"durationMs":417,"midi":69,"velocity":0.4881889763779528,"hand":"R"},{"time":28333,"durationMs":208,"midi":52,"velocity":0.4881889763779528,"hand":"L"},{"time":28542,"durationMs":208,"midi":57,"velocity":0.4881889763779528,"hand":"L"},{"time":28750,"durationMs":208,"midi":58,"velocity":0.4881889763779528,"hand":"L"},{"time":28750,"durationMs":208,"midi":60,"velocity":0.4881889763779528,"hand":"L"},{"time":28750,"durationMs":208,"midi":64,"velocity":0.4881889763779528,"hand":"R"},{"time":28750,"durationMs":208,"midi":72,"velocity":0.4881889763779528,"hand":"R"},{"time":28958,"durationMs":208,"midi":57,"velocity":0.4881889763779528,"hand":"L"},{"time":28958,"durationMs":208,"midi":60,"velocity":0.4881889763779528,"hand":"L"},{"time":28958,"durationMs":208,"midi":65,"velocity":0.4881889763779528,"hand":"R"},{"time":28958,"durationMs":208,"midi":72,"velocity":0.4881889763779528,"hand":"R"},{"time":29167,"durationMs":208,"midi":55,"velocity":0.4881889763779528,"hand":"L"},{"time":29167,"durationMs":208,"midi":58,"velocity":0.4881889763779528,"hand":"L"},{"time":29167,"durationMs":208,"midi":60,"velocity":0.4881889763779528,"hand":"L"},{"time":29167,"durationMs":113,"midi":64,"velocity":0.4881889763779528,"hand":"R"},{"time":29167,"durationMs":113,"midi":67,"velocity":0.4881889763779528,"hand":"R"},{"time":29167,"durationMs":113,"midi":72,"velocity":0.4881889763779528,"hand":"R"},{"time":29280,"durationMs":46,"midi":65,"velocity":0.4881889763779528,"hand":"R"},{"time":29327,"durationMs":46,"midi":69,"velocity":0.4881889763779528,"hand":"R"},{"time":29375,"durationMs":208,"midi":53,"velocity":0.4881889763779528,"hand":"L"},{"time":29375,"durationMs":833,"midi":72,"velocity":0.4881889763779528,"hand":"R"},{"time":29583,"durationMs":208,"midi":57,"velocity":0.4881889763779528,"hand":"L"},{"time":29792,"durationMs":208,"midi":60,"velocity":0.4881889763779528,"hand":"L"},{"time":30000,"durationMs":208,"midi":57,"velocity":0.4881889763779528,"hand":"L"},{"time":30208,"durationMs":208,"midi":60,"velocity":0.4881889763779528,"hand":"L"},{"time":30208,"durationMs":312,"midi":77,"velocity":0.4881889763779528,"hand":"R"},{"time":30417,"durationMs":208,"midi":57,"velocity":0.4881889763779528,"hand":"L"},{"time":30521,"durationMs":104,"midi":76,"velocity":0.4881889763779528,"hand":"R"},{"time":30625,"durationMs":208,"midi":53,"velocity":0.4881889763779528,"hand":"L"},{"time":30625,"durationMs":417,"midi":76,"velocity":0.4881889763779528,"hand":"R"},{"time":30833,"durationMs":208,"midi":58,"velocity":0.4881889763779528,"hand":"L"},{"time":31042,"durationMs":208,"midi":62,"velocity":0.4881889763779528,"hand":"L"},{"time":31042,"durationMs":417,"midi":74,"velocity":0.4881889763779528,"hand":"R"},{"time":31250,"durationMs":208,"midi":58,"velocity":0.4881889763779528,"hand":"L"},{"time":31458,"durationMs":208,"midi":62,"velocity":0.4881889763779528,"hand":"L"},{"time":31458,"durationMs":312,"midi":82,"velocity":0.4881889763779528,"hand":"R"},{"time":31667,"durationMs":208,"midi":58,"velocity":0.4881889763779528,"hand":"L"},{"time":31771,"durationMs":104,"midi":81,"velocity":0.4881889763779528,"hand":"R"},{"time":31875,"durationMs":208,"midi":53,"velocity":0.4881889763779528,"hand":"L"},{"time":31875,"durationMs":208,"midi":81,"velocity":0.4881889763779528,"hand":"R"},{"time":32083,"durationMs":208,"midi":64,"velocity":0.4881889763779528,"hand":"L"},{"time":32083,"durationMs":208,"midi":79,"velocity":0.4881889763779528,"hand":"R"},{"time":32292,"durationMs":208,"midi":53,"velocity":0.4881889763779528,"hand":"L"},{"time":32292,"durationMs":208,"midi":55,"velocity":0.4881889763779528,"hand":"L"},{"time":32292,"durationMs":208,"midi":58,"velocity":0.4881889763779528,"hand":"L"},{"time":32292,"durationMs":208,"midi":77,"velocity":0.4881889763779528,"hand":"R"},{"time":32500,"durationMs":208,"midi":64,"velocity":0.4881889763779528,"hand":"L"},{"time":32500,"durationMs":208,"midi":76,"velocity":0.4881889763779528,"hand":"R"},{"time":32708,"durationMs":208,"midi":53,"velocity":0.4881889763779528,"hand":"L"},{"time":32708,"durationMs":208,"midi":55,"velocity":0.4881889763779528,"hand":"L"},{"time":32708,"durationMs":208,"midi":58,"velocity":0.4881889763779528,"hand":"L"},{"time":32708,"durationMs":208,"midi":74,"velocity":0.4881889763779528,"hand":"R"},{"time":32917,"durationMs":208,"midi":64,"velocity":0.4881889763779528,"hand":"L"},{"time":32917,"durationMs":208,"midi":72,"velocity":0.4881889763779528,"hand":"R"},{"time":33125,"durationMs":208,"midi":53,"velocity":0.4881889763779528,"hand":"L"},{"time":33125,"durationMs":417,"midi":70,"velocity":0.4881889763779528,"hand":"R"},{"time":33333,"durationMs":208,"midi":57,"velocity":0.4881889763779528,"hand":"L"},{"time":33542,"durationMs":208,"midi":60,"velocity":0.4881889763779528,"hand":"L"},{"time":33542,"durationMs":393,"midi":69,"velocity":0.4881889763779528,"hand":"R"},{"time":33750,"durationMs":208,"midi":57,"velocity":0.4881889763779528,"hand":"L"},{"time":33934,"durationMs":22,"midi":70,"velocity":0.4881889763779528,"hand":"R"},{"time":33958,"durationMs":208,"midi":60,"velocity":0.4881889763779528,"hand":"L"},{"time":33958,"durationMs":104,"midi":69,"velocity":0.4881889763779528,"hand":"R"},{"time":34062,"durationMs":104,"midi":67,"velocity":0.4881889763779528,"hand":"R"},{"time":34167,"durationMs":208,"midi":57,"velocity":0.4881889763779528,"hand":"L"},{"time":34167,"durationMs":104,"midi":69,"velocity":0.4881889763779528,"hand":"R"},{"time":34271,"durationMs":104,"midi":70,"velocity":0.4881889763779528,"hand":"R"},{"time":34375,"durationMs":208,"midi":53,"velocity":0.4881889763779528,"hand":"L"},{"time":34375,"durationMs":833,"midi":72,"velocity":0.4881889763779528,"hand":"R"},{"time":34583,"durationMs":208,"midi":57,"velocity":0.4881889763779528,"hand":"L"},{"time":34792,"durationMs":208,"midi":60,"velocity":0.4881889763779528,"hand":"L"},{"time":35000,"durationMs":208,"midi":57,"velocity":0.4881889763779528,"hand":"L"},{"time":35208,"durationMs":208,"midi":60,"velocity":0.4881889763779528,"hand":"L"},{"time":35208,"durationMs":208,"midi":74,"velocity":0.4881889763779528,"hand":"R"},{"time":35417,"durationMs":208,"midi":57,"velocity":0.4881889763779528,"hand":"L"},{"time":35417,"durationMs":208,"midi":75,"velocity":0.4881889763779528,"hand":"R"},{"time":35625,"durationMs":208,"midi":52,"velocity":0.4881889763779528,"hand":"L"},{"time":35625,"durationMs":625,"midi":76,"velocity":0.4881889763779528,"hand":"R"},{"time":35833,"durationMs":208,"midi":57,"velocity":0.4881889763779528,"hand":"L"},{"time":36042,"durationMs":208,"midi":60,"velocity":0.4881889763779528,"hand":"L"},{"time":36250,"durationMs":208,"midi":57,"velocity":0.4881889763779528,"hand":"L"},{"time":36250,"durationMs":208,"midi":76,"velocity":0.4881889763779528,"hand":"R"},{"time":36458,"durationMs":208,"midi":50,"velocity":0.4881889763779528,"hand":"L"},{"time":36458,"durationMs":208,"midi":62,"velocity":0.4881889763779528,"hand":"L"},{"time":36458,"durationMs":208,"midi":77,"velocity":0.4881889763779528,"hand":"R"},{"time":36667,"durationMs":208,"midi":53,"velocity":0.4881889763779528,"hand":"L"},{"time":36667,"durationMs":208,"midi":69,"velocity":0.4881889763779528,"hand":"R"},{"time":36875,"durationMs":208,"midi":55,"velocity":0.4881889763779528,"hand":"L"},{"time":36875,"durationMs":833,"midi":72,"velocity":0.4881889763779528,"hand":"R"},{"time":37083,"durationMs":208,"midi":64,"velocity":0.4881889763779528,"hand":"L"},{"time":37292,"durationMs":208,"midi":55,"velocity":0.4881889763779528,"hand":"L"},{"time":37500,"durationMs":208,"midi":64,"velocity":0.4881889763779528,"hand":"L"},{"time":37708,"durationMs":208,"midi":55,"velocity":0.4881889763779528,"hand":"L"},{"time":37708,"durationMs":312,"midi":74,"velocity":0.4881889763779528,"hand":"R"},{"time":37917,"durationMs":208,"midi":65,"velocity":0.4881889763779528,"hand":"L"},{"time":38021,"durationMs":104,"midi":71,"velocity":0.4881889763779528,"hand":"R"},{"time":38125,"durationMs":417,"midi":60,"velocity":0.4881889763779528,"hand":"L"},{"time":38125,"durationMs":417,"midi":64,"velocity":0.4881889763779528,"hand":"L"},{"time":38125,"durationMs":104,"midi":72,"velocity":0.4881889763779528,"hand":"R"},{"time":38229,"durationMs":104,"midi":79,"velocity":0.4881889763779528,"hand":"R"},{"time":38333,"durationMs":104,"midi":67,"velocity":0.4881889763779528,"hand":"R"},{"time":38437,"durationMs":104,"midi":79,"velocity":0.4881889763779528,"hand":"R"},{"time":38542,"durationMs":104,"midi":69,"velocity":0.4881889763779528,"hand":"R"},{"time":38646,"durationMs":104,"midi":79,"velocity":0.4881889763779528,"hand":"R"},{"time":38750,"durationMs":208,"midi":65,"velocity":0.4881889763779528,"hand":"L"},{"time":38750,"durationMs":208,"midi":67,"velocity":0.4881889763779528,"hand":"L"},{"time":38750,"durationMs":104,"midi":71,"velocity":0.4881889763779528,"hand":"R"},{"time":38854,"durationMs":104,"midi":79,"velocity":0.4881889763779528,"hand":"R"},{"time":38958,"durationMs":208,"midi":64,"velocity":0.4881889763779528,"hand":"L"},{"time":38958,"durationMs":208,"midi":67,"velocity":0.4881889763779528,"hand":"L"},{"time":38958,"durationMs":104,"midi":72,"velocity":0.4881889763779528,"hand":"R"},{"time":39062,"durationMs":104,"midi":79,"velocity":0.4881889763779528,"hand":"R"},{"time":39167,"durationMs":208,"midi":62,"velocity":0.4881889763779528,"hand":"L"},{"time":39167,"durationMs":208,"midi":65,"velocity":0.4881889763779528,"hand":"L"},{"time":39167,"durationMs":208,"midi":67,"velocity":0.4881889763779528,"hand":"L"},{"time":39167,"durationMs":104,"midi":74,"velocity":0.4881889763779528,"hand":"R"},{"time":39271,"durationMs":104,"midi":79,"velocity":0.4881889763779528,"hand":"R"},{"time":39375,"durationMs":417,"midi":60,"velocity":0.4881889763779528,"hand":"L"},{"time":39375,"durationMs":417,"midi":64,"velocity":0.4881889763779528,"hand":"L"},{"time":39375,"durationMs":417,"midi":67,"velocity":0.4881889763779528,"hand":"L"},{"time":39375,"durationMs":104,"midi":76,"velocity":0.4881889763779528,"hand":"R"},{"time":39479,"durationMs":104,"midi":79,"velocity":0.4881889763779528,"hand":"R"},{"time":39583,"durationMs":104,"midi":84,"velocity":0.4881889763779528,"hand":"R"},{"time":39687,"durationMs":104,"midi":83,"velocity":0.4881889763779528,"hand":"R"},{"time":39792,"durationMs":417,"midi":53,"velocity":0.4881889763779528,"hand":"L"},{"time":39792,"durationMs":417,"midi":57,"velocity":0.4881889763779528,"hand":"L"},{"time":39792,"durationMs":104,"midi":81,"velocity":0.4881889763779528,"hand":"R"},{"time":39896,"durationMs":104,"midi":79,"velocity":0.4881889763779528,"hand":"R"},{"time":40000,"durationMs":104,"midi":77,"velocity":0.4881889763779528,"hand":"R"},{"time":40104,"durationMs":104,"midi":76,"velocity":0.4881889763779528,"hand":"R"},{"time":40208,"durationMs":417,"midi":55,"velocity":0.4881889763779528,"hand":"L"},{"time":40208,"durationMs":417,"midi":59,"velocity":0.4881889763779528,"hand":"L"},{"time":40208,"durationMs":104,"midi":74,"velocity":0.4881889763779528,"hand":"R"},{"time":40312,"durationMs":104,"midi":79,"velocity":0.4881889763779528,"hand":"R"},{"time":40417,"durationMs":104,"midi":77,"velocity":0.4881889763779528,"hand":"R"},{"time":40521,"durationMs":104,"midi":74,"velocity":0.4881889763779528,"hand":"R"},{"time":40625,"durationMs":417,"midi":60,"velocity":0.4881889763779528,"hand":"L"},{"time":40625,"durationMs":104,"midi":72,"velocity":0.4881889763779528,"hand":"R"},{"time":40729,"durationMs":104,"midi":79,"velocity":0.4881889763779528,"hand":"R"},{"time":40833,"durationMs":104,"midi":67,"velocity":0.4881889763779528,"hand":"R"},{"time":40937,"durationMs":104,"midi":79,"velocity":0.4881889763779528,"hand":"R"},{"time":41042,"durationMs":104,"midi":69,"velocity":0.4881889763779528,"hand":"R"},{"time":41146,"durationMs":104,"midi":79,"velocity":0.4881889763779528,"hand":"R"},{"time":41250,"durationMs":208,"midi":65,"velocity":0.4881889763779528,"hand":"L"},{"time":41250,"durationMs":208,"midi":67,"velocity":0.4881889763779528,"hand":"L"},{"time":41250,"durationMs":104,"midi":71,"velocity":0.4881889763779528,"hand":"R"},{"time":41354,"durationMs":104,"midi":79,"velocity":0.4881889763779528,"hand":"R"},{"time":41458,"durationMs":208,"midi":64,"velocity":0.4881889763779528,"hand":"L"},{"time":41458,"durationMs":208,"midi":67,"velocity":0.4881889763779528,"hand":"L"},{"time":41458,"durationMs":104,"midi":72,"velocity":0.4881889763779528,"hand":"R"},{"time":41562,"durationMs":104,"midi":79,"velocity":0.4881889763779528,"hand":"R"},{"time":41667,"durationMs":208,"midi":62,"velocity":0.4881889763779528,"hand":"L"},{"time":41667,"durationMs":208,"midi":65,"velocity":0.4881889763779528,"hand":"L"},{"time":41667,"durationMs":208,"midi":67,"velocity":0.4881889763779528,"hand":"L"},{"time":41667,"durationMs":104,"midi":74,"velocity":0.4881889763779528,"hand":"R"},{"time":41771,"durationMs":104,"midi":79,"velocity":0.4881889763779528,"hand":"R"},{"time":41875,"durationMs":417,"midi":60,"velocity":0.4881889763779528,"hand":"L"},{"time":41875,"durationMs":417,"midi":64,"velocity":0.4881889763779528,"hand":"L"},{"time":41875,"durationMs":417,"midi":67,"velocity":0.4881889763779528,"hand":"L"},{"time":41875,"durationMs":104,"midi":76,"velocity":0.4881889763779528,"hand":"R"},{"time":41979,"durationMs":104,"midi":79,"velocity":0.4881889763779528,"hand":"R"},{"time":42083,"durationMs":104,"midi":84,"velocity":0.4881889763779528,"hand":"R"},{"time":42187,"durationMs":104,"midi":83,"velocity":0.4881889763779528,"hand":"R"},{"time":42292,"durationMs":417,"midi":53,"velocity":0.4881889763779528,"hand":"L"},{"time":42292,"durationMs":417,"midi":57,"velocity":0.4881889763779528,"hand":"L"},{"time":42292,"durationMs":104,"midi":81,"velocity":0.4881889763779528,"hand":"R"},{"time":42396,"durationMs":104,"midi":79,"velocity":0.4881889763779528,"hand":"R"},{"time":42500,"durationMs":104,"midi":77,"velocity":0.4881889763779528,"hand":"R"},{"time":42604,"durationMs":104,"midi":76,"velocity":0.4881889763779528,"hand":"R"},{"time":42708,"durationMs":417,"midi":55,"velocity":0.4881889763779528,"hand":"L"},{"time":42708,"durationMs":417,"midi":59,"velocity":0.4881889763779528,"hand":"L"},{"time":42708,"durationMs":104,"midi":74,"velocity":0.4881889763779528,"hand":"R"},{"time":42812,"durationMs":104,"midi":79,"velocity":0.4881889763779528,"hand":"R"},{"time":42917,"durationMs":104,"midi":77,"velocity":0.4881889763779528,"hand":"R"},{"time":43021,"durationMs":104,"midi":74,"velocity":0.4881889763779528,"hand":"R"},{"time":43125,"durationMs":417,"midi":56,"velocity":0.4881889763779528,"hand":"L"},{"time":43125,"durationMs":417,"midi":59,"velocity":0.4881889763779528,"hand":"L"},{"time":43125,"durationMs":104,"midi":76,"velocity":0.4881889763779528,"hand":"R"},{"time":43229,"durationMs":104,"midi":77,"velocity":0.4881889763779528,"hand":"R"},{"time":43333,"durationMs":104,"midi":76,"velocity":0.4881889763779528,"hand":"R"},{"time":43437,"durationMs":104,"midi":75,"velocity":0.4881889763779528,"hand":"R"},{"time":43542,"durationMs":104,"midi":76,"velocity":0.4881889763779528,"hand":"R"},{"time":43646,"durationMs":104,"midi":71,"velocity":0.4881889763779528,"hand":"R"},{"time":43750,"durationMs":104,"midi":76,"velocity":0.4881889763779528,"hand":"R"},{"time":43854,"durationMs":104,"midi":75,"velocity":0.4881889763779528,"hand":"R"},{"time":43958,"durationMs":104,"midi":76,"velocity":0.4881889763779528,"hand":"R"},{"time":44062,"durationMs":104,"midi":71,"velocity":0.4881889763779528,"hand":"R"},{"time":44167,"durationMs":104,"midi":76,"velocity":0.4881889763779528,"hand":"R"},{"time":44271,"durationMs":104,"midi":75,"velocity":0.4881889763779528,"hand":"R"},{"time":44375,"durationMs":625,"midi":76,"velocity":0.4881889763779528,"hand":"R"},{"time":45000,"durationMs":208,"midi":71,"velocity":0.4881889763779528,"hand":"R"},{"time":45208,"durationMs":208,"midi":76,"velocity":0.4881889763779528,"hand":"R"},{"time":45417,"durationMs":208,"midi":75,"velocity":0.4881889763779528,"hand":"R"},{"time":45625,"durationMs":625,"midi":76,"velocity":0.4881889763779528,"hand":"R"},{"time":46250,"durationMs":208,"midi":71,"velocity":0.4881889763779528,"hand":"R"},{"time":46458,"durationMs":208,"midi":76,"velocity":0.4881889763779528,"hand":"R"},{"time":46667,"durationMs":208,"midi":75,"velocity":0.4881889763779528,"hand":"R"},{"time":46875,"durationMs":208,"midi":76,"velocity":0.4881889763779528,"hand":"R"},{"time":47083,"durationMs":208,"midi":75,"velocity":0.4881889763779528,"hand":"R"},{"time":47292,"durationMs":208,"midi":76,"velocity":0.4881889763779528,"hand":"R"},{"time":47500,"durationMs":208,"midi":75,"velocity":0.4881889763779528,"hand":"R"},{"time":47708,"durationMs":208,"midi":76,"velocity":0.4881889763779528,"hand":"R"},{"time":47917,"durationMs":208,"midi":75,"velocity":0.4881889763779528,"hand":"R"},{"time":48125,"durationMs":208,"midi":76,"velocity":0.4881889763779528,"hand":"R"},{"time":48333,"durationMs":208,"midi":75,"velocity":0.4881889763779528,"hand":"R"},{"time":48542,"durationMs":208,"midi":76,"velocity":0.4881889763779528,"hand":"R"},{"time":48750,"durationMs":208,"midi":71,"velocity":0.4881889763779528,"hand":"R"},{"time":48958,"durationMs":208,"midi":74,"velocity":0.4881889763779528,"hand":"R"},{"time":49167,"durationMs":208,"midi":72,"velocity":0.4881889763779528,"hand":"R"},{"time":49375,"durationMs":208,"midi":45,"velocity":0.4881889763779528,"hand":"L"},{"time":49375,"durationMs":417,"midi":69,"velocity":0.4881889763779528,"hand":"R"},{"time":49583,"durationMs":208,"midi":52,"velocity":0.4881889763779528,"hand":"L"},{"time":49792,"durationMs":208,"midi":57,"velocity":0.4881889763779528,"hand":"L"},{"time":50000,"durationMs":208,"midi":60,"velocity":0.4881889763779528,"hand":"R"},{"time":50208,"durationMs":208,"midi":64,"velocity":0.4881889763779528,"hand":"R"},{"time":50417,"durationMs":208,"midi":69,"velocity":0.4881889763779528,"hand":"R"},{"time":50625,"durationMs":208,"midi":40,"velocity":0.4881889763779528,"hand":"L"},{"time":50625,"durationMs":417,"midi":71,"velocity":0.4881889763779528,"hand":"R"},{"time":50833,"durationMs":208,"midi":52,"velocity":0.4881889763779528,"hand":"L"},{"time":51042,"durationMs":208,"midi":56,"velocity":0.4881889763779528,"hand":"L"},{"time":51250,"durationMs":208,"midi":64,"velocity":0.4881889763779528,"hand":"R"},{"time":51458,"durationMs":208,"midi":68,"velocity":0.4881889763779528,"hand":"R"},{"time":51667,"durationMs":208,"midi":71,"velocity":0.4881889763779528,"hand":"R"},{"time":51875,"durationMs":208,"midi":45,"velocity":0.4881889763779528,"hand":"L"},{"time":51875,"durationMs":417,"midi":72,"velocity":0.4881889763779528,"hand":"R"},{"time":52083,"durationMs":208,"midi":52,"velocity":0.4881889763779528,"hand":"L"},{"time":52292,"durationMs":208,"midi":57,"velocity":0.4881889763779528,"hand":"L"},{"time":52500,"durationMs":208,"midi":64,"velocity":0.4881889763779528,"hand":"R"},{"time":52708,"durationMs":208,"midi":76,"velocity":0.4881889763779528,"hand":"R"},{"time":52917,"durationMs":208,"midi":75,"velocity":0.4881889763779528,"hand":"R"},{"time":53125,"durationMs":208,"midi":76,"velocity":0.4881889763779528,"hand":"R"},{"time":53333,"durationMs":208,"midi":75,"velocity":0.4881889763779528,"hand":"R"},{"time":53542,"durationMs":208,"midi":76,"velocity":0.4881889763779528,"hand":"R"},{"time":53750,"durationMs":208,"midi":71,"velocity":0.4881889763779528,"hand":"R"},{"time":53958,"durationMs":208,"midi":74,"velocity":0.4881889763779528,"hand":"R"},{"time":54167,"durationMs":208,"midi":72,"velocity":0.4881889763779528,"hand":"R"},{"time":54375,"durationMs":208,"midi":45,"velocity":0.4881889763779528,"hand":"L"},{"time":54375,"durationMs":417,"midi":69,"velocity":0.4881889763779528,"hand":"R"},{"time":54583,"durationMs":208,"midi":52,"velocity":0.4881889763779528,"hand":"L"},{"time":54792,"durationMs":208,"midi":57,"velocity":0.4881889763779528,"hand":"L"},{"time":55000,"durationMs":208,"midi":60,"velocity":0.4881889763779528,"hand":"R"},{"time":55208,"durationMs":208,"midi":64,"velocity":0.4881889763779528,"hand":"R"},{"time":55417,"durationMs":208,"midi":69,"velocity":0.4881889763779528,"hand":"R"},{"time":55625,"durationMs":208,"midi":40,"velocity":0.4881889763779528,"hand":"L"},{"time":55625,"durationMs":417,"midi":71,"velocity":0.4881889763779528,"hand":"R"},{"time":55833,"durationMs":208,"midi":52,"velocity":0.4881889763779528,"hand":"L"},{"time":56042,"durationMs":208,"midi":56,"velocity":0.4881889763779528,"hand":"L"},{"time":56250,"durationMs":208,"midi":64,"velocity":0.4881889763779528,"hand":"R"},{"time":56458,"durationMs":208,"midi":72,"velocity":0.4881889763779528,"hand":"R"},{"time":56667,"durationMs":208,"midi":71,"velocity":0.4881889763779528,"hand":"R"},{"time":56875,"durationMs":208,"midi":45,"velocity":0.4881889763779528,"hand":"L"},{"time":56875,"durationMs":417,"midi":69,"velocity":0.4881889763779528,"hand":"R"},{"time":57083,"durationMs":208,"midi":52,"velocity":0.4881889763779528,"hand":"L"},{"time":57292,"durationMs":208,"midi":57,"velocity":0.4881889763779528,"hand":"L"},{"time":57500,"durationMs":208,"midi":71,"velocity":0.4881889763779528,"hand":"R"},{"time":57708,"durationMs":208,"midi":72,"velocity":0.4881889763779528,"hand":"R"},{"time":57917,"durationMs":208,"midi":74,"velocity":0.4881889763779528,"hand":"R"},{"time":58125,"durationMs":208,"midi":48,"velocity":0.4881889763779528,"hand":"L"},{"time":58125,"durationMs":625,"midi":76,"velocity":0.4881889763779528,"hand":"R"},{"time":58333,"durationMs":208,"midi":55,"velocity":0.4881889763779528,"hand":"L"},{"time":58542,"durationMs":208,"midi":60,"velocity":0.4881889763779528,"hand":"L"},{"time":58750,"durationMs":208,"midi":67,"velocity":0.4881889763779528,"hand":"R"},{"time":58958,"durationMs":208,"midi":77,"velocity":0.4881889763779528,"hand":"R"},{"time":59167,"durationMs":208,"midi":76,"velocity":0.4881889763779528,"hand":"R"},{"time":59375,"durationMs":208,"midi":43,"velocity":0.4881889763779528,"hand":"L"},{"time":59375,"durationMs":625,"midi":74,"velocity":0.4881889763779528,"hand":"R"},{"time":59583,"durationMs":208,"midi":55,"velocity":0.4881889763779528,"hand":"L"},{"time":59792,"durationMs":208,"midi":59,"velocity":0.4881889763779528,"hand":"L"},{"time":60000,"durationMs":208,"midi":65,"velocity":0.4881889763779528,"hand":"R"},{"time":60208,"durationMs":208,"midi":76,"velocity":0.4881889763779528,"hand":"R"},{"time":60417,"durationMs":208,"midi":74,"velocity":0.4881889763779528,"hand":"R"},{"time":60625,"durationMs":208,"midi":45,"velocity":0.4881889763779528,"hand":"L"},{"time":60625,"durationMs":625,"midi":72,"velocity":0.4881889763779528,"hand":"R"},{"time":60833,"durationMs":208,"midi":52,"velocity":0.4881889763779528,"hand":"L"},{"time":61042,"durationMs":208,"midi":57,"velocity":0.4881889763779528,"hand":"L"},{"time":61250,"durationMs":208,"midi":64,"velocity":0.4881889763779528,"hand":"R"},{"time":61458,"durationMs":208,"midi":74,"velocity":0.4881889763779528,"hand":"R"},{"time":61667,"durationMs":208,"midi":72,"velocity":0.4881889763779528,"hand":"R"},{"time":61875,"durationMs":208,"midi":40,"velocity":0.4881889763779528,"hand":"L"},{"time":61875,"durationMs":417,"midi":71,"velocity":0.4881889763779528,"hand":"R"},{"time":62083,"durationMs":208,"midi":52,"velocity":0.4881889763779528,"hand":"L"},{"time":62292,"durationMs":208,"midi":64,"velocity":0.4881889763779528,"hand":"L"},{"time":62500,"durationMs":208,"midi":64,"velocity":0.4881889763779528,"hand":"R"},{"time":62708,"durationMs":208,"midi":76,"velocity":0.4881889763779528,"hand":"R"},{"time":62917,"durationMs":208,"midi":64,"velocity":0.4881889763779528,"hand":"L"},{"time":63125,"durationMs":208,"midi":76,"velocity":0.4881889763779528,"hand":"L"},{"time":63333,"durationMs":208,"midi":76,"velocity":0.4881889763779528,"hand":"R"},{"time":63542,"durationMs":208,"midi":88,"velocity":0.4881889763779528,"hand":"R"},{"time":63750,"durationMs":208,"midi":75,"velocity":0.4881889763779528,"hand":"L"},{"time":63958,"durationMs":208,"midi":76,"velocity":0.4881889763779528,"hand":"L"},{"time":64167,"durationMs":208,"midi":75,"velocity":0.4881889763779528,"hand":"R"},{"time":64375,"durationMs":208,"midi":76,"velocity":0.4881889763779528,"hand":"R"},{"time":64583,"durationMs":208,"midi":75,"velocity":0.4881889763779528,"hand":"L"},{"time":64792,"durationMs":208,"midi":76,"velocity":0.4881889763779528,"hand":"L"},{"time":65000,"durationMs":208,"midi":75,"velocity":0.4881889763779528,"hand":"R"},{"time":65208,"durationMs":208,"midi":76,"velocity":0.4881889763779528,"hand":"R"},{"time":65417,"durationMs":208,"midi":75,"velocity":0.4881889763779528,"hand":"R"},{"time":65625,"durationMs":208,"midi":76,"velocity":0.4881889763779528,"hand":"R"},{"time":65833,"durationMs":208,"midi":75,"velocity":0.4881889763779528,"hand":"R"},{"time":66042,"durationMs":208,"midi":76,"velocity":0.4881889763779528,"hand":"R"},{"time":66250,"durationMs":208,"midi":71,"velocity":0.4881889763779528,"hand":"R"},{"time":66458,"durationMs":208,"midi":74,"velocity":0.4881889763779528,"hand":"R"},{"time":66667,"durationMs":208,"midi":72,"velocity":0.4881889763779528,"hand":"R"},{"time":66875,"durationMs":208,"midi":45,"velocity":0.4881889763779528,"hand":"L"},{"time":66875,"durationMs":417,"midi":69,"velocity":0.4881889763779528,"hand":"R"},{"time":67083,"durationMs":208,"midi":52,"velocity":0.4881889763779528,"hand":"L"},{"time":67292,"durationMs":208,"midi":57,"velocity":0.4881889763779528,"hand":"L"},{"time":67500,"durationMs":208,"midi":60,"velocity":0.4881889763779528,"hand":"R"},{"time":67708,"durationMs":208,"midi":64,"velocity":0.4881889763779528,"hand":"R"},{"time":67917,"durationMs":208,"midi":69,"velocity":0.4881889763779528,"hand":"R"},{"time":68125,"durationMs":208,"midi":40,"velocity":0.4881889763779528,"hand":"L"},{"time":68125,"durationMs":417,"midi":71,"velocity":0.4881889763779528,"hand":"R"},{"time":68333,"durationMs":208,"midi":52,"velocity":0.4881889763779528,"hand":"L"},{"time":68542,"durationMs":208,"midi":56,"velocity":0.4881889763779528,"hand":"L"},{"time":68750,"durationMs":208,"midi":64,"velocity":0.4881889763779528,"hand":"R"},{"time":68958,"durationMs":208,"midi":68,"velocity":0.4881889763779528,"hand":"R"},{"time":69167,"durationMs":208,"midi":71,"velocity":0.4881889763779528,"hand":"R"},{"time":69375,"durationMs":208,"midi":45,"velocity":0.4881889763779528,"hand":"L"},{"time":69375,"durationMs":417,"midi":72,"velocity":0.4881889763779528,"hand":"R"},{"time":69583,"durationMs":208,"midi":52,"velocity":0.4881889763779528,"hand":"L"},{"time":69792,"durationMs":208,"midi":57,"velocity":0.4881889763779528,"hand":"L"},{"time":70000,"durationMs":208,"midi":64,"velocity":0.4881889763779528,"hand":"R"},{"time":70208,"durationMs":208,"midi":76,"velocity":0.4881889763779528,"hand":"R"},{"time":70417,"durationMs":208,"midi":75,"velocity":0.4881889763779528,"hand":"R"},{"time":70625,"durationMs":208,"midi":76,"velocity":0.4881889763779528,"hand":"R"},{"time":70833,"durationMs":208,"midi":75,"velocity":0.4881889763779528,"hand":"R"},{"time":71042,"durationMs":208,"midi":76,"velocity":0.4881889763779528,"hand":"R"},{"time":71250,"durationMs":208,"midi":71,"velocity":0.4881889763779528,"hand":"R"},{"time":71458,"durationMs":208,"midi":74,"velocity":0.4881889763779528,"hand":"R"},{"time":71667,"durationMs":208,"midi":72,"velocity":0.4881889763779528,"hand":"R"},{"time":71875,"durationMs":208,"midi":45,"velocity":0.4881889763779528,"hand":"L"},{"time":71875,"durationMs":417,"midi":69,"velocity":0.4881889763779528,"hand":"R"},{"time":72083,"durationMs":208,"midi":52,"velocity":0.4881889763779528,"hand":"L"},{"time":72292,"durationMs":208,"midi":57,"velocity":0.4881889763779528,"hand":"L"},{"time":72500,"durationMs":208,"midi":60,"velocity":0.4881889763779528,"hand":"R"},{"time":72708,"durationMs":208,"midi":64,"velocity":0.4881889763779528,"hand":"R"},{"time":72917,"durationMs":208,"midi":69,"velocity":0.4881889763779528,"hand":"R"},{"time":73125,"durationMs":208,"midi":40,"velocity":0.4881889763779528,"hand":"L"},{"time":73125,"durationMs":417,"midi":71,"velocity":0.4881889763779528,"hand":"R"},{"time":73333,"durationMs":208,"midi":52,"velocity":0.4881889763779528,"hand":"L"},{"time":73542,"durationMs":208,"midi":56,"velocity":0.4881889763779528,"hand":"L"},{"time":73750,"durationMs":208,"midi":64,"velocity":0.4881889763779528,"hand":"R"},{"time":73958,"durationMs":208,"midi":72,"velocity":0.4881889763779528,"hand":"R"},{"time":74167,"durationMs":208,"midi":71,"velocity":0.4881889763779528,"hand":"R"},{"time":74375,"durationMs":208,"midi":45,"velocity":0.4881889763779528,"hand":"L"},{"time":74375,"durationMs":417,"midi":69,"velocity":0.4881889763779528,"hand":"R"},{"time":74583,"durationMs":208,"midi":45,"velocity":0.4881889763779528,"hand":"L"},{"time":74792,"durationMs":208,"midi":45,"velocity":0.4881889763779528,"hand":"L"},{"time":75000,"durationMs":208,"midi":45,"velocity":0.4881889763779528,"hand":"L"},{"time":75208,"durationMs":208,"midi":45,"velocity":0.4881889763779528,"hand":"L"},{"time":75417,"durationMs":208,"midi":45,"velocity":0.4881889763779528,"hand":"L"},{"time":75625,"durationMs":208,"midi":45,"velocity":0.4881889763779528,"hand":"L"},{"time":75625,"durationMs":1250,"midi":64,"velocity":0.4881889763779528,"hand":"R"},{"time":75625,"durationMs":1250,"midi":67,"velocity":0.4881889763779528,"hand":"R"},{"time":75625,"durationMs":1250,"midi":70,"velocity":0.4881889763779528,"hand":"R"},{"time":75625,"durationMs":1250,"midi":73,"velocity":0.4881889763779528,"hand":"R"},{"time":75833,"durationMs":208,"midi":45,"velocity":0.4881889763779528,"hand":"L"},{"time":76042,"durationMs":208,"midi":45,"velocity":0.4881889763779528,"hand":"L"},{"time":76250,"durationMs":208,"midi":45,"velocity":0.4881889763779528,"hand":"L"},{"time":76458,"durationMs":208,"midi":45,"velocity":0.4881889763779528,"hand":"L"},{"time":76667,"durationMs":208,"midi":45,"velocity":0.4881889763779528,"hand":"L"},{"time":76875,"durationMs":208,"midi":45,"velocity":0.4881889763779528,"hand":"L"},{"time":76875,"durationMs":833,"midi":65,"velocity":0.4881889763779528,"hand":"R"},{"time":76875,"durationMs":833,"midi":69,"velocity":0.4881889763779528,"hand":"R"},{"time":76875,"durationMs":833,"midi":74,"velocity":0.4881889763779528,"hand":"R"},{"time":77083,"durationMs":208,"midi":45,"velocity":0.4881889763779528,"hand":"L"},{"time":77292,"durationMs":208,"midi":45,"velocity":0.4881889763779528,"hand":"L"},{"time":77500,"durationMs":208,"midi":45,"velocity":0.4881889763779528,"hand":"L"},{"time":77708,"durationMs":208,"midi":45,"velocity":0.4881889763779528,"hand":"L"},{"time":77708,"durationMs":208,"midi":73,"velocity":0.4881889763779528,"hand":"R"},{"time":77708,"durationMs":208,"midi":76,"velocity":0.4881889763779528,"hand":"R"},{"time":77917,"durationMs":208,"midi":45,"velocity":0.4881889763779528,"hand":"L"},{"time":77917,"durationMs":208,"midi":74,"velocity":0.4881889763779528,"hand":"R"},{"time":77917,"durationMs":208,"midi":77,"velocity":0.4881889763779528,"hand":"R"},{"time":78125,"durationMs":208,"midi":45,"velocity":0.4881889763779528,"hand":"L"},{"time":78125,"durationMs":833,"midi":68,"velocity":0.4881889763779528,"hand":"R"},{"time":78125,"durationMs":833,"midi":74,"velocity":0.4881889763779528,"hand":"R"},{"time":78125,"durationMs":833,"midi":77,"velocity":0.4881889763779528,"hand":"R"},{"time":78333,"durationMs":208,"midi":45,"velocity":0.4881889763779528,"hand":"L"},{"time":78542,"durationMs":208,"midi":45,"velocity":0.4881889763779528,"hand":"L"},{"time":78750,"durationMs":208,"midi":45,"velocity":0.4881889763779528,"hand":"L"},{"time":78958,"durationMs":208,"midi":45,"velocity":0.4881889763779528,"hand":"L"},{"time":78958,"durationMs":417,"midi":68,"velocity":0.4881889763779528,"hand":"R"},{"time":78958,"durationMs":417,"midi":74,"velocity":0.4881889763779528,"hand":"R"},{"time":78958,"durationMs":417,"midi":77,"velocity":0.4881889763779528,"hand":"R"},{"time":79167,"durationMs":208,"midi":45,"velocity":0.4881889763779528,"hand":"L"},{"time":79375,"durationMs":208,"midi":45,"velocity":0.4881889763779528,"hand":"L"},{"time":79375,"durationMs":1250,"midi":69,"velocity":0.4881889763779528,"hand":"R"},{"time":79375,"durationMs":1250,"midi":72,"velocity":0.4881889763779528,"hand":"R"},{"time":79375,"durationMs":1250,"midi":76,"velocity":0.4881889763779528,"hand":"R"},{"time":79583,"durationMs":208,"midi":45,"velocity":0.4881889763779528,"hand":"L"},{"time":79792,"durationMs":208,"midi":45,"velocity":0.4881889763779528,"hand":"L"},{"time":80000,"durationMs":208,"midi":45,"velocity":0.4881889763779528,"hand":"L"},{"time":80208,"durationMs":208,"midi":45,"velocity":0.4881889763779528,"hand":"L"},{"time":80417,"durationMs":208,"midi":45,"velocity":0.4881889763779528,"hand":"L"},{"time":80625,"durationMs":208,"midi":38,"velocity":0.4881889763779528,"hand":"L"},{"time":80625,"durationMs":208,"midi":45,"velocity":0.4881889763779528,"hand":"L"},{"time":80625,"durationMs":833,"midi":65,"velocity":0.4881889763779528,"hand":"R"},{"time":80625,"durationMs":833,"midi":74,"velocity":0.4881889763779528,"hand":"R"},{"time":80833,"durationMs":208,"midi":38,"velocity":0.4881889763779528,"hand":"L"},{"time":80833,"durationMs":208,"midi":45,"velocity":0.4881889763779528,"hand":"L"},{"time":81042,"durationMs":208,"midi":38,"velocity":0.4881889763779528,"hand":"L"},{"time":81042,"durationMs":208,"midi":45,"velocity":0.4881889763779528,"hand":"L"},{"time":81250,"durationMs":208,"midi":38,"velocity":0.4881889763779528,"hand":"L"},{"time":81250,"durationMs":208,"midi":45,"velocity":0.4881889763779528,"hand":"L"},{"time":81458,"durationMs":208,"midi":38,"velocity":0.4881889763779528,"hand":"L"},{"time":81458,"durationMs":208,"midi":45,"velocity":0.4881889763779528,"hand":"L"},{"time":81458,"durationMs":208,"midi":64,"velocity":0.4881889763779528,"hand":"R"},{"time":81458,"durationMs":208,"midi":72,"velocity":0.4881889763779528,"hand":"R"},{"time":81667,"durationMs":208,"midi":38,"velocity":0.4881889763779528,"hand":"L"},{"time":81667,"durationMs":208,"midi":45,"velocity":0.4881889763779528,"hand":"L"},{"time":81667,"durationMs":208,"midi":62,"velocity":0.4881889763779528,"hand":"R"},{"time":81667,"durationMs":208,"midi":71,"velocity":0.4881889763779528,"hand":"R"},{"time":81875,"durationMs":208,"midi":39,"velocity":0.4881889763779528,"hand":"L"},{"time":81875,"durationMs":208,"midi":45,"velocity":0.4881889763779528,"hand":"L"},{"time":81875,"durationMs":833,"midi":60,"velocity":0.4881889763779528,"hand":"R"},{"time":81875,"durationMs":833,"midi":66,"velocity":0.4881889763779528,"hand":"R"},{"time":81875,"durationMs":833,"midi":69,"velocity":0.4881889763779528,"hand":"R"},{"time":82083,"durationMs":208,"midi":39,"velocity":0.4881889763779528,"hand":"L"},{"time":82083,"durationMs":208,"midi":45,"velocity":0.4881889763779528,"hand":"L"},{"time":82292,"durationMs":208,"midi":39,"velocity":0.4881889763779528,"hand":"L"},{"time":82292,"durationMs":208,"midi":45,"velocity":0.4881889763779528,"hand":"L"},{"time":82500,"durationMs":208,"midi":39,"velocity":0.4881889763779528,"hand":"L"},{"time":82500,"durationMs":208,"midi":45,"velocity":0.4881889763779528,"hand":"L"},{"time":82708,"durationMs":208,"midi":39,"velocity":0.4881889763779528,"hand":"L"},{"time":82708,"durationMs":208,"midi":45,"velocity":0.4881889763779528,"hand":"L"},{"time":82708,"durationMs":417,"midi":60,"velocity":0.4881889763779528,"hand":"R"},{"time":82708,"durationMs":417,"midi":69,"velocity":0.4881889763779528,"hand":"R"},{"time":82917,"durationMs":208,"midi":39,"velocity":0.4881889763779528,"hand":"L"},{"time":82917,"durationMs":208,"midi":45,"velocity":0.4881889763779528,"hand":"L"},{"time":83125,"durationMs":208,"midi":40,"velocity":0.4881889763779528,"hand":"L"},{"time":83125,"durationMs":208,"midi":45,"velocity":0.4881889763779528,"hand":"L"},{"time":83125,"durationMs":417,"midi":60,"velocity":0.4881889763779528,"hand":"R"},{"time":83125,"durationMs":417,"midi":69,"velocity":0.4881889763779528,"hand":"R"},{"time":83333,"durationMs":208,"midi":40,"velocity":0.4881889763779528,"hand":"L"},{"time":83333,"durationMs":208,"midi":45,"velocity":0.4881889763779528,"hand":"L"},{"time":83542,"durationMs":208,"midi":40,"velocity":0.4881889763779528,"hand":"L"},{"time":83542,"durationMs":208,"midi":45,"velocity":0.4881889763779528,"hand":"L"},{"time":83542,"durationMs":417,"midi":64,"velocity":0.4881889763779528,"hand":"R"},{"time":83542,"durationMs":417,"midi":72,"velocity":0.4881889763779528,"hand":"R"},{"time":83750,"durationMs":208,"midi":40,"velocity":0.4881889763779528,"hand":"L"},{"time":83750,"durationMs":208,"midi":45,"velocity":0.4881889763779528,"hand":"L"},{"time":83958,"durationMs":208,"midi":40,"velocity":0.4881889763779528,"hand":"L"},{"time":83958,"durationMs":208,"midi":44,"velocity":0.4881889763779528,"hand":"L"},{"time":83958,"durationMs":417,"midi":62,"velocity":0.4881889763779528,"hand":"R"},{"time":83958,"durationMs":417,"midi":71,"velocity":0.4881889763779528,"hand":"R"},{"time":84167,"durationMs":208,"midi":40,"velocity":0.4881889763779528,"hand":"L"},{"time":84167,"durationMs":208,"midi":44,"velocity":0.4881889763779528,"hand":"L"},{"time":84375,"durationMs":208,"midi":33,"velocity":0.4881889763779528,"hand":"L"},{"time":84375,"durationMs":208,"midi":45,"velocity":0.4881889763779528,"hand":"L"},{"time":84375,"durationMs":1250,"midi":60,"velocity":0.4881889763779528,"hand":"R"},{"time":84375,"durationMs":1250,"midi":69,"velocity":0.4881889763779528,"hand":"R"},{"time":84583,"durationMs":208,"midi":45,"velocity":0.4881889763779528,"hand":"L"},{"time":84792,"durationMs":208,"midi":45,"velocity":0.4881889763779528,"hand":"L"},{"time":85000,"durationMs":208,"midi":45,"velocity":0.4881889763779528,"hand":"L"},{"time":85208,"durationMs":208,"midi":45,"velocity":0.4881889763779528,"hand":"L"},{"time":85417,"durationMs":208,"midi":45,"velocity":0.4881889763779528,"hand":"L"},{"time":85625,"durationMs":208,"midi":45,"velocity":0.4881889763779528,"hand":"L"},{"time":85625,"durationMs":1250,"midi":64,"velocity":0.4881889763779528,"hand":"R"},{"time":85625,"durationMs":1250,"midi":67,"velocity":0.4881889763779528,"hand":"R"},{"time":85625,"durationMs":1250,"midi":70,"velocity":0.4881889763779528,"hand":"R"},{"time":85625,"durationMs":1250,"midi":73,"velocity":0.4881889763779528,"hand":"R"},{"time":85833,"durationMs":208,"midi":45,"velocity":0.4881889763779528,"hand":"L"},{"time":86042,"durationMs":208,"midi":45,"velocity":0.4881889763779528,"hand":"L"},{"time":86250,"durationMs":208,"midi":45,"velocity":0.4881889763779528,"hand":"L"},{"time":86458,"durationMs":208,"midi":45,"velocity":0.4881889763779528,"hand":"L"},{"time":86667,"durationMs":208,"midi":45,"velocity":0.4881889763779528,"hand":"L"},{"time":86875,"durationMs":208,"midi":45,"velocity":0.4881889763779528,"hand":"L"},{"time":86875,"durationMs":833,"midi":65,"velocity":0.4881889763779528,"hand":"R"},{"time":86875,"durationMs":833,"midi":69,"velocity":0.4881889763779528,"hand":"R"},{"time":86875,"durationMs":833,"midi":74,"velocity":0.4881889763779528,"hand":"R"},{"time":87083,"durationMs":208,"midi":45,"velocity":0.4881889763779528,"hand":"L"},{"time":87292,"durationMs":208,"midi":45,"velocity":0.4881889763779528,"hand":"L"},{"time":87500,"durationMs":208,"midi":45,"velocity":0.4881889763779528,"hand":"L"},{"time":87708,"durationMs":208,"midi":45,"velocity":0.4881889763779528,"hand":"L"},{"time":87708,"durationMs":208,"midi":73,"velocity":0.4881889763779528,"hand":"R"},{"time":87708,"durationMs":208,"midi":76,"velocity":0.4881889763779528,"hand":"R"},{"time":87917,"durationMs":208,"midi":45,"velocity":0.4881889763779528,"hand":"L"},{"time":87917,"durationMs":208,"midi":74,"velocity":0.4881889763779528,"hand":"R"},{"time":87917,"durationMs":208,"midi":77,"velocity":0.4881889763779528,"hand":"R"},{"time":88125,"durationMs":208,"midi":45,"velocity":0.4881889763779528,"hand":"L"},{"time":88125,"durationMs":833,"midi":74,"velocity":0.4881889763779528,"hand":"R"},{"time":88125,"durationMs":833,"midi":77,"velocity":0.4881889763779528,"hand":"R"},{"time":88333,"durationMs":208,"midi":45,"velocity":0.4881889763779528,"hand":"L"},{"time":88542,"durationMs":208,"midi":45,"velocity":0.4881889763779528,"hand":"L"},{"time":88750,"durationMs":208,"midi":45,"velocity":0.4881889763779528,"hand":"L"},{"time":88958,"durationMs":208,"midi":45,"velocity":0.4881889763779528,"hand":"L"},{"time":88958,"durationMs":417,"midi":74,"velocity":0.4881889763779528,"hand":"R"},{"time":88958,"durationMs":417,"midi":77,"velocity":0.4881889763779528,"hand":"R"},{"time":89167,"durationMs":208,"midi":45,"velocity":0.4881889763779528,"hand":"L"},{"time":89375,"durationMs":208,"midi":46,"velocity":0.4881889763779528,"hand":"L"},{"time":89375,"durationMs":1250,"midi":74,"velocity":0.4881889763779528,"hand":"R"},{"time":89375,"durationMs":1250,"midi":77,"velocity":0.4881889763779528,"hand":"R"},{"time":89583,"durationMs":208,"midi":46,"velocity":0.4881889763779528,"hand":"L"},{"time":89792,"durationMs":208,"midi":46,"velocity":0.4881889763779528,"hand":"L"},{"time":90000,"durationMs":208,"midi":46,"velocity":0.4881889763779528,"hand":"L"},{"time":90208,"durationMs":208,"midi":46,"velocity":0.4881889763779528,"hand":"L"},{"time":90417,"durationMs":208,"midi":46,"velocity":0.4881889763779528,"hand":"L"},{"time":90625,"durationMs":208,"midi":46,"velocity":0.4881889763779528,"hand":"L"},{"time":90625,"durationMs":833,"midi":67,"velocity":0.4881889763779528,"hand":"R"},{"time":90625,"durationMs":833,"midi":75,"velocity":0.4881889763779528,"hand":"R"},{"time":90833,"durationMs":208,"midi":46,"velocity":0.4881889763779528,"hand":"L"},{"time":91042,"durationMs":208,"midi":46,"velocity":0.4881889763779528,"hand":"L"},{"time":91250,"durationMs":208,"midi":46,"velocity":0.4881889763779528,"hand":"L"},{"time":91458,"durationMs":208,"midi":46,"velocity":0.4881889763779528,"hand":"L"},{"time":91458,"durationMs":208,"midi":65,"velocity":0.4881889763779528,"hand":"R"},{"time":91458,"durationMs":208,"midi":74,"velocity":0.4881889763779528,"hand":"R"},{"time":91667,"durationMs":208,"midi":46,"velocity":0.4881889763779528,"hand":"L"},{"time":91667,"durationMs":208,"midi":63,"velocity":0.4881889763779528,"hand":"R"},{"time":91667,"durationMs":208,"midi":72,"velocity":0.4881889763779528,"hand":"R"},{"time":91875,"durationMs":208,"midi":46,"velocity":0.4881889763779528,"hand":"L"},{"time":91875,"durationMs":833,"midi":62,"velocity":0.4881889763779528,"hand":"R"},{"time":91875,"durationMs":833,"midi":65,"velocity":0.4881889763779528,"hand":"R"},{"time":91875,"durationMs":833,"midi":70,"velocity":0.4881889763779528,"hand":"R"},{"time":92083,"durationMs":208,"midi":46,"velocity":0.4881889763779528,"hand":"L"},{"time":92292,"durationMs":208,"midi":46,"velocity":0.4881889763779528,"hand":"L"},{"time":92500,"durationMs":208,"midi":46,"velocity":0.4881889763779528,"hand":"L"},{"time":92708,"durationMs":208,"midi":46,"velocity":0.4881889763779528,"hand":"L"},{"time":92708,"durationMs":417,"midi":62,"velocity":0.4881889763779528,"hand":"R"},{"time":92708,"durationMs":417,"midi":65,"velocity":0.4881889763779528,"hand":"R"},{"time":92708,"durationMs":417,"midi":69,"velocity":0.4881889763779528,"hand":"R"},{"time":92917,"durationMs":208,"midi":46,"velocity":0.4881889763779528,"hand":"L"},{"time":93125,"durationMs":208,"midi":47,"velocity":0.4881889763779528,"hand":"L"},{"time":93125,"durationMs":833,"midi":62,"velocity":0.4881889763779528,"hand":"R"},{"time":93125,"durationMs":833,"midi":65,"velocity":0.4881889763779528,"hand":"R"},{"time":93125,"durationMs":833,"midi":68,"velocity":0.4881889763779528,"hand":"R"},{"time":93333,"durationMs":208,"midi":47,"velocity":0.4881889763779528,"hand":"L"},{"time":93542,"durationMs":208,"midi":47,"velocity":0.4881889763779528,"hand":"L"},{"time":93750,"durationMs":208,"midi":47,"velocity":0.4881889763779528,"hand":"L"},{"time":93958,"durationMs":208,"midi":47,"velocity":0.4881889763779528,"hand":"L"},{"time":93958,"durationMs":417,"midi":62,"velocity":0.4881889763779528,"hand":"R"},{"time":93958,"durationMs":417,"midi":65,"velocity":0.4881889763779528,"hand":"R"},{"time":93958,"durationMs":417,"midi":68,"velocity":0.4881889763779528,"hand":"R"},{"time":94167,"durationMs":208,"midi":47,"velocity":0.4881889763779528,"hand":"L"},{"time":94375,"durationMs":833,"midi":48,"velocity":0.4881889763779528,"hand":"L"},{"time":94375,"durationMs":833,"midi":60,"velocity":0.4881889763779528,"hand":"R"},{"time":94375,"durationMs":833,"midi":64,"velocity":0.4881889763779528,"hand":"R"},{"time":94375,"durationMs":833,"midi":69,"velocity":0.4881889763779528,"hand":"R"},{"time":95625,"durationMs":417,"midi":52,"velocity":0.4881889763779528,"hand":"L"},{"time":95625,"durationMs":417,"midi":56,"velocity":0.4881889763779528,"hand":"L"},{"time":95625,"durationMs":417,"midi":64,"velocity":0.4881889763779528,"hand":"R"},{"time":95625,"durationMs":417,"midi":71,"velocity":0.4881889763779528,"hand":"R"},{"time":96875,"durationMs":417,"midi":33,"velocity":0.4881889763779528,"hand":"L"},{"time":96875,"durationMs":139,"midi":57,"velocity":0.4881889763779528,"hand":"R"},{"time":97014,"durationMs":139,"midi":60,"velocity":0.4881889763779528,"hand":"R"},{"time":97153,"durationMs":139,"midi":64,"velocity":0.4881889763779528,"hand":"R"},{"time":97292,"durationMs":139,"midi":69,"velocity":0.4881889763779528,"hand":"R"},{"time":97431,"durationMs":139,"midi":72,"velocity":0.4881889763779528,"hand":"R"},{"time":97569,"durationMs":139,"midi":76,"velocity":0.4881889763779528,"hand":"R"},{"time":97708,"durationMs":417,"midi":57,"velocity":0.4881889763779528,"hand":"L"},{"time":97708,"durationMs":417,"midi":60,"velocity":0.4881889763779528,"hand":"L"},{"time":97708,"durationMs":417,"midi":64,"velocity":0.4881889763779528,"hand":"L"},{"time":97708,"durationMs":139,"midi":74,"velocity":0.4881889763779528,"hand":"R"},{"time":97847,"durationMs":139,"midi":72,"velocity":0.4881889763779528,"hand":"R"},{"time":97986,"durationMs":139,"midi":71,"velocity":0.4881889763779528,"hand":"R"},{"time":98125,"durationMs":417,"midi":57,"velocity":0.4881889763779528,"hand":"L"},{"time":98125,"durationMs":417,"midi":60,"velocity":0.4881889763779528,"hand":"L"},{"time":98125,"durationMs":417,"midi":64,"velocity":0.4881889763779528,"hand":"L"},{"time":98125,"durationMs":139,"midi":69,"velocity":0.4881889763779528,"hand":"R"},{"time":98264,"durationMs":139,"midi":72,"velocity":0.4881889763779528,"hand":"R"},{"time":98403,"durationMs":139,"midi":76,"velocity":0.4881889763779528,"hand":"R"},{"time":98542,"durationMs":139,"midi":81,"velocity":0.4881889763779528,"hand":"R"},{"time":98681,"durationMs":139,"midi":84,"velocity":0.4881889763779528,"hand":"R"},{"time":98819,"durationMs":139,"midi":88,"velocity":0.4881889763779528,"hand":"R"},{"time":98958,"durationMs":417,"midi":57,"velocity":0.4881889763779528,"hand":"L"},{"time":98958,"durationMs":417,"midi":60,"velocity":0.4881889763779528,"hand":"L"},{"time":98958,"durationMs":417,"midi":64,"velocity":0.4881889763779528,"hand":"L"},{"time":98958,"durationMs":139,"midi":86,"velocity":0.4881889763779528,"hand":"R"},{"time":99097,"durationMs":139,"midi":84,"velocity":0.4881889763779528,"hand":"R"},{"time":99236,"durationMs":139,"midi":83,"velocity":0.4881889763779528,"hand":"R"},{"time":99375,"durationMs":417,"midi":57,"velocity":0.4881889763779528,"hand":"L"},{"time":99375,"durationMs":417,"midi":60,"velocity":0.4881889763779528,"hand":"L"},{"time":99375,"durationMs":417,"midi":64,"velocity":0.4881889763779528,"hand":"L"},{"time":99375,"durationMs":139,"midi":81,"velocity":0.4881889763779528,"hand":"R"},{"time":99514,"durationMs":139,"midi":84,"velocity":0.4881889763779528,"hand":"R"},{"time":99653,"durationMs":139,"midi":88,"velocity":0.4881889763779528,"hand":"R"},{"time":99792,"durationMs":139,"midi":93,"velocity":0.4881889763779528,"hand":"R"},{"time":99931,"durationMs":139,"midi":96,"velocity":0.4881889763779528,"hand":"R"},{"time":100069,"durationMs":139,"midi":100,"velocity":0.4881889763779528,"hand":"R"},{"time":100208,"durationMs":417,"midi":57,"velocity":0.4881889763779528,"hand":"L"},{"time":100208,"durationMs":417,"midi":60,"velocity":0.4881889763779528,"hand":"L"},{"time":100208,"durationMs":417,"midi":64,"velocity":0.4881889763779528,"hand":"L"},{"time":100208,"durationMs":139,"midi":98,"velocity":0.4881889763779528,"hand":"R"},{"time":100347,"durationMs":139,"midi":96,"velocity":0.4881889763779528,"hand":"R"},{"time":100486,"durationMs":139,"midi":95,"velocity":0.4881889763779528,"hand":"R"},{"time":100625,"durationMs":417,"midi":57,"velocity":0.4881889763779528,"hand":"L"},{"time":100625,"durationMs":417,"midi":60,"velocity":0.4881889763779528,"hand":"L"},{"time":100625,"durationMs":417,"midi":64,"velocity":0.4881889763779528,"hand":"L"},{"time":100625,"durationMs":139,"midi":94,"velocity":0.4881889763779528,"hand":"R"},{"time":100764,"durationMs":139,"midi":93,"velocity":0.4881889763779528,"hand":"R"},{"time":100903,"durationMs":139,"midi":92,"velocity":0.4881889763779528,"hand":"R"},{"time":101042,"durationMs":139,"midi":91,"velocity":0.4881889763779528,"hand":"R"},{"time":101181,"durationMs":139,"midi":90,"velocity":0.4881889763779528,"hand":"R"},{"time":101319,"durationMs":139,"midi":89,"velocity":0.4881889763779528,"hand":"R"},{"time":101458,"durationMs":139,"midi":88,"velocity":0.4881889763779528,"hand":"R"},{"time":101597,"durationMs":139,"midi":87,"velocity":0.4881889763779528,"hand":"R"},{"time":101736,"durationMs":139,"midi":86,"velocity":0.4881889763779528,"hand":"R"},{"time":101875,"durationMs":139,"midi":85,"velocity":0.4881889763779528,"hand":"R"},{"time":102014,"durationMs":139,"midi":84,"velocity":0.4881889763779528,"hand":"R"},{"time":102153,"durationMs":139,"midi":83,"velocity":0.4881889763779528,"hand":"R"},{"time":102292,"durationMs":139,"midi":82,"velocity":0.4881889763779528,"hand":"R"},{"time":102431,"durationMs":139,"midi":81,"velocity":0.4881889763779528,"hand":"R"},{"time":102569,"durationMs":139,"midi":80,"velocity":0.4881889763779528,"hand":"R"},{"time":102708,"durationMs":139,"midi":79,"velocity":0.4881889763779528,"hand":"R"},{"time":102847,"durationMs":139,"midi":78,"velocity":0.4881889763779528,"hand":"R"},{"time":102986,"durationMs":139,"midi":77,"velocity":0.4881889763779528,"hand":"R"},{"time":103125,"durationMs":208,"midi":76,"velocity":0.4881889763779528,"hand":"R"},{"time":103333,"durationMs":208,"midi":75,"velocity":0.4881889763779528,"hand":"R"},{"time":103542,"durationMs":208,"midi":76,"velocity":0.4881889763779528,"hand":"R"},{"time":103750,"durationMs":208,"midi":71,"velocity":0.4881889763779528,"hand":"R"},{"time":103958,"durationMs":208,"midi":74,"velocity":0.4881889763779528,"hand":"R"},{"time":104167,"durationMs":208,"midi":72,"velocity":0.4881889763779528,"hand":"R"},{"time":104375,"durationMs":208,"midi":45,"velocity":0.4881889763779528,"hand":"L"},{"time":104375,"durationMs":417,"midi":69,"velocity":0.4881889763779528,"hand":"R"},{"time":104583,"durationMs":208,"midi":52,"velocity":0.4881889763779528,"hand":"L"},{"time":104792,"durationMs":208,"midi":57,"velocity":0.4881889763779528,"hand":"L"},{"time":105000,"durationMs":208,"midi":60,"velocity":0.4881889763779528,"hand":"R"},{"time":105208,"durationMs":208,"midi":64,"velocity":0.4881889763779528,"hand":"R"},{"time":105417,"durationMs":208,"midi":69,"velocity":0.4881889763779528,"hand":"R"},{"time":105625,"durationMs":208,"midi":40,"velocity":0.4881889763779528,"hand":"L"},{"time":105625,"durationMs":417,"midi":71,"velocity":0.4881889763779528,"hand":"R"},{"time":105833,"durationMs":208,"midi":52,"velocity":0.4881889763779528,"hand":"L"},{"time":106042,"durationMs":208,"midi":56,"velocity":0.4881889763779528,"hand":"L"},{"time":106250,"durationMs":208,"midi":64,"velocity":0.4881889763779528,"hand":"R"},{"time":106458,"durationMs":208,"midi":68,"velocity":0.4881889763779528,"hand":"R"},{"time":106667,"durationMs":208,"midi":71,"velocity":0.4881889763779528,"hand":"R"},{"time":106875,"durationMs":208,"midi":45,"velocity":0.4881889763779528,"hand":"L"},{"time":106875,"durationMs":417,"midi":72,"velocity":0.4881889763779528,"hand":"R"},{"time":107083,"durationMs":208,"midi":52,"velocity":0.4881889763779528,"hand":"L"},{"time":107292,"durationMs":208,"midi":57,"velocity":0.4881889763779528,"hand":"L"},{"time":107500,"durationMs":208,"midi":64,"velocity":0.4881889763779528,"hand":"R"},{"time":107708,"durationMs":208,"midi":76,"velocity":0.4881889763779528,"hand":"R"},{"time":107917,"durationMs":208,"midi":75,"velocity":0.4881889763779528,"hand":"R"},{"time":108125,"durationMs":208,"midi":76,"velocity":0.4881889763779528,"hand":"R"},{"time":108333,"durationMs":208,"midi":75,"velocity":0.4881889763779528,"hand":"R"},{"time":108542,"durationMs":208,"midi":76,"velocity":0.4881889763779528,"hand":"R"},{"time":108750,"durationMs":208,"midi":71,"velocity":0.4881889763779528,"hand":"R"},{"time":108958,"durationMs":208,"midi":74,"velocity":0.4881889763779528,"hand":"R"},{"time":109167,"durationMs":208,"midi":72,"velocity":0.4881889763779528,"hand":"R"},{"time":109375,"durationMs":208,"midi":45,"velocity":0.4881889763779528,"hand":"L"},{"time":109375,"durationMs":417,"midi":69,"velocity":0.4881889763779528,"hand":"R"},{"time":109583,"durationMs":208,"midi":52,"velocity":0.4881889763779528,"hand":"L"},{"time":109792,"durationMs":208,"midi":57,"velocity":0.4881889763779528,"hand":"L"},{"time":110000,"durationMs":208,"midi":60,"velocity":0.4881889763779528,"hand":"R"},{"time":110208,"durationMs":208,"midi":64,"velocity":0.4881889763779528,"hand":"R"},{"time":110417,"durationMs":208,"midi":69,"velocity":0.4881889763779528,"hand":"R"},{"time":110625,"durationMs":208,"midi":40,"velocity":0.4881889763779528,"hand":"L"},{"time":110625,"durationMs":417,"midi":71,"velocity":0.4881889763779528,"hand":"R"},{"time":110833,"durationMs":208,"midi":52,"velocity":0.4881889763779528,"hand":"L"},{"time":111042,"durationMs":208,"midi":56,"velocity":0.4881889763779528,"hand":"L"},{"time":111250,"durationMs":208,"midi":64,"velocity":0.4881889763779528,"hand":"R"},{"time":111458,"durationMs":208,"midi":72,"velocity":0.4881889763779528,"hand":"R"},{"time":111667,"durationMs":208,"midi":71,"velocity":0.4881889763779528,"hand":"R"},{"time":111875,"durationMs":208,"midi":45,"velocity":0.4881889763779528,"hand":"L"},{"time":111875,"durationMs":417,"midi":69,"velocity":0.4881889763779528,"hand":"R"},{"time":112083,"durationMs":208,"midi":52,"velocity":0.4881889763779528,"hand":"L"},{"time":112292,"durationMs":208,"midi":57,"velocity":0.4881889763779528,"hand":"L"},{"time":112500,"durationMs":208,"midi":71,"velocity":0.4881889763779528,"hand":"R"},{"time":112708,"durationMs":208,"midi":72,"velocity":0.4881889763779528,"hand":"R"},{"time":112917,"durationMs":208,"midi":74,"velocity":0.4881889763779528,"hand":"R"},{"time":113125,"durationMs":208,"midi":48,"velocity":0.4881889763779528,"hand":"L"},{"time":113125,"durationMs":625,"midi":76,"velocity":0.4881889763779528,"hand":"R"},{"time":113333,"durationMs":208,"midi":55,"velocity":0.4881889763779528,"hand":"L"},{"time":113542,"durationMs":208,"midi":60,"velocity":0.4881889763779528,"hand":"L"},{"time":113750,"durationMs":208,"midi":67,"velocity":0.4881889763779528,"hand":"R"},{"time":113958,"durationMs":208,"midi":77,"velocity":0.4881889763779528,"hand":"R"},{"time":114167,"durationMs":208,"midi":76,"velocity":0.4881889763779528,"hand":"R"},{"time":114375,"durationMs":208,"midi":43,"velocity":0.4881889763779528,"hand":"L"},{"time":114375,"durationMs":625,"midi":74,"velocity":0.4881889763779528,"hand":"R"},{"time":114583,"durationMs":208,"midi":55,"velocity":0.4881889763779528,"hand":"L"},{"time":114792,"durationMs":208,"midi":59,"velocity":0.4881889763779528,"hand":"L"},{"time":115000,"durationMs":208,"midi":65,"velocity":0.4881889763779528,"hand":"R"},{"time":115208,"durationMs":208,"midi":76,"velocity":0.4881889763779528,"hand":"R"},{"time":115417,"durationMs":208,"midi":74,"velocity":0.4881889763779528,"hand":"R"},{"time":115625,"durationMs":208,"midi":45,"velocity":0.4881889763779528,"hand":"L"},{"time":115625,"durationMs":625,"midi":72,"velocity":0.4881889763779528,"hand":"R"},{"time":115833,"durationMs":208,"midi":52,"velocity":0.4881889763779528,"hand":"L"},{"time":116042,"durationMs":208,"midi":57,"velocity":0.4881889763779528,"hand":"L"},{"time":116250,"durationMs":208,"midi":64,"velocity":0.4881889763779528,"hand":"R"},{"time":116458,"durationMs":208,"midi":74,"velocity":0.4881889763779528,"hand":"R"},{"time":116667,"durationMs":208,"midi":72,"velocity":0.4881889763779528,"hand":"R"},{"time":116875,"durationMs":208,"midi":40,"velocity":0.4881889763779528,"hand":"L"},{"time":116875,"durationMs":417,"midi":71,"velocity":0.4881889763779528,"hand":"R"},{"time":117083,"durationMs":208,"midi":52,"velocity":0.4881889763779528,"hand":"L"},{"time":117292,"durationMs":208,"midi":64,"velocity":0.4881889763779528,"hand":"L"},{"time":117500,"durationMs":208,"midi":64,"velocity":0.4881889763779528,"hand":"R"},{"time":117708,"durationMs":208,"midi":76,"velocity":0.4881889763779528,"hand":"R"},{"time":117917,"durationMs":208,"midi":64,"velocity":0.4881889763779528,"hand":"L"},{"time":118125,"durationMs":208,"midi":76,"velocity":0.4881889763779528,"hand":"L"},{"time":118333,"durationMs":208,"midi":76,"velocity":0.4881889763779528,"hand":"R"},{"time":118542,"durationMs":208,"midi":88,"velocity":0.4881889763779528,"hand":"R"},{"time":118750,"durationMs":208,"midi":75,"velocity":0.4881889763779528,"hand":"L"},{"time":118958,"durationMs":208,"midi":76,"velocity":0.4881889763779528,"hand":"L"},{"time":119167,"durationMs":208,"midi":75,"velocity":0.4881889763779528,"hand":"R"},{"time":119375,"durationMs":208,"midi":76,"velocity":0.4881889763779528,"hand":"R"},{"time":119583,"durationMs":208,"midi":75,"velocity":0.4881889763779528,"hand":"L"},{"time":119792,"durationMs":208,"midi":76,"velocity":0.4881889763779528,"hand":"L"},{"time":120000,"durationMs":208,"midi":75,"velocity":0.4881889763779528,"hand":"R"},{"time":120208,"durationMs":208,"midi":76,"velocity":0.4881889763779528,"hand":"R"},{"time":120417,"durationMs":208,"midi":75,"velocity":0.4881889763779528,"hand":"R"},{"time":120625,"durationMs":208,"midi":76,"velocity":0.4881889763779528,"hand":"R"},{"time":120833,"durationMs":208,"midi":75,"velocity":0.4881889763779528,"hand":"R"},{"time":121042,"durationMs":208,"midi":76,"velocity":0.4881889763779528,"hand":"R"},{"time":121250,"durationMs":208,"midi":71,"velocity":0.4881889763779528,"hand":"R"},{"time":121458,"durationMs":208,"midi":74,"velocity":0.4881889763779528,"hand":"R"},{"time":121667,"durationMs":208,"midi":72,"velocity":0.4881889763779528,"hand":"R"},{"time":121875,"durationMs":208,"midi":45,"velocity":0.4881889763779528,"hand":"L"},{"time":121875,"durationMs":417,"midi":69,"velocity":0.4881889763779528,"hand":"R"},{"time":122083,"durationMs":208,"midi":52,"velocity":0.4881889763779528,"hand":"L"},{"time":122292,"durationMs":208,"midi":57,"velocity":0.4881889763779528,"hand":"L"},{"time":122500,"durationMs":208,"midi":60,"velocity":0.4881889763779528,"hand":"R"},{"time":122708,"durationMs":208,"midi":64,"velocity":0.4881889763779528,"hand":"R"},{"time":122917,"durationMs":208,"midi":69,"velocity":0.4881889763779528,"hand":"R"},{"time":123125,"durationMs":208,"midi":40,"velocity":0.4881889763779528,"hand":"L"},{"time":123125,"durationMs":417,"midi":71,"velocity":0.4881889763779528,"hand":"R"},{"time":123333,"durationMs":208,"midi":52,"velocity":0.4881889763779528,"hand":"L"},{"time":123542,"durationMs":208,"midi":56,"velocity":0.4881889763779528,"hand":"L"},{"time":123750,"durationMs":208,"midi":64,"velocity":0.4881889763779528,"hand":"R"},{"time":123958,"durationMs":208,"midi":68,"velocity":0.4881889763779528,"hand":"R"},{"time":124167,"durationMs":208,"midi":71,"velocity":0.4881889763779528,"hand":"R"},{"time":124375,"durationMs":208,"midi":45,"velocity":0.4881889763779528,"hand":"L"},{"time":124375,"durationMs":417,"midi":72,"velocity":0.4881889763779528,"hand":"R"},{"time":124583,"durationMs":208,"midi":52,"velocity":0.4881889763779528,"hand":"L"},{"time":124792,"durationMs":208,"midi":57,"velocity":0.4881889763779528,"hand":"L"},{"time":125000,"durationMs":208,"midi":64,"velocity":0.4881889763779528,"hand":"R"},{"time":125208,"durationMs":208,"midi":76,"velocity":0.4881889763779528,"hand":"R"},{"time":125417,"durationMs":208,"midi":75,"velocity":0.4881889763779528,"hand":"R"},{"time":125625,"durationMs":208,"midi":76,"velocity":0.4881889763779528,"hand":"R"},{"time":125833,"durationMs":208,"midi":75,"velocity":0.4881889763779528,"hand":"R"},{"time":126042,"durationMs":208,"midi":76,"velocity":0.4881889763779528,"hand":"R"},{"time":126250,"durationMs":208,"midi":71,"velocity":0.4881889763779528,"hand":"R"},{"time":126458,"durationMs":208,"midi":74,"velocity":0.4881889763779528,"hand":"R"},{"time":126667,"durationMs":208,"midi":72,"velocity":0.4881889763779528,"hand":"R"},{"time":126875,"durationMs":208,"midi":45,"velocity":0.4881889763779528,"hand":"L"},{"time":126875,"durationMs":417,"midi":69,"velocity":0.4881889763779528,"hand":"R"},{"time":127083,"durationMs":208,"midi":52,"velocity":0.4881889763779528,"hand":"L"},{"time":127292,"durationMs":208,"midi":57,"velocity":0.4881889763779528,"hand":"L"},{"time":127500,"durationMs":208,"midi":60,"velocity":0.4881889763779528,"hand":"R"},{"time":127708,"durationMs":208,"midi":64,"velocity":0.4881889763779528,"hand":"R"},{"time":127917,"durationMs":208,"midi":69,"velocity":0.4881889763779528,"hand":"R"},{"time":128125,"durationMs":208,"midi":40,"velocity":0.4881889763779528,"hand":"L"},{"time":128125,"durationMs":417,"midi":71,"velocity":0.4881889763779528,"hand":"R"},{"time":128333,"durationMs":208,"midi":52,"velocity":0.4881889763779528,"hand":"L"},{"time":128542,"durationMs":208,"midi":56,"velocity":0.4881889763779528,"hand":"L"},{"time":128750,"durationMs":208,"midi":64,"velocity":0.4881889763779528,"hand":"R"},{"time":128958,"durationMs":208,"midi":72,"velocity":0.4881889763779528,"hand":"R"},{"time":129167,"durationMs":208,"midi":71,"velocity":0.4881889763779528,"hand":"R"},{"time":129375,"durationMs":417,"midi":33,"velocity":0.4881889763779528,"hand":"L"},{"time":129375,"durationMs":417,"midi":45,"velocity":0.4881889763779528,"hand":"L"},{"time":129375,"durationMs":417,"midi":69,"velocity":0.4881889763779528,"hand":"R"}]}