{"meta":{"title":"Gymnopédie No. 1","bpm":60,"durationMs":141000},"notes":[{"time":0,"durationMs":3000,"midi":43,"velocity":0.7086614173228346,"hand":"L"},{"time":1000,"durationMs":2000,"midi":59,"velocity":0.7086614173228346,"hand":"R"},{"time":1000,"durationMs":2000,"midi":62,"velocity":0.7086614173228346,"hand":"R"},{"time":1000,"durationMs":2000,"midi":66,"velocity":0.7086614173228346,"hand":"R"},{"time":3000,"durationMs":3000,"midi":38,"velocity":0.7086614173228346,"hand":"L"},{"time":4000,"durationMs":2000,"midi":57,"velocity":0.7086614173228346,"hand":"R"},{"time":4000,"durationMs":2000,"midi":61,"velocity":0.7086614173228346,"hand":"R"},{"time":4000,"durationMs":2000,"midi":66,"velocity":0.7086614173228346,"hand":"R"},{"time":6000,"durationMs":3000,"midi":43,"velocity":0.7086614173228346,"hand":"L"},{"time":7000,"durationMs":2000,"midi":59,"velocity":0.7086614173228346,"hand":"R"},{"time":7000,"durationMs":2000,"midi":62,"velocity":0.7086614173228346,"hand":"R"},{"time":7000,"durationMs":2000,"midi":66,"velocity":0.7086614173228346,"hand":"R"},{"time":9000,"durationMs":3000,"midi":38,"velocity":0.7086614173228346,"hand":"L"},{"time":10000,"durationMs":2000,"midi":57,"velocity":0.7086614173228346,"hand":"R"},{"time":10000,"durationMs":2000,"midi":61,"velocity":0.7086614173228346,"hand":"R"},{"time":10000,"durationMs":2000,"midi":66,"velocity":0.7086614173228346,"hand":"R"},{"time":12000,"durationMs":3000,"midi":43,"velocity":0.7086614173228346,"hand":"L"},{"time":13000,"durationMs":2000,"midi":59,"velocity":0.7086614173228346,"hand":"R"},{"time":13000,"durationMs":2000,"midi":62,"velocity":0.7086614173228346,"hand":"R"},{"time":13000,"durationMs":2000,"midi":66,"velocity":0.7086614173228346,"hand":"R"},{"time":13000,"durationMs":1000,"midi":78,"velocity":0.4881889763779528,"hand":"R"},{"time":14000,"durationMs":1000,"midi":81,"velocity":0.5196850393700787,"hand":"R"},{"time":15000,"durationMs":3000,"midi":38,"velocity":0.7086614173228346,"hand":"L"},{"time":15000,"durationMs":1000,"midi":79,"velocity":0.5590551181102362,"hand":"R"},{"time":16000,"durationMs":2000,"midi":57,"velocity":0.7086614173228346,"hand":"R"},{"time":16000,"durationMs":2000,"midi":61,"velocity":0.7086614173228346,"hand":"R"},{"time":16000,"durationMs":2000,"midi":66,"velocity":0.7086614173228346,"hand":"R"},{"time":16000,"durationMs":1000,"midi":78,"velocity":0.5984251968503937,"hand":"R"},{"time":17000,"durationMs":1000,"midi":73,"velocity":0.6377952755905512,"hand":"R"},{"time":18000,"durationMs":3000,"midi":43,"velocity":0.7086614173228346,"hand":"L"},{"time":18000,"durationMs":1000,"midi":71,"velocity":0.6771653543307087,"hand":"R"},{"time":19000,"durationMs":2000,"midi":59,"velocity":0.7086614173228346,"hand":"R"},{"time":19000,"durationMs":2000,"midi":62,"velocity":0.7086614173228346,"hand":"R"},{"time":19000,"durationMs":2000,"midi":66,"velocity":0.7086614173228346,"hand":"R"},{"time":19000,"durationMs":1000,"midi":73,"velocity":0.7086614173228346,"hand":"R"},{"time":20000,"durationMs":1000,"midi":74,"velocity":0.7086614173228346,"hand":"R"},{"time":21000,"durationMs":3000,"midi":38,"velocity":0.7086614173228346,"hand":"L"},{"time":21000,"durationMs":3000,"midi":69,"velocity":0.6535433070866141,"hand":"R"},{"time":22000,"durationMs":2000,"midi":57,"velocity":0.7086614173228346,"hand":"R"},{"time":22000,"durationMs":2000,"midi":61,"velocity":0.7086614173228346,"hand":"R"},{"time":22000,"durationMs":2000,"midi":66,"velocity":0.7086614173228346,"hand":"R"},{"time":24000,"durationMs":3000,"midi":43,"velocity":0.7086614173228346,"hand":"L"},{"time":24000,"durationMs":1000,"midi":66,"velocity":0.4881889763779528,"hand":"R"},{"time":25000,"durationMs":2000,"midi":59,"velocity":0.7480314960629921,"hand":"R"},{"time":25000,"durationMs":2000,"midi":62,"velocity":0.7480314960629921,"hand":"R"},{"time":25000,"durationMs":3000,"midi":66,"velocity":0.7480314960629921,"hand":"R"},{"time":27000,"durationMs":3000,"midi":38,"velocity":0.7086614173228346,"hand":"L"},{"time":28000,"durationMs":2000,"midi":57,"velocity":0.7480314960629921,"hand":"R"},{"time":28000,"durationMs":2000,"midi":61,"velocity":0.7480314960629921,"hand":"R"},{"time":28000,"durationMs":3000,"midi":66,"velocity":0.7480314960629921,"hand":"R"},{"time":30000,"durationMs":3000,"midi":43,"velocity":0.7086614173228346,"hand":"L"},{"time":31000,"durationMs":2000,"midi":59,"velocity":0.7480314960629921,"hand":"R"},{"time":31000,"durationMs":2000,"midi":62,"velocity":0.7480314960629921,"hand":"R"},{"time":31000,"durationMs":3000,"midi":66,"velocity":0.7480314960629921,"hand":"R"},{"time":33000,"durationMs":3000,"midi":38,"velocity":0.7086614173228346,"hand":"L"},{"time":34000,"durationMs":2000,"midi":57,"velocity":0.7480314960629921,"hand":"R"},{"time":34000,"durationMs":2000,"midi":61,"velocity":0.7480314960629921,"hand":"R"},{"time":34000,"durationMs":2000,"midi":66,"velocity":0.7480314960629921,"hand":"R"},{"time":36000,"durationMs":3000,"midi":43,"velocity":0.7086614173228346,"hand":"L"},{"time":37000,"durationMs":2000,"midi":59,"velocity":0.4881889763779528,"hand":"R"},{"time":37000,"durationMs":2000,"midi":62,"velocity":0.4881889763779528,"hand":"R"},{"time":37000,"durationMs":2000,"midi":66,"velocity":0.4881889763779528,"hand":"R"},{"time":37000,"durationMs":1000,"midi":78,"velocity":0.4881889763779528,"hand":"R"},{"time":38000,"durationMs":1000,"midi":81,"velocity":0.5196850393700787,"hand":"R"},{"time":39000,"durationMs":3000,"midi":38,"velocity":0.7086614173228346,"hand":"L"},{"time":39000,"durationMs":1000,"midi":79,"velocity":0.5511811023622047,"hand":"R"},{"time":40000,"durationMs":2000,"midi":57,"velocity":0.4881889763779528,"hand":"R"},{"time":40000,"durationMs":2000,"midi":61,"velocity":0.4881889763779528,"hand":"R"},{"time":40000,"durationMs":2000,"midi":66,"velocity":0.4881889763779528,"hand":"R"},{"time":40000,"durationMs":1000,"midi":78,"velocity":0.5826771653543307,"hand":"R"},{"time":41000,"durationMs":1000,"midi":73,"velocity":0.6141732283464567,"hand":"R"},{"time":42000,"durationMs":3000,"midi":43,"velocity":0.7086614173228346,"hand":"L"},{"time":42000,"durationMs":1000,"midi":71,"velocity":0.6456692913385826,"hand":"R"},{"time":43000,"durationMs":2000,"midi":59,"velocity":0.4881889763779528,"hand":"R"},{"time":43000,"durationMs":2000,"midi":62,"velocity":0.4881889763779528,"hand":"R"},{"time":43000,"durationMs":2000,"midi":66,"velocity":0.4881889763779528,"hand":"R"},{"time":43000,"durationMs":1000,"midi":73,"velocity":0.6771653543307087,"hand":"R"},{"time":44000,"durationMs":1000,"midi":74,"velocity":0.7086614173228346,"hand":"R"},{"time":45000,"durationMs":3000,"midi":38,"velocity":0.7086614173228346,"hand":"L"},{"time":45000,"durationMs":3000,"midi":69,"velocity":0.7086614173228346,"hand":"R"},{"time":46000,"durationMs":2000,"midi":57,"velocity":0.4881889763779528,"hand":"R"},{"time":46000,"durationMs":2000,"midi":61,"velocity":0.4881889763779528,"hand":"R"},{"time":46000,"durationMs":2000,"midi":66,"velocity":0.4881889763779528,"hand":"R"},{"time":48000,"durationMs":3000,"midi":42,"velocity":0.7086614173228346,"hand":"L"},{"time":48000,"durationMs":3000,"midi":73,"velocity":0.6377952755905512,"hand":"R"},{"time":49000,"durationMs":2000,"midi":57,"velocity":0.4881889763779528,"hand":"R"},{"time":49000,"durationMs":2000,"midi":61,"velocity":0.4881889763779528,"hand":"R"},{"time":49000,"durationMs":2000,"midi":66,"velocity":0.4881889763779528,"hand":"R"},{"time":51000,"durationMs":3000,"midi":35,"velocity":0.7086614173228346,"hand":"L"},{"time":51000,"durationMs":3000,"midi":78,"velocity":0.5590551181102362,"hand":"R"},{"time":52000,"durationMs":2000,"midi":59,"velocity":0.4881889763779528,"hand":"R"},{"time":52000,"durationMs":2000,"midi":62,"velocity":0.4881889763779528,"hand":"R"},{"time":52000,"durationMs":2000,"midi":66,"velocity":0.4881889763779528,"hand":"R"},{"time":54000,"durationMs":3000,"midi":40,"velocity":0.7086614173228346,"hand":"L"},{"time":54000,"durationMs":9000,"midi":64,"velocity":0.4881889763779528,"hand":"R"},{"time":55000,"durationMs":2000,"midi":55,"velocity":0.7086614173228346,"hand":"L"},{"time":55000,"durationMs":2000,"midi":59,"velocity":0.7086614173228346,"hand":"L"},{"time":57000,"durationMs":3000,"midi":40,"velocity":0.7086614173228346,"hand":"L"},{"time":58000,"durationMs":2000,"midi":59,"velocity":0.7086614173228346,"hand":"L"},{"time":58000,"durationMs":2000,"midi":62,"velocity":0.7086614173228346,"hand":"L"},{"time":58000,"durationMs":2000,"midi":67,"velocity":0.7086614173228346,"hand":"L"},{"time":60000,"durationMs":3000,"midi":38,"velocity":0.7086614173228346,"hand":"L"},{"time":61000,"durationMs":2000,"midi":53,"velocity":0.7086614173228346,"hand":"L"},{"time":61000,"durationMs":2000,"midi":57,"velocity":0.7086614173228346,"hand":"L"},{"time":61000,"durationMs":2000,"midi":62,"velocity":0.7086614173228346,"hand":"L"},{"time":63000,"durationMs":3000,"midi":33,"velocity":0.7086614173228346,"hand":"L"},{"time":63000,"durationMs":1000,"midi":69,"velocity":0.4881889763779528,"hand":"R"},{"time":64000,"durationMs":2000,"midi":57,"velocity":0.5433070866141733,"hand":"L"},{"time":64000,"durationMs":2000,"midi":60,"velocity":0.5433070866141733,"hand":"L"},{"time":64000,"durationMs":2000,"midi":64,"velocity":0.5433070866141733,"hand":"L"},{"time":64000,"durationMs":1000,"midi":71,"velocity":0.5118110236220472,"hand":"R"},{"time":65000,"durationMs":1000,"midi":72,"velocity":0.5433070866141733,"hand":"R"},{"time":66000,"durationMs":3000,"midi":38,"velocity":0.7086614173228346,"hand":"L"},{"time":66000,"durationMs":1000,"midi":76,"velocity":0.5669291338582677,"hand":"R"},{"time":67000,"durationMs":2000,"midi":55,"velocity":0.5433070866141733,"hand":"L"},{"time":67000,"durationMs":2000,"midi":59,"velocity":0.5433070866141733,"hand":"L"},{"time":67000,"durationMs":2000,"midi":64,"velocity":0.5433070866141733,"hand":"L"},{"time":67000,"durationMs":1000,"midi":74,"velocity":0.5984251968503937,"hand":"R"},{"time":68000,"durationMs":1000,"midi":71,"velocity":0.6299212598425197,"hand":"R"},{"time":69000,"durationMs":3000,"midi":38,"velocity":0.7086614173228346,"hand":"L"},{"time":69000,"durationMs":1000,"midi":74,"velocity":0.6535433070866141,"hand":"R"},{"time":70000,"durationMs":2000,"midi":50,"velocity":0.5433070866141733,"hand":"L"},{"time":70000,"durationMs":2000,"midi":55,"velocity":0.5433070866141733,"hand":"L"},{"time":70000,"durationMs":2000,"midi":59,"velocity":0.5433070866141733,"hand":"L"},{"time":70000,"durationMs":2000,"midi":64,"velocity":0.5433070866141733,"hand":"L"},{"time":70000,"durationMs":1000,"midi":72,"velocity":0.6850393700787402,"hand":"R"},{"time":71000,"durationMs":1000,"midi":71,"velocity":0.7086614173228346,"hand":"R"},{"time":72000,"durationMs":3000,"midi":38,"velocity":0.7086614173228346,"hand":"L"},{"time":72000,"durationMs":5000,"midi":74,"velocity":0.7086614173228346,"hand":"R"},{"time":73000,"durationMs":2000,"midi":48,"velocity":0.5433070866141733,"hand":"L"},{"time":73000,"durationMs":2000,"midi":52,"velocity":0.5433070866141733,"hand":"L"},{"time":73000,"durationMs":2000,"midi":57,"velocity":0.5433070866141733,"hand":"L"},{"time":73000,"durationMs":2000,"midi":62,"velocity":0.5433070866141733,"hand":"L"},{"time":75000,"durationMs":3000,"midi":38,"velocity":0.7086614173228346,"hand":"L"},{"time":76000,"durationMs":2000,"midi":48,"velocity":0.5433070866141733,"hand":"L"},{"time":76000,"durationMs":2000,"midi":54,"velocity":0.5433070866141733,"hand":"L"},{"time":76000,"durationMs":2000,"midi":57,"velocity":0.5433070866141733,"hand":"L"},{"time":76000,"durationMs":2000,"midi":62,"velocity":0.5433070866141733,"hand":"L"},{"time":77000,"durationMs":1000,"midi":74,"velocity":0.4881889763779528,"hand":"R"},{"time":78000,"durationMs":3000,"midi":38,"velocity":0.7086614173228346,"hand":"L"},{"time":78000,"durationMs":1000,"midi":76,"velocity":0.5196850393700787,"hand":"R"},{"time":79000,"durationMs":2000,"midi":57,"velocity":0.5433070866141733,"hand":"L"},{"time":79000,"durationMs":2000,"midi":60,"velocity":0.5433070866141733,"hand":"L"},{"time":79000,"durationMs":2000,"midi":65,"velocity":0.5433070866141733,"hand":"L"},{"time":79000,"durationMs":1000,"midi":77,"velocity":0.5590551181102362,"hand":"R"},{"time":80000,"durationMs":1000,"midi":79,"velocity":0.5984251968503937,"hand":"R"},{"time":81000,"durationMs":3000,"midi":38,"velocity":0.7086614173228346,"hand":"L"},{"time":81000,"durationMs":1000,"midi":81,"velocity":0.6377952755905512,"hand":"R"},{"time":82000,"durationMs":2000,"midi":57,"velocity":0.5433070866141733,"hand":"L"},{"time":82000,"durationMs":2000,"midi":60,"velocity":0.5433070866141733,"hand":"L"},{"time":82000,"durationMs":2000,"midi":64,"velocity":0.5433070866141733,"hand":"L"},{"time":82000,"durationMs":1000,"midi":72,"velocity":0.6771653543307087,"hand":"R"},{"time":83000,"durationMs":1000,"midi":74,"velocity":0.7086614173228346,"hand":"R"},{"time":84000,"durationMs":3000,"midi":38,"velocity":0.7086614173228346,"hand":"L"},{"time":84000,"durationMs":1000,"midi":76,"velocity":0.7086614173228346,"hand":"R"},{"time":85000,"durationMs":2000,"midi":50,"velocity":0.5433070866141733,"hand":"L"},{"time":85000,"durationMs":2000,"midi":55,"velocity":0.5433070866141733,"hand":"L"},{"time":85000,"durationMs":2000,"midi":59,"velocity":0.5433070866141733,"hand":"L"},{"time":85000,"durationMs":2000,"midi":64,"velocity":0.5433070866141733,"hand":"L"},{"time":85000,"durationMs":1000,"midi":74,"velocity":0.6377952755905512,"hand":"R"},{"time":86000,"durationMs":1000,"midi":71,"velocity":0.5590551181102362,"hand":"R"},{"time":87000,"durationMs":3000,"midi":38,"velocity":0.7086614173228346,"hand":"L"},{"time":87000,"durationMs":5000,"midi":74,"velocity":0.4881889763779528,"hand":"R"},{"time":88000,"durationMs":2000,"midi":48,"velocity":0.5433070866141733,"hand":"L"},{"time":88000,"durationMs":2000,"midi":52,"velocity":0.5433070866141733,"hand":"L"},{"time":88000,"durationMs":2000,"midi":57,"velocity":0.5433070866141733,"hand":"L"},{"time":88000,"durationMs":2000,"midi":62,"velocity":0.5433070866141733,"hand":"L"},{"time":90000,"durationMs":3000,"midi":38,"velocity":0.7086614173228346,"hand":"L"},{"time":91000,"durationMs":2000,"midi":48,"velocity":0.5433070866141733,"hand":"L"},{"time":91000,"durationMs":2000,"midi":54,"velocity":0.5433070866141733,"hand":"L"},{"time":91000,"durationMs":2000,"midi":57,"velocity":0.5433070866141733,"hand":"L"},{"time":91000,"durationMs":2000,"midi":62,"velocity":0.5433070866141733,"hand":"L"},{"time":92000,"durationMs":1000,"midi":74,"velocity":0.4881889763779528,"hand":"R"},{"time":93000,"durationMs":3000,"midi":40,"velocity":0.7086614173228346,"hand":"L"},{"time":93000,"durationMs":3000,"midi":79,"velocity":0.4881889763779528,"hand":"R"},{"time":94000,"durationMs":2000,"midi":59,"velocity":0.4881889763779528,"hand":"R"},{"time":94000,"durationMs":2000,"midi":64,"velocity":0.4881889763779528,"hand":"R"},{"time":94000,"durationMs":2000,"midi":67,"velocity":0.4881889763779528,"hand":"R"},{"time":96000,"durationMs":3000,"midi":42,"velocity":0.7086614173228346,"hand":"L"},{"time":96000,"durationMs":3000,"midi":78,"velocity":0.7086614173228346,"hand":"R"},{"time":97000,"durationMs":2000,"midi":57,"velocity":0.4881889763779528,"hand":"R"},{"time":97000,"durationMs":2000,"midi":61,"velocity":0.4881889763779528,"hand":"R"},{"time":97000,"durationMs":2000,"midi":66,"velocity":0.4881889763779528,"hand":"R"},{"time":99000,"durationMs":3000,"midi":35,"velocity":0.7086614173228346,"hand":"L"},{"time":99000,"durationMs":1000,"midi":71,"velocity":0.7086614173228346,"hand":"R"},{"time":100000,"durationMs":2000,"midi":59,"velocity":0.4881889763779528,"hand":"R"},{"time":100000,"durationMs":2000,"midi":62,"velocity":0.4881889763779528,"hand":"R"},{"time":100000,"durationMs":2000,"midi":66,"velocity":0.4881889763779528,"hand":"R"},{"time":100000,"durationMs":1000,"midi":69,"velocity":0.7086614173228346,"hand":"R"},{"time":101000,"durationMs":1000,"midi":71,"velocity":0.7086614173228346,"hand":"R"},{"time":102000,"durationMs":3000,"midi":40,"velocity":0.7086614173228346,"hand":"L"},{"time":102000,"durationMs":1000,"midi":73,"velocity":0.7086614173228346,"hand":"R"},{"time":103000,"durationMs":2000,"midi":61,"velocity":0.4881889763779528,"hand":"R"},{"time":103000,"durationMs":2000,"midi":64,"velocity":0.4881889763779528,"hand":"R"},{"time":103000,"durationMs":2000,"midi":69,"velocity":0.4881889763779528,"hand":"R"},{"time":103000,"durationMs":1000,"midi":74,"velocity":0.7086614173228346,"hand":"R"},{"time":104000,"durationMs":1000,"midi":76,"velocity":0.7086614173228346,"hand":"R"},{"time":105000,"durationMs":3000,"midi":40,"velocity":0.7086614173228346,"hand":"L"},{"time":105000,"durationMs":1000,"midi":73,"velocity":0.7086614173228346,"hand":"R"},{"time":106000,"durationMs":2000,"midi":57,"velocity":0.4881889763779528,"hand":"R"},{"time":106000,"durationMs":2000,"midi":61,"velocity":0.4881889763779528,"hand":"R"},{"time":106000,"durationMs":2000,"midi":66,"velocity":0.4881889763779528,"hand":"R"},{"time":106000,"durationMs":2000,"midi":69,"velocity":0.4881889763779528,"hand":"R"},{"time":106000,"durationMs":1000,"midi":74,"velocity":0.7086614173228346,"hand":"R"},{"time":107000,"durationMs":1000,"midi":76,"velocity":0.6692913385826772,"hand":"R"},{"time":108000,"durationMs":3000,"midi":40,"velocity":0.7086614173228346,"hand":"L"},{"time":108000,"durationMs":3000,"midi":66,"velocity":0.6220472440944882,"hand":"R"},{"time":109000,"durationMs":1000,"midi":47,"velocity":0.7086614173228346,"hand":"L"},{"time":109000,"durationMs":1000,"midi":57,"velocity":0.4881889763779528,"hand":"R"},{"time":109000,"durationMs":1000,"midi":62,"velocity":0.4881889763779528,"hand":"R"},{"time":110000,"durationMs":1000,"midi":52,"velocity":0.7086614173228346,"hand":"L"},{"time":110000,"durationMs":1000,"midi":59,"velocity":0.4881889763779528,"hand":"R"},{"time":110000,"durationMs":1000,"midi":62,"velocity":0.4881889763779528,"hand":"R"},{"time":110000,"durationMs":1000,"midi":67,"velocity":0.4881889763779528,"hand":"R"},{"time":111000,"durationMs":3000,"midi":45,"velocity":0.7086614173228346,"hand":"L"},{"time":111000,"durationMs":3000,"midi":55,"velocity":0.7086614173228346,"hand":"L"},{"time":111000,"durationMs":3000,"midi":60,"velocity":0.4881889763779528,"hand":"R"},{"time":111000,"durationMs":3000,"midi":64,"velocity":0.4881889763779528,"hand":"R"},{"time":111000,"durationMs":3000,"midi":69,"velocity":0.4881889763779528,"hand":"R"},{"time":111000,"durationMs":3000,"midi":72,"velocity":0.4881889763779528,"hand":"R"},{"time":114000,"durationMs":3000,"midi":38,"velocity":0.7086614173228346,"hand":"L"},{"time":114000,"durationMs":3000,"midi":45,"velocity":0.7086614173228346,"hand":"L"},{"time":114000,"durationMs":3000,"midi":50,"velocity":0.7086614173228346,"hand":"L"},{"time":114000,"durationMs":3000,"midi":62,"velocity":0.4881889763779528,"hand":"R"},{"time":114000,"durationMs":3000,"midi":66,"velocity":0.4881889763779528,"hand":"R"},{"time":114000,"durationMs":3000,"midi":69,"velocity":0.4881889763779528,"hand":"R"},{"time":114000,"durationMs":3000,"midi":74,"velocity":0.4881889763779528,"hand":"R"},{"time":117000,"durationMs":3000,"midi":40,"velocity":0.7086614173228346,"hand":"L"},{"time":117000,"durationMs":3000,"midi":79,"velocity":0.4881889763779528,"hand":"R"},{"time":118000,"durationMs":2000,"midi":59,"velocity":0.4881889763779528,"hand":"R"},{"time":118000,"durationMs":2000,"midi":64,"velocity":0.4881889763779528,"hand":"R"},{"time":118000,"durationMs":2000,"midi":67,"velocity":0.4881889763779528,"hand":"R"},{"time":120000,"durationMs":3000,"midi":40,"velocity":0.7086614173228346,"hand":"L"},{"time":120000,"durationMs":3000,"midi":77,"velocity":0.7086614173228346,"hand":"R"},{"time":121000,"durationMs":2000,"midi":57,"velocity":0.4881889763779528,"hand":"R"},{"time":121000,"durationMs":2000,"midi":62,"velocity":0.4881889763779528,"hand":"R"},{"time":121000,"durationMs":2000,"midi":65,"velocity":0.4881889763779528,"hand":"R"},{"time":121000,"durationMs":2000,"midi":69,"velocity":0.4881889763779528,"hand":"R"},{"time":123000,"durationMs":3000,"midi":40,"velocity":0.7086614173228346,"hand":"L"},{"time":123000,"durationMs":1000,"midi":71,"velocity":0.7086614173228346,"hand":"R"},{"time":124000,"durationMs":2000,"midi":57,"velocity":0.4881889763779528,"hand":"R"},{"time":124000,"durationMs":2000,"midi":60,"velocity":0.4881889763779528,"hand":"R"},{"time":124000,"durationMs":2000,"midi":65,"velocity":0.4881889763779528,"hand":"R"},{"time":124000,"durationMs":1000,"midi":72,"velocity":0.7086614173228346,"hand":"R"},{"time":125000,"durationMs":1000,"midi":77,"velocity":0.7086614173228346,"hand":"R"},{"time":126000,"durationMs":3000,"midi":40,"velocity":0.7086614173228346,"hand":"L"},{"time":126000,"durationMs":1000,"midi":76,"velocity":0.7086614173228346,"hand":"R"},{"time":127000,"durationMs":2000,"midi":60,"velocity":0.4881889763779528,"hand":"R"},{"time":127000,"durationMs":2000,"midi":64,"velocity":0.4881889763779528,"hand":"R"},{"time":127000,"durationMs":2000,"midi":69,"velocity":0.4881889763779528,"hand":"R"},{"time":127000,"durationMs":1000,"midi":74,"velocity":0.7086614173228346,"hand":"R"},{"time":128000,"durationMs":1000,"midi":72,"velocity":0.7086614173228346,"hand":"R"},{"time":129000,"durationMs":3000,"midi":40,"velocity":0.7086614173228346,"hand":"L"},{"time":129000,"durationMs":1000,"midi":76,"velocity":0.7086614173228346,"hand":"R"},{"time":130000,"durationMs":2000,"midi":57,"velocity":0.4881889763779528,"hand":"R"},{"time":130000,"durationMs":2000,"midi":60,"velocity":0.4881889763779528,"hand":"R"},{"time":130000,"durationMs":2000,"midi":65,"velocity":0.4881889763779528,"hand":"R"},{"time":130000,"durationMs":2000,"midi":69,"velocity":0.4881889763779528,"hand":"R"},{"time":130000,"durationMs":1000,"midi":74,"velocity":0.7086614173228346,"hand":"R"},{"time":131000,"durationMs":1000,"midi":72,"velocity":0.7086614173228346,"hand":"R"},{"time":132000,"durationMs":3000,"midi":40,"velocity":0.7086614173228346,"hand":"L"},{"time":132000,"durationMs":3000,"midi":65,"velocity":0.6771653543307087,"hand":"R"},{"time":133000,"durationMs":1000,"midi":47,"velocity":0.7086614173228346,"hand":"L"},{"time":133000,"durationMs":1000,"midi":57,"velocity":0.4881889763779528,"hand":"R"},{"time":133000,"durationMs":1000,"midi":62,"velocity":0.4881889763779528,"hand":"R"},{"time":134000,"durationMs":1000,"midi":52,"velocity":0.7086614173228346,"hand":"L"},{"time":134000,"durationMs":1000,"midi":59,"velocity":0.4881889763779528,"hand":"R"},{"time":134000,"durationMs":1000,"midi":62,"velocity":0.4881889763779528,"hand":"R"},{"time":134000,"durationMs":1000,"midi":67,"velocity":0.4881889763779528,"hand":"R"},{"time":135000,"durationMs":3000,"midi":45,"velocity":0.7086614173228346,"hand":"L"},{"time":135000,"durationMs":3000,"midi":55,"velocity":0.7086614173228346,"hand":"L"},{"time":135000,"durationMs":3000,"midi":60,"velocity":0.5826771653543307,"hand":"R"},{"time":135000,"durationMs":3000,"midi":64,"velocity":0.5826771653543307,"hand":"R"},{"time":135000,"durationMs":3000,"midi":69,"velocity":0.5826771653543307,"hand":"R"},{"time":135000,"durationMs":3000,"midi":72,"velocity":0.5826771653543307,"hand":"R"},{"time":138000,"durationMs":3000,"midi":38,"velocity":0.7086614173228346,"hand":"L"},{"time":138000,"durationMs":3000,"midi":45,"velocity":0.7086614173228346,"hand":"L"},{"time":138000,"durationMs":3000,"midi":50,"velocity":0.7086614173228346,"hand":"L"},{"time":138000,"durationMs":3000,"midi":62,"velocity":0.4881889763779528,"hand":"R"},{"time":138000,"durationMs":3000,"midi":65,"velocity":0.4881889763779528,"hand":"R"},{"time":138000,"durationMs":3000,"midi":69,"velocity":0.4881889763779528,"hand":"R"},{"time":138000,"durationMs":3000,"midi":74,"velocity":0.4881889763779528,"hand":"R"}]}
