{"meta":{"title":"The Entertainer","bpm":72,"durationMs":252917},"notes":[{"time":0,"durationMs":208,"midi":74,"velocity":0.7086614173228346,"hand":"R"},{"time":0,"durationMs":208,"midi":86,"velocity":0.7086614173228346,"hand":"R"},{"time":208,"durationMs":208,"midi":76,"velocity":0.7086614173228346,"hand":"R"},{"time":208,"durationMs":208,"midi":88,"velocity":0.7086614173228346,"hand":"R"},{"time":417,"durationMs":208,"midi":72,"velocity":0.7086614173228346,"hand":"R"},{"time":417,"durationMs":208,"midi":84,"velocity":0.7086614173228346,"hand":"R"},{"time":625,"durationMs":417,"midi":69,"velocity":0.7086614173228346,"hand":"R"},{"time":625,"durationMs":417,"midi":81,"velocity":0.7086614173228346,"hand":"R"},{"time":1042,"durationMs":208,"midi":71,"velocity":0.7086614173228346,"hand":"R"},{"time":1042,"durationMs":208,"midi":83,"velocity":0.7086614173228346,"hand":"R"},{"time":1250,"durationMs":417,"midi":67,"velocity":0.7086614173228346,"hand":"R"},{"time":1250,"durationMs":417,"midi":79,"velocity":0.7086614173228346,"hand":"R"},{"time":1667,"durationMs":208,"midi":62,"velocity":0.7086614173228346,"hand":"L"},{"time":1667,"durationMs":208,"midi":74,"velocity":0.7086614173228346,"hand":"R"},{"time":1875,"durationMs":208,"midi":64,"velocity":0.7086614173228346,"hand":"L"},{"time":1875,"durationMs":208,"midi":76,"velocity":0.7086614173228346,"hand":"R"},{"time":2083,"durationMs":208,"midi":60,"velocity":0.7086614173228346,"hand":"L"},{"time":2083,"durationMs":208,"midi":72,"velocity":0.7086614173228346,"hand":"R"},{"time":2292,"durationMs":417,"midi":57,"velocity":0.7086614173228346,"hand":"L"},{"time":2292,"durationMs":417,"midi":69,"velocity":0.7086614173228346,"hand":"R"},{"time":2708,"durationMs":208,"midi":59,"velocity":0.7086614173228346,"hand":"L"},{"time":2708,"durationMs":208,"midi":71,"velocity":0.7086614173228346,"hand":"R"},{"time":2917,"durationMs":417,"midi":55,"velocity":0.7086614173228346,"hand":"L"},{"time":2917,"durationMs":417,"midi":67,"velocity":0.7086614173228346,"hand":"R"},{"time":3333,"durationMs":208,"midi":50,"velocity":0.7086614173228346,"hand":"L"},{"time":3333,"durationMs":208,"midi":62,"velocity":0.7086614173228346,"hand":"R"},{"time":3542,"durationMs":208,"midi":52,"velocity":0.7086614173228346,"hand":"L"},{"time":3542,"durationMs":208,"midi":64,"velocity":0.7086614173228346,"hand":"R"},{"time":3750,"durationMs":208,"midi":48,"velocity":0.7086614173228346,"hand":"L"},{"time":3750,"durationMs":208,"midi":60,"velocity":0.7086614173228346,"hand":"R"},{"time":3958,"durationMs":417,"midi":45,"velocity":0.7086614173228346,"hand":"L"},{"time":3958,"durationMs":417,"midi":57,"velocity":0.7086614173228346,"hand":"L"},{"time":4375,"durationMs":208,"midi":47,"velocity":0.7086614173228346,"hand":"L"},{"time":4375,"durationMs":208,"midi":59,"velocity":0.7086614173228346,"hand":"L"},{"time":4583,"durationMs":208,"midi":45,"velocity":0.7086614173228346,"hand":"L"},{"time":4583,"durationMs":208,"midi":57,"velocity":0.7086614173228346,"hand":"L"},{"time":4792,"durationMs":208,"midi":44,"velocity":0.7086614173228346,"hand":"L"},{"time":4792,"durationMs":208,"midi":56,"velocity":0.7086614173228346,"hand":"L"},{"time":5000,"durationMs":417,"midi":43,"velocity":0.7086614173228346,"hand":"L"},{"time":5000,"durationMs":417,"midi":55,"velocity":0.7086614173228346,"hand":"L"},{"time":5833,"durationMs":417,"midi":31,"velocity":0.7086614173228346,"hand":"L"},{"time":5833,"durationMs":417,"midi":43,"velocity":0.7086614173228346,"hand":"L"},{"time":5833,"durationMs":417,"midi":67,"velocity":0.7086614173228346,"hand":"R"},{"time":5833,"durationMs":417,"midi":71,"velocity":0.7086614173228346,"hand":"R"},{"time":5833,"durationMs":417,"midi":74,"velocity":0.7086614173228346,"hand":"R"},{"time":5833,"durationMs":417,"midi":79,"velocity":0.7086614173228346,"hand":"R"},{"time":6250,"durationMs":417,"midi":55,"velocity":0.7086614173228346,"hand":"L"},{"time":6250,"durationMs":417,"midi":59,"velocity":0.7086614173228346,"hand":"L"},{"time":6250,"durationMs":208,"midi":62,"velocity":0.7086614173228346,"hand":"R"},{"time":6458,"durationMs":208,"midi":63,"velocity":0.7086614173228346,"hand":"R"},{"time":6667,"durationMs":417,"midi":48,"velocity":0.7086614173228346,"hand":"L"},{"time":6667,"durationMs":208,"midi":64,"velocity":0.7086614173228346,"hand":"R"},{"time":6875,"durationMs":417,"midi":72,"velocity":0.7086614173228346,"hand":"R"},{"time":7083,"durationMs":417,"midi":52,"velocity":0.7086614173228346,"hand":"L"},{"time":7083,"durationMs":417,"midi":55,"velocity":0.7086614173228346,"hand":"L"},{"time":7083,"durationMs":417,"midi":60,"velocity":0.7086614173228346,"hand":"L"},{"time":7292,"durationMs":208,"midi":64,"velocity":0.7086614173228346,"hand":"R"},{"time":7500,"durationMs":417,"midi":43,"velocity":0.7086614173228346,"hand":"L"},{"time":7500,"durationMs":417,"midi":55,"velocity":0.7086614173228346,"hand":"L"},{"time":7500,"durationMs":417,"midi":72,"velocity":0.7086614173228346,"hand":"R"},{"time":7917,"durationMs":417,"midi":55,"velocity":0.7086614173228346,"hand":"L"},{"time":7917,"durationMs":417,"midi":58,"velocity":0.7086614173228346,"hand":"L"},{"time":7917,"durationMs":417,"midi":60,"velocity":0.7086614173228346,"hand":"L"},{"time":7917,"durationMs":208,"midi":64,"velocity":0.7086614173228346,"hand":"R"},{"time":8125,"durationMs":1250,"midi":72,"velocity":0.7086614173228346,"hand":"R"},{"time":8333,"durationMs":417,"midi":41,"velocity":0.7086614173228346,"hand":"L"},{"time":8333,"durationMs":417,"midi":53,"velocity":0.7086614173228346,"hand":"L"},{"time":8750,"durationMs":417,"midi":57,"velocity":0.7086614173228346,"hand":"L"},{"time":8750,"durationMs":417,"midi":60,"velocity":0.7086614173228346,"hand":"L"},{"time":9167,"durationMs":417,"midi":40,"velocity":0.7086614173228346,"hand":"L"},{"time":9167,"durationMs":417,"midi":52,"velocity":0.7086614173228346,"hand":"L"},{"time":9375,"durationMs":208,"midi":72,"velocity":0.7086614173228346,"hand":"R"},{"time":9375,"durationMs":208,"midi":76,"velocity":0.7086614173228346,"hand":"R"},{"time":9375,"durationMs":208,"midi":84,"velocity":0.7086614173228346,"hand":"R"},{"time":9583,"durationMs":417,"midi":55,"velocity":0.7086614173228346,"hand":"L"},{"time":9583,"durationMs":417,"midi":60,"velocity":0.7086614173228346,"hand":"L"},{"time":9583,"durationMs":208,"midi":74,"velocity":0.7086614173228346,"hand":"R"},{"time":9583,"durationMs":208,"midi":77,"velocity":0.7086614173228346,"hand":"R"},{"time":9583,"durationMs":208,"midi":86,"velocity":0.7086614173228346,"hand":"R"},{"time":9792,"durationMs":208,"midi":75,"velocity":0.7086614173228346,"hand":"R"},{"time":9792,"durationMs":208,"midi":78,"velocity":0.7086614173228346,"hand":"R"},{"time":9792,"durationMs":208,"midi":87,"velocity":0.7086614173228346,"hand":"R"},{"time":10000,"durationMs":417,"midi":43,"velocity":0.7086614173228346,"hand":"L"},{"time":10000,"durationMs":208,"midi":76,"velocity":0.7086614173228346,"hand":"R"},{"time":10000,"durationMs":208,"midi":79,"velocity":0.7086614173228346,"hand":"R"},{"time":10000,"durationMs":208,"midi":88,"velocity":0.7086614173228346,"hand":"R"},{"time":10208,"durationMs":208,"midi":72,"velocity":0.7086614173228346,"hand":"R"},{"time":10208,"durationMs":208,"midi":76,"velocity":0.7086614173228346,"hand":"R"},{"time":10208,"durationMs":208,"midi":84,"velocity":0.7086614173228346,"hand":"R"},{"time":10417,"durationMs":417,"midi":52,"velocity":0.7086614173228346,"hand":"L"},{"time":10417,"durationMs":417,"midi":55,"velocity":0.7086614173228346,"hand":"L"},{"time":10417,"durationMs":417,"midi":60,"velocity":0.7086614173228346,"hand":"L"},{"time":10417,"durationMs":208,"midi":74,"velocity":0.7086614173228346,"hand":"R"},{"time":10417,"durationMs":208,"midi":77,"velocity":0.7086614173228346,"hand":"R"},{"time":10417,"durationMs":208,"midi":86,"velocity":0.7086614173228346,"hand":"R"},{"time":10625,"durationMs":417,"midi":76,"velocity":0.7086614173228346,"hand":"R"},{"time":10625,"durationMs":417,"midi":79,"velocity":0.7086614173228346,"hand":"R"},{"time":10625,"durationMs":417,"midi":88,"velocity":0.7086614173228346,"hand":"R"},{"time":10833,"durationMs":417,"midi":43,"velocity":0.7086614173228346,"hand":"L"},{"time":11042,"durationMs":208,"midi":71,"velocity":0.7086614173228346,"hand":"R"},{"time":11042,"durationMs":208,"midi":74,"velocity":0.7086614173228346,"hand":"R"},{"time":11042,"durationMs":208,"midi":83,"velocity":0.7086614173228346,"hand":"R"},{"time":11250,"durationMs":417,"midi":53,"velocity":0.7086614173228346,"hand":"L"},{"time":11250,"durationMs":417,"midi":55,"velocity":0.7086614173228346,"hand":"L"},{"time":11250,"durationMs":417,"midi":59,"velocity":0.7086614173228346,"hand":"L"},{"time":11250,"durationMs":417,"midi":74,"velocity":0.7086614173228346,"hand":"R"},{"time":11250,"durationMs":417,"midi":77,"velocity":0.7086614173228346,"hand":"R"},{"time":11250,"durationMs":417,"midi":86,"velocity":0.7086614173228346,"hand":"R"},{"time":11667,"durationMs":417,"midi":48,"velocity":0.7086614173228346,"hand":"L"},{"time":11667,"durationMs":1250,"midi":72,"velocity":0.7086614173228346,"hand":"R"},{"time":11667,"durationMs":1250,"midi":76,"velocity":0.7086614173228346,"hand":"R"},{"time":11667,"durationMs":1250,"midi":84,"velocity":0.7086614173228346,"hand":"R"},{"time":12083,"durationMs":417,"midi":52,"velocity":0.7086614173228346,"hand":"L"},{"time":12083,"durationMs":417,"midi":55,"velocity":0.7086614173228346,"hand":"L"},{"time":12083,"durationMs":417,"midi":60,"velocity":0.7086614173228346,"hand":"L"},{"time":12500,"durationMs":417,"midi":52,"velocity":0.7086614173228346,"hand":"L"},{"time":12500,"durationMs":417,"midi":55,"velocity":0.7086614173228346,"hand":"L"},{"time":12500,"durationMs":417,"midi":60,"velocity":0.7086614173228346,"hand":"L"},{"time":12917,"durationMs":417,"midi":55,"velocity":0.7086614173228346,"hand":"L"},{"time":12917,"durationMs":417,"midi":59,"velocity":0.7086614173228346,"hand":"L"},{"time":12917,"durationMs":208,"midi":62,"velocity":0.7086614173228346,"hand":"R"},{"time":13125,"durationMs":208,"midi":63,"velocity":0.7086614173228346,"hand":"R"},{"time":13333,"durationMs":417,"midi":48,"velocity":0.7086614173228346,"hand":"L"},{"time":13333,"durationMs":208,"midi":64,"velocity":0.7086614173228346,"hand":"R"},{"time":13542,"durationMs":417,"midi":72,"velocity":0.7086614173228346,"hand":"R"},{"time":13750,"durationMs":417,"midi":52,"velocity":0.7086614173228346,"hand":"L"},{"time":13750,"durationMs":417,"midi":55,"velocity":0.7086614173228346,"hand":"L"},{"time":13750,"durationMs":417,"midi":60,"velocity":0.7086614173228346,"hand":"L"},{"time":13958,"durationMs":208,"midi":64,"velocity":0.7086614173228346,"hand":"R"},{"time":14167,"durationMs":417,"midi":43,"velocity":0.7086614173228346,"hand":"L"},{"time":14167,"durationMs":417,"midi":55,"velocity":0.7086614173228346,"hand":"L"},{"time":14167,"durationMs":417,"midi":72,"velocity":0.7086614173228346,"hand":"R"},{"time":14583,"durationMs":417,"midi":55,"velocity":0.7086614173228346,"hand":"L"},{"time":14583,"durationMs":417,"midi":58,"velocity":0.7086614173228346,"hand":"L"},{"time":14583,"durationMs":417,"midi":60,"velocity":0.7086614173228346,"hand":"L"},{"time":14583,"durationMs":208,"midi":64,"velocity":0.7086614173228346,"hand":"R"},{"time":14792,"durationMs":1458,"midi":72,"velocity":0.7086614173228346,"hand":"R"},{"time":15000,"durationMs":417,"midi":41,"velocity":0.7086614173228346,"hand":"L"},{"time":15000,"durationMs":417,"midi":53,"velocity":0.7086614173228346,"hand":"L"},{"time":15417,"durationMs":417,"midi":57,"velocity":0.7086614173228346,"hand":"L"},{"time":15417,"durationMs":417,"midi":60,"velocity":0.7086614173228346,"hand":"L"},{"time":15833,"durationMs":417,"midi":40,"velocity":0.7086614173228346,"hand":"L"},{"time":15833,"durationMs":417,"midi":52,"velocity":0.7086614173228346,"hand":"L"},{"time":16250,"durationMs":417,"midi":39,"velocity":0.7086614173228346,"hand":"L"},{"time":16250,"durationMs":417,"midi":51,"velocity":0.7086614173228346,"hand":"L"},{"time":16250,"durationMs":208,"midi":69,"velocity":0.7086614173228346,"hand":"R"},{"time":16250,"durationMs":208,"midi":72,"velocity":0.7086614173228346,"hand":"R"},{"time":16250,"durationMs":208,"midi":81,"velocity":0.7086614173228346,"hand":"R"},{"time":16458,"durationMs":208,"midi":67,"velocity":0.7086614173228346,"hand":"R"},{"time":16458,"durationMs":208,"midi":72,"velocity":0.7086614173228346,"hand":"R"},{"time":16458,"durationMs":208,"midi":79,"velocity":0.7086614173228346,"hand":"R"},{"time":16667,"durationMs":417,"midi":38,"velocity":0.7086614173228346,"hand":"L"},{"time":16667,"durationMs":417,"midi":50,"velocity":0.7086614173228346,"hand":"L"},{"time":16667,"durationMs":208,"midi":66,"velocity":0.7086614173228346,"hand":"R"},{"time":16667,"durationMs":208,"midi":72,"velocity":0.7086614173228346,"hand":"R"},{"time":16667,"durationMs":208,"midi":78,"velocity":0.7086614173228346,"hand":"R"},{"time":16875,"durationMs":208,"midi":69,"velocity":0.7086614173228346,"hand":"R"},{"time":16875,"durationMs":208,"midi":81,"velocity":0.7086614173228346,"hand":"R"},{"time":17083,"durationMs":417,"midi":50,"velocity":0.7086614173228346,"hand":"L"},{"time":17083,"durationMs":417,"midi":54,"velocity":0.7086614173228346,"hand":"L"},{"time":17083,"durationMs":417,"midi":57,"velocity":0.7086614173228346,"hand":"L"},{"time":17083,"durationMs":417,"midi":60,"velocity":0.7086614173228346,"hand":"L"},{"time":17083,"durationMs":208,"midi":72,"velocity":0.7086614173228346,"hand":"R"},{"time":17083,"durationMs":208,"midi":84,"velocity":0.7086614173228346,"hand":"R"},{"time":17292,"durationMs":417,"midi":76,"velocity":0.7086614173228346,"hand":"R"},{"time":17292,"durationMs":417,"midi":88,"velocity":0.7086614173228346,"hand":"R"},{"time":17500,"durationMs":417,"midi":50,"velocity":0.7086614173228346,"hand":"L"},{"time":17708,"durationMs":208,"midi":74,"velocity":0.7086614173228346,"hand":"R"},{"time":17708,"durationMs":208,"midi":86,"velocity":0.7086614173228346,"hand":"R"},{"time":17917,"durationMs":417,"midi":54,"velocity":0.7086614173228346,"hand":"L"},{"time":17917,"durationMs":417,"midi":57,"velocity":0.7086614173228346,"hand":"L"},{"time":17917,"durationMs":417,"midi":60,"velocity":0.7086614173228346,"hand":"L"},{"time":17917,"durationMs":208,"midi":72,"velocity":0.7086614173228346,"hand":"R"},{"time":17917,"durationMs":208,"midi":84,"velocity":0.7086614173228346,"hand":"R"},{"time":18125,"durationMs":208,"midi":69,"velocity":0.7086614173228346,"hand":"R"},{"time":18125,"durationMs":208,"midi":81,"velocity":0.7086614173228346,"hand":"R"},{"time":18333,"durationMs":417,"midi":55,"velocity":0.7086614173228346,"hand":"L"},{"time":18333,"durationMs":417,"midi":59,"velocity":0.7086614173228346,"hand":"L"},{"time":18333,"durationMs":1250,"midi":74,"velocity":0.7086614173228346,"hand":"R"},{"time":18333,"durationMs":1250,"midi":77,"velocity":0.7086614173228346,"hand":"R"},{"time":18333,"durationMs":1250,"midi":86,"velocity":0.7086614173228346,"hand":"R"},{"time":18750,"durationMs":417,"midi":43,"velocity":0.7086614173228346,"hand":"L"},{"time":18750,"durationMs":417,"midi":55,"velocity":0.7086614173228346,"hand":"L"},{"time":19167,"durationMs":417,"midi":45,"velocity":0.7086614173228346,"hand":"L"},{"time":19167,"durationMs":417,"midi":57,"velocity":0.7086614173228346,"hand":"L"},{"time":19583,"durationMs":417,"midi":47,"velocity":0.7086614173228346,"hand":"L"},{"time":19583,"durationMs":417,"midi":59,"velocity":0.7086614173228346,"hand":"L"},{"time":19583,"durationMs":208,"midi":62,"velocity":0.7086614173228346,"hand":"R"},{"time":19792,"durationMs":208,"midi":63,"velocity":0.7086614173228346,"hand":"R"},{"time":20000,"durationMs":417,"midi":48,"velocity":0.7086614173228346,"hand":"L"},{"time":20000,"durationMs":208,"midi":64,"velocity":0.7086614173228346,"hand":"R"},{"time":20208,"durationMs":417,"midi":72,"velocity":0.7086614173228346,"hand":"R"},{"time":20417,"durationMs":417,"midi":52,"velocity":0.7086614173228346,"hand":"L"},{"time":20417,"durationMs":417,"midi":55,"velocity":0.7086614173228346,"hand":"L"},{"time":20417,"durationMs":417,"midi":60,"velocity":0.7086614173228346,"hand":"L"},{"time":20625,"durationMs":208,"midi":64,"velocity":0.7086614173228346,"hand":"R"},{"time":20833,"durationMs":417,"midi":43,"velocity":0.7086614173228346,"hand":"L"},{"time":20833,"durationMs":417,"midi":55,"velocity":0.7086614173228346,"hand":"L"},{"time":20833,"durationMs":417,"midi":72,"velocity":0.7086614173228346,"hand":"R"},{"time":21250,"durationMs":417,"midi":55,"velocity":0.7086614173228346,"hand":"L"},{"time":21250,"durationMs":417,"midi":58,"velocity":0.7086614173228346,"hand":"L"},{"time":21250,"durationMs":417,"midi":60,"velocity":0.7086614173228346,"hand":"L"},{"time":21250,"durationMs":208,"midi":64,"velocity":0.7086614173228346,"hand":"R"},{"time":21458,"durationMs":1250,"midi":72,"velocity":0.7086614173228346,"hand":"R"},{"time":21667,"durationMs":417,"midi":41,"velocity":0.7086614173228346,"hand":"L"},{"time":21667,"durationMs":417,"midi":53,"velocity":0.7086614173228346,"hand":"L"},{"time":22083,"durationMs":417,"midi":57,"velocity":0.7086614173228346,"hand":"L"},{"time":22083,"durationMs":417,"midi":60,"velocity":0.7086614173228346,"hand":"L"},{"time":22500,"durationMs":417,"midi":40,"velocity":0.7086614173228346,"hand":"L"},{"time":22500,"durationMs":417,"midi":52,"velocity":0.7086614173228346,"hand":"L"},{"time":22708,"durationMs":208,"midi":72,"velocity":0.7086614173228346,"hand":"R"},{"time":22708,"durationMs":208,"midi":76,"velocity":0.7086614173228346,"hand":"R"},{"time":22708,"durationMs":208,"midi":84,"velocity":0.7086614173228346,"hand":"R"},{"time":22917,"durationMs":417,"midi":55,"velocity":0.7086614173228346,"hand":"L"},{"time":22917,"durationMs":417,"midi":60,"velocity":0.7086614173228346,"hand":"L"},{"time":22917,"durationMs":208,"midi":74,"velocity":0.7086614173228346,"hand":"R"},{"time":22917,"durationMs":208,"midi":77,"velocity":0.7086614173228346,"hand":"R"},{"time":22917,"durationMs":208,"midi":86,"velocity":0.7086614173228346,"hand":"R"},{"time":23125,"durationMs":208,"midi":75,"velocity":0.7086614173228346,"hand":"R"},{"time":23125,"durationMs":208,"midi":78,"velocity":0.7086614173228346,"hand":"R"},{"time":23125,"durationMs":208,"midi":87,"velocity":0.7086614173228346,"hand":"R"},{"time":23333,"durationMs":417,"midi":43,"velocity":0.7086614173228346,"hand":"L"},{"time":23333,"durationMs":208,"midi":76,"velocity":0.7086614173228346,"hand":"R"},{"time":23333,"durationMs":208,"midi":79,"velocity":0.7086614173228346,"hand":"R"},{"time":23333,"durationMs":208,"midi":88,"velocity":0.7086614173228346,"hand":"R"},{"time":23542,"durationMs":208,"midi":72,"velocity":0.7086614173228346,"hand":"R"},{"time":23542,"durationMs":208,"midi":76,"velocity":0.7086614173228346,"hand":"R"},{"time":23542,"durationMs":208,"midi":84,"velocity":0.7086614173228346,"hand":"R"},{"time":23750,"durationMs":417,"midi":52,"velocity":0.7086614173228346,"hand":"L"},{"time":23750,"durationMs":417,"midi":55,"velocity":0.7086614173228346,"hand":"L"},{"time":23750,"durationMs":417,"midi":60,"velocity":0.7086614173228346,"hand":"L"},{"time":23750,"durationMs":208,"midi":74,"velocity":0.7086614173228346,"hand":"R"},{"time":23750,"durationMs":208,"midi":77,"velocity":0.7086614173228346,"hand":"R"},{"time":23750,"durationMs":208,"midi":86,"velocity":0.7086614173228346,"hand":"R"},{"time":23958,"durationMs":417,"midi":76,"velocity":0.7086614173228346,"hand":"R"},{"time":23958,"durationMs":417,"midi":79,"velocity":0.7086614173228346,"hand":"R"},{"time":23958,"durationMs":417,"midi":88,"velocity":0.7086614173228346,"hand":"R"},{"time":24167,"durationMs":417,"midi":43,"velocity":0.7086614173228346,"hand":"L"},{"time":24375,"durationMs":208,"midi":71,"velocity":0.7086614173228346,"hand":"R"},{"time":24375,"durationMs":208,"midi":74,"velocity":0.7086614173228346,"hand":"R"},{"time":24375,"durationMs":208,"midi":83,"velocity":0.7086614173228346,"hand":"R"},{"time":24583,"durationMs":417,"midi":53,"velocity":0.7086614173228346,"hand":"L"},{"time":24583,"durationMs":417,"midi":55,"velocity":0.7086614173228346,"hand":"L"},{"time":24583,"durationMs":417,"midi":59,"velocity":0.7086614173228346,"hand":"L"},{"time":24583,"durationMs":417,"midi":74,"velocity":0.7086614173228346,"hand":"R"},{"time":24583,"durationMs":417,"midi":77,"velocity":0.7086614173228346,"hand":"R"},{"time":24583,"durationMs":417,"midi":86,"velocity":0.7086614173228346,"hand":"R"},{"time":25000,"durationMs":417,"midi":48,"velocity":0.7086614173228346,"hand":"L"},{"time":25000,"durationMs":1250,"midi":72,"velocity":0.7086614173228346,"hand":"R"},{"time":25000,"durationMs":1250,"midi":76,"velocity":0.7086614173228346,"hand":"R"},{"time":25000,"durationMs":1250,"midi":84,"velocity":0.7086614173228346,"hand":"R"},{"time":25417,"durationMs":417,"midi":52,"velocity":0.7086614173228346,"hand":"L"},{"time":25417,"durationMs":417,"midi":55,"velocity":0.7086614173228346,"hand":"L"},{"time":25417,"durationMs":417,"midi":60,"velocity":0.7086614173228346,"hand":"L"},{"time":25833,"durationMs":417,"midi":55,"velocity":0.7086614173228346,"hand":"L"},{"time":25833,"durationMs":417,"midi":60,"velocity":0.7086614173228346,"hand":"L"},{"time":25833,"durationMs":417,"midi":64,"velocity":0.7086614173228346,"hand":"L"},{"time":26250,"durationMs":208,"midi":72,"velocity":0.7086614173228346,"hand":"R"},{"time":26250,"durationMs":208,"midi":84,"velocity":0.7086614173228346,"hand":"R"},{"time":26458,"durationMs":208,"midi":74,"velocity":0.7086614173228346,"hand":"R"},{"time":26458,"durationMs":208,"midi":86,"velocity":0.7086614173228346,"hand":"R"},{"time":26667,"durationMs":417,"midi":48,"velocity":0.7086614173228346,"hand":"L"},{"time":26667,"durationMs":417,"midi":60,"velocity":0.7086614173228346,"hand":"L"},{"time":26667,"durationMs":208,"midi":76,"velocity":0.7086614173228346,"hand":"R"},{"time":26667,"durationMs":208,"midi":88,"velocity":0.7086614173228346,"hand":"R"},{"time":26875,"durationMs":208,"midi":72,"velocity":0.7086614173228346,"hand":"R"},{"time":26875,"durationMs":208,"midi":84,"velocity":0.7086614173228346,"hand":"R"},{"time":27083,"durationMs":417,"midi":55,"velocity":0.7086614173228346,"hand":"L"},{"time":27083,"durationMs":417,"midi":60,"velocity":0.7086614173228346,"hand":"L"},{"time":27083,"durationMs":417,"midi":64,"velocity":0.7086614173228346,"hand":"L"},{"time":27083,"durationMs":208,"midi":74,"velocity":0.7086614173228346,"hand":"R"},{"time":27083,"durationMs":208,"midi":86,"velocity":0.7086614173228346,"hand":"R"},{"time":27292,"durationMs":417,"midi":76,"velocity":0.7086614173228346,"hand":"R"},{"time":27292,"durationMs":417,"midi":88,"velocity":0.7086614173228346,"hand":"R"},{"time":27500,"durationMs":417,"midi":46,"velocity":0.7086614173228346,"hand":"L"},{"time":27500,"durationMs":417,"midi":58,"velocity":0.7086614173228346,"hand":"L"},{"time":27708,"durationMs":208,"midi":72,"velocity":0.7086614173228346,"hand":"R"},{"time":27708,"durationMs":208,"midi":84,"velocity":0.7086614173228346,"hand":"R"},{"time":27917,"durationMs":417,"midi":55,"velocity":0.7086614173228346,"hand":"L"},{"time":27917,"durationMs":417,"midi":60,"velocity":0.7086614173228346,"hand":"L"},{"time":27917,"durationMs":417,"midi":64,"velocity":0.7086614173228346,"hand":"L"},{"time":27917,"durationMs":208,"midi":74,"velocity":0.7086614173228346,"hand":"R"},{"time":27917,"durationMs":208,"midi":86,"velocity":0.7086614173228346,"hand":"R"},{"time":28125,"durationMs":208,"midi":72,"velocity":0.7086614173228346,"hand":"R"},{"time":28125,"durationMs":208,"midi":84,"velocity":0.7086614173228346,"hand":"R"},{"time":28333,"durationMs":417,"midi":45,"velocity":0.7086614173228346,"hand":"L"},{"time":28333,"durationMs":417,"midi":57,"velocity":0.7086614173228346,"hand":"L"},{"time":28333,"durationMs":208,"midi":76,"velocity":0.7086614173228346,"hand":"R"},{"time":28333,"durationMs":208,"midi":88,"velocity":0.7086614173228346,"hand":"R"},{"time":28542,"durationMs":208,"midi":72,"velocity":0.7086614173228346,"hand":"R"},{"time":28542,"durationMs":208,"midi":84,"velocity":0.7086614173228346,"hand":"R"},{"time":28750,"durationMs":417,"midi":57,"velocity":0.7086614173228346,"hand":"L"},{"time":28750,"durationMs":417,"midi":60,"velocity":0.7086614173228346,"hand":"L"},{"time":28750,"durationMs":417,"midi":65,"velocity":0.7086614173228346,"hand":"L"},{"time":28750,"durationMs":208,"midi":74,"velocity":0.7086614173228346,"hand":"R"},{"time":28750,"durationMs":208,"midi":86,"velocity":0.7086614173228346,"hand":"R"},{"time":28958,"durationMs":417,"midi":76,"velocity":0.7086614173228346,"hand":"R"},{"time":28958,"durationMs":417,"midi":88,"velocity":0.7086614173228346,"hand":"R"},{"time":29167,"durationMs":417,"midi":44,"velocity":0.7086614173228346,"hand":"L"},{"time":29167,"durationMs":417,"midi":56,"velocity":0.7086614173228346,"hand":"L"},{"time":29375,"durationMs":208,"midi":72,"velocity":0.7086614173228346,"hand":"R"},{"time":29375,"durationMs":208,"midi":84,"velocity":0.7086614173228346,"hand":"R"},{"time":29583,"durationMs":417,"midi":56,"velocity":0.7086614173228346,"hand":"L"},{"time":29583,"durationMs":417,"midi":60,"velocity":0.7086614173228346,"hand":"L"},{"time":29583,"durationMs":417,"midi":65,"velocity":0.7086614173228346,"hand":"L"},{"time":29583,"durationMs":208,"midi":74,"velocity":0.7086614173228346,"hand":"R"},{"time":29583,"durationMs":208,"midi":86,"velocity":0.7086614173228346,"hand":"R"},{"time":29792,"durationMs":208,"midi":72,"velocity":0.7086614173228346,"hand":"R"},{"time":29792,"durationMs":208,"midi":84,"velocity":0.7086614173228346,"hand":"R"},{"time":30000,"durationMs":417,"midi":43,"velocity":0.7086614173228346,"hand":"L"},{"time":30000,"durationMs":417,"midi":55,"velocity":0.7086614173228346,"hand":"L"},{"time":30000,"durationMs":208,"midi":76,"velocity":0.7086614173228346,"hand":"R"},{"time":30000,"durationMs":208,"midi":79,"velocity":0.7086614173228346,"hand":"R"},{"time":30000,"durationMs":208,"midi":88,"velocity":0.7086614173228346,"hand":"R"},{"time":30208,"durationMs":208,"midi":72,"velocity":0.7086614173228346,"hand":"R"},{"time":30208,"durationMs":208,"midi":76,"velocity":0.7086614173228346,"hand":"R"},{"time":30208,"durationMs":208,"midi":84,"velocity":0.7086614173228346,"hand":"R"},{"time":30417,"durationMs":417,"midi":55,"velocity":0.7086614173228346,"hand":"L"},{"time":30417,"durationMs":417,"midi":60,"velocity":0.7086614173228346,"hand":"L"},{"time":30417,"durationMs":417,"midi":64,"velocity":0.7086614173228346,"hand":"L"},{"time":30417,"durationMs":208,"midi":74,"velocity":0.7086614173228346,"hand":"R"},{"time":30417,"durationMs":208,"midi":77,"velocity":0.7086614173228346,"hand":"R"},{"time":30417,"durationMs":208,"midi":86,"velocity":0.7086614173228346,"hand":"R"},{"time":30625,"durationMs":417,"midi":76,"velocity":0.7086614173228346,"hand":"R"},{"time":30625,"durationMs":417,"midi":79,"velocity":0.7086614173228346,"hand":"R"},{"time":30625,"durationMs":417,"midi":88,"velocity":0.7086614173228346,"hand":"R"},{"time":30833,"durationMs":417,"midi":43,"velocity":0.7086614173228346,"hand":"L"},{"time":31042,"durationMs":208,"midi":71,"velocity":0.7086614173228346,"hand":"R"},{"time":31042,"durationMs":208,"midi":74,"velocity":0.7086614173228346,"hand":"R"},{"time":31042,"durationMs":208,"midi":83,"velocity":0.7086614173228346,"hand":"R"},{"time":31250,"durationMs":417,"midi":55,"velocity":0.7086614173228346,"hand":"L"},{"time":31250,"durationMs":417,"midi":59,"velocity":0.7086614173228346,"hand":"L"},{"time":31250,"durationMs":417,"midi":74,"velocity":0.7086614173228346,"hand":"R"},{"time":31250,"durationMs":417,"midi":77,"velocity":0.7086614173228346,"hand":"R"},{"time":31250,"durationMs":417,"midi":86,"velocity":0.7086614173228346,"hand":"R"},{"time":31667,"durationMs":417,"midi":48,"velocity":0.7086614173228346,"hand":"L"},{"time":31667,"durationMs":417,"midi":55,"velocity":0.7086614173228346,"hand":"L"},{"time":31667,"durationMs":417,"midi":60,"velocity":0.7086614173228346,"hand":"L"},{"time":31667,"durationMs":1250,"midi":72,"velocity":0.7086614173228346,"hand":"R"},{"time":31667,"durationMs":1250,"midi":76,"velocity":0.7086614173228346,"hand":"R"},{"time":31667,"durationMs":1250,"midi":84,"velocity":0.7086614173228346,"hand":"R"},{"time":32083,"durationMs":417,"midi":43,"velocity":0.7086614173228346,"hand":"L"},{"time":32083,"durationMs":417,"midi":55,"velocity":0.7086614173228346,"hand":"L"},{"time":32500,"durationMs":417,"midi":45,"velocity":0.7086614173228346,"hand":"L"},{"time":32500,"durationMs":417,"midi":57,"velocity":0.7086614173228346,"hand":"L"},{"time":32917,"durationMs":417,"midi":47,"velocity":0.7086614173228346,"hand":"L"},{"time":32917,"durationMs":417,"midi":59,"velocity":0.7086614173228346,"hand":"L"},{"time":32917,"durationMs":208,"midi":62,"velocity":0.7086614173228346,"hand":"R"},{"time":33125,"durationMs":208,"midi":63,"velocity":0.7086614173228346,"hand":"R"},{"time":33333,"durationMs":417,"midi":48,"velocity":0.7086614173228346,"hand":"L"},{"time":33333,"durationMs":208,"midi":64,"velocity":0.7086614173228346,"hand":"R"},{"time":33542,"durationMs":417,"midi":72,"velocity":0.7086614173228346,"hand":"R"},{"time":33750,"durationMs":417,"midi":52,"velocity":0.7086614173228346,"hand":"L"},{"time":33750,"durationMs":417,"midi":55,"velocity":0.7086614173228346,"hand":"L"},{"time":33750,"durationMs":417,"midi":60,"velocity":0.7086614173228346,"hand":"L"},{"time":33958,"durationMs":208,"midi":64,"velocity":0.7086614173228346,"hand":"R"},{"time":34167,"durationMs":417,"midi":43,"velocity":0.7086614173228346,"hand":"L"},{"time":34167,"durationMs":417,"midi":55,"velocity":0.7086614173228346,"hand":"L"},{"time":34167,"durationMs":417,"midi":72,"velocity":0.7086614173228346,"hand":"R"},{"time":34583,"durationMs":417,"midi":55,"velocity":0.7086614173228346,"hand":"L"},{"time":34583,"durationMs":417,"midi":58,"velocity":0.7086614173228346,"hand":"L"},{"time":34583,"durationMs":417,"midi":60,"velocity":0.7086614173228346,"hand":"L"},{"time":34583,"durationMs":208,"midi":64,"velocity":0.7086614173228346,"hand":"R"},{"time":34792,"durationMs":1250,"midi":72,"velocity":0.7086614173228346,"hand":"R"},{"time":35000,"durationMs":417,"midi":41,"velocity":0.7086614173228346,"hand":"L"},{"time":35000,"durationMs":417,"midi":53,"velocity":0.7086614173228346,"hand":"L"},{"time":35417,"durationMs":417,"midi":57,"velocity":0.7086614173228346,"hand":"L"},{"time":35417,"durationMs":417,"midi":60,"velocity":0.7086614173228346,"hand":"L"},{"time":35833,"durationMs":417,"midi":40,"velocity":0.7086614173228346,"hand":"L"},{"time":35833,"durationMs":417,"midi":52,"velocity":0.7086614173228346,"hand":"L"},{"time":36042,"durationMs":208,"midi":72,"velocity":0.7086614173228346,"hand":"R"},{"time":36042,"durationMs":208,"midi":76,"velocity":0.7086614173228346,"hand":"R"},{"time":36042,"durationMs":208,"midi":84,"velocity":0.7086614173228346,"hand":"R"},{"time":36250,"durationMs":417,"midi":55,"velocity":0.7086614173228346,"hand":"L"},{"time":36250,"durationMs":417,"midi":60,"velocity":0.7086614173228346,"hand":"L"},{"time":36250,"durationMs":208,"midi":74,"velocity":0.7086614173228346,"hand":"R"},{"time":36250,"durationMs":208,"midi":77,"velocity":0.7086614173228346,"hand":"R"},{"time":36250,"durationMs":208,"midi":86,"velocity":0.7086614173228346,"hand":"R"},{"time":36458,"durationMs":208,"midi":75,"velocity":0.7086614173228346,"hand":"R"},{"time":36458,"durationMs":208,"midi":78,"velocity":0.7086614173228346,"hand":"R"},{"time":36458,"durationMs":208,"midi":87,"velocity":0.7086614173228346,"hand":"R"},{"time":36667,"durationMs":417,"midi":43,"velocity":0.7086614173228346,"hand":"L"},{"time":36667,"durationMs":208,"midi":76,"velocity":0.7086614173228346,"hand":"R"},{"time":36667,"durationMs":208,"midi":79,"velocity":0.7086614173228346,"hand":"R"},{"time":36667,"durationMs":208,"midi":88,"velocity":0.7086614173228346,"hand":"R"},{"time":36875,"durationMs":208,"midi":72,"velocity":0.7086614173228346,"hand":"R"},{"time":36875,"durationMs":208,"midi":76,"velocity":0.7086614173228346,"hand":"R"},{"time":36875,"durationMs":208,"midi":84,"velocity":0.7086614173228346,"hand":"R"},{"time":37083,"durationMs":417,"midi":52,"velocity":0.7086614173228346,"hand":"L"},{"time":37083,"durationMs":417,"midi":55,"velocity":0.7086614173228346,"hand":"L"},{"time":37083,"durationMs":417,"midi":60,"velocity":0.7086614173228346,"hand":"L"},{"time":37083,"durationMs":208,"midi":74,"velocity":0.7086614173228346,"hand":"R"},{"time":37083,"durationMs":208,"midi":77,"velocity":0.7086614173228346,"hand":"R"},{"time":37083,"durationMs":208,"midi":86,"velocity":0.7086614173228346,"hand":"R"},{"time":37292,"durationMs":417,"midi":76,"velocity":0.7086614173228346,"hand":"R"},{"time":37292,"durationMs":417,"midi":79,"velocity":0.7086614173228346,"hand":"R"},{"time":37292,"durationMs":417,"midi":88,"velocity":0.7086614173228346,"hand":"R"},{"time":37500,"durationMs":417,"midi":43,"velocity":0.7086614173228346,"hand":"L"},{"time":37708,"durationMs":208,"midi":71,"velocity":0.7086614173228346,"hand":"R"},{"time":37708,"durationMs":208,"midi":74,"velocity":0.7086614173228346,"hand":"R"},{"time":37708,"durationMs":208,"midi":83,"velocity":0.7086614173228346,"hand":"R"},{"time":37917,"durationMs":417,"midi":53,"velocity":0.7086614173228346,"hand":"L"},{"time":37917,"durationMs":417,"midi":55,"velocity":0.7086614173228346,"hand":"L"},{"time":37917,"durationMs":417,"midi":59,"velocity":0.7086614173228346,"hand":"L"},{"time":37917,"durationMs":417,"midi":74,"velocity":0.7086614173228346,"hand":"R"},{"time":37917,"durationMs":417,"midi":77,"velocity":0.7086614173228346,"hand":"R"},{"time":37917,"durationMs":417,"midi":86,"velocity":0.7086614173228346,"hand":"R"},{"time":38333,"durationMs":417,"midi":48,"velocity":0.7086614173228346,"hand":"L"},{"time":38333,"durationMs":1250,"midi":72,"velocity":0.7086614173228346,"hand":"R"},{"time":38333,"durationMs":1250,"midi":76,"velocity":0.7086614173228346,"hand":"R"},{"time":38333,"durationMs":1250,"midi":84,"velocity":0.7086614173228346,"hand":"R"},{"time":38750,"durationMs":417,"midi":52,"velocity":0.7086614173228346,"hand":"L"},{"time":38750,"durationMs":417,"midi":55,"velocity":0.7086614173228346,"hand":"L"},{"time":38750,"durationMs":417,"midi":60,"velocity":0.7086614173228346,"hand":"L"},{"time":39167,"durationMs":417,"midi":52,"velocity":0.7086614173228346,"hand":"L"},{"time":39167,"durationMs":417,"midi":55,"velocity":0.7086614173228346,"hand":"L"},{"time":39167,"durationMs":417,"midi":60,"velocity":0.7086614173228346,"hand":"L"},{"time":39583,"durationMs":417,"midi":55,"velocity":0.7086614173228346,"hand":"L"},{"time":39583,"durationMs":417,"midi":59,"velocity":0.7086614173228346,"hand":"L"},{"time":39583,"durationMs":208,"midi":62,"velocity":0.7086614173228346,"hand":"R"},{"time":39792,"durationMs":208,"midi":63,"velocity":0.7086614173228346,"hand":"R"},{"time":40000,"durationMs":417,"midi":48,"velocity":0.7086614173228346,"hand":"L"},{"time":40000,"durationMs":208,"midi":64,"velocity":0.7086614173228346,"hand":"R"},{"time":40208,"durationMs":417,"midi":72,"velocity":0.7086614173228346,"hand":"R"},{"time":40417,"durationMs":417,"midi":52,"velocity":0.7086614173228346,"hand":"L"},{"time":40417,"durationMs":417,"midi":55,"velocity":0.7086614173228346,"hand":"L"},{"time":40417,"durationMs":417,"midi":60,"velocity":0.7086614173228346,"hand":"L"},{"time":40625,"durationMs":208,"midi":64,"velocity":0.7086614173228346,"hand":"R"},{"time":40833,"durationMs":417,"midi":43,"velocity":0.7086614173228346,"hand":"L"},{"time":40833,"durationMs":417,"midi":55,"velocity":0.7086614173228346,"hand":"L"},{"time":40833,"durationMs":417,"midi":72,"velocity":0.7086614173228346,"hand":"R"},{"time":41250,"durationMs":417,"midi":55,"velocity":0.7086614173228346,"hand":"L"},{"time":41250,"durationMs":417,"midi":58,"velocity":0.7086614173228346,"hand":"L"},{"time":41250,"durationMs":417,"midi":60,"velocity":0.7086614173228346,"hand":"L"},{"time":41250,"durationMs":208,"midi":64,"velocity":0.7086614173228346,"hand":"R"},{"time":41458,"durationMs":1458,"midi":72,"velocity":0.7086614173228346,"hand":"R"},{"time":41667,"durationMs":417,"midi":41,"velocity":0.7086614173228346,"hand":"L"},{"time":41667,"durationMs":417,"midi":53,"velocity":0.7086614173228346,"hand":"L"},{"time":42083,"durationMs":417,"midi":57,"velocity":0.7086614173228346,"hand":"L"},{"time":42083,"durationMs":417,"midi":60,"velocity":0.7086614173228346,"hand":"L"},{"time":42500,"durationMs":417,"midi":40,"velocity":0.7086614173228346,"hand":"L"},{"time":42500,"durationMs":417,"midi":52,"velocity":0.7086614173228346,"hand":"L"},{"time":42917,"durationMs":417,"midi":39,"velocity":0.7086614173228346,"hand":"L"},{"time":42917,"durationMs":417,"midi":51,"velocity":0.7086614173228346,"hand":"L"},{"time":42917,"durationMs":208,"midi":69,"velocity":0.7086614173228346,"hand":"R"},{"time":42917,"durationMs":208,"midi":72,"velocity":0.7086614173228346,"hand":"R"},{"time":42917,"durationMs":208,"midi":81,"velocity":0.7086614173228346,"hand":"R"},{"time":43125,"durationMs":208,"midi":67,"velocity":0.7086614173228346,"hand":"R"},{"time":43125,"durationMs":208,"midi":72,"velocity":0.7086614173228346,"hand":"R"},{"time":43125,"durationMs":208,"midi":79,"velocity":0.7086614173228346,"hand":"R"},{"time":43333,"durationMs":417,"midi":38,"velocity":0.7086614173228346,"hand":"L"},{"time":43333,"durationMs":417,"midi":50,"velocity":0.7086614173228346,"hand":"L"},{"time":43333,"durationMs":208,"midi":66,"velocity":0.7086614173228346,"hand":"R"},{"time":43333,"durationMs":208,"midi":72,"velocity":0.7086614173228346,"hand":"R"},{"time":43333,"durationMs":208,"midi":78,"velocity":0.7086614173228346,"hand":"R"},{"time":43542,"durationMs":208,"midi":69,"velocity":0.7086614173228346,"hand":"R"},{"time":43542,"durationMs":208,"midi":81,"velocity":0.7086614173228346,"hand":"R"},{"time":43750,"durationMs":417,"midi":50,"velocity":0.7086614173228346,"hand":"L"},{"time":43750,"durationMs":417,"midi":54,"velocity":0.7086614173228346,"hand":"L"},{"time":43750,"durationMs":417,"midi":57,"velocity":0.7086614173228346,"hand":"L"},{"time":43750,"durationMs":417,"midi":60,"velocity":0.7086614173228346,"hand":"L"},{"time":43750,"durationMs":208,"midi":72,"velocity":0.7086614173228346,"hand":"R"},{"time":43750,"durationMs":208,"midi":84,"velocity":0.7086614173228346,"hand":"R"},{"time":43958,"durationMs":417,"midi":76,"velocity":0.7086614173228346,"hand":"R"},{"time":43958,"durationMs":417,"midi":88,"velocity":0.7086614173228346,"hand":"R"},{"time":44167,"durationMs":417,"midi":50,"velocity":0.7086614173228346,"hand":"L"},{"time":44375,"durationMs":208,"midi":74,"velocity":0.7086614173228346,"hand":"R"},{"time":44375,"durationMs":208,"midi":86,"velocity":0.7086614173228346,"hand":"R"},{"time":44583,"durationMs":417,"midi":54,"velocity":0.7086614173228346,"hand":"L"},{"time":44583,"durationMs":417,"midi":57,"velocity":0.7086614173228346,"hand":"L"},{"time":44583,"durationMs":417,"midi":60,"velocity":0.7086614173228346,"hand":"L"},{"time":44583,"durationMs":208,"midi":72,"velocity":0.7086614173228346,"hand":"R"},{"time":44583,"durationMs":208,"midi":84,"velocity":0.7086614173228346,"hand":"R"},{"time":44792,"durationMs":208,"midi":69,"velocity":0.7086614173228346,"hand":"R"},{"time":44792,"durationMs":208,"midi":81,"velocity":0.7086614173228346,"hand":"R"},{"time":45000,"durationMs":417,"midi":55,"velocity":0.7086614173228346,"hand":"L"},{"time":45000,"durationMs":417,"midi":59,"velocity":0.7086614173228346,"hand":"L"},{"time":45000,"durationMs":1250,"midi":74,"velocity":0.7086614173228346,"hand":"R"},{"time":45000,"durationMs":1250,"midi":77,"velocity":0.7086614173228346,"hand":"R"},{"time":45000,"durationMs":1250,"midi":86,"velocity":0.7086614173228346,"hand":"R"},{"time":45417,"durationMs":417,"midi":43,"velocity":0.7086614173228346,"hand":"L"},{"time":45417,"durationMs":417,"midi":55,"velocity":0.7086614173228346,"hand":"L"},{"time":45833,"durationMs":417,"midi":45,"velocity":0.7086614173228346,"hand":"L"},{"time":45833,"durationMs":417,"midi":57,"velocity":0.7086614173228346,"hand":"L"},{"time":46250,"durationMs":417,"midi":47,"velocity":0.7086614173228346,"hand":"L"},{"time":46250,"durationMs":417,"midi":59,"velocity":0.7086614173228346,"hand":"L"},{"time":46250,"durationMs":208,"midi":62,"velocity":0.7086614173228346,"hand":"R"},{"time":46458,"durationMs":208,"midi":63,"velocity":0.7086614173228346,"hand":"R"},{"time":46667,"durationMs":417,"midi":48,"velocity":0.7086614173228346,"hand":"L"},{"time":46667,"durationMs":208,"midi":64,"velocity":0.7086614173228346,"hand":"R"},{"time":46875,"durationMs":417,"midi":72,"velocity":0.7086614173228346,"hand":"R"},{"time":47083,"durationMs":417,"midi":52,"velocity":0.7086614173228346,"hand":"L"},{"time":47083,"durationMs":417,"midi":55,"velocity":0.7086614173228346,"hand":"L"},{"time":47083,"durationMs":417,"midi":60,"velocity":0.7086614173228346,"hand":"L"},{"time":47292,"durationMs":208,"midi":64,"velocity":0.7086614173228346,"hand":"R"},{"time":47500,"durationMs":417,"midi":43,"velocity":0.7086614173228346,"hand":"L"},{"time":47500,"durationMs":417,"midi":55,"velocity":0.7086614173228346,"hand":"L"},{"time":47500,"durationMs":417,"midi":72,"velocity":0.7086614173228346,"hand":"R"},{"time":47917,"durationMs":417,"midi":55,"velocity":0.7086614173228346,"hand":"L"},{"time":47917,"durationMs":417,"midi":58,"velocity":0.7086614173228346,"hand":"L"},{"time":47917,"durationMs":417,"midi":60,"velocity":0.7086614173228346,"hand":"L"},{"time":47917,"durationMs":208,"midi":64,"velocity":0.7086614173228346,"hand":"R"},{"time":48125,"durationMs":1250,"midi":72,"velocity":0.7086614173228346,"hand":"R"},{"time":48333,"durationMs":417,"midi":41,"velocity":0.7086614173228346,"hand":"L"},{"time":48333,"durationMs":417,"midi":53,"velocity":0.7086614173228346,"hand":"L"},{"time":48750,"durationMs":417,"midi":57,"velocity":0.7086614173228346,"hand":"L"},{"time":48750,"durationMs":417,"midi":60,"velocity":0.7086614173228346,"hand":"L"},{"time":49167,"durationMs":417,"midi":40,"velocity":0.7086614173228346,"hand":"L"},{"time":49167,"durationMs":417,"midi":52,"velocity":0.7086614173228346,"hand":"L"},{"time":49375,"durationMs":208,"midi":72,"velocity":0.7086614173228346,"hand":"R"},{"time":49375,"durationMs":208,"midi":76,"velocity":0.7086614173228346,"hand":"R"},{"time":49375,"durationMs":208,"midi":84,"velocity":0.7086614173228346,"hand":"R"},{"time":49583,"durationMs":417,"midi":55,"velocity":0.7086614173228346,"hand":"L"},{"time":49583,"durationMs":417,"midi":60,"velocity":0.7086614173228346,"hand":"L"},{"time":49583,"durationMs":208,"midi":74,"velocity":0.7086614173228346,"hand":"R"},{"time":49583,"durationMs":208,"midi":77,"velocity":0.7086614173228346,"hand":"R"},{"time":49583,"durationMs":208,"midi":86,"velocity":0.7086614173228346,"hand":"R"},{"time":49792,"durationMs":208,"midi":75,"velocity":0.7086614173228346,"hand":"R"},{"time":49792,"durationMs":208,"midi":78,"velocity":0.7086614173228346,"hand":"R"},{"time":49792,"durationMs":208,"midi":87,"velocity":0.7086614173228346,"hand":"R"},{"time":50000,"durationMs":417,"midi":43,"velocity":0.7086614173228346,"hand":"L"},{"time":50000,"durationMs":208,"midi":76,"velocity":0.7086614173228346,"hand":"R"},{"time":50000,"durationMs":208,"midi":79,"velocity":0.7086614173228346,"hand":"R"},{"time":50000,"durationMs":208,"midi":88,"velocity":0.7086614173228346,"hand":"R"},{"time":50208,"durationMs":208,"midi":72,"velocity":0.7086614173228346,"hand":"R"},{"time":50208,"durationMs":208,"midi":76,"velocity":0.7086614173228346,"hand":"R"},{"time":50208,"durationMs":208,"midi":84,"velocity":0.7086614173228346,"hand":"R"},{"time":50417,"durationMs":417,"midi":52,"velocity":0.7086614173228346,"hand":"L"},{"time":50417,"durationMs":417,"midi":55,"velocity":0.7086614173228346,"hand":"L"},{"time":50417,"durationMs":417,"midi":60,"velocity":0.7086614173228346,"hand":"L"},{"time":50417,"durationMs":208,"midi":74,"velocity":0.7086614173228346,"hand":"R"},{"time":50417,"durationMs":208,"midi":77,"velocity":0.7086614173228346,"hand":"R"},{"time":50417,"durationMs":208,"midi":86,"velocity":0.7086614173228346,"hand":"R"},{"time":50625,"durationMs":417,"midi":76,"velocity":0.7086614173228346,"hand":"R"},{"time":50625,"durationMs":417,"midi":79,"velocity":0.7086614173228346,"hand":"R"},{"time":50625,"durationMs":417,"midi":88,"velocity":0.7086614173228346,"hand":"R"},{"time":50833,"durationMs":417,"midi":43,"velocity":0.7086614173228346,"hand":"L"},{"time":51042,"durationMs":208,"midi":71,"velocity":0.7086614173228346,"hand":"R"},{"time":51042,"durationMs":208,"midi":74,"velocity":0.7086614173228346,"hand":"R"},{"time":51042,"durationMs":208,"midi":83,"velocity":0.7086614173228346,"hand":"R"},{"time":51250,"durationMs":417,"midi":53,"velocity":0.7086614173228346,"hand":"L"},{"time":51250,"durationMs":417,"midi":55,"velocity":0.7086614173228346,"hand":"L"},{"time":51250,"durationMs":417,"midi":59,"velocity":0.7086614173228346,"hand":"L"},{"time":51250,"durationMs":417,"midi":74,"velocity":0.7086614173228346,"hand":"R"},{"time":51250,"durationMs":417,"midi":77,"velocity":0.7086614173228346,"hand":"R"},{"time":51250,"durationMs":417,"midi":86,"velocity":0.7086614173228346,"hand":"R"},{"time":51667,"durationMs":417,"midi":48,"velocity":0.7086614173228346,"hand":"L"},{"time":51667,"durationMs":1250,"midi":72,"velocity":0.7086614173228346,"hand":"R"},{"time":51667,"durationMs":1250,"midi":76,"velocity":0.7086614173228346,"hand":"R"},{"time":51667,"durationMs":1250,"midi":84,"velocity":0.7086614173228346,"hand":"R"},{"time":52083,"durationMs":417,"midi":52,"velocity":0.7086614173228346,"hand":"L"},{"time":52083,"durationMs":417,"midi":55,"velocity":0.7086614173228346,"hand":"L"},{"time":52083,"durationMs":417,"midi":60,"velocity":0.7086614173228346,"hand":"L"},{"time":52500,"durationMs":417,"midi":55,"velocity":0.7086614173228346,"hand":"L"},{"time":52500,"durationMs":417,"midi":60,"velocity":0.7086614173228346,"hand":"L"},{"time":52500,"durationMs":417,"midi":64,"velocity":0.7086614173228346,"hand":"L"},{"time":52917,"durationMs":208,"midi":72,"velocity":0.7086614173228346,"hand":"R"},{"time":52917,"durationMs":208,"midi":84,"velocity":0.7086614173228346,"hand":"R"},{"time":53125,"durationMs":208,"midi":74,"velocity":0.7086614173228346,"hand":"R"},{"time":53125,"durationMs":208,"midi":86,"velocity":0.7086614173228346,"hand":"R"},{"time":53333,"durationMs":417,"midi":48,"velocity":0.7086614173228346,"hand":"L"},{"time":53333,"durationMs":417,"midi":60,"velocity":0.7086614173228346,"hand":"L"},{"time":53333,"durationMs":208,"midi":76,"velocity":0.7086614173228346,"hand":"R"},{"time":53333,"durationMs":208,"midi":88,"velocity":0.7086614173228346,"hand":"R"},{"time":53542,"durationMs":208,"midi":72,"velocity":0.7086614173228346,"hand":"R"},{"time":53542,"durationMs":208,"midi":84,"velocity":0.7086614173228346,"hand":"R"},{"time":53750,"durationMs":417,"midi":55,"velocity":0.7086614173228346,"hand":"L"},{"time":53750,"durationMs":417,"midi":60,"velocity":0.7086614173228346,"hand":"L"},{"time":53750,"durationMs":417,"midi":64,"velocity":0.7086614173228346,"hand":"L"},{"time":53750,"durationMs":208,"midi":74,"velocity":0.7086614173228346,"hand":"R"},{"time":53750,"durationMs":208,"midi":86,"velocity":0.7086614173228346,"hand":"R"},{"time":53958,"durationMs":417,"midi":76,"velocity":0.7086614173228346,"hand":"R"},{"time":53958,"durationMs":417,"midi":88,"velocity":0.7086614173228346,"hand":"R"},{"time":54167,"durationMs":417,"midi":46,"velocity":0.7086614173228346,"hand":"L"},{"time":54167,"durationMs":417,"midi":58,"velocity":0.7086614173228346,"hand":"L"},{"time":54375,"durationMs":208,"midi":72,"velocity":0.7086614173228346,"hand":"R"},{"time":54375,"durationMs":208,"midi":84,"velocity":0.7086614173228346,"hand":"R"},{"time":54583,"durationMs":417,"midi":55,"velocity":0.7086614173228346,"hand":"L"},{"time":54583,"durationMs":417,"midi":60,"velocity":0.7086614173228346,"hand":"L"},{"time":54583,"durationMs":417,"midi":64,"velocity":0.7086614173228346,"hand":"L"},{"time":54583,"durationMs":208,"midi":74,"velocity":0.7086614173228346,"hand":"R"},{"time":54583,"durationMs":208,"midi":86,"velocity":0.7086614173228346,"hand":"R"},{"time":54792,"durationMs":208,"midi":72,"velocity":0.7086614173228346,"hand":"R"},{"time":54792,"durationMs":208,"midi":84,"velocity":0.7086614173228346,"hand":"R"},{"time":55000,"durationMs":417,"midi":45,"velocity":0.7086614173228346,"hand":"L"},{"time":55000,"durationMs":417,"midi":57,"velocity":0.7086614173228346,"hand":"L"},{"time":55000,"durationMs":208,"midi":76,"velocity":0.7086614173228346,"hand":"R"},{"time":55000,"durationMs":208,"midi":88,"velocity":0.7086614173228346,"hand":"R"},{"time":55208,"durationMs":208,"midi":72,"velocity":0.7086614173228346,"hand":"R"},{"time":55208,"durationMs":208,"midi":84,"velocity":0.7086614173228346,"hand":"R"},{"time":55417,"durationMs":417,"midi":57,"velocity":0.7086614173228346,"hand":"L"},{"time":55417,"durationMs":417,"midi":60,"velocity":0.7086614173228346,"hand":"L"},{"time":55417,"durationMs":417,"midi":65,"velocity":0.7086614173228346,"hand":"L"},{"time":55417,"durationMs":208,"midi":74,"velocity":0.7086614173228346,"hand":"R"},{"time":55417,"durationMs":208,"midi":86,"velocity":0.7086614173228346,"hand":"R"},{"time":55625,"durationMs":417,"midi":76,"velocity":0.7086614173228346,"hand":"R"},{"time":55625,"durationMs":417,"midi":88,"velocity":0.7086614173228346,"hand":"R"},{"time":55833,"durationMs":417,"midi":44,"velocity":0.7086614173228346,"hand":"L"},{"time":55833,"durationMs":417,"midi":56,"velocity":0.7086614173228346,"hand":"L"},{"time":56042,"durationMs":208,"midi":72,"velocity":0.7086614173228346,"hand":"R"},{"time":56042,"durationMs":208,"midi":84,"velocity":0.7086614173228346,"hand":"R"},{"time":56250,"durationMs":417,"midi":56,"velocity":0.7086614173228346,"hand":"L"},{"time":56250,"durationMs":417,"midi":60,"velocity":0.7086614173228346,"hand":"L"},{"time":56250,"durationMs":417,"midi":65,"velocity":0.7086614173228346,"hand":"L"},{"time":56250,"durationMs":208,"midi":74,"velocity":0.7086614173228346,"hand":"R"},{"time":56250,"durationMs":208,"midi":86,"velocity":0.7086614173228346,"hand":"R"},{"time":56458,"durationMs":208,"midi":72,"velocity":0.7086614173228346,"hand":"R"},{"time":56458,"durationMs":208,"midi":84,"velocity":0.7086614173228346,"hand":"R"},{"time":56667,"durationMs":417,"midi":43,"velocity":0.7086614173228346,"hand":"L"},{"time":56667,"durationMs":417,"midi":55,"velocity":0.7086614173228346,"hand":"L"},{"time":56667,"durationMs":208,"midi":76,"velocity":0.7086614173228346,"hand":"R"},{"time":56667,"durationMs":208,"midi":79,"velocity":0.7086614173228346,"hand":"R"},{"time":56667,"durationMs":208,"midi":88,"velocity":0.7086614173228346,"hand":"R"},{"time":56875,"durationMs":208,"midi":72,"velocity":0.7086614173228346,"hand":"R"},{"time":56875,"durationMs":208,"midi":76,"velocity":0.7086614173228346,"hand":"R"},{"time":56875,"durationMs":208,"midi":84,"velocity":0.7086614173228346,"hand":"R"},{"time":57083,"durationMs":417,"midi":55,"velocity":0.7086614173228346,"hand":"L"},{"time":57083,"durationMs":417,"midi":60,"velocity":0.7086614173228346,"hand":"L"},{"time":57083,"durationMs":417,"midi":64,"velocity":0.7086614173228346,"hand":"L"},{"time":57083,"durationMs":208,"midi":74,"velocity":0.7086614173228346,"hand":"R"},{"time":57083,"durationMs":208,"midi":77,"velocity":0.7086614173228346,"hand":"R"},{"time":57083,"durationMs":208,"midi":86,"velocity":0.7086614173228346,"hand":"R"},{"time":57292,"durationMs":417,"midi":76,"velocity":0.7086614173228346,"hand":"R"},{"time":57292,"durationMs":417,"midi":79,"velocity":0.7086614173228346,"hand":"R"},{"time":57292,"durationMs":417,"midi":88,"velocity":0.7086614173228346,"hand":"R"},{"time":57500,"durationMs":417,"midi":43,"velocity":0.7086614173228346,"hand":"L"},{"time":57708,"durationMs":208,"midi":71,"velocity":0.7086614173228346,"hand":"R"},{"time":57708,"durationMs":208,"midi":74,"velocity":0.7086614173228346,"hand":"R"},{"time":57708,"durationMs":208,"midi":83,"velocity":0.7086614173228346,"hand":"R"},{"time":57917,"durationMs":417,"midi":55,"velocity":0.7086614173228346,"hand":"L"},{"time":57917,"durationMs":417,"midi":59,"velocity":0.7086614173228346,"hand":"L"},{"time":57917,"durationMs":417,"midi":74,"velocity":0.7086614173228346,"hand":"R"},{"time":57917,"durationMs":417,"midi":77,"velocity":0.7086614173228346,"hand":"R"},{"time":57917,"durationMs":417,"midi":86,"velocity":0.7086614173228346,"hand":"R"},{"time":58333,"durationMs":417,"midi":48,"velocity":0.7086614173228346,"hand":"L"},{"time":58333,"durationMs":417,"midi":55,"velocity":0.7086614173228346,"hand":"L"},{"time":58333,"durationMs":417,"midi":60,"velocity":0.7086614173228346,"hand":"L"},{"time":58333,"durationMs":1042,"midi":72,"velocity":0.7086614173228346,"hand":"R"},{"time":58333,"durationMs":1042,"midi":76,"velocity":0.7086614173228346,"hand":"R"},{"time":58333,"durationMs":1042,"midi":84,"velocity":0.7086614173228346,"hand":"R"},{"time":58750,"durationMs":417,"midi":43,"velocity":0.7086614173228346,"hand":"L"},{"time":58750,"durationMs":417,"midi":55,"velocity":0.7086614173228346,"hand":"L"},{"time":59167,"durationMs":417,"midi":36,"velocity":0.7086614173228346,"hand":"L"},{"time":59167,"durationMs":417,"midi":48,"velocity":0.7086614173228346,"hand":"L"},{"time":59375,"durationMs":208,"midi":64,"velocity":0.7086614173228346,"hand":"R"},{"time":59375,"durationMs":208,"midi":72,"velocity":0.7086614173228346,"hand":"R"},{"time":59375,"durationMs":208,"midi":76,"velocity":0.7086614173228346,"hand":"R"},{"time":59583,"durationMs":208,"midi":65,"velocity":0.7086614173228346,"hand":"R"},{"time":59583,"durationMs":208,"midi":74,"velocity":0.7086614173228346,"hand":"R"},{"time":59583,"durationMs":208,"midi":77,"velocity":0.7086614173228346,"hand":"R"},{"time":59792,"durationMs":208,"midi":66,"velocity":0.7086614173228346,"hand":"R"},{"time":59792,"durationMs":208,"midi":75,"velocity":0.7086614173228346,"hand":"R"},{"time":59792,"durationMs":208,"midi":78,"velocity":0.7086614173228346,"hand":"R"},{"time":60000,"durationMs":417,"midi":36,"velocity":0.7086614173228346,"hand":"L"},{"time":60000,"durationMs":417,"midi":48,"velocity":0.7086614173228346,"hand":"L"},{"time":60000,"durationMs":417,"midi":67,"velocity":0.7086614173228346,"hand":"R"},{"time":60000,"durationMs":417,"midi":76,"velocity":0.7086614173228346,"hand":"R"},{"time":60000,"durationMs":417,"midi":79,"velocity":0.7086614173228346,"hand":"R"},{"time":60417,"durationMs":417,"midi":55,"velocity":0.7086614173228346,"hand":"L"},{"time":60417,"durationMs":417,"midi":60,"velocity":0.7086614173228346,"hand":"L"},{"time":60417,"durationMs":417,"midi":64,"velocity":0.7086614173228346,"hand":"L"},{"time":60417,"durationMs":208,"midi":69,"velocity":0.7086614173228346,"hand":"R"},{"time":60417,"durationMs":208,"midi":76,"velocity":0.7086614173228346,"hand":"R"},{"time":60417,"durationMs":208,"midi":81,"velocity":0.7086614173228346,"hand":"R"},{"time":60625,"durationMs":417,"midi":67,"velocity":0.7086614173228346,"hand":"R"},{"time":60625,"durationMs":417,"midi":76,"velocity":0.7086614173228346,"hand":"R"},{"time":60625,"durationMs":417,"midi":79,"velocity":0.7086614173228346,"hand":"R"},{"time":60833,"durationMs":417,"midi":43,"velocity":0.7086614173228346,"hand":"L"},{"time":61042,"durationMs":208,"midi":64,"velocity":0.7086614173228346,"hand":"R"},{"time":61042,"durationMs":208,"midi":72,"velocity":0.7086614173228346,"hand":"R"},{"time":61042,"durationMs":208,"midi":76,"velocity":0.7086614173228346,"hand":"R"},{"time":61250,"durationMs":417,"midi":55,"velocity":0.7086614173228346,"hand":"L"},{"time":61250,"durationMs":417,"midi":60,"velocity":0.7086614173228346,"hand":"L"},{"time":61250,"durationMs":417,"midi":64,"velocity":0.7086614173228346,"hand":"L"},{"time":61250,"durationMs":208,"midi":65,"velocity":0.7086614173228346,"hand":"R"},{"time":61250,"durationMs":208,"midi":74,"velocity":0.7086614173228346,"hand":"R"},{"time":61250,"durationMs":208,"midi":77,"velocity":0.7086614173228346,"hand":"R"},{"time":61458,"durationMs":208,"midi":66,"velocity":0.7086614173228346,"hand":"R"},{"time":61458,"durationMs":208,"midi":75,"velocity":0.7086614173228346,"hand":"R"},{"time":61458,"durationMs":208,"midi":78,"velocity":0.7086614173228346,"hand":"R"},{"time":61667,"durationMs":417,"midi":48,"velocity":0.7086614173228346,"hand":"L"},{"time":61667,"durationMs":417,"midi":67,"velocity":0.7086614173228346,"hand":"R"},{"time":61667,"durationMs":417,"midi":76,"velocity":0.7086614173228346,"hand":"R"},{"time":61667,"durationMs":417,"midi":79,"velocity":0.7086614173228346,"hand":"R"},{"time":62083,"durationMs":417,"midi":55,"velocity":0.7086614173228346,"hand":"L"},{"time":62083,"durationMs":417,"midi":60,"velocity":0.7086614173228346,"hand":"L"},{"time":62083,"durationMs":417,"midi":64,"velocity":0.7086614173228346,"hand":"L"},{"time":62083,"durationMs":208,"midi":69,"velocity":0.7086614173228346,"hand":"R"},{"time":62083,"durationMs":208,"midi":76,"velocity":0.7086614173228346,"hand":"R"},{"time":62083,"durationMs":208,"midi":81,"velocity":0.7086614173228346,"hand":"R"},{"time":62292,"durationMs":417,"midi":67,"velocity":0.7086614173228346,"hand":"R"},{"time":62292,"durationMs":417,"midi":76,"velocity":0.7086614173228346,"hand":"R"},{"time":62292,"durationMs":417,"midi":79,"velocity":0.7086614173228346,"hand":"R"},{"time":62500,"durationMs":417,"midi":43,"velocity":0.7086614173228346,"hand":"L"},{"time":62708,"durationMs":208,"midi":76,"velocity":0.7086614173228346,"hand":"R"},{"time":62917,"durationMs":417,"midi":55,"velocity":0.7086614173228346,"hand":"L"},{"time":62917,"durationMs":417,"midi":60,"velocity":0.7086614173228346,"hand":"L"},{"time":62917,"durationMs":417,"midi":64,"velocity":0.7086614173228346,"hand":"L"},{"time":62917,"durationMs":208,"midi":72,"velocity":0.7086614173228346,"hand":"R"},{"time":63125,"durationMs":208,"midi":67,"velocity":0.7086614173228346,"hand":"R"},{"time":63333,"durationMs":417,"midi":41,"velocity":0.7086614173228346,"hand":"L"},{"time":63333,"durationMs":208,"midi":69,"velocity":0.7086614173228346,"hand":"R"},{"time":63542,"durationMs":208,"midi":71,"velocity":0.7086614173228346,"hand":"R"},{"time":63750,"durationMs":417,"midi":57,"velocity":0.7086614173228346,"hand":"L"},{"time":63750,"durationMs":417,"midi":60,"velocity":0.7086614173228346,"hand":"L"},{"time":63750,"durationMs":417,"midi":65,"velocity":0.7086614173228346,"hand":"L"},{"time":63750,"durationMs":208,"midi":72,"velocity":0.7086614173228346,"hand":"R"},{"time":63958,"durationMs":208,"midi":74,"velocity":0.7086614173228346,"hand":"R"},{"time":64167,"durationMs":417,"midi":53,"velocity":0.7086614173228346,"hand":"L"},{"time":64167,"durationMs":208,"midi":76,"velocity":0.7086614173228346,"hand":"R"},{"time":64375,"durationMs":208,"midi":74,"velocity":0.7086614173228346,"hand":"R"},{"time":64583,"durationMs":417,"midi":56,"velocity":0.7086614173228346,"hand":"L"},{"time":64583,"durationMs":417,"midi":60,"velocity":0.7086614173228346,"hand":"L"},{"time":64583,"durationMs":417,"midi":65,"velocity":0.7086614173228346,"hand":"L"},{"time":64583,"durationMs":208,"midi":72,"velocity":0.7086614173228346,"hand":"R"},{"time":64792,"durationMs":208,"midi":74,"velocity":0.7086614173228346,"hand":"R"},{"time":65000,"durationMs":417,"midi":52,"velocity":0.7086614173228346,"hand":"L"},{"time":65000,"durationMs":208,"midi":67,"velocity":0.7086614173228346,"hand":"R"},{"time":65208,"durationMs":208,"midi":76,"velocity":0.7086614173228346,"hand":"R"},{"time":65417,"durationMs":417,"midi":55,"velocity":0.7086614173228346,"hand":"L"},{"time":65417,"durationMs":417,"midi":60,"velocity":0.7086614173228346,"hand":"L"},{"time":65417,"durationMs":417,"midi":64,"velocity":0.7086614173228346,"hand":"L"},{"time":65417,"durationMs":208,"midi":77,"velocity":0.7086614173228346,"hand":"R"},{"time":65625,"durationMs":208,"midi":79,"velocity":0.7086614173228346,"hand":"R"},{"time":65833,"durationMs":417,"midi":43,"velocity":0.7086614173228346,"hand":"L"},{"time":65833,"durationMs":208,"midi":81,"velocity":0.7086614173228346,"hand":"R"},{"time":66042,"durationMs":208,"midi":79,"velocity":0.7086614173228346,"hand":"R"},{"time":66250,"durationMs":417,"midi":55,"velocity":0.7086614173228346,"hand":"L"},{"time":66250,"durationMs":417,"midi":60,"velocity":0.7086614173228346,"hand":"L"},{"time":66250,"durationMs":417,"midi":64,"velocity":0.7086614173228346,"hand":"L"},{"time":66250,"durationMs":208,"midi":76,"velocity":0.7086614173228346,"hand":"R"},{"time":66458,"durationMs":208,"midi":77,"velocity":0.7086614173228346,"hand":"R"},{"time":66667,"durationMs":417,"midi":48,"velocity":0.7086614173228346,"hand":"L"},{"time":66667,"durationMs":417,"midi":67,"velocity":0.7086614173228346,"hand":"R"},{"time":66667,"durationMs":417,"midi":76,"velocity":0.7086614173228346,"hand":"R"},{"time":66667,"durationMs":417,"midi":79,"velocity":0.7086614173228346,"hand":"R"},{"time":67083,"durationMs":417,"midi":55,"velocity":0.7086614173228346,"hand":"L"},{"time":67083,"durationMs":417,"midi":60,"velocity":0.7086614173228346,"hand":"L"},{"time":67083,"durationMs":417,"midi":64,"velocity":0.7086614173228346,"hand":"L"},{"time":67083,"durationMs":208,"midi":69,"velocity":0.7086614173228346,"hand":"R"},{"time":67083,"durationMs":208,"midi":76,"velocity":0.7086614173228346,"hand":"R"},{"time":67083,"durationMs":208,"midi":81,"velocity":0.7086614173228346,"hand":"R"},{"time":67292,"durationMs":417,"midi":67,"velocity":0.7086614173228346,"hand":"R"},{"time":67292,"durationMs":417,"midi":76,"velocity":0.7086614173228346,"hand":"R"},{"time":67292,"durationMs":417,"midi":79,"velocity":0.7086614173228346,"hand":"R"},{"time":67500,"durationMs":417,"midi":43,"velocity":0.7086614173228346,"hand":"L"},{"time":67708,"durationMs":208,"midi":64,"velocity":0.7086614173228346,"hand":"R"},{"time":67708,"durationMs":208,"midi":72,"velocity":0.7086614173228346,"hand":"R"},{"time":67708,"durationMs":208,"midi":76,"velocity":0.7086614173228346,"hand":"R"},{"time":67917,"durationMs":417,"midi":55,"velocity":0.7086614173228346,"hand":"L"},{"time":67917,"durationMs":417,"midi":60,"velocity":0.7086614173228346,"hand":"L"},{"time":67917,"durationMs":417,"midi":64,"velocity":0.7086614173228346,"hand":"L"},{"time":67917,"durationMs":208,"midi":65,"velocity":0.7086614173228346,"hand":"R"},{"time":67917,"durationMs":208,"midi":74,"velocity":0.7086614173228346,"hand":"R"},{"time":67917,"durationMs":208,"midi":77,"velocity":0.7086614173228346,"hand":"R"},{"time":68125,"durationMs":208,"midi":66,"velocity":0.7086614173228346,"hand":"R"},{"time":68125,"durationMs":208,"midi":75,"velocity":0.7086614173228346,"hand":"R"},{"time":68125,"durationMs":208,"midi":78,"velocity":0.7086614173228346,"hand":"R"},{"time":68333,"durationMs":417,"midi":48,"velocity":0.7086614173228346,"hand":"L"},{"time":68333,"durationMs":417,"midi":67,"velocity":0.7086614173228346,"hand":"R"},{"time":68333,"durationMs":417,"midi":76,"velocity":0.7086614173228346,"hand":"R"},{"time":68333,"durationMs":417,"midi":79,"velocity":0.7086614173228346,"hand":"R"},{"time":68750,"durationMs":417,"midi":55,"velocity":0.7086614173228346,"hand":"L"},{"time":68750,"durationMs":417,"midi":60,"velocity":0.7086614173228346,"hand":"L"},{"time":68750,"durationMs":417,"midi":64,"velocity":0.7086614173228346,"hand":"L"},{"time":68750,"durationMs":208,"midi":69,"velocity":0.7086614173228346,"hand":"R"},{"time":68750,"durationMs":208,"midi":76,"velocity":0.7086614173228346,"hand":"R"},{"time":68750,"durationMs":208,"midi":81,"velocity":0.7086614173228346,"hand":"R"},{"time":68958,"durationMs":417,"midi":67,"velocity":0.7086614173228346,"hand":"R"},{"time":68958,"durationMs":417,"midi":76,"velocity":0.7086614173228346,"hand":"R"},{"time":68958,"durationMs":417,"midi":79,"velocity":0.7086614173228346,"hand":"R"},{"time":69167,"durationMs":417,"midi":52,"velocity":0.7086614173228346,"hand":"L"},{"time":69375,"durationMs":208,"midi":79,"velocity":0.7086614173228346,"hand":"R"},{"time":69583,"durationMs":417,"midi":51,"velocity":0.7086614173228346,"hand":"L"},{"time":69583,"durationMs":208,"midi":81,"velocity":0.7086614173228346,"hand":"R"},{"time":69792,"durationMs":208,"midi":82,"velocity":0.7086614173228346,"hand":"R"},{"time":70000,"durationMs":417,"midi":50,"velocity":0.7086614173228346,"hand":"L"},{"time":70000,"durationMs":208,"midi":74,"velocity":0.7086614173228346,"hand":"R"},{"time":70000,"durationMs":208,"midi":79,"velocity":0.7086614173228346,"hand":"R"},{"time":70000,"durationMs":208,"midi":83,"velocity":0.7086614173228346,"hand":"R"},{"time":70208,"durationMs":417,"midi":74,"velocity":0.7086614173228346,"hand":"R"},{"time":70208,"durationMs":417,"midi":79,"velocity":0.7086614173228346,"hand":"R"},{"time":70208,"durationMs":417,"midi":83,"velocity":0.7086614173228346,"hand":"R"},{"time":70417,"durationMs":417,"midi":55,"velocity":0.7086614173228346,"hand":"L"},{"time":70417,"durationMs":417,"midi":59,"velocity":0.7086614173228346,"hand":"L"},{"time":70417,"durationMs":417,"midi":62,"velocity":0.7086614173228346,"hand":"L"},{"time":70625,"durationMs":417,"midi":72,"velocity":0.7086614173228346,"hand":"R"},{"time":70625,"durationMs":417,"midi":78,"velocity":0.7086614173228346,"hand":"R"},{"time":70625,"durationMs":417,"midi":83,"velocity":0.7086614173228346,"hand":"R"},{"time":70833,"durationMs":417,"midi":50,"velocity":0.7086614173228346,"hand":"L"},{"time":71042,"durationMs":208,"midi":81,"velocity":0.7086614173228346,"hand":"R"},{"time":71250,"durationMs":417,"midi":57,"velocity":0.7086614173228346,"hand":"L"},{"time":71250,"durationMs":417,"midi":60,"velocity":0.7086614173228346,"hand":"L"},{"time":71250,"durationMs":417,"midi":62,"velocity":0.7086614173228346,"hand":"L"},{"time":71250,"durationMs":208,"midi":72,"velocity":0.7086614173228346,"hand":"R"},{"time":71250,"durationMs":208,"midi":78,"velocity":0.7086614173228346,"hand":"R"},{"time":71458,"durationMs":208,"midi":74,"velocity":0.7086614173228346,"hand":"R"},{"time":71667,"durationMs":417,"midi":55,"velocity":0.7086614173228346,"hand":"L"},{"time":71667,"durationMs":417,"midi":59,"velocity":0.7086614173228346,"hand":"L"},{"time":71667,"durationMs":417,"midi":62,"velocity":0.7086614173228346,"hand":"L"},{"time":71667,"durationMs":1042,"midi":71,"velocity":0.7086614173228346,"hand":"R"},{"time":71667,"durationMs":1042,"midi":79,"velocity":0.7086614173228346,"hand":"R"},{"time":72083,"durationMs":417,"midi":41,"velocity":0.7086614173228346,"hand":"L"},{"time":72083,"durationMs":417,"midi":53,"velocity":0.7086614173228346,"hand":"L"},{"time":72500,"durationMs":417,"midi":40,"velocity":0.7086614173228346,"hand":"L"},{"time":72500,"durationMs":417,"midi":52,"velocity":0.7086614173228346,"hand":"L"},{"time":72708,"durationMs":208,"midi":64,"velocity":0.7086614173228346,"hand":"R"},{"time":72708,"durationMs":208,"midi":72,"velocity":0.7086614173228346,"hand":"R"},{"time":72708,"durationMs":208,"midi":76,"velocity":0.7086614173228346,"hand":"R"},{"time":72917,"durationMs":417,"midi":38,"velocity":0.7086614173228346,"hand":"L"},{"time":72917,"durationMs":417,"midi":50,"velocity":0.7086614173228346,"hand":"L"},{"time":72917,"durationMs":208,"midi":65,"velocity":0.7086614173228346,"hand":"R"},{"time":72917,"durationMs":208,"midi":74,"velocity":0.7086614173228346,"hand":"R"},{"time":72917,"durationMs":208,"midi":77,"velocity":0.7086614173228346,"hand":"R"},{"time":73125,"durationMs":208,"midi":66,"velocity":0.7086614173228346,"hand":"R"},{"time":73125,"durationMs":208,"midi":75,"velocity":0.7086614173228346,"hand":"R"},{"time":73125,"durationMs":208,"midi":78,"velocity":0.7086614173228346,"hand":"R"},{"time":73333,"durationMs":417,"midi":36,"velocity":0.7086614173228346,"hand":"L"},{"time":73333,"durationMs":417,"midi":48,"velocity":0.7086614173228346,"hand":"L"},{"time":73333,"durationMs":417,"midi":67,"velocity":0.7086614173228346,"hand":"R"},{"time":73333,"durationMs":417,"midi":76,"velocity":0.7086614173228346,"hand":"R"},{"time":73333,"durationMs":417,"midi":79,"velocity":0.7086614173228346,"hand":"R"},{"time":73750,"durationMs":417,"midi":55,"velocity":0.7086614173228346,"hand":"L"},{"time":73750,"durationMs":417,"midi":60,"velocity":0.7086614173228346,"hand":"L"},{"time":73750,"durationMs":417,"midi":64,"velocity":0.7086614173228346,"hand":"L"},{"time":73750,"durationMs":208,"midi":69,"velocity":0.7086614173228346,"hand":"R"},{"time":73750,"durationMs":208,"midi":76,"velocity":0.7086614173228346,"hand":"R"},{"time":73750,"durationMs":208,"midi":81,"velocity":0.7086614173228346,"hand":"R"},{"time":73958,"durationMs":417,"midi":67,"velocity":0.7086614173228346,"hand":"R"},{"time":73958,"durationMs":417,"midi":76,"velocity":0.7086614173228346,"hand":"R"},{"time":73958,"durationMs":417,"midi":79,"velocity":0.7086614173228346,"hand":"R"},{"time":74167,"durationMs":417,"midi":43,"velocity":0.7086614173228346,"hand":"L"},{"time":74375,"durationMs":208,"midi":64,"velocity":0.7086614173228346,"hand":"R"},{"time":74375,"durationMs":208,"midi":72,"velocity":0.7086614173228346,"hand":"R"},{"time":74375,"durationMs":208,"midi":76,"velocity":0.7086614173228346,"hand":"R"},{"time":74583,"durationMs":417,"midi":55,"velocity":0.7086614173228346,"hand":"L"},{"time":74583,"durationMs":417,"midi":60,"velocity":0.7086614173228346,"hand":"L"},{"time":74583,"durationMs":417,"midi":64,"velocity":0.7086614173228346,"hand":"L"},{"time":74583,"durationMs":208,"midi":65,"velocity":0.7086614173228346,"hand":"R"},{"time":74583,"durationMs":208,"midi":74,"velocity":0.7086614173228346,"hand":"R"},{"time":74583,"durationMs":208,"midi":77,"velocity":0.7086614173228346,"hand":"R"},{"time":74792,"durationMs":208,"midi":66,"velocity":0.7086614173228346,"hand":"R"},{"time":74792,"durationMs":208,"midi":75,"velocity":0.7086614173228346,"hand":"R"},{"time":74792,"durationMs":208,"midi":78,"velocity":0.7086614173228346,"hand":"R"},{"time":75000,"durationMs":417,"midi":48,"velocity":0.7086614173228346,"hand":"L"},{"time":75000,"durationMs":417,"midi":67,"velocity":0.7086614173228346,"hand":"R"},{"time":75000,"durationMs":417,"midi":76,"velocity":0.7086614173228346,"hand":"R"},{"time":75000,"durationMs":417,"midi":79,"velocity":0.7086614173228346,"hand":"R"},{"time":75417,"durationMs":417,"midi":55,"velocity":0.7086614173228346,"hand":"L"},{"time":75417,"durationMs":417,"midi":60,"velocity":0.7086614173228346,"hand":"L"},{"time":75417,"durationMs":417,"midi":64,"velocity":0.7086614173228346,"hand":"L"},{"time":75417,"durationMs":208,"midi":69,"velocity":0.7086614173228346,"hand":"R"},{"time":75417,"durationMs":208,"midi":76,"velocity":0.7086614173228346,"hand":"R"},{"time":75417,"durationMs":208,"midi":81,"velocity":0.7086614173228346,"hand":"R"},{"time":75625,"durationMs":417,"midi":67,"velocity":0.7086614173228346,"hand":"R"},{"time":75625,"durationMs":417,"midi":76,"velocity":0.7086614173228346,"hand":"R"},{"time":75625,"durationMs":417,"midi":79,"velocity":0.7086614173228346,"hand":"R"},{"time":75833,"durationMs":417,"midi":43,"velocity":0.7086614173228346,"hand":"L"},{"time":76042,"durationMs":208,"midi":76,"velocity":0.7086614173228346,"hand":"R"},{"time":76250,"durationMs":417,"midi":55,"velocity":0.7086614173228346,"hand":"L"},{"time":76250,"durationMs":417,"midi":60,"velocity":0.7086614173228346,"hand":"L"},{"time":76250,"durationMs":417,"midi":64,"velocity":0.7086614173228346,"hand":"L"},{"time":76250,"durationMs":208,"midi":72,"velocity":0.7086614173228346,"hand":"R"},{"time":76458,"durationMs":208,"midi":67,"velocity":0.7086614173228346,"hand":"R"},{"time":76667,"durationMs":417,"midi":41,"velocity":0.7086614173228346,"hand":"L"},{"time":76667,"durationMs":208,"midi":69,"velocity":0.7086614173228346,"hand":"R"},{"time":76875,"durationMs":208,"midi":71,"velocity":0.7086614173228346,"hand":"R"},{"time":77083,"durationMs":417,"midi":57,"velocity":0.7086614173228346,"hand":"L"},{"time":77083,"durationMs":417,"midi":60,"velocity":0.7086614173228346,"hand":"L"},{"time":77083,"durationMs":417,"midi":65,"velocity":0.7086614173228346,"hand":"L"},{"time":77083,"durationMs":208,"midi":72,"velocity":0.7086614173228346,"hand":"R"},{"time":77292,"durationMs":208,"midi":74,"velocity":0.7086614173228346,"hand":"R"},{"time":77500,"durationMs":417,"midi":53,"velocity":0.7086614173228346,"hand":"L"},{"time":77500,"durationMs":208,"midi":76,"velocity":0.7086614173228346,"hand":"R"},{"time":77708,"durationMs":208,"midi":74,"velocity":0.7086614173228346,"hand":"R"},{"time":77917,"durationMs":417,"midi":56,"velocity":0.7086614173228346,"hand":"L"},{"time":77917,"durationMs":417,"midi":60,"velocity":0.7086614173228346,"hand":"L"},{"time":77917,"durationMs":417,"midi":65,"velocity":0.7086614173228346,"hand":"L"},{"time":77917,"durationMs":208,"midi":72,"velocity":0.7086614173228346,"hand":"R"},{"time":78125,"durationMs":208,"midi":74,"velocity":0.7086614173228346,"hand":"R"},{"time":78333,"durationMs":417,"midi":52,"velocity":0.7086614173228346,"hand":"L"},{"time":78333,"durationMs":1042,"midi":72,"velocity":0.7086614173228346,"hand":"R"},{"time":78750,"durationMs":417,"midi":55,"velocity":0.7086614173228346,"hand":"L"},{"time":78750,"durationMs":417,"midi":60,"velocity":0.7086614173228346,"hand":"L"},{"time":78750,"durationMs":417,"midi":64,"velocity":0.7086614173228346,"hand":"L"},{"time":79167,"durationMs":417,"midi":48,"velocity":0.7086614173228346,"hand":"L"},{"time":79375,"durationMs":208,"midi":67,"velocity":0.7086614173228346,"hand":"R"},{"time":79583,"durationMs":417,"midi":58,"velocity":0.7086614173228346,"hand":"L"},{"time":79583,"durationMs":417,"midi":60,"velocity":0.7086614173228346,"hand":"L"},{"time":79583,"durationMs":417,"midi":64,"velocity":0.7086614173228346,"hand":"L"},{"time":79583,"durationMs":208,"midi":66,"velocity":0.7086614173228346,"hand":"R"},{"time":79792,"durationMs":208,"midi":67,"velocity":0.7086614173228346,"hand":"R"},{"time":80000,"durationMs":417,"midi":53,"velocity":0.7086614173228346,"hand":"L"},{"time":80000,"durationMs":417,"midi":57,"velocity":0.7086614173228346,"hand":"L"},{"time":80000,"durationMs":417,"midi":60,"velocity":0.7086614173228346,"hand":"L"},{"time":80000,"durationMs":417,"midi":65,"velocity":0.7086614173228346,"hand":"L"},{"time":80000,"durationMs":417,"midi":72,"velocity":0.7086614173228346,"hand":"R"},{"time":80417,"durationMs":417,"midi":53,"velocity":0.7086614173228346,"hand":"L"},{"time":80417,"durationMs":417,"midi":57,"velocity":0.7086614173228346,"hand":"L"},{"time":80417,"durationMs":417,"midi":60,"velocity":0.7086614173228346,"hand":"L"},{"time":80417,"durationMs":417,"midi":65,"velocity":0.7086614173228346,"hand":"L"},{"time":80417,"durationMs":208,"midi":69,"velocity":0.7086614173228346,"hand":"R"},{"time":80625,"durationMs":417,"midi":72,"velocity":0.7086614173228346,"hand":"R"},{"time":80833,"durationMs":417,"midi":54,"velocity":0.7086614173228346,"hand":"L"},{"time":80833,"durationMs":417,"midi":57,"velocity":0.7086614173228346,"hand":"L"},{"time":80833,"durationMs":417,"midi":60,"velocity":0.7086614173228346,"hand":"L"},{"time":80833,"durationMs":417,"midi":63,"velocity":0.7086614173228346,"hand":"L"},{"time":81042,"durationMs":208,"midi":69,"velocity":0.7086614173228346,"hand":"R"},{"time":81250,"durationMs":417,"midi":54,"velocity":0.7086614173228346,"hand":"L"},{"time":81250,"durationMs":417,"midi":57,"velocity":0.7086614173228346,"hand":"L"},{"time":81250,"durationMs":417,"midi":60,"velocity":0.7086614173228346,"hand":"L"},{"time":81250,"durationMs":417,"midi":63,"velocity":0.7086614173228346,"hand":"L"},{"time":81250,"durationMs":208,"midi":72,"velocity":0.7086614173228346,"hand":"R"},{"time":81458,"durationMs":208,"midi":69,"velocity":0.7086614173228346,"hand":"R"},{"time":81667,"durationMs":417,"midi":55,"velocity":0.7086614173228346,"hand":"L"},{"time":81667,"durationMs":417,"midi":60,"velocity":0.7086614173228346,"hand":"L"},{"time":81667,"durationMs":417,"midi":64,"velocity":0.7086614173228346,"hand":"L"},{"time":81667,"durationMs":208,"midi":67,"velocity":0.7086614173228346,"hand":"R"},{"time":81875,"durationMs":208,"midi":72,"velocity":0.7086614173228346,"hand":"R"},{"time":82083,"durationMs":417,"midi":55,"velocity":0.7086614173228346,"hand":"L"},{"time":82083,"durationMs":417,"midi":60,"velocity":0.7086614173228346,"hand":"L"},{"time":82083,"durationMs":417,"midi":64,"velocity":0.7086614173228346,"hand":"L"},{"time":82083,"durationMs":208,"midi":76,"velocity":0.7086614173228346,"hand":"R"},{"time":82292,"durationMs":417,"midi":79,"velocity":0.7086614173228346,"hand":"R"},{"time":82500,"durationMs":417,"midi":55,"velocity":0.7086614173228346,"hand":"L"},{"time":82500,"durationMs":417,"midi":60,"velocity":0.7086614173228346,"hand":"L"},{"time":82500,"durationMs":417,"midi":64,"velocity":0.7086614173228346,"hand":"L"},{"time":82708,"durationMs":208,"midi":76,"velocity":0.7086614173228346,"hand":"R"},{"time":82917,"durationMs":417,"midi":55,"velocity":0.7086614173228346,"hand":"L"},{"time":82917,"durationMs":417,"midi":60,"velocity":0.7086614173228346,"hand":"L"},{"time":82917,"durationMs":417,"midi":64,"velocity":0.7086614173228346,"hand":"L"},{"time":82917,"durationMs":208,"midi":72,"velocity":0.7086614173228346,"hand":"R"},{"time":83125,"durationMs":208,"midi":67,"velocity":0.7086614173228346,"hand":"R"},{"time":83333,"durationMs":417,"midi":50,"velocity":0.7086614173228346,"hand":"L"},{"time":83333,"durationMs":417,"midi":60,"velocity":0.7086614173228346,"hand":"L"},{"time":83333,"durationMs":417,"midi":66,"velocity":0.7086614173228346,"hand":"R"},{"time":83333,"durationMs":417,"midi":69,"velocity":0.7086614173228346,"hand":"R"},{"time":83750,"durationMs":417,"midi":50,"velocity":0.7086614173228346,"hand":"L"},{"time":83750,"durationMs":417,"midi":57,"velocity":0.7086614173228346,"hand":"L"},{"time":83750,"durationMs":417,"midi":66,"velocity":0.7086614173228346,"hand":"R"},{"time":83750,"durationMs":417,"midi":72,"velocity":0.7086614173228346,"hand":"R"},{"time":84167,"durationMs":417,"midi":55,"velocity":0.7086614173228346,"hand":"L"},{"time":84167,"durationMs":417,"midi":59,"velocity":0.7086614173228346,"hand":"L"},{"time":84167,"durationMs":208,"midi":65,"velocity":0.7086614173228346,"hand":"R"},{"time":84167,"durationMs":208,"midi":76,"velocity":0.7086614173228346,"hand":"R"},{"time":84375,"durationMs":417,"midi":65,"velocity":0.7086614173228346,"hand":"R"},{"time":84375,"durationMs":417,"midi":74,"velocity":0.7086614173228346,"hand":"R"},{"time":84583,"durationMs":417,"midi":55,"velocity":0.7086614173228346,"hand":"L"},{"time":84583,"durationMs":417,"midi":59,"velocity":0.7086614173228346,"hand":"L"},{"time":84792,"durationMs":1250,"midi":64,"velocity":0.7086614173228346,"hand":"R"},{"time":84792,"durationMs":1250,"midi":72,"velocity":0.7086614173228346,"hand":"R"},{"time":85000,"durationMs":417,"midi":48,"velocity":0.7086614173228346,"hand":"L"},{"time":85000,"durationMs":417,"midi":60,"velocity":0.7086614173228346,"hand":"L"},{"time":85417,"durationMs":417,"midi":43,"velocity":0.7086614173228346,"hand":"L"},{"time":85417,"durationMs":417,"midi":55,"velocity":0.7086614173228346,"hand":"L"},{"time":85833,"durationMs":417,"midi":40,"velocity":0.7086614173228346,"hand":"L"},{"time":85833,"durationMs":417,"midi":52,"velocity":0.7086614173228346,"hand":"L"},{"time":86042,"durationMs":208,"midi":76,"velocity":0.7086614173228346,"hand":"R"},{"time":86042,"durationMs":208,"midi":84,"velocity":0.7086614173228346,"hand":"R"},{"time":86042,"durationMs":208,"midi":88,"velocity":0.7086614173228346,"hand":"R"},{"time":86250,"durationMs":417,"midi":38,"velocity":0.7086614173228346,"hand":"L"},{"time":86250,"durationMs":417,"midi":50,"velocity":0.7086614173228346,"hand":"L"},{"time":86250,"durationMs":208,"midi":77,"velocity":0.7086614173228346,"hand":"R"},{"time":86250,"durationMs":208,"midi":86,"velocity":0.7086614173228346,"hand":"R"},{"time":86250,"durationMs":208,"midi":89,"velocity":0.7086614173228346,"hand":"R"},{"time":86458,"durationMs":208,"midi":78,"velocity":0.7086614173228346,"hand":"R"},{"time":86458,"durationMs":208,"midi":87,"velocity":0.7086614173228346,"hand":"R"},{"time":86458,"durationMs":208,"midi":90,"velocity":0.7086614173228346,"hand":"R"},{"time":86667,"durationMs":417,"midi":36,"velocity":0.7086614173228346,"hand":"L"},{"time":86667,"durationMs":417,"midi":48,"velocity":0.7086614173228346,"hand":"L"},{"time":86667,"durationMs":417,"midi":67,"velocity":0.7086614173228346,"hand":"R"},{"time":86667,"durationMs":417,"midi":76,"velocity":0.7086614173228346,"hand":"R"},{"time":86667,"durationMs":417,"midi":79,"velocity":0.7086614173228346,"hand":"R"},{"time":87083,"durationMs":417,"midi":55,"velocity":0.7086614173228346,"hand":"L"},{"time":87083,"durationMs":417,"midi":60,"velocity":0.7086614173228346,"hand":"L"},{"time":87083,"durationMs":417,"midi":64,"velocity":0.7086614173228346,"hand":"L"},{"time":87083,"durationMs":208,"midi":69,"velocity":0.7086614173228346,"hand":"R"},{"time":87083,"durationMs":208,"midi":76,"velocity":0.7086614173228346,"hand":"R"},{"time":87083,"durationMs":208,"midi":81,"velocity":0.7086614173228346,"hand":"R"},{"time":87292,"durationMs":417,"midi":67,"velocity":0.7086614173228346,"hand":"R"},{"time":87292,"durationMs":417,"midi":76,"velocity":0.7086614173228346,"hand":"R"},{"time":87292,"durationMs":417,"midi":79,"velocity":0.7086614173228346,"hand":"R"},{"time":87500,"durationMs":417,"midi":43,"velocity":0.7086614173228346,"hand":"L"},{"time":87708,"durationMs":208,"midi":64,"velocity":0.7086614173228346,"hand":"R"},{"time":87708,"durationMs":208,"midi":72,"velocity":0.7086614173228346,"hand":"R"},{"time":87708,"durationMs":208,"midi":76,"velocity":0.7086614173228346,"hand":"R"},{"time":87917,"durationMs":417,"midi":55,"velocity":0.7086614173228346,"hand":"L"},{"time":87917,"durationMs":417,"midi":60,"velocity":0.7086614173228346,"hand":"L"},{"time":87917,"durationMs":417,"midi":64,"velocity":0.7086614173228346,"hand":"L"},{"time":87917,"durationMs":208,"midi":65,"velocity":0.7086614173228346,"hand":"R"},{"time":87917,"durationMs":208,"midi":74,"velocity":0.7086614173228346,"hand":"R"},{"time":87917,"durationMs":208,"midi":77,"velocity":0.7086614173228346,"hand":"R"},{"time":88125,"durationMs":208,"midi":66,"velocity":0.7086614173228346,"hand":"R"},{"time":88125,"durationMs":208,"midi":75,"velocity":0.7086614173228346,"hand":"R"},{"time":88125,"durationMs":208,"midi":78,"velocity":0.7086614173228346,"hand":"R"},{"time":88333,"durationMs":417,"midi":48,"velocity":0.7086614173228346,"hand":"L"},{"time":88333,"durationMs":417,"midi":67,"velocity":0.7086614173228346,"hand":"R"},{"time":88333,"durationMs":417,"midi":76,"velocity":0.7086614173228346,"hand":"R"},{"time":88333,"durationMs":417,"midi":79,"velocity":0.7086614173228346,"hand":"R"},{"time":88750,"durationMs":417,"midi":55,"velocity":0.7086614173228346,"hand":"L"},{"time":88750,"durationMs":417,"midi":60,"velocity":0.7086614173228346,"hand":"L"},{"time":88750,"durationMs":417,"midi":64,"velocity":0.7086614173228346,"hand":"L"},{"time":88750,"durationMs":208,"midi":69,"velocity":0.7086614173228346,"hand":"R"},{"time":88750,"durationMs":208,"midi":76,"velocity":0.7086614173228346,"hand":"R"},{"time":88750,"durationMs":208,"midi":81,"velocity":0.7086614173228346,"hand":"R"},{"time":88958,"durationMs":417,"midi":67,"velocity":0.7086614173228346,"hand":"R"},{"time":88958,"durationMs":417,"midi":76,"velocity":0.7086614173228346,"hand":"R"},{"time":88958,"durationMs":417,"midi":79,"velocity":0.7086614173228346,"hand":"R"},{"time":89167,"durationMs":417,"midi":43,"velocity":0.7086614173228346,"hand":"L"},{"time":89375,"durationMs":208,"midi":76,"velocity":0.7086614173228346,"hand":"R"},{"time":89583,"durationMs":417,"midi":55,"velocity":0.7086614173228346,"hand":"L"},{"time":89583,"durationMs":417,"midi":60,"velocity":0.7086614173228346,"hand":"L"},{"time":89583,"durationMs":417,"midi":64,"velocity":0.7086614173228346,"hand":"L"},{"time":89583,"durationMs":208,"midi":72,"velocity":0.7086614173228346,"hand":"R"},{"time":89792,"durationMs":208,"midi":67,"velocity":0.7086614173228346,"hand":"R"},{"time":90000,"durationMs":417,"midi":41,"velocity":0.7086614173228346,"hand":"L"},{"time":90000,"durationMs":208,"midi":69,"velocity":0.7086614173228346,"hand":"R"},{"time":90208,"durationMs":208,"midi":71,"velocity":0.7086614173228346,"hand":"R"},{"time":90417,"durationMs":417,"midi":57,"velocity":0.7086614173228346,"hand":"L"},{"time":90417,"durationMs":417,"midi":60,"velocity":0.7086614173228346,"hand":"L"},{"time":90417,"durationMs":417,"midi":65,"velocity":0.7086614173228346,"hand":"L"},{"time":90417,"durationMs":208,"midi":72,"velocity":0.7086614173228346,"hand":"R"},{"time":90625,"durationMs":208,"midi":74,"velocity":0.7086614173228346,"hand":"R"},{"time":90833,"durationMs":417,"midi":53,"velocity":0.7086614173228346,"hand":"L"},{"time":90833,"durationMs":208,"midi":76,"velocity":0.7086614173228346,"hand":"R"},{"time":91042,"durationMs":208,"midi":74,"velocity":0.7086614173228346,"hand":"R"},{"time":91250,"durationMs":417,"midi":56,"velocity":0.7086614173228346,"hand":"L"},{"time":91250,"durationMs":417,"midi":60,"velocity":0.7086614173228346,"hand":"L"},{"time":91250,"durationMs":417,"midi":65,"velocity":0.7086614173228346,"hand":"L"},{"time":91250,"durationMs":208,"midi":72,"velocity":0.7086614173228346,"hand":"R"},{"time":91458,"durationMs":208,"midi":74,"velocity":0.7086614173228346,"hand":"R"},{"time":91667,"durationMs":417,"midi":52,"velocity":0.7086614173228346,"hand":"L"},{"time":91667,"durationMs":208,"midi":67,"velocity":0.7086614173228346,"hand":"R"},{"time":91875,"durationMs":208,"midi":76,"velocity":0.7086614173228346,"hand":"R"},{"time":92083,"durationMs":417,"midi":55,"velocity":0.7086614173228346,"hand":"L"},{"time":92083,"durationMs":417,"midi":60,"velocity":0.7086614173228346,"hand":"L"},{"time":92083,"durationMs":417,"midi":64,"velocity":0.7086614173228346,"hand":"L"},{"time":92083,"durationMs":208,"midi":77,"velocity":0.7086614173228346,"hand":"R"},{"time":92292,"durationMs":208,"midi":79,"velocity":0.7086614173228346,"hand":"R"},{"time":92500,"durationMs":417,"midi":43,"velocity":0.7086614173228346,"hand":"L"},{"time":92500,"durationMs":208,"midi":81,"velocity":0.7086614173228346,"hand":"R"},{"time":92708,"durationMs":208,"midi":79,"velocity":0.7086614173228346,"hand":"R"},{"time":92917,"durationMs":417,"midi":55,"velocity":0.7086614173228346,"hand":"L"},{"time":92917,"durationMs":417,"midi":60,"velocity":0.7086614173228346,"hand":"L"},{"time":92917,"durationMs":417,"midi":64,"velocity":0.7086614173228346,"hand":"L"},{"time":92917,"durationMs":208,"midi":76,"velocity":0.7086614173228346,"hand":"R"},{"time":93125,"durationMs":208,"midi":77,"velocity":0.7086614173228346,"hand":"R"},{"time":93333,"durationMs":417,"midi":48,"velocity":0.7086614173228346,"hand":"L"},{"time":93333,"durationMs":417,"midi":67,"velocity":0.7086614173228346,"hand":"R"},{"time":93333,"durationMs":417,"midi":76,"velocity":0.7086614173228346,"hand":"R"},{"time":93333,"durationMs":417,"midi":79,"velocity":0.7086614173228346,"hand":"R"},{"time":93750,"durationMs":417,"midi":55,"velocity":0.7086614173228346,"hand":"L"},{"time":93750,"durationMs":417,"midi":60,"velocity":0.7086614173228346,"hand":"L"},{"time":93750,"durationMs":417,"midi":64,"velocity":0.7086614173228346,"hand":"L"},{"time":93750,"durationMs":208,"midi":69,"velocity":0.7086614173228346,"hand":"R"},{"time":93750,"durationMs":208,"midi":76,"velocity":0.7086614173228346,"hand":"R"},{"time":93750,"durationMs":208,"midi":81,"velocity":0.7086614173228346,"hand":"R"},{"time":93958,"durationMs":417,"midi":67,"velocity":0.7086614173228346,"hand":"R"},{"time":93958,"durationMs":417,"midi":76,"velocity":0.7086614173228346,"hand":"R"},{"time":93958,"durationMs":417,"midi":79,"velocity":0.7086614173228346,"hand":"R"},{"time":94167,"durationMs":417,"midi":43,"velocity":0.7086614173228346,"hand":"L"},{"time":94375,"durationMs":208,"midi":64,"velocity":0.7086614173228346,"hand":"R"},{"time":94375,"durationMs":208,"midi":72,"velocity":0.7086614173228346,"hand":"R"},{"time":94375,"durationMs":208,"midi":76,"velocity":0.7086614173228346,"hand":"R"},{"time":94583,"durationMs":417,"midi":55,"velocity":0.7086614173228346,"hand":"L"},{"time":94583,"durationMs":417,"midi":60,"velocity":0.7086614173228346,"hand":"L"},{"time":94583,"durationMs":417,"midi":64,"velocity":0.7086614173228346,"hand":"L"},{"time":94583,"durationMs":208,"midi":65,"velocity":0.7086614173228346,"hand":"R"},{"time":94583,"durationMs":208,"midi":74,"velocity":0.7086614173228346,"hand":"R"},{"time":94583,"durationMs":208,"midi":77,"velocity":0.7086614173228346,"hand":"R"},{"time":94792,"durationMs":208,"midi":66,"velocity":0.7086614173228346,"hand":"R"},{"time":94792,"durationMs":208,"midi":75,"velocity":0.7086614173228346,"hand":"R"},{"time":94792,"durationMs":208,"midi":78,"velocity":0.7086614173228346,"hand":"R"},{"time":95000,"durationMs":417,"midi":48,"velocity":0.7086614173228346,"hand":"L"},{"time":95000,"durationMs":417,"midi":67,"velocity":0.7086614173228346,"hand":"R"},{"time":95000,"durationMs":417,"midi":76,"velocity":0.7086614173228346,"hand":"R"},{"time":95000,"durationMs":417,"midi":79,"velocity":0.7086614173228346,"hand":"R"},{"time":95417,"durationMs":417,"midi":55,"velocity":0.7086614173228346,"hand":"L"},{"time":95417,"durationMs":417,"midi":60,"velocity":0.7086614173228346,"hand":"L"},{"time":95417,"durationMs":417,"midi":64,"velocity":0.7086614173228346,"hand":"L"},{"time":95417,"durationMs":208,"midi":69,"velocity":0.7086614173228346,"hand":"R"},{"time":95417,"durationMs":208,"midi":76,"velocity":0.7086614173228346,"hand":"R"},{"time":95417,"durationMs":208,"midi":81,"velocity":0.7086614173228346,"hand":"R"},{"time":95625,"durationMs":417,"midi":67,"velocity":0.7086614173228346,"hand":"R"},{"time":95625,"durationMs":417,"midi":76,"velocity":0.7086614173228346,"hand":"R"},{"time":95625,"durationMs":417,"midi":79,"velocity":0.7086614173228346,"hand":"R"},{"time":95833,"durationMs":417,"midi":52,"velocity":0.7086614173228346,"hand":"L"},{"time":96042,"durationMs":208,"midi":79,"velocity":0.7086614173228346,"hand":"R"},{"time":96250,"durationMs":417,"midi":51,"velocity":0.7086614173228346,"hand":"L"},{"time":96250,"durationMs":208,"midi":81,"velocity":0.7086614173228346,"hand":"R"},{"time":96458,"durationMs":208,"midi":82,"velocity":0.7086614173228346,"hand":"R"},{"time":96667,"durationMs":417,"midi":50,"velocity":0.7086614173228346,"hand":"L"},{"time":96667,"durationMs":208,"midi":74,"velocity":0.7086614173228346,"hand":"R"},{"time":96667,"durationMs":208,"midi":79,"velocity":0.7086614173228346,"hand":"R"},{"time":96667,"durationMs":208,"midi":83,"velocity":0.7086614173228346,"hand":"R"},{"time":96875,"durationMs":417,"midi":74,"velocity":0.7086614173228346,"hand":"R"},{"time":96875,"durationMs":417,"midi":79,"velocity":0.7086614173228346,"hand":"R"},{"time":96875,"durationMs":417,"midi":83,"velocity":0.7086614173228346,"hand":"R"},{"time":97083,"durationMs":417,"midi":55,"velocity":0.7086614173228346,"hand":"L"},{"time":97083,"durationMs":417,"midi":59,"velocity":0.7086614173228346,"hand":"L"},{"time":97083,"durationMs":417,"midi":62,"velocity":0.7086614173228346,"hand":"L"},{"time":97292,"durationMs":417,"midi":72,"velocity":0.7086614173228346,"hand":"R"},{"time":97292,"durationMs":417,"midi":78,"velocity":0.7086614173228346,"hand":"R"},{"time":97292,"durationMs":417,"midi":83,"velocity":0.7086614173228346,"hand":"R"},{"time":97500,"durationMs":417,"midi":50,"velocity":0.7086614173228346,"hand":"L"},{"time":97708,"durationMs":208,"midi":81,"velocity":0.7086614173228346,"hand":"R"},{"time":97917,"durationMs":417,"midi":57,"velocity":0.7086614173228346,"hand":"L"},{"time":97917,"durationMs":417,"midi":60,"velocity":0.7086614173228346,"hand":"L"},{"time":97917,"durationMs":417,"midi":62,"velocity":0.7086614173228346,"hand":"L"},{"time":97917,"durationMs":208,"midi":72,"velocity":0.7086614173228346,"hand":"R"},{"time":97917,"durationMs":208,"midi":78,"velocity":0.7086614173228346,"hand":"R"},{"time":98125,"durationMs":208,"midi":74,"velocity":0.7086614173228346,"hand":"R"},{"time":98333,"durationMs":417,"midi":55,"velocity":0.7086614173228346,"hand":"L"},{"time":98333,"durationMs":417,"midi":59,"velocity":0.7086614173228346,"hand":"L"},{"time":98333,"durationMs":417,"midi":62,"velocity":0.7086614173228346,"hand":"L"},{"time":98333,"durationMs":1042,"midi":71,"velocity":0.7086614173228346,"hand":"R"},{"time":98333,"durationMs":1042,"midi":79,"velocity":0.7086614173228346,"hand":"R"},{"time":98750,"durationMs":417,"midi":41,"velocity":0.7086614173228346,"hand":"L"},{"time":98750,"durationMs":417,"midi":53,"velocity":0.7086614173228346,"hand":"L"},{"time":99167,"durationMs":417,"midi":40,"velocity":0.7086614173228346,"hand":"L"},{"time":99167,"durationMs":417,"midi":52,"velocity":0.7086614173228346,"hand":"L"},{"time":99375,"durationMs":208,"midi":64,"velocity":0.7086614173228346,"hand":"R"},{"time":99375,"durationMs":208,"midi":72,"velocity":0.7086614173228346,"hand":"R"},{"time":99375,"durationMs":208,"midi":76,"velocity":0.7086614173228346,"hand":"R"},{"time":99583,"durationMs":417,"midi":38,"velocity":0.7086614173228346,"hand":"L"},{"time":99583,"durationMs":417,"midi":50,"velocity":0.7086614173228346,"hand":"L"},{"time":99583,"durationMs":208,"midi":65,"velocity":0.7086614173228346,"hand":"R"},{"time":99583,"durationMs":208,"midi":74,"velocity":0.7086614173228346,"hand":"R"},{"time":99583,"durationMs":208,"midi":77,"velocity":0.7086614173228346,"hand":"R"},{"time":99792,"durationMs":208,"midi":66,"velocity":0.7086614173228346,"hand":"R"},{"time":99792,"durationMs":208,"midi":75,"velocity":0.7086614173228346,"hand":"R"},{"time":99792,"durationMs":208,"midi":78,"velocity":0.7086614173228346,"hand":"R"},{"time":100000,"durationMs":417,"midi":36,"velocity":0.7086614173228346,"hand":"L"},{"time":100000,"durationMs":417,"midi":48,"velocity":0.7086614173228346,"hand":"L"},{"time":100000,"durationMs":417,"midi":67,"velocity":0.7086614173228346,"hand":"R"},{"time":100000,"durationMs":417,"midi":76,"velocity":0.7086614173228346,"hand":"R"},{"time":100000,"durationMs":417,"midi":79,"velocity":0.7086614173228346,"hand":"R"},{"time":100417,"durationMs":417,"midi":55,"velocity":0.7086614173228346,"hand":"L"},{"time":100417,"durationMs":417,"midi":60,"velocity":0.7086614173228346,"hand":"L"},{"time":100417,"durationMs":417,"midi":64,"velocity":0.7086614173228346,"hand":"L"},{"time":100417,"durationMs":208,"midi":69,"velocity":0.7086614173228346,"hand":"R"},{"time":100417,"durationMs":208,"midi":76,"velocity":0.7086614173228346,"hand":"R"},{"time":100417,"durationMs":208,"midi":81,"velocity":0.7086614173228346,"hand":"R"},{"time":100625,"durationMs":417,"midi":67,"velocity":0.7086614173228346,"hand":"R"},{"time":100625,"durationMs":417,"midi":76,"velocity":0.7086614173228346,"hand":"R"},{"time":100625,"durationMs":417,"midi":79,"velocity":0.7086614173228346,"hand":"R"},{"time":100833,"durationMs":417,"midi":43,"velocity":0.7086614173228346,"hand":"L"},{"time":101042,"durationMs":208,"midi":64,"velocity":0.7086614173228346,"hand":"R"},{"time":101042,"durationMs":208,"midi":72,"velocity":0.7086614173228346,"hand":"R"},{"time":101042,"durationMs":208,"midi":76,"velocity":0.7086614173228346,"hand":"R"},{"time":101250,"durationMs":417,"midi":55,"velocity":0.7086614173228346,"hand":"L"},{"time":101250,"durationMs":417,"midi":60,"velocity":0.7086614173228346,"hand":"L"},{"time":101250,"durationMs":417,"midi":64,"velocity":0.7086614173228346,"hand":"L"},{"time":101250,"durationMs":208,"midi":65,"velocity":0.7086614173228346,"hand":"R"},{"time":101250,"durationMs":208,"midi":74,"velocity":0.7086614173228346,"hand":"R"},{"time":101250,"durationMs":208,"midi":77,"velocity":0.7086614173228346,"hand":"R"},{"time":101458,"durationMs":208,"midi":66,"velocity":0.7086614173228346,"hand":"R"},{"time":101458,"durationMs":208,"midi":75,"velocity":0.7086614173228346,"hand":"R"},{"time":101458,"durationMs":208,"midi":78,"velocity":0.7086614173228346,"hand":"R"},{"time":101667,"durationMs":417,"midi":48,"velocity":0.7086614173228346,"hand":"L"},{"time":101667,"durationMs":417,"midi":67,"velocity":0.7086614173228346,"hand":"R"},{"time":101667,"durationMs":417,"midi":76,"velocity":0.7086614173228346,"hand":"R"},{"time":101667,"durationMs":417,"midi":79,"velocity":0.7086614173228346,"hand":"R"},{"time":102083,"durationMs":417,"midi":55,"velocity":0.7086614173228346,"hand":"L"},{"time":102083,"durationMs":417,"midi":60,"velocity":0.7086614173228346,"hand":"L"},{"time":102083,"durationMs":417,"midi":64,"velocity":0.7086614173228346,"hand":"L"},{"time":102083,"durationMs":208,"midi":69,"velocity":0.7086614173228346,"hand":"R"},{"time":102083,"durationMs":208,"midi":76,"velocity":0.7086614173228346,"hand":"R"},{"time":102083,"durationMs":208,"midi":81,"velocity":0.7086614173228346,"hand":"R"},{"time":102292,"durationMs":417,"midi":67,"velocity":0.7086614173228346,"hand":"R"},{"time":102292,"durationMs":417,"midi":76,"velocity":0.7086614173228346,"hand":"R"},{"time":102292,"durationMs":417,"midi":79,"velocity":0.7086614173228346,"hand":"R"},{"time":102500,"durationMs":417,"midi":43,"velocity":0.7086614173228346,"hand":"L"},{"time":102708,"durationMs":208,"midi":76,"velocity":0.7086614173228346,"hand":"R"},{"time":102917,"durationMs":417,"midi":55,"velocity":0.7086614173228346,"hand":"L"},{"time":102917,"durationMs":417,"midi":60,"velocity":0.7086614173228346,"hand":"L"},{"time":102917,"durationMs":417,"midi":64,"velocity":0.7086614173228346,"hand":"L"},{"time":102917,"durationMs":208,"midi":72,"velocity":0.7086614173228346,"hand":"R"},{"time":103125,"durationMs":208,"midi":67,"velocity":0.7086614173228346,"hand":"R"},{"time":103333,"durationMs":417,"midi":41,"velocity":0.7086614173228346,"hand":"L"},{"time":103333,"durationMs":208,"midi":69,"velocity":0.7086614173228346,"hand":"R"},{"time":103542,"durationMs":208,"midi":71,"velocity":0.7086614173228346,"hand":"R"},{"time":103750,"durationMs":417,"midi":57,"velocity":0.7086614173228346,"hand":"L"},{"time":103750,"durationMs":417,"midi":60,"velocity":0.7086614173228346,"hand":"L"},{"time":103750,"durationMs":417,"midi":65,"velocity":0.7086614173228346,"hand":"L"},{"time":103750,"durationMs":208,"midi":72,"velocity":0.7086614173228346,"hand":"R"},{"time":103958,"durationMs":208,"midi":74,"velocity":0.7086614173228346,"hand":"R"},{"time":104167,"durationMs":417,"midi":53,"velocity":0.7086614173228346,"hand":"L"},{"time":104167,"durationMs":208,"midi":76,"velocity":0.7086614173228346,"hand":"R"},{"time":104375,"durationMs":208,"midi":74,"velocity":0.7086614173228346,"hand":"R"},{"time":104583,"durationMs":417,"midi":56,"velocity":0.7086614173228346,"hand":"L"},{"time":104583,"durationMs":417,"midi":60,"velocity":0.7086614173228346,"hand":"L"},{"time":104583,"durationMs":417,"midi":65,"velocity":0.7086614173228346,"hand":"L"},{"time":104583,"durationMs":208,"midi":72,"velocity":0.7086614173228346,"hand":"R"},{"time":104792,"durationMs":208,"midi":74,"velocity":0.7086614173228346,"hand":"R"},{"time":105000,"durationMs":417,"midi":52,"velocity":0.7086614173228346,"hand":"L"},{"time":105000,"durationMs":1042,"midi":72,"velocity":0.7086614173228346,"hand":"R"},{"time":105417,"durationMs":417,"midi":55,"velocity":0.7086614173228346,"hand":"L"},{"time":105417,"durationMs":417,"midi":60,"velocity":0.7086614173228346,"hand":"L"},{"time":105417,"durationMs":417,"midi":64,"velocity":0.7086614173228346,"hand":"L"},{"time":105833,"durationMs":417,"midi":48,"velocity":0.7086614173228346,"hand":"L"},{"time":106042,"durationMs":208,"midi":67,"velocity":0.7086614173228346,"hand":"R"},{"time":106250,"durationMs":417,"midi":58,"velocity":0.7086614173228346,"hand":"L"},{"time":106250,"durationMs":417,"midi":60,"velocity":0.7086614173228346,"hand":"L"},{"time":106250,"durationMs":417,"midi":64,"velocity":0.7086614173228346,"hand":"L"},{"time":106250,"durationMs":208,"midi":66,"velocity":0.7086614173228346,"hand":"R"},{"time":106458,"durationMs":208,"midi":67,"velocity":0.7086614173228346,"hand":"R"},{"time":106667,"durationMs":417,"midi":53,"velocity":0.7086614173228346,"hand":"L"},{"time":106667,"durationMs":417,"midi":57,"velocity":0.7086614173228346,"hand":"L"},{"time":106667,"durationMs":417,"midi":60,"velocity":0.7086614173228346,"hand":"L"},{"time":106667,"durationMs":417,"midi":65,"velocity":0.7086614173228346,"hand":"L"},{"time":106667,"durationMs":417,"midi":72,"velocity":0.7086614173228346,"hand":"R"},{"time":107083,"durationMs":417,"midi":53,"velocity":0.7086614173228346,"hand":"L"},{"time":107083,"durationMs":417,"midi":57,"velocity":0.7086614173228346,"hand":"L"},{"time":107083,"durationMs":417,"midi":60,"velocity":0.7086614173228346,"hand":"L"},{"time":107083,"durationMs":417,"midi":65,"velocity":0.7086614173228346,"hand":"L"},{"time":107083,"durationMs":208,"midi":69,"velocity":0.7086614173228346,"hand":"R"},{"time":107292,"durationMs":417,"midi":72,"velocity":0.7086614173228346,"hand":"R"},{"time":107500,"durationMs":417,"midi":54,"velocity":0.7086614173228346,"hand":"L"},{"time":107500,"durationMs":417,"midi":57,"velocity":0.7086614173228346,"hand":"L"},{"time":107500,"durationMs":417,"midi":60,"velocity":0.7086614173228346,"hand":"L"},{"time":107500,"durationMs":417,"midi":63,"velocity":0.7086614173228346,"hand":"L"},{"time":107708,"durationMs":208,"midi":69,"velocity":0.7086614173228346,"hand":"R"},{"time":107917,"durationMs":417,"midi":54,"velocity":0.7086614173228346,"hand":"L"},{"time":107917,"durationMs":417,"midi":57,"velocity":0.7086614173228346,"hand":"L"},{"time":107917,"durationMs":417,"midi":60,"velocity":0.7086614173228346,"hand":"L"},{"time":107917,"durationMs":417,"midi":63,"velocity":0.7086614173228346,"hand":"L"},{"time":107917,"durationMs":208,"midi":72,"velocity":0.7086614173228346,"hand":"R"},{"time":108125,"durationMs":208,"midi":69,"velocity":0.7086614173228346,"hand":"R"},{"time":108333,"durationMs":417,"midi":55,"velocity":0.7086614173228346,"hand":"L"},{"time":108333,"durationMs":417,"midi":60,"velocity":0.7086614173228346,"hand":"L"},{"time":108333,"durationMs":417,"midi":64,"velocity":0.7086614173228346,"hand":"L"},{"time":108333,"durationMs":208,"midi":67,"velocity":0.7086614173228346,"hand":"R"},{"time":108542,"durationMs":208,"midi":72,"velocity":0.7086614173228346,"hand":"R"},{"time":108750,"durationMs":417,"midi":55,"velocity":0.7086614173228346,"hand":"L"},{"time":108750,"durationMs":417,"midi":60,"velocity":0.7086614173228346,"hand":"L"},{"time":108750,"durationMs":417,"midi":64,"velocity":0.7086614173228346,"hand":"L"},{"time":108750,"durationMs":208,"midi":76,"velocity":0.7086614173228346,"hand":"R"},{"time":108958,"durationMs":417,"midi":79,"velocity":0.7086614173228346,"hand":"R"},{"time":109167,"durationMs":417,"midi":55,"velocity":0.7086614173228346,"hand":"L"},{"time":109167,"durationMs":417,"midi":60,"velocity":0.7086614173228346,"hand":"L"},{"time":109167,"durationMs":417,"midi":64,"velocity":0.7086614173228346,"hand":"L"},{"time":109375,"durationMs":208,"midi":76,"velocity":0.7086614173228346,"hand":"R"},{"time":109583,"durationMs":417,"midi":55,"velocity":0.7086614173228346,"hand":"L"},{"time":109583,"durationMs":417,"midi":60,"velocity":0.7086614173228346,"hand":"L"},{"time":109583,"durationMs":417,"midi":64,"velocity":0.7086614173228346,"hand":"L"},{"time":109583,"durationMs":208,"midi":72,"velocity":0.7086614173228346,"hand":"R"},{"time":109792,"durationMs":208,"midi":67,"velocity":0.7086614173228346,"hand":"R"},{"time":110000,"durationMs":417,"midi":50,"velocity":0.7086614173228346,"hand":"L"},{"time":110000,"durationMs":417,"midi":60,"velocity":0.7086614173228346,"hand":"L"},{"time":110000,"durationMs":417,"midi":66,"velocity":0.7086614173228346,"hand":"R"},{"time":110000,"durationMs":417,"midi":69,"velocity":0.7086614173228346,"hand":"R"},{"time":110417,"durationMs":417,"midi":50,"velocity":0.7086614173228346,"hand":"L"},{"time":110417,"durationMs":417,"midi":57,"velocity":0.7086614173228346,"hand":"L"},{"time":110417,"durationMs":417,"midi":66,"velocity":0.7086614173228346,"hand":"R"},{"time":110417,"durationMs":417,"midi":72,"velocity":0.7086614173228346,"hand":"R"},{"time":110833,"durationMs":417,"midi":55,"velocity":0.7086614173228346,"hand":"L"},{"time":110833,"durationMs":417,"midi":59,"velocity":0.7086614173228346,"hand":"L"},{"time":110833,"durationMs":208,"midi":65,"velocity":0.7086614173228346,"hand":"R"},{"time":110833,"durationMs":208,"midi":76,"velocity":0.7086614173228346,"hand":"R"},{"time":111042,"durationMs":417,"midi":65,"velocity":0.7086614173228346,"hand":"R"},{"time":111042,"durationMs":417,"midi":74,"velocity":0.7086614173228346,"hand":"R"},{"time":111250,"durationMs":417,"midi":55,"velocity":0.7086614173228346,"hand":"L"},{"time":111250,"durationMs":417,"midi":59,"velocity":0.7086614173228346,"hand":"L"},{"time":111458,"durationMs":1458,"midi":64,"velocity":0.7086614173228346,"hand":"R"},{"time":111458,"durationMs":1458,"midi":72,"velocity":0.7086614173228346,"hand":"R"},{"time":111667,"durationMs":417,"midi":48,"velocity":0.7086614173228346,"hand":"L"},{"time":111667,"durationMs":417,"midi":60,"velocity":0.7086614173228346,"hand":"L"},{"time":112083,"durationMs":417,"midi":43,"velocity":0.7086614173228346,"hand":"L"},{"time":112083,"durationMs":417,"midi":55,"velocity":0.7086614173228346,"hand":"L"},{"time":112500,"durationMs":417,"midi":36,"velocity":0.7086614173228346,"hand":"L"},{"time":112500,"durationMs":417,"midi":48,"velocity":0.7086614173228346,"hand":"L"},{"time":112917,"durationMs":208,"midi":62,"velocity":0.7086614173228346,"hand":"R"},{"time":113125,"durationMs":208,"midi":63,"velocity":0.7086614173228346,"hand":"R"},{"time":113333,"durationMs":417,"midi":48,"velocity":0.7086614173228346,"hand":"L"},{"time":113333,"durationMs":208,"midi":64,"velocity":0.7086614173228346,"hand":"R"},{"time":113542,"durationMs":417,"midi":72,"velocity":0.7086614173228346,"hand":"R"},{"time":113750,"durationMs":417,"midi":52,"velocity":0.7086614173228346,"hand":"L"},{"time":113750,"durationMs":417,"midi":55,"velocity":0.7086614173228346,"hand":"L"},{"time":113750,"durationMs":417,"midi":60,"velocity":0.7086614173228346,"hand":"L"},{"time":113958,"durationMs":208,"midi":64,"velocity":0.7086614173228346,"hand":"R"},{"time":114167,"durationMs":417,"midi":43,"velocity":0.7086614173228346,"hand":"L"},{"time":114167,"durationMs":417,"midi":55,"velocity":0.7086614173228346,"hand":"L"},{"time":114167,"durationMs":417,"midi":72,"velocity":0.7086614173228346,"hand":"R"},{"time":114583,"durationMs":417,"midi":55,"velocity":0.7086614173228346,"hand":"L"},{"time":114583,"durationMs":417,"midi":58,"velocity":0.7086614173228346,"hand":"L"},{"time":114583,"durationMs":417,"midi":60,"velocity":0.7086614173228346,"hand":"L"},{"time":114583,"durationMs":208,"midi":64,"velocity":0.7086614173228346,"hand":"R"},{"time":114792,"durationMs":1250,"midi":72,"velocity":0.7086614173228346,"hand":"R"},{"time":115000,"durationMs":417,"midi":41,"velocity":0.7086614173228346,"hand":"L"},{"time":115000,"durationMs":417,"midi":53,"velocity":0.7086614173228346,"hand":"L"},{"time":115417,"durationMs":417,"midi":57,"velocity":0.7086614173228346,"hand":"L"},{"time":115417,"durationMs":417,"midi":60,"velocity":0.7086614173228346,"hand":"L"},{"time":115833,"durationMs":417,"midi":40,"velocity":0.7086614173228346,"hand":"L"},{"time":115833,"durationMs":417,"midi":52,"velocity":0.7086614173228346,"hand":"L"},{"time":116042,"durationMs":208,"midi":72,"velocity":0.7086614173228346,"hand":"R"},{"time":116042,"durationMs":208,"midi":76,"velocity":0.7086614173228346,"hand":"R"},{"time":116042,"durationMs":208,"midi":84,"velocity":0.7086614173228346,"hand":"R"},{"time":116250,"durationMs":417,"midi":55,"velocity":0.7086614173228346,"hand":"L"},{"time":116250,"durationMs":417,"midi":60,"velocity":0.7086614173228346,"hand":"L"},{"time":116250,"durationMs":208,"midi":74,"velocity":0.7086614173228346,"hand":"R"},{"time":116250,"durationMs":208,"midi":77,"velocity":0.7086614173228346,"hand":"R"},{"time":116250,"durationMs":208,"midi":86,"velocity":0.7086614173228346,"hand":"R"},{"time":116458,"durationMs":208,"midi":75,"velocity":0.7086614173228346,"hand":"R"},{"time":116458,"durationMs":208,"midi":78,"velocity":0.7086614173228346,"hand":"R"},{"time":116458,"durationMs":208,"midi":87,"velocity":0.7086614173228346,"hand":"R"},{"time":116667,"durationMs":417,"midi":43,"velocity":0.7086614173228346,"hand":"L"},{"time":116667,"durationMs":208,"midi":76,"velocity":0.7086614173228346,"hand":"R"},{"time":116667,"durationMs":208,"midi":79,"velocity":0.7086614173228346,"hand":"R"},{"time":116667,"durationMs":208,"midi":88,"velocity":0.7086614173228346,"hand":"R"},{"time":116875,"durationMs":208,"midi":72,"velocity":0.7086614173228346,"hand":"R"},{"time":116875,"durationMs":208,"midi":76,"velocity":0.7086614173228346,"hand":"R"},{"time":116875,"durationMs":208,"midi":84,"velocity":0.7086614173228346,"hand":"R"},{"time":117083,"durationMs":417,"midi":52,"velocity":0.7086614173228346,"hand":"L"},{"time":117083,"durationMs":417,"midi":55,"velocity":0.7086614173228346,"hand":"L"},{"time":117083,"durationMs":417,"midi":60,"velocity":0.7086614173228346,"hand":"L"},{"time":117083,"durationMs":208,"midi":74,"velocity":0.7086614173228346,"hand":"R"},{"time":117083,"durationMs":208,"midi":77,"velocity":0.7086614173228346,"hand":"R"},{"time":117083,"durationMs":208,"midi":86,"velocity":0.7086614173228346,"hand":"R"},{"time":117292,"durationMs":417,"midi":76,"velocity":0.7086614173228346,"hand":"R"},{"time":117292,"durationMs":417,"midi":79,"velocity":0.7086614173228346,"hand":"R"},{"time":117292,"durationMs":417,"midi":88,"velocity":0.7086614173228346,"hand":"R"},{"time":117500,"durationMs":417,"midi":43,"velocity":0.7086614173228346,"hand":"L"},{"time":117708,"durationMs":208,"midi":71,"velocity":0.7086614173228346,"hand":"R"},{"time":117708,"durationMs":208,"midi":74,"velocity":0.7086614173228346,"hand":"R"},{"time":117708,"durationMs":208,"midi":83,"velocity":0.7086614173228346,"hand":"R"},{"time":117917,"durationMs":417,"midi":53,"velocity":0.7086614173228346,"hand":"L"},{"time":117917,"durationMs":417,"midi":55,"velocity":0.7086614173228346,"hand":"L"},{"time":117917,"durationMs":417,"midi":59,"velocity":0.7086614173228346,"hand":"L"},{"time":117917,"durationMs":417,"midi":74,"velocity":0.7086614173228346,"hand":"R"},{"time":117917,"durationMs":417,"midi":77,"velocity":0.7086614173228346,"hand":"R"},{"time":117917,"durationMs":417,"midi":86,"velocity":0.7086614173228346,"hand":"R"},{"time":118333,"durationMs":417,"midi":48,"velocity":0.7086614173228346,"hand":"L"},{"time":118333,"durationMs":1250,"midi":72,"velocity":0.7086614173228346,"hand":"R"},{"time":118333,"durationMs":1250,"midi":76,"velocity":0.7086614173228346,"hand":"R"},{"time":118333,"durationMs":1250,"midi":84,"velocity":0.7086614173228346,"hand":"R"},{"time":118750,"durationMs":417,"midi":52,"velocity":0.7086614173228346,"hand":"L"},{"time":118750,"durationMs":417,"midi":55,"velocity":0.7086614173228346,"hand":"L"},{"time":118750,"durationMs":417,"midi":60,"velocity":0.7086614173228346,"hand":"L"},{"time":119167,"durationMs":417,"midi":52,"velocity":0.7086614173228346,"hand":"L"},{"time":119167,"durationMs":417,"midi":55,"velocity":0.7086614173228346,"hand":"L"},{"time":119167,"durationMs":417,"midi":60,"velocity":0.7086614173228346,"hand":"L"},{"time":119583,"durationMs":417,"midi":55,"velocity":0.7086614173228346,"hand":"L"},{"time":119583,"durationMs":417,"midi":59,"velocity":0.7086614173228346,"hand":"L"},{"time":119583,"durationMs":208,"midi":62,"velocity":0.7086614173228346,"hand":"R"},{"time":119792,"durationMs":208,"midi":63,"velocity":0.7086614173228346,"hand":"R"},{"time":120000,"durationMs":417,"midi":48,"velocity":0.7086614173228346,"hand":"L"},{"time":120000,"durationMs":208,"midi":64,"velocity":0.7086614173228346,"hand":"R"},{"time":120208,"durationMs":417,"midi":72,"velocity":0.7086614173228346,"hand":"R"},{"time":120417,"durationMs":417,"midi":52,"velocity":0.7086614173228346,"hand":"L"},{"time":120417,"durationMs":417,"midi":55,"velocity":0.7086614173228346,"hand":"L"},{"time":120417,"durationMs":417,"midi":60,"velocity":0.7086614173228346,"hand":"L"},{"time":120625,"durationMs":208,"midi":64,"velocity":0.7086614173228346,"hand":"R"},{"time":120833,"durationMs":417,"midi":43,"velocity":0.7086614173228346,"hand":"L"},{"time":120833,"durationMs":417,"midi":55,"velocity":0.7086614173228346,"hand":"L"},{"time":120833,"durationMs":417,"midi":72,"velocity":0.7086614173228346,"hand":"R"},{"time":121250,"durationMs":417,"midi":55,"velocity":0.7086614173228346,"hand":"L"},{"time":121250,"durationMs":417,"midi":58,"velocity":0.7086614173228346,"hand":"L"},{"time":121250,"durationMs":417,"midi":60,"velocity":0.7086614173228346,"hand":"L"},{"time":121250,"durationMs":208,"midi":64,"velocity":0.7086614173228346,"hand":"R"},{"time":121458,"durationMs":1458,"midi":72,"velocity":0.7086614173228346,"hand":"R"},{"time":121667,"durationMs":417,"midi":41,"velocity":0.7086614173228346,"hand":"L"},{"time":121667,"durationMs":417,"midi":53,"velocity":0.7086614173228346,"hand":"L"},{"time":122083,"durationMs":417,"midi":57,"velocity":0.7086614173228346,"hand":"L"},{"time":122083,"durationMs":417,"midi":60,"velocity":0.7086614173228346,"hand":"L"},{"time":122500,"durationMs":417,"midi":40,"velocity":0.7086614173228346,"hand":"L"},{"time":122500,"durationMs":417,"midi":52,"velocity":0.7086614173228346,"hand":"L"},{"time":122917,"durationMs":417,"midi":39,"velocity":0.7086614173228346,"hand":"L"},{"time":122917,"durationMs":417,"midi":51,"velocity":0.7086614173228346,"hand":"L"},{"time":122917,"durationMs":208,"midi":69,"velocity":0.7086614173228346,"hand":"R"},{"time":122917,"durationMs":208,"midi":72,"velocity":0.7086614173228346,"hand":"R"},{"time":122917,"durationMs":208,"midi":81,"velocity":0.7086614173228346,"hand":"R"},{"time":123125,"durationMs":208,"midi":67,"velocity":0.7086614173228346,"hand":"R"},{"time":123125,"durationMs":208,"midi":72,"velocity":0.7086614173228346,"hand":"R"},{"time":123125,"durationMs":208,"midi":79,"velocity":0.7086614173228346,"hand":"R"},{"time":123333,"durationMs":417,"midi":38,"velocity":0.7086614173228346,"hand":"L"},{"time":123333,"durationMs":417,"midi":50,"velocity":0.7086614173228346,"hand":"L"},{"time":123333,"durationMs":208,"midi":66,"velocity":0.7086614173228346,"hand":"R"},{"time":123333,"durationMs":208,"midi":72,"velocity":0.7086614173228346,"hand":"R"},{"time":123333,"durationMs":208,"midi":78,"velocity":0.7086614173228346,"hand":"R"},{"time":123542,"durationMs":208,"midi":69,"velocity":0.7086614173228346,"hand":"R"},{"time":123542,"durationMs":208,"midi":81,"velocity":0.7086614173228346,"hand":"R"},{"time":123750,"durationMs":417,"midi":50,"velocity":0.7086614173228346,"hand":"L"},{"time":123750,"durationMs":417,"midi":54,"velocity":0.7086614173228346,"hand":"L"},{"time":123750,"durationMs":417,"midi":57,"velocity":0.7086614173228346,"hand":"L"},{"time":123750,"durationMs":417,"midi":60,"velocity":0.7086614173228346,"hand":"L"},{"time":123750,"durationMs":208,"midi":72,"velocity":0.7086614173228346,"hand":"R"},{"time":123750,"durationMs":208,"midi":84,"velocity":0.7086614173228346,"hand":"R"},{"time":123958,"durationMs":417,"midi":76,"velocity":0.7086614173228346,"hand":"R"},{"time":123958,"durationMs":417,"midi":88,"velocity":0.7086614173228346,"hand":"R"},{"time":124167,"durationMs":417,"midi":50,"velocity":0.7086614173228346,"hand":"L"},{"time":124375,"durationMs":208,"midi":74,"velocity":0.7086614173228346,"hand":"R"},{"time":124375,"durationMs":208,"midi":86,"velocity":0.7086614173228346,"hand":"R"},{"time":124583,"durationMs":417,"midi":54,"velocity":0.7086614173228346,"hand":"L"},{"time":124583,"durationMs":417,"midi":57,"velocity":0.7086614173228346,"hand":"L"},{"time":124583,"durationMs":417,"midi":60,"velocity":0.7086614173228346,"hand":"L"},{"time":124583,"durationMs":208,"midi":72,"velocity":0.7086614173228346,"hand":"R"},{"time":124583,"durationMs":208,"midi":84,"velocity":0.7086614173228346,"hand":"R"},{"time":124792,"durationMs":208,"midi":69,"velocity":0.7086614173228346,"hand":"R"},{"time":124792,"durationMs":208,"midi":81,"velocity":0.7086614173228346,"hand":"R"},{"time":125000,"durationMs":417,"midi":55,"velocity":0.7086614173228346,"hand":"L"},{"time":125000,"durationMs":417,"midi":59,"velocity":0.7086614173228346,"hand":"L"},{"time":125000,"durationMs":1250,"midi":74,"velocity":0.7086614173228346,"hand":"R"},{"time":125000,"durationMs":1250,"midi":77,"velocity":0.7086614173228346,"hand":"R"},{"time":125000,"durationMs":1250,"midi":86,"velocity":0.7086614173228346,"hand":"R"},{"time":125417,"durationMs":417,"midi":43,"velocity":0.7086614173228346,"hand":"L"},{"time":125417,"durationMs":417,"midi":55,"velocity":0.7086614173228346,"hand":"L"},{"time":125833,"durationMs":417,"midi":45,"velocity":0.7086614173228346,"hand":"L"},{"time":125833,"durationMs":417,"midi":57,"velocity":0.7086614173228346,"hand":"L"},{"time":126250,"durationMs":417,"midi":47,"velocity":0.7086614173228346,"hand":"L"},{"time":126250,"durationMs":417,"midi":59,"velocity":0.7086614173228346,"hand":"L"},{"time":126250,"durationMs":208,"midi":62,"velocity":0.7086614173228346,"hand":"R"},{"time":126458,"durationMs":208,"midi":63,"velocity":0.7086614173228346,"hand":"R"},{"time":126667,"durationMs":417,"midi":48,"velocity":0.7086614173228346,"hand":"L"},{"time":126667,"durationMs":208,"midi":64,"velocity":0.7086614173228346,"hand":"R"},{"time":126875,"durationMs":417,"midi":72,"velocity":0.7086614173228346,"hand":"R"},{"time":127083,"durationMs":417,"midi":52,"velocity":0.7086614173228346,"hand":"L"},{"time":127083,"durationMs":417,"midi":55,"velocity":0.7086614173228346,"hand":"L"},{"time":127083,"durationMs":417,"midi":60,"velocity":0.7086614173228346,"hand":"L"},{"time":127292,"durationMs":208,"midi":64,"velocity":0.7086614173228346,"hand":"R"},{"time":127500,"durationMs":417,"midi":43,"velocity":0.7086614173228346,"hand":"L"},{"time":127500,"durationMs":417,"midi":55,"velocity":0.7086614173228346,"hand":"L"},{"time":127500,"durationMs":417,"midi":72,"velocity":0.7086614173228346,"hand":"R"},{"time":127917,"durationMs":417,"midi":55,"velocity":0.7086614173228346,"hand":"L"},{"time":127917,"durationMs":417,"midi":58,"velocity":0.7086614173228346,"hand":"L"},{"time":127917,"durationMs":417,"midi":60,"velocity":0.7086614173228346,"hand":"L"},{"time":127917,"durationMs":208,"midi":64,"velocity":0.7086614173228346,"hand":"R"},{"time":128125,"durationMs":1250,"midi":72,"velocity":0.7086614173228346,"hand":"R"},{"time":128333,"durationMs":417,"midi":41,"velocity":0.7086614173228346,"hand":"L"},{"time":128333,"durationMs":417,"midi":53,"velocity":0.7086614173228346,"hand":"L"},{"time":128750,"durationMs":417,"midi":57,"velocity":0.7086614173228346,"hand":"L"},{"time":128750,"durationMs":417,"midi":60,"velocity":0.7086614173228346,"hand":"L"},{"time":129167,"durationMs":417,"midi":40,"velocity":0.7086614173228346,"hand":"L"},{"time":129167,"durationMs":417,"midi":52,"velocity":0.7086614173228346,"hand":"L"},{"time":129375,"durationMs":208,"midi":72,"velocity":0.7086614173228346,"hand":"R"},{"time":129375,"durationMs":208,"midi":76,"velocity":0.7086614173228346,"hand":"R"},{"time":129375,"durationMs":208,"midi":84,"velocity":0.7086614173228346,"hand":"R"},{"time":129583,"durationMs":417,"midi":55,"velocity":0.7086614173228346,"hand":"L"},{"time":129583,"durationMs":417,"midi":60,"velocity":0.7086614173228346,"hand":"L"},{"time":129583,"durationMs":208,"midi":74,"velocity":0.7086614173228346,"hand":"R"},{"time":129583,"durationMs":208,"midi":77,"velocity":0.7086614173228346,"hand":"R"},{"time":129583,"durationMs":208,"midi":86,"velocity":0.7086614173228346,"hand":"R"},{"time":129792,"durationMs":208,"midi":75,"velocity":0.7086614173228346,"hand":"R"},{"time":129792,"durationMs":208,"midi":78,"velocity":0.7086614173228346,"hand":"R"},{"time":129792,"durationMs":208,"midi":87,"velocity":0.7086614173228346,"hand":"R"},{"time":130000,"durationMs":417,"midi":43,"velocity":0.7086614173228346,"hand":"L"},{"time":130000,"durationMs":208,"midi":76,"velocity":0.7086614173228346,"hand":"R"},{"time":130000,"durationMs":208,"midi":79,"velocity":0.7086614173228346,"hand":"R"},{"time":130000,"durationMs":208,"midi":88,"velocity":0.7086614173228346,"hand":"R"},{"time":130208,"durationMs":208,"midi":72,"velocity":0.7086614173228346,"hand":"R"},{"time":130208,"durationMs":208,"midi":76,"velocity":0.7086614173228346,"hand":"R"},{"time":130208,"durationMs":208,"midi":84,"velocity":0.7086614173228346,"hand":"R"},{"time":130417,"durationMs":417,"midi":52,"velocity":0.7086614173228346,"hand":"L"},{"time":130417,"durationMs":417,"midi":55,"velocity":0.7086614173228346,"hand":"L"},{"time":130417,"durationMs":417,"midi":60,"velocity":0.7086614173228346,"hand":"L"},{"time":130417,"durationMs":208,"midi":74,"velocity":0.7086614173228346,"hand":"R"},{"time":130417,"durationMs":208,"midi":77,"velocity":0.7086614173228346,"hand":"R"},{"time":130417,"durationMs":208,"midi":86,"velocity":0.7086614173228346,"hand":"R"},{"time":130625,"durationMs":417,"midi":76,"velocity":0.7086614173228346,"hand":"R"},{"time":130625,"durationMs":417,"midi":79,"velocity":0.7086614173228346,"hand":"R"},{"time":130625,"durationMs":417,"midi":88,"velocity":0.7086614173228346,"hand":"R"},{"time":130833,"durationMs":417,"midi":43,"velocity":0.7086614173228346,"hand":"L"},{"time":131042,"durationMs":208,"midi":71,"velocity":0.7086614173228346,"hand":"R"},{"time":131042,"durationMs":208,"midi":74,"velocity":0.7086614173228346,"hand":"R"},{"time":131042,"durationMs":208,"midi":83,"velocity":0.7086614173228346,"hand":"R"},{"time":131250,"durationMs":417,"midi":53,"velocity":0.7086614173228346,"hand":"L"},{"time":131250,"durationMs":417,"midi":55,"velocity":0.7086614173228346,"hand":"L"},{"time":131250,"durationMs":417,"midi":59,"velocity":0.7086614173228346,"hand":"L"},{"time":131250,"durationMs":417,"midi":74,"velocity":0.7086614173228346,"hand":"R"},{"time":131250,"durationMs":417,"midi":77,"velocity":0.7086614173228346,"hand":"R"},{"time":131250,"durationMs":417,"midi":86,"velocity":0.7086614173228346,"hand":"R"},{"time":131667,"durationMs":417,"midi":48,"velocity":0.7086614173228346,"hand":"L"},{"time":131667,"durationMs":1250,"midi":72,"velocity":0.7086614173228346,"hand":"R"},{"time":131667,"durationMs":1250,"midi":76,"velocity":0.7086614173228346,"hand":"R"},{"time":131667,"durationMs":1250,"midi":84,"velocity":0.7086614173228346,"hand":"R"},{"time":132083,"durationMs":417,"midi":52,"velocity":0.7086614173228346,"hand":"L"},{"time":132083,"durationMs":417,"midi":55,"velocity":0.7086614173228346,"hand":"L"},{"time":132083,"durationMs":417,"midi":60,"velocity":0.7086614173228346,"hand":"L"},{"time":132500,"durationMs":417,"midi":55,"velocity":0.7086614173228346,"hand":"L"},{"time":132500,"durationMs":417,"midi":60,"velocity":0.7086614173228346,"hand":"L"},{"time":132500,"durationMs":417,"midi":64,"velocity":0.7086614173228346,"hand":"L"},{"time":132917,"durationMs":208,"midi":72,"velocity":0.7086614173228346,"hand":"R"},{"time":132917,"durationMs":208,"midi":84,"velocity":0.7086614173228346,"hand":"R"},{"time":133125,"durationMs":208,"midi":74,"velocity":0.7086614173228346,"hand":"R"},{"time":133125,"durationMs":208,"midi":86,"velocity":0.7086614173228346,"hand":"R"},{"time":133333,"durationMs":417,"midi":48,"velocity":0.7086614173228346,"hand":"L"},{"time":133333,"durationMs":417,"midi":60,"velocity":0.7086614173228346,"hand":"L"},{"time":133333,"durationMs":208,"midi":76,"velocity":0.7086614173228346,"hand":"R"},{"time":133333,"durationMs":208,"midi":88,"velocity":0.7086614173228346,"hand":"R"},{"time":133542,"durationMs":208,"midi":72,"velocity":0.7086614173228346,"hand":"R"},{"time":133542,"durationMs":208,"midi":84,"velocity":0.7086614173228346,"hand":"R"},{"time":133750,"durationMs":417,"midi":55,"velocity":0.7086614173228346,"hand":"L"},{"time":133750,"durationMs":417,"midi":60,"velocity":0.7086614173228346,"hand":"L"},{"time":133750,"durationMs":417,"midi":64,"velocity":0.7086614173228346,"hand":"L"},{"time":133750,"durationMs":208,"midi":74,"velocity":0.7086614173228346,"hand":"R"},{"time":133750,"durationMs":208,"midi":86,"velocity":0.7086614173228346,"hand":"R"},{"time":133958,"durationMs":417,"midi":76,"velocity":0.7086614173228346,"hand":"R"},{"time":133958,"durationMs":417,"midi":88,"velocity":0.7086614173228346,"hand":"R"},{"time":134167,"durationMs":417,"midi":46,"velocity":0.7086614173228346,"hand":"L"},{"time":134167,"durationMs":417,"midi":58,"velocity":0.7086614173228346,"hand":"L"},{"time":134375,"durationMs":208,"midi":72,"velocity":0.7086614173228346,"hand":"R"},{"time":134375,"durationMs":208,"midi":84,"velocity":0.7086614173228346,"hand":"R"},{"time":134583,"durationMs":417,"midi":55,"velocity":0.7086614173228346,"hand":"L"},{"time":134583,"durationMs":417,"midi":60,"velocity":0.7086614173228346,"hand":"L"},{"time":134583,"durationMs":417,"midi":64,"velocity":0.7086614173228346,"hand":"L"},{"time":134583,"durationMs":208,"midi":74,"velocity":0.7086614173228346,"hand":"R"},{"time":134583,"durationMs":208,"midi":86,"velocity":0.7086614173228346,"hand":"R"},{"time":134792,"durationMs":208,"midi":72,"velocity":0.7086614173228346,"hand":"R"},{"time":134792,"durationMs":208,"midi":84,"velocity":0.7086614173228346,"hand":"R"},{"time":135000,"durationMs":417,"midi":45,"velocity":0.7086614173228346,"hand":"L"},{"time":135000,"durationMs":417,"midi":57,"velocity":0.7086614173228346,"hand":"L"},{"time":135000,"durationMs":208,"midi":76,"velocity":0.7086614173228346,"hand":"R"},{"time":135000,"durationMs":208,"midi":88,"velocity":0.7086614173228346,"hand":"R"},{"time":135208,"durationMs":208,"midi":72,"velocity":0.7086614173228346,"hand":"R"},{"time":135208,"durationMs":208,"midi":84,"velocity":0.7086614173228346,"hand":"R"},{"time":135417,"durationMs":417,"midi":57,"velocity":0.7086614173228346,"hand":"L"},{"time":135417,"durationMs":417,"midi":60,"velocity":0.7086614173228346,"hand":"L"},{"time":135417,"durationMs":417,"midi":65,"velocity":0.7086614173228346,"hand":"L"},{"time":135417,"durationMs":208,"midi":74,"velocity":0.7086614173228346,"hand":"R"},{"time":135417,"durationMs":208,"midi":86,"velocity":0.7086614173228346,"hand":"R"},{"time":135625,"durationMs":417,"midi":76,"velocity":0.7086614173228346,"hand":"R"},{"time":135625,"durationMs":417,"midi":88,"velocity":0.7086614173228346,"hand":"R"},{"time":135833,"durationMs":417,"midi":44,"velocity":0.7086614173228346,"hand":"L"},{"time":135833,"durationMs":417,"midi":56,"velocity":0.7086614173228346,"hand":"L"},{"time":136042,"durationMs":208,"midi":72,"velocity":0.7086614173228346,"hand":"R"},{"time":136042,"durationMs":208,"midi":84,"velocity":0.7086614173228346,"hand":"R"},{"time":136250,"durationMs":417,"midi":56,"velocity":0.7086614173228346,"hand":"L"},{"time":136250,"durationMs":417,"midi":60,"velocity":0.7086614173228346,"hand":"L"},{"time":136250,"durationMs":417,"midi":65,"velocity":0.7086614173228346,"hand":"L"},{"time":136250,"durationMs":208,"midi":74,"velocity":0.7086614173228346,"hand":"R"},{"time":136250,"durationMs":208,"midi":86,"velocity":0.7086614173228346,"hand":"R"},{"time":136458,"durationMs":208,"midi":72,"velocity":0.7086614173228346,"hand":"R"},{"time":136458,"durationMs":208,"midi":84,"velocity":0.7086614173228346,"hand":"R"},{"time":136667,"durationMs":417,"midi":43,"velocity":0.7086614173228346,"hand":"L"},{"time":136667,"durationMs":417,"midi":55,"velocity":0.7086614173228346,"hand":"L"},{"time":136667,"durationMs":208,"midi":76,"velocity":0.7086614173228346,"hand":"R"},{"time":136667,"durationMs":208,"midi":79,"velocity":0.7086614173228346,"hand":"R"},{"time":136667,"durationMs":208,"midi":88,"velocity":0.7086614173228346,"hand":"R"},{"time":136875,"durationMs":208,"midi":72,"velocity":0.7086614173228346,"hand":"R"},{"time":136875,"durationMs":208,"midi":76,"velocity":0.7086614173228346,"hand":"R"},{"time":136875,"durationMs":208,"midi":84,"velocity":0.7086614173228346,"hand":"R"},{"time":137083,"durationMs":417,"midi":55,"velocity":0.7086614173228346,"hand":"L"},{"time":137083,"durationMs":417,"midi":60,"velocity":0.7086614173228346,"hand":"L"},{"time":137083,"durationMs":417,"midi":64,"velocity":0.7086614173228346,"hand":"L"},{"time":137083,"durationMs":208,"midi":74,"velocity":0.7086614173228346,"hand":"R"},{"time":137083,"durationMs":208,"midi":77,"velocity":0.7086614173228346,"hand":"R"},{"time":137083,"durationMs":208,"midi":86,"velocity":0.7086614173228346,"hand":"R"},{"time":137292,"durationMs":417,"midi":76,"velocity":0.7086614173228346,"hand":"R"},{"time":137292,"durationMs":417,"midi":79,"velocity":0.7086614173228346,"hand":"R"},{"time":137292,"durationMs":417,"midi":88,"velocity":0.7086614173228346,"hand":"R"},{"time":137500,"durationMs":417,"midi":43,"velocity":0.7086614173228346,"hand":"L"},{"time":137708,"durationMs":208,"midi":71,"velocity":0.7086614173228346,"hand":"R"},{"time":137708,"durationMs":208,"midi":74,"velocity":0.7086614173228346,"hand":"R"},{"time":137708,"durationMs":208,"midi":83,"velocity":0.7086614173228346,"hand":"R"},{"time":137917,"durationMs":417,"midi":55,"velocity":0.7086614173228346,"hand":"L"},{"time":137917,"durationMs":417,"midi":59,"velocity":0.7086614173228346,"hand":"L"},{"time":137917,"durationMs":417,"midi":74,"velocity":0.7086614173228346,"hand":"R"},{"time":137917,"durationMs":417,"midi":77,"velocity":0.7086614173228346,"hand":"R"},{"time":137917,"durationMs":417,"midi":86,"velocity":0.7086614173228346,"hand":"R"},{"time":138333,"durationMs":417,"midi":48,"velocity":0.7086614173228346,"hand":"L"},{"time":138333,"durationMs":417,"midi":55,"velocity":0.7086614173228346,"hand":"L"},{"time":138333,"durationMs":417,"midi":60,"velocity":0.7086614173228346,"hand":"L"},{"time":138333,"durationMs":833,"midi":72,"velocity":0.7086614173228346,"hand":"R"},{"time":138333,"durationMs":833,"midi":76,"velocity":0.7086614173228346,"hand":"R"},{"time":138333,"durationMs":833,"midi":84,"velocity":0.7086614173228346,"hand":"R"},{"time":138750,"durationMs":417,"midi":43,"velocity":0.7086614173228346,"hand":"L"},{"time":138750,"durationMs":417,"midi":55,"velocity":0.7086614173228346,"hand":"L"},{"time":139167,"durationMs":417,"midi":36,"velocity":0.7086614173228346,"hand":"L"},{"time":139167,"durationMs":417,"midi":48,"velocity":0.7086614173228346,"hand":"L"},{"time":139167,"durationMs":417,"midi":72,"velocity":0.7086614173228346,"hand":"R"},{"time":139167,"durationMs":417,"midi":76,"velocity":0.7086614173228346,"hand":"R"},{"time":139167,"durationMs":417,"midi":84,"velocity":0.7086614173228346,"hand":"R"},{"time":140000,"durationMs":417,"midi":41,"velocity":0.7086614173228346,"hand":"L"},{"time":140000,"durationMs":208,"midi":77,"velocity":0.7086614173228346,"hand":"R"},{"time":140000,"durationMs":208,"midi":81,"velocity":0.7086614173228346,"hand":"R"},{"time":140208,"durationMs":208,"midi":80,"velocity":0.7086614173228346,"hand":"R"},{"time":140417,"durationMs":417,"midi":57,"velocity":0.7086614173228346,"hand":"L"},{"time":140417,"durationMs":417,"midi":60,"velocity":0.7086614173228346,"hand":"L"},{"time":140417,"durationMs":417,"midi":65,"velocity":0.7086614173228346,"hand":"L"},{"time":140417,"durationMs":833,"midi":77,"velocity":0.7086614173228346,"hand":"R"},{"time":140417,"durationMs":833,"midi":81,"velocity":0.7086614173228346,"hand":"R"},{"time":140833,"durationMs":417,"midi":48,"velocity":0.7086614173228346,"hand":"L"},{"time":141250,"durationMs":417,"midi":57,"velocity":0.7086614173228346,"hand":"L"},{"time":141250,"durationMs":417,"midi":60,"velocity":0.7086614173228346,"hand":"L"},{"time":141250,"durationMs":417,"midi":65,"velocity":0.7086614173228346,"hand":"L"},{"time":141250,"durationMs":417,"midi":77,"velocity":0.7086614173228346,"hand":"R"},{"time":141250,"durationMs":417,"midi":81,"velocity":0.7086614173228346,"hand":"R"},{"time":141250,"durationMs":417,"midi":84,"velocity":0.7086614173228346,"hand":"R"},{"time":141667,"durationMs":417,"midi":46,"velocity":0.7086614173228346,"hand":"L"},{"time":141667,"durationMs":1667,"midi":77,"velocity":0.7086614173228346,"hand":"R"},{"time":141667,"durationMs":1667,"midi":82,"velocity":0.7086614173228346,"hand":"R"},{"time":141667,"durationMs":1667,"midi":86,"velocity":0.7086614173228346,"hand":"R"},{"time":142083,"durationMs":417,"midi":58,"velocity":0.7086614173228346,"hand":"L"},{"time":142083,"durationMs":417,"midi":62,"velocity":0.7086614173228346,"hand":"L"},{"time":142083,"durationMs":417,"midi":65,"velocity":0.7086614173228346,"hand":"L"},{"time":142083,"durationMs":208,"midi":70,"velocity":0.7086614173228346,"hand":"R"},{"time":142292,"durationMs":208,"midi":69,"velocity":0.7086614173228346,"hand":"R"},{"time":142500,"durationMs":417,"midi":53,"velocity":0.7086614173228346,"hand":"L"},{"time":142500,"durationMs":208,"midi":70,"velocity":0.7086614173228346,"hand":"R"},{"time":142708,"durationMs":208,"midi":72,"velocity":0.7086614173228346,"hand":"R"},{"time":142917,"durationMs":417,"midi":58,"velocity":0.7086614173228346,"hand":"L"},{"time":142917,"durationMs":417,"midi":62,"velocity":0.7086614173228346,"hand":"L"},{"time":142917,"durationMs":417,"midi":65,"velocity":0.7086614173228346,"hand":"L"},{"time":142917,"durationMs":417,"midi":74,"velocity":0.7086614173228346,"hand":"R"},{"time":143333,"durationMs":417,"midi":38,"velocity":0.7086614173228346,"hand":"L"},{"time":143333,"durationMs":208,"midi":74,"velocity":0.7086614173228346,"hand":"R"},{"time":143333,"durationMs":208,"midi":77,"velocity":0.7086614173228346,"hand":"R"},{"time":143542,"durationMs":208,"midi":76,"velocity":0.7086614173228346,"hand":"R"},{"time":143750,"durationMs":417,"midi":57,"velocity":0.7086614173228346,"hand":"L"},{"time":143750,"durationMs":417,"midi":62,"velocity":0.7086614173228346,"hand":"L"},{"time":143750,"durationMs":417,"midi":65,"velocity":0.7086614173228346,"hand":"L"},{"time":143750,"durationMs":833,"midi":74,"velocity":0.7086614173228346,"hand":"R"},{"time":143750,"durationMs":833,"midi":77,"velocity":0.7086614173228346,"hand":"R"},{"time":144167,"durationMs":417,"midi":45,"velocity":0.7086614173228346,"hand":"L"},{"time":144583,"durationMs":417,"midi":57,"velocity":0.7086614173228346,"hand":"L"},{"time":144583,"durationMs":417,"midi":62,"velocity":0.7086614173228346,"hand":"L"},{"time":144583,"durationMs":417,"midi":65,"velocity":0.7086614173228346,"hand":"L"},{"time":144583,"durationMs":417,"midi":74,"velocity":0.7086614173228346,"hand":"R"},{"time":144583,"durationMs":417,"midi":77,"velocity":0.7086614173228346,"hand":"R"},{"time":144583,"durationMs":417,"midi":81,"velocity":0.7086614173228346,"hand":"R"},{"time":145000,"durationMs":417,"midi":43,"velocity":0.7086614173228346,"hand":"L"},{"time":145000,"durationMs":1458,"midi":74,"velocity":0.7086614173228346,"hand":"R"},{"time":145000,"durationMs":1458,"midi":79,"velocity":0.7086614173228346,"hand":"R"},{"time":145000,"durationMs":1458,"midi":82,"velocity":0.7086614173228346,"hand":"R"},{"time":145417,"durationMs":417,"midi":58,"velocity":0.7086614173228346,"hand":"L"},{"time":145417,"durationMs":417,"midi":62,"velocity":0.7086614173228346,"hand":"L"},{"time":145417,"durationMs":208,"midi":67,"velocity":0.7086614173228346,"hand":"R"},{"time":145625,"durationMs":208,"midi":66,"velocity":0.7086614173228346,"hand":"R"},{"time":145833,"durationMs":417,"midi":50,"velocity":0.7086614173228346,"hand":"L"},{"time":145833,"durationMs":208,"midi":67,"velocity":0.7086614173228346,"hand":"R"},{"time":146042,"durationMs":208,"midi":69,"velocity":0.7086614173228346,"hand":"R"},{"time":146250,"durationMs":417,"midi":58,"velocity":0.7086614173228346,"hand":"L"},{"time":146250,"durationMs":417,"midi":62,"velocity":0.7086614173228346,"hand":"L"},{"time":146250,"durationMs":417,"midi":70,"velocity":0.7086614173228346,"hand":"R"},{"time":146458,"durationMs":208,"midi":79,"velocity":0.7086614173228346,"hand":"R"},{"time":146667,"durationMs":417,"midi":46,"velocity":0.7086614173228346,"hand":"L"},{"time":146667,"durationMs":417,"midi":58,"velocity":0.7086614173228346,"hand":"L"},{"time":146667,"durationMs":417,"midi":74,"velocity":0.7086614173228346,"hand":"R"},{"time":147083,"durationMs":417,"midi":58,"velocity":0.7086614173228346,"hand":"L"},{"time":147083,"durationMs":417,"midi":62,"velocity":0.7086614173228346,"hand":"L"},{"time":147083,"durationMs":208,"midi":79,"velocity":0.7086614173228346,"hand":"R"},{"time":147292,"durationMs":417,"midi":74,"velocity":0.7086614173228346,"hand":"R"},{"time":147500,"durationMs":417,"midi":43,"velocity":0.7086614173228346,"hand":"L"},{"time":147500,"durationMs":417,"midi":55,"velocity":0.7086614173228346,"hand":"L"},{"time":147708,"durationMs":208,"midi":79,"velocity":0.7086614173228346,"hand":"R"},{"time":147917,"durationMs":417,"midi":44,"velocity":0.7086614173228346,"hand":"L"},{"time":147917,"durationMs":417,"midi":56,"velocity":0.7086614173228346,"hand":"L"},{"time":147917,"durationMs":417,"midi":74,"velocity":0.7086614173228346,"hand":"R"},{"time":148333,"durationMs":417,"midi":45,"velocity":0.7086614173228346,"hand":"L"},{"time":148333,"durationMs":417,"midi":57,"velocity":0.7086614173228346,"hand":"L"},{"time":148333,"durationMs":833,"midi":72,"velocity":0.7086614173228346,"hand":"R"},{"time":148750,"durationMs":417,"midi":57,"velocity":0.7086614173228346,"hand":"L"},{"time":148750,"durationMs":417,"midi":60,"velocity":0.7086614173228346,"hand":"L"},{"time":148750,"durationMs":417,"midi":65,"velocity":0.7086614173228346,"hand":"L"},{"time":149167,"durationMs":417,"midi":50,"velocity":0.7086614173228346,"hand":"L"},{"time":149167,"durationMs":833,"midi":77,"velocity":0.7086614173228346,"hand":"R"},{"time":149583,"durationMs":417,"midi":57,"velocity":0.7086614173228346,"hand":"L"},{"time":149583,"durationMs":417,"midi":62,"velocity":0.7086614173228346,"hand":"L"},{"time":149583,"durationMs":417,"midi":65,"velocity":0.7086614173228346,"hand":"L"},{"time":150000,"durationMs":417,"midi":52,"velocity":0.7086614173228346,"hand":"L"},{"time":150000,"durationMs":208,"midi":76,"velocity":0.7086614173228346,"hand":"R"},{"time":150208,"durationMs":208,"midi":80,"velocity":0.7086614173228346,"hand":"R"},{"time":150417,"durationMs":417,"midi":59,"velocity":0.7086614173228346,"hand":"L"},{"time":150417,"durationMs":417,"midi":62,"velocity":0.7086614173228346,"hand":"L"},{"time":150417,"durationMs":417,"midi":64,"velocity":0.7086614173228346,"hand":"L"},{"time":150417,"durationMs":208,"midi":83,"velocity":0.7086614173228346,"hand":"R"},{"time":150625,"durationMs":417,"midi":88,"velocity":0.7086614173228346,"hand":"R"},{"time":150833,"durationMs":417,"midi":56,"velocity":0.7086614173228346,"hand":"L"},{"time":151042,"durationMs":208,"midi":86,"velocity":0.7086614173228346,"hand":"R"},{"time":151250,"durationMs":417,"midi":59,"velocity":0.7086614173228346,"hand":"L"},{"time":151250,"durationMs":417,"midi":62,"velocity":0.7086614173228346,"hand":"L"},{"time":151250,"durationMs":417,"midi":64,"velocity":0.7086614173228346,"hand":"L"},{"time":151250,"durationMs":208,"midi":83,"velocity":0.7086614173228346,"hand":"R"},{"time":151458,"durationMs":208,"midi":84,"velocity":0.7086614173228346,"hand":"R"},{"time":151667,"durationMs":833,"midi":57,"velocity":0.7086614173228346,"hand":"L"},{"time":151667,"durationMs":833,"midi":60,"velocity":0.7086614173228346,"hand":"L"},{"time":151667,"durationMs":833,"midi":64,"velocity":0.7086614173228346,"hand":"L"},{"time":151667,"durationMs":833,"midi":81,"velocity":0.7086614173228346,"hand":"R"},{"time":152500,"durationMs":833,"midi":55,"velocity":0.7086614173228346,"hand":"L"},{"time":152500,"durationMs":833,"midi":60,"velocity":0.7086614173228346,"hand":"L"},{"time":152500,"durationMs":833,"midi":64,"velocity":0.7086614173228346,"hand":"L"},{"time":152500,"durationMs":833,"midi":82,"velocity":0.7086614173228346,"hand":"R"},{"time":152917,"durationMs":417,"midi":48,"velocity":0.7086614173228346,"hand":"L"},{"time":153333,"durationMs":417,"midi":41,"velocity":0.7086614173228346,"hand":"L"},{"time":153333,"durationMs":208,"midi":77,"velocity":0.7086614173228346,"hand":"R"},{"time":153333,"durationMs":208,"midi":81,"velocity":0.7086614173228346,"hand":"R"},{"time":153542,"durationMs":208,"midi":80,"velocity":0.7086614173228346,"hand":"R"},{"time":153750,"durationMs":417,"midi":57,"velocity":0.7086614173228346,"hand":"L"},{"time":153750,"durationMs":417,"midi":60,"velocity":0.7086614173228346,"hand":"L"},{"time":153750,"durationMs":417,"midi":65,"velocity":0.7086614173228346,"hand":"L"},{"time":153750,"durationMs":833,"midi":77,"velocity":0.7086614173228346,"hand":"R"},{"time":153750,"durationMs":833,"midi":81,"velocity":0.7086614173228346,"hand":"R"},{"time":154167,"durationMs":417,"midi":48,"velocity":0.7086614173228346,"hand":"L"},{"time":154583,"durationMs":417,"midi":57,"velocity":0.7086614173228346,"hand":"L"},{"time":154583,"durationMs":417,"midi":60,"velocity":0.7086614173228346,"hand":"L"},{"time":154583,"durationMs":417,"midi":65,"velocity":0.7086614173228346,"hand":"L"},{"time":154583,"durationMs":417,"midi":77,"velocity":0.7086614173228346,"hand":"R"},{"time":154583,"durationMs":417,"midi":81,"velocity":0.7086614173228346,"hand":"R"},{"time":154583,"durationMs":417,"midi":84,"velocity":0.7086614173228346,"hand":"R"},{"time":155000,"durationMs":417,"midi":46,"velocity":0.7086614173228346,"hand":"L"},{"time":155000,"durationMs":1667,"midi":77,"velocity":0.7086614173228346,"hand":"R"},{"time":155000,"durationMs":1667,"midi":82,"velocity":0.7086614173228346,"hand":"R"},{"time":155000,"durationMs":1667,"midi":86,"velocity":0.7086614173228346,"hand":"R"},{"time":155417,"durationMs":417,"midi":58,"velocity":0.7086614173228346,"hand":"L"},{"time":155417,"durationMs":417,"midi":62,"velocity":0.7086614173228346,"hand":"L"},{"time":155417,"durationMs":417,"midi":65,"velocity":0.7086614173228346,"hand":"L"},{"time":155417,"durationMs":208,"midi":70,"velocity":0.7086614173228346,"hand":"R"},{"time":155625,"durationMs":208,"midi":69,"velocity":0.7086614173228346,"hand":"R"},{"time":155833,"durationMs":417,"midi":53,"velocity":0.7086614173228346,"hand":"L"},{"time":155833,"durationMs":208,"midi":70,"velocity":0.7086614173228346,"hand":"R"},{"time":156042,"durationMs":208,"midi":72,"velocity":0.7086614173228346,"hand":"R"},{"time":156250,"durationMs":417,"midi":58,"velocity":0.7086614173228346,"hand":"L"},{"time":156250,"durationMs":417,"midi":62,"velocity":0.7086614173228346,"hand":"L"},{"time":156250,"durationMs":417,"midi":65,"velocity":0.7086614173228346,"hand":"L"},{"time":156250,"durationMs":417,"midi":74,"velocity":0.7086614173228346,"hand":"R"},{"time":156667,"durationMs":417,"midi":38,"velocity":0.7086614173228346,"hand":"L"},{"time":156667,"durationMs":208,"midi":74,"velocity":0.7086614173228346,"hand":"R"},{"time":156667,"durationMs":208,"midi":77,"velocity":0.7086614173228346,"hand":"R"},{"time":156875,"durationMs":208,"midi":76,"velocity":0.7086614173228346,"hand":"R"},{"time":157083,"durationMs":417,"midi":57,"velocity":0.7086614173228346,"hand":"L"},{"time":157083,"durationMs":417,"midi":62,"velocity":0.7086614173228346,"hand":"L"},{"time":157083,"durationMs":417,"midi":65,"velocity":0.7086614173228346,"hand":"L"},{"time":157083,"durationMs":833,"midi":74,"velocity":0.7086614173228346,"hand":"R"},{"time":157083,"durationMs":833,"midi":77,"velocity":0.7086614173228346,"hand":"R"},{"time":157500,"durationMs":417,"midi":45,"velocity":0.7086614173228346,"hand":"L"},{"time":157917,"durationMs":417,"midi":57,"velocity":0.7086614173228346,"hand":"L"},{"time":157917,"durationMs":417,"midi":62,"velocity":0.7086614173228346,"hand":"L"},{"time":157917,"durationMs":417,"midi":65,"velocity":0.7086614173228346,"hand":"L"},{"time":157917,"durationMs":417,"midi":74,"velocity":0.7086614173228346,"hand":"R"},{"time":157917,"durationMs":417,"midi":77,"velocity":0.7086614173228346,"hand":"R"},{"time":157917,"durationMs":417,"midi":81,"velocity":0.7086614173228346,"hand":"R"},{"time":158333,"durationMs":417,"midi":43,"velocity":0.7086614173228346,"hand":"L"},{"time":158333,"durationMs":1458,"midi":74,"velocity":0.7086614173228346,"hand":"R"},{"time":158333,"durationMs":1458,"midi":79,"velocity":0.7086614173228346,"hand":"R"},{"time":158333,"durationMs":1458,"midi":82,"velocity":0.7086614173228346,"hand":"R"},{"time":158750,"durationMs":417,"midi":58,"velocity":0.7086614173228346,"hand":"L"},{"time":158750,"durationMs":417,"midi":62,"velocity":0.7086614173228346,"hand":"L"},{"time":158750,"durationMs":208,"midi":67,"velocity":0.7086614173228346,"hand":"R"},{"time":158958,"durationMs":208,"midi":66,"velocity":0.7086614173228346,"hand":"R"},{"time":159167,"durationMs":417,"midi":50,"velocity":0.7086614173228346,"hand":"L"},{"time":159167,"durationMs":208,"midi":67,"velocity":0.7086614173228346,"hand":"R"},{"time":159375,"durationMs":208,"midi":69,"velocity":0.7086614173228346,"hand":"R"},{"time":159583,"durationMs":417,"midi":58,"velocity":0.7086614173228346,"hand":"L"},{"time":159583,"durationMs":417,"midi":62,"velocity":0.7086614173228346,"hand":"L"},{"time":159583,"durationMs":417,"midi":70,"velocity":0.7086614173228346,"hand":"R"},{"time":159792,"durationMs":208,"midi":79,"velocity":0.7086614173228346,"hand":"R"},{"time":160000,"durationMs":417,"midi":46,"velocity":0.7086614173228346,"hand":"L"},{"time":160000,"durationMs":417,"midi":58,"velocity":0.7086614173228346,"hand":"L"},{"time":160000,"durationMs":417,"midi":74,"velocity":0.7086614173228346,"hand":"R"},{"time":160417,"durationMs":417,"midi":58,"velocity":0.7086614173228346,"hand":"L"},{"time":160417,"durationMs":417,"midi":62,"velocity":0.7086614173228346,"hand":"L"},{"time":160417,"durationMs":208,"midi":79,"velocity":0.7086614173228346,"hand":"R"},{"time":160625,"durationMs":417,"midi":74,"velocity":0.7086614173228346,"hand":"R"},{"time":160833,"durationMs":417,"midi":43,"velocity":0.7086614173228346,"hand":"L"},{"time":160833,"durationMs":417,"midi":55,"velocity":0.7086614173228346,"hand":"L"},{"time":161042,"durationMs":208,"midi":79,"velocity":0.7086614173228346,"hand":"R"},{"time":161250,"durationMs":417,"midi":44,"velocity":0.7086614173228346,"hand":"L"},{"time":161250,"durationMs":417,"midi":56,"velocity":0.7086614173228346,"hand":"L"},{"time":161250,"durationMs":417,"midi":74,"velocity":0.7086614173228346,"hand":"R"},{"time":161667,"durationMs":208,"midi":45,"velocity":0.7086614173228346,"hand":"L"},{"time":161667,"durationMs":208,"midi":57,"velocity":0.7086614173228346,"hand":"L"},{"time":161667,"durationMs":833,"midi":72,"velocity":0.7086614173228346,"hand":"R"},{"time":161875,"durationMs":208,"midi":41,"velocity":0.7086614173228346,"hand":"L"},{"time":161875,"durationMs":208,"midi":53,"velocity":0.7086614173228346,"hand":"L"},{"time":162083,"durationMs":208,"midi":40,"velocity":0.7086614173228346,"hand":"L"},{"time":162083,"durationMs":208,"midi":52,"velocity":0.7086614173228346,"hand":"L"},{"time":162292,"durationMs":208,"midi":38,"velocity":0.7086614173228346,"hand":"L"},{"time":162292,"durationMs":208,"midi":50,"velocity":0.7086614173228346,"hand":"L"},{"time":162500,"durationMs":833,"midi":37,"velocity":0.7086614173228346,"hand":"L"},{"time":162500,"durationMs":833,"midi":49,"velocity":0.7086614173228346,"hand":"L"},{"time":162500,"durationMs":625,"midi":68,"velocity":0.7086614173228346,"hand":"R"},{"time":162500,"durationMs":625,"midi":71,"velocity":0.7086614173228346,"hand":"R"},{"time":162500,"durationMs":625,"midi":77,"velocity":0.7086614173228346,"hand":"R"},{"time":163125,"durationMs":208,"midi":77,"velocity":0.7086614173228346,"hand":"R"},{"time":163333,"durationMs":417,"midi":36,"velocity":0.7086614173228346,"hand":"L"},{"time":163333,"durationMs":417,"midi":48,"velocity":0.7086614173228346,"hand":"L"},{"time":163333,"durationMs":208,"midi":69,"velocity":0.7086614173228346,"hand":"R"},{"time":163333,"durationMs":208,"midi":72,"velocity":0.7086614173228346,"hand":"R"},{"time":163333,"durationMs":208,"midi":81,"velocity":0.7086614173228346,"hand":"R"},{"time":163542,"durationMs":417,"midi":72,"velocity":0.7086614173228346,"hand":"R"},{"time":163542,"durationMs":417,"midi":84,"velocity":0.7086614173228346,"hand":"R"},{"time":163750,"durationMs":417,"midi":57,"velocity":0.7086614173228346,"hand":"L"},{"time":163750,"durationMs":417,"midi":60,"velocity":0.7086614173228346,"hand":"L"},{"time":163750,"durationMs":417,"midi":65,"velocity":0.7086614173228346,"hand":"L"},{"time":163958,"durationMs":625,"midi":70,"velocity":0.7086614173228346,"hand":"R"},{"time":163958,"durationMs":417,"midi":79,"velocity":0.7086614173228346,"hand":"R"},{"time":164167,"durationMs":417,"midi":48,"velocity":0.7086614173228346,"hand":"L"},{"time":164167,"durationMs":417,"midi":60,"velocity":0.7086614173228346,"hand":"L"},{"time":164375,"durationMs":208,"midi":72,"velocity":0.7086614173228346,"hand":"R"},{"time":164583,"durationMs":417,"midi":36,"velocity":0.7086614173228346,"hand":"L"},{"time":164583,"durationMs":417,"midi":48,"velocity":0.7086614173228346,"hand":"L"},{"time":164583,"durationMs":417,"midi":70,"velocity":0.7086614173228346,"hand":"R"},{"time":164583,"durationMs":208,"midi":74,"velocity":0.7086614173228346,"hand":"R"},{"time":164792,"durationMs":208,"midi":76,"velocity":0.7086614173228346,"hand":"R"},{"time":165000,"durationMs":417,"midi":41,"velocity":0.7086614173228346,"hand":"L"},{"time":165000,"durationMs":417,"midi":53,"velocity":0.7086614173228346,"hand":"L"},{"time":165000,"durationMs":417,"midi":69,"velocity":0.7086614173228346,"hand":"R"},{"time":165000,"durationMs":417,"midi":77,"velocity":0.7086614173228346,"hand":"R"},{"time":165417,"durationMs":208,"midi":71,"velocity":0.7086614173228346,"hand":"R"},{"time":165625,"durationMs":208,"midi":72,"velocity":0.7086614173228346,"hand":"R"},{"time":165833,"durationMs":208,"midi":74,"velocity":0.7086614173228346,"hand":"R"},{"time":166042,"durationMs":208,"midi":76,"velocity":0.7086614173228346,"hand":"R"},{"time":166250,"durationMs":208,"midi":77,"velocity":0.7086614173228346,"hand":"R"},{"time":166458,"durationMs":208,"midi":79,"velocity":0.7086614173228346,"hand":"R"},{"time":166667,"durationMs":417,"midi":41,"velocity":0.7086614173228346,"hand":"L"},{"time":166667,"durationMs":208,"midi":77,"velocity":0.7086614173228346,"hand":"R"},{"time":166667,"durationMs":208,"midi":81,"velocity":0.7086614173228346,"hand":"R"},{"time":166875,"durationMs":208,"midi":80,"velocity":0.7086614173228346,"hand":"R"},{"time":167083,"durationMs":417,"midi":57,"velocity":0.7086614173228346,"hand":"L"},{"time":167083,"durationMs":417,"midi":60,"velocity":0.7086614173228346,"hand":"L"},{"time":167083,"durationMs":417,"midi":65,"velocity":0.7086614173228346,"hand":"L"},{"time":167083,"durationMs":833,"midi":77,"velocity":0.7086614173228346,"hand":"R"},{"time":167083,"durationMs":833,"midi":81,"velocity":0.7086614173228346,"hand":"R"},{"time":167500,"durationMs":417,"midi":48,"velocity":0.7086614173228346,"hand":"L"},{"time":167917,"durationMs":417,"midi":57,"velocity":0.7086614173228346,"hand":"L"},{"time":167917,"durationMs":417,"midi":60,"velocity":0.7086614173228346,"hand":"L"},{"time":167917,"durationMs":417,"midi":65,"velocity":0.7086614173228346,"hand":"L"},{"time":167917,"durationMs":417,"midi":77,"velocity":0.7086614173228346,"hand":"R"},{"time":167917,"durationMs":417,"midi":81,"velocity":0.7086614173228346,"hand":"R"},{"time":167917,"durationMs":417,"midi":84,"velocity":0.7086614173228346,"hand":"R"},{"time":168333,"durationMs":417,"midi":46,"velocity":0.7086614173228346,"hand":"L"},{"time":168333,"durationMs":1667,"midi":77,"velocity":0.7086614173228346,"hand":"R"},{"time":168333,"durationMs":1667,"midi":82,"velocity":0.7086614173228346,"hand":"R"},{"time":168333,"durationMs":1667,"midi":86,"velocity":0.7086614173228346,"hand":"R"},{"time":168750,"durationMs":417,"midi":58,"velocity":0.7086614173228346,"hand":"L"},{"time":168750,"durationMs":417,"midi":62,"velocity":0.7086614173228346,"hand":"L"},{"time":168750,"durationMs":417,"midi":65,"velocity":0.7086614173228346,"hand":"L"},{"time":168750,"durationMs":208,"midi":70,"velocity":0.7086614173228346,"hand":"R"},{"time":168958,"durationMs":208,"midi":69,"velocity":0.7086614173228346,"hand":"R"},{"time":169167,"durationMs":417,"midi":53,"velocity":0.7086614173228346,"hand":"L"},{"time":169167,"durationMs":208,"midi":70,"velocity":0.7086614173228346,"hand":"R"},{"time":169375,"durationMs":208,"midi":72,"velocity":0.7086614173228346,"hand":"R"},{"time":169583,"durationMs":417,"midi":58,"velocity":0.7086614173228346,"hand":"L"},{"time":169583,"durationMs":417,"midi":62,"velocity":0.7086614173228346,"hand":"L"},{"time":169583,"durationMs":417,"midi":65,"velocity":0.7086614173228346,"hand":"L"},{"time":169583,"durationMs":417,"midi":74,"velocity":0.7086614173228346,"hand":"R"},{"time":170000,"durationMs":417,"midi":38,"velocity":0.7086614173228346,"hand":"L"},{"time":170000,"durationMs":208,"midi":74,"velocity":0.7086614173228346,"hand":"R"},{"time":170000,"durationMs":208,"midi":77,"velocity":0.7086614173228346,"hand":"R"},{"time":170208,"durationMs":208,"midi":76,"velocity":0.7086614173228346,"hand":"R"},{"time":170417,"durationMs":417,"midi":57,"velocity":0.7086614173228346,"hand":"L"},{"time":170417,"durationMs":417,"midi":62,"velocity":0.7086614173228346,"hand":"L"},{"time":170417,"durationMs":417,"midi":65,"velocity":0.7086614173228346,"hand":"L"},{"time":170417,"durationMs":833,"midi":74,"velocity":0.7086614173228346,"hand":"R"},{"time":170417,"durationMs":833,"midi":77,"velocity":0.7086614173228346,"hand":"R"},{"time":170833,"durationMs":417,"midi":45,"velocity":0.7086614173228346,"hand":"L"},{"time":171250,"durationMs":417,"midi":57,"velocity":0.7086614173228346,"hand":"L"},{"time":171250,"durationMs":417,"midi":62,"velocity":0.7086614173228346,"hand":"L"},{"time":171250,"durationMs":417,"midi":65,"velocity":0.7086614173228346,"hand":"L"},{"time":171250,"durationMs":417,"midi":74,"velocity":0.7086614173228346,"hand":"R"},{"time":171250,"durationMs":417,"midi":77,"velocity":0.7086614173228346,"hand":"R"},{"time":171250,"durationMs":417,"midi":81,"velocity":0.7086614173228346,"hand":"R"},{"time":171667,"durationMs":417,"midi":43,"velocity":0.7086614173228346,"hand":"L"},{"time":171667,"durationMs":1458,"midi":74,"velocity":0.7086614173228346,"hand":"R"},{"time":171667,"durationMs":1458,"midi":79,"velocity":0.7086614173228346,"hand":"R"},{"time":171667,"durationMs":1458,"midi":82,"velocity":0.7086614173228346,"hand":"R"},{"time":172083,"durationMs":417,"midi":58,"velocity":0.7086614173228346,"hand":"L"},{"time":172083,"durationMs":417,"midi":62,"velocity":0.7086614173228346,"hand":"L"},{"time":172083,"durationMs":208,"midi":67,"velocity":0.7086614173228346,"hand":"R"},{"time":172292,"durationMs":208,"midi":66,"velocity":0.7086614173228346,"hand":"R"},{"time":172500,"durationMs":417,"midi":50,"velocity":0.7086614173228346,"hand":"L"},{"time":172500,"durationMs":208,"midi":67,"velocity":0.7086614173228346,"hand":"R"},{"time":172708,"durationMs":208,"midi":69,"velocity":0.7086614173228346,"hand":"R"},{"time":172917,"durationMs":417,"midi":58,"velocity":0.7086614173228346,"hand":"L"},{"time":172917,"durationMs":417,"midi":62,"velocity":0.7086614173228346,"hand":"L"},{"time":172917,"durationMs":417,"midi":70,"velocity":0.7086614173228346,"hand":"R"},{"time":173125,"durationMs":208,"midi":79,"velocity":0.7086614173228346,"hand":"R"},{"time":173333,"durationMs":417,"midi":46,"velocity":0.7086614173228346,"hand":"L"},{"time":173333,"durationMs":417,"midi":58,"velocity":0.7086614173228346,"hand":"L"},{"time":173333,"durationMs":417,"midi":74,"velocity":0.7086614173228346,"hand":"R"},{"time":173750,"durationMs":417,"midi":58,"velocity":0.7086614173228346,"hand":"L"},{"time":173750,"durationMs":417,"midi":62,"velocity":0.7086614173228346,"hand":"L"},{"time":173750,"durationMs":208,"midi":79,"velocity":0.7086614173228346,"hand":"R"},{"time":173958,"durationMs":417,"midi":74,"velocity":0.7086614173228346,"hand":"R"},{"time":174167,"durationMs":417,"midi":43,"velocity":0.7086614173228346,"hand":"L"},{"time":174167,"durationMs":417,"midi":55,"velocity":0.7086614173228346,"hand":"L"},{"time":174375,"durationMs":208,"midi":79,"velocity":0.7086614173228346,"hand":"R"},{"time":174583,"durationMs":417,"midi":44,"velocity":0.7086614173228346,"hand":"L"},{"time":174583,"durationMs":417,"midi":56,"velocity":0.7086614173228346,"hand":"L"},{"time":174583,"durationMs":417,"midi":74,"velocity":0.7086614173228346,"hand":"R"},{"time":175000,"durationMs":417,"midi":45,"velocity":0.7086614173228346,"hand":"L"},{"time":175000,"durationMs":417,"midi":57,"velocity":0.7086614173228346,"hand":"L"},{"time":175000,"durationMs":833,"midi":72,"velocity":0.7086614173228346,"hand":"R"},{"time":175417,"durationMs":417,"midi":57,"velocity":0.7086614173228346,"hand":"L"},{"time":175417,"durationMs":417,"midi":60,"velocity":0.7086614173228346,"hand":"L"},{"time":175417,"durationMs":417,"midi":65,"velocity":0.7086614173228346,"hand":"L"},{"time":175833,"durationMs":417,"midi":50,"velocity":0.7086614173228346,"hand":"L"},{"time":175833,"durationMs":833,"midi":77,"velocity":0.7086614173228346,"hand":"R"},{"time":176250,"durationMs":417,"midi":57,"velocity":0.7086614173228346,"hand":"L"},{"time":176250,"durationMs":417,"midi":62,"velocity":0.7086614173228346,"hand":"L"},{"time":176250,"durationMs":417,"midi":65,"velocity":0.7086614173228346,"hand":"L"},{"time":176667,"durationMs":417,"midi":52,"velocity":0.7086614173228346,"hand":"L"},{"time":176667,"durationMs":208,"midi":76,"velocity":0.7086614173228346,"hand":"R"},{"time":176875,"durationMs":208,"midi":80,"velocity":0.7086614173228346,"hand":"R"},{"time":177083,"durationMs":417,"midi":59,"velocity":0.7086614173228346,"hand":"L"},{"time":177083,"durationMs":417,"midi":62,"velocity":0.7086614173228346,"hand":"L"},{"time":177083,"durationMs":417,"midi":64,"velocity":0.7086614173228346,"hand":"L"},{"time":177083,"durationMs":208,"midi":83,"velocity":0.7086614173228346,"hand":"R"},{"time":177292,"durationMs":417,"midi":88,"velocity":0.7086614173228346,"hand":"R"},{"time":177500,"durationMs":417,"midi":56,"velocity":0.7086614173228346,"hand":"L"},{"time":177708,"durationMs":208,"midi":86,"velocity":0.7086614173228346,"hand":"R"},{"time":177917,"durationMs":417,"midi":59,"velocity":0.7086614173228346,"hand":"L"},{"time":177917,"durationMs":417,"midi":62,"velocity":0.7086614173228346,"hand":"L"},{"time":177917,"durationMs":417,"midi":64,"velocity":0.7086614173228346,"hand":"L"},{"time":177917,"durationMs":208,"midi":83,"velocity":0.7086614173228346,"hand":"R"},{"time":178125,"durationMs":208,"midi":84,"velocity":0.7086614173228346,"hand":"R"},{"time":178333,"durationMs":833,"midi":57,"velocity":0.7086614173228346,"hand":"L"},{"time":178333,"durationMs":833,"midi":60,"velocity":0.7086614173228346,"hand":"L"},{"time":178333,"durationMs":833,"midi":64,"velocity":0.7086614173228346,"hand":"L"},{"time":178333,"durationMs":833,"midi":81,"velocity":0.7086614173228346,"hand":"R"},{"time":179167,"durationMs":833,"midi":55,"velocity":0.7086614173228346,"hand":"L"},{"time":179167,"durationMs":833,"midi":60,"velocity":0.7086614173228346,"hand":"L"},{"time":179167,"durationMs":833,"midi":64,"velocity":0.7086614173228346,"hand":"L"},{"time":179167,"durationMs":833,"midi":82,"velocity":0.7086614173228346,"hand":"R"},{"time":179583,"durationMs":417,"midi":48,"velocity":0.7086614173228346,"hand":"L"},{"time":180000,"durationMs":417,"midi":41,"velocity":0.7086614173228346,"hand":"L"},{"time":180000,"durationMs":208,"midi":77,"velocity":0.7086614173228346,"hand":"R"},{"time":180000,"durationMs":208,"midi":81,"velocity":0.7086614173228346,"hand":"R"},{"time":180208,"durationMs":208,"midi":80,"velocity":0.7086614173228346,"hand":"R"},{"time":180417,"durationMs":417,"midi":57,"velocity":0.7086614173228346,"hand":"L"},{"time":180417,"durationMs":417,"midi":60,"velocity":0.7086614173228346,"hand":"L"},{"time":180417,"durationMs":417,"midi":65,"velocity":0.7086614173228346,"hand":"L"},{"time":180417,"durationMs":833,"midi":77,"velocity":0.7086614173228346,"hand":"R"},{"time":180417,"durationMs":833,"midi":81,"velocity":0.7086614173228346,"hand":"R"},{"time":180833,"durationMs":417,"midi":48,"velocity":0.7086614173228346,"hand":"L"},{"time":181250,"durationMs":417,"midi":57,"velocity":0.7086614173228346,"hand":"L"},{"time":181250,"durationMs":417,"midi":60,"velocity":0.7086614173228346,"hand":"L"},{"time":181250,"durationMs":417,"midi":65,"velocity":0.7086614173228346,"hand":"L"},{"time":181250,"durationMs":417,"midi":77,"velocity":0.7086614173228346,"hand":"R"},{"time":181250,"durationMs":417,"midi":81,"velocity":0.7086614173228346,"hand":"R"},{"time":181250,"durationMs":417,"midi":84,"velocity":0.7086614173228346,"hand":"R"},{"time":181667,"durationMs":417,"midi":46,"velocity":0.7086614173228346,"hand":"L"},{"time":181667,"durationMs":1667,"midi":77,"velocity":0.7086614173228346,"hand":"R"},{"time":181667,"durationMs":1667,"midi":82,"velocity":0.7086614173228346,"hand":"R"},{"time":181667,"durationMs":1667,"midi":86,"velocity":0.7086614173228346,"hand":"R"},{"time":182083,"durationMs":417,"midi":58,"velocity":0.7086614173228346,"hand":"L"},{"time":182083,"durationMs":417,"midi":62,"velocity":0.7086614173228346,"hand":"L"},{"time":182083,"durationMs":417,"midi":65,"velocity":0.7086614173228346,"hand":"L"},{"time":182083,"durationMs":208,"midi":70,"velocity":0.7086614173228346,"hand":"R"},{"time":182292,"durationMs":208,"midi":69,"velocity":0.7086614173228346,"hand":"R"},{"time":182500,"durationMs":417,"midi":53,"velocity":0.7086614173228346,"hand":"L"},{"time":182500,"durationMs":208,"midi":70,"velocity":0.7086614173228346,"hand":"R"},{"time":182708,"durationMs":208,"midi":72,"velocity":0.7086614173228346,"hand":"R"},{"time":182917,"durationMs":417,"midi":58,"velocity":0.7086614173228346,"hand":"L"},{"time":182917,"durationMs":417,"midi":62,"velocity":0.7086614173228346,"hand":"L"},{"time":182917,"durationMs":417,"midi":65,"velocity":0.7086614173228346,"hand":"L"},{"time":182917,"durationMs":417,"midi":74,"velocity":0.7086614173228346,"hand":"R"},{"time":183333,"durationMs":417,"midi":38,"velocity":0.7086614173228346,"hand":"L"},{"time":183333,"durationMs":208,"midi":74,"velocity":0.7086614173228346,"hand":"R"},{"time":183333,"durationMs":208,"midi":77,"velocity":0.7086614173228346,"hand":"R"},{"time":183542,"durationMs":208,"midi":76,"velocity":0.7086614173228346,"hand":"R"},{"time":183750,"durationMs":417,"midi":57,"velocity":0.7086614173228346,"hand":"L"},{"time":183750,"durationMs":417,"midi":62,"velocity":0.7086614173228346,"hand":"L"},{"time":183750,"durationMs":417,"midi":65,"velocity":0.7086614173228346,"hand":"L"},{"time":183750,"durationMs":833,"midi":74,"velocity":0.7086614173228346,"hand":"R"},{"time":183750,"durationMs":833,"midi":77,"velocity":0.7086614173228346,"hand":"R"},{"time":184167,"durationMs":417,"midi":45,"velocity":0.7086614173228346,"hand":"L"},{"time":184583,"durationMs":417,"midi":57,"velocity":0.7086614173228346,"hand":"L"},{"time":184583,"durationMs":417,"midi":62,"velocity":0.7086614173228346,"hand":"L"},{"time":184583,"durationMs":417,"midi":65,"velocity":0.7086614173228346,"hand":"L"},{"time":184583,"durationMs":417,"midi":74,"velocity":0.7086614173228346,"hand":"R"},{"time":184583,"durationMs":417,"midi":77,"velocity":0.7086614173228346,"hand":"R"},{"time":184583,"durationMs":417,"midi":81,"velocity":0.7086614173228346,"hand":"R"},{"time":185000,"durationMs":417,"midi":43,"velocity":0.7086614173228346,"hand":"L"},{"time":185000,"durationMs":1458,"midi":74,"velocity":0.7086614173228346,"hand":"R"},{"time":185000,"durationMs":1458,"midi":79,"velocity":0.7086614173228346,"hand":"R"},{"time":185000,"durationMs":1458,"midi":82,"velocity":0.7086614173228346,"hand":"R"},{"time":185417,"durationMs":417,"midi":58,"velocity":0.7086614173228346,"hand":"L"},{"time":185417,"durationMs":417,"midi":62,"velocity":0.7086614173228346,"hand":"L"},{"time":185417,"durationMs":208,"midi":67,"velocity":0.7086614173228346,"hand":"R"},{"time":185625,"durationMs":208,"midi":66,"velocity":0.7086614173228346,"hand":"R"},{"time":185833,"durationMs":417,"midi":50,"velocity":0.7086614173228346,"hand":"L"},{"time":185833,"durationMs":208,"midi":67,"velocity":0.7086614173228346,"hand":"R"},{"time":186042,"durationMs":208,"midi":69,"velocity":0.7086614173228346,"hand":"R"},{"time":186250,"durationMs":417,"midi":58,"velocity":0.7086614173228346,"hand":"L"},{"time":186250,"durationMs":417,"midi":62,"velocity":0.7086614173228346,"hand":"L"},{"time":186250,"durationMs":417,"midi":70,"velocity":0.7086614173228346,"hand":"R"},{"time":186458,"durationMs":208,"midi":79,"velocity":0.7086614173228346,"hand":"R"},{"time":186667,"durationMs":417,"midi":46,"velocity":0.7086614173228346,"hand":"L"},{"time":186667,"durationMs":417,"midi":58,"velocity":0.7086614173228346,"hand":"L"},{"time":186667,"durationMs":417,"midi":74,"velocity":0.7086614173228346,"hand":"R"},{"time":187083,"durationMs":417,"midi":58,"velocity":0.7086614173228346,"hand":"L"},{"time":187083,"durationMs":417,"midi":62,"velocity":0.7086614173228346,"hand":"L"},{"time":187083,"durationMs":208,"midi":79,"velocity":0.7086614173228346,"hand":"R"},{"time":187292,"durationMs":417,"midi":74,"velocity":0.7086614173228346,"hand":"R"},{"time":187500,"durationMs":417,"midi":43,"velocity":0.7086614173228346,"hand":"L"},{"time":187500,"durationMs":417,"midi":55,"velocity":0.7086614173228346,"hand":"L"},{"time":187708,"durationMs":208,"midi":79,"velocity":0.7086614173228346,"hand":"R"},{"time":187917,"durationMs":417,"midi":44,"velocity":0.7086614173228346,"hand":"L"},{"time":187917,"durationMs":417,"midi":56,"velocity":0.7086614173228346,"hand":"L"},{"time":187917,"durationMs":417,"midi":74,"velocity":0.7086614173228346,"hand":"R"},{"time":188333,"durationMs":208,"midi":45,"velocity":0.7086614173228346,"hand":"L"},{"time":188333,"durationMs":208,"midi":57,"velocity":0.7086614173228346,"hand":"L"},{"time":188333,"durationMs":833,"midi":72,"velocity":0.7086614173228346,"hand":"R"},{"time":188542,"durationMs":208,"midi":41,"velocity":0.7086614173228346,"hand":"L"},{"time":188542,"durationMs":208,"midi":53,"velocity":0.7086614173228346,"hand":"L"},{"time":188750,"durationMs":208,"midi":40,"velocity":0.7086614173228346,"hand":"L"},{"time":188750,"durationMs":208,"midi":52,"velocity":0.7086614173228346,"hand":"L"},{"time":188958,"durationMs":208,"midi":38,"velocity":0.7086614173228346,"hand":"L"},{"time":188958,"durationMs":208,"midi":50,"velocity":0.7086614173228346,"hand":"L"},{"time":189167,"durationMs":833,"midi":37,"velocity":0.7086614173228346,"hand":"L"},{"time":189167,"durationMs":833,"midi":49,"velocity":0.7086614173228346,"hand":"L"},{"time":189167,"durationMs":625,"midi":68,"velocity":0.7086614173228346,"hand":"R"},{"time":189167,"durationMs":625,"midi":71,"velocity":0.7086614173228346,"hand":"R"},{"time":189167,"durationMs":625,"midi":77,"velocity":0.7086614173228346,"hand":"R"},{"time":189792,"durationMs":208,"midi":77,"velocity":0.7086614173228346,"hand":"R"},{"time":190000,"durationMs":417,"midi":36,"velocity":0.7086614173228346,"hand":"L"},{"time":190000,"durationMs":417,"midi":48,"velocity":0.7086614173228346,"hand":"L"},{"time":190000,"durationMs":208,"midi":69,"velocity":0.7086614173228346,"hand":"R"},{"time":190000,"durationMs":208,"midi":72,"velocity":0.7086614173228346,"hand":"R"},{"time":190000,"durationMs":208,"midi":81,"velocity":0.7086614173228346,"hand":"R"},{"time":190208,"durationMs":417,"midi":72,"velocity":0.7086614173228346,"hand":"R"},{"time":190208,"durationMs":417,"midi":84,"velocity":0.7086614173228346,"hand":"R"},{"time":190417,"durationMs":417,"midi":57,"velocity":0.7086614173228346,"hand":"L"},{"time":190417,"durationMs":417,"midi":60,"velocity":0.7086614173228346,"hand":"L"},{"time":190417,"durationMs":417,"midi":65,"velocity":0.7086614173228346,"hand":"L"},{"time":190625,"durationMs":625,"midi":70,"velocity":0.7086614173228346,"hand":"R"},{"time":190625,"durationMs":417,"midi":79,"velocity":0.7086614173228346,"hand":"R"},{"time":190833,"durationMs":417,"midi":48,"velocity":0.7086614173228346,"hand":"L"},{"time":190833,"durationMs":417,"midi":60,"velocity":0.7086614173228346,"hand":"L"},{"time":191042,"durationMs":208,"midi":72,"velocity":0.7086614173228346,"hand":"R"},{"time":191250,"durationMs":417,"midi":36,"velocity":0.7086614173228346,"hand":"L"},{"time":191250,"durationMs":417,"midi":48,"velocity":0.7086614173228346,"hand":"L"},{"time":191250,"durationMs":417,"midi":70,"velocity":0.7086614173228346,"hand":"R"},{"time":191250,"durationMs":208,"midi":74,"velocity":0.7086614173228346,"hand":"R"},{"time":191458,"durationMs":208,"midi":76,"velocity":0.7086614173228346,"hand":"R"},{"time":191667,"durationMs":417,"midi":41,"velocity":0.7086614173228346,"hand":"L"},{"time":191667,"durationMs":417,"midi":53,"velocity":0.7086614173228346,"hand":"L"},{"time":191667,"durationMs":417,"midi":69,"velocity":0.7086614173228346,"hand":"R"},{"time":191667,"durationMs":417,"midi":77,"velocity":0.7086614173228346,"hand":"R"},{"time":192500,"durationMs":417,"midi":29,"velocity":0.7086614173228346,"hand":"L"},{"time":192500,"durationMs":417,"midi":41,"velocity":0.7086614173228346,"hand":"L"},{"time":192500,"durationMs":417,"midi":77,"velocity":0.7086614173228346,"hand":"R"},{"time":192500,"durationMs":417,"midi":81,"velocity":0.7086614173228346,"hand":"R"},{"time":192500,"durationMs":417,"midi":84,"velocity":0.7086614173228346,"hand":"R"},{"time":192500,"durationMs":417,"midi":89,"velocity":0.7086614173228346,"hand":"R"},{"time":193333,"durationMs":417,"midi":53,"velocity":0.7086614173228346,"hand":"L"},{"time":193333,"durationMs":417,"midi":57,"velocity":0.7086614173228346,"hand":"L"},{"time":193333,"durationMs":417,"midi":60,"velocity":0.7086614173228346,"hand":"L"},{"time":193333,"durationMs":417,"midi":65,"velocity":0.7086614173228346,"hand":"L"},{"time":193333,"durationMs":417,"midi":72,"velocity":0.7086614173228346,"hand":"R"},{"time":193750,"durationMs":417,"midi":53,"velocity":0.7086614173228346,"hand":"L"},{"time":193750,"durationMs":417,"midi":57,"velocity":0.7086614173228346,"hand":"L"},{"time":193750,"durationMs":417,"midi":60,"velocity":0.7086614173228346,"hand":"L"},{"time":193750,"durationMs":417,"midi":65,"velocity":0.7086614173228346,"hand":"L"},{"time":193750,"durationMs":208,"midi":69,"velocity":0.7086614173228346,"hand":"R"},{"time":193958,"durationMs":417,"midi":72,"velocity":0.7086614173228346,"hand":"R"},{"time":194167,"durationMs":417,"midi":54,"velocity":0.7086614173228346,"hand":"L"},{"time":194167,"durationMs":417,"midi":57,"velocity":0.7086614173228346,"hand":"L"},{"time":194167,"durationMs":417,"midi":60,"velocity":0.7086614173228346,"hand":"L"},{"time":194167,"durationMs":417,"midi":63,"velocity":0.7086614173228346,"hand":"L"},{"time":194375,"durationMs":208,"midi":69,"velocity":0.7086614173228346,"hand":"R"},{"time":194583,"durationMs":417,"midi":54,"velocity":0.7086614173228346,"hand":"L"},{"time":194583,"durationMs":417,"midi":57,"velocity":0.7086614173228346,"hand":"L"},{"time":194583,"durationMs":417,"midi":60,"velocity":0.7086614173228346,"hand":"L"},{"time":194583,"durationMs":417,"midi":63,"velocity":0.7086614173228346,"hand":"L"},{"time":194583,"durationMs":208,"midi":72,"velocity":0.7086614173228346,"hand":"R"},{"time":194792,"durationMs":208,"midi":69,"velocity":0.7086614173228346,"hand":"R"},{"time":195000,"durationMs":417,"midi":55,"velocity":0.7086614173228346,"hand":"L"},{"time":195000,"durationMs":417,"midi":60,"velocity":0.7086614173228346,"hand":"L"},{"time":195000,"durationMs":417,"midi":64,"velocity":0.7086614173228346,"hand":"L"},{"time":195000,"durationMs":208,"midi":67,"velocity":0.7086614173228346,"hand":"R"},{"time":195208,"durationMs":208,"midi":72,"velocity":0.7086614173228346,"hand":"R"},{"time":195417,"durationMs":417,"midi":55,"velocity":0.7086614173228346,"hand":"L"},{"time":195417,"durationMs":417,"midi":60,"velocity":0.7086614173228346,"hand":"L"},{"time":195417,"durationMs":417,"midi":64,"velocity":0.7086614173228346,"hand":"L"},{"time":195417,"durationMs":208,"midi":76,"velocity":0.7086614173228346,"hand":"R"},{"time":195625,"durationMs":417,"midi":79,"velocity":0.7086614173228346,"hand":"R"},{"time":195833,"durationMs":417,"midi":55,"velocity":0.7086614173228346,"hand":"L"},{"time":195833,"durationMs":417,"midi":60,"velocity":0.7086614173228346,"hand":"L"},{"time":195833,"durationMs":417,"midi":64,"velocity":0.7086614173228346,"hand":"L"},{"time":196042,"durationMs":208,"midi":76,"velocity":0.7086614173228346,"hand":"R"},{"time":196250,"durationMs":417,"midi":55,"velocity":0.7086614173228346,"hand":"L"},{"time":196250,"durationMs":417,"midi":60,"velocity":0.7086614173228346,"hand":"L"},{"time":196250,"durationMs":417,"midi":64,"velocity":0.7086614173228346,"hand":"L"},{"time":196250,"durationMs":208,"midi":72,"velocity":0.7086614173228346,"hand":"R"},{"time":196458,"durationMs":208,"midi":67,"velocity":0.7086614173228346,"hand":"R"},{"time":196667,"durationMs":417,"midi":50,"velocity":0.7086614173228346,"hand":"L"},{"time":196667,"durationMs":417,"midi":60,"velocity":0.7086614173228346,"hand":"L"},{"time":196667,"durationMs":417,"midi":66,"velocity":0.7086614173228346,"hand":"R"},{"time":196667,"durationMs":417,"midi":69,"velocity":0.7086614173228346,"hand":"R"},{"time":197083,"durationMs":417,"midi":50,"velocity":0.7086614173228346,"hand":"L"},{"time":197083,"durationMs":417,"midi":57,"velocity":0.7086614173228346,"hand":"L"},{"time":197083,"durationMs":417,"midi":66,"velocity":0.7086614173228346,"hand":"R"},{"time":197083,"durationMs":417,"midi":72,"velocity":0.7086614173228346,"hand":"R"},{"time":197500,"durationMs":417,"midi":55,"velocity":0.7086614173228346,"hand":"L"},{"time":197500,"durationMs":417,"midi":59,"velocity":0.7086614173228346,"hand":"L"},{"time":197500,"durationMs":208,"midi":65,"velocity":0.7086614173228346,"hand":"R"},{"time":197500,"durationMs":208,"midi":76,"velocity":0.7086614173228346,"hand":"R"},{"time":197708,"durationMs":417,"midi":65,"velocity":0.7086614173228346,"hand":"R"},{"time":197708,"durationMs":417,"midi":74,"velocity":0.7086614173228346,"hand":"R"},{"time":197917,"durationMs":417,"midi":55,"velocity":0.7086614173228346,"hand":"L"},{"time":197917,"durationMs":417,"midi":59,"velocity":0.7086614173228346,"hand":"L"},{"time":198125,"durationMs":1042,"midi":64,"velocity":0.7086614173228346,"hand":"R"},{"time":198125,"durationMs":1042,"midi":72,"velocity":0.7086614173228346,"hand":"R"},{"time":198333,"durationMs":833,"midi":48,"velocity":0.7086614173228346,"hand":"L"},{"time":198333,"durationMs":833,"midi":60,"velocity":0.7086614173228346,"hand":"L"},{"time":199167,"durationMs":417,"midi":36,"velocity":0.7086614173228346,"hand":"L"},{"time":199167,"durationMs":417,"midi":48,"velocity":0.7086614173228346,"hand":"L"},{"time":199167,"durationMs":417,"midi":72,"velocity":0.7086614173228346,"hand":"R"},{"time":199167,"durationMs":417,"midi":76,"velocity":0.7086614173228346,"hand":"R"},{"time":199167,"durationMs":417,"midi":79,"velocity":0.7086614173228346,"hand":"R"},{"time":199167,"durationMs":417,"midi":84,"velocity":0.7086614173228346,"hand":"R"},{"time":200000,"durationMs":417,"midi":41,"velocity":0.7086614173228346,"hand":"L"},{"time":200000,"durationMs":417,"midi":62,"velocity":0.7086614173228346,"hand":"R"},{"time":200000,"durationMs":417,"midi":65,"velocity":0.7086614173228346,"hand":"R"},{"time":200417,"durationMs":417,"midi":53,"velocity":0.7086614173228346,"hand":"L"},{"time":200417,"durationMs":417,"midi":57,"velocity":0.7086614173228346,"hand":"L"},{"time":200417,"durationMs":208,"midi":61,"velocity":0.7086614173228346,"hand":"R"},{"time":200417,"durationMs":208,"midi":64,"velocity":0.7086614173228346,"hand":"R"},{"time":200625,"durationMs":417,"midi":62,"velocity":0.7086614173228346,"hand":"R"},{"time":200625,"durationMs":417,"midi":65,"velocity":0.7086614173228346,"hand":"R"},{"time":200833,"durationMs":417,"midi":45,"velocity":0.7086614173228346,"hand":"L"},{"time":201042,"durationMs":208,"midi":61,"velocity":0.7086614173228346,"hand":"R"},{"time":201042,"durationMs":208,"midi":64,"velocity":0.7086614173228346,"hand":"R"},{"time":201250,"durationMs":417,"midi":53,"velocity":0.7086614173228346,"hand":"L"},{"time":201250,"durationMs":417,"midi":57,"velocity":0.7086614173228346,"hand":"L"},{"time":201250,"durationMs":417,"midi":62,"velocity":0.7086614173228346,"hand":"R"},{"time":201250,"durationMs":417,"midi":65,"velocity":0.7086614173228346,"hand":"R"},{"time":201667,"durationMs":417,"midi":41,"velocity":0.7086614173228346,"hand":"L"},{"time":201875,"durationMs":208,"midi":69,"velocity":0.7086614173228346,"hand":"R"},{"time":202083,"durationMs":417,"midi":53,"velocity":0.7086614173228346,"hand":"L"},{"time":202083,"durationMs":417,"midi":57,"velocity":0.7086614173228346,"hand":"L"},{"time":202083,"durationMs":208,"midi":65,"velocity":0.7086614173228346,"hand":"R"},{"time":202083,"durationMs":208,"midi":74,"velocity":0.7086614173228346,"hand":"R"},{"time":202292,"durationMs":208,"midi":69,"velocity":0.7086614173228346,"hand":"R"},{"time":202500,"durationMs":417,"midi":45,"velocity":0.7086614173228346,"hand":"L"},{"time":202500,"durationMs":208,"midi":72,"velocity":0.7086614173228346,"hand":"R"},{"time":202708,"durationMs":208,"midi":74,"velocity":0.7086614173228346,"hand":"R"},{"time":202917,"durationMs":417,"midi":53,"velocity":0.7086614173228346,"hand":"L"},{"time":202917,"durationMs":417,"midi":57,"velocity":0.7086614173228346,"hand":"L"},{"time":202917,"durationMs":208,"midi":72,"velocity":0.7086614173228346,"hand":"R"},{"time":203125,"durationMs":208,"midi":69,"velocity":0.7086614173228346,"hand":"R"},{"time":203333,"durationMs":417,"midi":48,"velocity":0.7086614173228346,"hand":"L"},{"time":203333,"durationMs":417,"midi":64,"velocity":0.7086614173228346,"hand":"R"},{"time":203333,"durationMs":417,"midi":67,"velocity":0.7086614173228346,"hand":"R"},{"time":203750,"durationMs":417,"midi":52,"velocity":0.7086614173228346,"hand":"L"},{"time":203750,"durationMs":417,"midi":55,"velocity":0.7086614173228346,"hand":"L"},{"time":203750,"durationMs":417,"midi":60,"velocity":0.7086614173228346,"hand":"L"},{"time":203750,"durationMs":208,"midi":63,"velocity":0.7086614173228346,"hand":"R"},{"time":203750,"durationMs":208,"midi":66,"velocity":0.7086614173228346,"hand":"R"},{"time":203958,"durationMs":417,"midi":64,"velocity":0.7086614173228346,"hand":"R"},{"time":203958,"durationMs":417,"midi":67,"velocity":0.7086614173228346,"hand":"R"},{"time":204167,"durationMs":417,"midi":43,"velocity":0.7086614173228346,"hand":"L"},{"time":204375,"durationMs":208,"midi":63,"velocity":0.7086614173228346,"hand":"R"},{"time":204375,"durationMs":208,"midi":66,"velocity":0.7086614173228346,"hand":"R"},{"time":204583,"durationMs":417,"midi":52,"velocity":0.7086614173228346,"hand":"L"},{"time":204583,"durationMs":417,"midi":55,"velocity":0.7086614173228346,"hand":"L"},{"time":204583,"durationMs":417,"midi":60,"velocity":0.7086614173228346,"hand":"L"},{"time":204583,"durationMs":417,"midi":64,"velocity":0.7086614173228346,"hand":"R"},{"time":204583,"durationMs":417,"midi":67,"velocity":0.7086614173228346,"hand":"R"},{"time":205000,"durationMs":417,"midi":48,"velocity":0.7086614173228346,"hand":"L"},{"time":205208,"durationMs":208,"midi":72,"velocity":0.7086614173228346,"hand":"R"},{"time":205417,"durationMs":417,"midi":52,"velocity":0.7086614173228346,"hand":"L"},{"time":205417,"durationMs":417,"midi":55,"velocity":0.7086614173228346,"hand":"L"},{"time":205417,"durationMs":417,"midi":60,"velocity":0.7086614173228346,"hand":"L"},{"time":205417,"durationMs":208,"midi":67,"velocity":0.7086614173228346,"hand":"R"},{"time":205417,"durationMs":208,"midi":76,"velocity":0.7086614173228346,"hand":"R"},{"time":205625,"durationMs":208,"midi":72,"velocity":0.7086614173228346,"hand":"R"},{"time":205833,"durationMs":417,"midi":43,"velocity":0.7086614173228346,"hand":"L"},{"time":205833,"durationMs":208,"midi":74,"velocity":0.7086614173228346,"hand":"R"},{"time":206042,"durationMs":208,"midi":76,"velocity":0.7086614173228346,"hand":"R"},{"time":206250,"durationMs":417,"midi":52,"velocity":0.7086614173228346,"hand":"L"},{"time":206250,"durationMs":417,"midi":55,"velocity":0.7086614173228346,"hand":"L"},{"time":206250,"durationMs":417,"midi":60,"velocity":0.7086614173228346,"hand":"L"},{"time":206250,"durationMs":208,"midi":74,"velocity":0.7086614173228346,"hand":"R"},{"time":206458,"durationMs":208,"midi":72,"velocity":0.7086614173228346,"hand":"R"},{"time":206667,"durationMs":417,"midi":43,"velocity":0.7086614173228346,"hand":"L"},{"time":206667,"durationMs":417,"midi":71,"velocity":0.7086614173228346,"hand":"R"},{"time":206667,"durationMs":417,"midi":74,"velocity":0.7086614173228346,"hand":"R"},{"time":207083,"durationMs":417,"midi":53,"velocity":0.7086614173228346,"hand":"L"},{"time":207083,"durationMs":417,"midi":55,"velocity":0.7086614173228346,"hand":"L"},{"time":207083,"durationMs":417,"midi":59,"velocity":0.7086614173228346,"hand":"L"},{"time":207083,"durationMs":208,"midi":70,"velocity":0.7086614173228346,"hand":"R"},{"time":207083,"durationMs":208,"midi":73,"velocity":0.7086614173228346,"hand":"R"},{"time":207292,"durationMs":417,"midi":71,"velocity":0.7086614173228346,"hand":"R"},{"time":207292,"durationMs":417,"midi":74,"velocity":0.7086614173228346,"hand":"R"},{"time":207500,"durationMs":417,"midi":47,"velocity":0.7086614173228346,"hand":"L"},{"time":207708,"durationMs":208,"midi":70,"velocity":0.7086614173228346,"hand":"R"},{"time":207708,"durationMs":208,"midi":73,"velocity":0.7086614173228346,"hand":"R"},{"time":207917,"durationMs":417,"midi":53,"velocity":0.7086614173228346,"hand":"L"},{"time":207917,"durationMs":417,"midi":55,"velocity":0.7086614173228346,"hand":"L"},{"time":207917,"durationMs":417,"midi":59,"velocity":0.7086614173228346,"hand":"L"},{"time":207917,"durationMs":417,"midi":71,"velocity":0.7086614173228346,"hand":"R"},{"time":207917,"durationMs":417,"midi":74,"velocity":0.7086614173228346,"hand":"R"},{"time":208333,"durationMs":417,"midi":43,"velocity":0.7086614173228346,"hand":"L"},{"time":208542,"durationMs":208,"midi":77,"velocity":0.7086614173228346,"hand":"R"},{"time":208750,"durationMs":417,"midi":53,"velocity":0.7086614173228346,"hand":"L"},{"time":208750,"durationMs":417,"midi":55,"velocity":0.7086614173228346,"hand":"L"},{"time":208750,"durationMs":417,"midi":59,"velocity":0.7086614173228346,"hand":"L"},{"time":208750,"durationMs":208,"midi":71,"velocity":0.7086614173228346,"hand":"R"},{"time":208750,"durationMs":208,"midi":81,"velocity":0.7086614173228346,"hand":"R"},{"time":208958,"durationMs":208,"midi":77,"velocity":0.7086614173228346,"hand":"R"},{"time":209167,"durationMs":417,"midi":50,"velocity":0.7086614173228346,"hand":"L"},{"time":209167,"durationMs":208,"midi":79,"velocity":0.7086614173228346,"hand":"R"},{"time":209375,"durationMs":208,"midi":81,"velocity":0.7086614173228346,"hand":"R"},{"time":209583,"durationMs":417,"midi":53,"velocity":0.7086614173228346,"hand":"L"},{"time":209583,"durationMs":417,"midi":55,"velocity":0.7086614173228346,"hand":"L"},{"time":209583,"durationMs":417,"midi":59,"velocity":0.7086614173228346,"hand":"L"},{"time":209583,"durationMs":208,"midi":79,"velocity":0.7086614173228346,"hand":"R"},{"time":209792,"durationMs":208,"midi":77,"velocity":0.7086614173228346,"hand":"R"},{"time":210000,"durationMs":417,"midi":51,"velocity":0.7086614173228346,"hand":"L"},{"time":210000,"durationMs":417,"midi":54,"velocity":0.7086614173228346,"hand":"L"},{"time":210000,"durationMs":417,"midi":60,"velocity":0.7086614173228346,"hand":"L"},{"time":210000,"durationMs":208,"midi":72,"velocity":0.7086614173228346,"hand":"R"},{"time":210000,"durationMs":208,"midi":84,"velocity":0.7086614173228346,"hand":"R"},{"time":210208,"durationMs":208,"midi":72,"velocity":0.7086614173228346,"hand":"R"},{"time":210208,"durationMs":208,"midi":84,"velocity":0.7086614173228346,"hand":"R"},{"time":210417,"durationMs":833,"midi":51,"velocity":0.7086614173228346,"hand":"L"},{"time":210417,"durationMs":833,"midi":54,"velocity":0.7086614173228346,"hand":"L"},{"time":210417,"durationMs":833,"midi":60,"velocity":0.7086614173228346,"hand":"L"},{"time":210417,"durationMs":833,"midi":72,"velocity":0.7086614173228346,"hand":"R"},{"time":210417,"durationMs":833,"midi":84,"velocity":0.7086614173228346,"hand":"R"},{"time":211250,"durationMs":417,"midi":51,"velocity":0.7086614173228346,"hand":"L"},{"time":211250,"durationMs":417,"midi":54,"velocity":0.7086614173228346,"hand":"L"},{"time":211250,"durationMs":417,"midi":60,"velocity":0.7086614173228346,"hand":"L"},{"time":211250,"durationMs":417,"midi":72,"velocity":0.7086614173228346,"hand":"R"},{"time":211250,"durationMs":417,"midi":81,"velocity":0.7086614173228346,"hand":"R"},{"time":211667,"durationMs":417,"midi":52,"velocity":0.7086614173228346,"hand":"L"},{"time":211667,"durationMs":417,"midi":55,"velocity":0.7086614173228346,"hand":"L"},{"time":211667,"durationMs":417,"midi":60,"velocity":0.7086614173228346,"hand":"L"},{"time":211667,"durationMs":417,"midi":72,"velocity":0.7086614173228346,"hand":"R"},{"time":211667,"durationMs":417,"midi":79,"velocity":0.7086614173228346,"hand":"R"},{"time":212083,"durationMs":208,"midi":64,"velocity":0.7086614173228346,"hand":"R"},{"time":212083,"durationMs":208,"midi":67,"velocity":0.7086614173228346,"hand":"R"},{"time":212292,"durationMs":208,"midi":64,"velocity":0.7086614173228346,"hand":"R"},{"time":212292,"durationMs":208,"midi":67,"velocity":0.7086614173228346,"hand":"R"},{"time":212500,"durationMs":417,"midi":64,"velocity":0.7086614173228346,"hand":"R"},{"time":212500,"durationMs":417,"midi":67,"velocity":0.7086614173228346,"hand":"R"},{"time":212917,"durationMs":417,"midi":64,"velocity":0.7086614173228346,"hand":"R"},{"time":212917,"durationMs":417,"midi":67,"velocity":0.7086614173228346,"hand":"R"},{"time":213333,"durationMs":417,"midi":41,"velocity":0.7086614173228346,"hand":"L"},{"time":213333,"durationMs":417,"midi":62,"velocity":0.7086614173228346,"hand":"R"},{"time":213333,"durationMs":417,"midi":65,"velocity":0.7086614173228346,"hand":"R"},{"time":213750,"durationMs":417,"midi":53,"velocity":0.7086614173228346,"hand":"L"},{"time":213750,"durationMs":417,"midi":57,"velocity":0.7086614173228346,"hand":"L"},{"time":213750,"durationMs":208,"midi":61,"velocity":0.7086614173228346,"hand":"R"},{"time":213750,"durationMs":208,"midi":64,"velocity":0.7086614173228346,"hand":"R"},{"time":213958,"durationMs":417,"midi":62,"velocity":0.7086614173228346,"hand":"R"},{"time":213958,"durationMs":417,"midi":65,"velocity":0.7086614173228346,"hand":"R"},{"time":214167,"durationMs":417,"midi":45,"velocity":0.7086614173228346,"hand":"L"},{"time":214375,"durationMs":208,"midi":61,"velocity":0.7086614173228346,"hand":"R"},{"time":214375,"durationMs":208,"midi":64,"velocity":0.7086614173228346,"hand":"R"},{"time":214583,"durationMs":417,"midi":53,"velocity":0.7086614173228346,"hand":"L"},{"time":214583,"durationMs":417,"midi":57,"velocity":0.7086614173228346,"hand":"L"},{"time":214583,"durationMs":417,"midi":62,"velocity":0.7086614173228346,"hand":"R"},{"time":214583,"durationMs":417,"midi":65,"velocity":0.7086614173228346,"hand":"R"},{"time":215000,"durationMs":417,"midi":41,"velocity":0.7086614173228346,"hand":"L"},{"time":215208,"durationMs":208,"midi":69,"velocity":0.7086614173228346,"hand":"R"},{"time":215417,"durationMs":417,"midi":53,"velocity":0.7086614173228346,"hand":"L"},{"time":215417,"durationMs":417,"midi":57,"velocity":0.7086614173228346,"hand":"L"},{"time":215417,"durationMs":208,"midi":65,"velocity":0.7086614173228346,"hand":"R"},{"time":215417,"durationMs":208,"midi":74,"velocity":0.7086614173228346,"hand":"R"},{"time":215625,"durationMs":208,"midi":69,"velocity":0.7086614173228346,"hand":"R"},{"time":215833,"durationMs":417,"midi":45,"velocity":0.7086614173228346,"hand":"L"},{"time":215833,"durationMs":208,"midi":72,"velocity":0.7086614173228346,"hand":"R"},{"time":216042,"durationMs":208,"midi":74,"velocity":0.7086614173228346,"hand":"R"},{"time":216250,"durationMs":417,"midi":53,"velocity":0.7086614173228346,"hand":"L"},{"time":216250,"durationMs":417,"midi":57,"velocity":0.7086614173228346,"hand":"L"},{"time":216250,"durationMs":208,"midi":72,"velocity":0.7086614173228346,"hand":"R"},{"time":216458,"durationMs":208,"midi":69,"velocity":0.7086614173228346,"hand":"R"},{"time":216667,"durationMs":417,"midi":48,"velocity":0.7086614173228346,"hand":"L"},{"time":216667,"durationMs":417,"midi":64,"velocity":0.7086614173228346,"hand":"R"},{"time":216667,"durationMs":417,"midi":67,"velocity":0.7086614173228346,"hand":"R"},{"time":217083,"durationMs":417,"midi":52,"velocity":0.7086614173228346,"hand":"L"},{"time":217083,"durationMs":417,"midi":55,"velocity":0.7086614173228346,"hand":"L"},{"time":217083,"durationMs":417,"midi":60,"velocity":0.7086614173228346,"hand":"L"},{"time":217083,"durationMs":208,"midi":63,"velocity":0.7086614173228346,"hand":"R"},{"time":217083,"durationMs":208,"midi":66,"velocity":0.7086614173228346,"hand":"R"},{"time":217292,"durationMs":417,"midi":64,"velocity":0.7086614173228346,"hand":"R"},{"time":217292,"durationMs":417,"midi":67,"velocity":0.7086614173228346,"hand":"R"},{"time":217500,"durationMs":417,"midi":43,"velocity":0.7086614173228346,"hand":"L"},{"time":217708,"durationMs":208,"midi":63,"velocity":0.7086614173228346,"hand":"R"},{"time":217708,"durationMs":208,"midi":66,"velocity":0.7086614173228346,"hand":"R"},{"time":217917,"durationMs":417,"midi":52,"velocity":0.7086614173228346,"hand":"L"},{"time":217917,"durationMs":417,"midi":55,"velocity":0.7086614173228346,"hand":"L"},{"time":217917,"durationMs":417,"midi":60,"velocity":0.7086614173228346,"hand":"L"},{"time":217917,"durationMs":417,"midi":64,"velocity":0.7086614173228346,"hand":"R"},{"time":217917,"durationMs":417,"midi":67,"velocity":0.7086614173228346,"hand":"R"},{"time":218333,"durationMs":417,"midi":48,"velocity":0.7086614173228346,"hand":"L"},{"time":218542,"durationMs":208,"midi":72,"velocity":0.7086614173228346,"hand":"R"},{"time":218750,"durationMs":417,"midi":52,"velocity":0.7086614173228346,"hand":"L"},{"time":218750,"durationMs":417,"midi":55,"velocity":0.7086614173228346,"hand":"L"},{"time":218750,"durationMs":417,"midi":60,"velocity":0.7086614173228346,"hand":"L"},{"time":218750,"durationMs":208,"midi":67,"velocity":0.7086614173228346,"hand":"R"},{"time":218750,"durationMs":208,"midi":76,"velocity":0.7086614173228346,"hand":"R"},{"time":218958,"durationMs":208,"midi":72,"velocity":0.7086614173228346,"hand":"R"},{"time":219167,"durationMs":417,"midi":43,"velocity":0.7086614173228346,"hand":"L"},{"time":219167,"durationMs":208,"midi":74,"velocity":0.7086614173228346,"hand":"R"},{"time":219375,"durationMs":208,"midi":76,"velocity":0.7086614173228346,"hand":"R"},{"time":219583,"durationMs":417,"midi":52,"velocity":0.7086614173228346,"hand":"L"},{"time":219583,"durationMs":417,"midi":55,"velocity":0.7086614173228346,"hand":"L"},{"time":219583,"durationMs":417,"midi":60,"velocity":0.7086614173228346,"hand":"L"},{"time":219583,"durationMs":208,"midi":74,"velocity":0.7086614173228346,"hand":"R"},{"time":219792,"durationMs":208,"midi":72,"velocity":0.7086614173228346,"hand":"R"},{"time":220000,"durationMs":417,"midi":41,"velocity":0.7086614173228346,"hand":"L"},{"time":220000,"durationMs":417,"midi":53,"velocity":0.7086614173228346,"hand":"L"},{"time":220000,"durationMs":208,"midi":69,"velocity":0.7086614173228346,"hand":"R"},{"time":220208,"durationMs":208,"midi":68,"velocity":0.7086614173228346,"hand":"R"},{"time":220417,"durationMs":417,"midi":38,"velocity":0.7086614173228346,"hand":"L"},{"time":220417,"durationMs":417,"midi":50,"velocity":0.7086614173228346,"hand":"L"},{"time":220417,"durationMs":208,"midi":69,"velocity":0.7086614173228346,"hand":"R"},{"time":220625,"durationMs":417,"midi":69,"velocity":0.7086614173228346,"hand":"R"},{"time":220625,"durationMs":417,"midi":79,"velocity":0.7086614173228346,"hand":"R"},{"time":220833,"durationMs":417,"midi":40,"velocity":0.7086614173228346,"hand":"L"},{"time":220833,"durationMs":417,"midi":52,"velocity":0.7086614173228346,"hand":"L"},{"time":221042,"durationMs":417,"midi":69,"velocity":0.7086614173228346,"hand":"R"},{"time":221042,"durationMs":417,"midi":77,"velocity":0.7086614173228346,"hand":"R"},{"time":221250,"durationMs":417,"midi":41,"velocity":0.7086614173228346,"hand":"L"},{"time":221250,"durationMs":417,"midi":53,"velocity":0.7086614173228346,"hand":"L"},{"time":221458,"durationMs":208,"midi":69,"velocity":0.7086614173228346,"hand":"R"},{"time":221458,"durationMs":208,"midi":72,"velocity":0.7086614173228346,"hand":"R"},{"time":221667,"durationMs":417,"midi":43,"velocity":0.7086614173228346,"hand":"L"},{"time":221667,"durationMs":417,"midi":55,"velocity":0.7086614173228346,"hand":"L"},{"time":221667,"durationMs":208,"midi":67,"velocity":0.7086614173228346,"hand":"R"},{"time":221667,"durationMs":208,"midi":76,"velocity":0.7086614173228346,"hand":"R"},{"time":221875,"durationMs":208,"midi":75,"velocity":0.7086614173228346,"hand":"R"},{"time":222083,"durationMs":417,"midi":55,"velocity":0.7086614173228346,"hand":"L"},{"time":222083,"durationMs":417,"midi":60,"velocity":0.7086614173228346,"hand":"L"},{"time":222083,"durationMs":417,"midi":64,"velocity":0.7086614173228346,"hand":"L"},{"time":222083,"durationMs":208,"midi":76,"velocity":0.7086614173228346,"hand":"R"},{"time":222292,"durationMs":417,"midi":81,"velocity":0.7086614173228346,"hand":"R"},{"time":222500,"durationMs":417,"midi":54,"velocity":0.7086614173228346,"hand":"L"},{"time":222500,"durationMs":417,"midi":60,"velocity":0.7086614173228346,"hand":"L"},{"time":222500,"durationMs":417,"midi":63,"velocity":0.7086614173228346,"hand":"L"},{"time":222708,"durationMs":208,"midi":84,"velocity":0.7086614173228346,"hand":"R"},{"time":222917,"durationMs":417,"midi":55,"velocity":0.7086614173228346,"hand":"L"},{"time":222917,"durationMs":417,"midi":60,"velocity":0.7086614173228346,"hand":"L"},{"time":222917,"durationMs":417,"midi":64,"velocity":0.7086614173228346,"hand":"L"},{"time":222917,"durationMs":208,"midi":79,"velocity":0.7086614173228346,"hand":"R"},{"time":223125,"durationMs":208,"midi":76,"velocity":0.7086614173228346,"hand":"R"},{"time":223333,"durationMs":417,"midi":45,"velocity":0.7086614173228346,"hand":"L"},{"time":223333,"durationMs":417,"midi":57,"velocity":0.7086614173228346,"hand":"L"},{"time":223333,"durationMs":417,"midi":66,"velocity":0.7086614173228346,"hand":"R"},{"time":223333,"durationMs":417,"midi":72,"velocity":0.7086614173228346,"hand":"R"},{"time":223750,"durationMs":417,"midi":38,"velocity":0.7086614173228346,"hand":"L"},{"time":223750,"durationMs":417,"midi":50,"velocity":0.7086614173228346,"hand":"L"},{"time":223750,"durationMs":417,"midi":66,"velocity":0.7086614173228346,"hand":"R"},{"time":223750,"durationMs":417,"midi":72,"velocity":0.7086614173228346,"hand":"R"},{"time":224167,"durationMs":417,"midi":43,"velocity":0.7086614173228346,"hand":"L"},{"time":224167,"durationMs":417,"midi":55,"velocity":0.7086614173228346,"hand":"L"},{"time":224167,"durationMs":208,"midi":65,"velocity":0.7086614173228346,"hand":"R"},{"time":224167,"durationMs":208,"midi":71,"velocity":0.7086614173228346,"hand":"R"},{"time":224167,"durationMs":208,"midi":76,"velocity":0.7086614173228346,"hand":"R"},{"time":224375,"durationMs":417,"midi":65,"velocity":0.7086614173228346,"hand":"R"},{"time":224375,"durationMs":417,"midi":71,"velocity":0.7086614173228346,"hand":"R"},{"time":224375,"durationMs":417,"midi":74,"velocity":0.7086614173228346,"hand":"R"},{"time":224583,"durationMs":417,"midi":47,"velocity":0.7086614173228346,"hand":"L"},{"time":224583,"durationMs":417,"midi":59,"velocity":0.7086614173228346,"hand":"L"},{"time":224792,"durationMs":625,"midi":64,"velocity":0.7086614173228346,"hand":"R"},{"time":224792,"durationMs":625,"midi":67,"velocity":0.7086614173228346,"hand":"R"},{"time":224792,"durationMs":625,"midi":72,"velocity":0.7086614173228346,"hand":"R"},{"time":225000,"durationMs":417,"midi":48,"velocity":0.7086614173228346,"hand":"L"},{"time":225000,"durationMs":417,"midi":60,"velocity":0.7086614173228346,"hand":"L"},{"time":225417,"durationMs":208,"midi":64,"velocity":0.7086614173228346,"hand":"R"},{"time":225417,"durationMs":208,"midi":67,"velocity":0.7086614173228346,"hand":"R"},{"time":225625,"durationMs":208,"midi":64,"velocity":0.7086614173228346,"hand":"R"},{"time":225625,"durationMs":208,"midi":67,"velocity":0.7086614173228346,"hand":"R"},{"time":225833,"durationMs":417,"midi":64,"velocity":0.7086614173228346,"hand":"R"},{"time":225833,"durationMs":417,"midi":67,"velocity":0.7086614173228346,"hand":"R"},{"time":226250,"durationMs":417,"midi":64,"velocity":0.7086614173228346,"hand":"R"},{"time":226250,"durationMs":417,"midi":67,"velocity":0.7086614173228346,"hand":"R"},{"time":226667,"durationMs":417,"midi":41,"velocity":0.7086614173228346,"hand":"L"},{"time":226667,"durationMs":417,"midi":62,"velocity":0.7086614173228346,"hand":"R"},{"time":226667,"durationMs":417,"midi":65,"velocity":0.7086614173228346,"hand":"R"},{"time":227083,"durationMs":417,"midi":53,"velocity":0.7086614173228346,"hand":"L"},{"time":227083,"durationMs":417,"midi":57,"velocity":0.7086614173228346,"hand":"L"},{"time":227083,"durationMs":208,"midi":61,"velocity":0.7086614173228346,"hand":"R"},{"time":227083,"durationMs":208,"midi":64,"velocity":0.7086614173228346,"hand":"R"},{"time":227292,"durationMs":417,"midi":62,"velocity":0.7086614173228346,"hand":"R"},{"time":227292,"durationMs":417,"midi":65,"velocity":0.7086614173228346,"hand":"R"},{"time":227500,"durationMs":417,"midi":45,"velocity":0.7086614173228346,"hand":"L"},{"time":227708,"durationMs":208,"midi":61,"velocity":0.7086614173228346,"hand":"R"},{"time":227708,"durationMs":208,"midi":64,"velocity":0.7086614173228346,"hand":"R"},{"time":227917,"durationMs":417,"midi":53,"velocity":0.7086614173228346,"hand":"L"},{"time":227917,"durationMs":417,"midi":57,"velocity":0.7086614173228346,"hand":"L"},{"time":227917,"durationMs":417,"midi":62,"velocity":0.7086614173228346,"hand":"R"},{"time":227917,"durationMs":417,"midi":65,"velocity":0.7086614173228346,"hand":"R"},{"time":228333,"durationMs":417,"midi":41,"velocity":0.7086614173228346,"hand":"L"},{"time":228542,"durationMs":208,"midi":69,"velocity":0.7086614173228346,"hand":"R"},{"time":228750,"durationMs":417,"midi":53,"velocity":0.7086614173228346,"hand":"L"},{"time":228750,"durationMs":417,"midi":57,"velocity":0.7086614173228346,"hand":"L"},{"time":228750,"durationMs":208,"midi":65,"velocity":0.7086614173228346,"hand":"R"},{"time":228750,"durationMs":208,"midi":74,"velocity":0.7086614173228346,"hand":"R"},{"time":228958,"durationMs":208,"midi":69,"velocity":0.7086614173228346,"hand":"R"},{"time":229167,"durationMs":417,"midi":45,"velocity":0.7086614173228346,"hand":"L"},{"time":229167,"durationMs":208,"midi":72,"velocity":0.7086614173228346,"hand":"R"},{"time":229375,"durationMs":208,"midi":74,"velocity":0.7086614173228346,"hand":"R"},{"time":229583,"durationMs":417,"midi":53,"velocity":0.7086614173228346,"hand":"L"},{"time":229583,"durationMs":417,"midi":57,"velocity":0.7086614173228346,"hand":"L"},{"time":229583,"durationMs":208,"midi":72,"velocity":0.7086614173228346,"hand":"R"},{"time":229792,"durationMs":208,"midi":69,"velocity":0.7086614173228346,"hand":"R"},{"time":230000,"durationMs":417,"midi":48,"velocity":0.7086614173228346,"hand":"L"},{"time":230000,"durationMs":417,"midi":64,"velocity":0.7086614173228346,"hand":"R"},{"time":230000,"durationMs":417,"midi":67,"velocity":0.7086614173228346,"hand":"R"},{"time":230417,"durationMs":417,"midi":52,"velocity":0.7086614173228346,"hand":"L"},{"time":230417,"durationMs":417,"midi":55,"velocity":0.7086614173228346,"hand":"L"},{"time":230417,"durationMs":417,"midi":60,"velocity":0.7086614173228346,"hand":"L"},{"time":230417,"durationMs":208,"midi":63,"velocity":0.7086614173228346,"hand":"R"},{"time":230417,"durationMs":208,"midi":66,"velocity":0.7086614173228346,"hand":"R"},{"time":230625,"durationMs":417,"midi":64,"velocity":0.7086614173228346,"hand":"R"},{"time":230625,"durationMs":417,"midi":67,"velocity":0.7086614173228346,"hand":"R"},{"time":230833,"durationMs":417,"midi":43,"velocity":0.7086614173228346,"hand":"L"},{"time":231042,"durationMs":208,"midi":63,"velocity":0.7086614173228346,"hand":"R"},{"time":231042,"durationMs":208,"midi":66,"velocity":0.7086614173228346,"hand":"R"},{"time":231250,"durationMs":417,"midi":52,"velocity":0.7086614173228346,"hand":"L"},{"time":231250,"durationMs":417,"midi":55,"velocity":0.7086614173228346,"hand":"L"},{"time":231250,"durationMs":417,"midi":60,"velocity":0.7086614173228346,"hand":"L"},{"time":231250,"durationMs":417,"midi":64,"velocity":0.7086614173228346,"hand":"R"},{"time":231250,"durationMs":417,"midi":67,"velocity":0.7086614173228346,"hand":"R"},{"time":231667,"durationMs":417,"midi":48,"velocity":0.7086614173228346,"hand":"L"},{"time":231875,"durationMs":208,"midi":72,"velocity":0.7086614173228346,"hand":"R"},{"time":232083,"durationMs":417,"midi":52,"velocity":0.7086614173228346,"hand":"L"},{"time":232083,"durationMs":417,"midi":55,"velocity":0.7086614173228346,"hand":"L"},{"time":232083,"durationMs":417,"midi":60,"velocity":0.7086614173228346,"hand":"L"},{"time":232083,"durationMs":208,"midi":67,"velocity":0.7086614173228346,"hand":"R"},{"time":232083,"durationMs":208,"midi":76,"velocity":0.7086614173228346,"hand":"R"},{"time":232292,"durationMs":208,"midi":72,"velocity":0.7086614173228346,"hand":"R"},{"time":232500,"durationMs":417,"midi":43,"velocity":0.7086614173228346,"hand":"L"},{"time":232500,"durationMs":208,"midi":74,"velocity":0.7086614173228346,"hand":"R"},{"time":232708,"durationMs":208,"midi":76,"velocity":0.7086614173228346,"hand":"R"},{"time":232917,"durationMs":417,"midi":52,"velocity":0.7086614173228346,"hand":"L"},{"time":232917,"durationMs":417,"midi":55,"velocity":0.7086614173228346,"hand":"L"},{"time":232917,"durationMs":417,"midi":60,"velocity":0.7086614173228346,"hand":"L"},{"time":232917,"durationMs":208,"midi":74,"velocity":0.7086614173228346,"hand":"R"},{"time":233125,"durationMs":208,"midi":72,"velocity":0.7086614173228346,"hand":"R"},{"time":233333,"durationMs":417,"midi":43,"velocity":0.7086614173228346,"hand":"L"},{"time":233333,"durationMs":417,"midi":71,"velocity":0.7086614173228346,"hand":"R"},{"time":233333,"durationMs":417,"midi":74,"velocity":0.7086614173228346,"hand":"R"},{"time":233750,"durationMs":417,"midi":53,"velocity":0.7086614173228346,"hand":"L"},{"time":233750,"durationMs":417,"midi":55,"velocity":0.7086614173228346,"hand":"L"},{"time":233750,"durationMs":417,"midi":59,"velocity":0.7086614173228346,"hand":"L"},{"time":233750,"durationMs":208,"midi":70,"velocity":0.7086614173228346,"hand":"R"},{"time":233750,"durationMs":208,"midi":73,"velocity":0.7086614173228346,"hand":"R"},{"time":233958,"durationMs":417,"midi":71,"velocity":0.7086614173228346,"hand":"R"},{"time":233958,"durationMs":417,"midi":74,"velocity":0.7086614173228346,"hand":"R"},{"time":234167,"durationMs":417,"midi":47,"velocity":0.7086614173228346,"hand":"L"},{"time":234375,"durationMs":208,"midi":70,"velocity":0.7086614173228346,"hand":"R"},{"time":234375,"durationMs":208,"midi":73,"velocity":0.7086614173228346,"hand":"R"},{"time":234583,"durationMs":417,"midi":53,"velocity":0.7086614173228346,"hand":"L"},{"time":234583,"durationMs":417,"midi":55,"velocity":0.7086614173228346,"hand":"L"},{"time":234583,"durationMs":417,"midi":59,"velocity":0.7086614173228346,"hand":"L"},{"time":234583,"durationMs":417,"midi":71,"velocity":0.7086614173228346,"hand":"R"},{"time":234583,"durationMs":417,"midi":74,"velocity":0.7086614173228346,"hand":"R"},{"time":235000,"durationMs":417,"midi":43,"velocity":0.7086614173228346,"hand":"L"},{"time":235208,"durationMs":208,"midi":77,"velocity":0.7086614173228346,"hand":"R"},{"time":235417,"durationMs":417,"midi":53,"velocity":0.7086614173228346,"hand":"L"},{"time":235417,"durationMs":417,"midi":55,"velocity":0.7086614173228346,"hand":"L"},{"time":235417,"durationMs":417,"midi":59,"velocity":0.7086614173228346,"hand":"L"},{"time":235417,"durationMs":208,"midi":71,"velocity":0.7086614173228346,"hand":"R"},{"time":235417,"durationMs":208,"midi":81,"velocity":0.7086614173228346,"hand":"R"},{"time":235625,"durationMs":208,"midi":77,"velocity":0.7086614173228346,"hand":"R"},{"time":235833,"durationMs":417,"midi":50,"velocity":0.7086614173228346,"hand":"L"},{"time":235833,"durationMs":208,"midi":79,"velocity":0.7086614173228346,"hand":"R"},{"time":236042,"durationMs":208,"midi":81,"velocity":0.7086614173228346,"hand":"R"},{"time":236250,"durationMs":417,"midi":53,"velocity":0.7086614173228346,"hand":"L"},{"time":236250,"durationMs":417,"midi":55,"velocity":0.7086614173228346,"hand":"L"},{"time":236250,"durationMs":417,"midi":59,"velocity":0.7086614173228346,"hand":"L"},{"time":236250,"durationMs":208,"midi":79,"velocity":0.7086614173228346,"hand":"R"},{"time":236458,"durationMs":208,"midi":77,"velocity":0.7086614173228346,"hand":"R"},{"time":236667,"durationMs":417,"midi":51,"velocity":0.7086614173228346,"hand":"L"},{"time":236667,"durationMs":417,"midi":54,"velocity":0.7086614173228346,"hand":"L"},{"time":236667,"durationMs":417,"midi":60,"velocity":0.7086614173228346,"hand":"L"},{"time":236667,"durationMs":208,"midi":72,"velocity":0.7086614173228346,"hand":"R"},{"time":236667,"durationMs":208,"midi":84,"velocity":0.7086614173228346,"hand":"R"},{"time":236875,"durationMs":208,"midi":72,"velocity":0.7086614173228346,"hand":"R"},{"time":236875,"durationMs":208,"midi":84,"velocity":0.7086614173228346,"hand":"R"},{"time":237083,"durationMs":833,"midi":51,"velocity":0.7086614173228346,"hand":"L"},{"time":237083,"durationMs":833,"midi":54,"velocity":0.7086614173228346,"hand":"L"},{"time":237083,"durationMs":833,"midi":60,"velocity":0.7086614173228346,"hand":"L"},{"time":237083,"durationMs":833,"midi":72,"velocity":0.7086614173228346,"hand":"R"},{"time":237083,"durationMs":833,"midi":84,"velocity":0.7086614173228346,"hand":"R"},{"time":237917,"durationMs":417,"midi":51,"velocity":0.7086614173228346,"hand":"L"},{"time":237917,"durationMs":417,"midi":54,"velocity":0.7086614173228346,"hand":"L"},{"time":237917,"durationMs":417,"midi":60,"velocity":0.7086614173228346,"hand":"L"},{"time":237917,"durationMs":417,"midi":72,"velocity":0.7086614173228346,"hand":"R"},{"time":237917,"durationMs":417,"midi":81,"velocity":0.7086614173228346,"hand":"R"},{"time":238333,"durationMs":417,"midi":52,"velocity":0.7086614173228346,"hand":"L"},{"time":238333,"durationMs":417,"midi":55,"velocity":0.7086614173228346,"hand":"L"},{"time":238333,"durationMs":417,"midi":60,"velocity":0.7086614173228346,"hand":"L"},{"time":238333,"durationMs":417,"midi":72,"velocity":0.7086614173228346,"hand":"R"},{"time":238333,"durationMs":417,"midi":79,"velocity":0.7086614173228346,"hand":"R"},{"time":238750,"durationMs":208,"midi":64,"velocity":0.7086614173228346,"hand":"R"},{"time":238750,"durationMs":208,"midi":67,"velocity":0.7086614173228346,"hand":"R"},{"time":238958,"durationMs":208,"midi":64,"velocity":0.7086614173228346,"hand":"R"},{"time":238958,"durationMs":208,"midi":67,"velocity":0.7086614173228346,"hand":"R"},{"time":239167,"durationMs":417,"midi":64,"velocity":0.7086614173228346,"hand":"R"},{"time":239167,"durationMs":417,"midi":67,"velocity":0.7086614173228346,"hand":"R"},{"time":239583,"durationMs":417,"midi":64,"velocity":0.7086614173228346,"hand":"R"},{"time":239583,"durationMs":417,"midi":67,"velocity":0.7086614173228346,"hand":"R"},{"time":240000,"durationMs":417,"midi":41,"velocity":0.7086614173228346,"hand":"L"},{"time":240000,"durationMs":417,"midi":62,"velocity":0.7086614173228346,"hand":"R"},{"time":240000,"durationMs":417,"midi":65,"velocity":0.7086614173228346,"hand":"R"},{"time":240417,"durationMs":417,"midi":53,"velocity":0.7086614173228346,"hand":"L"},{"time":240417,"durationMs":417,"midi":57,"velocity":0.7086614173228346,"hand":"L"},{"time":240417,"durationMs":208,"midi":61,"velocity":0.7086614173228346,"hand":"R"},{"time":240417,"durationMs":208,"midi":64,"velocity":0.7086614173228346,"hand":"R"},{"time":240625,"durationMs":417,"midi":62,"velocity":0.7086614173228346,"hand":"R"},{"time":240625,"durationMs":417,"midi":65,"velocity":0.7086614173228346,"hand":"R"},{"time":240833,"durationMs":417,"midi":45,"velocity":0.7086614173228346,"hand":"L"},{"time":241042,"durationMs":208,"midi":61,"velocity":0.7086614173228346,"hand":"R"},{"time":241042,"durationMs":208,"midi":64,"velocity":0.7086614173228346,"hand":"R"},{"time":241250,"durationMs":417,"midi":53,"velocity":0.7086614173228346,"hand":"L"},{"time":241250,"durationMs":417,"midi":57,"velocity":0.7086614173228346,"hand":"L"},{"time":241250,"durationMs":417,"midi":62,"velocity":0.7086614173228346,"hand":"R"},{"time":241250,"durationMs":417,"midi":65,"velocity":0.7086614173228346,"hand":"R"},{"time":241667,"durationMs":417,"midi":41,"velocity":0.7086614173228346,"hand":"L"},{"time":241875,"durationMs":208,"midi":69,"velocity":0.7086614173228346,"hand":"R"},{"time":242083,"durationMs":417,"midi":53,"velocity":0.7086614173228346,"hand":"L"},{"time":242083,"durationMs":417,"midi":57,"velocity":0.7086614173228346,"hand":"L"},{"time":242083,"durationMs":208,"midi":65,"velocity":0.7086614173228346,"hand":"R"},{"time":242083,"durationMs":208,"midi":74,"velocity":0.7086614173228346,"hand":"R"},{"time":242292,"durationMs":208,"midi":69,"velocity":0.7086614173228346,"hand":"R"},{"time":242500,"durationMs":417,"midi":45,"velocity":0.7086614173228346,"hand":"L"},{"time":242500,"durationMs":208,"midi":72,"velocity":0.7086614173228346,"hand":"R"},{"time":242708,"durationMs":208,"midi":74,"velocity":0.7086614173228346,"hand":"R"},{"time":242917,"durationMs":417,"midi":53,"velocity":0.7086614173228346,"hand":"L"},{"time":242917,"durationMs":417,"midi":57,"velocity":0.7086614173228346,"hand":"L"},{"time":242917,"durationMs":208,"midi":72,"velocity":0.7086614173228346,"hand":"R"},{"time":243125,"durationMs":208,"midi":69,"velocity":0.7086614173228346,"hand":"R"},{"time":243333,"durationMs":417,"midi":48,"velocity":0.7086614173228346,"hand":"L"},{"time":243333,"durationMs":417,"midi":64,"velocity":0.7086614173228346,"hand":"R"},{"time":243333,"durationMs":417,"midi":67,"velocity":0.7086614173228346,"hand":"R"},{"time":243750,"durationMs":417,"midi":52,"velocity":0.7086614173228346,"hand":"L"},{"time":243750,"durationMs":417,"midi":55,"velocity":0.7086614173228346,"hand":"L"},{"time":243750,"durationMs":417,"midi":60,"velocity":0.7086614173228346,"hand":"L"},{"time":243750,"durationMs":208,"midi":63,"velocity":0.7086614173228346,"hand":"R"},{"time":243750,"durationMs":208,"midi":66,"velocity":0.7086614173228346,"hand":"R"},{"time":243958,"durationMs":417,"midi":64,"velocity":0.7086614173228346,"hand":"R"},{"time":243958,"durationMs":417,"midi":67,"velocity":0.7086614173228346,"hand":"R"},{"time":244167,"durationMs":417,"midi":43,"velocity":0.7086614173228346,"hand":"L"},{"time":244375,"durationMs":208,"midi":63,"velocity":0.7086614173228346,"hand":"R"},{"time":244375,"durationMs":208,"midi":66,"velocity":0.7086614173228346,"hand":"R"},{"time":244583,"durationMs":417,"midi":52,"velocity":0.7086614173228346,"hand":"L"},{"time":244583,"durationMs":417,"midi":55,"velocity":0.7086614173228346,"hand":"L"},{"time":244583,"durationMs":417,"midi":60,"velocity":0.7086614173228346,"hand":"L"},{"time":244583,"durationMs":417,"midi":64,"velocity":0.7086614173228346,"hand":"R"},{"time":244583,"durationMs":417,"midi":67,"velocity":0.7086614173228346,"hand":"R"},{"time":245000,"durationMs":417,"midi":48,"velocity":0.7086614173228346,"hand":"L"},{"time":245208,"durationMs":208,"midi":72,"velocity":0.7086614173228346,"hand":"R"},{"time":245417,"durationMs":417,"midi":52,"velocity":0.7086614173228346,"hand":"L"},{"time":245417,"durationMs":417,"midi":55,"velocity":0.7086614173228346,"hand":"L"},{"time":245417,"durationMs":417,"midi":60,"velocity":0.7086614173228346,"hand":"L"},{"time":245417,"durationMs":208,"midi":67,"velocity":0.7086614173228346,"hand":"R"},{"time":245417,"durationMs":208,"midi":76,"velocity":0.7086614173228346,"hand":"R"},{"time":245625,"durationMs":208,"midi":72,"velocity":0.7086614173228346,"hand":"R"},{"time":245833,"durationMs":417,"midi":43,"velocity":0.7086614173228346,"hand":"L"},{"time":245833,"durationMs":208,"midi":74,"velocity":0.7086614173228346,"hand":"R"},{"time":246042,"durationMs":208,"midi":76,"velocity":0.7086614173228346,"hand":"R"},{"time":246250,"durationMs":417,"midi":52,"velocity":0.7086614173228346,"hand":"L"},{"time":246250,"durationMs":417,"midi":55,"velocity":0.7086614173228346,"hand":"L"},{"time":246250,"durationMs":417,"midi":60,"velocity":0.7086614173228346,"hand":"L"},{"time":246250,"durationMs":208,"midi":74,"velocity":0.7086614173228346,"hand":"R"},{"time":246458,"durationMs":208,"midi":72,"velocity":0.7086614173228346,"hand":"R"},{"time":246667,"durationMs":417,"midi":41,"velocity":0.7086614173228346,"hand":"L"},{"time":246667,"durationMs":417,"midi":53,"velocity":0.7086614173228346,"hand":"L"},{"time":246667,"durationMs":208,"midi":69,"velocity":0.7086614173228346,"hand":"R"},{"time":246875,"durationMs":208,"midi":68,"velocity":0.7086614173228346,"hand":"R"},{"time":247083,"durationMs":417,"midi":38,"velocity":0.7086614173228346,"hand":"L"},{"time":247083,"durationMs":417,"midi":50,"velocity":0.7086614173228346,"hand":"L"},{"time":247083,"durationMs":208,"midi":69,"velocity":0.7086614173228346,"hand":"R"},{"time":247292,"durationMs":417,"midi":69,"velocity":0.7086614173228346,"hand":"R"},{"time":247292,"durationMs":417,"midi":79,"velocity":0.7086614173228346,"hand":"R"},{"time":247500,"durationMs":417,"midi":40,"velocity":0.7086614173228346,"hand":"L"},{"time":247500,"durationMs":417,"midi":52,"velocity":0.7086614173228346,"hand":"L"},{"time":247708,"durationMs":417,"midi":69,"velocity":0.7086614173228346,"hand":"R"},{"time":247708,"durationMs":417,"midi":77,"velocity":0.7086614173228346,"hand":"R"},{"time":247917,"durationMs":417,"midi":41,"velocity":0.7086614173228346,"hand":"L"},{"time":247917,"durationMs":417,"midi":53,"velocity":0.7086614173228346,"hand":"L"},{"time":248125,"durationMs":208,"midi":69,"velocity":0.7086614173228346,"hand":"R"},{"time":248125,"durationMs":208,"midi":72,"velocity":0.7086614173228346,"hand":"R"},{"time":248333,"durationMs":417,"midi":43,"velocity":0.7086614173228346,"hand":"L"},{"time":248333,"durationMs":417,"midi":55,"velocity":0.7086614173228346,"hand":"L"},{"time":248333,"durationMs":208,"midi":67,"velocity":0.7086614173228346,"hand":"R"},{"time":248333,"durationMs":208,"midi":76,"velocity":0.7086614173228346,"hand":"R"},{"time":248542,"durationMs":208,"midi":75,"velocity":0.7086614173228346,"hand":"R"},{"time":248750,"durationMs":417,"midi":55,"velocity":0.7086614173228346,"hand":"L"},{"time":248750,"durationMs":417,"midi":60,"velocity":0.7086614173228346,"hand":"L"},{"time":248750,"durationMs":417,"midi":64,"velocity":0.7086614173228346,"hand":"L"},{"time":248750,"durationMs":208,"midi":76,"velocity":0.7086614173228346,"hand":"R"},{"time":248958,"durationMs":417,"midi":81,"velocity":0.7086614173228346,"hand":"R"},{"time":249167,"durationMs":417,"midi":54,"velocity":0.7086614173228346,"hand":"L"},{"time":249167,"durationMs":417,"midi":60,"velocity":0.7086614173228346,"hand":"L"},{"time":249167,"durationMs":417,"midi":63,"velocity":0.7086614173228346,"hand":"L"},{"time":249375,"durationMs":208,"midi":84,"velocity":0.7086614173228346,"hand":"R"},{"time":249583,"durationMs":417,"midi":55,"velocity":0.7086614173228346,"hand":"L"},{"time":249583,"durationMs":417,"midi":60,"velocity":0.7086614173228346,"hand":"L"},{"time":249583,"durationMs":417,"midi":64,"velocity":0.7086614173228346,"hand":"L"},{"time":249583,"durationMs":208,"midi":79,"velocity":0.7086614173228346,"hand":"R"},{"time":249792,"durationMs":208,"midi":76,"velocity":0.7086614173228346,"hand":"R"},{"time":250000,"durationMs":417,"midi":45,"velocity":0.7086614173228346,"hand":"L"},{"time":250000,"durationMs":417,"midi":57,"velocity":0.7086614173228346,"hand":"L"},{"time":250000,"durationMs":417,"midi":66,"velocity":0.7086614173228346,"hand":"R"},{"time":250000,"durationMs":417,"midi":72,"velocity":0.7086614173228346,"hand":"R"},{"time":250417,"durationMs":417,"midi":38,"velocity":0.7086614173228346,"hand":"L"},{"time":250417,"durationMs":417,"midi":50,"velocity":0.7086614173228346,"hand":"L"},{"time":250417,"durationMs":417,"midi":66,"velocity":0.7086614173228346,"hand":"R"},{"time":250417,"durationMs":417,"midi":72,"velocity":0.7086614173228346,"hand":"R"},{"time":250833,"durationMs":417,"midi":43,"velocity":0.7086614173228346,"hand":"L"},{"time":250833,"durationMs":417,"midi":55,"velocity":0.7086614173228346,"hand":"L"},{"time":250833,"durationMs":208,"midi":65,"velocity":0.7086614173228346,"hand":"R"},{"time":250833,"durationMs":208,"midi":71,"velocity":0.7086614173228346,"hand":"R"},{"time":250833,"durationMs":208,"midi":76,"velocity":0.7086614173228346,"hand":"R"},{"time":251042,"durationMs":417,"midi":65,"velocity":0.7086614173228346,"hand":"R"},{"time":251042,"durationMs":417,"midi":71,"velocity":0.7086614173228346,"hand":"R"},{"time":251042,"durationMs":417,"midi":74,"velocity":0.7086614173228346,"hand":"R"},{"time":251250,"durationMs":417,"midi":47,"velocity":0.7086614173228346,"hand":"L"},{"time":251250,"durationMs":417,"midi":59,"velocity":0.7086614173228346,"hand":"L"},{"time":251458,"durationMs":1042,"midi":64,"velocity":0.7086614173228346,"hand":"R"},{"time":251458,"durationMs":1042,"midi":67,"velocity":0.7086614173228346,"hand":"R"},{"time":251458,"durationMs":1042,"midi":72,"velocity":0.7086614173228346,"hand":"R"},{"time":251667,"durationMs":417,"midi":48,"velocity":0.7086614173228346,"hand":"L"},{"time":251667,"durationMs":417,"midi":60,"velocity":0.7086614173228346,"hand":"L"},{"time":252083,"durationMs":417,"midi":43,"velocity":0.7086614173228346,"hand":"L"},{"time":252083,"durationMs":417,"midi":55,"velocity":0.7086614173228346,"hand":"L"},{"time":252500,"durationMs":417,"midi":36,"velocity":0.7086614173228346,"hand":"L"},{"time":252500,"durationMs":417,"midi":48,"velocity":0.7086614173228346,"hand":"L"},{"time":252500,"durationMs":417,"midi":72,"velocity":0.7086614173228346,"hand":"R"},{"time":252500,"durationMs":417,"midi":76,"velocity":0.7086614173228346,"hand":"R"},{"time":252500,"durationMs":417,"midi":79,"velocity":0.7086614173228346,"hand":"R"},{"time":252500,"durationMs":417,"midi":84,"velocity":0.7086614173228346,"hand":"R"}]}
