{"meta":{"title":"Rondo alla Turca","bpm":60,"durationMs":255000},"notes":[{"time":0,"durationMs":250,"midi":71,"velocity":0.7086614173228346,"hand":"R"},{"time":250,"durationMs":250,"midi":69,"velocity":0.7086614173228346,"hand":"R"},{"time":500,"durationMs":250,"midi":68,"velocity":0.7086614173228346,"hand":"R"},{"time":750,"durationMs":250,"midi":69,"velocity":0.7086614173228346,"hand":"R"},{"time":1000,"durationMs":500,"midi":57,"velocity":0.7086614173228346,"hand":"L"},{"time":1000,"durationMs":500,"midi":72,"velocity":0.7086614173228346,"hand":"R"},{"time":1500,"durationMs":500,"midi":60,"velocity":0.7086614173228346,"hand":"L"},{"time":1500,"durationMs":500,"midi":64,"velocity":0.7086614173228346,"hand":"L"},{"time":2000,"durationMs":500,"midi":60,"velocity":0.7086614173228346,"hand":"L"},{"time":2000,"durationMs":500,"midi":64,"velocity":0.7086614173228346,"hand":"L"},{"time":2000,"durationMs":250,"midi":74,"velocity":0.7086614173228346,"hand":"R"},{"time":2250,"durationMs":250,"midi":72,"velocity":0.7086614173228346,"hand":"R"},{"time":2500,"durationMs":500,"midi":60,"velocity":0.7086614173228346,"hand":"L"},{"time":2500,"durationMs":500,"midi":64,"velocity":0.7086614173228346,"hand":"L"},{"time":2500,"durationMs":250,"midi":71,"velocity":0.7086614173228346,"hand":"R"},{"time":2750,"durationMs":250,"midi":72,"velocity":0.7086614173228346,"hand":"R"},{"time":3000,"durationMs":500,"midi":57,"velocity":0.7086614173228346,"hand":"L"},{"time":3000,"durationMs":500,"midi":76,"velocity":0.7086614173228346,"hand":"R"},{"time":3500,"durationMs":500,"midi":60,"velocity":0.7086614173228346,"hand":"L"},{"time":3500,"durationMs":500,"midi":64,"velocity":0.7086614173228346,"hand":"L"},{"time":4000,"durationMs":500,"midi":60,"velocity":0.7086614173228346,"hand":"L"},{"time":4000,"durationMs":500,"midi":64,"velocity":0.7086614173228346,"hand":"L"},{"time":4000,"durationMs":250,"midi":77,"velocity":0.7086614173228346,"hand":"R"},{"time":4250,"durationMs":250,"midi":76,"velocity":0.7086614173228346,"hand":"R"},{"time":4500,"durationMs":500,"midi":60,"velocity":0.7086614173228346,"hand":"L"},{"time":4500,"durationMs":500,"midi":64,"velocity":0.7086614173228346,"hand":"L"},{"time":4500,"durationMs":250,"midi":75,"velocity":0.7086614173228346,"hand":"R"},{"time":4750,"durationMs":250,"midi":76,"velocity":0.7086614173228346,"hand":"R"},{"time":5000,"durationMs":500,"midi":57,"velocity":0.7086614173228346,"hand":"L"},{"time":5000,"durationMs":250,"midi":83,"velocity":0.7086614173228346,"hand":"R"},{"time":5250,"durationMs":250,"midi":81,"velocity":0.7086614173228346,"hand":"R"},{"time":5500,"durationMs":500,"midi":60,"velocity":0.7086614173228346,"hand":"L"},{"time":5500,"durationMs":500,"midi":64,"velocity":0.7086614173228346,"hand":"L"},{"time":5500,"durationMs":250,"midi":80,"velocity":0.7086614173228346,"hand":"R"},{"time":5750,"durationMs":250,"midi":81,"velocity":0.7086614173228346,"hand":"R"},{"time":6000,"durationMs":500,"midi":57,"velocity":0.7086614173228346,"hand":"L"},{"time":6000,"durationMs":250,"midi":83,"velocity":0.7086614173228346,"hand":"R"},{"time":6250,"durationMs":250,"midi":81,"velocity":0.7086614173228346,"hand":"R"},{"time":6500,"durationMs":500,"midi":60,"velocity":0.7086614173228346,"hand":"L"},{"time":6500,"durationMs":500,"midi":64,"velocity":0.7086614173228346,"hand":"L"},{"time":6500,"durationMs":250,"midi":80,"velocity":0.7086614173228346,"hand":"R"},{"time":6750,"durationMs":250,"midi":81,"velocity":0.7086614173228346,"hand":"R"},{"time":7000,"durationMs":500,"midi":57,"velocity":0.7086614173228346,"hand":"L"},{"time":7000,"durationMs":1000,"midi":84,"velocity":0.7086614173228346,"hand":"R"},{"time":7500,"durationMs":500,"midi":60,"velocity":0.7086614173228346,"hand":"L"},{"time":7500,"durationMs":500,"midi":64,"velocity":0.7086614173228346,"hand":"L"},{"time":8000,"durationMs":500,"midi":60,"velocity":0.7086614173228346,"hand":"L"},{"time":8000,"durationMs":500,"midi":64,"velocity":0.7086614173228346,"hand":"L"},{"time":8000,"durationMs":500,"midi":81,"velocity":0.7086614173228346,"hand":"R"},{"time":8500,"durationMs":500,"midi":60,"velocity":0.7086614173228346,"hand":"L"},{"time":8500,"durationMs":500,"midi":64,"velocity":0.7086614173228346,"hand":"L"},{"time":8500,"durationMs":443,"midi":84,"velocity":0.7086614173228346,"hand":"R"},{"time":8943,"durationMs":26,"midi":79,"velocity":0.7086614173228346,"hand":"R"},{"time":8971,"durationMs":26,"midi":81,"velocity":0.7086614173228346,"hand":"R"},{"time":9000,"durationMs":500,"midi":52,"velocity":0.7086614173228346,"hand":"L"},{"time":9000,"durationMs":500,"midi":83,"velocity":0.7086614173228346,"hand":"R"},{"time":9500,"durationMs":500,"midi":59,"velocity":0.7086614173228346,"hand":"L"},{"time":9500,"durationMs":500,"midi":64,"velocity":0.7086614173228346,"hand":"L"},{"time":9500,"durationMs":500,"midi":78,"velocity":0.7086614173228346,"hand":"R"},{"time":9500,"durationMs":500,"midi":81,"velocity":0.7086614173228346,"hand":"R"},{"time":10000,"durationMs":500,"midi":59,"velocity":0.7086614173228346,"hand":"L"},{"time":10000,"durationMs":500,"midi":64,"velocity":0.7086614173228346,"hand":"L"},{"time":10000,"durationMs":500,"midi":76,"velocity":0.7086614173228346,"hand":"R"},{"time":10000,"durationMs":500,"midi":79,"velocity":0.7086614173228346,"hand":"R"},{"time":10500,"durationMs":500,"midi":59,"velocity":0.7086614173228346,"hand":"L"},{"time":10500,"durationMs":500,"midi":64,"velocity":0.7086614173228346,"hand":"L"},{"time":10500,"durationMs":443,"midi":78,"velocity":0.7086614173228346,"hand":"R"},{"time":10500,"durationMs":443,"midi":81,"velocity":0.7086614173228346,"hand":"R"},{"time":10943,"durationMs":26,"midi":79,"velocity":0.7086614173228346,"hand":"R"},{"time":10971,"durationMs":26,"midi":81,"velocity":0.7086614173228346,"hand":"R"},{"time":11000,"durationMs":500,"midi":52,"velocity":0.7086614173228346,"hand":"L"},{"time":11000,"durationMs":500,"midi":83,"velocity":0.7086614173228346,"hand":"R"},{"time":11500,"durationMs":500,"midi":59,"velocity":0.7086614173228346,"hand":"L"},{"time":11500,"durationMs":500,"midi":64,"velocity":0.7086614173228346,"hand":"L"},{"time":11500,"durationMs":500,"midi":78,"velocity":0.7086614173228346,"hand":"R"},{"time":11500,"durationMs":500,"midi":81,"velocity":0.7086614173228346,"hand":"R"},{"time":12000,"durationMs":500,"midi":59,"velocity":0.7086614173228346,"hand":"L"},{"time":12000,"durationMs":500,"midi":64,"velocity":0.7086614173228346,"hand":"L"},{"time":12000,"durationMs":500,"midi":76,"velocity":0.7086614173228346,"hand":"R"},{"time":12000,"durationMs":500,"midi":79,"velocity":0.7086614173228346,"hand":"R"},{"time":12500,"durationMs":500,"midi":59,"velocity":0.7086614173228346,"hand":"L"},{"time":12500,"durationMs":500,"midi":64,"velocity":0.7086614173228346,"hand":"L"},{"time":12500,"durationMs":443,"midi":78,"velocity":0.7086614173228346,"hand":"R"},{"time":12500,"durationMs":443,"midi":81,"velocity":0.7086614173228346,"hand":"R"},{"time":12943,"durationMs":26,"midi":79,"velocity":0.7086614173228346,"hand":"R"},{"time":12971,"durationMs":26,"midi":81,"velocity":0.7086614173228346,"hand":"R"},{"time":13000,"durationMs":500,"midi":52,"velocity":0.7086614173228346,"hand":"L"},{"time":13000,"durationMs":500,"midi":83,"velocity":0.7086614173228346,"hand":"R"},{"time":13500,"durationMs":500,"midi":59,"velocity":0.7086614173228346,"hand":"L"},{"time":13500,"durationMs":500,"midi":64,"velocity":0.7086614173228346,"hand":"L"},{"time":13500,"durationMs":500,"midi":78,"velocity":0.7086614173228346,"hand":"R"},{"time":13500,"durationMs":500,"midi":81,"velocity":0.7086614173228346,"hand":"R"},{"time":14000,"durationMs":500,"midi":47,"velocity":0.7086614173228346,"hand":"L"},{"time":14000,"durationMs":500,"midi":76,"velocity":0.7086614173228346,"hand":"R"},{"time":14000,"durationMs":500,"midi":79,"velocity":0.7086614173228346,"hand":"R"},{"time":14500,"durationMs":500,"midi":59,"velocity":0.7086614173228346,"hand":"L"},{"time":14500,"durationMs":500,"midi":75,"velocity":0.7086614173228346,"hand":"R"},{"time":14500,"durationMs":500,"midi":78,"velocity":0.7086614173228346,"hand":"R"},{"time":15000,"durationMs":1000,"midi":52,"velocity":0.7086614173228346,"hand":"L"},{"time":15000,"durationMs":1000,"midi":76,"velocity":0.7086614173228346,"hand":"R"},{"time":16000,"durationMs":500,"midi":72,"velocity":0.7086614173228346,"hand":"R"},{"time":16000,"durationMs":500,"midi":76,"velocity":0.7086614173228346,"hand":"R"},{"time":16500,"durationMs":500,"midi":74,"velocity":0.7086614173228346,"hand":"R"},{"time":16500,"durationMs":500,"midi":77,"velocity":0.7086614173228346,"hand":"R"},{"time":17000,"durationMs":500,"midi":48,"velocity":0.7086614173228346,"hand":"L"},{"time":17000,"durationMs":500,"midi":76,"velocity":0.7086614173228346,"hand":"R"},{"time":17000,"durationMs":500,"midi":79,"velocity":0.7086614173228346,"hand":"R"},{"time":17500,"durationMs":500,"midi":60,"velocity":0.7086614173228346,"hand":"L"},{"time":17500,"durationMs":500,"midi":76,"velocity":0.7086614173228346,"hand":"R"},{"time":17500,"durationMs":500,"midi":79,"velocity":0.7086614173228346,"hand":"R"},{"time":18000,"durationMs":500,"midi":52,"velocity":0.7086614173228346,"hand":"L"},{"time":18000,"durationMs":250,"midi":81,"velocity":0.7086614173228346,"hand":"R"},{"time":18250,"durationMs":250,"midi":79,"velocity":0.7086614173228346,"hand":"R"},{"time":18500,"durationMs":500,"midi":64,"velocity":0.7086614173228346,"hand":"L"},{"time":18500,"durationMs":250,"midi":77,"velocity":0.7086614173228346,"hand":"R"},{"time":18750,"durationMs":250,"midi":76,"velocity":0.7086614173228346,"hand":"R"},{"time":19000,"durationMs":1000,"midi":55,"velocity":0.7086614173228346,"hand":"L"},{"time":19000,"durationMs":500,"midi":71,"velocity":0.7086614173228346,"hand":"R"},{"time":19000,"durationMs":1000,"midi":74,"velocity":0.7086614173228346,"hand":"R"},{"time":19500,"durationMs":500,"midi":67,"velocity":0.7086614173228346,"hand":"R"},{"time":20000,"durationMs":500,"midi":72,"velocity":0.7086614173228346,"hand":"R"},{"time":20000,"durationMs":500,"midi":76,"velocity":0.7086614173228346,"hand":"R"},{"time":20500,"durationMs":500,"midi":74,"velocity":0.7086614173228346,"hand":"R"},{"time":20500,"durationMs":500,"midi":77,"velocity":0.7086614173228346,"hand":"R"},{"time":21000,"durationMs":500,"midi":48,"velocity":0.7086614173228346,"hand":"L"},{"time":21000,"durationMs":500,"midi":76,"velocity":0.7086614173228346,"hand":"R"},{"time":21000,"durationMs":500,"midi":79,"velocity":0.7086614173228346,"hand":"R"},{"time":21500,"durationMs":500,"midi":60,"velocity":0.7086614173228346,"hand":"L"},{"time":21500,"durationMs":500,"midi":76,"velocity":0.7086614173228346,"hand":"R"},{"time":21500,"durationMs":500,"midi":79,"velocity":0.7086614173228346,"hand":"R"},{"time":22000,"durationMs":500,"midi":52,"velocity":0.7086614173228346,"hand":"L"},{"time":22000,"durationMs":250,"midi":81,"velocity":0.7086614173228346,"hand":"R"},{"time":22250,"durationMs":250,"midi":79,"velocity":0.7086614173228346,"hand":"R"},{"time":22500,"durationMs":500,"midi":64,"velocity":0.7086614173228346,"hand":"L"},{"time":22500,"durationMs":250,"midi":77,"velocity":0.7086614173228346,"hand":"R"},{"time":22750,"durationMs":250,"midi":76,"velocity":0.7086614173228346,"hand":"R"},{"time":23000,"durationMs":1000,"midi":55,"velocity":0.7086614173228346,"hand":"L"},{"time":23000,"durationMs":1000,"midi":71,"velocity":0.7086614173228346,"hand":"R"},{"time":23000,"durationMs":1000,"midi":74,"velocity":0.7086614173228346,"hand":"R"},{"time":24000,"durationMs":500,"midi":69,"velocity":0.7086614173228346,"hand":"R"},{"time":24000,"durationMs":500,"midi":72,"velocity":0.7086614173228346,"hand":"R"},{"time":24500,"durationMs":500,"midi":71,"velocity":0.7086614173228346,"hand":"R"},{"time":24500,"durationMs":500,"midi":74,"velocity":0.7086614173228346,"hand":"R"},{"time":25000,"durationMs":500,"midi":45,"velocity":0.7086614173228346,"hand":"L"},{"time":25000,"durationMs":500,"midi":72,"velocity":0.7086614173228346,"hand":"R"},{"time":25000,"durationMs":500,"midi":76,"velocity":0.7086614173228346,"hand":"R"},{"time":25500,"durationMs":500,"midi":57,"velocity":0.7086614173228346,"hand":"L"},{"time":25500,"durationMs":500,"midi":72,"velocity":0.7086614173228346,"hand":"R"},{"time":25500,"durationMs":500,"midi":76,"velocity":0.7086614173228346,"hand":"R"},{"time":26000,"durationMs":500,"midi":48,"velocity":0.7086614173228346,"hand":"L"},{"time":26000,"durationMs":250,"midi":77,"velocity":0.7086614173228346,"hand":"R"},{"time":26250,"durationMs":250,"midi":76,"velocity":0.7086614173228346,"hand":"R"},{"time":26500,"durationMs":500,"midi":60,"velocity":0.7086614173228346,"hand":"L"},{"time":26500,"durationMs":250,"midi":74,"velocity":0.7086614173228346,"hand":"R"},{"time":26750,"durationMs":250,"midi":72,"velocity":0.7086614173228346,"hand":"R"},{"time":27000,"durationMs":1000,"midi":52,"velocity":0.7086614173228346,"hand":"L"},{"time":27000,"durationMs":500,"midi":68,"velocity":0.7086614173228346,"hand":"R"},{"time":27000,"durationMs":1000,"midi":71,"velocity":0.7086614173228346,"hand":"R"},{"time":27500,"durationMs":500,"midi":64,"velocity":0.7086614173228346,"hand":"R"},{"time":28000,"durationMs":500,"midi":69,"velocity":0.7086614173228346,"hand":"R"},{"time":28000,"durationMs":500,"midi":72,"velocity":0.7086614173228346,"hand":"R"},{"time":28500,"durationMs":500,"midi":71,"velocity":0.7086614173228346,"hand":"R"},{"time":28500,"durationMs":500,"midi":74,"velocity":0.7086614173228346,"hand":"R"},{"time":29000,"durationMs":500,"midi":45,"velocity":0.7086614173228346,"hand":"L"},{"time":29000,"durationMs":500,"midi":72,"velocity":0.7086614173228346,"hand":"R"},{"time":29000,"durationMs":500,"midi":76,"velocity":0.7086614173228346,"hand":"R"},{"time":29500,"durationMs":500,"midi":57,"velocity":0.7086614173228346,"hand":"L"},{"time":29500,"durationMs":500,"midi":72,"velocity":0.7086614173228346,"hand":"R"},{"time":29500,"durationMs":500,"midi":76,"velocity":0.7086614173228346,"hand":"R"},{"time":30000,"durationMs":500,"midi":48,"velocity":0.7086614173228346,"hand":"L"},{"time":30000,"durationMs":250,"midi":77,"velocity":0.7086614173228346,"hand":"R"},{"time":30250,"durationMs":250,"midi":76,"velocity":0.7086614173228346,"hand":"R"},{"time":30500,"durationMs":500,"midi":60,"velocity":0.7086614173228346,"hand":"L"},{"time":30500,"durationMs":250,"midi":74,"velocity":0.7086614173228346,"hand":"R"},{"time":30750,"durationMs":250,"midi":72,"velocity":0.7086614173228346,"hand":"R"},{"time":31000,"durationMs":1000,"midi":52,"velocity":0.7086614173228346,"hand":"L"},{"time":31000,"durationMs":1000,"midi":68,"velocity":0.7086614173228346,"hand":"R"},{"time":31000,"durationMs":1000,"midi":71,"velocity":0.7086614173228346,"hand":"R"},{"time":32000,"durationMs":250,"midi":71,"velocity":0.7086614173228346,"hand":"R"},{"time":32250,"durationMs":250,"midi":69,"velocity":0.7086614173228346,"hand":"R"},{"time":32500,"durationMs":250,"midi":68,"velocity":0.7086614173228346,"hand":"R"},{"time":32750,"durationMs":250,"midi":69,"velocity":0.7086614173228346,"hand":"R"},{"time":33000,"durationMs":500,"midi":57,"velocity":0.7086614173228346,"hand":"L"},{"time":33000,"durationMs":500,"midi":72,"velocity":0.7086614173228346,"hand":"R"},{"time":33500,"durationMs":500,"midi":60,"velocity":0.7086614173228346,"hand":"L"},{"time":33500,"durationMs":500,"midi":64,"velocity":0.7086614173228346,"hand":"L"},{"time":34000,"durationMs":500,"midi":60,"velocity":0.7086614173228346,"hand":"L"},{"time":34000,"durationMs":500,"midi":64,"velocity":0.7086614173228346,"hand":"L"},{"time":34000,"durationMs":250,"midi":74,"velocity":0.7086614173228346,"hand":"R"},{"time":34250,"durationMs":250,"midi":72,"velocity":0.7086614173228346,"hand":"R"},{"time":34500,"durationMs":500,"midi":60,"velocity":0.7086614173228346,"hand":"L"},{"time":34500,"durationMs":500,"midi":64,"velocity":0.7086614173228346,"hand":"L"},{"time":34500,"durationMs":250,"midi":71,"velocity":0.7086614173228346,"hand":"R"},{"time":34750,"durationMs":250,"midi":72,"velocity":0.7086614173228346,"hand":"R"},{"time":35000,"durationMs":500,"midi":57,"velocity":0.7086614173228346,"hand":"L"},{"time":35000,"durationMs":500,"midi":76,"velocity":0.7086614173228346,"hand":"R"},{"time":35500,"durationMs":500,"midi":60,"velocity":0.7086614173228346,"hand":"L"},{"time":35500,"durationMs":500,"midi":64,"velocity":0.7086614173228346,"hand":"L"},{"time":36000,"durationMs":500,"midi":60,"velocity":0.7086614173228346,"hand":"L"},{"time":36000,"durationMs":500,"midi":64,"velocity":0.7086614173228346,"hand":"L"},{"time":36000,"durationMs":250,"midi":77,"velocity":0.7086614173228346,"hand":"R"},{"time":36250,"durationMs":250,"midi":76,"velocity":0.7086614173228346,"hand":"R"},{"time":36500,"durationMs":500,"midi":60,"velocity":0.7086614173228346,"hand":"L"},{"time":36500,"durationMs":500,"midi":64,"velocity":0.7086614173228346,"hand":"L"},{"time":36500,"durationMs":250,"midi":75,"velocity":0.7086614173228346,"hand":"R"},{"time":36750,"durationMs":250,"midi":76,"velocity":0.7086614173228346,"hand":"R"},{"time":37000,"durationMs":500,"midi":57,"velocity":0.7086614173228346,"hand":"L"},{"time":37000,"durationMs":250,"midi":83,"velocity":0.7086614173228346,"hand":"R"},{"time":37250,"durationMs":250,"midi":81,"velocity":0.7086614173228346,"hand":"R"},{"time":37500,"durationMs":500,"midi":60,"velocity":0.7086614173228346,"hand":"L"},{"time":37500,"durationMs":500,"midi":64,"velocity":0.7086614173228346,"hand":"L"},{"time":37500,"durationMs":250,"midi":80,"velocity":0.7086614173228346,"hand":"R"},{"time":37750,"durationMs":250,"midi":81,"velocity":0.7086614173228346,"hand":"R"},{"time":38000,"durationMs":500,"midi":57,"velocity":0.7086614173228346,"hand":"L"},{"time":38000,"durationMs":250,"midi":83,"velocity":0.7086614173228346,"hand":"R"},{"time":38250,"durationMs":250,"midi":81,"velocity":0.7086614173228346,"hand":"R"},{"time":38500,"durationMs":500,"midi":60,"velocity":0.7086614173228346,"hand":"L"},{"time":38500,"durationMs":500,"midi":64,"velocity":0.7086614173228346,"hand":"L"},{"time":38500,"durationMs":250,"midi":80,"velocity":0.7086614173228346,"hand":"R"},{"time":38750,"durationMs":250,"midi":81,"velocity":0.7086614173228346,"hand":"R"},{"time":39000,"durationMs":500,"midi":53,"velocity":0.7086614173228346,"hand":"L"},{"time":39000,"durationMs":500,"midi":84,"velocity":0.7086614173228346,"hand":"R"},{"time":39500,"durationMs":500,"midi":57,"velocity":0.7086614173228346,"hand":"L"},{"time":39500,"durationMs":500,"midi":63,"velocity":0.7086614173228346,"hand":"L"},{"time":40000,"durationMs":500,"midi":57,"velocity":0.7086614173228346,"hand":"L"},{"time":40000,"durationMs":500,"midi":63,"velocity":0.7086614173228346,"hand":"L"},{"time":40000,"durationMs":500,"midi":81,"velocity":0.7086614173228346,"hand":"R"},{"time":40500,"durationMs":500,"midi":57,"velocity":0.7086614173228346,"hand":"L"},{"time":40500,"durationMs":500,"midi":63,"velocity":0.7086614173228346,"hand":"L"},{"time":40500,"durationMs":500,"midi":83,"velocity":0.7086614173228346,"hand":"R"},{"time":41000,"durationMs":500,"midi":52,"velocity":0.7086614173228346,"hand":"L"},{"time":41000,"durationMs":500,"midi":84,"velocity":0.7086614173228346,"hand":"R"},{"time":41500,"durationMs":500,"midi":57,"velocity":0.7086614173228346,"hand":"L"},{"time":41500,"durationMs":500,"midi":64,"velocity":0.7086614173228346,"hand":"L"},{"time":41500,"durationMs":500,"midi":83,"velocity":0.7086614173228346,"hand":"R"},{"time":42000,"durationMs":500,"midi":50,"velocity":0.7086614173228346,"hand":"L"},{"time":42000,"durationMs":500,"midi":81,"velocity":0.7086614173228346,"hand":"R"},{"time":42500,"durationMs":500,"midi":53,"velocity":0.7086614173228346,"hand":"L"},{"time":42500,"durationMs":500,"midi":59,"velocity":0.7086614173228346,"hand":"L"},{"time":42500,"durationMs":500,"midi":80,"velocity":0.7086614173228346,"hand":"R"},{"time":43000,"durationMs":500,"midi":48,"velocity":0.7086614173228346,"hand":"L"},{"time":43000,"durationMs":500,"midi":81,"velocity":0.7086614173228346,"hand":"R"},{"time":43500,"durationMs":500,"midi":52,"velocity":0.7086614173228346,"hand":"L"},{"time":43500,"durationMs":500,"midi":57,"velocity":0.7086614173228346,"hand":"L"},{"time":43500,"durationMs":500,"midi":76,"velocity":0.7086614173228346,"hand":"R"},{"time":44000,"durationMs":500,"midi":50,"velocity":0.7086614173228346,"hand":"L"},{"time":44000,"durationMs":500,"midi":77,"velocity":0.7086614173228346,"hand":"R"},{"time":44500,"durationMs":500,"midi":53,"velocity":0.7086614173228346,"hand":"L"},{"time":44500,"durationMs":500,"midi":59,"velocity":0.7086614173228346,"hand":"L"},{"time":44500,"durationMs":500,"midi":74,"velocity":0.7086614173228346,"hand":"R"},{"time":45000,"durationMs":500,"midi":52,"velocity":0.7086614173228346,"hand":"L"},{"time":45000,"durationMs":500,"midi":57,"velocity":0.7086614173228346,"hand":"L"},{"time":45000,"durationMs":1000,"midi":72,"velocity":0.7086614173228346,"hand":"R"},{"time":45500,"durationMs":500,"midi":52,"velocity":0.7086614173228346,"hand":"L"},{"time":45500,"durationMs":500,"midi":57,"velocity":0.7086614173228346,"hand":"L"},{"time":46000,"durationMs":500,"midi":52,"velocity":0.7086614173228346,"hand":"L"},{"time":46000,"durationMs":500,"midi":56,"velocity":0.7086614173228346,"hand":"L"},{"time":46000,"durationMs":750,"midi":71,"velocity":0.7086614173228346,"hand":"R"},{"time":46500,"durationMs":500,"midi":52,"velocity":0.7086614173228346,"hand":"L"},{"time":46500,"durationMs":500,"midi":56,"velocity":0.7086614173228346,"hand":"L"},{"time":46750,"durationMs":125,"midi":69,"velocity":0.7086614173228346,"hand":"R"},{"time":46875,"durationMs":125,"midi":71,"velocity":0.7086614173228346,"hand":"R"},{"time":47000,"durationMs":914,"midi":45,"velocity":0.7086614173228346,"hand":"L"},{"time":47000,"durationMs":914,"midi":57,"velocity":0.7086614173228346,"hand":"L"},{"time":47000,"durationMs":1000,"midi":69,"velocity":0.7086614173228346,"hand":"R"},{"time":48000,"durationMs":500,"midi":69,"velocity":0.7086614173228346,"hand":"R"},{"time":48000,"durationMs":500,"midi":81,"velocity":0.7086614173228346,"hand":"R"},{"time":48500,"durationMs":500,"midi":71,"velocity":0.7086614173228346,"hand":"R"},{"time":48500,"durationMs":500,"midi":83,"velocity":0.7086614173228346,"hand":"R"},{"time":48914,"durationMs":26,"midi":45,"velocity":0.7086614173228346,"hand":"L"},{"time":48943,"durationMs":26,"midi":49,"velocity":0.7086614173228346,"hand":"L"},{"time":48971,"durationMs":26,"midi":52,"velocity":0.7086614173228346,"hand":"L"},{"time":49000,"durationMs":500,"midi":57,"velocity":0.7086614173228346,"hand":"L"},{"time":49000,"durationMs":1000,"midi":73,"velocity":0.7086614173228346,"hand":"R"},{"time":49000,"durationMs":1000,"midi":85,"velocity":0.7086614173228346,"hand":"R"},{"time":49500,"durationMs":500,"midi":57,"velocity":0.7086614173228346,"hand":"L"},{"time":50000,"durationMs":500,"midi":57,"velocity":0.7086614173228346,"hand":"L"},{"time":50000,"durationMs":500,"midi":69,"velocity":0.7086614173228346,"hand":"R"},{"time":50000,"durationMs":500,"midi":81,"velocity":0.7086614173228346,"hand":"R"},{"time":50500,"durationMs":414,"midi":57,"velocity":0.7086614173228346,"hand":"L"},{"time":50500,"durationMs":500,"midi":71,"velocity":0.7086614173228346,"hand":"R"},{"time":50500,"durationMs":500,"midi":83,"velocity":0.7086614173228346,"hand":"R"},{"time":50914,"durationMs":26,"midi":45,"velocity":0.7086614173228346,"hand":"L"},{"time":50943,"durationMs":26,"midi":49,"velocity":0.7086614173228346,"hand":"L"},{"time":50971,"durationMs":26,"midi":52,"velocity":0.7086614173228346,"hand":"L"},{"time":51000,"durationMs":500,"midi":57,"velocity":0.7086614173228346,"hand":"L"},{"time":51000,"durationMs":500,"midi":73,"velocity":0.7086614173228346,"hand":"R"},{"time":51000,"durationMs":500,"midi":85,"velocity":0.7086614173228346,"hand":"R"},{"time":51500,"durationMs":500,"midi":57,"velocity":0.7086614173228346,"hand":"L"},{"time":51500,"durationMs":500,"midi":71,"velocity":0.7086614173228346,"hand":"R"},{"time":51500,"durationMs":500,"midi":83,"velocity":0.7086614173228346,"hand":"R"},{"time":52000,"durationMs":500,"midi":57,"velocity":0.7086614173228346,"hand":"L"},{"time":52000,"durationMs":500,"midi":69,"velocity":0.7086614173228346,"hand":"R"},{"time":52000,"durationMs":500,"midi":81,"velocity":0.7086614173228346,"hand":"R"},{"time":52500,"durationMs":414,"midi":57,"velocity":0.7086614173228346,"hand":"L"},{"time":52500,"durationMs":500,"midi":68,"velocity":0.7086614173228346,"hand":"R"},{"time":52500,"durationMs":500,"midi":80,"velocity":0.7086614173228346,"hand":"R"},{"time":52914,"durationMs":26,"midi":38,"velocity":0.7086614173228346,"hand":"L"},{"time":52943,"durationMs":26,"midi":42,"velocity":0.7086614173228346,"hand":"L"},{"time":52971,"durationMs":26,"midi":45,"velocity":0.7086614173228346,"hand":"L"},{"time":53000,"durationMs":500,"midi":50,"velocity":0.7086614173228346,"hand":"L"},{"time":53000,"durationMs":500,"midi":66,"velocity":0.7086614173228346,"hand":"R"},{"time":53000,"durationMs":500,"midi":78,"velocity":0.7086614173228346,"hand":"R"},{"time":53500,"durationMs":414,"midi":50,"velocity":0.7086614173228346,"hand":"L"},{"time":53500,"durationMs":500,"midi":68,"velocity":0.7086614173228346,"hand":"R"},{"time":53500,"durationMs":500,"midi":80,"velocity":0.7086614173228346,"hand":"R"},{"time":53914,"durationMs":26,"midi":39,"velocity":0.7086614173228346,"hand":"L"},{"time":53943,"durationMs":26,"midi":42,"velocity":0.7086614173228346,"hand":"L"},{"time":53971,"durationMs":26,"midi":45,"velocity":0.7086614173228346,"hand":"L"},{"time":54000,"durationMs":500,"midi":51,"velocity":0.7086614173228346,"hand":"L"},{"time":54000,"durationMs":500,"midi":69,"velocity":0.7086614173228346,"hand":"R"},{"time":54000,"durationMs":500,"midi":81,"velocity":0.7086614173228346,"hand":"R"},{"time":54500,"durationMs":414,"midi":51,"velocity":0.7086614173228346,"hand":"L"},{"time":54500,"durationMs":500,"midi":71,"velocity":0.7086614173228346,"hand":"R"},{"time":54500,"durationMs":500,"midi":83,"velocity":0.7086614173228346,"hand":"R"},{"time":54914,"durationMs":26,"midi":40,"velocity":0.7086614173228346,"hand":"L"},{"time":54943,"durationMs":26,"midi":44,"velocity":0.7086614173228346,"hand":"L"},{"time":54971,"durationMs":26,"midi":47,"velocity":0.7086614173228346,"hand":"L"},{"time":55000,"durationMs":500,"midi":52,"velocity":0.7086614173228346,"hand":"L"},{"time":55000,"durationMs":500,"midi":68,"velocity":0.7086614173228346,"hand":"R"},{"time":55000,"durationMs":500,"midi":80,"velocity":0.7086614173228346,"hand":"R"},{"time":55500,"durationMs":500,"midi":52,"velocity":0.7086614173228346,"hand":"L"},{"time":55500,"durationMs":500,"midi":64,"velocity":0.7086614173228346,"hand":"R"},{"time":55500,"durationMs":500,"midi":76,"velocity":0.7086614173228346,"hand":"R"},{"time":56000,"durationMs":500,"midi":52,"velocity":0.7086614173228346,"hand":"L"},{"time":56000,"durationMs":500,"midi":69,"velocity":0.7086614173228346,"hand":"R"},{"time":56000,"durationMs":500,"midi":81,"velocity":0.7086614173228346,"hand":"R"},{"time":56500,"durationMs":414,"midi":52,"velocity":0.7086614173228346,"hand":"L"},{"time":56500,"durationMs":500,"midi":71,"velocity":0.7086614173228346,"hand":"R"},{"time":56500,"durationMs":500,"midi":83,"velocity":0.7086614173228346,"hand":"R"},{"time":56914,"durationMs":26,"midi":45,"velocity":0.7086614173228346,"hand":"L"},{"time":56943,"durationMs":26,"midi":49,"velocity":0.7086614173228346,"hand":"L"},{"time":56971,"durationMs":26,"midi":52,"velocity":0.7086614173228346,"hand":"L"},{"time":57000,"durationMs":500,"midi":57,"velocity":0.7086614173228346,"hand":"L"},{"time":57000,"durationMs":1000,"midi":73,"velocity":0.7086614173228346,"hand":"R"},{"time":57000,"durationMs":1000,"midi":85,"velocity":0.7086614173228346,"hand":"R"},{"time":57500,"durationMs":500,"midi":57,"velocity":0.7086614173228346,"hand":"L"},{"time":58000,"durationMs":500,"midi":57,"velocity":0.7086614173228346,"hand":"L"},{"time":58000,"durationMs":500,"midi":69,"velocity":0.7086614173228346,"hand":"R"},{"time":58000,"durationMs":500,"midi":81,"velocity":0.7086614173228346,"hand":"R"},{"time":58500,"durationMs":414,"midi":57,"velocity":0.7086614173228346,"hand":"L"},{"time":58500,"durationMs":500,"midi":71,"velocity":0.7086614173228346,"hand":"R"},{"time":58500,"durationMs":500,"midi":83,"velocity":0.7086614173228346,"hand":"R"},{"time":58914,"durationMs":26,"midi":45,"velocity":0.7086614173228346,"hand":"L"},{"time":58943,"durationMs":26,"midi":49,"velocity":0.7086614173228346,"hand":"L"},{"time":58971,"durationMs":26,"midi":52,"velocity":0.7086614173228346,"hand":"L"},{"time":59000,"durationMs":500,"midi":57,"velocity":0.7086614173228346,"hand":"L"},{"time":59000,"durationMs":500,"midi":73,"velocity":0.7086614173228346,"hand":"R"},{"time":59000,"durationMs":500,"midi":85,"velocity":0.7086614173228346,"hand":"R"},{"time":59500,"durationMs":500,"midi":57,"velocity":0.7086614173228346,"hand":"L"},{"time":59500,"durationMs":500,"midi":71,"velocity":0.7086614173228346,"hand":"R"},{"time":59500,"durationMs":500,"midi":83,"velocity":0.7086614173228346,"hand":"R"},{"time":60000,"durationMs":500,"midi":57,"velocity":0.7086614173228346,"hand":"L"},{"time":60000,"durationMs":500,"midi":69,"velocity":0.7086614173228346,"hand":"R"},{"time":60000,"durationMs":500,"midi":81,"velocity":0.7086614173228346,"hand":"R"},{"time":60500,"durationMs":414,"midi":57,"velocity":0.7086614173228346,"hand":"L"},{"time":60500,"durationMs":500,"midi":68,"velocity":0.7086614173228346,"hand":"R"},{"time":60500,"durationMs":500,"midi":80,"velocity":0.7086614173228346,"hand":"R"},{"time":60914,"durationMs":26,"midi":38,"velocity":0.7086614173228346,"hand":"L"},{"time":60943,"durationMs":26,"midi":42,"velocity":0.7086614173228346,"hand":"L"},{"time":60971,"durationMs":26,"midi":45,"velocity":0.7086614173228346,"hand":"L"},{"time":61000,"durationMs":500,"midi":50,"velocity":0.7086614173228346,"hand":"L"},{"time":61000,"durationMs":500,"midi":66,"velocity":0.7086614173228346,"hand":"R"},{"time":61000,"durationMs":500,"midi":78,"velocity":0.7086614173228346,"hand":"R"},{"time":61500,"durationMs":414,"midi":50,"velocity":0.7086614173228346,"hand":"L"},{"time":61500,"durationMs":500,"midi":71,"velocity":0.7086614173228346,"hand":"R"},{"time":61500,"durationMs":500,"midi":83,"velocity":0.7086614173228346,"hand":"R"},{"time":61914,"durationMs":26,"midi":40,"velocity":0.7086614173228346,"hand":"L"},{"time":61943,"durationMs":26,"midi":44,"velocity":0.7086614173228346,"hand":"L"},{"time":61971,"durationMs":26,"midi":47,"velocity":0.7086614173228346,"hand":"L"},{"time":62000,"durationMs":500,"midi":52,"velocity":0.7086614173228346,"hand":"L"},{"time":62000,"durationMs":500,"midi":68,"velocity":0.7086614173228346,"hand":"R"},{"time":62000,"durationMs":500,"midi":80,"velocity":0.7086614173228346,"hand":"R"},{"time":62500,"durationMs":500,"midi":52,"velocity":0.7086614173228346,"hand":"L"},{"time":62500,"durationMs":500,"midi":64,"velocity":0.7086614173228346,"hand":"R"},{"time":62500,"durationMs":500,"midi":76,"velocity":0.7086614173228346,"hand":"R"},{"time":63000,"durationMs":1000,"midi":45,"velocity":0.7086614173228346,"hand":"L"},{"time":63000,"durationMs":1000,"midi":69,"velocity":0.7086614173228346,"hand":"R"},{"time":63000,"durationMs":1000,"midi":81,"velocity":0.7086614173228346,"hand":"R"},{"time":64000,"durationMs":250,"midi":85,"velocity":0.7086614173228346,"hand":"R"},{"time":64250,"durationMs":250,"midi":86,"velocity":0.7086614173228346,"hand":"R"},{"time":64500,"durationMs":250,"midi":85,"velocity":0.7086614173228346,"hand":"R"},{"time":64750,"durationMs":250,"midi":83,"velocity":0.7086614173228346,"hand":"R"},{"time":65000,"durationMs":500,"midi":54,"velocity":0.7086614173228346,"hand":"L"},{"time":65000,"durationMs":250,"midi":81,"velocity":0.7086614173228346,"hand":"R"},{"time":65250,"durationMs":250,"midi":83,"velocity":0.7086614173228346,"hand":"R"},{"time":65500,"durationMs":500,"midi":57,"velocity":0.7086614173228346,"hand":"L"},{"time":65500,"durationMs":500,"midi":61,"velocity":0.7086614173228346,"hand":"L"},{"time":65500,"durationMs":250,"midi":81,"velocity":0.7086614173228346,"hand":"R"},{"time":65750,"durationMs":250,"midi":80,"velocity":0.7086614173228346,"hand":"R"},{"time":66000,"durationMs":500,"midi":57,"velocity":0.7086614173228346,"hand":"L"},{"time":66000,"durationMs":500,"midi":61,"velocity":0.7086614173228346,"hand":"L"},{"time":66000,"durationMs":250,"midi":78,"velocity":0.7086614173228346,"hand":"R"},{"time":66250,"durationMs":250,"midi":81,"velocity":0.7086614173228346,"hand":"R"},{"time":66500,"durationMs":500,"midi":57,"velocity":0.7086614173228346,"hand":"L"},{"time":66500,"durationMs":500,"midi":61,"velocity":0.7086614173228346,"hand":"L"},{"time":66500,"durationMs":250,"midi":80,"velocity":0.7086614173228346,"hand":"R"},{"time":66750,"durationMs":250,"midi":78,"velocity":0.7086614173228346,"hand":"R"},{"time":67000,"durationMs":500,"midi":56,"velocity":0.7086614173228346,"hand":"L"},{"time":67000,"durationMs":250,"midi":77,"velocity":0.7086614173228346,"hand":"R"},{"time":67250,"durationMs":250,"midi":78,"velocity":0.7086614173228346,"hand":"R"},{"time":67500,"durationMs":500,"midi":59,"velocity":0.7086614173228346,"hand":"L"},{"time":67500,"durationMs":500,"midi":61,"velocity":0.7086614173228346,"hand":"L"},{"time":67500,"durationMs":250,"midi":80,"velocity":0.7086614173228346,"hand":"R"},{"time":67750,"durationMs":250,"midi":77,"velocity":0.7086614173228346,"hand":"R"},{"time":68000,"durationMs":500,"midi":59,"velocity":0.7086614173228346,"hand":"L"},{"time":68000,"durationMs":500,"midi":61,"velocity":0.7086614173228346,"hand":"L"},{"time":68000,"durationMs":250,"midi":73,"velocity":0.7086614173228346,"hand":"R"},{"time":68250,"durationMs":250,"midi":75,"velocity":0.7086614173228346,"hand":"R"},{"time":68500,"durationMs":500,"midi":59,"velocity":0.7086614173228346,"hand":"L"},{"time":68500,"durationMs":500,"midi":61,"velocity":0.7086614173228346,"hand":"L"},{"time":68500,"durationMs":250,"midi":77,"velocity":0.7086614173228346,"hand":"R"},{"time":68750,"durationMs":250,"midi":73,"velocity":0.7086614173228346,"hand":"R"},{"time":69000,"durationMs":500,"midi":54,"velocity":0.7086614173228346,"hand":"L"},{"time":69000,"durationMs":250,"midi":78,"velocity":0.7086614173228346,"hand":"R"},{"time":69250,"durationMs":250,"midi":77,"velocity":0.7086614173228346,"hand":"R"},{"time":69500,"durationMs":500,"midi":57,"velocity":0.7086614173228346,"hand":"L"},{"time":69500,"durationMs":500,"midi":61,"velocity":0.7086614173228346,"hand":"L"},{"time":69500,"durationMs":250,"midi":78,"velocity":0.7086614173228346,"hand":"R"},{"time":69750,"durationMs":250,"midi":80,"velocity":0.7086614173228346,"hand":"R"},{"time":70000,"durationMs":500,"midi":57,"velocity":0.7086614173228346,"hand":"L"},{"time":70000,"durationMs":500,"midi":61,"velocity":0.7086614173228346,"hand":"L"},{"time":70000,"durationMs":250,"midi":81,"velocity":0.7086614173228346,"hand":"R"},{"time":70250,"durationMs":250,"midi":80,"velocity":0.7086614173228346,"hand":"R"},{"time":70500,"durationMs":500,"midi":57,"velocity":0.7086614173228346,"hand":"L"},{"time":70500,"durationMs":500,"midi":61,"velocity":0.7086614173228346,"hand":"L"},{"time":70500,"durationMs":250,"midi":81,"velocity":0.7086614173228346,"hand":"R"},{"time":70750,"durationMs":250,"midi":83,"velocity":0.7086614173228346,"hand":"R"},{"time":71000,"durationMs":500,"midi":53,"velocity":0.7086614173228346,"hand":"L"},{"time":71000,"durationMs":250,"midi":85,"velocity":0.7086614173228346,"hand":"R"},{"time":71250,"durationMs":250,"midi":84,"velocity":0.7086614173228346,"hand":"R"},{"time":71500,"durationMs":500,"midi":56,"velocity":0.7086614173228346,"hand":"L"},{"time":71500,"durationMs":500,"midi":61,"velocity":0.7086614173228346,"hand":"L"},{"time":71500,"durationMs":250,"midi":85,"velocity":0.7086614173228346,"hand":"R"},{"time":71750,"durationMs":250,"midi":84,"velocity":0.7086614173228346,"hand":"R"},{"time":72000,"durationMs":500,"midi":56,"velocity":0.7086614173228346,"hand":"L"},{"time":72000,"durationMs":500,"midi":61,"velocity":0.7086614173228346,"hand":"L"},{"time":72000,"durationMs":250,"midi":85,"velocity":0.7086614173228346,"hand":"R"},{"time":72250,"durationMs":250,"midi":86,"velocity":0.7086614173228346,"hand":"R"},{"time":72500,"durationMs":500,"midi":56,"velocity":0.7086614173228346,"hand":"L"},{"time":72500,"durationMs":500,"midi":61,"velocity":0.7086614173228346,"hand":"L"},{"time":72500,"durationMs":250,"midi":85,"velocity":0.7086614173228346,"hand":"R"},{"time":72750,"durationMs":250,"midi":83,"velocity":0.7086614173228346,"hand":"R"},{"time":73000,"durationMs":500,"midi":54,"velocity":0.7086614173228346,"hand":"L"},{"time":73000,"durationMs":250,"midi":81,"velocity":0.7086614173228346,"hand":"R"},{"time":73250,"durationMs":250,"midi":83,"velocity":0.7086614173228346,"hand":"R"},{"time":73500,"durationMs":500,"midi":57,"velocity":0.7086614173228346,"hand":"L"},{"time":73500,"durationMs":500,"midi":61,"velocity":0.7086614173228346,"hand":"L"},{"time":73500,"durationMs":250,"midi":81,"velocity":0.7086614173228346,"hand":"R"},{"time":73750,"durationMs":250,"midi":80,"velocity":0.7086614173228346,"hand":"R"},{"time":74000,"durationMs":500,"midi":57,"velocity":0.7086614173228346,"hand":"L"},{"time":74000,"durationMs":500,"midi":61,"velocity":0.7086614173228346,"hand":"L"},{"time":74000,"durationMs":250,"midi":78,"velocity":0.7086614173228346,"hand":"R"},{"time":74250,"durationMs":250,"midi":81,"velocity":0.7086614173228346,"hand":"R"},{"time":74500,"durationMs":500,"midi":57,"velocity":0.7086614173228346,"hand":"L"},{"time":74500,"durationMs":500,"midi":61,"velocity":0.7086614173228346,"hand":"L"},{"time":74500,"durationMs":250,"midi":80,"velocity":0.7086614173228346,"hand":"R"},{"time":74750,"durationMs":250,"midi":78,"velocity":0.7086614173228346,"hand":"R"},{"time":75000,"durationMs":500,"midi":56,"velocity":0.7086614173228346,"hand":"L"},{"time":75000,"durationMs":250,"midi":76,"velocity":0.7086614173228346,"hand":"R"},{"time":75250,"durationMs":250,"midi":78,"velocity":0.7086614173228346,"hand":"R"},{"time":75500,"durationMs":500,"midi":61,"velocity":0.7086614173228346,"hand":"L"},{"time":75500,"durationMs":500,"midi":64,"velocity":0.7086614173228346,"hand":"L"},{"time":75500,"durationMs":250,"midi":80,"velocity":0.7086614173228346,"hand":"R"},{"time":75750,"durationMs":250,"midi":76,"velocity":0.7086614173228346,"hand":"R"},{"time":76000,"durationMs":500,"midi":61,"velocity":0.7086614173228346,"hand":"L"},{"time":76000,"durationMs":500,"midi":64,"velocity":0.7086614173228346,"hand":"L"},{"time":76000,"durationMs":250,"midi":73,"velocity":0.7086614173228346,"hand":"R"},{"time":76250,"durationMs":250,"midi":75,"velocity":0.7086614173228346,"hand":"R"},{"time":76500,"durationMs":500,"midi":61,"velocity":0.7086614173228346,"hand":"L"},{"time":76500,"durationMs":500,"midi":64,"velocity":0.7086614173228346,"hand":"L"},{"time":76500,"durationMs":250,"midi":76,"velocity":0.7086614173228346,"hand":"R"},{"time":76750,"durationMs":250,"midi":73,"velocity":0.7086614173228346,"hand":"R"},{"time":77000,"durationMs":500,"midi":56,"velocity":0.7086614173228346,"hand":"L"},{"time":77000,"durationMs":250,"midi":75,"velocity":0.7086614173228346,"hand":"R"},{"time":77250,"durationMs":250,"midi":76,"velocity":0.7086614173228346,"hand":"R"},{"time":77500,"durationMs":500,"midi":63,"velocity":0.7086614173228346,"hand":"L"},{"time":77500,"durationMs":500,"midi":66,"velocity":0.7086614173228346,"hand":"L"},{"time":77500,"durationMs":250,"midi":78,"velocity":0.7086614173228346,"hand":"R"},{"time":77750,"durationMs":250,"midi":75,"velocity":0.7086614173228346,"hand":"R"},{"time":78000,"durationMs":500,"midi":63,"velocity":0.7086614173228346,"hand":"L"},{"time":78000,"durationMs":500,"midi":66,"velocity":0.7086614173228346,"hand":"L"},{"time":78000,"durationMs":250,"midi":72,"velocity":0.7086614173228346,"hand":"R"},{"time":78250,"durationMs":250,"midi":73,"velocity":0.7086614173228346,"hand":"R"},{"time":78500,"durationMs":500,"midi":63,"velocity":0.7086614173228346,"hand":"L"},{"time":78500,"durationMs":500,"midi":66,"velocity":0.7086614173228346,"hand":"L"},{"time":78500,"durationMs":250,"midi":75,"velocity":0.7086614173228346,"hand":"R"},{"time":78750,"durationMs":250,"midi":72,"velocity":0.7086614173228346,"hand":"R"},{"time":79000,"durationMs":1000,"midi":61,"velocity":0.7086614173228346,"hand":"L"},{"time":79000,"durationMs":1000,"midi":64,"velocity":0.7086614173228346,"hand":"L"},{"time":79000,"durationMs":1000,"midi":73,"velocity":0.7086614173228346,"hand":"R"},{"time":80000,"durationMs":250,"midi":76,"velocity":0.7086614173228346,"hand":"R"},{"time":80250,"durationMs":250,"midi":74,"velocity":0.7086614173228346,"hand":"R"},{"time":80500,"durationMs":250,"midi":73,"velocity":0.7086614173228346,"hand":"R"},{"time":80750,"durationMs":250,"midi":71,"velocity":0.7086614173228346,"hand":"R"},{"time":81000,"durationMs":500,"midi":57,"velocity":0.7086614173228346,"hand":"L"},{"time":81000,"durationMs":250,"midi":69,"velocity":0.7086614173228346,"hand":"R"},{"time":81250,"durationMs":250,"midi":71,"velocity":0.7086614173228346,"hand":"R"},{"time":81500,"durationMs":500,"midi":61,"velocity":0.7086614173228346,"hand":"L"},{"time":81500,"durationMs":500,"midi":64,"velocity":0.7086614173228346,"hand":"L"},{"time":81500,"durationMs":250,"midi":73,"velocity":0.7086614173228346,"hand":"R"},{"time":81750,"durationMs":250,"midi":74,"velocity":0.7086614173228346,"hand":"R"},{"time":82000,"durationMs":500,"midi":61,"velocity":0.7086614173228346,"hand":"L"},{"time":82000,"durationMs":500,"midi":64,"velocity":0.7086614173228346,"hand":"L"},{"time":82000,"durationMs":250,"midi":76,"velocity":0.7086614173228346,"hand":"R"},{"time":82250,"durationMs":250,"midi":78,"velocity":0.7086614173228346,"hand":"R"},{"time":82500,"durationMs":500,"midi":61,"velocity":0.7086614173228346,"hand":"L"},{"time":82500,"durationMs":500,"midi":64,"velocity":0.7086614173228346,"hand":"L"},{"time":82500,"durationMs":250,"midi":80,"velocity":0.7086614173228346,"hand":"R"},{"time":82750,"durationMs":250,"midi":81,"velocity":0.7086614173228346,"hand":"R"},{"time":83000,"durationMs":500,"midi":59,"velocity":0.7086614173228346,"hand":"L"},{"time":83000,"durationMs":250,"midi":81,"velocity":0.7086614173228346,"hand":"R"},{"time":83250,"durationMs":250,"midi":80,"velocity":0.7086614173228346,"hand":"R"},{"time":83500,"durationMs":500,"midi":62,"velocity":0.7086614173228346,"hand":"L"},{"time":83500,"durationMs":500,"midi":64,"velocity":0.7086614173228346,"hand":"L"},{"time":83500,"durationMs":250,"midi":78,"velocity":0.7086614173228346,"hand":"R"},{"time":83750,"durationMs":250,"midi":76,"velocity":0.7086614173228346,"hand":"R"},{"time":84000,"durationMs":500,"midi":56,"velocity":0.7086614173228346,"hand":"L"},{"time":84000,"durationMs":250,"midi":76,"velocity":0.7086614173228346,"hand":"R"},{"time":84250,"durationMs":250,"midi":74,"velocity":0.7086614173228346,"hand":"R"},{"time":84500,"durationMs":500,"midi":62,"velocity":0.7086614173228346,"hand":"L"},{"time":84500,"durationMs":500,"midi":64,"velocity":0.7086614173228346,"hand":"L"},{"time":84500,"durationMs":250,"midi":73,"velocity":0.7086614173228346,"hand":"R"},{"time":84750,"durationMs":250,"midi":71,"velocity":0.7086614173228346,"hand":"R"},{"time":85000,"durationMs":500,"midi":57,"velocity":0.7086614173228346,"hand":"L"},{"time":85000,"durationMs":250,"midi":69,"velocity":0.7086614173228346,"hand":"R"},{"time":85250,"durationMs":250,"midi":71,"velocity":0.7086614173228346,"hand":"R"},{"time":85500,"durationMs":500,"midi":61,"velocity":0.7086614173228346,"hand":"L"},{"time":85500,"durationMs":500,"midi":64,"velocity":0.7086614173228346,"hand":"L"},{"time":85500,"durationMs":250,"midi":73,"velocity":0.7086614173228346,"hand":"R"},{"time":85750,"durationMs":250,"midi":74,"velocity":0.7086614173228346,"hand":"R"},{"time":86000,"durationMs":500,"midi":61,"velocity":0.7086614173228346,"hand":"L"},{"time":86000,"durationMs":500,"midi":64,"velocity":0.7086614173228346,"hand":"L"},{"time":86000,"durationMs":250,"midi":76,"velocity":0.7086614173228346,"hand":"R"},{"time":86250,"durationMs":250,"midi":78,"velocity":0.7086614173228346,"hand":"R"},{"time":86500,"durationMs":500,"midi":61,"velocity":0.7086614173228346,"hand":"L"},{"time":86500,"durationMs":500,"midi":64,"velocity":0.7086614173228346,"hand":"L"},{"time":86500,"durationMs":250,"midi":80,"velocity":0.7086614173228346,"hand":"R"},{"time":86750,"durationMs":250,"midi":81,"velocity":0.7086614173228346,"hand":"R"},{"time":87000,"durationMs":500,"midi":52,"velocity":0.7086614173228346,"hand":"L"},{"time":87000,"durationMs":500,"midi":82,"velocity":0.7086614173228346,"hand":"R"},{"time":87500,"durationMs":500,"midi":56,"velocity":0.7086614173228346,"hand":"L"},{"time":87500,"durationMs":500,"midi":62,"velocity":0.7086614173228346,"hand":"L"},{"time":87500,"durationMs":500,"midi":83,"velocity":0.7086614173228346,"hand":"R"},{"time":88000,"durationMs":500,"midi":56,"velocity":0.7086614173228346,"hand":"L"},{"time":88000,"durationMs":500,"midi":62,"velocity":0.7086614173228346,"hand":"L"},{"time":88000,"durationMs":250,"midi":76,"velocity":0.7086614173228346,"hand":"R"},{"time":88250,"durationMs":250,"midi":74,"velocity":0.7086614173228346,"hand":"R"},{"time":88500,"durationMs":500,"midi":56,"velocity":0.7086614173228346,"hand":"L"},{"time":88500,"durationMs":500,"midi":62,"velocity":0.7086614173228346,"hand":"L"},{"time":88500,"durationMs":250,"midi":73,"velocity":0.7086614173228346,"hand":"R"},{"time":88750,"durationMs":250,"midi":71,"velocity":0.7086614173228346,"hand":"R"},{"time":89000,"durationMs":500,"midi":57,"velocity":0.7086614173228346,"hand":"L"},{"time":89000,"durationMs":250,"midi":69,"velocity":0.7086614173228346,"hand":"R"},{"time":89250,"durationMs":250,"midi":71,"velocity":0.7086614173228346,"hand":"R"},{"time":89500,"durationMs":500,"midi":61,"velocity":0.7086614173228346,"hand":"L"},{"time":89500,"durationMs":500,"midi":64,"velocity":0.7086614173228346,"hand":"L"},{"time":89500,"durationMs":250,"midi":73,"velocity":0.7086614173228346,"hand":"R"},{"time":89750,"durationMs":250,"midi":74,"velocity":0.7086614173228346,"hand":"R"},{"time":90000,"durationMs":500,"midi":61,"velocity":0.7086614173228346,"hand":"L"},{"time":90000,"durationMs":500,"midi":64,"velocity":0.7086614173228346,"hand":"L"},{"time":90000,"durationMs":250,"midi":76,"velocity":0.7086614173228346,"hand":"R"},{"time":90250,"durationMs":250,"midi":78,"velocity":0.7086614173228346,"hand":"R"},{"time":90500,"durationMs":500,"midi":61,"velocity":0.7086614173228346,"hand":"L"},{"time":90500,"durationMs":500,"midi":64,"velocity":0.7086614173228346,"hand":"L"},{"time":90500,"durationMs":250,"midi":80,"velocity":0.7086614173228346,"hand":"R"},{"time":90750,"durationMs":250,"midi":81,"velocity":0.7086614173228346,"hand":"R"},{"time":91000,"durationMs":500,"midi":59,"velocity":0.7086614173228346,"hand":"L"},{"time":91000,"durationMs":250,"midi":81,"velocity":0.7086614173228346,"hand":"R"},{"time":91250,"durationMs":250,"midi":80,"velocity":0.7086614173228346,"hand":"R"},{"time":91500,"durationMs":500,"midi":62,"velocity":0.7086614173228346,"hand":"L"},{"time":91500,"durationMs":500,"midi":64,"velocity":0.7086614173228346,"hand":"L"},{"time":91500,"durationMs":250,"midi":78,"velocity":0.7086614173228346,"hand":"R"},{"time":91750,"durationMs":250,"midi":76,"velocity":0.7086614173228346,"hand":"R"},{"time":92000,"durationMs":500,"midi":56,"velocity":0.7086614173228346,"hand":"L"},{"time":92000,"durationMs":250,"midi":76,"velocity":0.7086614173228346,"hand":"R"},{"time":92250,"durationMs":250,"midi":74,"velocity":0.7086614173228346,"hand":"R"},{"time":92500,"durationMs":500,"midi":62,"velocity":0.7086614173228346,"hand":"L"},{"time":92500,"durationMs":500,"midi":64,"velocity":0.7086614173228346,"hand":"L"},{"time":92500,"durationMs":250,"midi":73,"velocity":0.7086614173228346,"hand":"R"},{"time":92750,"durationMs":250,"midi":71,"velocity":0.7086614173228346,"hand":"R"},{"time":93000,"durationMs":500,"midi":57,"velocity":0.7086614173228346,"hand":"L"},{"time":93000,"durationMs":250,"midi":73,"velocity":0.7086614173228346,"hand":"R"},{"time":93250,"durationMs":250,"midi":76,"velocity":0.7086614173228346,"hand":"R"},{"time":93500,"durationMs":500,"midi":54,"velocity":0.7086614173228346,"hand":"L"},{"time":93500,"durationMs":250,"midi":69,"velocity":0.7086614173228346,"hand":"R"},{"time":93750,"durationMs":250,"midi":73,"velocity":0.7086614173228346,"hand":"R"},{"time":94000,"durationMs":500,"midi":50,"velocity":0.7086614173228346,"hand":"L"},{"time":94000,"durationMs":250,"midi":71,"velocity":0.7086614173228346,"hand":"R"},{"time":94250,"durationMs":250,"midi":74,"velocity":0.7086614173228346,"hand":"R"},{"time":94500,"durationMs":500,"midi":52,"velocity":0.7086614173228346,"hand":"L"},{"time":94500,"durationMs":250,"midi":68,"velocity":0.7086614173228346,"hand":"R"},{"time":94750,"durationMs":250,"midi":71,"velocity":0.7086614173228346,"hand":"R"},{"time":95000,"durationMs":500,"midi":45,"velocity":0.7086614173228346,"hand":"L"},{"time":95000,"durationMs":1000,"midi":69,"velocity":0.7086614173228346,"hand":"R"},{"time":95500,"durationMs":500,"midi":57,"velocity":0.7086614173228346,"hand":"L"},{"time":96000,"durationMs":250,"midi":85,"velocity":0.7086614173228346,"hand":"R"},{"time":96250,"durationMs":250,"midi":86,"velocity":0.7086614173228346,"hand":"R"},{"time":96500,"durationMs":250,"midi":85,"velocity":0.7086614173228346,"hand":"R"},{"time":96750,"durationMs":250,"midi":83,"velocity":0.7086614173228346,"hand":"R"},{"time":97000,"durationMs":500,"midi":54,"velocity":0.7086614173228346,"hand":"L"},{"time":97000,"durationMs":250,"midi":81,"velocity":0.7086614173228346,"hand":"R"},{"time":97250,"durationMs":250,"midi":83,"velocity":0.7086614173228346,"hand":"R"},{"time":97500,"durationMs":500,"midi":57,"velocity":0.7086614173228346,"hand":"L"},{"time":97500,"durationMs":500,"midi":61,"velocity":0.7086614173228346,"hand":"L"},{"time":97500,"durationMs":250,"midi":81,"velocity":0.7086614173228346,"hand":"R"},{"time":97750,"durationMs":250,"midi":80,"velocity":0.7086614173228346,"hand":"R"},{"time":98000,"durationMs":500,"midi":57,"velocity":0.7086614173228346,"hand":"L"},{"time":98000,"durationMs":500,"midi":61,"velocity":0.7086614173228346,"hand":"L"},{"time":98000,"durationMs":250,"midi":78,"velocity":0.7086614173228346,"hand":"R"},{"time":98250,"durationMs":250,"midi":81,"velocity":0.7086614173228346,"hand":"R"},{"time":98500,"durationMs":500,"midi":57,"velocity":0.7086614173228346,"hand":"L"},{"time":98500,"durationMs":500,"midi":61,"velocity":0.7086614173228346,"hand":"L"},{"time":98500,"durationMs":250,"midi":80,"velocity":0.7086614173228346,"hand":"R"},{"time":98750,"durationMs":250,"midi":78,"velocity":0.7086614173228346,"hand":"R"},{"time":99000,"durationMs":500,"midi":56,"velocity":0.7086614173228346,"hand":"L"},{"time":99000,"durationMs":250,"midi":77,"velocity":0.7086614173228346,"hand":"R"},{"time":99250,"durationMs":250,"midi":78,"velocity":0.7086614173228346,"hand":"R"},{"time":99500,"durationMs":500,"midi":59,"velocity":0.7086614173228346,"hand":"L"},{"time":99500,"durationMs":500,"midi":61,"velocity":0.7086614173228346,"hand":"L"},{"time":99500,"durationMs":250,"midi":80,"velocity":0.7086614173228346,"hand":"R"},{"time":99750,"durationMs":250,"midi":77,"velocity":0.7086614173228346,"hand":"R"},{"time":100000,"durationMs":500,"midi":59,"velocity":0.7086614173228346,"hand":"L"},{"time":100000,"durationMs":500,"midi":61,"velocity":0.7086614173228346,"hand":"L"},{"time":100000,"durationMs":250,"midi":73,"velocity":0.7086614173228346,"hand":"R"},{"time":100250,"durationMs":250,"midi":75,"velocity":0.7086614173228346,"hand":"R"},{"time":100500,"durationMs":500,"midi":59,"velocity":0.7086614173228346,"hand":"L"},{"time":100500,"durationMs":500,"midi":61,"velocity":0.7086614173228346,"hand":"L"},{"time":100500,"durationMs":250,"midi":77,"velocity":0.7086614173228346,"hand":"R"},{"time":100750,"durationMs":250,"midi":73,"velocity":0.7086614173228346,"hand":"R"},{"time":101000,"durationMs":500,"midi":54,"velocity":0.7086614173228346,"hand":"L"},{"time":101000,"durationMs":250,"midi":78,"velocity":0.7086614173228346,"hand":"R"},{"time":101250,"durationMs":250,"midi":77,"velocity":0.7086614173228346,"hand":"R"},{"time":101500,"durationMs":500,"midi":57,"velocity":0.7086614173228346,"hand":"L"},{"time":101500,"durationMs":500,"midi":61,"velocity":0.7086614173228346,"hand":"L"},{"time":101500,"durationMs":250,"midi":78,"velocity":0.7086614173228346,"hand":"R"},{"time":101750,"durationMs":250,"midi":80,"velocity":0.7086614173228346,"hand":"R"},{"time":102000,"durationMs":500,"midi":57,"velocity":0.7086614173228346,"hand":"L"},{"time":102000,"durationMs":500,"midi":61,"velocity":0.7086614173228346,"hand":"L"},{"time":102000,"durationMs":250,"midi":81,"velocity":0.7086614173228346,"hand":"R"},{"time":102250,"durationMs":250,"midi":80,"velocity":0.7086614173228346,"hand":"R"},{"time":102500,"durationMs":500,"midi":57,"velocity":0.7086614173228346,"hand":"L"},{"time":102500,"durationMs":500,"midi":61,"velocity":0.7086614173228346,"hand":"L"},{"time":102500,"durationMs":250,"midi":81,"velocity":0.7086614173228346,"hand":"R"},{"time":102750,"durationMs":250,"midi":83,"velocity":0.7086614173228346,"hand":"R"},{"time":103000,"durationMs":500,"midi":49,"velocity":0.7086614173228346,"hand":"L"},{"time":103000,"durationMs":250,"midi":85,"velocity":0.7086614173228346,"hand":"R"},{"time":103250,"durationMs":250,"midi":84,"velocity":0.7086614173228346,"hand":"R"},{"time":103500,"durationMs":500,"midi":56,"velocity":0.7086614173228346,"hand":"L"},{"time":103500,"durationMs":500,"midi":61,"velocity":0.7086614173228346,"hand":"L"},{"time":103500,"durationMs":250,"midi":85,"velocity":0.7086614173228346,"hand":"R"},{"time":103750,"durationMs":250,"midi":84,"velocity":0.7086614173228346,"hand":"R"},{"time":104000,"durationMs":500,"midi":55,"velocity":0.7086614173228346,"hand":"L"},{"time":104000,"durationMs":500,"midi":61,"velocity":0.7086614173228346,"hand":"L"},{"time":104000,"durationMs":250,"midi":85,"velocity":0.7086614173228346,"hand":"R"},{"time":104250,"durationMs":250,"midi":84,"velocity":0.7086614173228346,"hand":"R"},{"time":104500,"durationMs":500,"midi":54,"velocity":0.7086614173228346,"hand":"L"},{"time":104500,"durationMs":500,"midi":61,"velocity":0.7086614173228346,"hand":"L"},{"time":104500,"durationMs":250,"midi":85,"velocity":0.7086614173228346,"hand":"R"},{"time":104750,"durationMs":250,"midi":82,"velocity":0.7086614173228346,"hand":"R"},{"time":105000,"durationMs":500,"midi":47,"velocity":0.7086614173228346,"hand":"L"},{"time":105000,"durationMs":250,"midi":86,"velocity":0.7086614173228346,"hand":"R"},{"time":105250,"durationMs":250,"midi":85,"velocity":0.7086614173228346,"hand":"R"},{"time":105500,"durationMs":500,"midi":54,"velocity":0.7086614173228346,"hand":"L"},{"time":105500,"durationMs":500,"midi":59,"velocity":0.7086614173228346,"hand":"L"},{"time":105500,"durationMs":250,"midi":86,"velocity":0.7086614173228346,"hand":"R"},{"time":105750,"durationMs":250,"midi":85,"velocity":0.7086614173228346,"hand":"R"},{"time":106000,"durationMs":500,"midi":54,"velocity":0.7086614173228346,"hand":"L"},{"time":106000,"durationMs":500,"midi":59,"velocity":0.7086614173228346,"hand":"L"},{"time":106000,"durationMs":250,"midi":86,"velocity":0.7086614173228346,"hand":"R"},{"time":106250,"durationMs":250,"midi":85,"velocity":0.7086614173228346,"hand":"R"},{"time":106500,"durationMs":500,"midi":54,"velocity":0.7086614173228346,"hand":"L"},{"time":106500,"durationMs":500,"midi":59,"velocity":0.7086614173228346,"hand":"L"},{"time":106500,"durationMs":250,"midi":86,"velocity":0.7086614173228346,"hand":"R"},{"time":106750,"durationMs":250,"midi":85,"velocity":0.7086614173228346,"hand":"R"},{"time":107000,"durationMs":500,"midi":47,"velocity":0.7086614173228346,"hand":"L"},{"time":107000,"durationMs":250,"midi":86,"velocity":0.7086614173228346,"hand":"R"},{"time":107250,"durationMs":250,"midi":85,"velocity":0.7086614173228346,"hand":"R"},{"time":107500,"durationMs":500,"midi":56,"velocity":0.7086614173228346,"hand":"L"},{"time":107500,"durationMs":500,"midi":59,"velocity":0.7086614173228346,"hand":"L"},{"time":107500,"durationMs":250,"midi":83,"velocity":0.7086614173228346,"hand":"R"},{"time":107750,"durationMs":250,"midi":81,"velocity":0.7086614173228346,"hand":"R"},{"time":108000,"durationMs":500,"midi":56,"velocity":0.7086614173228346,"hand":"L"},{"time":108000,"durationMs":500,"midi":59,"velocity":0.7086614173228346,"hand":"L"},{"time":108000,"durationMs":250,"midi":80,"velocity":0.7086614173228346,"hand":"R"},{"time":108250,"durationMs":250,"midi":81,"velocity":0.7086614173228346,"hand":"R"},{"time":108500,"durationMs":500,"midi":56,"velocity":0.7086614173228346,"hand":"L"},{"time":108500,"durationMs":500,"midi":59,"velocity":0.7086614173228346,"hand":"L"},{"time":108500,"durationMs":250,"midi":83,"velocity":0.7086614173228346,"hand":"R"},{"time":108750,"durationMs":250,"midi":80,"velocity":0.7086614173228346,"hand":"R"},{"time":109000,"durationMs":500,"midi":49,"velocity":0.7086614173228346,"hand":"L"},{"time":109000,"durationMs":250,"midi":81,"velocity":0.7086614173228346,"hand":"R"},{"time":109250,"durationMs":250,"midi":83,"velocity":0.7086614173228346,"hand":"R"},{"time":109500,"durationMs":500,"midi":54,"velocity":0.7086614173228346,"hand":"L"},{"time":109500,"durationMs":500,"midi":57,"velocity":0.7086614173228346,"hand":"L"},{"time":109500,"durationMs":250,"midi":85,"velocity":0.7086614173228346,"hand":"R"},{"time":109750,"durationMs":250,"midi":78,"velocity":0.7086614173228346,"hand":"R"},{"time":110000,"durationMs":500,"midi":49,"velocity":0.7086614173228346,"hand":"L"},{"time":110000,"durationMs":250,"midi":77,"velocity":0.7086614173228346,"hand":"R"},{"time":110250,"durationMs":250,"midi":78,"velocity":0.7086614173228346,"hand":"R"},{"time":110500,"durationMs":500,"midi":56,"velocity":0.7086614173228346,"hand":"L"},{"time":110500,"durationMs":500,"midi":59,"velocity":0.7086614173228346,"hand":"L"},{"time":110500,"durationMs":250,"midi":80,"velocity":0.7086614173228346,"hand":"R"},{"time":110750,"durationMs":250,"midi":77,"velocity":0.7086614173228346,"hand":"R"},{"time":111000,"durationMs":914,"midi":54,"velocity":0.7086614173228346,"hand":"L"},{"time":111000,"durationMs":914,"midi":57,"velocity":0.7086614173228346,"hand":"L"},{"time":111000,"durationMs":1000,"midi":78,"velocity":0.7086614173228346,"hand":"R"},{"time":112000,"durationMs":500,"midi":69,"velocity":0.7086614173228346,"hand":"R"},{"time":112000,"durationMs":500,"midi":81,"velocity":0.7086614173228346,"hand":"R"},{"time":112500,"durationMs":500,"midi":71,"velocity":0.7086614173228346,"hand":"R"},{"time":112500,"durationMs":500,"midi":83,"velocity":0.7086614173228346,"hand":"R"},{"time":112914,"durationMs":26,"midi":45,"velocity":0.7086614173228346,"hand":"L"},{"time":112943,"durationMs":26,"midi":49,"velocity":0.7086614173228346,"hand":"L"},{"time":112971,"durationMs":26,"midi":52,"velocity":0.7086614173228346,"hand":"L"},{"time":113000,"durationMs":500,"midi":57,"velocity":0.7086614173228346,"hand":"L"},{"time":113000,"durationMs":1000,"midi":73,"velocity":0.7086614173228346,"hand":"R"},{"time":113000,"durationMs":1000,"midi":85,"velocity":0.7086614173228346,"hand":"R"},{"time":113500,"durationMs":500,"midi":57,"velocity":0.7086614173228346,"hand":"L"},{"time":114000,"durationMs":500,"midi":57,"velocity":0.7086614173228346,"hand":"L"},{"time":114000,"durationMs":500,"midi":69,"velocity":0.7086614173228346,"hand":"R"},{"time":114000,"durationMs":500,"midi":81,"velocity":0.7086614173228346,"hand":"R"},{"time":114500,"durationMs":414,"midi":57,"velocity":0.7086614173228346,"hand":"L"},{"time":114500,"durationMs":500,"midi":71,"velocity":0.7086614173228346,"hand":"R"},{"time":114500,"durationMs":500,"midi":83,"velocity":0.7086614173228346,"hand":"R"},{"time":114914,"durationMs":26,"midi":45,"velocity":0.7086614173228346,"hand":"L"},{"time":114943,"durationMs":26,"midi":49,"velocity":0.7086614173228346,"hand":"L"},{"time":114971,"durationMs":26,"midi":52,"velocity":0.7086614173228346,"hand":"L"},{"time":115000,"durationMs":500,"midi":57,"velocity":0.7086614173228346,"hand":"L"},{"time":115000,"durationMs":500,"midi":73,"velocity":0.7086614173228346,"hand":"R"},{"time":115000,"durationMs":500,"midi":85,"velocity":0.7086614173228346,"hand":"R"},{"time":115500,"durationMs":500,"midi":57,"velocity":0.7086614173228346,"hand":"L"},{"time":115500,"durationMs":500,"midi":71,"velocity":0.7086614173228346,"hand":"R"},{"time":115500,"durationMs":500,"midi":83,"velocity":0.7086614173228346,"hand":"R"},{"time":116000,"durationMs":500,"midi":57,"velocity":0.7086614173228346,"hand":"L"},{"time":116000,"durationMs":500,"midi":69,"velocity":0.7086614173228346,"hand":"R"},{"time":116000,"durationMs":500,"midi":81,"velocity":0.7086614173228346,"hand":"R"},{"time":116500,"durationMs":414,"midi":57,"velocity":0.7086614173228346,"hand":"L"},{"time":116500,"durationMs":500,"midi":68,"velocity":0.7086614173228346,"hand":"R"},{"time":116500,"durationMs":500,"midi":80,"velocity":0.7086614173228346,"hand":"R"},{"time":116914,"durationMs":26,"midi":38,"velocity":0.7086614173228346,"hand":"L"},{"time":116943,"durationMs":26,"midi":42,"velocity":0.7086614173228346,"hand":"L"},{"time":116971,"durationMs":26,"midi":45,"velocity":0.7086614173228346,"hand":"L"},{"time":117000,"durationMs":500,"midi":50,"velocity":0.7086614173228346,"hand":"L"},{"time":117000,"durationMs":500,"midi":66,"velocity":0.7086614173228346,"hand":"R"},{"time":117000,"durationMs":500,"midi":78,"velocity":0.7086614173228346,"hand":"R"},{"time":117500,"durationMs":414,"midi":50,"velocity":0.7086614173228346,"hand":"L"},{"time":117500,"durationMs":500,"midi":68,"velocity":0.7086614173228346,"hand":"R"},{"time":117500,"durationMs":500,"midi":80,"velocity":0.7086614173228346,"hand":"R"},{"time":117914,"durationMs":26,"midi":39,"velocity":0.7086614173228346,"hand":"L"},{"time":117943,"durationMs":26,"midi":42,"velocity":0.7086614173228346,"hand":"L"},{"time":117971,"durationMs":26,"midi":45,"velocity":0.7086614173228346,"hand":"L"},{"time":118000,"durationMs":500,"midi":51,"velocity":0.7086614173228346,"hand":"L"},{"time":118000,"durationMs":500,"midi":69,"velocity":0.7086614173228346,"hand":"R"},{"time":118000,"durationMs":500,"midi":81,"velocity":0.7086614173228346,"hand":"R"},{"time":118500,"durationMs":414,"midi":51,"velocity":0.7086614173228346,"hand":"L"},{"time":118500,"durationMs":500,"midi":71,"velocity":0.7086614173228346,"hand":"R"},{"time":118500,"durationMs":500,"midi":83,"velocity":0.7086614173228346,"hand":"R"},{"time":118914,"durationMs":26,"midi":40,"velocity":0.7086614173228346,"hand":"L"},{"time":118943,"durationMs":26,"midi":44,"velocity":0.7086614173228346,"hand":"L"},{"time":118971,"durationMs":26,"midi":47,"velocity":0.7086614173228346,"hand":"L"},{"time":119000,"durationMs":500,"midi":52,"velocity":0.7086614173228346,"hand":"L"},{"time":119000,"durationMs":500,"midi":68,"velocity":0.7086614173228346,"hand":"R"},{"time":119000,"durationMs":500,"midi":80,"velocity":0.7086614173228346,"hand":"R"},{"time":119500,"durationMs":500,"midi":52,"velocity":0.7086614173228346,"hand":"L"},{"time":119500,"durationMs":500,"midi":64,"velocity":0.7086614173228346,"hand":"R"},{"time":119500,"durationMs":500,"midi":76,"velocity":0.7086614173228346,"hand":"R"},{"time":120000,"durationMs":500,"midi":52,"velocity":0.7086614173228346,"hand":"L"},{"time":120000,"durationMs":500,"midi":69,"velocity":0.7086614173228346,"hand":"R"},{"time":120000,"durationMs":500,"midi":81,"velocity":0.7086614173228346,"hand":"R"},{"time":120500,"durationMs":414,"midi":52,"velocity":0.7086614173228346,"hand":"L"},{"time":120500,"durationMs":500,"midi":71,"velocity":0.7086614173228346,"hand":"R"},{"time":120500,"durationMs":500,"midi":83,"velocity":0.7086614173228346,"hand":"R"},{"time":120914,"durationMs":26,"midi":45,"velocity":0.7086614173228346,"hand":"L"},{"time":120943,"durationMs":26,"midi":49,"velocity":0.7086614173228346,"hand":"L"},{"time":120971,"durationMs":26,"midi":52,"velocity":0.7086614173228346,"hand":"L"},{"time":121000,"durationMs":500,"midi":57,"velocity":0.7086614173228346,"hand":"L"},{"time":121000,"durationMs":1000,"midi":73,"velocity":0.7086614173228346,"hand":"R"},{"time":121000,"durationMs":1000,"midi":85,"velocity":0.7086614173228346,"hand":"R"},{"time":121500,"durationMs":500,"midi":57,"velocity":0.7086614173228346,"hand":"L"},{"time":122000,"durationMs":500,"midi":57,"velocity":0.7086614173228346,"hand":"L"},{"time":122000,"durationMs":500,"midi":69,"velocity":0.7086614173228346,"hand":"R"},{"time":122000,"durationMs":500,"midi":81,"velocity":0.7086614173228346,"hand":"R"},{"time":122500,"durationMs":414,"midi":57,"velocity":0.7086614173228346,"hand":"L"},{"time":122500,"durationMs":500,"midi":71,"velocity":0.7086614173228346,"hand":"R"},{"time":122500,"durationMs":500,"midi":83,"velocity":0.7086614173228346,"hand":"R"},{"time":122914,"durationMs":26,"midi":45,"velocity":0.7086614173228346,"hand":"L"},{"time":122943,"durationMs":26,"midi":49,"velocity":0.7086614173228346,"hand":"L"},{"time":122971,"durationMs":26,"midi":52,"velocity":0.7086614173228346,"hand":"L"},{"time":123000,"durationMs":500,"midi":57,"velocity":0.7086614173228346,"hand":"L"},{"time":123000,"durationMs":500,"midi":73,"velocity":0.7086614173228346,"hand":"R"},{"time":123000,"durationMs":500,"midi":85,"velocity":0.7086614173228346,"hand":"R"},{"time":123500,"durationMs":500,"midi":57,"velocity":0.7086614173228346,"hand":"L"},{"time":123500,"durationMs":500,"midi":71,"velocity":0.7086614173228346,"hand":"R"},{"time":123500,"durationMs":500,"midi":83,"velocity":0.7086614173228346,"hand":"R"},{"time":124000,"durationMs":500,"midi":57,"velocity":0.7086614173228346,"hand":"L"},{"time":124000,"durationMs":500,"midi":69,"velocity":0.7086614173228346,"hand":"R"},{"time":124000,"durationMs":500,"midi":81,"velocity":0.7086614173228346,"hand":"R"},{"time":124500,"durationMs":414,"midi":57,"velocity":0.7086614173228346,"hand":"L"},{"time":124500,"durationMs":500,"midi":68,"velocity":0.7086614173228346,"hand":"R"},{"time":124500,"durationMs":500,"midi":80,"velocity":0.7086614173228346,"hand":"R"},{"time":124914,"durationMs":26,"midi":38,"velocity":0.7086614173228346,"hand":"L"},{"time":124943,"durationMs":26,"midi":42,"velocity":0.7086614173228346,"hand":"L"},{"time":124971,"durationMs":26,"midi":45,"velocity":0.7086614173228346,"hand":"L"},{"time":125000,"durationMs":500,"midi":50,"velocity":0.7086614173228346,"hand":"L"},{"time":125000,"durationMs":500,"midi":66,"velocity":0.7086614173228346,"hand":"R"},{"time":125000,"durationMs":500,"midi":78,"velocity":0.7086614173228346,"hand":"R"},{"time":125500,"durationMs":414,"midi":50,"velocity":0.7086614173228346,"hand":"L"},{"time":125500,"durationMs":500,"midi":71,"velocity":0.7086614173228346,"hand":"R"},{"time":125500,"durationMs":500,"midi":83,"velocity":0.7086614173228346,"hand":"R"},{"time":125914,"durationMs":26,"midi":40,"velocity":0.7086614173228346,"hand":"L"},{"time":125943,"durationMs":26,"midi":44,"velocity":0.7086614173228346,"hand":"L"},{"time":125971,"durationMs":26,"midi":47,"velocity":0.7086614173228346,"hand":"L"},{"time":126000,"durationMs":500,"midi":52,"velocity":0.7086614173228346,"hand":"L"},{"time":126000,"durationMs":500,"midi":68,"velocity":0.7086614173228346,"hand":"R"},{"time":126000,"durationMs":500,"midi":80,"velocity":0.7086614173228346,"hand":"R"},{"time":126500,"durationMs":500,"midi":52,"velocity":0.7086614173228346,"hand":"L"},{"time":126500,"durationMs":500,"midi":64,"velocity":0.7086614173228346,"hand":"R"},{"time":126500,"durationMs":500,"midi":76,"velocity":0.7086614173228346,"hand":"R"},{"time":127000,"durationMs":1000,"midi":45,"velocity":0.7086614173228346,"hand":"L"},{"time":127000,"durationMs":1000,"midi":69,"velocity":0.7086614173228346,"hand":"R"},{"time":127000,"durationMs":1000,"midi":81,"velocity":0.7086614173228346,"hand":"R"},{"time":128000,"durationMs":250,"midi":71,"velocity":0.7086614173228346,"hand":"R"},{"time":128250,"durationMs":250,"midi":69,"velocity":0.7086614173228346,"hand":"R"},{"time":128500,"durationMs":250,"midi":68,"velocity":0.7086614173228346,"hand":"R"},{"time":128750,"durationMs":250,"midi":69,"velocity":0.7086614173228346,"hand":"R"},{"time":129000,"durationMs":500,"midi":57,"velocity":0.7086614173228346,"hand":"L"},{"time":129000,"durationMs":500,"midi":72,"velocity":0.7086614173228346,"hand":"R"},{"time":129500,"durationMs":500,"midi":60,"velocity":0.7086614173228346,"hand":"L"},{"time":129500,"durationMs":500,"midi":64,"velocity":0.7086614173228346,"hand":"L"},{"time":130000,"durationMs":500,"midi":60,"velocity":0.7086614173228346,"hand":"L"},{"time":130000,"durationMs":500,"midi":64,"velocity":0.7086614173228346,"hand":"L"},{"time":130000,"durationMs":250,"midi":74,"velocity":0.7086614173228346,"hand":"R"},{"time":130250,"durationMs":250,"midi":72,"velocity":0.7086614173228346,"hand":"R"},{"time":130500,"durationMs":500,"midi":60,"velocity":0.7086614173228346,"hand":"L"},{"time":130500,"durationMs":500,"midi":64,"velocity":0.7086614173228346,"hand":"L"},{"time":130500,"durationMs":250,"midi":71,"velocity":0.7086614173228346,"hand":"R"},{"time":130750,"durationMs":250,"midi":72,"velocity":0.7086614173228346,"hand":"R"},{"time":131000,"durationMs":500,"midi":57,"velocity":0.7086614173228346,"hand":"L"},{"time":131000,"durationMs":500,"midi":76,"velocity":0.7086614173228346,"hand":"R"},{"time":131500,"durationMs":500,"midi":60,"velocity":0.7086614173228346,"hand":"L"},{"time":131500,"durationMs":500,"midi":64,"velocity":0.7086614173228346,"hand":"L"},{"time":132000,"durationMs":500,"midi":60,"velocity":0.7086614173228346,"hand":"L"},{"time":132000,"durationMs":500,"midi":64,"velocity":0.7086614173228346,"hand":"L"},{"time":132000,"durationMs":250,"midi":77,"velocity":0.7086614173228346,"hand":"R"},{"time":132250,"durationMs":250,"midi":76,"velocity":0.7086614173228346,"hand":"R"},{"time":132500,"durationMs":500,"midi":60,"velocity":0.7086614173228346,"hand":"L"},{"time":132500,"durationMs":500,"midi":64,"velocity":0.7086614173228346,"hand":"L"},{"time":132500,"durationMs":250,"midi":75,"velocity":0.7086614173228346,"hand":"R"},{"time":132750,"durationMs":250,"midi":76,"velocity":0.7086614173228346,"hand":"R"},{"time":133000,"durationMs":500,"midi":57,"velocity":0.7086614173228346,"hand":"L"},{"time":133000,"durationMs":250,"midi":83,"velocity":0.7086614173228346,"hand":"R"},{"time":133250,"durationMs":250,"midi":81,"velocity":0.7086614173228346,"hand":"R"},{"time":133500,"durationMs":500,"midi":60,"velocity":0.7086614173228346,"hand":"L"},{"time":133500,"durationMs":500,"midi":64,"velocity":0.7086614173228346,"hand":"L"},{"time":133500,"durationMs":250,"midi":80,"velocity":0.7086614173228346,"hand":"R"},{"time":133750,"durationMs":250,"midi":81,"velocity":0.7086614173228346,"hand":"R"},{"time":134000,"durationMs":500,"midi":57,"velocity":0.7086614173228346,"hand":"L"},{"time":134000,"durationMs":250,"midi":83,"velocity":0.7086614173228346,"hand":"R"},{"time":134250,"durationMs":250,"midi":81,"velocity":0.7086614173228346,"hand":"R"},{"time":134500,"durationMs":500,"midi":60,"velocity":0.7086614173228346,"hand":"L"},{"time":134500,"durationMs":500,"midi":64,"velocity":0.7086614173228346,"hand":"L"},{"time":134500,"durationMs":250,"midi":80,"velocity":0.7086614173228346,"hand":"R"},{"time":134750,"durationMs":250,"midi":81,"velocity":0.7086614173228346,"hand":"R"},{"time":135000,"durationMs":500,"midi":57,"velocity":0.7086614173228346,"hand":"L"},{"time":135000,"durationMs":1000,"midi":84,"velocity":0.7086614173228346,"hand":"R"},{"time":135500,"durationMs":500,"midi":60,"velocity":0.7086614173228346,"hand":"L"},{"time":135500,"durationMs":500,"midi":64,"velocity":0.7086614173228346,"hand":"L"},{"time":136000,"durationMs":500,"midi":60,"velocity":0.7086614173228346,"hand":"L"},{"time":136000,"durationMs":500,"midi":64,"velocity":0.7086614173228346,"hand":"L"},{"time":136000,"durationMs":500,"midi":81,"velocity":0.7086614173228346,"hand":"R"},{"time":136500,"durationMs":500,"midi":60,"velocity":0.7086614173228346,"hand":"L"},{"time":136500,"durationMs":500,"midi":64,"velocity":0.7086614173228346,"hand":"L"},{"time":136500,"durationMs":443,"midi":84,"velocity":0.7086614173228346,"hand":"R"},{"time":136943,"durationMs":26,"midi":79,"velocity":0.7086614173228346,"hand":"R"},{"time":136971,"durationMs":26,"midi":81,"velocity":0.7086614173228346,"hand":"R"},{"time":137000,"durationMs":500,"midi":52,"velocity":0.7086614173228346,"hand":"L"},{"time":137000,"durationMs":500,"midi":83,"velocity":0.7086614173228346,"hand":"R"},{"time":137500,"durationMs":500,"midi":59,"velocity":0.7086614173228346,"hand":"L"},{"time":137500,"durationMs":500,"midi":64,"velocity":0.7086614173228346,"hand":"L"},{"time":137500,"durationMs":500,"midi":78,"velocity":0.7086614173228346,"hand":"R"},{"time":137500,"durationMs":500,"midi":81,"velocity":0.7086614173228346,"hand":"R"},{"time":138000,"durationMs":500,"midi":59,"velocity":0.7086614173228346,"hand":"L"},{"time":138000,"durationMs":500,"midi":64,"velocity":0.7086614173228346,"hand":"L"},{"time":138000,"durationMs":500,"midi":76,"velocity":0.7086614173228346,"hand":"R"},{"time":138000,"durationMs":500,"midi":79,"velocity":0.7086614173228346,"hand":"R"},{"time":138500,"durationMs":500,"midi":59,"velocity":0.7086614173228346,"hand":"L"},{"time":138500,"durationMs":500,"midi":64,"velocity":0.7086614173228346,"hand":"L"},{"time":138500,"durationMs":443,"midi":78,"velocity":0.7086614173228346,"hand":"R"},{"time":138500,"durationMs":443,"midi":81,"velocity":0.7086614173228346,"hand":"R"},{"time":138943,"durationMs":26,"midi":79,"velocity":0.7086614173228346,"hand":"R"},{"time":138971,"durationMs":26,"midi":81,"velocity":0.7086614173228346,"hand":"R"},{"time":139000,"durationMs":500,"midi":52,"velocity":0.7086614173228346,"hand":"L"},{"time":139000,"durationMs":500,"midi":83,"velocity":0.7086614173228346,"hand":"R"},{"time":139500,"durationMs":500,"midi":59,"velocity":0.7086614173228346,"hand":"L"},{"time":139500,"durationMs":500,"midi":64,"velocity":0.7086614173228346,"hand":"L"},{"time":139500,"durationMs":500,"midi":78,"velocity":0.7086614173228346,"hand":"R"},{"time":139500,"durationMs":500,"midi":81,"velocity":0.7086614173228346,"hand":"R"},{"time":140000,"durationMs":500,"midi":59,"velocity":0.7086614173228346,"hand":"L"},{"time":140000,"durationMs":500,"midi":64,"velocity":0.7086614173228346,"hand":"L"},{"time":140000,"durationMs":500,"midi":76,"velocity":0.7086614173228346,"hand":"R"},{"time":140000,"durationMs":500,"midi":79,"velocity":0.7086614173228346,"hand":"R"},{"time":140500,"durationMs":500,"midi":59,"velocity":0.7086614173228346,"hand":"L"},{"time":140500,"durationMs":500,"midi":64,"velocity":0.7086614173228346,"hand":"L"},{"time":140500,"durationMs":443,"midi":78,"velocity":0.7086614173228346,"hand":"R"},{"time":140500,"durationMs":443,"midi":81,"velocity":0.7086614173228346,"hand":"R"},{"time":140943,"durationMs":26,"midi":79,"velocity":0.7086614173228346,"hand":"R"},{"time":140971,"durationMs":26,"midi":81,"velocity":0.7086614173228346,"hand":"R"},{"time":141000,"durationMs":500,"midi":52,"velocity":0.7086614173228346,"hand":"L"},{"time":141000,"durationMs":500,"midi":83,"velocity":0.7086614173228346,"hand":"R"},{"time":141500,"durationMs":500,"midi":59,"velocity":0.7086614173228346,"hand":"L"},{"time":141500,"durationMs":500,"midi":64,"velocity":0.7086614173228346,"hand":"L"},{"time":141500,"durationMs":500,"midi":78,"velocity":0.7086614173228346,"hand":"R"},{"time":141500,"durationMs":500,"midi":81,"velocity":0.7086614173228346,"hand":"R"},{"time":142000,"durationMs":500,"midi":47,"velocity":0.7086614173228346,"hand":"L"},{"time":142000,"durationMs":500,"midi":76,"velocity":0.7086614173228346,"hand":"R"},{"time":142000,"durationMs":500,"midi":79,"velocity":0.7086614173228346,"hand":"R"},{"time":142500,"durationMs":500,"midi":59,"velocity":0.7086614173228346,"hand":"L"},{"time":142500,"durationMs":500,"midi":75,"velocity":0.7086614173228346,"hand":"R"},{"time":142500,"durationMs":500,"midi":78,"velocity":0.7086614173228346,"hand":"R"},{"time":143000,"durationMs":1000,"midi":52,"velocity":0.7086614173228346,"hand":"L"},{"time":143000,"durationMs":1000,"midi":76,"velocity":0.7086614173228346,"hand":"R"},{"time":144000,"durationMs":500,"midi":72,"velocity":0.7086614173228346,"hand":"R"},{"time":144000,"durationMs":500,"midi":76,"velocity":0.7086614173228346,"hand":"R"},{"time":144500,"durationMs":500,"midi":74,"velocity":0.7086614173228346,"hand":"R"},{"time":144500,"durationMs":500,"midi":77,"velocity":0.7086614173228346,"hand":"R"},{"time":145000,"durationMs":500,"midi":48,"velocity":0.7086614173228346,"hand":"L"},{"time":145000,"durationMs":500,"midi":76,"velocity":0.7086614173228346,"hand":"R"},{"time":145000,"durationMs":500,"midi":79,"velocity":0.7086614173228346,"hand":"R"},{"time":145500,"durationMs":500,"midi":60,"velocity":0.7086614173228346,"hand":"L"},{"time":145500,"durationMs":500,"midi":76,"velocity":0.7086614173228346,"hand":"R"},{"time":145500,"durationMs":500,"midi":79,"velocity":0.7086614173228346,"hand":"R"},{"time":146000,"durationMs":500,"midi":52,"velocity":0.7086614173228346,"hand":"L"},{"time":146000,"durationMs":250,"midi":81,"velocity":0.7086614173228346,"hand":"R"},{"time":146250,"durationMs":250,"midi":79,"velocity":0.7086614173228346,"hand":"R"},{"time":146500,"durationMs":500,"midi":64,"velocity":0.7086614173228346,"hand":"L"},{"time":146500,"durationMs":250,"midi":77,"velocity":0.7086614173228346,"hand":"R"},{"time":146750,"durationMs":250,"midi":76,"velocity":0.7086614173228346,"hand":"R"},{"time":147000,"durationMs":1000,"midi":55,"velocity":0.7086614173228346,"hand":"L"},{"time":147000,"durationMs":500,"midi":71,"velocity":0.7086614173228346,"hand":"R"},{"time":147000,"durationMs":1000,"midi":74,"velocity":0.7086614173228346,"hand":"R"},{"time":147500,"durationMs":500,"midi":67,"velocity":0.7086614173228346,"hand":"R"},{"time":148000,"durationMs":500,"midi":72,"velocity":0.7086614173228346,"hand":"R"},{"time":148000,"durationMs":500,"midi":76,"velocity":0.7086614173228346,"hand":"R"},{"time":148500,"durationMs":500,"midi":74,"velocity":0.7086614173228346,"hand":"R"},{"time":148500,"durationMs":500,"midi":77,"velocity":0.7086614173228346,"hand":"R"},{"time":149000,"durationMs":500,"midi":48,"velocity":0.7086614173228346,"hand":"L"},{"time":149000,"durationMs":500,"midi":76,"velocity":0.7086614173228346,"hand":"R"},{"time":149000,"durationMs":500,"midi":79,"velocity":0.7086614173228346,"hand":"R"},{"time":149500,"durationMs":500,"midi":60,"velocity":0.7086614173228346,"hand":"L"},{"time":149500,"durationMs":500,"midi":76,"velocity":0.7086614173228346,"hand":"R"},{"time":149500,"durationMs":500,"midi":79,"velocity":0.7086614173228346,"hand":"R"},{"time":150000,"durationMs":500,"midi":52,"velocity":0.7086614173228346,"hand":"L"},{"time":150000,"durationMs":250,"midi":81,"velocity":0.7086614173228346,"hand":"R"},{"time":150250,"durationMs":250,"midi":79,"velocity":0.7086614173228346,"hand":"R"},{"time":150500,"durationMs":500,"midi":64,"velocity":0.7086614173228346,"hand":"L"},{"time":150500,"durationMs":250,"midi":77,"velocity":0.7086614173228346,"hand":"R"},{"time":150750,"durationMs":250,"midi":76,"velocity":0.7086614173228346,"hand":"R"},{"time":151000,"durationMs":1000,"midi":55,"velocity":0.7086614173228346,"hand":"L"},{"time":151000,"durationMs":1000,"midi":71,"velocity":0.7086614173228346,"hand":"R"},{"time":151000,"durationMs":1000,"midi":74,"velocity":0.7086614173228346,"hand":"R"},{"time":152000,"durationMs":500,"midi":69,"velocity":0.7086614173228346,"hand":"R"},{"time":152000,"durationMs":500,"midi":72,"velocity":0.7086614173228346,"hand":"R"},{"time":152500,"durationMs":500,"midi":71,"velocity":0.7086614173228346,"hand":"R"},{"time":152500,"durationMs":500,"midi":74,"velocity":0.7086614173228346,"hand":"R"},{"time":153000,"durationMs":500,"midi":45,"velocity":0.7086614173228346,"hand":"L"},{"time":153000,"durationMs":500,"midi":72,"velocity":0.7086614173228346,"hand":"R"},{"time":153000,"durationMs":500,"midi":76,"velocity":0.7086614173228346,"hand":"R"},{"time":153500,"durationMs":500,"midi":57,"velocity":0.7086614173228346,"hand":"L"},{"time":153500,"durationMs":500,"midi":72,"velocity":0.7086614173228346,"hand":"R"},{"time":153500,"durationMs":500,"midi":76,"velocity":0.7086614173228346,"hand":"R"},{"time":154000,"durationMs":500,"midi":48,"velocity":0.7086614173228346,"hand":"L"},{"time":154000,"durationMs":250,"midi":77,"velocity":0.7086614173228346,"hand":"R"},{"time":154250,"durationMs":250,"midi":76,"velocity":0.7086614173228346,"hand":"R"},{"time":154500,"durationMs":500,"midi":60,"velocity":0.7086614173228346,"hand":"L"},{"time":154500,"durationMs":250,"midi":74,"velocity":0.7086614173228346,"hand":"R"},{"time":154750,"durationMs":250,"midi":72,"velocity":0.7086614173228346,"hand":"R"},{"time":155000,"durationMs":1000,"midi":52,"velocity":0.7086614173228346,"hand":"L"},{"time":155000,"durationMs":500,"midi":68,"velocity":0.7086614173228346,"hand":"R"},{"time":155000,"durationMs":1000,"midi":71,"velocity":0.7086614173228346,"hand":"R"},{"time":155500,"durationMs":500,"midi":64,"velocity":0.7086614173228346,"hand":"R"},{"time":156000,"durationMs":500,"midi":69,"velocity":0.7086614173228346,"hand":"R"},{"time":156000,"durationMs":500,"midi":72,"velocity":0.7086614173228346,"hand":"R"},{"time":156500,"durationMs":500,"midi":71,"velocity":0.7086614173228346,"hand":"R"},{"time":156500,"durationMs":500,"midi":74,"velocity":0.7086614173228346,"hand":"R"},{"time":157000,"durationMs":500,"midi":45,"velocity":0.7086614173228346,"hand":"L"},{"time":157000,"durationMs":500,"midi":72,"velocity":0.7086614173228346,"hand":"R"},{"time":157000,"durationMs":500,"midi":76,"velocity":0.7086614173228346,"hand":"R"},{"time":157500,"durationMs":500,"midi":57,"velocity":0.7086614173228346,"hand":"L"},{"time":157500,"durationMs":500,"midi":72,"velocity":0.7086614173228346,"hand":"R"},{"time":157500,"durationMs":500,"midi":76,"velocity":0.7086614173228346,"hand":"R"},{"time":158000,"durationMs":500,"midi":48,"velocity":0.7086614173228346,"hand":"L"},{"time":158000,"durationMs":250,"midi":77,"velocity":0.7086614173228346,"hand":"R"},{"time":158250,"durationMs":250,"midi":76,"velocity":0.7086614173228346,"hand":"R"},{"time":158500,"durationMs":500,"midi":60,"velocity":0.7086614173228346,"hand":"L"},{"time":158500,"durationMs":250,"midi":74,"velocity":0.7086614173228346,"hand":"R"},{"time":158750,"durationMs":250,"midi":72,"velocity":0.7086614173228346,"hand":"R"},{"time":159000,"durationMs":1000,"midi":52,"velocity":0.7086614173228346,"hand":"L"},{"time":159000,"durationMs":1000,"midi":68,"velocity":0.7086614173228346,"hand":"R"},{"time":159000,"durationMs":1000,"midi":71,"velocity":0.7086614173228346,"hand":"R"},{"time":160000,"durationMs":250,"midi":71,"velocity":0.7086614173228346,"hand":"R"},{"time":160250,"durationMs":250,"midi":69,"velocity":0.7086614173228346,"hand":"R"},{"time":160500,"durationMs":250,"midi":68,"velocity":0.7086614173228346,"hand":"R"},{"time":160750,"durationMs":250,"midi":69,"velocity":0.7086614173228346,"hand":"R"},{"time":161000,"durationMs":500,"midi":57,"velocity":0.7086614173228346,"hand":"L"},{"time":161000,"durationMs":500,"midi":72,"velocity":0.7086614173228346,"hand":"R"},{"time":161500,"durationMs":500,"midi":60,"velocity":0.7086614173228346,"hand":"L"},{"time":161500,"durationMs":500,"midi":64,"velocity":0.7086614173228346,"hand":"L"},{"time":162000,"durationMs":500,"midi":60,"velocity":0.7086614173228346,"hand":"L"},{"time":162000,"durationMs":500,"midi":64,"velocity":0.7086614173228346,"hand":"L"},{"time":162000,"durationMs":250,"midi":74,"velocity":0.7086614173228346,"hand":"R"},{"time":162250,"durationMs":250,"midi":72,"velocity":0.7086614173228346,"hand":"R"},{"time":162500,"durationMs":500,"midi":60,"velocity":0.7086614173228346,"hand":"L"},{"time":162500,"durationMs":500,"midi":64,"velocity":0.7086614173228346,"hand":"L"},{"time":162500,"durationMs":250,"midi":71,"velocity":0.7086614173228346,"hand":"R"},{"time":162750,"durationMs":250,"midi":72,"velocity":0.7086614173228346,"hand":"R"},{"time":163000,"durationMs":500,"midi":57,"velocity":0.7086614173228346,"hand":"L"},{"time":163000,"durationMs":500,"midi":76,"velocity":0.7086614173228346,"hand":"R"},{"time":163500,"durationMs":500,"midi":60,"velocity":0.7086614173228346,"hand":"L"},{"time":163500,"durationMs":500,"midi":64,"velocity":0.7086614173228346,"hand":"L"},{"time":164000,"durationMs":500,"midi":60,"velocity":0.7086614173228346,"hand":"L"},{"time":164000,"durationMs":500,"midi":64,"velocity":0.7086614173228346,"hand":"L"},{"time":164000,"durationMs":250,"midi":77,"velocity":0.7086614173228346,"hand":"R"},{"time":164250,"durationMs":250,"midi":76,"velocity":0.7086614173228346,"hand":"R"},{"time":164500,"durationMs":500,"midi":60,"velocity":0.7086614173228346,"hand":"L"},{"time":164500,"durationMs":500,"midi":64,"velocity":0.7086614173228346,"hand":"L"},{"time":164500,"durationMs":250,"midi":75,"velocity":0.7086614173228346,"hand":"R"},{"time":164750,"durationMs":250,"midi":76,"velocity":0.7086614173228346,"hand":"R"},{"time":165000,"durationMs":500,"midi":57,"velocity":0.7086614173228346,"hand":"L"},{"time":165000,"durationMs":250,"midi":83,"velocity":0.7086614173228346,"hand":"R"},{"time":165250,"durationMs":250,"midi":81,"velocity":0.7086614173228346,"hand":"R"},{"time":165500,"durationMs":500,"midi":60,"velocity":0.7086614173228346,"hand":"L"},{"time":165500,"durationMs":500,"midi":64,"velocity":0.7086614173228346,"hand":"L"},{"time":165500,"durationMs":250,"midi":80,"velocity":0.7086614173228346,"hand":"R"},{"time":165750,"durationMs":250,"midi":81,"velocity":0.7086614173228346,"hand":"R"},{"time":166000,"durationMs":500,"midi":57,"velocity":0.7086614173228346,"hand":"L"},{"time":166000,"durationMs":250,"midi":83,"velocity":0.7086614173228346,"hand":"R"},{"time":166250,"durationMs":250,"midi":81,"velocity":0.7086614173228346,"hand":"R"},{"time":166500,"durationMs":500,"midi":60,"velocity":0.7086614173228346,"hand":"L"},{"time":166500,"durationMs":500,"midi":64,"velocity":0.7086614173228346,"hand":"L"},{"time":166500,"durationMs":250,"midi":80,"velocity":0.7086614173228346,"hand":"R"},{"time":166750,"durationMs":250,"midi":81,"velocity":0.7086614173228346,"hand":"R"},{"time":167000,"durationMs":500,"midi":53,"velocity":0.7086614173228346,"hand":"L"},{"time":167000,"durationMs":500,"midi":84,"velocity":0.7086614173228346,"hand":"R"},{"time":167500,"durationMs":500,"midi":57,"velocity":0.7086614173228346,"hand":"L"},{"time":167500,"durationMs":500,"midi":63,"velocity":0.7086614173228346,"hand":"L"},{"time":168000,"durationMs":500,"midi":57,"velocity":0.7086614173228346,"hand":"L"},{"time":168000,"durationMs":500,"midi":63,"velocity":0.7086614173228346,"hand":"L"},{"time":168000,"durationMs":500,"midi":81,"velocity":0.7086614173228346,"hand":"R"},{"time":168500,"durationMs":500,"midi":57,"velocity":0.7086614173228346,"hand":"L"},{"time":168500,"durationMs":500,"midi":63,"velocity":0.7086614173228346,"hand":"L"},{"time":168500,"durationMs":500,"midi":83,"velocity":0.7086614173228346,"hand":"R"},{"time":169000,"durationMs":500,"midi":52,"velocity":0.7086614173228346,"hand":"L"},{"time":169000,"durationMs":500,"midi":84,"velocity":0.7086614173228346,"hand":"R"},{"time":169500,"durationMs":500,"midi":57,"velocity":0.7086614173228346,"hand":"L"},{"time":169500,"durationMs":500,"midi":64,"velocity":0.7086614173228346,"hand":"L"},{"time":169500,"durationMs":500,"midi":83,"velocity":0.7086614173228346,"hand":"R"},{"time":170000,"durationMs":500,"midi":50,"velocity":0.7086614173228346,"hand":"L"},{"time":170000,"durationMs":500,"midi":81,"velocity":0.7086614173228346,"hand":"R"},{"time":170500,"durationMs":500,"midi":53,"velocity":0.7086614173228346,"hand":"L"},{"time":170500,"durationMs":500,"midi":59,"velocity":0.7086614173228346,"hand":"L"},{"time":170500,"durationMs":500,"midi":80,"velocity":0.7086614173228346,"hand":"R"},{"time":171000,"durationMs":500,"midi":48,"velocity":0.7086614173228346,"hand":"L"},{"time":171000,"durationMs":500,"midi":81,"velocity":0.7086614173228346,"hand":"R"},{"time":171500,"durationMs":500,"midi":52,"velocity":0.7086614173228346,"hand":"L"},{"time":171500,"durationMs":500,"midi":57,"velocity":0.7086614173228346,"hand":"L"},{"time":171500,"durationMs":500,"midi":76,"velocity":0.7086614173228346,"hand":"R"},{"time":172000,"durationMs":500,"midi":50,"velocity":0.7086614173228346,"hand":"L"},{"time":172000,"durationMs":500,"midi":77,"velocity":0.7086614173228346,"hand":"R"},{"time":172500,"durationMs":500,"midi":53,"velocity":0.7086614173228346,"hand":"L"},{"time":172500,"durationMs":500,"midi":59,"velocity":0.7086614173228346,"hand":"L"},{"time":172500,"durationMs":500,"midi":74,"velocity":0.7086614173228346,"hand":"R"},{"time":173000,"durationMs":500,"midi":52,"velocity":0.7086614173228346,"hand":"L"},{"time":173000,"durationMs":500,"midi":57,"velocity":0.7086614173228346,"hand":"L"},{"time":173000,"durationMs":1000,"midi":72,"velocity":0.7086614173228346,"hand":"R"},{"time":173500,"durationMs":500,"midi":52,"velocity":0.7086614173228346,"hand":"L"},{"time":173500,"durationMs":500,"midi":57,"velocity":0.7086614173228346,"hand":"L"},{"time":174000,"durationMs":500,"midi":52,"velocity":0.7086614173228346,"hand":"L"},{"time":174000,"durationMs":500,"midi":56,"velocity":0.7086614173228346,"hand":"L"},{"time":174000,"durationMs":750,"midi":71,"velocity":0.7086614173228346,"hand":"R"},{"time":174500,"durationMs":500,"midi":52,"velocity":0.7086614173228346,"hand":"L"},{"time":174500,"durationMs":500,"midi":56,"velocity":0.7086614173228346,"hand":"L"},{"time":174750,"durationMs":125,"midi":69,"velocity":0.7086614173228346,"hand":"R"},{"time":174875,"durationMs":125,"midi":71,"velocity":0.7086614173228346,"hand":"R"},{"time":175000,"durationMs":914,"midi":45,"velocity":0.7086614173228346,"hand":"L"},{"time":175000,"durationMs":914,"midi":57,"velocity":0.7086614173228346,"hand":"L"},{"time":175000,"durationMs":1000,"midi":69,"velocity":0.7086614173228346,"hand":"R"},{"time":176000,"durationMs":250,"midi":69,"velocity":0.7086614173228346,"hand":"R"},{"time":176250,"durationMs":250,"midi":81,"velocity":0.7086614173228346,"hand":"R"},{"time":176500,"durationMs":250,"midi":71,"velocity":0.7086614173228346,"hand":"R"},{"time":176750,"durationMs":250,"midi":83,"velocity":0.7086614173228346,"hand":"R"},{"time":176914,"durationMs":26,"midi":45,"velocity":0.7086614173228346,"hand":"L"},{"time":176943,"durationMs":26,"midi":49,"velocity":0.7086614173228346,"hand":"L"},{"time":176971,"durationMs":26,"midi":52,"velocity":0.7086614173228346,"hand":"L"},{"time":177000,"durationMs":500,"midi":57,"velocity":0.7086614173228346,"hand":"L"},{"time":177000,"durationMs":250,"midi":73,"velocity":0.7086614173228346,"hand":"R"},{"time":177250,"durationMs":250,"midi":85,"velocity":0.7086614173228346,"hand":"R"},{"time":177500,"durationMs":500,"midi":57,"velocity":0.7086614173228346,"hand":"L"},{"time":178000,"durationMs":500,"midi":57,"velocity":0.7086614173228346,"hand":"L"},{"time":178000,"durationMs":250,"midi":69,"velocity":0.7086614173228346,"hand":"R"},{"time":178250,"durationMs":250,"midi":81,"velocity":0.7086614173228346,"hand":"R"},{"time":178500,"durationMs":414,"midi":57,"velocity":0.7086614173228346,"hand":"L"},{"time":178500,"durationMs":250,"midi":71,"velocity":0.7086614173228346,"hand":"R"},{"time":178750,"durationMs":250,"midi":83,"velocity":0.7086614173228346,"hand":"R"},{"time":178914,"durationMs":26,"midi":45,"velocity":0.7086614173228346,"hand":"L"},{"time":178943,"durationMs":26,"midi":49,"velocity":0.7086614173228346,"hand":"L"},{"time":178971,"durationMs":26,"midi":52,"velocity":0.7086614173228346,"hand":"L"},{"time":179000,"durationMs":500,"midi":57,"velocity":0.7086614173228346,"hand":"L"},{"time":179000,"durationMs":250,"midi":73,"velocity":0.7086614173228346,"hand":"R"},{"time":179250,"durationMs":250,"midi":85,"velocity":0.7086614173228346,"hand":"R"},{"time":179500,"durationMs":500,"midi":57,"velocity":0.7086614173228346,"hand":"L"},{"time":179500,"durationMs":250,"midi":71,"velocity":0.7086614173228346,"hand":"R"},{"time":179750,"durationMs":250,"midi":83,"velocity":0.7086614173228346,"hand":"R"},{"time":180000,"durationMs":500,"midi":57,"velocity":0.7086614173228346,"hand":"L"},{"time":180000,"durationMs":250,"midi":69,"velocity":0.7086614173228346,"hand":"R"},{"time":180250,"durationMs":250,"midi":81,"velocity":0.7086614173228346,"hand":"R"},{"time":180500,"durationMs":414,"midi":57,"velocity":0.7086614173228346,"hand":"L"},{"time":180500,"durationMs":250,"midi":68,"velocity":0.7086614173228346,"hand":"R"},{"time":180750,"durationMs":250,"midi":80,"velocity":0.7086614173228346,"hand":"R"},{"time":180914,"durationMs":26,"midi":38,"velocity":0.7086614173228346,"hand":"L"},{"time":180943,"durationMs":26,"midi":42,"velocity":0.7086614173228346,"hand":"L"},{"time":180971,"durationMs":26,"midi":45,"velocity":0.7086614173228346,"hand":"L"},{"time":181000,"durationMs":500,"midi":50,"velocity":0.7086614173228346,"hand":"L"},{"time":181000,"durationMs":250,"midi":66,"velocity":0.7086614173228346,"hand":"R"},{"time":181250,"durationMs":250,"midi":78,"velocity":0.7086614173228346,"hand":"R"},{"time":181500,"durationMs":414,"midi":50,"velocity":0.7086614173228346,"hand":"L"},{"time":181500,"durationMs":250,"midi":68,"velocity":0.7086614173228346,"hand":"R"},{"time":181750,"durationMs":250,"midi":80,"velocity":0.7086614173228346,"hand":"R"},{"time":181914,"durationMs":26,"midi":39,"velocity":0.7086614173228346,"hand":"L"},{"time":181943,"durationMs":26,"midi":42,"velocity":0.7086614173228346,"hand":"L"},{"time":181971,"durationMs":26,"midi":45,"velocity":0.7086614173228346,"hand":"L"},{"time":182000,"durationMs":500,"midi":51,"velocity":0.7086614173228346,"hand":"L"},{"time":182000,"durationMs":250,"midi":69,"velocity":0.7086614173228346,"hand":"R"},{"time":182250,"durationMs":250,"midi":81,"velocity":0.7086614173228346,"hand":"R"},{"time":182500,"durationMs":414,"midi":51,"velocity":0.7086614173228346,"hand":"L"},{"time":182500,"durationMs":250,"midi":71,"velocity":0.7086614173228346,"hand":"R"},{"time":182750,"durationMs":250,"midi":83,"velocity":0.7086614173228346,"hand":"R"},{"time":182914,"durationMs":26,"midi":40,"velocity":0.7086614173228346,"hand":"L"},{"time":182943,"durationMs":26,"midi":44,"velocity":0.7086614173228346,"hand":"L"},{"time":182971,"durationMs":26,"midi":47,"velocity":0.7086614173228346,"hand":"L"},{"time":183000,"durationMs":500,"midi":52,"velocity":0.7086614173228346,"hand":"L"},{"time":183000,"durationMs":250,"midi":68,"velocity":0.7086614173228346,"hand":"R"},{"time":183250,"durationMs":250,"midi":80,"velocity":0.7086614173228346,"hand":"R"},{"time":183500,"durationMs":500,"midi":52,"velocity":0.7086614173228346,"hand":"L"},{"time":183500,"durationMs":250,"midi":64,"velocity":0.7086614173228346,"hand":"R"},{"time":183750,"durationMs":250,"midi":76,"velocity":0.7086614173228346,"hand":"R"},{"time":184000,"durationMs":500,"midi":52,"velocity":0.7086614173228346,"hand":"L"},{"time":184000,"durationMs":250,"midi":69,"velocity":0.7086614173228346,"hand":"R"},{"time":184250,"durationMs":250,"midi":81,"velocity":0.7086614173228346,"hand":"R"},{"time":184500,"durationMs":414,"midi":52,"velocity":0.7086614173228346,"hand":"L"},{"time":184500,"durationMs":250,"midi":71,"velocity":0.7086614173228346,"hand":"R"},{"time":184750,"durationMs":250,"midi":83,"velocity":0.7086614173228346,"hand":"R"},{"time":184914,"durationMs":26,"midi":45,"velocity":0.7086614173228346,"hand":"L"},{"time":184943,"durationMs":26,"midi":49,"velocity":0.7086614173228346,"hand":"L"},{"time":184971,"durationMs":26,"midi":52,"velocity":0.7086614173228346,"hand":"L"},{"time":185000,"durationMs":500,"midi":57,"velocity":0.7086614173228346,"hand":"L"},{"time":185000,"durationMs":250,"midi":73,"velocity":0.7086614173228346,"hand":"R"},{"time":185250,"durationMs":250,"midi":85,"velocity":0.7086614173228346,"hand":"R"},{"time":185500,"durationMs":500,"midi":57,"velocity":0.7086614173228346,"hand":"L"},{"time":186000,"durationMs":500,"midi":57,"velocity":0.7086614173228346,"hand":"L"},{"time":186000,"durationMs":250,"midi":69,"velocity":0.7086614173228346,"hand":"R"},{"time":186250,"durationMs":250,"midi":81,"velocity":0.7086614173228346,"hand":"R"},{"time":186500,"durationMs":414,"midi":57,"velocity":0.7086614173228346,"hand":"L"},{"time":186500,"durationMs":250,"midi":71,"velocity":0.7086614173228346,"hand":"R"},{"time":186750,"durationMs":250,"midi":83,"velocity":0.7086614173228346,"hand":"R"},{"time":186914,"durationMs":26,"midi":45,"velocity":0.7086614173228346,"hand":"L"},{"time":186943,"durationMs":26,"midi":49,"velocity":0.7086614173228346,"hand":"L"},{"time":186971,"durationMs":26,"midi":52,"velocity":0.7086614173228346,"hand":"L"},{"time":187000,"durationMs":500,"midi":57,"velocity":0.7086614173228346,"hand":"L"},{"time":187000,"durationMs":250,"midi":73,"velocity":0.7086614173228346,"hand":"R"},{"time":187250,"durationMs":250,"midi":85,"velocity":0.7086614173228346,"hand":"R"},{"time":187500,"durationMs":500,"midi":57,"velocity":0.7086614173228346,"hand":"L"},{"time":187500,"durationMs":250,"midi":71,"velocity":0.7086614173228346,"hand":"R"},{"time":187750,"durationMs":250,"midi":83,"velocity":0.7086614173228346,"hand":"R"},{"time":188000,"durationMs":500,"midi":57,"velocity":0.7086614173228346,"hand":"L"},{"time":188000,"durationMs":250,"midi":69,"velocity":0.7086614173228346,"hand":"R"},{"time":188250,"durationMs":250,"midi":81,"velocity":0.7086614173228346,"hand":"R"},{"time":188500,"durationMs":414,"midi":57,"velocity":0.7086614173228346,"hand":"L"},{"time":188500,"durationMs":250,"midi":68,"velocity":0.7086614173228346,"hand":"R"},{"time":188750,"durationMs":250,"midi":80,"velocity":0.7086614173228346,"hand":"R"},{"time":188914,"durationMs":26,"midi":38,"velocity":0.7086614173228346,"hand":"L"},{"time":188943,"durationMs":26,"midi":42,"velocity":0.7086614173228346,"hand":"L"},{"time":188971,"durationMs":26,"midi":45,"velocity":0.7086614173228346,"hand":"L"},{"time":189000,"durationMs":500,"midi":50,"velocity":0.7086614173228346,"hand":"L"},{"time":189000,"durationMs":250,"midi":66,"velocity":0.7086614173228346,"hand":"R"},{"time":189250,"durationMs":250,"midi":78,"velocity":0.7086614173228346,"hand":"R"},{"time":189500,"durationMs":414,"midi":50,"velocity":0.7086614173228346,"hand":"L"},{"time":189500,"durationMs":250,"midi":71,"velocity":0.7086614173228346,"hand":"R"},{"time":189750,"durationMs":250,"midi":83,"velocity":0.7086614173228346,"hand":"R"},{"time":189914,"durationMs":26,"midi":40,"velocity":0.7086614173228346,"hand":"L"},{"time":189943,"durationMs":26,"midi":44,"velocity":0.7086614173228346,"hand":"L"},{"time":189971,"durationMs":26,"midi":47,"velocity":0.7086614173228346,"hand":"L"},{"time":190000,"durationMs":500,"midi":52,"velocity":0.7086614173228346,"hand":"L"},{"time":190000,"durationMs":250,"midi":68,"velocity":0.7086614173228346,"hand":"R"},{"time":190250,"durationMs":250,"midi":80,"velocity":0.7086614173228346,"hand":"R"},{"time":190500,"durationMs":500,"midi":52,"velocity":0.7086614173228346,"hand":"L"},{"time":190500,"durationMs":250,"midi":64,"velocity":0.7086614173228346,"hand":"R"},{"time":190750,"durationMs":250,"midi":76,"velocity":0.7086614173228346,"hand":"R"},{"time":191000,"durationMs":914,"midi":45,"velocity":0.7086614173228346,"hand":"L"},{"time":191000,"durationMs":914,"midi":69,"velocity":0.7086614173228346,"hand":"R"},{"time":191000,"durationMs":914,"midi":81,"velocity":0.7086614173228346,"hand":"R"},{"time":191914,"durationMs":26,"midi":45,"velocity":0.7086614173228346,"hand":"L"},{"time":191914,"durationMs":83,"midi":69,"velocity":0.7086614173228346,"hand":"R"},{"time":191943,"durationMs":26,"midi":49,"velocity":0.7086614173228346,"hand":"L"},{"time":191971,"durationMs":26,"midi":52,"velocity":0.7086614173228346,"hand":"L"},{"time":192000,"durationMs":500,"midi":57,"velocity":0.7086614173228346,"hand":"L"},{"time":192000,"durationMs":1000,"midi":69,"velocity":0.7086614173228346,"hand":"R"},{"time":192000,"durationMs":1000,"midi":81,"velocity":0.7086614173228346,"hand":"R"},{"time":192500,"durationMs":500,"midi":57,"velocity":0.7086614173228346,"hand":"L"},{"time":193000,"durationMs":500,"midi":57,"velocity":0.7086614173228346,"hand":"L"},{"time":193000,"durationMs":1000,"midi":73,"velocity":0.7086614173228346,"hand":"R"},{"time":193000,"durationMs":750,"midi":85,"velocity":0.7086614173228346,"hand":"R"},{"time":193500,"durationMs":414,"midi":57,"velocity":0.7086614173228346,"hand":"L"},{"time":193750,"durationMs":250,"midi":85,"velocity":0.7086614173228346,"hand":"R"},{"time":193914,"durationMs":26,"midi":45,"velocity":0.7086614173228346,"hand":"L"},{"time":193943,"durationMs":26,"midi":49,"velocity":0.7086614173228346,"hand":"L"},{"time":193971,"durationMs":26,"midi":52,"velocity":0.7086614173228346,"hand":"L"},{"time":194000,"durationMs":500,"midi":57,"velocity":0.7086614173228346,"hand":"L"},{"time":194000,"durationMs":1000,"midi":73,"velocity":0.7086614173228346,"hand":"R"},{"time":194000,"durationMs":1000,"midi":76,"velocity":0.7086614173228346,"hand":"R"},{"time":194000,"durationMs":1000,"midi":81,"velocity":0.7086614173228346,"hand":"R"},{"time":194000,"durationMs":2000,"midi":85,"velocity":0.7086614173228346,"hand":"R"},{"time":194500,"durationMs":500,"midi":57,"velocity":0.7086614173228346,"hand":"L"},{"time":195000,"durationMs":500,"midi":57,"velocity":0.7086614173228346,"hand":"L"},{"time":195500,"durationMs":414,"midi":57,"velocity":0.7086614173228346,"hand":"L"},{"time":195914,"durationMs":26,"midi":45,"velocity":0.7086614173228346,"hand":"L"},{"time":195943,"durationMs":26,"midi":49,"velocity":0.7086614173228346,"hand":"L"},{"time":195971,"durationMs":26,"midi":52,"velocity":0.7086614173228346,"hand":"L"},{"time":196000,"durationMs":500,"midi":57,"velocity":0.7086614173228346,"hand":"L"},{"time":196000,"durationMs":1000,"midi":73,"velocity":0.7086614173228346,"hand":"R"},{"time":196000,"durationMs":1000,"midi":76,"velocity":0.7086614173228346,"hand":"R"},{"time":196000,"durationMs":1000,"midi":81,"velocity":0.7086614173228346,"hand":"R"},{"time":196000,"durationMs":2000,"midi":85,"velocity":0.7086614173228346,"hand":"R"},{"time":196500,"durationMs":500,"midi":57,"velocity":0.7086614173228346,"hand":"L"},{"time":197000,"durationMs":500,"midi":57,"velocity":0.7086614173228346,"hand":"L"},{"time":197500,"durationMs":414,"midi":57,"velocity":0.7086614173228346,"hand":"L"},{"time":197914,"durationMs":26,"midi":45,"velocity":0.7086614173228346,"hand":"L"},{"time":197943,"durationMs":26,"midi":49,"velocity":0.7086614173228346,"hand":"L"},{"time":197971,"durationMs":26,"midi":52,"velocity":0.7086614173228346,"hand":"L"},{"time":198000,"durationMs":500,"midi":57,"velocity":0.7086614173228346,"hand":"L"},{"time":198000,"durationMs":250,"midi":86,"velocity":0.7086614173228346,"hand":"R"},{"time":198250,"durationMs":250,"midi":85,"velocity":0.7086614173228346,"hand":"R"},{"time":198500,"durationMs":500,"midi":57,"velocity":0.7086614173228346,"hand":"L"},{"time":198500,"durationMs":250,"midi":83,"velocity":0.7086614173228346,"hand":"R"},{"time":198750,"durationMs":250,"midi":85,"velocity":0.7086614173228346,"hand":"R"},{"time":199000,"durationMs":500,"midi":57,"velocity":0.7086614173228346,"hand":"L"},{"time":199000,"durationMs":250,"midi":86,"velocity":0.7086614173228346,"hand":"R"},{"time":199250,"durationMs":250,"midi":85,"velocity":0.7086614173228346,"hand":"R"},{"time":199500,"durationMs":414,"midi":57,"velocity":0.7086614173228346,"hand":"L"},{"time":199500,"durationMs":250,"midi":83,"velocity":0.7086614173228346,"hand":"R"},{"time":199750,"durationMs":250,"midi":85,"velocity":0.7086614173228346,"hand":"R"},{"time":199914,"durationMs":26,"midi":38,"velocity":0.7086614173228346,"hand":"L"},{"time":199943,"durationMs":26,"midi":42,"velocity":0.7086614173228346,"hand":"L"},{"time":199971,"durationMs":26,"midi":45,"velocity":0.7086614173228346,"hand":"L"},{"time":200000,"durationMs":500,"midi":50,"velocity":0.7086614173228346,"hand":"L"},{"time":200000,"durationMs":1885,"midi":78,"velocity":0.7086614173228346,"hand":"R"},{"time":200000,"durationMs":1885,"midi":81,"velocity":0.7086614173228346,"hand":"R"},{"time":200000,"durationMs":1885,"midi":86,"velocity":0.7086614173228346,"hand":"R"},{"time":200500,"durationMs":500,"midi":50,"velocity":0.7086614173228346,"hand":"L"},{"time":201000,"durationMs":500,"midi":50,"velocity":0.7086614173228346,"hand":"L"},{"time":201500,"durationMs":414,"midi":50,"velocity":0.7086614173228346,"hand":"L"},{"time":201885,"durationMs":112,"midi":86,"velocity":0.7086614173228346,"hand":"R"},{"time":201914,"durationMs":26,"midi":45,"velocity":0.7086614173228346,"hand":"L"},{"time":201943,"durationMs":26,"midi":49,"velocity":0.7086614173228346,"hand":"L"},{"time":201971,"durationMs":26,"midi":52,"velocity":0.7086614173228346,"hand":"L"},{"time":202000,"durationMs":500,"midi":57,"velocity":0.7086614173228346,"hand":"L"},{"time":202000,"durationMs":385,"midi":76,"velocity":0.7086614173228346,"hand":"R"},{"time":202000,"durationMs":385,"midi":81,"velocity":0.7086614173228346,"hand":"R"},{"time":202000,"durationMs":385,"midi":85,"velocity":0.7086614173228346,"hand":"R"},{"time":202385,"durationMs":112,"midi":86,"velocity":0.7086614173228346,"hand":"R"},{"time":202500,"durationMs":500,"midi":57,"velocity":0.7086614173228346,"hand":"L"},{"time":202500,"durationMs":385,"midi":76,"velocity":0.7086614173228346,"hand":"R"},{"time":202500,"durationMs":385,"midi":81,"velocity":0.7086614173228346,"hand":"R"},{"time":202500,"durationMs":385,"midi":85,"velocity":0.7086614173228346,"hand":"R"},{"time":202885,"durationMs":112,"midi":86,"velocity":0.7086614173228346,"hand":"R"},{"time":203000,"durationMs":500,"midi":57,"velocity":0.7086614173228346,"hand":"L"},{"time":203000,"durationMs":385,"midi":76,"velocity":0.7086614173228346,"hand":"R"},{"time":203000,"durationMs":385,"midi":81,"velocity":0.7086614173228346,"hand":"R"},{"time":203000,"durationMs":385,"midi":85,"velocity":0.7086614173228346,"hand":"R"},{"time":203385,"durationMs":112,"midi":86,"velocity":0.7086614173228346,"hand":"R"},{"time":203500,"durationMs":414,"midi":57,"velocity":0.7086614173228346,"hand":"L"},{"time":203500,"durationMs":500,"midi":76,"velocity":0.7086614173228346,"hand":"R"},{"time":203500,"durationMs":500,"midi":81,"velocity":0.7086614173228346,"hand":"R"},{"time":203500,"durationMs":500,"midi":85,"velocity":0.7086614173228346,"hand":"R"},{"time":203914,"durationMs":26,"midi":40,"velocity":0.7086614173228346,"hand":"L"},{"time":203943,"durationMs":26,"midi":44,"velocity":0.7086614173228346,"hand":"L"},{"time":203971,"durationMs":26,"midi":47,"velocity":0.7086614173228346,"hand":"L"},{"time":204000,"durationMs":500,"midi":52,"velocity":0.7086614173228346,"hand":"L"},{"time":204000,"durationMs":2000,"midi":76,"velocity":0.7086614173228346,"hand":"R"},{"time":204000,"durationMs":2000,"midi":80,"velocity":0.7086614173228346,"hand":"R"},{"time":204000,"durationMs":1500,"midi":83,"velocity":0.7086614173228346,"hand":"R"},{"time":204500,"durationMs":500,"midi":52,"velocity":0.7086614173228346,"hand":"L"},{"time":205000,"durationMs":500,"midi":52,"velocity":0.7086614173228346,"hand":"L"},{"time":205500,"durationMs":414,"midi":52,"velocity":0.7086614173228346,"hand":"L"},{"time":205500,"durationMs":500,"midi":88,"velocity":0.7086614173228346,"hand":"R"},{"time":205914,"durationMs":26,"midi":45,"velocity":0.7086614173228346,"hand":"L"},{"time":205943,"durationMs":26,"midi":49,"velocity":0.7086614173228346,"hand":"L"},{"time":205971,"durationMs":26,"midi":52,"velocity":0.7086614173228346,"hand":"L"},{"time":206000,"durationMs":500,"midi":57,"velocity":0.7086614173228346,"hand":"L"},{"time":206000,"durationMs":1000,"midi":73,"velocity":0.7086614173228346,"hand":"R"},{"time":206000,"durationMs":1000,"midi":76,"velocity":0.7086614173228346,"hand":"R"},{"time":206000,"durationMs":1000,"midi":81,"velocity":0.7086614173228346,"hand":"R"},{"time":206000,"durationMs":2000,"midi":85,"velocity":0.7086614173228346,"hand":"R"},{"time":206500,"durationMs":500,"midi":57,"velocity":0.7086614173228346,"hand":"L"},{"time":207000,"durationMs":500,"midi":57,"velocity":0.7086614173228346,"hand":"L"},{"time":207500,"durationMs":414,"midi":57,"velocity":0.7086614173228346,"hand":"L"},{"time":207914,"durationMs":26,"midi":45,"velocity":0.7086614173228346,"hand":"L"},{"time":207943,"durationMs":26,"midi":49,"velocity":0.7086614173228346,"hand":"L"},{"time":207971,"durationMs":26,"midi":52,"velocity":0.7086614173228346,"hand":"L"},{"time":208000,"durationMs":500,"midi":57,"velocity":0.7086614173228346,"hand":"L"},{"time":208000,"durationMs":1000,"midi":73,"velocity":0.7086614173228346,"hand":"R"},{"time":208000,"durationMs":1000,"midi":76,"velocity":0.7086614173228346,"hand":"R"},{"time":208000,"durationMs":1000,"midi":81,"velocity":0.7086614173228346,"hand":"R"},{"time":208000,"durationMs":2000,"midi":85,"velocity":0.7086614173228346,"hand":"R"},{"time":208500,"durationMs":500,"midi":57,"velocity":0.7086614173228346,"hand":"L"},{"time":209000,"durationMs":500,"midi":57,"velocity":0.7086614173228346,"hand":"L"},{"time":209500,"durationMs":414,"midi":57,"velocity":0.7086614173228346,"hand":"L"},{"time":209914,"durationMs":26,"midi":45,"velocity":0.7086614173228346,"hand":"L"},{"time":209943,"durationMs":26,"midi":49,"velocity":0.7086614173228346,"hand":"L"},{"time":209971,"durationMs":26,"midi":52,"velocity":0.7086614173228346,"hand":"L"},{"time":210000,"durationMs":500,"midi":57,"velocity":0.7086614173228346,"hand":"L"},{"time":210000,"durationMs":250,"midi":86,"velocity":0.7086614173228346,"hand":"R"},{"time":210250,"durationMs":250,"midi":85,"velocity":0.7086614173228346,"hand":"R"},{"time":210500,"durationMs":500,"midi":57,"velocity":0.7086614173228346,"hand":"L"},{"time":210500,"durationMs":250,"midi":83,"velocity":0.7086614173228346,"hand":"R"},{"time":210750,"durationMs":250,"midi":85,"velocity":0.7086614173228346,"hand":"R"},{"time":211000,"durationMs":500,"midi":57,"velocity":0.7086614173228346,"hand":"L"},{"time":211000,"durationMs":250,"midi":86,"velocity":0.7086614173228346,"hand":"R"},{"time":211250,"durationMs":250,"midi":85,"velocity":0.7086614173228346,"hand":"R"},{"time":211500,"durationMs":414,"midi":57,"velocity":0.7086614173228346,"hand":"L"},{"time":211500,"durationMs":250,"midi":83,"velocity":0.7086614173228346,"hand":"R"},{"time":211750,"durationMs":250,"midi":85,"velocity":0.7086614173228346,"hand":"R"},{"time":211914,"durationMs":26,"midi":38,"velocity":0.7086614173228346,"hand":"L"},{"time":211943,"durationMs":26,"midi":42,"velocity":0.7086614173228346,"hand":"L"},{"time":211971,"durationMs":26,"midi":45,"velocity":0.7086614173228346,"hand":"L"},{"time":212000,"durationMs":500,"midi":50,"velocity":0.7086614173228346,"hand":"L"},{"time":212000,"durationMs":1885,"midi":78,"velocity":0.7086614173228346,"hand":"R"},{"time":212000,"durationMs":1885,"midi":81,"velocity":0.7086614173228346,"hand":"R"},{"time":212000,"durationMs":1885,"midi":86,"velocity":0.7086614173228346,"hand":"R"},{"time":212500,"durationMs":500,"midi":50,"velocity":0.7086614173228346,"hand":"L"},{"time":213000,"durationMs":500,"midi":50,"velocity":0.7086614173228346,"hand":"L"},{"time":213500,"durationMs":414,"midi":50,"velocity":0.7086614173228346,"hand":"L"},{"time":213885,"durationMs":112,"midi":86,"velocity":0.7086614173228346,"hand":"R"},{"time":213914,"durationMs":26,"midi":45,"velocity":0.7086614173228346,"hand":"L"},{"time":213943,"durationMs":26,"midi":49,"velocity":0.7086614173228346,"hand":"L"},{"time":213971,"durationMs":26,"midi":52,"velocity":0.7086614173228346,"hand":"L"},{"time":214000,"durationMs":500,"midi":57,"velocity":0.7086614173228346,"hand":"L"},{"time":214000,"durationMs":1885,"midi":76,"velocity":0.7086614173228346,"hand":"R"},{"time":214000,"durationMs":1885,"midi":81,"velocity":0.7086614173228346,"hand":"R"},{"time":214000,"durationMs":1885,"midi":85,"velocity":0.7086614173228346,"hand":"R"},{"time":214500,"durationMs":500,"midi":57,"velocity":0.7086614173228346,"hand":"L"},{"time":215000,"durationMs":500,"midi":57,"velocity":0.7086614173228346,"hand":"L"},{"time":215500,"durationMs":414,"midi":57,"velocity":0.7086614173228346,"hand":"L"},{"time":215885,"durationMs":112,"midi":85,"velocity":0.7086614173228346,"hand":"R"},{"time":215914,"durationMs":26,"midi":40,"velocity":0.7086614173228346,"hand":"L"},{"time":215943,"durationMs":26,"midi":44,"velocity":0.7086614173228346,"hand":"L"},{"time":215971,"durationMs":26,"midi":47,"velocity":0.7086614173228346,"hand":"L"},{"time":216000,"durationMs":500,"midi":52,"velocity":0.7086614173228346,"hand":"L"},{"time":216000,"durationMs":385,"midi":76,"velocity":0.7086614173228346,"hand":"R"},{"time":216000,"durationMs":385,"midi":80,"velocity":0.7086614173228346,"hand":"R"},{"time":216000,"durationMs":385,"midi":83,"velocity":0.7086614173228346,"hand":"R"},{"time":216385,"durationMs":112,"midi":85,"velocity":0.7086614173228346,"hand":"R"},{"time":216500,"durationMs":500,"midi":52,"velocity":0.7086614173228346,"hand":"L"},{"time":216500,"durationMs":385,"midi":76,"velocity":0.7086614173228346,"hand":"R"},{"time":216500,"durationMs":385,"midi":80,"velocity":0.7086614173228346,"hand":"R"},{"time":216500,"durationMs":385,"midi":83,"velocity":0.7086614173228346,"hand":"R"},{"time":216885,"durationMs":112,"midi":85,"velocity":0.7086614173228346,"hand":"R"},{"time":217000,"durationMs":500,"midi":52,"velocity":0.7086614173228346,"hand":"L"},{"time":217000,"durationMs":385,"midi":76,"velocity":0.7086614173228346,"hand":"R"},{"time":217000,"durationMs":385,"midi":80,"velocity":0.7086614173228346,"hand":"R"},{"time":217000,"durationMs":385,"midi":83,"velocity":0.7086614173228346,"hand":"R"},{"time":217385,"durationMs":112,"midi":85,"velocity":0.7086614173228346,"hand":"R"},{"time":217500,"durationMs":500,"midi":52,"velocity":0.7086614173228346,"hand":"L"},{"time":217500,"durationMs":500,"midi":76,"velocity":0.7086614173228346,"hand":"R"},{"time":217500,"durationMs":500,"midi":80,"velocity":0.7086614173228346,"hand":"R"},{"time":217500,"durationMs":500,"midi":83,"velocity":0.7086614173228346,"hand":"R"},{"time":218000,"durationMs":250,"midi":57,"velocity":0.7086614173228346,"hand":"L"},{"time":218000,"durationMs":943,"midi":81,"velocity":0.7086614173228346,"hand":"R"},{"time":218250,"durationMs":250,"midi":64,"velocity":0.7086614173228346,"hand":"L"},{"time":218500,"durationMs":250,"midi":61,"velocity":0.7086614173228346,"hand":"L"},{"time":218750,"durationMs":250,"midi":64,"velocity":0.7086614173228346,"hand":"L"},{"time":218943,"durationMs":26,"midi":76,"velocity":0.7086614173228346,"hand":"R"},{"time":218971,"durationMs":26,"midi":81,"velocity":0.7086614173228346,"hand":"R"},{"time":219000,"durationMs":250,"midi":57,"velocity":0.7086614173228346,"hand":"L"},{"time":219000,"durationMs":750,"midi":85,"velocity":0.7086614173228346,"hand":"R"},{"time":219250,"durationMs":250,"midi":64,"velocity":0.7086614173228346,"hand":"L"},{"time":219500,"durationMs":250,"midi":61,"velocity":0.7086614173228346,"hand":"L"},{"time":219750,"durationMs":250,"midi":64,"velocity":0.7086614173228346,"hand":"L"},{"time":219750,"durationMs":193,"midi":85,"velocity":0.7086614173228346,"hand":"R"},{"time":219943,"durationMs":26,"midi":76,"velocity":0.7086614173228346,"hand":"R"},{"time":219971,"durationMs":26,"midi":81,"velocity":0.7086614173228346,"hand":"R"},{"time":220000,"durationMs":250,"midi":57,"velocity":0.7086614173228346,"hand":"L"},{"time":220000,"durationMs":1943,"midi":85,"velocity":0.7086614173228346,"hand":"R"},{"time":220250,"durationMs":250,"midi":64,"velocity":0.7086614173228346,"hand":"L"},{"time":220500,"durationMs":250,"midi":61,"velocity":0.7086614173228346,"hand":"L"},{"time":220750,"durationMs":250,"midi":64,"velocity":0.7086614173228346,"hand":"L"},{"time":221000,"durationMs":250,"midi":57,"velocity":0.7086614173228346,"hand":"L"},{"time":221250,"durationMs":250,"midi":64,"velocity":0.7086614173228346,"hand":"L"},{"time":221500,"durationMs":250,"midi":61,"velocity":0.7086614173228346,"hand":"L"},{"time":221750,"durationMs":250,"midi":64,"velocity":0.7086614173228346,"hand":"L"},{"time":221943,"durationMs":26,"midi":76,"velocity":0.7086614173228346,"hand":"R"},{"time":221971,"durationMs":26,"midi":81,"velocity":0.7086614173228346,"hand":"R"},{"time":222000,"durationMs":250,"midi":57,"velocity":0.7086614173228346,"hand":"L"},{"time":222000,"durationMs":2000,"midi":85,"velocity":0.7086614173228346,"hand":"R"},{"time":222250,"durationMs":250,"midi":64,"velocity":0.7086614173228346,"hand":"L"},{"time":222500,"durationMs":250,"midi":61,"velocity":0.7086614173228346,"hand":"L"},{"time":222750,"durationMs":250,"midi":64,"velocity":0.7086614173228346,"hand":"L"},{"time":223000,"durationMs":250,"midi":57,"velocity":0.7086614173228346,"hand":"L"},{"time":223250,"durationMs":250,"midi":64,"velocity":0.7086614173228346,"hand":"L"},{"time":223500,"durationMs":250,"midi":61,"velocity":0.7086614173228346,"hand":"L"},{"time":223750,"durationMs":250,"midi":64,"velocity":0.7086614173228346,"hand":"L"},{"time":224000,"durationMs":250,"midi":57,"velocity":0.7086614173228346,"hand":"L"},{"time":224000,"durationMs":250,"midi":86,"velocity":0.7086614173228346,"hand":"R"},{"time":224250,"durationMs":250,"midi":64,"velocity":0.7086614173228346,"hand":"L"},{"time":224250,"durationMs":250,"midi":85,"velocity":0.7086614173228346,"hand":"R"},{"time":224500,"durationMs":250,"midi":61,"velocity":0.7086614173228346,"hand":"L"},{"time":224500,"durationMs":250,"midi":83,"velocity":0.7086614173228346,"hand":"R"},{"time":224750,"durationMs":250,"midi":64,"velocity":0.7086614173228346,"hand":"L"},{"time":224750,"durationMs":250,"midi":85,"velocity":0.7086614173228346,"hand":"R"},{"time":225000,"durationMs":250,"midi":57,"velocity":0.7086614173228346,"hand":"L"},{"time":225000,"durationMs":250,"midi":86,"velocity":0.7086614173228346,"hand":"R"},{"time":225250,"durationMs":250,"midi":64,"velocity":0.7086614173228346,"hand":"L"},{"time":225250,"durationMs":250,"midi":85,"velocity":0.7086614173228346,"hand":"R"},{"time":225500,"durationMs":250,"midi":61,"velocity":0.7086614173228346,"hand":"L"},{"time":225500,"durationMs":250,"midi":83,"velocity":0.7086614173228346,"hand":"R"},{"time":225750,"durationMs":250,"midi":64,"velocity":0.7086614173228346,"hand":"L"},{"time":225750,"durationMs":250,"midi":85,"velocity":0.7086614173228346,"hand":"R"},{"time":226000,"durationMs":250,"midi":57,"velocity":0.7086614173228346,"hand":"L"},{"time":226000,"durationMs":1885,"midi":86,"velocity":0.7086614173228346,"hand":"R"},{"time":226250,"durationMs":250,"midi":66,"velocity":0.7086614173228346,"hand":"L"},{"time":226500,"durationMs":250,"midi":62,"velocity":0.7086614173228346,"hand":"L"},{"time":226750,"durationMs":250,"midi":66,"velocity":0.7086614173228346,"hand":"L"},{"time":227000,"durationMs":250,"midi":57,"velocity":0.7086614173228346,"hand":"L"},{"time":227250,"durationMs":250,"midi":66,"velocity":0.7086614173228346,"hand":"L"},{"time":227500,"durationMs":250,"midi":62,"velocity":0.7086614173228346,"hand":"L"},{"time":227750,"durationMs":250,"midi":66,"velocity":0.7086614173228346,"hand":"L"},{"time":227885,"durationMs":112,"midi":86,"velocity":0.7086614173228346,"hand":"R"},{"time":228000,"durationMs":250,"midi":57,"velocity":0.7086614173228346,"hand":"L"},{"time":228000,"durationMs":385,"midi":85,"velocity":0.7086614173228346,"hand":"R"},{"time":228250,"durationMs":250,"midi":64,"velocity":0.7086614173228346,"hand":"L"},{"time":228385,"durationMs":112,"midi":86,"velocity":0.7086614173228346,"hand":"R"},{"time":228500,"durationMs":250,"midi":61,"velocity":0.7086614173228346,"hand":"L"},{"time":228500,"durationMs":385,"midi":85,"velocity":0.7086614173228346,"hand":"R"},{"time":228750,"durationMs":250,"midi":64,"velocity":0.7086614173228346,"hand":"L"},{"time":228885,"durationMs":112,"midi":86,"velocity":0.7086614173228346,"hand":"R"},{"time":229000,"durationMs":250,"midi":57,"velocity":0.7086614173228346,"hand":"L"},{"time":229000,"durationMs":385,"midi":85,"velocity":0.7086614173228346,"hand":"R"},{"time":229250,"durationMs":250,"midi":64,"velocity":0.7086614173228346,"hand":"L"},{"time":229385,"durationMs":112,"midi":86,"velocity":0.7086614173228346,"hand":"R"},{"time":229500,"durationMs":250,"midi":61,"velocity":0.7086614173228346,"hand":"L"},{"time":229500,"durationMs":500,"midi":85,"velocity":0.7086614173228346,"hand":"R"},{"time":229750,"durationMs":250,"midi":64,"velocity":0.7086614173228346,"hand":"L"},{"time":230000,"durationMs":250,"midi":52,"velocity":0.7086614173228346,"hand":"L"},{"time":230000,"durationMs":1500,"midi":83,"velocity":0.7086614173228346,"hand":"R"},{"time":230250,"durationMs":250,"midi":64,"velocity":0.7086614173228346,"hand":"L"},{"time":230500,"durationMs":250,"midi":56,"velocity":0.7086614173228346,"hand":"L"},{"time":230750,"durationMs":250,"midi":64,"velocity":0.7086614173228346,"hand":"L"},{"time":231000,"durationMs":250,"midi":52,"velocity":0.7086614173228346,"hand":"L"},{"time":231250,"durationMs":250,"midi":64,"velocity":0.7086614173228346,"hand":"L"},{"time":231500,"durationMs":250,"midi":56,"velocity":0.7086614173228346,"hand":"L"},{"time":231500,"durationMs":500,"midi":88,"velocity":0.7086614173228346,"hand":"R"},{"time":231750,"durationMs":164,"midi":64,"velocity":0.7086614173228346,"hand":"L"},{"time":231914,"durationMs":26,"midi":45,"velocity":0.7086614173228346,"hand":"L"},{"time":231943,"durationMs":26,"midi":49,"velocity":0.7086614173228346,"hand":"L"},{"time":231971,"durationMs":26,"midi":52,"velocity":0.7086614173228346,"hand":"L"},{"time":232000,"durationMs":500,"midi":57,"velocity":0.7086614173228346,"hand":"L"},{"time":232000,"durationMs":1000,"midi":73,"velocity":0.7086614173228346,"hand":"R"},{"time":232000,"durationMs":1000,"midi":76,"velocity":0.7086614173228346,"hand":"R"},{"time":232000,"durationMs":1000,"midi":81,"velocity":0.7086614173228346,"hand":"R"},{"time":232000,"durationMs":2000,"midi":85,"velocity":0.7086614173228346,"hand":"R"},{"time":232500,"durationMs":500,"midi":57,"velocity":0.7086614173228346,"hand":"L"},{"time":233000,"durationMs":500,"midi":57,"velocity":0.7086614173228346,"hand":"L"},{"time":233500,"durationMs":414,"midi":57,"velocity":0.7086614173228346,"hand":"L"},{"time":233914,"durationMs":26,"midi":45,"velocity":0.7086614173228346,"hand":"L"},{"time":233943,"durationMs":26,"midi":49,"velocity":0.7086614173228346,"hand":"L"},{"time":233971,"durationMs":26,"midi":52,"velocity":0.7086614173228346,"hand":"L"},{"time":234000,"durationMs":500,"midi":57,"velocity":0.7086614173228346,"hand":"L"},{"time":234000,"durationMs":1000,"midi":73,"velocity":0.7086614173228346,"hand":"R"},{"time":234000,"durationMs":1000,"midi":76,"velocity":0.7086614173228346,"hand":"R"},{"time":234000,"durationMs":1000,"midi":81,"velocity":0.7086614173228346,"hand":"R"},{"time":234000,"durationMs":2000,"midi":85,"velocity":0.7086614173228346,"hand":"R"},{"time":234500,"durationMs":500,"midi":57,"velocity":0.7086614173228346,"hand":"L"},{"time":235000,"durationMs":500,"midi":57,"velocity":0.7086614173228346,"hand":"L"},{"time":235500,"durationMs":414,"midi":57,"velocity":0.7086614173228346,"hand":"L"},{"time":235914,"durationMs":26,"midi":45,"velocity":0.7086614173228346,"hand":"L"},{"time":235943,"durationMs":26,"midi":49,"velocity":0.7086614173228346,"hand":"L"},{"time":235971,"durationMs":26,"midi":52,"velocity":0.7086614173228346,"hand":"L"},{"time":236000,"durationMs":500,"midi":57,"velocity":0.7086614173228346,"hand":"L"},{"time":236000,"durationMs":250,"midi":86,"velocity":0.7086614173228346,"hand":"R"},{"time":236250,"durationMs":250,"midi":85,"velocity":0.7086614173228346,"hand":"R"},{"time":236500,"durationMs":500,"midi":57,"velocity":0.7086614173228346,"hand":"L"},{"time":236500,"durationMs":250,"midi":83,"velocity":0.7086614173228346,"hand":"R"},{"time":236750,"durationMs":250,"midi":85,"velocity":0.7086614173228346,"hand":"R"},{"time":237000,"durationMs":500,"midi":57,"velocity":0.7086614173228346,"hand":"L"},{"time":237000,"durationMs":250,"midi":86,"velocity":0.7086614173228346,"hand":"R"},{"time":237250,"durationMs":250,"midi":85,"velocity":0.7086614173228346,"hand":"R"},{"time":237500,"durationMs":414,"midi":57,"velocity":0.7086614173228346,"hand":"L"},{"time":237500,"durationMs":250,"midi":83,"velocity":0.7086614173228346,"hand":"R"},{"time":237750,"durationMs":250,"midi":85,"velocity":0.7086614173228346,"hand":"R"},{"time":237914,"durationMs":26,"midi":38,"velocity":0.7086614173228346,"hand":"L"},{"time":237943,"durationMs":26,"midi":42,"velocity":0.7086614173228346,"hand":"L"},{"time":237971,"durationMs":26,"midi":45,"velocity":0.7086614173228346,"hand":"L"},{"time":238000,"durationMs":500,"midi":50,"velocity":0.7086614173228346,"hand":"L"},{"time":238000,"durationMs":1885,"midi":78,"velocity":0.7086614173228346,"hand":"R"},{"time":238000,"durationMs":1885,"midi":81,"velocity":0.7086614173228346,"hand":"R"},{"time":238000,"durationMs":1885,"midi":86,"velocity":0.7086614173228346,"hand":"R"},{"time":238500,"durationMs":500,"midi":50,"velocity":0.7086614173228346,"hand":"L"},{"time":239000,"durationMs":500,"midi":50,"velocity":0.7086614173228346,"hand":"L"},{"time":239500,"durationMs":414,"midi":50,"velocity":0.7086614173228346,"hand":"L"},{"time":239885,"durationMs":112,"midi":86,"velocity":0.7086614173228346,"hand":"R"},{"time":239914,"durationMs":26,"midi":45,"velocity":0.7086614173228346,"hand":"L"},{"time":239943,"durationMs":26,"midi":49,"velocity":0.7086614173228346,"hand":"L"},{"time":239971,"durationMs":26,"midi":52,"velocity":0.7086614173228346,"hand":"L"},{"time":240000,"durationMs":500,"midi":57,"velocity":0.7086614173228346,"hand":"L"},{"time":240000,"durationMs":1885,"midi":76,"velocity":0.7086614173228346,"hand":"R"},{"time":240000,"durationMs":1885,"midi":81,"velocity":0.7086614173228346,"hand":"R"},{"time":240000,"durationMs":1885,"midi":85,"velocity":0.7086614173228346,"hand":"R"},{"time":240500,"durationMs":500,"midi":57,"velocity":0.7086614173228346,"hand":"L"},{"time":241000,"durationMs":500,"midi":57,"velocity":0.7086614173228346,"hand":"L"},{"time":241500,"durationMs":414,"midi":57,"velocity":0.7086614173228346,"hand":"L"},{"time":241885,"durationMs":112,"midi":85,"velocity":0.7086614173228346,"hand":"R"},{"time":241914,"durationMs":26,"midi":40,"velocity":0.7086614173228346,"hand":"L"},{"time":241943,"durationMs":26,"midi":44,"velocity":0.7086614173228346,"hand":"L"},{"time":241971,"durationMs":26,"midi":47,"velocity":0.7086614173228346,"hand":"L"},{"time":242000,"durationMs":500,"midi":52,"velocity":0.7086614173228346,"hand":"L"},{"time":242000,"durationMs":385,"midi":76,"velocity":0.7086614173228346,"hand":"R"},{"time":242000,"durationMs":385,"midi":80,"velocity":0.7086614173228346,"hand":"R"},{"time":242000,"durationMs":385,"midi":83,"velocity":0.7086614173228346,"hand":"R"},{"time":242385,"durationMs":112,"midi":85,"velocity":0.7086614173228346,"hand":"R"},{"time":242500,"durationMs":500,"midi":52,"velocity":0.7086614173228346,"hand":"L"},{"time":242500,"durationMs":385,"midi":76,"velocity":0.7086614173228346,"hand":"R"},{"time":242500,"durationMs":385,"midi":80,"velocity":0.7086614173228346,"hand":"R"},{"time":242500,"durationMs":385,"midi":83,"velocity":0.7086614173228346,"hand":"R"},{"time":242885,"durationMs":112,"midi":85,"velocity":0.7086614173228346,"hand":"R"},{"time":243000,"durationMs":500,"midi":52,"velocity":0.7086614173228346,"hand":"L"},{"time":243000,"durationMs":385,"midi":76,"velocity":0.7086614173228346,"hand":"R"},{"time":243000,"durationMs":385,"midi":80,"velocity":0.7086614173228346,"hand":"R"},{"time":243000,"durationMs":385,"midi":83,"velocity":0.7086614173228346,"hand":"R"},{"time":243385,"durationMs":112,"midi":85,"velocity":0.7086614173228346,"hand":"R"},{"time":243500,"durationMs":414,"midi":52,"velocity":0.7086614173228346,"hand":"L"},{"time":243500,"durationMs":500,"midi":76,"velocity":0.7086614173228346,"hand":"R"},{"time":243500,"durationMs":500,"midi":80,"velocity":0.7086614173228346,"hand":"R"},{"time":243500,"durationMs":500,"midi":83,"velocity":0.7086614173228346,"hand":"R"},{"time":243914,"durationMs":26,"midi":45,"velocity":0.7086614173228346,"hand":"L"},{"time":243943,"durationMs":26,"midi":49,"velocity":0.7086614173228346,"hand":"L"},{"time":243971,"durationMs":26,"midi":52,"velocity":0.7086614173228346,"hand":"L"},{"time":244000,"durationMs":500,"midi":57,"velocity":0.7086614173228346,"hand":"L"},{"time":244000,"durationMs":1500,"midi":69,"velocity":0.7086614173228346,"hand":"R"},{"time":244000,"durationMs":1500,"midi":73,"velocity":0.7086614173228346,"hand":"R"},{"time":244000,"durationMs":1500,"midi":76,"velocity":0.7086614173228346,"hand":"R"},{"time":244000,"durationMs":1500,"midi":81,"velocity":0.7086614173228346,"hand":"R"},{"time":244500,"durationMs":500,"midi":57,"velocity":0.7086614173228346,"hand":"L"},{"time":245000,"durationMs":500,"midi":57,"velocity":0.7086614173228346,"hand":"L"},{"time":245500,"durationMs":414,"midi":57,"velocity":0.7086614173228346,"hand":"L"},{"time":245500,"durationMs":500,"midi":73,"velocity":0.7086614173228346,"hand":"R"},{"time":245500,"durationMs":500,"midi":85,"velocity":0.7086614173228346,"hand":"R"},{"time":245914,"durationMs":26,"midi":45,"velocity":0.7086614173228346,"hand":"L"},{"time":245943,"durationMs":26,"midi":49,"velocity":0.7086614173228346,"hand":"L"},{"time":245971,"durationMs":26,"midi":52,"velocity":0.7086614173228346,"hand":"L"},{"time":246000,"durationMs":500,"midi":57,"velocity":0.7086614173228346,"hand":"L"},{"time":246000,"durationMs":1500,"midi":69,"velocity":0.7086614173228346,"hand":"R"},{"time":246000,"durationMs":1500,"midi":81,"velocity":0.7086614173228346,"hand":"R"},{"time":246500,"durationMs":500,"midi":57,"velocity":0.7086614173228346,"hand":"L"},{"time":247000,"durationMs":500,"midi":57,"velocity":0.7086614173228346,"hand":"L"},{"time":247500,"durationMs":414,"midi":57,"velocity":0.7086614173228346,"hand":"L"},{"time":247500,"durationMs":500,"midi":76,"velocity":0.7086614173228346,"hand":"R"},{"time":247500,"durationMs":500,"midi":88,"velocity":0.7086614173228346,"hand":"R"},{"time":247914,"durationMs":26,"midi":45,"velocity":0.7086614173228346,"hand":"L"},{"time":247943,"durationMs":26,"midi":49,"velocity":0.7086614173228346,"hand":"L"},{"time":247971,"durationMs":26,"midi":52,"velocity":0.7086614173228346,"hand":"L"},{"time":248000,"durationMs":500,"midi":57,"velocity":0.7086614173228346,"hand":"L"},{"time":248000,"durationMs":1500,"midi":69,"velocity":0.7086614173228346,"hand":"R"},{"time":248000,"durationMs":1500,"midi":81,"velocity":0.7086614173228346,"hand":"R"},{"time":248500,"durationMs":500,"midi":57,"velocity":0.7086614173228346,"hand":"L"},{"time":249000,"durationMs":500,"midi":57,"velocity":0.7086614173228346,"hand":"L"},{"time":249500,"durationMs":414,"midi":57,"velocity":0.7086614173228346,"hand":"L"},{"time":249500,"durationMs":500,"midi":73,"velocity":0.7086614173228346,"hand":"R"},{"time":249500,"durationMs":500,"midi":85,"velocity":0.7086614173228346,"hand":"R"},{"time":249914,"durationMs":26,"midi":45,"velocity":0.7086614173228346,"hand":"L"},{"time":249943,"durationMs":26,"midi":49,"velocity":0.7086614173228346,"hand":"L"},{"time":249971,"durationMs":26,"midi":52,"velocity":0.7086614173228346,"hand":"L"},{"time":250000,"durationMs":500,"midi":57,"velocity":0.7086614173228346,"hand":"L"},{"time":250000,"durationMs":500,"midi":69,"velocity":0.7086614173228346,"hand":"R"},{"time":250000,"durationMs":500,"midi":81,"velocity":0.7086614173228346,"hand":"R"},{"time":250500,"durationMs":414,"midi":57,"velocity":0.7086614173228346,"hand":"L"},{"time":250500,"durationMs":500,"midi":73,"velocity":0.7086614173228346,"hand":"R"},{"time":250500,"durationMs":500,"midi":85,"velocity":0.7086614173228346,"hand":"R"},{"time":250914,"durationMs":26,"midi":45,"velocity":0.7086614173228346,"hand":"L"},{"time":250943,"durationMs":26,"midi":49,"velocity":0.7086614173228346,"hand":"L"},{"time":250971,"durationMs":26,"midi":52,"velocity":0.7086614173228346,"hand":"L"},{"time":251000,"durationMs":500,"midi":57,"velocity":0.7086614173228346,"hand":"L"},{"time":251000,"durationMs":500,"midi":69,"velocity":0.7086614173228346,"hand":"R"},{"time":251000,"durationMs":500,"midi":81,"velocity":0.7086614173228346,"hand":"R"},{"time":251500,"durationMs":500,"midi":57,"velocity":0.7086614173228346,"hand":"L"},{"time":251500,"durationMs":500,"midi":76,"velocity":0.7086614173228346,"hand":"R"},{"time":251500,"durationMs":500,"midi":88,"velocity":0.7086614173228346,"hand":"R"},{"time":252000,"durationMs":1000,"midi":45,"velocity":0.7086614173228346,"hand":"L"},{"time":252000,"durationMs":1000,"midi":69,"velocity":0.7086614173228346,"hand":"R"},{"time":252000,"durationMs":1000,"midi":81,"velocity":0.7086614173228346,"hand":"R"},{"time":253000,"durationMs":1000,"midi":45,"velocity":0.7086614173228346,"hand":"L"},{"time":253000,"durationMs":1000,"midi":49,"velocity":0.7086614173228346,"hand":"L"},{"time":253000,"durationMs":1000,"midi":52,"velocity":0.7086614173228346,"hand":"L"},{"time":253000,"durationMs":1000,"midi":57,"velocity":0.7086614173228346,"hand":"L"},{"time":253000,"durationMs":1000,"midi":69,"velocity":0.7086614173228346,"hand":"R"},{"time":253000,"durationMs":1000,"midi":73,"velocity":0.7086614173228346,"hand":"R"},{"time":253000,"durationMs":1000,"midi":76,"velocity":0.7086614173228346,"hand":"R"},{"time":253000,"durationMs":1000,"midi":81,"velocity":0.7086614173228346,"hand":"R"},{"time":254000,"durationMs":1000,"midi":45,"velocity":0.7086614173228346,"hand":"L"},{"time":254000,"durationMs":1000,"midi":49,"velocity":0.7086614173228346,"hand":"L"},{"time":254000,"durationMs":1000,"midi":52,"velocity":0.7086614173228346,"hand":"L"},{"time":254000,"durationMs":1000,"midi":57,"velocity":0.7086614173228346,"hand":"L"},{"time":254000,"durationMs":1000,"midi":69,"velocity":0.7086614173228346,"hand":"R"},{"time":254000,"durationMs":1000,"midi":73,"velocity":0.7086614173228346,"hand":"R"},{"time":254000,"durationMs":1000,"midi":76,"velocity":0.7086614173228346,"hand":"R"},{"time":254000,"durationMs":1000,"midi":81,"velocity":0.7086614173228346,"hand":"R"}]}
